<?xml version="1.0" encoding="utf-8"?>
<!-- Generator: Adobe Illustrator 16.0.0, SVG Export Plug-In . SVG Version: 6.00 Build 0)  -->
<!DOCTYPE svg PUBLIC "-//W3C//DTD SVG 1.1//EN" "http://www.w3.org/Graphics/SVG/1.1/DTD/svg11.dtd">
<svg version="1.1" id="Layer_1" xmlns="http://www.w3.org/2000/svg" xmlns:xlink="http://www.w3.org/1999/xlink" x="0px" y="0px"
	 width="124.725px" height="124.725px" viewBox="0 0 124.725 124.725" enable-background="new 0 0 124.725 124.725"
	 xml:space="preserve">
<g id="Search" display="none">
	<path display="inline" fill-rule="evenodd" clip-rule="evenodd" d="M108.239,40.765c0.112,5.871-1.222,11.118-3.339,16.144
		c-1.627,3.859-3.558,7.592-5.438,11.339c-0.331,0.66-1.061,1.13-1.638,1.654c-0.74,0.672-1.662,1.201-2.243,1.988
		c-1.067,1.446-2.518,2.21-4.107,2.854c-5.113,2.072-10.458,3.281-15.86,4.291c-1.223,0.229-2.458,0.473-3.628,0.882
		c-2.252,0.792-4.509,0.772-6.79,0.273c-1.904-0.418-3.604-0.036-4.937,1.374c-3.04,3.215-6.108,6.411-8.989,9.767
		c-3.396,3.956-6.677,8.019-9.867,12.142c-1.439,1.861-2.433,4.061-3.832,5.956c-0.836,1.133-1.984,2.088-3.136,2.926
		c-2.316,1.683-4.618,3.42-7.644,3.722c-3.909,0.388-6.757-1.31-8.637-4.543c-1.854-3.188-2.14-6.652-0.628-10.086
		c0.468-1.061,1.34-1.949,2.06-2.893c3.032-3.979,7.167-6.976,9.783-11.372c1.5-2.521,3.596-4.703,5.534-6.943
		c2.379-2.752,4.864-5.413,7.321-8.098c0.692-0.757,0.833-1.388,0.257-2.391c-2.827-4.925-5.264-10.021-6.599-15.592
		c-1.311-5.468-1.639-11.015,0.199-16.312c1.555-4.483,3.678-8.833,6.076-12.936c1.231-2.106,3.472-3.729,5.506-5.232
		c2.629-1.943,5.479-3.601,8.301-5.267c0.751-0.444,1.767-0.418,2.63-0.7c2.398-0.785,4.85-1.461,7.151-2.469
		c3.25-1.424,6.624-1.405,9.99-1.136c6.09,0.487,11.532,2.832,16.438,6.401c6.552,4.765,11.783,10.584,14.375,18.449
		c0.09,0.273,0.204,0.543,0.344,0.795C108.237,38.185,108.239,38.183,108.239,40.765z M93.979,45.304
		c0.108-0.045,0.219-0.091,0.328-0.136c-0.516-1.413-0.926-2.876-1.574-4.226c-0.881-1.831-1.989-3.551-2.915-5.362
		c-0.989-1.934-2.275-3.586-4.12-4.752c-2.285-1.446-4.663-2.759-6.871-4.315c-1.26-0.888-2.527-1.454-4.034-1.366
		c-1.912,0.111-3.822,0.497-5.726,0.446c-2.232-0.059-4.167,0.552-5.998,1.725c-2.458,1.574-5.154,2.956-6.745,5.474
		c-2.56,4.047-4.766,8.293-5.626,13.103c-0.666,3.727-0.662,7.308,1.764,10.51c0.21,0.278,0.221,0.699,0.375,1.029
		c0.217,0.466,0.391,1.001,0.742,1.345c1.402,1.376,2.833,2.728,4.312,4.02c2.865,2.499,6.07,4.375,10.013,4.089
		c2.597-0.187,5.237-0.545,7.727-1.272c3.554-1.039,7.36-1.661,10.173-4.437c1.1-1.083,2.227-2.158,3.184-3.36
		C91.9,54.158,93.814,50.071,93.979,45.304z"/>
</g>
<g id="Stop" display="none">
	<path display="inline" fill-rule="evenodd" clip-rule="evenodd" d="M62.339,9.622c6.928-0.307,13.497,1.083,19.978,3.079
		c2.023,0.623,4.056,1.201,5.948,2.172c0.317,0.163,0.7,0.296,0.909,0.558c2.432,3.043,6.061,4.592,8.867,7.193
		c7.945,7.362,14.84,15.406,18.121,26.001c0.703,2.267,0.99,4.604,1.164,6.942c0.222,2.98,0.618,5.95,0.541,8.955
		c-0.164,6.422-1.263,12.607-4.305,18.35c-1.421,2.682-2.666,5.447-3.904,8.219c-3.322,7.438-8.645,12.988-15.779,16.933
		c-6.532,3.612-13.395,6.202-20.78,7.259c-4.777,0.683-9.577,1.004-14.434,0.629c-4.599-0.354-9.102-1.009-13.485-2.459
		c-2.906-0.961-5.542-2.436-8.104-4.08c-3.527-2.264-7.14-4.389-10.567-6.812c-7.346-5.193-12.515-12-15.875-20.354
		c-1.821-4.526-2.64-9.127-2.92-13.946c-0.41-7.053,0.271-13.964,2.473-20.655c2.005-6.095,5.452-11.41,9.604-16.288
		c2.33-2.738,4.649-5.482,7.268-7.95c1.508-1.42,3.01-2.869,4.988-3.66c0.147-0.059,0.345-0.112,0.415-0.229
		c1.21-2.061,3.961-1.794,5.38-3.592c0.533-0.676,1.448-0.916,2.354-1.054c2.084-0.319,3.989-1.164,5.718-2.341
		c2.259-1.539,4.831-2.024,7.446-2.397C56.368,9.664,59.393,9.476,62.339,9.622z M67.801,104.756
		c1.103,0.365,2.607-0.662,4.232-0.933c1.025-0.17,2.062-0.04,3.085-0.345c3.222-0.957,6.08-2.59,8.812-4.497
		c2.943-2.056,5.735-4.363,9.064-5.795c0.997-0.43,1.744-0.898,2.211-1.95c0.397-0.895,1.146-1.626,1.92-2.273
		c1.31-1.096,2.3-2.406,2.825-4.061c0.675-2.125,1.019-4.404,2.254-6.289c1.844-2.812,2.282-5.915,2.275-9.146
		c-0.003-2.041,0.146-4.06,0.439-6.08c0.378-2.597,0.942-5.253-0.155-7.781c-1.507-3.47-1.765-7.446-4.272-10.509
		c-0.247-0.301-0.401-0.695-0.534-1.069c-0.753-2.115-2.185-3.794-3.538-5.518c-2.439-3.106-5.335-5.833-7.607-9.078
		c-0.452-0.646-1.017-1.084-1.726-1.415c-4.241-1.977-8.677-3.415-13.099-4.921c-6.625-2.257-13.23-2.165-19.898-0.446
		c-6.65,1.714-12.709,4.701-18.288,8.679c-0.671,0.479-1.427,0.867-1.846,1.662c-2.042,3.879-4.869,7.192-7.615,10.566
		c-0.644,0.791-1.58,1.429-1.762,2.517c-0.184,1.092-0.777,1.921-1.53,2.64c-0.676,0.645-1.002,1.415-1.178,2.298
		c-0.101,0.504-0.202,1.029-0.426,1.485c-0.562,1.146-1.058,2.365-1.835,3.354c-0.847,1.078-0.407,2.328-0.669,3.452
		c-0.726,3.109-1.273,6.371-0.124,9.56c0.875,2.426,1.138,4.949,1.392,7.493c0.337,3.373,1.574,6.399,3.927,8.908
		c5.022,5.354,11.212,9.198,17.187,13.323c1.43,0.987,3.238,1.218,4.609,2.248c1.807,1.358,3.849,2.104,5.986,2.618
		C56.927,104.662,62.075,104.24,67.801,104.756z"/>
	<path display="inline" fill-rule="evenodd" clip-rule="evenodd" d="M62.541,85.832c-2.268,0.001-4.562,0.211-6.798-0.054
		c-2.65-0.313-5.25,0.07-7.871,0.071c-0.36,0-0.724-0.019-1.079,0.022c-0.696,0.079-1.538,0.612-2.05,0.14
		c-0.75-0.693-0.969-1.771-1.234-2.79c-0.461-1.767-0.11-3.509,0.096-5.223c0.17-1.416,0.13-2.772-0.088-4.15
		c-0.345-2.169-0.409-4.366-0.436-6.546c-0.083-6.758-0.032-13.518-0.029-20.276c0.001-2.013,0.518-2.423,2.462-2.057
		c1.382,0.261,2.774,0.239,4.162-0.001c0.235-0.041,0.474-0.076,0.712-0.081c4.151-0.085,8.309-0.355,12.451-0.2
		c5.182,0.194,10.358,0.466,15.547,0.448c1.433-0.005,2.227,1.024,2.264,2.821c0.036,1.719,0.045,3.44,0.004,5.159
		c-0.115,4.872,0.303,9.727,0.541,14.583c0.178,3.606,0.252,7.237,0.889,10.815c0.127,0.717,0.298,1.427,0.607,2.052
		c0.371,0.747,0.276,1.24-0.337,1.764c-0.544,0.464-0.988,1.029-1.43,1.603c-0.655,0.85-1.365,1.326-2.678,1.279
		c-2.643-0.094-5.301,0.096-7.954,0.525c-2.096,0.341-4.288,0.086-6.438,0.095C63.416,85.834,62.979,85.832,62.541,85.832z"/>
</g>
<g id="Play" display="none">
	<path display="inline" fill-rule="evenodd" clip-rule="evenodd" d="M62.378,9.435c6.859-0.085,13.451,1.293,19.929,3.335
		c1.996,0.629,3.945,1.408,5.908,2.143c0.325,0.122,0.691,0.302,0.892,0.566c2.329,3.081,5.964,4.538,8.733,7.104
		c8.065,7.472,15.104,15.614,18.225,26.444c0.62,2.154,0.877,4.434,1.103,6.675c0.28,2.772,0.488,5.565,0.488,8.35
		c0.001,7.059-1.474,13.758-4.919,20.013c-1.699,3.084-2.907,6.436-4.57,9.543c-3.483,6.507-8.72,11.208-15.222,14.682
		c-5.86,3.131-11.969,5.492-18.502,6.588c-5.146,0.862-10.339,1.239-15.595,0.869c-4.904-0.346-9.742-0.934-14.316-2.74
		c-2.597-1.025-5.086-2.391-7.482-3.838c-3.77-2.277-7.515-4.62-11.101-7.173c-7.119-5.067-12.054-11.823-15.321-19.943
		c-1.83-4.546-2.64-9.174-2.894-14.014c-0.367-6.988,0.271-13.845,2.472-20.479c2.025-6.103,5.435-11.461,9.649-16.295
		c2.278-2.613,4.544-5.254,7.021-7.67c1.542-1.504,3.484-2.595,5.217-3.911c0.438-0.332,0.73-0.848,1.148-1.211
		c0.31-0.27,0.709-0.441,1.08-0.634c0.929-0.484,1.859-0.965,2.797-1.43c1.079-0.534,2.151-1.084,3.254-1.564
		c1.874-0.817,3.895-1.378,5.625-2.425c2.294-1.388,4.769-1.987,7.327-2.291C56.327,9.771,59.359,9.655,62.378,9.435z
		 M19.077,57.912c-0.247,1.047-0.502,1.84-0.613,2.653c-0.392,2.878-0.671,5.712,0.244,8.611c0.695,2.203,1,4.552,1.271,6.859
		c0.389,3.318,1.419,6.342,3.664,8.84c5.057,5.626,11.447,9.571,17.644,13.739c1.326,0.892,3.086,1.164,4.351,2.115
		c3.029,2.278,6.511,3.105,10.114,3.392c4.37,0.347,8.766,0.369,13.15,0.519c0.346,0.012,0.701-0.06,1.041-0.139
		c0.99-0.23,1.969-0.51,2.962-0.722c0.889-0.189,1.812-0.24,2.683-0.482c3.702-1.029,6.792-3.2,9.861-5.396
		c2.751-1.967,5.463-3.991,8.671-5.198c0.241-0.092,0.429-0.372,0.603-0.595c0.827-1.058,1.663-2.107,2.452-3.192
		c0.943-1.295,2.05-2.526,2.709-3.959c0.935-2.033,1.209-4.413,2.337-6.304c1.74-2.918,2.216-5.979,2.291-9.243
		c0.046-1.986,0.296-3.968,0.434-5.953c0.132-1.895,0.545-3.837,0.272-5.676c-0.321-2.16-1.281-4.221-1.905-6.342
		c-0.629-2.137-0.93-4.394-2.605-6.096c-0.347-0.352-0.521-0.896-0.706-1.378c-1.051-2.727-2.976-4.857-4.797-7.054
		c-2.058-2.481-4.12-4.958-6.23-7.393c-0.552-0.638-1.201-1.342-1.953-1.631c-4.76-1.827-9.553-3.569-14.351-5.294
		c-5.379-1.932-10.891-1.773-16.368-0.664c-7.569,1.532-14.426,4.776-20.682,9.274c-0.872,0.626-1.593,1.515-2.241,2.388
		c-2.105,2.835-4.132,5.728-6.215,8.58c-0.863,1.182-2.076,2.199-2.608,3.504c-0.508,1.248-1.107,2.308-1.992,3.291
		c-0.404,0.448-0.611,1.091-0.846,1.671c-0.382,0.942-0.666,1.925-1.081,2.852c-0.468,1.048-1.097,2.026-1.53,3.087
		C18.928,57.014,19.077,57.587,19.077,57.912z"/>
	<path display="inline" fill-rule="evenodd" clip-rule="evenodd" d="M62.623,87.376c-1.552-0.003-2.328-1.162-3.213-2.163
		c-0.595-0.672-1.25-1.295-1.801-2c-1.109-1.418-2.175-2.871-3.241-4.322c-1.103-1.501-1.97-3.256-3.323-4.473
		c-2.36-2.121-3.778-4.907-5.754-7.284c-2.271-2.731-4.52-5.481-6.738-8.256c-0.382-0.478-0.506-1.154-0.842-1.679
		c-0.671-1.051-1.399-2.066-2.118-3.086c-0.501-0.712-1.104-1.363-1.527-2.117c-0.773-1.377-0.346-2.601,1.055-3.371
		c0.415-0.229,0.814-0.486,1.213-0.742c0.581-0.373,1.093-0.477,1.858-0.285c0.951,0.24,2.023-0.024,3.044-0.032
		c1.448-0.012,2.899-0.046,4.344,0.03c3.57,0.188,7.135,0.506,10.707,0.631c3.085,0.108,6.181,0.115,9.265-0.002
		c3.508-0.132,7.004-0.543,10.512-0.664c3.459-0.12,6.927-0.103,10.386,0.013c1.143,0.038,1.92,1.064,1.237,2.306
		c-0.169,0.307-0.383,0.652-0.669,0.821c-1.376,0.811-1.892,2.237-2.682,3.489c-0.507,0.804-1.395,1.368-1.904,2.171
		c-1.103,1.735-2.012,3.593-3.109,5.331c-1.647,2.61-3.411,5.146-5.071,7.749c-0.322,0.505-0.426,1.161-0.583,1.759
		c-0.583,2.219-2.203,3.818-3.337,5.708c-1.315,2.191-2.455,4.495-3.564,6.801C66.139,85.014,63.65,87.365,62.623,87.376z"/>
</g>
<g id="arrow">
	<path fill-rule="evenodd" clip-rule="evenodd" d="M66.482,82.227c0.176,3.32,0.393,6.525,0.501,9.734
		c0.146,4.276,0.263,8.556,0.255,12.835c-0.001,0.818-0.406,1.942-1.017,2.389c-0.963,0.699-1.961-0.038-2.843-0.712
		c-4.292-3.293-8.942-5.925-13.913-8.116c-3.096-1.365-5.857-3.497-8.744-5.326c-7.994-5.062-15.974-10.146-23.96-15.222
		c-0.254-0.161-0.62-0.258-0.751-0.488c-1.366-2.397-3.973-3.133-6.053-4.57c-2.854-1.972-3.27-4.519-0.74-6.908
		c2.514-2.377,5.302-4.472,8.036-6.605c3.138-2.449,6.302-4.871,9.541-7.184c2.861-2.042,5.94-3.787,8.743-5.901
		c4.468-3.367,8.767-6.955,13.178-10.397c1.827-1.426,3.822-2.639,5.634-4.083c2.244-1.792,4.398-3.696,6.548-5.604
		c2.244-1.994,5.296-1.265,6.045,1.656c0.517,2.023,0.625,4.154,0.869,6.242c0.438,3.753,0.88,7.505,1.229,11.265
		c0.095,1.022,0.589,1.298,1.451,1.318c6.093,0.132,12.187,0.407,18.278,0.354c6.093-0.051,12.183-0.42,18.276-0.668
		c1.859-0.076,3.724-0.166,5.579-0.328c2.452-0.215,3.857,0.762,4.063,3.243c0.227,2.705,0.184,5.433,0.287,8.149
		c0.176,4.675,0.371,9.351,0.566,14.025c0.134,3.221,0.473,6.445-0.755,9.563c-0.405,1.032-0.921,1.41-2.14,1.334
		c-4.377-0.275-8.764-0.412-13.15-0.513c-4.832-0.11-9.671-0.24-14.502-0.149c-6.245,0.114-12.486,0.437-18.729,0.667
		C67.819,82.241,67.37,82.227,66.482,82.227z"/>
</g>
</svg>
