<?xml version="1.0" encoding="utf-8"?>
<!-- Generator: Adobe Illustrator 16.0.0, SVG Export Plug-In . SVG Version: 6.00 Build 0)  -->
<!DOCTYPE svg PUBLIC "-//W3C//DTD SVG 1.1//EN" "http://www.w3.org/Graphics/SVG/1.1/DTD/svg11.dtd">
<svg version="1.1" xmlns="http://www.w3.org/2000/svg" xmlns:xlink="http://www.w3.org/1999/xlink" x="0px" y="0px"
	 width="124.725px" height="124.725px" viewBox="0 0 124.725 124.725" enable-background="new 0 0 124.725 124.725"
	 xml:space="preserve">
<g id="Transparency_Test" display="none">
	<rect x="1.945" y="2.779" display="inline" fill="#FF6600" width="120.25" height="115.25"/>
</g>
<g id="Rondo_Icons">
	<g id="Search" display="none">
		<path display="inline" fill-rule="evenodd" clip-rule="evenodd" d="M108.239,40.765c0.112,5.871-1.222,11.118-3.339,16.144
			c-1.627,3.859-3.558,7.592-5.438,11.339c-0.331,0.66-1.061,1.13-1.638,1.654c-0.74,0.672-1.662,1.201-2.243,1.988
			c-1.067,1.446-2.518,2.21-4.107,2.854c-5.113,2.072-10.458,3.281-15.86,4.291c-1.223,0.229-2.458,0.473-3.628,0.882
			c-2.252,0.792-4.509,0.772-6.79,0.273c-1.904-0.418-3.604-0.036-4.937,1.374c-3.04,3.215-6.108,6.411-8.989,9.767
			c-3.396,3.956-6.677,8.019-9.867,12.142c-1.439,1.861-2.433,4.061-3.832,5.956c-0.836,1.133-1.984,2.088-3.136,2.926
			c-2.316,1.683-4.618,3.42-7.644,3.722c-3.909,0.388-6.757-1.31-8.637-4.543c-1.854-3.188-2.14-6.652-0.628-10.086
			c0.468-1.061,1.34-1.949,2.06-2.893c3.032-3.979,7.167-6.976,9.783-11.372c1.5-2.521,3.596-4.703,5.534-6.943
			c2.379-2.752,4.864-5.413,7.321-8.098c0.692-0.757,0.833-1.388,0.257-2.391c-2.827-4.925-5.264-10.021-6.599-15.592
			c-1.311-5.468-1.639-11.015,0.199-16.312c1.555-4.483,3.678-8.833,6.076-12.936c1.231-2.106,3.472-3.729,5.506-5.232
			c2.629-1.943,5.479-3.601,8.301-5.267c0.751-0.444,1.767-0.418,2.63-0.7c2.398-0.785,4.85-1.461,7.151-2.469
			c3.25-1.424,6.624-1.405,9.99-1.136c6.09,0.487,11.532,2.832,16.438,6.401c6.552,4.765,11.783,10.584,14.375,18.449
			c0.09,0.273,0.204,0.543,0.344,0.795C108.237,38.185,108.239,38.183,108.239,40.765z M93.979,45.304
			c0.108-0.045,0.219-0.091,0.328-0.136c-0.516-1.413-0.926-2.876-1.574-4.226c-0.881-1.831-1.989-3.551-2.915-5.362
			c-0.989-1.934-2.275-3.586-4.12-4.752c-2.285-1.446-4.663-2.759-6.871-4.315c-1.26-0.888-2.527-1.454-4.034-1.366
			c-1.912,0.111-3.822,0.497-5.726,0.446c-2.232-0.059-4.167,0.552-5.998,1.725c-2.458,1.574-5.154,2.956-6.745,5.474
			c-2.56,4.047-4.766,8.293-5.626,13.103c-0.666,3.727-0.662,7.308,1.764,10.51c0.21,0.278,0.221,0.699,0.375,1.029
			c0.217,0.466,0.391,1.001,0.742,1.345c1.402,1.376,2.833,2.728,4.312,4.02c2.865,2.499,6.07,4.375,10.013,4.089
			c2.597-0.187,5.237-0.545,7.727-1.272c3.554-1.039,7.36-1.661,10.173-4.437c1.1-1.083,2.227-2.158,3.184-3.36
			C91.9,54.158,93.814,50.071,93.979,45.304z"/>
	</g>
	<g id="Stop" display="none">
		<path display="inline" fill-rule="evenodd" clip-rule="evenodd" d="M62.339,9.622c6.928-0.307,13.497,1.083,19.978,3.079
			c2.023,0.623,4.056,1.201,5.948,2.172c0.317,0.163,0.7,0.296,0.909,0.558c2.432,3.043,6.061,4.592,8.867,7.193
			c7.945,7.362,14.84,15.406,18.121,26.001c0.703,2.267,0.99,4.604,1.164,6.942c0.222,2.98,0.618,5.95,0.541,8.955
			c-0.164,6.422-1.263,12.607-4.305,18.35c-1.421,2.682-2.666,5.447-3.904,8.219c-3.322,7.438-8.645,12.988-15.779,16.933
			c-6.532,3.612-13.395,6.202-20.78,7.259c-4.777,0.683-9.577,1.004-14.434,0.629c-4.599-0.354-9.102-1.009-13.485-2.459
			c-2.906-0.961-5.542-2.436-8.104-4.08c-3.527-2.264-7.14-4.389-10.567-6.812c-7.346-5.193-12.515-12-15.875-20.354
			c-1.821-4.526-2.64-9.127-2.92-13.946c-0.41-7.053,0.271-13.964,2.473-20.655c2.005-6.095,5.452-11.41,9.604-16.288
			c2.33-2.738,4.649-5.482,7.268-7.95c1.508-1.42,3.01-2.869,4.988-3.66c0.147-0.059,0.345-0.112,0.415-0.229
			c1.21-2.061,3.961-1.794,5.38-3.592c0.533-0.676,1.448-0.916,2.354-1.054c2.084-0.319,3.989-1.164,5.718-2.341
			c2.259-1.539,4.831-2.024,7.446-2.397C56.368,9.664,59.393,9.476,62.339,9.622z M67.801,104.756
			c1.103,0.365,2.607-0.662,4.232-0.933c1.025-0.17,2.062-0.04,3.085-0.345c3.222-0.957,6.08-2.59,8.812-4.497
			c2.943-2.056,5.735-4.363,9.064-5.795c0.997-0.43,1.744-0.898,2.211-1.95c0.397-0.895,1.146-1.626,1.92-2.273
			c1.31-1.096,2.3-2.406,2.825-4.061c0.675-2.125,1.019-4.404,2.254-6.289c1.844-2.812,2.282-5.915,2.275-9.146
			c-0.003-2.041,0.146-4.06,0.439-6.08c0.378-2.597,0.942-5.253-0.155-7.781c-1.507-3.47-1.765-7.446-4.272-10.509
			c-0.247-0.301-0.401-0.695-0.534-1.069c-0.753-2.115-2.185-3.794-3.538-5.518c-2.439-3.106-5.335-5.833-7.607-9.078
			c-0.452-0.646-1.017-1.084-1.726-1.415c-4.241-1.977-8.677-3.415-13.099-4.921c-6.625-2.257-13.23-2.165-19.898-0.446
			c-6.65,1.714-12.709,4.701-18.288,8.679c-0.671,0.479-1.427,0.867-1.846,1.662c-2.042,3.879-4.869,7.192-7.615,10.566
			c-0.644,0.791-1.58,1.429-1.762,2.517c-0.184,1.092-0.777,1.921-1.53,2.64c-0.676,0.645-1.002,1.415-1.178,2.298
			c-0.101,0.504-0.202,1.029-0.426,1.485c-0.562,1.146-1.058,2.365-1.835,3.354c-0.847,1.078-0.407,2.328-0.669,3.452
			c-0.726,3.109-1.273,6.371-0.124,9.56c0.875,2.426,1.138,4.949,1.392,7.493c0.337,3.373,1.574,6.399,3.927,8.908
			c5.022,5.354,11.212,9.198,17.187,13.323c1.43,0.987,3.238,1.218,4.609,2.248c1.807,1.358,3.849,2.104,5.986,2.618
			C56.927,104.662,62.075,104.24,67.801,104.756z"/>
		<path display="inline" fill-rule="evenodd" clip-rule="evenodd" d="M62.541,85.832c-2.268,0.001-4.562,0.211-6.798-0.054
			c-2.65-0.313-5.25,0.07-7.871,0.071c-0.36,0-0.724-0.019-1.079,0.022c-0.696,0.079-1.538,0.612-2.05,0.14
			c-0.75-0.693-0.969-1.771-1.234-2.79c-0.461-1.767-0.11-3.509,0.096-5.223c0.17-1.416,0.13-2.772-0.088-4.15
			c-0.345-2.169-0.409-4.366-0.436-6.546c-0.083-6.758-0.032-13.518-0.029-20.276c0.001-2.013,0.518-2.423,2.462-2.057
			c1.382,0.261,2.774,0.239,4.162-0.001c0.235-0.041,0.474-0.076,0.712-0.081c4.151-0.085,8.309-0.355,12.451-0.2
			c5.182,0.194,10.358,0.466,15.547,0.448c1.433-0.005,2.227,1.024,2.264,2.821c0.036,1.719,0.045,3.44,0.004,5.159
			c-0.115,4.872,0.303,9.727,0.541,14.583c0.178,3.606,0.252,7.237,0.889,10.815c0.127,0.717,0.298,1.427,0.607,2.052
			c0.371,0.747,0.276,1.24-0.337,1.764c-0.544,0.464-0.988,1.029-1.43,1.603c-0.655,0.85-1.365,1.326-2.678,1.279
			c-2.643-0.094-5.301,0.096-7.954,0.525c-2.096,0.341-4.288,0.086-6.438,0.095C63.416,85.834,62.979,85.832,62.541,85.832z"/>
	</g>
	<g id="Play" display="none">
		<path display="inline" fill-rule="evenodd" clip-rule="evenodd" d="M62.378,9.435c6.859-0.085,13.451,1.293,19.929,3.335
			c1.996,0.629,3.945,1.408,5.908,2.143c0.325,0.122,0.691,0.302,0.892,0.566c2.329,3.081,5.964,4.538,8.733,7.104
			c8.065,7.472,15.104,15.614,18.225,26.444c0.62,2.154,0.877,4.434,1.103,6.675c0.28,2.772,0.488,5.565,0.488,8.35
			c0.001,7.059-1.474,13.758-4.919,20.013c-1.699,3.084-2.907,6.436-4.57,9.543c-3.483,6.507-8.72,11.208-15.222,14.682
			c-5.86,3.131-11.969,5.492-18.502,6.588c-5.146,0.862-10.339,1.239-15.595,0.869c-4.904-0.346-9.742-0.934-14.316-2.74
			c-2.597-1.025-5.086-2.391-7.482-3.838c-3.77-2.277-7.515-4.62-11.101-7.173c-7.119-5.067-12.054-11.823-15.321-19.943
			c-1.83-4.546-2.64-9.174-2.894-14.014c-0.367-6.988,0.271-13.845,2.472-20.479c2.025-6.103,5.435-11.461,9.649-16.295
			c2.278-2.613,4.544-5.254,7.021-7.67c1.542-1.504,3.484-2.595,5.217-3.911c0.438-0.332,0.73-0.848,1.148-1.211
			c0.31-0.27,0.709-0.441,1.08-0.634c0.929-0.484,1.859-0.965,2.797-1.43c1.079-0.534,2.151-1.084,3.254-1.564
			c1.874-0.817,3.895-1.378,5.625-2.425c2.294-1.388,4.769-1.987,7.327-2.291C56.327,9.771,59.359,9.655,62.378,9.435z
			 M19.077,57.912c-0.247,1.047-0.502,1.84-0.613,2.653c-0.392,2.878-0.671,5.712,0.244,8.611c0.695,2.203,1,4.552,1.271,6.859
			c0.389,3.318,1.419,6.342,3.664,8.84c5.057,5.626,11.447,9.571,17.644,13.739c1.326,0.892,3.086,1.164,4.351,2.115
			c3.029,2.278,6.511,3.105,10.114,3.392c4.37,0.347,8.766,0.369,13.15,0.519c0.346,0.012,0.701-0.06,1.041-0.139
			c0.99-0.23,1.969-0.51,2.962-0.722c0.889-0.189,1.812-0.24,2.683-0.482c3.702-1.029,6.792-3.2,9.861-5.396
			c2.751-1.967,5.463-3.991,8.671-5.198c0.241-0.092,0.429-0.372,0.603-0.595c0.827-1.058,1.663-2.107,2.452-3.192
			c0.943-1.295,2.05-2.526,2.709-3.959c0.935-2.033,1.209-4.413,2.337-6.304c1.74-2.918,2.216-5.979,2.291-9.243
			c0.046-1.986,0.296-3.968,0.434-5.953c0.132-1.895,0.545-3.837,0.272-5.676c-0.321-2.16-1.281-4.221-1.905-6.342
			c-0.629-2.137-0.93-4.394-2.605-6.096c-0.347-0.352-0.521-0.896-0.706-1.378c-1.051-2.727-2.976-4.857-4.797-7.054
			c-2.058-2.481-4.12-4.958-6.23-7.393c-0.552-0.638-1.201-1.342-1.953-1.631c-4.76-1.827-9.553-3.569-14.351-5.294
			c-5.379-1.932-10.891-1.773-16.368-0.664c-7.569,1.532-14.426,4.776-20.682,9.274c-0.872,0.626-1.593,1.515-2.241,2.388
			c-2.105,2.835-4.132,5.728-6.215,8.58c-0.863,1.182-2.076,2.199-2.608,3.504c-0.508,1.248-1.107,2.308-1.992,3.291
			c-0.404,0.448-0.611,1.091-0.846,1.671c-0.382,0.942-0.666,1.925-1.081,2.852c-0.468,1.048-1.097,2.026-1.53,3.087
			C18.928,57.014,19.077,57.587,19.077,57.912z"/>
		<path display="inline" fill-rule="evenodd" clip-rule="evenodd" d="M62.623,87.376c-1.552-0.003-2.328-1.162-3.213-2.163
			c-0.595-0.672-1.25-1.295-1.801-2c-1.109-1.418-2.175-2.871-3.241-4.322c-1.103-1.501-1.97-3.256-3.323-4.473
			c-2.36-2.121-3.778-4.907-5.754-7.284c-2.271-2.731-4.52-5.481-6.738-8.256c-0.382-0.478-0.506-1.154-0.842-1.679
			c-0.671-1.051-1.399-2.066-2.118-3.086c-0.501-0.712-1.104-1.363-1.527-2.117c-0.773-1.377-0.346-2.601,1.055-3.371
			c0.415-0.229,0.814-0.486,1.213-0.742c0.581-0.373,1.093-0.477,1.858-0.285c0.951,0.24,2.023-0.024,3.044-0.032
			c1.448-0.012,2.899-0.046,4.344,0.03c3.57,0.188,7.135,0.506,10.707,0.631c3.085,0.108,6.181,0.115,9.265-0.002
			c3.508-0.132,7.004-0.543,10.512-0.664c3.459-0.12,6.927-0.103,10.386,0.013c1.143,0.038,1.92,1.064,1.237,2.306
			c-0.169,0.307-0.383,0.652-0.669,0.821c-1.376,0.811-1.892,2.237-2.682,3.489c-0.507,0.804-1.395,1.368-1.904,2.171
			c-1.103,1.735-2.012,3.593-3.109,5.331c-1.647,2.61-3.411,5.146-5.071,7.749c-0.322,0.505-0.426,1.161-0.583,1.759
			c-0.583,2.219-2.203,3.818-3.337,5.708c-1.315,2.191-2.455,4.495-3.564,6.801C66.139,85.014,63.65,87.365,62.623,87.376z"/>
	</g>
	<g id="arrow" display="none">
		<path display="inline" fill-rule="evenodd" clip-rule="evenodd" d="M66.482,82.227c0.176,3.32,0.393,6.525,0.501,9.734
			c0.146,4.276,0.263,8.556,0.255,12.835c-0.001,0.818-0.406,1.942-1.017,2.389c-0.963,0.699-1.961-0.038-2.843-0.712
			c-4.292-3.293-8.942-5.925-13.913-8.116c-3.096-1.365-5.857-3.497-8.744-5.326c-7.994-5.062-15.974-10.146-23.96-15.222
			c-0.254-0.161-0.62-0.258-0.751-0.488c-1.366-2.397-3.973-3.133-6.053-4.57c-2.854-1.972-3.27-4.519-0.74-6.908
			c2.514-2.377,5.302-4.472,8.036-6.605c3.138-2.449,6.302-4.871,9.541-7.184c2.861-2.042,5.94-3.787,8.743-5.901
			c4.468-3.367,8.767-6.955,13.178-10.397c1.827-1.426,3.822-2.639,5.634-4.083c2.244-1.792,4.398-3.696,6.548-5.604
			c2.244-1.994,5.296-1.265,6.045,1.656c0.517,2.023,0.625,4.154,0.869,6.242c0.438,3.753,0.88,7.505,1.229,11.265
			c0.095,1.022,0.589,1.298,1.451,1.318c6.093,0.132,12.187,0.407,18.278,0.354c6.093-0.051,12.183-0.42,18.276-0.668
			c1.859-0.076,3.724-0.166,5.579-0.328c2.452-0.215,3.857,0.762,4.063,3.243c0.227,2.705,0.184,5.433,0.287,8.149
			c0.176,4.675,0.371,9.351,0.566,14.025c0.134,3.221,0.473,6.445-0.755,9.563c-0.405,1.032-0.921,1.41-2.14,1.334
			c-4.377-0.275-8.764-0.412-13.15-0.513c-4.832-0.11-9.671-0.24-14.502-0.149c-6.245,0.114-12.486,0.437-18.729,0.667
			C67.819,82.241,67.37,82.227,66.482,82.227z"/>
	</g>
	<g id="chords" display="none">
		<path display="inline" fill-rule="evenodd" clip-rule="evenodd" d="M87.775,73.616c-0.566-14.276,1.311-28.321-0.986-42.611
			c-2.966,1.231-5.693,2.256-8.327,3.48c-8.422,3.913-16.796,7.927-25.216,11.847c-3.065,1.428-6.185,2.747-9.319,4.021
			c-1.065,0.433-1.466,0.975-1.43,2.158c0.323,10.713,0.579,21.428,0.863,32.142c0.101,3.789,0.387,7.58,0.305,11.361
			c-0.179,8.251-6.659,16.865-14.439,19.247c-5.076,1.555-12.012,0.769-15.99-4.653c-3.461-4.717-3.673-11.732-0.208-16.838
			c4.498-6.629,10.588-10.276,18.797-9.433c1.996,0.206,3.922,1.089,6.077,1.718c0-2.409,0.016-4.862-0.004-7.316
			c-0.038-4.904,0.002-9.811-0.175-14.709c-0.144-3.961-0.046-8.041-0.99-11.835c-1.025-4.125-0.519-8.05-0.287-12.098
			c0.099-1.733-0.317-3.535-0.749-5.242c-0.218-0.86-0.167-1.253,0.611-1.624c4.032-1.911,8.019-3.918,12.082-5.758
			c6.784-3.071,13.633-6.001,20.421-9.064c6.006-2.711,11.961-5.536,17.951-8.283c1.632-0.749,3.181-0.339,4.497,0.743
			c1.295,1.066,2.513,2.205,2.029,4.223c-1.275,5.329,0.104,10.668,0.044,16.006c-0.039,3.447,0.184,6.907,0.471,10.346
			c0.159,1.906,0.352,3.699,0.113,5.687c-0.42,3.493,0.186,7.098,0.174,10.655c-0.01,3.036-0.279,6.071-0.442,9.107
			c-0.056,1.034-0.308,2.088-0.178,3.096c0.186,1.44,0.641,2.845,1.036,4.498c-1.156,0.467-1.356,1.805-0.479,3.067
			c2.144,3.093,1.217,6.262,0.842,9.59c-1.121,9.96-14.972,16.076-22.217,13.816c-9.943-3.101-10.755-14.331-6.571-19.716
			c2.524-3.247,5.51-5.968,9.171-7.938c3.385-1.822,6.774-1.972,10.28-0.475C86.152,73.096,86.809,73.28,87.775,73.616z"/>
	</g>
	<g id="midi" display="none">
		<path display="inline" fill-rule="evenodd" clip-rule="evenodd" d="M58.013,104.94c-3.731-0.259-7.46-0.587-11.196-0.741
			c-1.838-0.075-3.691,0.171-5.535,0.283c-0.221,0.013-0.434,0.121-0.656,0.145c-3.48,0.374-3.973-0.052-4.16-3.754
			c-0.072-1.404,0-2.816-0.036-4.224c-0.052-1.991-0.307-3.994-0.172-5.973c0.125-1.845-0.609-3.591-0.356-5.41
			c0.185-1.342,0.542-2.674,0.571-4.016c0.023-1.091-0.376-2.187-0.501-3.29c-0.236-2.105-0.515-4.216-0.59-6.331
			c-0.239-6.75-0.361-13.506-0.593-20.259c-0.185-5.339-0.45-10.678-0.719-16.015c-0.048-0.961,0.539-1.375,1.243-1.522
			c1.669-0.349,3.36-0.721,5.054-0.79c3.583-0.146,7.175-0.171,10.761-0.104c1.229,0.024,2.488,0.361,3.664,0.759
			c1.082,0.365,1.566,1.314,1.563,2.473c-0.005,2.94-0.068,5.883,0.012,8.821c0.049,1.747,0.367,3.485,0.487,5.233
			c0.085,1.246,0.02,2.502,0.062,3.751c0.108,3.374,0.125,6.756,0.389,10.119c0.29,3.693,1.007,7.359,1.19,11.054
			c0.332,6.698,0.388,13.411,0.602,20.115c0.071,2.213,0.301,4.421,0.389,6.632c0.016,0.418-0.243,0.881-0.479,1.257
			c-0.275,0.443-0.664,0.814-1.002,1.216C58.007,104.56,58.01,104.75,58.013,104.94z"/>
		<path display="inline" fill-rule="evenodd" clip-rule="evenodd" d="M80.415,105.467c-2.526,0-5.139-0.391-7.556,0.125
			c-1.869,0.401-2.417-0.52-3.596-1.387c-2.765-2.035-2.454-4.774-2.21-7.482c0.216-2.369,0.064-4.652-0.253-7.004
			c-0.271-2.006,0.145-4.1,0.208-6.155c0.082-2.711,0.296-5.433,0.136-8.129c-0.295-4.919-0.933-9.817-1.209-14.736
			c-0.152-2.69,0.148-5.404,0.231-8.108c0.03-1.035,0.436-1.403,1.562-1.45c4.251-0.175,8.492-0.594,12.743-0.738
			c1.878-0.063,3.769,0.396,5.659,0.464c1.243,0.045,1.338,0.664,1.313,1.657c-0.117,4.899-0.349,9.804-0.224,14.696
			c0.146,5.7,0.62,11.391,0.953,17.085c0.212,3.619,0.428,7.237,0.64,10.854c0.086,1.492,0.203,2.983,0.243,4.475
			c0.073,2.715-1.741,5.016-4.455,5.527c-1.369,0.259-2.782,0.285-4.176,0.415C80.423,105.541,80.419,105.504,80.415,105.467z"/>
		<path display="inline" fill-rule="evenodd" clip-rule="evenodd" d="M29.437,68.75c0.393,5.328,0.875,10.652,1.158,15.984
			c0.315,5.932,0.438,11.873,0.678,17.809c0.05,1.245-0.851,1.72-1.7,2.004c-1.309,0.439-2.704,0.815-4.072,0.849
			c-2.806,0.064-5.619-0.163-8.43-0.173c-1.581-0.007-3.204-0.01-4.729,0.337c-1.323,0.3-2.006-0.234-2.558-1.168
			c-1.154-1.955-1.776-3.93-0.572-6.194c0.359-0.678,0.008-1.744-0.056-2.628c-0.252-3.521-0.588-7.036-0.763-10.56
			c-0.184-3.716-0.141-7.441-0.347-11.154c-0.14-2.516-0.568-5.016-0.807-7.529c-0.061-0.646,0.019-1.341,0.195-1.967
			c0.211-0.746,0.632-1.064,1.608-0.979c5.416,0.475,10.833,0.702,16.204-0.579c0.868-0.206,1.898-0.022,2.786,0.225
			c1.07,0.295,1.75,0.998,1.604,2.312c-0.124,1.12-0.026,2.266-0.026,3.4C29.553,68.742,29.494,68.745,29.437,68.75z"/>
		<path display="inline" fill-rule="evenodd" clip-rule="evenodd" d="M95.794,97.822c1.495-0.188,1.562-1.008,1.462-1.926
			c-0.496-4.583-0.98-9.166-1.483-13.748c-0.156-1.429-0.361-2.853-0.549-4.294c2.081-1.041,4.153-0.863,6.223-0.619
			c1.614,0.189,3.229,0.661,4.831,0.613c1.913-0.062,3.826-0.48,5.715-0.863c2.087-0.422,3.031-0.058,3.507,1.998
			c0.526,2.274,0.942,4.6,1.095,6.924c0.307,4.656,0.267,9.337,0.66,13.983c0.134,1.582-0.196,2.706-1.18,3.772
			c-0.968,1.05-1.896,1.579-3.605,1.38c-2.75-0.319-5.589,0.144-8.394,0.208c-1.662,0.038-3.331,0.002-4.986-0.127
			c-0.401-0.03-0.912-0.482-1.117-0.873c-0.557-1.062-1.001-2.188-1.434-3.31c-0.074-0.188,0.091-0.508,0.215-0.728
			C97.308,99.237,97.25,98.436,95.794,97.822z"/>
	</g>
	<g id="notes" display="none">
		<path display="inline" fill-rule="evenodd" clip-rule="evenodd" d="M8.976,109.357c-0.268-2.678-0.537-5.354-0.802-8.031
			c-0.028-0.279-0.133-0.603-0.036-0.836c1.207-2.902,0.421-5.909,0.473-8.864c0.084-4.735,0.002-9.472,0.084-14.207
			c0.161-9.236,0.44-18.456-0.382-27.701c-0.411-4.622,0.108-9.359,0.536-14.015c0.439-4.784,0.572-9.537,0.223-14.326
			c-0.183-2.503-0.083-5.026-0.175-7.538c-0.031-0.852,0.34-1.233,1.097-1.345c2.754-0.406,5.499-0.979,8.268-1.157
			c5.103-0.328,10.22-0.554,15.332-0.571c4.303-0.015,8.61,0.509,12.912,0.479c15.46-0.106,30.92-0.306,46.377-0.562
			c4.208-0.07,8.411-0.667,12.613-0.625c2.306,0.023,4.63,0.782,6.886,1.416c0.577,0.162,1.252,1.071,1.338,1.709
			c0.578,4.31,1.104,8.631,1.464,12.963c0.435,5.232,0.871,10.477,0.957,15.722c0.052,3.194-0.529,6.402-0.872,9.599
			c-0.852,7.914-1.699,15.832-1.188,23.807c0.476,7.41,1.059,14.814,1.55,22.224c0.081,1.222,0.071,2.482-0.136,3.683
			c-0.346,2.013-0.205,3.91,0.461,5.847c1.249,3.642,0.538,5.108-2.755,6.889c-1.473,0.796-2.929,1.071-4.572,1.111
			c-9.283,0.23-18.562,0.545-27.845,0.839c-5.729,0.181-11.456,0.425-17.186,0.553c-6.399,0.145-12.801,0.295-19.2,0.252
			c-5.824-0.041-11.645-0.424-17.469-0.484c-2.974-0.033-5.951,0.404-8.93,0.446c-2.453,0.035-4.911-0.177-7.364-0.319
			c-1.374-0.079-1.994-0.799-1.907-2.237c0.093-1.561,0.021-3.131,0.021-4.698C8.824,109.372,8.9,109.365,8.976,109.357z
			 M39.498,47.609c0.14,5.124,0.255,10.026,0.421,14.926c0.054,1.604,0.283,3.201,0.357,4.805c0.037,0.795,0.421,0.927,1.093,0.901
			c6.853-0.251,13.705-0.517,20.559-0.701c1.166-0.031,1.602-0.329,1.525-1.534c-0.264-4.15-0.426-8.309-0.685-12.46
			c-0.138-2.196-0.395-4.384-0.594-6.527C54.434,47.22,46.88,47.417,39.498,47.609z M35.517,46.932
			c-7.45-0.179-14.768-0.769-21.824,0.772c0,6.506,0,12.827,0,19.079c7.707,0.187,15.12,0.368,22.718,0.552
			C36.102,60.731,37.007,53.816,35.517,46.932z M39.485,93.28c0.433,6.071,0.843,11.836,1.234,17.332c7.83,0,15.656,0,23.643,0
			c-0.423-5.956-0.819-11.541-1.23-17.332C55.413,93.28,47.619,93.28,39.485,93.28z M89.531,70.571
			c-0.508,6.568-0.204,12.935,0.779,19.018c6.517,0,12.787,0,18.861,0c0-6.283,0.014-12.245-0.041-18.206
			c-0.003-0.317-0.58-0.881-0.919-0.904c-3.392-0.239-6.788-0.528-10.183-0.521C95.213,69.964,92.398,70.351,89.531,70.571z
			 M36.729,110.646c0.494-1.862,0.154-13.56-0.52-17.123c-0.793,0-1.588-0.007-2.383,0.001c-4.827,0.036-9.656,0.003-14.479,0.154
			c-1.581,0.048-3.155,0.54-4.717,0.899c-0.849,0.194-1.267,0.641-1.173,1.704c0.199,2.261,0.099,4.544,0.248,6.81
			c0.168,2.562,0.476,5.115,0.712,7.555C22.067,110.646,29.338,110.646,36.729,110.646z M62.654,43.279
			c-0.418-4.554-0.798-8.922-1.261-13.283c-0.031-0.312-0.638-0.793-0.991-0.807c-6.294-0.238-12.59-0.459-18.888-0.58
			c-1.719-0.033-3.445,0.271-5.378,0.438c2.478,4.742,2.134,9.778,3.044,14.683C46.938,43.581,54.641,43.433,62.654,43.279z
			 M86.674,93.72c-6.488,0-13.178,0-19.96,0c-0.011,0.284-0.078,0.753-0.046,1.214c0.342,4.805,0.75,9.605,1.023,14.414
			c0.08,1.415,0.661,1.718,1.938,1.642c5.47-0.323,10.943-0.591,16.419-0.844c1.535-0.071,2.209-0.452,1.803-1.919
			c-0.514-1.852,0.135-3.53,0.08-5.284c-0.015-0.471-0.044-0.944-0.111-1.412C87.459,99.021,87.085,96.513,86.674,93.72z
			 M110.149,108.709c0-2.812,0.035-5.6-0.014-8.387c-0.028-1.747-0.182-3.494-0.282-5.239c-0.062-1.096-0.452-1.622-1.744-1.593
			c-4.359,0.097-8.722,0.008-13.083,0.047c-1.539,0.012-3.078,0.184-4.776,0.294c0.385,5.372,0.756,10.541,1.127,15.724
			C95.992,110.443,106.869,109.945,110.149,108.709z M66.062,43.379c7.063,0,14.229,0,21.687,0
			c-0.509-4.622-1.032-9.39-1.559-14.171c-7.156,0-14.142,0-21.386,0C65.23,34.009,65.634,38.556,66.062,43.379z M13.396,43.247
			c7.666,0,14.86,0,22.084,0c-0.088-1.366-0.089-2.555-0.254-3.721c-0.43-3.029-0.885-6.057-1.429-9.068
			c-0.233-1.293-1.063-1.62-2.47-1.567c-4.58,0.171-9.17,0.089-13.756,0.104c-1.073,0.003-2.146,0-3.426,0
			C13.894,33.802,13.644,38.555,13.396,43.247z M91.487,43.76c6.217-0.181,12.659-0.369,19.344-0.564
			c-0.234-5.241-0.462-10.378-0.691-15.517c-1.659,1.374-3.32,0.954-4.912,0.98c-5.09,0.084-10.179,0.217-15.389,0.333
			C90.406,34.074,90.933,38.796,91.487,43.76z M67.063,67.085c5.428,0,10.705,0,15.983,0c0.035-0.135,0.07-0.271,0.105-0.407
			c-4.219-1.43-6.338-4.553-6.848-8.734c-0.495-4.078,0.535-7.813,3.619-10.994c-4.769,0-9.209,0-13.707,0
			C65.149,53.882,67.281,60.519,67.063,67.085z M74.033,70.838c-0.088,0.123-0.177,0.245-0.264,0.368
			c4.963,6.449,6.467,12.62-1.623,18.023c0.121,0.089,0.241,0.178,0.363,0.267c4.814,0,9.629,0,14.186,0
			c-0.218-6.269-0.436-12.535-0.647-18.658C82.022,70.838,78.028,70.838,74.033,70.838z M13.447,89.83
			c4.072-0.197,7.961-0.385,12.022-0.582c-2.161-3.055-3.54-6.141-3.389-9.839c0.165-4.006,3.543-5.766,5.859-8.673
			c-2.547,0-4.758-0.068-6.963,0.021c-1.976,0.078-3.953,0.276-5.912,0.548c-0.401,0.056-0.953,0.615-1.05,1.033
			C12.68,78.082,13.415,83.894,13.447,89.83z M99.012,47.437c2.117,3.205,3.305,6.468,3.273,10.144
			c-0.035,4.073-2.828,6.313-5.765,8.502c0.089,0.106,0.178,0.213,0.266,0.32c4.188,0,8.376,0,12.368,0
			c0.383-6.222,0.765-12.419,1.168-18.966C106.562,47.437,102.959,47.437,99.012,47.437z M54.676,71.662
			c-0.027-0.143-0.053-0.283-0.08-0.426c-2.574,0.19-5.148,0.381-7.705,0.567c1.024,2.424,1.963,4.574,2.832,6.753
			c0.214,0.538,0.397,1.224,0.252,1.745c-0.547,1.951-1.204,3.875-1.887,5.784c-0.322,0.902-0.798,1.75-1.219,2.654
			c5.09,0.661,8.65,0.611,10.58-0.128C50.426,84.344,50.438,75.524,54.676,71.662z"/>
	</g>
	<g id="library" display="none">
		<path display="inline" fill-rule="evenodd" clip-rule="evenodd" d="M18.159,10.614c-0.105-0.059-0.014-0.029-0.015-0.005
			c-0.072,1.256,0.836,1.307,1.695,1.336c5.441,0.176,10.881,0.419,16.322,0.476c6.374,0.065,12.75-0.043,19.125-0.063
			c7.452-0.023,14.903,0.008,22.355-0.059c5.007-0.045,10.016-0.225,15.026-0.335c1.21-0.027,2.431-0.127,3.625,0.001
			c1.438,0.154,1.939,0.716,2.005,2.158c0.108,2.401,0.112,4.806,0.171,7.209c0.012,0.513,0.07,1.024,0.115,1.643
			c1.731-0.107,3.404-0.198,5.073-0.315c1.477-0.104,2.973-0.292,4.26,0.653c0.314,0.231,0.59,0.72,0.613,1.106
			c0.115,1.993,0.17,3.991,0.197,5.988c0.048,3.623,0.099,7.245,0.082,10.867c-0.023,4.926-0.122,9.852-0.163,14.777
			c-0.044,5.738-0.108,11.476-0.072,17.213c0.025,3.908,0.247,7.815,0.321,11.723c0.074,3.824,0.112,7.648,0.086,11.472
			c-0.022,3.127-0.153,6.252-0.254,9.378c-0.042,1.324-0.173,2.646-0.182,3.969c-0.007,0.835,0.143,1.668,0.212,2.504
			c0.045,0.547,0.103,1.096,0.096,1.643c-0.009,0.646-0.25,1.156-0.912,1.434c-0.391,0.163-0.726,0.454-1.085,0.689
			c-0.073,0.046-0.147,0.139-0.215,0.135c-0.724-0.062-1.412-0.591-2.175-0.158c-1.016-0.71-2.204-0.705-3.344-0.666
			c-4.745,0.16-9.487,0.404-14.229,0.582c-1.154,0.043-2.313-0.105-3.467-0.065c-1.851,0.065-3.697,0.266-5.546,0.316
			c-2.112,0.06-4.226,0.024-6.338,0.019c-3.768-0.008-7.535,0.01-11.301-0.053c-4.373-0.071-8.744-0.307-13.116-0.31
			c-4.921-0.004-9.845,0.185-14.768,0.262c-1.182,0.02-2.369-0.058-3.55-0.128c-0.728-0.043-1.052-0.365-1.061-1.209
			c-0.031-2.982-0.179-5.96-0.287-8.941c-0.007-0.196-0.061-0.392-0.089-0.561c-1.653,0-3.268,0.009-4.881-0.004
			c-1.327-0.009-2.655-0.016-3.98-0.079c-0.667-0.034-1.015-0.321-1.027-1.15c-0.15-10.689-0.378-21.378-0.533-32.066
			c-0.094-6.55-0.132-13.1-0.125-19.65c0.005-4.46,0.146-8.919,0.191-13.38c0.01-0.92-0.022-1.866-0.224-2.757
			c-0.445-1.97-0.101-3.902,0.018-5.86c0.143-2.362,0.123-4.739,0.068-7.107c-0.069-3.067-0.259-6.131-0.35-9.198
			c-0.011-0.393,0.227-0.814,0.415-1.19C17.315,12.113,17.733,11.394,18.159,10.614z M20.426,101.919
			c25.115,1.021,49.955,0.39,74.843-0.055c0.068-0.5,0.182-0.956,0.188-1.411c0.029-2.893,0.025-5.787,0.056-8.679
			c0.025-2.637,0.138-5.272,0.114-7.907c-0.074-8.75-0.242-17.501-0.277-26.252c-0.031-7.622,0.07-15.247,0.115-22.87
			c0.012-2,0.028-4,0.043-6c0.028-3.912,0.065-7.824,0.08-11.737c0.003-0.628-0.088-1.258-0.146-2.062
			c-2.635,0-5.237-0.08-7.833,0.019c-4.019,0.153-8.032,0.458-12.051,0.641c-1.735,0.079-3.486-0.076-5.217,0.04
			c-1.525,0.102-2.984,0.278-4.532-0.149c-1.281-0.354-2.701-0.273-4.06-0.256c-7.326,0.089-14.653,0.282-21.981,0.311
			c-5.095,0.02-10.191-0.173-15.288-0.256c-1.61-0.027-3.221-0.004-4.9-0.004c0.117,1.156,0.31,2.188,0.305,3.22
			c-0.016,2.721-0.09,5.442-0.19,8.161c-0.115,3.125-0.238,6.231,0.167,9.362c0.261,2.018,0.108,4.098,0.061,6.148
			c-0.07,3.01-0.227,6.017-0.314,9.025c-0.027,0.918-0.143,1.904,0.132,2.745c0.459,1.405,0.636,2.807,0.597,4.257
			c-0.109,3.878-0.352,7.758-0.322,11.635c0.064,8.196,0.277,16.393,0.407,24.59C20.46,96.952,20.426,99.471,20.426,101.919z
			 M98.464,25.79c0,2.095,0.02,4.15-0.004,6.204c-0.062,6.202-0.242,12.404-0.188,18.605c0.079,8.807,0.404,17.61,0.471,26.417
			c0.045,5.994-0.18,11.991-0.271,17.987c-0.012,0.778,0.193,1.589,0.044,2.334c-0.314,1.57-0.183,3.097,0.055,4.65
			c0.195,1.278,0.047,2.453-1.471,2.901c-0.079,0.023-0.168,0.068-0.22,0.131c-0.438,0.52-0.896,0.559-1.43,0.132
			c-0.133-0.105-0.496-0.175-0.527-0.124c-0.388,0.654-0.755,0.151-1.146,0.023c-0.488-0.158-0.997-0.369-1.494-0.367
			c-2.951,0.021-5.901,0.092-8.852,0.158c-3.673,0.08-7.344,0.161-11.015,0.263c-3.644,0.102-7.284,0.29-10.926,0.33
			c-4.521,0.05-9.043,0.019-13.564-0.04c-2.981-0.039-5.96-0.23-8.942-0.277c-3.206-0.05-6.413-0.011-9.619-0.011
			c0,0.021,0,0.039,0,0.061c0.422,0.023,0.843,0.044,1.428,0.074c0,2.581,0,5.087,0,7.467c25.016,1.024,49.855,0.388,74.748-0.056
			c0.069-0.526,0.182-1.012,0.188-1.496c0.029-2.863,0.021-5.729,0.05-8.592c0.027-2.55,0.141-5.098,0.118-7.645
			c-0.075-8.288-0.224-16.575-0.283-24.861c-0.035-4.927,0.037-9.855,0.079-14.782c0.047-5.651,0.126-11.303,0.168-16.953
			c0.023-3.422,0.01-6.844-0.003-10.266c-0.003-0.716-0.083-1.432-0.135-2.268C103.338,25.79,101.004,25.79,98.464,25.79z"/>
		<path display="inline" fill-rule="evenodd" clip-rule="evenodd" d="M27.257,84.577c-0.159-1.548-0.318-3.097-0.476-4.646
			c-0.015-0.144-0.07-0.305-0.025-0.43c0.709-1.985,0.212-4.008,0.208-6.018c-0.004-2.433,0.061-4.866,0.118-7.299
			c0.126-5.414,0.276-10.814-0.222-16.232c-0.246-2.679,0.221-5.42,0.31-8.135c0.088-2.657,0.128-5.315,0.147-7.974
			c0.012-1.535-0.047-3.071-0.1-4.605c-0.02-0.55,0.325-0.714,0.742-0.777c1.542-0.233,3.081-0.542,4.632-0.636
			c3.033-0.187,6.072-0.3,9.11-0.342c1.82-0.027,3.643,0.186,5.465,0.205c2.4,0.026,4.801-0.034,7.202-0.054
			c7.073-0.062,14.144-0.086,21.214-0.199c2.512-0.04,5.021-0.407,7.531-0.401c1.295,0.003,2.595,0.481,3.883,0.782
			c0.551,0.128,0.871,0.506,0.941,1.102c0.235,2.01,0.564,4.011,0.724,6.026c0.275,3.52,0.513,7.045,0.644,10.573
			c0.054,1.404-0.188,2.824-0.349,4.23c-0.599,5.208-1.2,10.407-0.798,15.67c0.332,4.357,0.578,8.723,0.84,13.085
			c0.032,0.542-0.141,1.098-0.108,1.638c0.058,1.022,0.06,2.076,0.328,3.052c0.604,2.208,0.271,3.015-1.69,4.078
			c-0.833,0.453-1.651,0.568-2.555,0.593c-5.383,0.151-10.764,0.328-16.147,0.492c-4.629,0.14-9.26,0.366-13.89,0.383
			c-5.79,0.021-11.581-0.163-17.372-0.195c-1.704-0.012-3.408,0.242-5.113,0.263c-1.439,0.018-2.882-0.109-4.322-0.207
			c-0.729-0.049-1.052-0.466-1.016-1.223c0.043-0.926,0.01-1.855,0.01-2.782C27.166,84.587,27.212,84.582,27.257,84.577z
			 M44.816,48.822c0,0.332-0.006,0.503,0.001,0.674c0.109,2.571,0.21,5.142,0.333,7.712c0.046,0.981,0.163,1.96,0.206,2.941
			c0.023,0.503,0.239,0.624,0.711,0.607c3.961-0.144,7.923-0.283,11.884-0.386c0.638-0.016,0.879-0.2,0.84-0.853
			c-0.149-2.424-0.247-4.852-0.398-7.275c-0.078-1.257-0.23-2.508-0.348-3.754C53.59,48.602,49.256,48.71,44.816,48.822z
			 M29.978,59.929c4.463,0.109,8.756,0.213,13.138,0.319c0-0.809,0.028-1.788-0.006-2.766c-0.094-2.743-0.218-5.485-0.32-8.228
			c-0.023-0.61-0.297-0.851-0.919-0.85c-2.804,0.006-5.61-0.068-8.414-0.012c-1.195,0.024-2.387,0.294-3.479,0.439
			C29.978,52.639,29.978,56.295,29.978,59.929z M45.593,85.312c4.545,0,9.087,0,13.733,0c-0.245-3.438-0.474-6.657-0.713-10.014
			c-4.465,0-9.011,0-13.743,0c0.157,1.792,0.321,3.424,0.438,5.059C45.428,82.025,45.502,83.696,45.593,85.312z M85.284,73.17
			c0-3.417,0.036-6.594-0.016-9.77c-0.024-1.345-0.109-1.475-1.452-1.485c-3.145-0.023-6.29,0.082-9.432,0.182
			c-0.186,0.007-0.51,0.432-0.515,0.667c-0.04,2.048-0.079,4.101-0.003,6.147c0.056,1.459,0.296,2.912,0.441,4.26
			C78.081,73.17,81.689,73.17,85.284,73.17z M43.132,75.416c-0.466,0-0.833,0-1.2,0c-2.545,0-5.092-0.06-7.632,0.025
			c-1.23,0.042-2.454,0.333-3.674,0.551c-0.559,0.101-0.878,0.367-0.784,1.078c0.134,0.998,0.072,2.021,0.135,3.031
			c0.091,1.47,0.217,2.938,0.328,4.405c0.05,0.681,0.292,0.951,1.088,0.912c2.569-0.125,5.144-0.148,7.718-0.152
			c1.401-0.001,2.804,0.12,4.46,0.199C43.422,82.034,43.277,78.733,43.132,75.416z M44.697,46.407c4.573,0,9.041,0,13.636,0
			c-0.246-2.719-0.462-5.248-0.729-7.772c-0.02-0.187-0.388-0.459-0.616-0.482c-0.687-0.07-1.387-0.023-2.082-0.045
			c-3.005-0.096-6.009-0.229-9.016-0.286c-0.937-0.018-1.876,0.168-2.922,0.271C44.408,40.799,44.208,43.704,44.697,46.407z
			 M60.53,75.517c0.246,2.997,0.521,6.04,0.729,9.09c0.052,0.772,0.351,0.974,1.076,0.932c3.29-0.187,6.582-0.329,9.873-0.524
			c0.23-0.013,0.595-0.302,0.63-0.507c0.079-0.462-0.003-0.951-0.036-1.431c-0.015-0.213-0.118-0.43-0.097-0.638
			c0.069-0.646,0.312-1.304,0.247-1.933c-0.165-1.622-0.459-3.23-0.724-4.989C68.47,75.517,64.624,75.517,60.53,75.517z
			 M74.955,84.757c3.503,0.294,6.992,0.317,10.45-0.413c0.205-0.043,0.479-0.404,0.485-0.626c0.031-1.011-0.012-2.026-0.046-3.039
			c-0.051-1.446-0.111-2.891-0.177-4.337c-0.032-0.681-0.308-0.972-1.084-0.948c-2.201,0.067-4.402,0.005-6.604,0.027
			c-1.199,0.013-2.396,0.091-3.669,0.143C74.531,78.706,74.739,81.671,74.955,84.757z M71.97,38.185c-4.157,0-8.196,0-12.401,0
			c0.247,2.78,0.481,5.412,0.73,8.191c4.077,0,8.226,0,12.551,0C72.562,43.683,72.27,40.962,71.97,38.185z M85.829,37.313
			c-0.986,0.767-1.937,0.53-2.854,0.543c-2.944,0.043-5.888,0.123-8.901,0.19c0.325,2.951,0.631,5.717,0.941,8.554
			c3.666-0.105,7.382-0.211,11.213-0.321C86.094,43.242,85.961,40.278,85.829,37.313z M30.004,46.299c4.234,0,8.396,0,12.588,0
			c-0.049-0.783-0.051-1.479-0.145-2.162c-0.24-1.741-0.483-3.481-0.806-5.207c-0.131-0.704-0.552-1.021-1.43-0.943
			c-1.836,0.166-3.69,0.124-5.537,0.146c-1.436,0.018-2.872,0.004-4.418,0.004c-0.125,2.191-0.267,4.463-0.373,6.739
			C29.861,45.386,29.968,45.901,30.004,46.299z M60.983,60.105c3.025,0,6.064,0,9.104,0c-4.415-1.742-5.155-8.015-1.826-11.667
			c-2.546,0-4.993-0.013-7.44,0.027c-0.172,0.002-0.475,0.386-0.483,0.601c-0.047,1.299-0.1,2.605-0.009,3.899
			C60.499,55.381,60.766,57.79,60.983,60.105z M71.879,62.302c-2.368,0-4.685,0-7.256,0c3.02,3.932,3.872,7.508-0.801,10.634
			c0.068,0.05,0.139,0.102,0.207,0.153c2.783,0,5.567,0,8.237,0C72.138,69.495,72.007,65.862,71.879,62.302z M29.828,73.273
			c2.368-0.109,4.606-0.211,6.959-0.318c-0.213-0.327-0.363-0.564-0.519-0.796c-0.888-1.329-1.409-2.788-1.465-4.386
			c-0.067-1.918,0.998-3.252,2.372-4.414c0.348-0.294,0.644-0.651,1.119-1.137c-0.919,0-1.555-0.021-2.19,0.003
			c-1.676,0.062-3.351,0.133-5.025,0.221c-0.58,0.03-0.84,0.302-0.98,0.951C29.396,66.645,29.853,69.901,29.828,73.273z
			 M77.895,59.5c0.062,0.068,0.125,0.136,0.189,0.204c2.408,0,4.82,0,7.166,0c0.223-3.575,0.445-7.16,0.681-10.966
			c-2.188,0-4.286,0-6.454,0C81.658,52.723,82.688,56.515,77.895,59.5z M49.315,72.693c1.972,0.059,3.985,0.465,6.188-0.09
			c-1.948-1.092-3.009-2.599-3.357-4.594c-0.352-2.022,0.139-3.811,1.617-5.315c-0.036-0.064-0.074-0.129-0.112-0.193
			c-1.485,0.115-2.972,0.23-4.441,0.344c0.606,1.438,1.167,2.698,1.661,3.986c0.131,0.343,0.155,0.801,0.046,1.148
			C50.428,69.537,49.873,71.073,49.315,72.693z"/>
	</g>
	<g id="Logo">
		<path fill-rule="evenodd" clip-rule="evenodd" d="M60.868,20.652c0.074,0.029,0.146,0.081,0.221,0.083
			c0.986,0.035,1.976,0.021,2.958,0.103c1.185,0.098,2.366,0.261,3.544,0.424c0.89,0.124,1.779,0.262,2.657,0.449
			c0.776,0.165,1.535,0.412,2.304,0.614c0.562,0.148,1.136,0.258,1.691,0.426c1.845,0.555,3.639,1.249,5.358,2.113
			c1.047,0.525,2.05,1.136,3.073,1.708c0.745,0.418,1.532,0.777,2.229,1.265c1.125,0.787,2.19,1.659,3.282,2.493
			c0.125,0.096,0.256,0.184,0.312,0.223c0.649-0.774,1.263-1.569,1.944-2.299c0.654-0.7,1.445-1.222,2.424-1.364
			c0.818-0.119,1.534,0.106,2.122,0.702c0.934,0.946,1.587,2.075,2.026,3.312c0.447,1.254,0.673,2.563,0.804,3.892
			c0.097,0.981,0.32,1.951,0.41,2.933c0.087,0.938,0.104,1.884,0.1,2.826c-0.011,2.227-0.01,4.455-0.094,6.679
			c-0.074,1.965-0.222,3.923-0.668,5.856c-0.442,1.908-0.937,3.792-1.78,5.562c-0.805,1.685-1.969,3.114-3.357,4.35
			c-0.685,0.609-1.515,0.99-2.365,1.346c-1.484,0.621-3,0.553-4.493,0.222c-1.238-0.274-2.343-0.897-3.416-1.62
			c-1.362-0.916-2.255-2.204-3.133-3.505c-0.376-0.558-0.491-1.297-0.701-1.962c-0.376-1.188-0.711-2.4-0.714-3.646
			c-0.003-1.405,0.186-2.812,0.858-4.078c0.46-0.864,1.026-1.671,1.542-2.506c0.688-1.115,1.721-1.854,2.764-2.598
			c0.833-0.594,1.811-0.816,2.723-1.206c0.229-0.098,0.508-0.12,0.76-0.107c0.121,0.006,0.306,0.157,0.337,0.275
			c0.169,0.647,0.293,1.306,0.443,1.958c0.184,0.788,0.378,1.574,0.57,2.369c-1.112,0.034-1.936,0.747-2.748,1.404
			c-0.806,0.652-1.521,1.435-1.828,2.465c-0.203,0.679-0.325,1.385-0.446,2.086c-0.207,1.201,0.098,2.328,0.608,3.399
			c0.637,1.336,1.695,2.243,3.116,2.615c0.547,0.143,1.19,0.054,1.762-0.066c0.613-0.129,1.238-0.339,1.775-0.656
			c0.793-0.467,1.29-1.248,1.789-2.013c0.948-1.456,1.202-3.126,1.537-4.773c0.264-1.298,0.45-2.601,0.448-3.935
			c-0.005-2.46,0.056-4.92,0.075-7.38c0.013-1.637,0.043-3.275-0.013-4.911c-0.034-0.984-0.184-1.969-0.354-2.94
			c-0.056-0.319-0.338-0.599-0.516-0.896c-0.068,0.003-0.137,0.006-0.204,0.009c-0.278,0.808-0.59,1.606-0.826,2.426
			c-0.316,1.094-0.451,2.221-0.45,3.362c0.002,0.995-0.101,2.003,0.026,2.982c0.176,1.354,0.491,2.694,0.811,4.025
			c0.182,0.756,0.491,1.482,0.744,2.221c0.009,0.027,0.021,0.057,0.043,0.075c0.626,0.543,0.43,1.215,0.308,1.886
			c-0.271,1.503-0.524,3.01-0.798,4.512c-0.042,0.231-0.154,0.45-0.241,0.694c-0.732-0.407-1.132-1.06-1.473-1.703
			c-0.935-1.767-1.871-3.54-2.657-5.374c-0.584-1.362-0.83-2.848-0.962-4.333c-0.102-1.134-0.208-2.269-0.256-3.406
			c-0.042-1.023-0.023-2.049-0.002-3.073c0.011-0.499,0.09-0.997,0.131-1.423c-1.006-0.751-1.969-1.515-2.978-2.211
			c-1.115-0.77-2.244-1.529-3.421-2.199c-1.229-0.701-2.489-1.37-3.794-1.909c-1.839-0.76-3.714-1.441-5.607-2.051
			c-1.051-0.339-2.166-0.493-3.262-0.678c-0.945-0.159-1.902-0.26-2.857-0.354c-1.361-0.133-2.725-0.246-4.089-0.349
			c-1.253-0.095-2.506-0.119-3.757,0.072c-0.426,0.065-0.862,0.077-1.295,0.09c-1.81,0.056-3.493,0.669-5.201,1.171
			c-1.241,0.365-2.493,0.699-3.711,1.126c-0.583,0.204-1.108,0.578-1.645,0.899c-0.354,0.211-0.443,0.553-0.311,1.069
			c0.489-0.085,1.04-0.081,1.5-0.282c1.402-0.612,2.768-1.308,4.151-1.962c0.199-0.094,0.419-0.142,0.63-0.211
			c0.029,0.037,0.057,0.073,0.086,0.109c-0.468,0.652-0.904,1.332-1.413,1.951c-0.937,1.138-2.092,2.048-3.408,2.683
			c-0.97,0.468-1.918,1.001-3.099,1.031c-0.806,0.021-1.511-0.24-2.267-0.325c-0.084-0.009-0.154-0.122-0.236-0.179
			c-0.987-0.687-1.35-1.72-1.501-2.834c-0.133-0.981-0.087-1.917,0.559-2.803c0.706-0.968,1.575-1.678,2.607-2.23
			c1.683-0.9,3.479-1.501,5.309-2.016c1.232-0.347,2.448-0.748,3.684-1.081c1.042-0.281,2.096-0.534,3.157-0.731
			c0.691-0.128,1.405-0.126,2.107-0.196c0.434-0.043,0.865-0.114,1.297-0.172C59.117,20.652,59.993,20.652,60.868,20.652z
			 M88.599,64.135c0.027,0.064,0.055,0.13,0.082,0.195c0.434-0.113,0.903-0.153,1.293-0.352c1.325-0.671,2.577-1.466,3.475-2.688
			c0.719-0.979,1.511-1.929,2.056-3.001c0.861-1.694,1.31-3.552,1.594-5.429c0.256-1.687,0.456-3.384,0.612-5.082
			c0.118-1.281,0.167-2.572,0.179-3.859c0.018-1.925,0.067-3.851-0.238-5.77c-0.221-1.388-0.274-2.802-0.46-4.197
			c-0.257-1.935-0.872-3.738-2.044-5.336c-0.83-1.132-1.868-1.305-3.078-0.703c-0.9,0.448-1.554,1.157-2.046,2.021
			c-0.071,0.125-0.099,0.275-0.146,0.414c0.172,0.017,0.363,0.09,0.513,0.04c0.534-0.178,1.047-0.422,1.583-0.594
			c0.263-0.084,0.572-0.135,0.835-0.079c1.099,0.233,1.668,1.09,2.098,2.006c0.512,1.091,0.777,2.253,0.82,3.479
			c0.051,1.453,0.303,2.901,0.314,4.352c0.019,2.405,0.144,4.813-0.227,7.214c-0.206,1.334-0.205,2.699-0.381,4.039
			c-0.15,1.157-0.365,2.313-0.649,3.445c-0.346,1.378-0.757,2.743-1.21,4.09c-0.329,0.976-0.731,1.935-1.552,2.638
			c-0.318,0.272-0.627,0.557-0.927,0.849c-0.499,0.487-0.978,0.997-1.485,1.475C89.292,63.602,88.937,63.858,88.599,64.135z
			 M50.659,22.839c0.016,0.041,0.031,0.081,0.047,0.122c0.628-0.121,1.254-0.254,1.885-0.36c0.972-0.163,1.943-0.333,2.92-0.452
			c0.63-0.078,1.271-0.076,1.907-0.099c0.898-0.032,1.801-0.123,2.694-0.067c1.389,0.086,2.774,0.253,4.155,0.427
			c1.074,0.135,2.146,0.307,3.211,0.51c1.385,0.265,2.751,0.607,4.066,1.136c1.545,0.621,3.124,1.161,4.648,1.828
			c1.23,0.538,2.419,1.182,3.597,1.833c1.771,0.979,3.523,1.995,5.271,3.016c0.598,0.35,1.159,0.764,1.794,1.187
			c0.249-0.443,0.486-0.83,0.682-1.235c0.044-0.091-0.013-0.314-0.096-0.372c-1.748-1.211-3.47-2.469-5.274-3.59
			c-1.624-1.008-3.37-1.814-5.168-2.473c-1.439-0.527-2.902-1.003-4.377-1.425c-1.296-0.371-2.615-0.677-3.94-0.933
			c-1.093-0.211-2.205-0.329-3.314-0.451c-1.258-0.139-2.519-0.304-3.781-0.335c-1.641-0.04-3.286,0.02-4.927,0.082
			c-0.669,0.025-1.338,0.146-2,0.263c-0.671,0.118-1.331,0.306-2.003,0.425C51.89,22.013,51.273,22.417,50.659,22.839z
			 M86.816,47.541c-0.074-0.421-0.16-0.913-0.248-1.404c-0.063-0.357-0.263-0.419-0.593-0.312c-1.108,0.357-2.069,0.958-2.938,1.723
			c-1.035,0.913-1.755,2.039-2.26,3.312c-0.22,0.556-0.479,1.1-0.643,1.672c-0.312,1.09-0.317,2.197-0.103,3.317
			c0.461,2.401,1.547,4.378,3.71,5.657c0.411,0.244,0.847,0.367,1.333,0.385c1.09,0.039,2.133-0.078,3.155-0.517
			c0.736-0.317,1.09-0.898,1.415-1.559c-0.239,0.062-0.445,0.177-0.663,0.26c-0.665,0.252-1.308,0.603-2.06,0.495
			c-0.198-0.029-0.396-0.057-0.594-0.087c-0.73-0.112-1.452-0.347-1.978-0.836c-1.654-1.54-2.537-3.409-2.317-5.746
			c0.098-1.05,0.418-2.009,0.847-2.94c0.484-1.048,1.367-1.772,2.252-2.46C85.608,48.133,86.185,47.895,86.816,47.541z
			 M92.486,32.003c-0.419,0.058-0.843,0.09-1.256,0.177c-1.071,0.225-1.561,1.13-1.841,1.985c-0.382,1.167-0.57,2.424-0.654,3.655
			c-0.079,1.146,0.033,2.314,0.159,3.462c0.139,1.262,0.336,2.522,0.604,3.763c0.353,1.626,0.748,3.248,1.477,4.763
			c0.355,0.737,0.708,1.466,1.468,1.878c0.037-0.07,0.093-0.13,0.102-0.197c0.125-0.908,0.256-1.814,0.354-2.725
			c0.019-0.181-0.056-0.403-0.157-0.561c-0.887-1.387-1.279-2.946-1.578-4.533c-0.174-0.926-0.327-1.86-0.426-2.797
			c-0.082-0.776-0.139-1.567-0.083-2.343c0.076-1.039,0.266-2.071,0.418-3.104C91.253,34.195,91.553,33.009,92.486,32.003z
			 M49.178,28.868c-0.043-0.043-0.086-0.085-0.13-0.128c-0.223,0.11-0.45,0.211-0.667,0.332c-0.731,0.405-1.437,0.866-2.195,1.211
			c-0.576,0.261-1.192,0.108-1.705-0.249c-0.711-0.496-0.881-0.457-1.396,0.046c-0.101,0.098-0.172,0.227-0.262,0.337
			c-0.449,0.547-0.236,1.147,0.291,1.444c0.702,0.395,1.471,0.358,2.162,0.111c1.461-0.523,2.734-1.368,3.69-2.624
			C49.068,29.213,49.108,29.029,49.178,28.868z"/>
		<path fill-rule="evenodd" clip-rule="evenodd" d="M38.264,70.5c-0.2-0.369-0.417-0.72-0.585-1.093
			c-0.28-0.623-0.539-1.257-0.782-1.896c-0.043-0.112-0.014-0.299,0.055-0.399c0.483-0.707,1.053-1.364,1.472-2.106
			c1.052-1.865,2.096-3.74,3.022-5.669c0.366-0.763,0.476-1.672,0.587-2.529c0.15-1.156,0.201-2.326,0.274-3.491
			c0.065-1.043-0.039-2.069-0.345-3.075c-0.431-1.417-0.708-2.896-1.497-4.173c-0.69-1.116-1.449-2.192-2.226-3.25
			c-0.425-0.58-0.925-1.111-1.437-1.62c-1.487-1.479-3.121-2.766-5.087-3.555c-1.338-0.537-2.71-0.976-4.17-1.061
			c-0.762-0.044-1.528-0.197-2.285-0.157c-2.278,0.121-4.523,0.457-6.64,1.378c-1.783,0.776-3.399,1.801-4.896,3.053
			c-2.222,1.859-3.786,4.163-4.748,6.863c-0.506,1.42-0.911,2.885-0.988,4.415c-0.039,0.777-0.189,1.556-0.156,2.329
			c0.087,2.071,0.467,4.079,1.386,5.971c0.801,1.652,1.83,3.144,3.035,4.512c0.668,0.76,1.381,1.49,2.152,2.141
			c0.651,0.55,1.438,0.934,2.122,1.448c0.953,0.717,1.913,1.431,2.662,2.385c0.228,0.291,0.592,0.476,0.823,0.765
			c0.822,1.029,1.677,2.043,2.403,3.139c0.802,1.213,1.518,2.488,2.196,3.774c0.686,1.3,1.298,2.64,1.912,3.977
			c0.984,2.147,2.283,4.075,3.78,5.907c1.376,1.682,2.797,3.312,4.351,4.827c1.372,1.337,2.84,2.559,4.419,3.65
			c1.566,1.083,3.138,2.153,4.877,2.94c1.725,0.78,3.437,1.596,5.278,2.085c1.153,0.307,2.296,0.659,3.458,0.923
			c0.723,0.164,1.476,0.201,2.214,0.296c0.753,0.097,1.506,0.194,2.259,0.29c0.156,0.021,0.312,0.057,0.469,0.058
			c1.663,0.005,3.327,0.034,4.989-0.011c0.812-0.021,1.622-0.18,2.432-0.286c0.752-0.099,1.507-0.183,2.251-0.321
			c0.769-0.143,1.529-0.332,2.289-0.523c1.363-0.344,2.732-0.674,4.082-1.068c0.887-0.26,1.748-0.605,2.611-0.939
			c1.487-0.572,2.98-1.133,4.446-1.758c1.696-0.723,3.358-1.533,4.86-2.613c1.185-0.852,2.325-1.77,3.466-2.682
			c2.118-1.697,3.616-3.906,4.961-6.215c1.204-2.062,2.156-4.254,3.031-6.479c0.443-1.127,1.021-2.207,1.39-3.356
			c0.553-1.72,1.023-3.47,1.436-5.229c0.229-0.972,0.238-1.992,0.393-2.984c0.28-1.813,0.28-3.639,0.249-5.463
			c-0.019-1.04-0.104-2.079-0.172-3.117c-0.021-0.311,0.09-0.452,0.404-0.461c0.665-0.021,1.331-0.033,1.993-0.092
			c0.566-0.05,1.134-0.133,1.69-0.251c0.39-0.083,0.574,0.149,0.713,0.403c0.364,0.67,0.601,1.382,0.636,2.158
			c0.035,0.764,0.151,1.523,0.162,2.286c0.023,1.763-0.111,3.515-0.426,5.251c-0.268,1.476-0.486,2.96-0.802,4.425
			c-0.54,2.515-1.383,4.938-2.449,7.278c-0.682,1.496-1.382,2.988-2.143,4.446c-0.993,1.903-2.193,3.682-3.471,5.403
			c-1.519,2.049-3.215,3.943-5.069,5.695c-1.916,1.811-3.991,3.408-6.262,4.752c-1.847,1.094-3.819,1.921-5.79,2.759
			c-1.666,0.708-3.353,1.353-5.097,1.845c-1.012,0.285-2.006,0.639-3.027,0.886c-0.982,0.237-1.99,0.371-2.986,0.558
			c-0.686,0.129-1.367,0.29-2.056,0.398c-0.483,0.075-0.981,0.058-1.465,0.13c-1.806,0.268-3.623,0.165-5.435,0.163
			c-1.41-0.003-2.81-0.151-4.201-0.416c-0.982-0.188-1.984-0.27-2.966-0.461c-0.933-0.184-1.853-0.439-2.774-0.68
			c-2.08-0.543-4.029-1.421-5.95-2.365c-1.858-0.912-3.762-1.75-5.543-2.796c-1.806-1.062-3.531-2.276-5.209-3.534
			c-1.564-1.172-2.894-2.602-4.057-4.188c-1.278-1.744-2.613-3.445-3.926-5.164c-0.583-0.762-1.187-1.509-1.748-2.287
			c-0.24-0.333-0.401-0.725-0.589-1.094c-1.195-2.346-2.476-4.642-3.984-6.803c-0.834-1.195-1.638-2.417-2.542-3.557
			c-0.783-0.987-1.812-1.713-2.893-2.376c-1.207-0.739-2.453-1.45-3.43-2.499c-1.333-1.43-2.476-3.004-3.43-4.714
			c-0.397-0.71-0.874-1.382-1.214-2.118c-0.43-0.928-0.781-1.896-1.125-2.862c-0.438-1.235-0.619-2.523-0.71-3.827
			c-0.044-0.646-0.188-1.293-0.159-1.934c0.11-2.38,0.195-4.783,0.974-7.055c0.82-2.394,1.828-4.719,3.414-6.738
			c0.549-0.699,1.059-1.435,1.663-2.084c1.991-2.14,4.327-3.809,6.986-5.035c1.55-0.714,3.172-1.184,4.826-1.568
			c0.652-0.151,1.3-0.325,1.958-0.45c0.464-0.088,0.94-0.154,1.411-0.153c1.22,0.004,2.442,0.014,3.659,0.094
			c0.65,0.043,1.298,0.204,1.934,0.364c1.721,0.434,3.385,1.036,4.936,1.904c1.297,0.727,2.614,1.433,3.69,2.493
			c1.047,1.031,2.185,1.982,3.136,3.094c0.877,1.025,1.602,2.19,2.318,3.341c0.986,1.585,1.634,3.33,2.158,5.113
			c0.378,1.286,0.763,2.578,0.787,3.939c0.02,1.162,0.112,2.325,0.07,3.484c-0.054,1.504-0.312,2.983-0.845,4.405
			c-0.349,0.931-0.559,1.934-1.03,2.796c-0.717,1.311-1.58,2.546-2.434,3.776c-0.49,0.706-1.078,1.345-1.637,2.001
			C40.276,69.422,39.371,69.999,38.264,70.5z M25.777,36.011c-0.119-0.557-0.499-0.717-0.88-0.726
			c-1.432-0.032-2.866-0.021-4.298-0.006c-0.298,0.003-0.601,0.06-0.89,0.138c-0.741,0.2-1.466,0.46-2.213,0.633
			c-1.373,0.318-2.608,0.945-3.772,1.695c-1.462,0.943-2.894,1.952-3.968,3.352c-0.773,1.008-1.543,2.031-2.183,3.125
			c-0.808,1.381-1.347,2.894-1.727,4.453c-0.359,1.474-0.763,2.943-0.738,4.479c0.012,0.739,0.039,1.478,0.091,2.215
			c0.039,0.558,0.066,1.128,0.207,1.665c0.302,1.154,0.632,2.305,1.025,3.432c0.598,1.714,1.332,3.373,2.343,4.895
			c0.9,1.356,1.985,2.551,3.169,3.657c0.322,0.301,0.677,0.59,1.065,0.793c2,1.041,3.843,2.314,5.194,4.119
			c1.281,1.711,2.395,3.551,3.521,5.371c0.713,1.153,1.27,2.403,1.978,3.561c1.155,1.887,2.333,3.762,3.584,5.586
			c0.866,1.262,1.82,2.475,2.829,3.627c0.924,1.056,1.977,1.999,2.968,2.997c1.241,1.25,2.637,2.313,4.093,3.292
			c1.517,1.018,3.051,2.014,4.62,2.95c1.866,1.114,3.865,1.948,5.956,2.548c0.943,0.271,1.891,0.535,2.852,0.73
			c1.23,0.248,2.488,0.369,3.711,0.648c1.022,0.233,2.054,0.301,3.082,0.308c1.579,0.011,3.158-0.088,4.736-0.164
			c0.528-0.025,1.062-0.081,1.578-0.197c1.152-0.259,2.295-0.56,3.439-0.852c0.881-0.225,1.768-0.432,2.635-0.701
			c1.019-0.316,2.021-0.686,3.025-1.048c0.297-0.105,0.576-0.264,0.863-0.398c-0.017-0.043-0.034-0.087-0.051-0.131
			c-0.149,0.025-0.303,0.035-0.448,0.075c-0.85,0.235-1.688,0.524-2.548,0.708c-1.548,0.33-3.109,0.589-4.663,0.895
			c-1.546,0.305-3.113,0.389-4.68,0.419c-1.409,0.026-2.82-0.032-4.229-0.081c-0.762-0.027-1.531-0.061-2.28-0.186
			c-1.108-0.185-2.209-0.423-3.299-0.693c-1.187-0.294-2.403-0.541-3.523-1.007c-1.548-0.644-3.121-1.228-4.629-1.983
			c-1.347-0.676-2.66-1.398-3.856-2.285c-1.476-1.094-2.874-2.301-4.243-3.529c-1.088-0.978-2.086-2.056-3.116-3.098
			c-0.397-0.402-0.789-0.812-1.147-1.248c-0.684-0.829-1.378-1.654-2.003-2.527c-0.864-1.207-1.77-2.4-2.476-3.699
			c-1.251-2.301-2.365-4.676-3.54-7.018c-1.192-2.377-2.9-4.377-4.721-6.273c-0.759-0.791-1.695-1.414-2.57-2.086
			c-0.885-0.68-1.845-1.27-2.679-2.006c-0.665-0.585-1.245-1.29-1.763-2.014c-0.841-1.17-1.67-2.359-2.376-3.612
			c-0.885-1.57-1.251-3.313-1.269-5.113c-0.011-1.044,0.02-2.092,0.09-3.134c0.054-0.784,0.145-1.574,0.319-2.339
			c0.445-1.958,1.153-3.815,2.212-5.537c1.05-1.706,2.276-3.272,3.839-4.516c1.594-1.269,3.408-2.21,5.303-2.954
			c0.814-0.319,1.708-0.43,2.557-0.664c1.126-0.311,2.269-0.486,3.438-0.495C25.459,36.056,25.595,36.03,25.777,36.011z
			 M104.726,60.241c-0.617,0.179-1.175,0.33-1.723,0.512c-0.065,0.022-0.113,0.212-0.105,0.32c0.045,0.674,0.155,1.347,0.155,2.021
			c0.001,1.599-0.023,3.199-0.088,4.797c-0.037,0.947-0.105,1.901-0.273,2.832c-0.265,1.473-0.629,2.927-0.941,4.391
			c-0.574,2.692-1.56,5.245-2.713,7.729c-1.2,2.584-2.7,5.002-4.409,7.283c-0.8,1.067-1.604,2.142-2.512,3.115
			c-1.007,1.08-2.082,2.113-3.224,3.049c-1.414,1.16-2.906,2.229-4.402,3.283c-1.942,1.369-4.028,2.506-6.161,3.547
			c-1.746,0.853-3.529,1.626-5.288,2.45c-0.563,0.265-1.102,0.578-1.621,0.853c0.648,0.138,1.283-0.102,1.903-0.344
			c0.904-0.352,1.793-0.74,2.685-1.121c2.058-0.877,4.146-1.689,6.157-2.66c1.631-0.789,3.183-1.746,4.741-2.676
			c1.541-0.92,2.983-1.986,4.279-3.236c0.729-0.702,1.444-1.42,2.146-2.149c0.47-0.489,0.941-0.983,1.345-1.526
			c1.084-1.456,2.162-2.918,3.184-4.419c0.874-1.285,1.722-2.595,2.482-3.95c1.105-1.971,2.032-4.033,2.721-6.188
			c0.78-2.446,1.537-4.901,1.756-7.481c0.108-1.275,0.29-2.549,0.328-3.826c0.043-1.407-0.01-2.82-0.084-4.227
			C105.022,61.853,104.852,61.094,104.726,60.241z M21.438,32.771c1.526,0.17,2.94,0.339,4.356,0.484
			c1.79,0.183,3.504,0.692,5.14,1.39c2.218,0.946,4.337,2.094,6.099,3.796c1.394,1.347,2.774,2.719,3.777,4.387
			c0.919,1.531,1.742,3.123,2.544,4.72c0.811,1.616,1.359,3.308,1.238,5.165c-0.093,1.43-0.017,2.879-0.209,4.294
			c-0.267,1.963-0.764,3.868-1.773,5.631c-0.814,1.426-1.795,2.717-2.765,4.023c-0.511,0.688-1.188,1.25-1.494,2.092
			c-0.139,0.379-0.068,1.02,0.23,1.359c0.039-0.01,0.085-0.013,0.12-0.033c1.29-0.764,2.29-1.858,3.219-2.992
			c0.856-1.046,1.576-2.206,2.323-3.338c0.688-1.043,1.188-2.187,1.472-3.402c0.285-1.221,0.493-2.461,0.705-3.698
			c0.121-0.706,0.209-1.42,0.263-2.134c0.146-1.922-0.316-3.771-0.765-5.61c-0.367-1.5-1.041-2.892-1.677-4.296
			c-1.149-2.542-2.741-4.756-4.795-6.632c-0.827-0.755-1.664-1.522-2.595-2.135c-1.235-0.814-2.52-1.59-3.869-2.188
			c-1.892-0.837-3.939-1.199-5.994-1.337c-1.76-0.118-3.534-0.066-5.283,0.247C21.603,32.583,21.52,32.704,21.438,32.771z"/>
		<path fill-rule="evenodd" clip-rule="evenodd" d="M39.53,70.387c1.519-1.131,2.759-2.516,3.951-4.043
			c0.139,0.502,0.264,0.979,0.404,1.451c0.309,1.045,0.705,2.025,1.55,2.794c0.739,0.671,1.457,1.356,2.386,1.747
			c0.492,0.206,1.014,0.439,1.533,0.465c0.902,0.044,1.814,0.114,2.718-0.142c1.167-0.329,2.339-0.698,3.151-1.618
			c1.125-1.276,1.774-2.764,1.452-4.543c-0.176-0.97-0.297-1.949-0.449-2.924c-0.024-0.153-0.078-0.302-0.122-0.464
			c-0.499,0.166-0.975,0.35-1.465,0.483c-1.448,0.394-2.837,0.32-4.091-0.606c-0.978-0.724-1.949-1.456-2.967-2.217
			c-0.461,0.376-0.979,0.799-1.497,1.221c-0.029-0.017-0.057-0.034-0.086-0.051c0.144-0.429,0.325-0.849,0.424-1.288
			c0.226-1,0.417-2.008,0.613-3.015c0.049-0.253,0.082-0.511,0.099-0.768c0.039-0.592,0.547-0.5,0.887-0.572
			c0.88-0.185,1.768-0.377,2.662-0.434c1.033-0.065,2.08-0.104,3.103,0.195c0.64,0.188,1.313,0.267,1.819,0.775
			c0.647,0.649,0.539,1.45-0.283,1.899c-0.197,0.107-0.415,0.195-0.633,0.243c-0.36,0.079-0.392,0.31-0.365,0.647
			c1.04-0.261,1.862-0.673,2.275-1.751c0.477-1.244,1.052-2.458,2.074-3.378c0.86-0.774,1.825-1.339,3.021-1.359
			c0.462-0.008,0.936,0,1.386,0.09c0.617,0.123,0.917-0.275,1.176-0.667c0.869-1.32,2.018-2.357,3.3-3.237
			c0.696-0.479,1.524-0.716,2.388-0.742c0.44-0.013,0.883,0.012,1.321-0.014c0.758-0.046,1.279,0.413,1.854,0.794
			c1.534,1.021,2.542,2.445,3.067,4.175c0.355,1.168,0.521,2.393,0.795,3.587c0.187,0.818,0.411,1.628,0.623,2.44
			c0.165,0.631,0.302,1.273,0.515,1.889c0.356,1.03,1.186,1.544,2.356,1.058c0.128-0.053,0.355-0.006,0.473,0.081
			c0.668,0.493,1.304,1.031,1.978,1.515c0.309,0.222,0.681,0.354,1.022,0.528c-0.601,1.15-1.496,1.978-2.722,2.41
			c-1.016,0.358-2.062,0.618-3.152,0.524c-0.708-0.062-1.371-0.293-2.032-0.579c-0.804-0.349-1.045-1.091-1.438-1.733
			c-0.809-1.322-1.246-2.771-1.484-4.296c-0.207-1.326-0.402-2.658-0.712-3.962c-0.265-1.11-0.706-2.169-1.484-3.052
			c-0.506-0.574-1.214-0.522-1.902-0.284c-0.621,0.215-0.965,0.746-1.252,1.296c-0.066,0.13-0.045,0.387,0.043,0.504
			c0.496,0.65,0.993,1.305,1.551,1.901c0.777,0.83,1.24,1.815,1.566,2.876c0.306,0.993,0.652,1.983,0.834,3
			c0.137,0.767,0.045,1.575,0.049,2.364c0.004,1.002-0.262,1.953-0.598,2.883c-0.467,1.291-1.166,2.453-2.227,3.328
			c-0.578,0.479-1.293,0.716-2.096,0.777c-0.928,0.072-1.676-0.285-2.277-0.834c-0.877-0.8-1.576-1.77-1.877-2.971
			c-0.264-1.049-0.581-2.084-0.852-3.131c-0.085-0.33-0.137-0.68-0.134-1.02c0.009-1.048-0.028-2.105,0.101-3.14
			c0.17-1.366,0.266-2.77,1.041-3.973c-0.567-0.551-1.34-0.573-1.966-0.009c-0.326,0.293-0.583,0.671-0.837,1.035
			c-0.187,0.268-0.314,0.576-0.476,0.862c-0.155,0.272-0.319,0.54-0.416,0.703c0.522,0.96,1.067,1.848,1.498,2.788
			c0.435,0.949,0.649,1.986,0.677,3.026c0.019,0.724-0.114,1.459-0.25,2.175c-0.283,1.492-0.733,2.939-1.486,4.266
			c-0.443,0.779-0.922,1.556-1.497,2.238c-0.702,0.834-1.676,1.322-2.685,1.716c-0.69,0.27-1.371,0.569-2.076,0.794
			c-0.525,0.168-1.076,0.293-1.624,0.336c-0.725,0.057-1.459-0.018-2.187,0.021c-1.198,0.063-2.276-0.35-3.354-0.776
			c-1.324-0.524-2.467-1.313-3.469-2.329c-0.582-0.59-1.25-1.094-1.83-1.687c-0.335-0.343-0.59-0.772-0.841-1.187
			C39.868,71.155,39.721,70.781,39.53,70.387z M69.215,70.936c0.041,0.006,0.083,0.01,0.125,0.016
			c0.604-0.793,1.192-1.595,1.418-2.599c0.201-0.901,0.531-1.794,0.582-2.704c0.057-0.994-0.076-2.015-0.25-3.002
			c-0.161-0.917-0.355-1.871-0.764-2.695c-0.902-1.817-2.146-3.383-3.698-4.737c-1.3-1.134-2.783-1.589-4.423-1.729
			c-1.381-0.119-2.484,0.54-3.415,1.443c-0.98,0.952-1.483,2.201-1.801,3.559c0.229-0.066,0.493-0.137,0.594-0.306
			c0.403-0.674,0.909-1.234,1.499-1.757c0.857-0.759,1.813-1.193,2.952-1.188c1.05,0.004,2.032,0.331,2.952,0.795
			c1.604,0.809,2.576,2.215,3.286,3.795c0.483,1.074,0.854,2.2,1.229,3.318c0.384,1.141,0.603,2.33,0.447,3.526
			c-0.145,1.128-0.449,2.233-0.666,3.353C69.227,70.32,69.236,70.631,69.215,70.936z M67.701,49.953
			c0.688-0.083,1.337-0.271,1.96-0.208c0.925,0.093,1.716,0.631,2.429,1.193c0.955,0.754,1.469,1.812,1.735,2.992
			c0.34,1.5,0.691,2.997,1.028,4.498c0.163,0.723,0.354,1.444,0.446,2.178c0.126,1.005,0.391,1.957,0.846,2.857
			c0.507,1.003,1.336,1.454,2.449,1.493c1.1,0.039,2.091-0.34,3.182-0.711c-0.221-0.227-0.406-0.417-0.592-0.608
			c-0.122-0.126-0.284-0.234-0.354-0.386c-0.111-0.238-0.285-0.244-0.492-0.227c-0.329,0.029-0.658,0.062-0.988,0.084
			c-0.678,0.044-1.167-0.268-1.441-0.867c-0.255-0.554-0.515-1.121-0.655-1.709c-0.334-1.399-0.646-2.807-0.878-4.226
			c-0.272-1.668-0.738-3.252-1.65-4.689c-0.635-1.002-1.392-1.859-2.547-2.287c-0.903-0.335-1.837-0.491-2.772-0.291
			C68.795,49.169,68.16,49.373,67.701,49.953z M51.553,76.956c0.009,0.034,0.018,0.067,0.027,0.101
			c0.502-0.042,1.022-0.016,1.504-0.139c1.196-0.304,2.277-0.892,3.326-1.527c0.365-0.221,0.748-0.457,1.025-0.771
			c1.005-1.143,1.81-2.4,2.413-3.822c0.686-1.618,1.019-3.271,1.011-5.008c-0.002-0.484-0.1-0.969-0.168-1.452
			c-0.151-1.072-0.534-2.043-1.304-2.827c-0.076-0.078-0.298-0.135-0.355-0.087c-0.33,0.278-0.685,0.571-0.611,1.072
			c0.087,0.592,0.195,1.183,0.314,1.77c0.114,0.557,0.338,1.103,0.365,1.66c0.075,1.533-0.137,3.025-0.77,4.451
			c-0.58,1.307-1.182,2.6-2.293,3.545c-0.685,0.583-1.423,1.107-2.17,1.611C53.117,76.037,52.326,76.483,51.553,76.956z
			 M53.903,72.482c-2.276,0.902-4.452,1.185-6.691,0.013c-2.198-1.15-3.448-2.938-4.001-5.331c-0.506,0.695-0.961,1.385-1.383,2.096
			c-0.073,0.123-0.062,0.358,0.006,0.493c0.632,1.247,1.393,2.411,2.499,3.292c1.097,0.875,2.249,1.625,3.709,1.812
			c1.427,0.183,2.77,0.023,4.034-0.656C52.812,73.806,53.422,73.256,53.903,72.482z M54.217,60.09
			c-0.317-0.06-0.505-0.143-0.679-0.121c-0.849,0.108-1.679,0.02-2.498-0.201c-0.445-0.121-0.786-0.588-0.761-0.992
			c0.014-0.226,0.514-0.635,0.882-0.648c0.447-0.016,0.9,0.007,1.344,0.067c0.734,0.098,1.459,0.276,2.195,0.35
			c0.521,0.052,0.786-0.228,0.896-0.825c0.073-0.399-0.174-0.632-0.516-0.734c-0.597-0.178-1.204-0.321-1.807-0.474
			c-1.031-0.262-2.075-0.315-3.103-0.037c-1.217,0.33-2.35,1.996-2.045,3.398c0.092,0.426,0.296,0.758,0.666,0.949
			c0.774,0.401,1.586,0.59,2.482,0.557c0.867-0.033,1.626-0.264,2.319-0.757C53.783,60.486,53.951,60.318,54.217,60.09z
			 M67.248,67.856c-0.266-0.126-0.633-0.181-0.754-0.384c-0.276-0.457-0.486-0.974-0.621-1.492c-0.133-0.508-0.09-1.061-0.21-1.573
			c-0.244-1.05-0.12-2.084,0.008-3.127c0.036-0.303,0.131-0.675,0.003-0.907c-0.262-0.469-0.631-0.888-1.007-1.278
			c-0.187-0.194-0.496-0.221-0.623,0.115c-0.151,0.397-0.29,0.807-0.366,1.223c-0.129,0.703-0.263,1.414-0.288,2.125
			c-0.038,1.066-0.101,2.155,0.066,3.2c0.154,0.964,0.713,1.788,1.581,2.362C65.692,68.554,66.779,68.436,67.248,67.856z
			 M66.293,60.914c-0.09,0.558-0.246,1.086-0.244,1.613c0.004,0.951,0.078,1.903,0.17,2.85c0.049,0.507,0.154,1.019,0.324,1.497
			c0.066,0.188,0.359,0.329,0.578,0.419c0.085,0.035,0.338-0.106,0.366-0.209c0.128-0.449,0.302-0.92,0.276-1.373
			c-0.059-1.027-0.171-2.06-0.365-3.07C67.275,61.996,67.167,61.267,66.293,60.914z"/>
		<path fill-rule="evenodd" clip-rule="evenodd" d="M98.487,53.992c-0.269,0.769-0.51,1.458-0.751,2.15
			c0.628,0.5,1.247,0.836,1.986,0.832c0.617-0.004,1.233-0.081,1.852-0.119c0.09-0.005,0.191,0.006,0.271,0.044
			c1.239,0.59,2.477,1.187,3.74,1.794c-0.438,0.481-0.998,0.715-1.62,0.73c-1.268,0.03-2.54,0.061-3.806-0.009
			c-0.835-0.046-1.662-0.251-2.487-0.413c-0.456-0.09-0.901-0.236-1.252-0.331c0.512-1.666,1.063-3.267,1.483-4.903
			c0.272-1.061,0.404-2.167,0.506-3.261c0.139-1.495,0.201-2.998,0.271-4.499c0.051-1.102,0.171-2.217,0.053-3.304
			c-0.08-0.741,0.218-1.179,0.616-1.669c0.533-0.655,0.971-1.408,1.582-1.974c0.783-0.725,1.703-1.3,2.557-1.95
			c1.564-1.19,3.345-1.682,5.28-1.56c0.746,0.047,1.481,0.28,2.221,0.436c0.331,0.069,0.659,0.157,1.041,0.25
			c0.46-0.998,1.432-1.393,2.375-1.74c0.733-0.27,1.522-0.392,2.349-0.298c0.924,0.105,1.793,0.314,2.623,0.728
			c0.812,0.404,1.221,1.121,1.43,1.94c0.081,0.32-0.056,0.706-0.137,1.052c-0.022,0.098-0.198,0.233-0.299,0.229
			c-0.618-0.026-1.238-0.06-1.851-0.146c-0.485-0.069-1.202,0.112-1.53,0.477c0.374,0.315,0.793,0.59,1.109,0.953
			c0.469,0.538,0.932,1.101,1.278,1.719c0.695,1.234,1.25,2.527,1.474,3.952c0.201,1.286,0.278,2.544,0.102,3.854
			c-0.226,1.671-0.909,3.113-1.782,4.499c-0.966,1.533-2.279,2.689-3.916,3.455c-1.106,0.518-2.229,1.011-3.378,1.423
			c-0.581,0.209-1.235,0.292-1.857,0.294c-1.066,0.003-2.134-0.081-3.197-0.17c-0.348-0.028-0.695-0.158-1.024-0.286
			c-1.299-0.505-2.623-0.964-3.875-1.569c-0.785-0.38-1.472-0.976-2.18-1.505C99.342,54.796,98.985,54.433,98.487,53.992z
			 M113.652,42.045c-0.234,0.351-0.42,0.63-0.606,0.909c-0.544,0.814-0.959,1.71-1.754,2.354c-1.299,1.052-2.668,1.748-4.424,1.542
			c-0.958-0.113-1.75-0.497-2.485-1.04c-0.524-0.387-0.981-0.863-1.491-1.32c-0.033,0.134-0.083,0.254-0.088,0.376
			c-0.036,0.839-0.071,1.679-0.09,2.52c-0.044,1.984,0.702,3.628,2.198,4.917c1.838,1.583,3.952,1.914,6.247,1.277
			c1.443-0.4,2.556-1.275,3.356-2.524c0.68-1.062,0.975-2.208,0.828-3.504c-0.116-1.03-0.206-2.044-0.632-3.004
			C114.355,43.743,114.024,42.927,113.652,42.045z M112.905,53.437c-0.596,0.232-1.195,0.44-1.774,0.696
			c-0.909,0.402-1.867,0.348-2.811,0.292c-0.616-0.037-1.251-0.165-1.828-0.383c-1.164-0.441-2.04-1.277-2.862-2.206
			c-1.45-1.637-1.642-3.577-1.525-5.621c0.037-0.65,0.108-1.305,0.06-1.95c-0.027-0.363-0.227-0.734-0.421-1.058
			c-0.202-0.336-0.489-0.292-0.698,0.051c-0.613,1.001-0.819,2.132-0.944,3.264c-0.158,1.42,0.113,2.813,0.563,4.157
			c0.59,1.768,1.604,3.265,3.141,4.341c0.658,0.461,1.378,0.959,2.137,1.12c1.089,0.23,2.24,0.166,3.364,0.226
			c0.042,0.002,0.088-0.009,0.127-0.025c0.814-0.336,1.659-0.621,2.337-1.214C112.299,54.663,112.78,54.161,112.905,53.437z
			 M115.389,56.121c0.021,0.019,0.043,0.038,0.064,0.057c0.206-0.114,0.418-0.219,0.616-0.344c1.197-0.758,1.919-1.933,2.55-3.13
			c0.662-1.256,1.215-2.58,1.411-4.012c0.08-0.583,0.214-1.177,0.169-1.754c-0.071-0.922-0.189-1.857-0.44-2.744
			c-0.26-0.924-0.61-1.849-1.09-2.676c-0.422-0.729-0.912-1.456-1.642-1.969c-0.371-0.26-0.568-0.3-0.841,0.074
			c-0.21,0.288-0.403,0.592-0.56,0.911c-0.146,0.298-0.143,0.552,0.073,0.902c0.618,1.003,1.251,2.03,1.649,3.13
			c0.611,1.688,0.755,3.466,0.421,5.257c-0.348,1.861-0.896,3.651-1.836,5.306C115.748,55.456,115.57,55.789,115.389,56.121z
			 M111.361,36.696c-1.029-0.297-2.025-0.2-3.001-0.253c-0.438-0.024-0.887,0.066-1.323,0.148c-0.529,0.098-1.079,0.176-1.569,0.382
			c-0.709,0.297-1.237,0.857-1.742,1.435c-0.713,0.818-1.108,1.761-1.185,2.834c-0.069,0.97,0.428,1.761,0.873,2.561
			c0.075,0.135,0.169,0.281,0.293,0.367c1.124,0.774,2.379,0.746,3.648,0.542c0.325-0.052,0.646-0.413,0.697-0.659
			c-0.225-0.039-0.455-0.061-0.675-0.119c-0.231-0.062-0.456-0.153-0.68-0.24c-0.917-0.355-1.668-1.514-1.523-2.472
			c0.129-0.844,0.306-1.669,1.104-2.229c0.749-0.527,1.547-0.75,2.419-0.582c0.753,0.145,1.436,0.183,1.93-0.515
			C110.881,37.537,111.089,37.146,111.361,36.696z M120.109,36.928c0.011-0.082,0.023-0.125,0.021-0.167
			c-0.005-0.056-0.011-0.118-0.036-0.166c-0.391-0.744-1.003-1.305-1.768-1.559c-0.886-0.295-1.815-0.42-2.788-0.31
			c-1.539,0.175-2.604,1.074-3.533,2.158c-0.485,0.564-0.758,1.307-1.18,1.933c-0.308,0.457-0.657,0.905-1.067,1.268
			c-0.717,0.632-1.572,1.026-2.511,1.24c-0.371,0.084-0.477,0.32-0.343,0.698c0.223,0.629,0.479,0.808,1.153,0.874
			c0.784,0.076,1.43-0.183,2.018-0.667c0.517-0.427,1.138-0.767,1.546-1.278c0.89-1.115,1.649-2.333,2.508-3.474
			c1.065-1.417,2.577-1.601,4.207-1.44C119.046,36.106,119.562,36.517,120.109,36.928z"/>
		<path fill-rule="evenodd" clip-rule="evenodd" d="M45.625,76.953c-0.458,0.688-1.03,1.211-1.757,1.527
			c-0.463,0.201-0.954,0.396-1.449,0.455c-0.788,0.096-1.591,0.068-2.387,0.107c-1.709,0.083-3.068-0.671-4.273-1.783
			c-1.086-1.003-1.716-2.27-2.135-3.668c-0.216-0.722-0.524-1.415-0.786-2.123c-0.375-1.014-0.724-2.037-1.126-3.039
			c-0.255-0.637-0.564-1.254-0.892-1.856c-0.265-0.487-0.814-0.681-1.237-0.503c-0.78,0.33-1.016,0.709-0.857,1.377
			c0.238,1,0.856,1.367,1.882,1.118c0.48-0.116,0.754,0.043,0.934,0.514c0.443,1.157,0.903,2.308,1.339,3.466
			c0.122,0.326,0.186,0.673,0.284,1.037c-0.619,0.075-1.157,0.183-1.698,0.199c-1.501,0.044-2.878-0.376-4.121-1.219
			c-1.136-0.77-2.204-1.631-2.981-2.772c-0.732-1.075-0.833-2.312-0.626-3.56c0.099-0.597,0.32-1.178,0.522-1.752
			c0.422-1.197,1.36-1.841,2.501-2.242c1.152-0.406,2.315-0.366,3.52-0.222c1.269,0.151,2.313,0.71,3.293,1.429
			c0.961,0.703,1.816,1.562,2.323,2.641c0.854,1.819,1.585,3.695,2.386,5.539c0.296,0.682,0.607,1.363,0.98,2.004
			c0.178,0.306,0.486,0.553,0.924,0.518c0.456-0.035,0.924,0.061,1.349-0.217c0.067-0.045,0.282,0.031,0.354,0.115
			c0.806,0.933,1.814,1.612,2.821,2.295C45.009,76.539,45.305,76.737,45.625,76.953z M25.135,63.918
			c0.174-0.034,0.281-0.057,0.389-0.077c1.117-0.206,2.24-0.472,3.374-0.196c1.086,0.263,2.123,0.648,2.95,1.469
			c1.056,1.047,1.667,2.357,2.23,3.691c0.526,1.245,0.911,2.554,1.487,3.773c0.541,1.145,1.199,2.244,1.907,3.295
			c0.385,0.571,0.974,1.027,1.687,1.188c0.446,0.1,0.915,0.092,1.371,0.143c0.672,0.075,1.275-0.121,1.834-0.467
			c0.222-0.137,0.337-0.322,0.125-0.588c-0.313-0.391-0.571-0.83-0.916-1.188c-0.165-0.17-0.517-0.332-0.713-0.271
			c-0.959,0.299-1.601-0.283-2.016-0.893c-0.98-1.439-1.74-3.016-2.17-4.723c-0.257-1.024-0.779-1.923-1.245-2.857
			c-0.558-1.121-1.443-1.938-2.308-2.787c-0.201-0.196-0.443-0.387-0.702-0.484c-0.704-0.264-1.415-0.524-2.145-0.693
			c-0.583-0.135-1.213-0.246-1.795-0.166c-0.908,0.125-1.819,0.309-2.644,0.795C25.436,63.117,25.231,63.406,25.135,63.918z
			 M26.946,71.622c0.724,0.837,1.658,1.116,2.561,1.448c0.357,0.131,0.736,0.238,1.112,0.27c0.549,0.045,1.104,0.015,1.657,0.01
			c0.364-0.003,0.485-0.166,0.355-0.525c-0.114-0.317-0.271-0.619-0.409-0.929c-0.176-0.394-0.492-0.467-0.857-0.335
			c-0.886,0.322-1.77,0.192-2.67,0.076C28.121,71.562,27.529,71.622,26.946,71.622z"/>
	</g>
</g>
</svg>
