<?xml version="1.0" standalone="no"?>
<!DOCTYPE svg PUBLIC "-//W3C//DTD SVG 20010904//EN"
 "http://www.w3.org/TR/2001/REC-SVG-20010904/DTD/svg10.dtd">
<svg version="1.0" xmlns="http://www.w3.org/2000/svg"
 width="1000.000000pt" height="1000.000000pt" viewBox="0 0 1000.000000 1000.000000"
 preserveAspectRatio="xMidYMid meet">
<metadata>
Created by potrace 1.15, written by Peter Selinger 2001-2017
</metadata>
<g transform="translate(0.000000,1000.000000) scale(0.100000,-0.100000)"
fill="#000000" stroke="none">
<path d="M7326 8033 c-2 -3 -895 -12 -1659 -18 -317 -2 -581 -6 -586 -9 -4 -3
-176 -6 -382 -6 -397 -1 -405 -1 -514 -18 -93 -15 -367 -10 -684 13 -33 2 -64
-1 -80 -10 -21 -10 -64 -11 -219 -4 -123 5 -202 5 -218 -2 -16 -5 -208 -9
-483 -9 -572 1 -581 0 -581 -76 0 -24 4 -44 9 -44 5 0 17 -14 25 -32 20 -38
22 -128 3 -128 -9 0 -11 -12 -9 -40 4 -34 1 -41 -19 -49 -13 -5 -19 -10 -14
-10 13 -1 7 -69 -6 -77 -12 -7 -11 -71 1 -79 5 -3 10 -15 10 -26 0 -16 7 -19
43 -19 23 0 56 -7 72 -16 27 -15 114 -17 930 -15 495 2 965 4 1045 6 80 2 246
7 368 9 123 3 228 8 233 11 4 3 57 5 116 4 60 -2 173 1 253 5 415 20 562 25
735 26 105 1 260 2 345 3 85 0 238 0 340 -1 102 -1 244 3 315 9 87 8 270 9
550 5 649 -9 797 7 828 87 3 9 12 17 19 17 10 0 12 21 8 91 -3 50 -2 93 3 96
4 2 7 39 7 82 0 70 -2 79 -20 84 -12 3 -20 14 -20 27 0 30 -35 77 -73 97 -27
13 -78 16 -360 17 -181 1 -330 0 -331 -1z"/>
<path d="M7196 6633 c-1 -1 -238 -5 -526 -8 -289 -3 -781 -9 -1095 -13 -313
-4 -678 -7 -810 -8 -379 -1 -543 -7 -615 -20 -67 -13 -415 -13 -545 0 -139 14
-199 15 -224 2 -21 -11 -65 -12 -215 -5 -120 5 -195 5 -207 -2 -11 -6 -194 -9
-471 -9 -566 1 -568 1 -568 -77 0 -30 5 -45 15 -49 8 -4 15 -15 15 -25 0 -10
5 -19 10 -19 15 0 13 -100 -3 -106 -8 -3 -11 -18 -9 -45 4 -33 1 -41 -15 -45
-15 -4 -18 -13 -15 -43 2 -21 -1 -42 -7 -45 -14 -9 -15 -73 -1 -81 6 -3 10
-15 10 -26 0 -16 7 -19 43 -19 23 0 56 -7 72 -16 27 -15 111 -17 905 -15 481
2 938 4 1015 6 444 11 579 16 587 21 5 3 53 5 106 3 99 -3 306 5 601 21 90 5
254 9 365 10 110 0 266 1 346 2 80 1 226 1 325 0 99 -1 239 3 310 9 86 8 267
9 540 5 643 -9 777 5 808 87 3 9 12 17 19 17 10 0 14 41 16 174 3 167 2 174
-18 179 -14 3 -20 13 -20 31 0 27 -40 80 -75 99 -16 8 -660 18 -669 10z"/>
<path d="M7336 5213 c-1 -1 -242 -5 -536 -8 -294 -3 -794 -9 -1110 -13 -316
-4 -683 -7 -815 -8 -387 -1 -553 -7 -626 -20 -95 -18 -299 -15 -693 11 -37 2
-69 -1 -85 -10 -21 -10 -64 -11 -214 -5 -117 6 -198 5 -214 -1 -15 -5 -212 -9
-477 -9 -566 1 -576 -1 -576 -76 0 -24 6 -47 12 -51 24 -15 38 -53 38 -103 0
-34 -4 -50 -13 -50 -9 0 -11 -12 -9 -41 4 -33 1 -41 -15 -45 -15 -4 -18 -13
-15 -43 2 -21 -1 -42 -7 -45 -14 -9 -15 -73 -1 -81 6 -3 10 -15 10 -26 0 -16
7 -19 43 -19 23 0 56 -7 72 -16 27 -15 111 -17 905 -15 481 1 949 4 1040 6 91
3 261 7 378 10 118 2 218 7 223 11 6 3 54 4 107 3 53 -2 165 0 247 4 421 21
566 26 740 27 105 0 258 2 340 2 83 1 231 1 330 0 99 -1 239 3 310 9 87 8 269
9 545 5 648 -9 792 6 823 87 3 9 12 17 19 17 10 0 14 41 16 174 3 167 2 174
-18 179 -12 3 -20 13 -20 26 0 29 -26 67 -63 93 -29 21 -40 21 -359 22 -181 1
-331 0 -332 -1z"/>
<path d="M7196 3833 c-1 -1 -238 -5 -526 -8 -289 -3 -781 -9 -1095 -13 -313
-4 -678 -7 -810 -8 -379 -1 -543 -7 -615 -20 -67 -13 -415 -13 -545 0 -139 14
-199 15 -224 2 -21 -11 -65 -12 -215 -5 -120 5 -195 5 -207 -2 -11 -6 -194 -9
-471 -9 -566 1 -568 1 -568 -77 0 -30 5 -45 15 -49 8 -4 15 -15 15 -25 0 -10
5 -19 10 -19 15 0 13 -100 -3 -106 -8 -3 -11 -18 -9 -45 4 -33 1 -41 -15 -45
-15 -4 -18 -13 -15 -43 2 -21 -1 -42 -7 -45 -14 -9 -15 -73 -1 -81 6 -3 10
-15 10 -26 0 -16 7 -19 43 -19 23 0 56 -7 72 -16 27 -15 111 -17 905 -15 481
2 938 4 1015 6 444 11 579 16 587 21 5 3 53 5 106 3 99 -3 306 5 601 21 90 5
254 9 365 10 110 0 266 1 346 2 80 1 226 1 325 0 99 -1 239 3 310 9 86 8 267
9 540 5 643 -9 777 5 808 87 3 9 12 17 19 17 10 0 14 41 16 174 3 167 2 174
-18 179 -14 3 -20 13 -20 31 0 27 -40 80 -75 99 -16 8 -660 18 -669 10z"/>
<path d="M4155 2369 c-49 -4 -270 -10 -490 -13 -384 -5 -607 -10 -965 -22
-247 -9 -356 -8 -445 3 -60 8 -94 7 -135 -2 -30 -7 -80 -18 -111 -24 -81 -17
-95 -29 -80 -72 8 -23 8 -35 1 -37 -15 -5 -12 -22 5 -22 20 0 20 -59 0 -66
-15 -6 -22 -44 -7 -44 4 0 6 -36 4 -81 -4 -95 17 -152 71 -193 l34 -26 451 -1
c248 0 455 2 460 5 5 3 132 8 283 11 151 4 297 8 324 10 28 1 223 6 435 10
407 7 426 10 451 56 14 27 5 72 -27 139 -24 50 -25 61 -20 154 6 119 15 179
28 187 15 10 -48 27 -117 32 -33 2 -100 0 -150 -4z"/>
</g>
</svg>
