<?xml version="1.0" encoding="UTF-8" standalone="no"?>
<!DOCTYPE svg PUBLIC "-//W3C//DTD SVG 1.1//EN" "http://www.w3.org/Graphics/SVG/1.1/DTD/svg11.dtd">
<svg width="100%" height="100%" viewBox="0 0 963 1280" version="1.1" xmlns="http://www.w3.org/2000/svg" xmlns:xlink="http://www.w3.org/1999/xlink" xml:space="preserve" xmlns:serif="http://www.serif.com/" style="fill-rule:evenodd;clip-rule:evenodd;stroke-linejoin:round;stroke-miterlimit:2;">
    <g transform="matrix(1.09242,0,0,1.09242,474.865,645.751)">
        <g id="Absus4-Db" transform="matrix(1,0,0,1,-338.5,-621)">
            <g transform="matrix(0.1,0,0,-0.1,0,1242)">
                <path d="M4454,11869C4439,11844 4369,11559 4355,11465C4347,11410 4333,11318 4324,11260C4296,11066 4302,11003 4345,11046C4358,11059 4364,11060 4369,11051C4374,11044 4380,11069 4384,11107C4402,11304 4445,11603 4456,11622C4459,11627 4464,11643 4466,11658C4469,11673 4477,11703 4486,11725C4494,11747 4504,11787 4509,11813C4516,11854 4515,11862 4499,11870C4476,11883 4463,11883 4454,11869Z" style="fill-rule:nonzero;"/>
                <path d="M3752,11818C3747,11811 3739,11785 3736,11760C3728,11702 3706,11584 3686,11495C3663,11392 3665,11344 3693,11325C3710,11314 3724,11313 3748,11319C3766,11325 3811,11332 3849,11335L3917,11341L3924,11309C3927,11292 3930,11234 3930,11180C3930,11068 3941,11047 3984,11075C4004,11089 4010,11102 4015,11155C4019,11190 4020,11246 4018,11280L4014,11342L4050,11337C4083,11333 4089,11336 4104,11362C4126,11399 4114,11416 4057,11427L4016,11435L4018,11480C4023,11549 4008,11578 3964,11586C3918,11595 3913,11586 3911,11497C3910,11458 3908,11425 3906,11423C3905,11421 3873,11418 3836,11415L3769,11411L3775,11478C3778,11515 3785,11563 3791,11585C3796,11607 3804,11666 3809,11715C3816,11792 3815,11807 3802,11818C3793,11824 3781,11830 3774,11830C3768,11830 3758,11824 3752,11818Z" style="fill-rule:nonzero;"/>
                <path d="M1634,11783C1613,11733 1570,11606 1565,11577C1562,11565 1558,11542 1554,11525C1546,11482 1476,11278 1441,11192C1411,11121 1411,11117 1428,11094C1438,11080 1451,11073 1460,11077C1468,11080 1483,11083 1492,11084C1501,11084 1507,11087 1504,11091C1502,11095 1509,11122 1519,11151C1561,11274 1559,11270 1598,11271C1619,11272 1644,11274 1655,11275C1666,11276 1706,11280 1744,11285C1782,11289 1819,11294 1826,11297C1839,11302 1884,11216 1916,11125C1924,11104 1938,11078 1947,11068C1964,11049 2000,11043 2000,11060C2000,11066 1993,11070 1984,11070C1976,11070 1972,11075 1975,11080C1979,11086 1986,11088 1991,11085C2005,11076 2002,11132 1986,11177C1979,11198 1956,11251 1936,11293C1916,11336 1900,11375 1900,11380C1900,11386 1896,11390 1890,11390C1885,11390 1880,11394 1880,11400C1880,11405 1851,11472 1816,11548C1781,11625 1749,11698 1745,11711C1741,11724 1729,11754 1719,11778C1704,11811 1694,11820 1675,11820C1656,11820 1647,11811 1634,11783ZM1778,11433L1800,11391L1752,11385C1726,11382 1681,11376 1652,11371L1599,11363L1605,11389C1608,11403 1625,11460 1642,11515C1659,11570 1675,11622 1677,11630C1679,11638 1698,11607 1719,11560C1740,11513 1767,11456 1778,11433Z" style="fill-rule:nonzero;"/>
                <path d="M2066,11784C2047,11766 2047,11756 2059,11675C2069,11614 2075,11552 2085,11425C2088,11387 2095,11305 2101,11243C2109,11154 2108,11127 2098,11110C2077,11076 2117,11050 2187,11050C2275,11050 2319,11068 2377,11127C2470,11221 2491,11355 2425,11425C2396,11456 2387,11460 2340,11460C2300,11460 2275,11453 2234,11430C2205,11413 2179,11394 2177,11387C2168,11362 2162,11388 2156,11480C2151,11560 2140,11637 2125,11710C2123,11718 2121,11737 2121,11752C2120,11788 2088,11806 2066,11784ZM2378,11378C2409,11347 2372,11236 2313,11184C2280,11154 2206,11131 2192,11145C2189,11148 2191,11187 2198,11232C2213,11332 2235,11362 2315,11381C2359,11391 2365,11391 2378,11378Z" style="fill-rule:nonzero;"/>
                <path d="M4810,11699C4791,11694 4763,11693 4748,11696C4724,11701 4719,11697 4706,11666C4694,11636 4692,11590 4697,11398C4700,11270 4702,11145 4702,11121C4700,11063 4717,11048 4772,11056C4843,11067 4971,11131 5008,11176C5061,11238 5130,11389 5130,11441C5130,11505 5090,11581 5021,11650C4961,11710 4961,11710 4903,11709C4871,11708 4829,11704 4810,11699ZM4954,11595C5014,11557 5030,11526 5030,11451C5030,11409 4999,11329 4958,11265C4951,11255 4935,11228 4922,11207C4900,11170 4898,11169 4847,11172L4795,11175L4795,11393C4795,11635 4794,11630 4862,11630C4888,11630 4917,11619 4954,11595Z" style="fill-rule:nonzero;"/>
                <path d="M5192,11698C5173,11673 5167,11519 5172,11230C5175,11118 5177,11105 5193,11106C5213,11108 5213,11105 5201,11081C5183,11048 5204,11035 5272,11036C5395,11039 5467,11071 5504,11140L5531,11189L5494,11264C5474,11306 5451,11345 5443,11352C5423,11369 5335,11365 5306,11347C5283,11331 5282,11332 5277,11363C5274,11381 5268,11456 5265,11530C5258,11666 5246,11710 5216,11710C5209,11710 5198,11704 5192,11698ZM5399,11273C5424,11252 5441,11190 5428,11167C5420,11152 5334,11120 5303,11120C5294,11120 5290,11138 5290,11188L5290,11255L5328,11272C5376,11293 5374,11293 5399,11273Z" style="fill-rule:nonzero;"/>
                <path d="M774,11623C753,11585 721,11531 701,11502C670,11454 665,11451 656,11468C626,11520 516,11660 505,11660C488,11660 460,11632 460,11615C460,11608 488,11565 523,11520C557,11475 596,11422 609,11404L633,11370L582,11288C524,11192 450,11051 450,11034C450,11015 478,10998 498,11004C508,11008 529,11037 545,11073C575,11137 671,11299 680,11300C683,11300 694,11285 705,11268C715,11250 743,11208 767,11175C790,11142 820,11100 832,11083C852,11054 881,11034 865,11060C862,11066 866,11067 874,11064C883,11061 890,11063 890,11069C890,11075 897,11080 905,11080C926,11080 924,11098 898,11131C885,11146 855,11189 830,11225C805,11261 770,11312 751,11337C720,11381 718,11386 729,11417C736,11436 753,11463 767,11478C781,11493 809,11539 831,11581C867,11654 868,11658 851,11674C841,11683 829,11690 823,11690C817,11690 795,11660 774,11623Z" style="fill-rule:nonzero;"/>
                <path d="M2611,11454C2570,11435 2553,11419 2540,11385C2529,11355 2531,11350 2584,11292C2601,11273 2625,11254 2637,11250C2648,11245 2671,11225 2686,11205C2708,11176 2711,11165 2703,11152C2689,11130 2626,11132 2601,11155C2590,11164 2573,11170 2563,11168C2538,11163 2534,11122 2557,11102C2606,11059 2649,11050 2708,11071C2741,11082 2790,11138 2790,11165C2790,11202 2747,11261 2692,11301C2661,11324 2633,11345 2631,11347C2623,11353 2649,11374 2670,11377C2681,11379 2693,11373 2696,11365C2703,11348 2733,11345 2760,11360C2785,11374 2775,11404 2734,11435C2692,11467 2654,11473 2611,11454Z" style="fill-rule:nonzero;"/>
                <path d="M3404,11442C3367,11438 3347,11419 3326,11368C3312,11336 3312,11331 3325,11320C3333,11313 3340,11302 3340,11296C3340,11282 3386,11239 3398,11242C3414,11245 3480,11209 3494,11188C3503,11176 3510,11151 3510,11134C3510,11106 3506,11101 3481,11095C3448,11088 3410,11104 3366,11144C3336,11173 3317,11174 3312,11146C3306,11116 3319,11080 3348,11051C3369,11028 3387,11021 3435,11016C3489,11009 3499,11011 3525,11032C3577,11071 3581,11079 3586,11131C3589,11174 3586,11188 3561,11223C3524,11276 3492,11306 3458,11319C3423,11332 3421,11360 3454,11360C3472,11360 3479,11354 3482,11338C3486,11308 3521,11303 3537,11329C3546,11344 3547,11357 3539,11379C3522,11427 3475,11449 3404,11442Z" style="fill-rule:nonzero;"/>
                <path d="M3099,11418C3098,11411 3096,11394 3095,11380C3092,11337 3027,11236 2997,11226C2956,11211 2945,11229 2944,11320C2942,11406 2938,11420 2911,11420C2860,11420 2845,11311 2881,11199C2902,11131 2929,11100 2964,11100C2987,11100 3074,11142 3103,11168C3119,11182 3120,11180 3120,11137C3120,11112 3125,11088 3132,11084C3152,11071 3183,11071 3208,11082C3241,11099 3239,11170 3198,11365L3185,11425L3143,11428C3113,11430 3100,11427 3099,11418Z" style="fill-rule:nonzero;"/>
                <path d="M1427,10724C1423,10720 1367,10717 1303,10716C1238,10715 1179,10711 1173,10707C1166,10702 1156,10701 1151,10704C1123,10722 1109,10614 1123,10485C1135,10381 1140,10344 1145,10320C1153,10287 1160,10226 1163,10167C1164,10135 1170,10118 1180,10115C1194,10111 1399,10116 1467,10122C1485,10124 1505,10131 1511,10137C1529,10155 1534,10222 1518,10231C1512,10235 1449,10237 1380,10235C1290,10233 1253,10236 1252,10244C1250,10258 1243,10298 1236,10327C1231,10351 1251,10362 1305,10365C1370,10368 1379,10377 1377,10431C1375,10488 1369,10492 1285,10489C1255,10488 1228,10489 1224,10492C1221,10495 1217,10512 1215,10529C1209,10573 1226,10578 1357,10577C1482,10575 1475,10571 1486,10653C1490,10684 1487,10694 1468,10710C1443,10731 1437,10733 1427,10724Z" style="fill-rule:nonzero;"/>
                <path d="M2130,10640C2110,10618 2093,10595 2093,10588C2093,10577 2035,10454 2001,10390C1991,10371 1950,10292 1937,10265C1931,10254 1923,10238 1919,10230C1915,10222 1901,10196 1890,10173L1868,10131L1899,10098C1928,10067 1930,10066 1949,10084C1959,10093 1974,10122 1982,10147C1989,10171 1999,10195 2005,10200C2015,10208 2069,10215 2199,10224C2245,10227 2257,10224 2272,10206C2281,10195 2289,10177 2290,10168C2290,10159 2294,10149 2300,10145C2305,10142 2307,10134 2305,10127C2302,10120 2314,10101 2330,10083C2357,10054 2363,10052 2388,10061C2450,10085 2458,10111 2422,10170C2397,10211 2398,10207 2396,10241C2395,10256 2383,10285 2369,10306C2334,10361 2327,10375 2280,10470C2257,10517 2230,10564 2220,10575C2210,10586 2203,10606 2204,10620C2207,10650 2194,10680 2178,10680C2172,10680 2150,10662 2130,10640ZM2179,10426C2185,10418 2190,10408 2189,10404C2188,10399 2192,10382 2198,10367C2212,10334 2213,10320 2203,10319C2132,10309 2065,10314 2086,10328C2092,10332 2109,10359 2124,10388C2152,10443 2160,10449 2179,10426Z" style="fill-rule:nonzero;"/>
                <path d="M2908,10636L2862,10591L2866,10483C2872,10342 2876,10288 2884,10217C2891,10164 2890,10157 2870,10143L2849,10128L2871,10104C2883,10091 2903,10080 2915,10080C2927,10080 2940,10077 2944,10073C2953,10064 3050,10063 3050,10073C3050,10077 3068,10080 3090,10080C3114,10080 3130,10085 3130,10092C3130,10098 3133,10101 3136,10097C3139,10094 3166,10102 3196,10115C3226,10128 3250,10137 3250,10134C3250,10131 3269,10147 3293,10169C3316,10191 3338,10210 3342,10210C3346,10210 3361,10230 3375,10254C3396,10290 3400,10309 3398,10350C3396,10378 3389,10406 3383,10412C3376,10418 3370,10429 3370,10437C3370,10460 3246,10590 3224,10590C3218,10590 3207,10597 3200,10605C3193,10613 3179,10620 3169,10620C3158,10620 3150,10624 3150,10629C3150,10635 3129,10642 3103,10645C3076,10648 3046,10655 3034,10660C3023,10664 3006,10664 2997,10658C2984,10651 2978,10653 2974,10664C2965,10687 2959,10685 2908,10636ZM3121,10514C3217,10491 3255,10449 3264,10355C3265,10344 3262,10329 3257,10323C3252,10316 3251,10310 3256,10310C3260,10310 3251,10297 3235,10280C3219,10264 3201,10250 3194,10250C3187,10250 3167,10238 3149,10223C3131,10207 3120,10202 3125,10210C3129,10218 3123,10216 3109,10204C3096,10193 3074,10185 3060,10186C3046,10187 3029,10183 3022,10177C3003,10162 2985,10184 2984,10223C2983,10241 2979,10298 2975,10350C2967,10445 2967,10463 2969,10511C2970,10535 2973,10536 3013,10533C3036,10532 3085,10523 3121,10514Z" style="fill-rule:nonzero;"/>
                <path d="M3890,10650C3882,10645 3873,10643 3869,10645C3856,10654 3783,10611 3740,10568C3657,10488 3645,10469 3646,10420C3647,10395 3649,10373 3650,10370C3651,10367 3653,10350 3656,10331C3658,10312 3665,10291 3672,10283C3678,10276 3680,10267 3677,10263C3673,10260 3682,10244 3695,10228C3709,10212 3720,10193 3720,10186C3720,10171 3762,10130 3777,10130C3782,10130 3800,10119 3815,10106C3831,10092 3848,10084 3852,10086C3857,10089 3867,10086 3875,10080C3893,10065 3997,10069 4033,10087C4048,10094 4060,10097 4060,10094C4060,10090 4068,10095 4079,10104C4097,10120 4097,10119 4096,10073L4095,10025L4135,10024C4196,10022 4218,10036 4215,10074C4214,10091 4206,10122 4197,10142C4189,10162 4184,10181 4187,10183C4189,10186 4193,10210 4194,10237C4198,10300 4175,10357 4138,10376C4109,10391 4024,10393 4005,10380C4000,10376 3988,10372 3980,10372C3926,10370 3873,10363 3863,10357C3858,10353 3855,10338 3857,10323C3860,10307 3862,10287 3863,10278C3864,10264 3874,10261 3927,10263C3962,10264 3990,10267 3990,10271C3990,10274 4004,10276 4020,10276C4041,10276 4050,10271 4050,10260C4050,10241 3977,10167 3967,10176C3963,10180 3953,10177 3943,10169C3932,10160 3929,10159 3934,10168C3938,10174 3937,10180 3931,10180C3926,10180 3918,10175 3915,10170C3912,10164 3895,10163 3877,10166C3859,10169 3839,10173 3832,10173C3817,10173 3778,10223 3764,10260C3750,10297 3754,10400 3772,10440C3781,10459 3803,10490 3823,10508C3853,10537 3867,10542 3916,10546C3972,10550 3976,10549 4015,10511C4053,10474 4068,10466 4098,10469C4121,10471 4112,10536 4083,10571C4027,10638 4018,10644 3969,10646C3944,10646 3918,10650 3913,10653C3908,10656 3898,10655 3890,10650Z" style="fill-rule:nonzero;"/>
                <path d="M4526,10648C4540,10627 4548,10566 4554,10444C4555,10411 4560,10379 4564,10372C4568,10365 4567,10360 4562,10360C4552,10360 4553,10330 4564,10312C4568,10306 4568,10300 4563,10300C4559,10300 4555,10264 4555,10221C4555,10177 4558,10144 4563,10147C4567,10149 4570,10138 4570,10123C4570,10096 4572,10094 4612,10095C4651,10095 4655,10097 4661,10127C4664,10145 4667,10189 4666,10224C4665,10285 4666,10289 4690,10296C4704,10300 4740,10303 4770,10304C4800,10305 4830,10309 4836,10313C4860,10328 4868,10294 4864,10195C4860,10079 4863,10065 4893,10055C4939,10040 4948,10044 4970,10081C4987,10113 4989,10123 4979,10141C4972,10155 4967,10233 4966,10359C4964,10567 4961,10582 4913,10628C4895,10644 4885,10648 4876,10640C4862,10630 4861,10616 4857,10485C4855,10416 4853,10405 4838,10408C4829,10409 4819,10406 4815,10400C4812,10395 4803,10390 4797,10390C4790,10390 4791,10394 4800,10400C4809,10406 4810,10410 4803,10410C4797,10410 4789,10406 4786,10402C4779,10390 4666,10400 4657,10413C4653,10420 4651,10471 4654,10527L4658,10629L4627,10641C4609,10647 4578,10654 4557,10657C4527,10660 4520,10658 4526,10648Z" style="fill-rule:nonzero;"/>
                <path d="M5728,10640C5713,10636 5644,10631 5573,10630C5383,10627 5395,10630 5397,10595C5399,10579 5401,10522 5404,10470C5408,10380 5417,10238 5425,10158C5427,10138 5432,10116 5436,10109C5441,10101 5439,10100 5431,10105C5421,10111 5420,10108 5429,10093C5435,10082 5436,10070 5433,10066C5430,10063 5456,10060 5491,10059C5526,10058 5589,10057 5630,10056C5671,10056 5719,10060 5736,10067C5753,10074 5770,10077 5773,10074C5781,10065 5830,10101 5830,10116C5830,10123 5812,10138 5790,10149C5759,10164 5733,10167 5671,10165C5627,10163 5586,10159 5581,10155C5575,10152 5570,10154 5570,10161C5570,10171 5567,10171 5558,10162C5543,10147 5506,10166 5514,10185C5517,10193 5515,10202 5510,10205C5497,10213 5498,10231 5510,10250C5516,10261 5538,10265 5582,10266C5696,10268 5688,10265 5680,10310C5676,10332 5674,10350 5677,10350C5679,10350 5676,10359 5670,10369C5661,10386 5651,10388 5580,10384L5500,10379L5500,10412C5500,10430 5496,10459 5491,10477C5483,10504 5485,10509 5501,10513C5511,10516 5520,10514 5520,10508C5520,10503 5526,10502 5532,10506C5549,10516 5580,10519 5580,10510C5580,10504 5716,10504 5752,10509C5775,10513 5789,10544 5784,10583C5778,10635 5763,10650 5728,10640Z" style="fill-rule:nonzero;"/>
                <path d="M4607,9934C4605,9932 4160,9920 3955,9916C3911,9915 3869,9911 3862,9906C3856,9902 3850,9902 3850,9907C3850,9915 3661,9914 3653,9906C3650,9903 3638,9905 3625,9910C3611,9915 3599,9915 3591,9907C3583,9899 3580,9899 3580,9909C3580,9919 3577,9920 3567,9911C3559,9905 3550,9903 3547,9906C3541,9912 3484,9912 3288,9906C3245,9905 3210,9908 3210,9913C3210,9918 3204,9918 3198,9912C3189,9905 2964,9903 2510,9906C1806,9910 1810,9910 1810,9919C1810,9927 1622,9925 1614,9917C1602,9905 1588,9909 1596,9923C1602,9933 1600,9933 1589,9923C1574,9908 1556,9905 1564,9918C1569,9927 1534,9927 1525,9919C1523,9916 1392,9915 1235,9917L950,9920L954,9808C957,9702 963,9654 974,9642C987,9630 1071,9623 1159,9627C1232,9630 1260,9628 1274,9617C1295,9602 1295,9601 1298,9175C1299,9109 1300,9046 1300,9035C1301,9024 1301,8981 1301,8940C1300,8899 1300,8859 1300,8853C1300,8832 1300,8812 1298,8683C1297,8615 1294,8560 1291,8560C1288,8560 1285,8510 1285,8450C1285,8389 1283,8340 1280,8340C1277,8340 1274,8313 1273,8279C1271,8201 1260,8189 1198,8191C1172,8193 1150,8196 1150,8200C1150,8203 1135,8207 1117,8208C1099,8209 1075,8212 1063,8214C1033,8220 1000,8210 1000,8195C1000,8188 995,8180 989,8178C968,8171 990,8135 1026,8118C1045,8108 1078,8100 1098,8100C1119,8100 1142,8094 1149,8088C1157,8080 1160,8080 1157,8086C1152,8094 1166,8097 1203,8096C1262,8095 1279,8087 1279,8062C1279,8053 1282,7883 1285,7685C1297,7073 1295,6449 1283,6442C1277,6438 1239,6436 1198,6437C1158,6438 1100,6440 1069,6441C996,6443 943,6426 945,6401C947,6375 970,6348 986,6354C993,6357 1001,6356 1004,6352C1008,6346 1195,6344 1225,6350C1280,6361 1307,6326 1303,6253C1302,6221 1297,6184 1294,6170C1290,6156 1286,6013 1284,5851C1283,5670 1278,5554 1272,5548C1265,5541 1265,5529 1270,5514C1275,5501 1276,5489 1272,5486C1264,5481 1265,5210 1275,4930C1282,4732 1282,4698 1274,4691C1271,4688 1220,4685 1161,4684C1102,4684 1049,4680 1043,4677C1038,4674 1019,4673 1002,4675C977,4678 970,4675 970,4662C970,4637 1013,4555 1025,4557C1082,4566 1099,4569 1121,4578C1136,4584 1150,4586 1153,4583C1156,4581 1166,4583 1176,4588C1187,4594 1203,4595 1217,4589C1230,4584 1256,4579 1275,4577C1295,4574 1313,4571 1315,4568C1321,4562 1325,4422 1319,4416C1315,4412 1315,4383 1323,4210C1325,4180 1322,4149 1317,4143C1312,4136 1311,4130 1316,4130C1321,4130 1325,4067 1325,3989C1325,3912 1328,3846 1333,3843C1337,3841 1337,3833 1333,3827C1324,3812 1323,3600 1332,3600C1336,3600 1335,3588 1332,3573C1328,3557 1325,3428 1325,3284L1326,3023L1185,3025C1033,3026 980,3015 980,2982C980,2971 989,2955 1001,2945C1018,2928 1039,2926 1164,2925C1267,2925 1311,2921 1323,2912C1336,2901 1338,2883 1335,2817C1333,2772 1328,2717 1324,2695C1320,2673 1316,2538 1313,2395C1303,1673 1303,1560 1312,1560C1317,1560 1318,1555 1314,1548C1310,1541 1307,1520 1307,1501C1308,1481 1309,1431 1310,1390C1311,1349 1311,1308 1311,1300C1310,1288 1294,1284 1238,1283C1198,1282 1145,1279 1120,1276C1095,1273 1058,1271 1036,1271C1004,1270 999,1267 1005,1253C1009,1243 1012,1228 1013,1220C1013,1212 1019,1197 1028,1188C1036,1178 1040,1164 1037,1155C1029,1137 1025,1137 1091,1157C1152,1175 1167,1178 1230,1179C1309,1181 1310,1181 1311,1152C1312,1137 1314,1114 1316,1100C1319,1076 1328,892 1335,690C1337,638 1339,591 1339,587C1340,575 1380,589 1411,612C1436,631 1437,636 1436,708C1435,751 1438,791 1443,797C1448,804 1449,810 1444,810C1433,810 1434,872 1444,888C1448,895 1448,900 1443,900C1436,900 1436,958 1443,1127C1445,1177 1450,1186 1475,1180C1484,1178 1688,1180 1887,1184C1926,1184 1956,1188 1953,1193C1946,1205 1965,1201 1978,1188C1987,1179 1990,1179 1990,1190C1990,1201 1993,1201 2002,1192C2010,1184 2019,1184 2033,1191C2048,1199 2051,1199 2045,1190C2039,1181 2042,1180 2054,1187C2063,1192 2083,1195 2098,1192C2123,1189 2125,1186 2122,1142C2120,1116 2119,1068 2120,1035C2123,909 2122,732 2117,673C2112,611 2115,604 2155,594C2161,593 2172,589 2181,585C2191,582 2200,582 2203,587C2208,594 2224,841 2222,875C2215,1007 2214,1191 2219,1194C2223,1197 2232,1195 2240,1190C2248,1185 2262,1186 2273,1192C2288,1199 2291,1199 2285,1190C2279,1181 2282,1181 2297,1189C2308,1195 2320,1197 2322,1194C2325,1191 2428,1189 2551,1188C2694,1187 2780,1183 2789,1176C2801,1167 2802,1168 2796,1178C2789,1189 2798,1191 2836,1188C2863,1186 2891,1180 2899,1176C2909,1170 2911,1171 2906,1179C2900,1187 2914,1190 2954,1189C3012,1187 3038,1171 3024,1148C3019,1141 3015,1050 3014,945C3013,841 3009,745 3007,733C3001,708 3019,663 3038,655C3053,650 3080,659 3080,670C3080,675 3088,686 3097,696C3107,705 3115,718 3116,724C3130,796 3133,822 3131,860C3128,980 3130,1164 3135,1181C3139,1194 3146,1198 3153,1193C3163,1186 3425,1186 3825,1193L3925,1195L3924,1165C3924,1148 3920,1106 3915,1070C3911,1034 3907,937 3906,853C3904,723 3902,698 3886,681C3869,662 3869,661 3899,632C3929,604 3943,601 3988,615C4008,622 4010,629 4011,694C4013,1007 4017,1181 4023,1186C4027,1190 4125,1192 4242,1190C4449,1188 4621,1189 4708,1193C4731,1194 4750,1193 4751,1190C4751,1187 4753,1169 4755,1150C4756,1131 4761,1088 4765,1055C4776,968 4777,891 4767,845C4748,752 4748,720 4765,682C4782,648 4797,631 4811,630C4814,630 4825,649 4836,673C4853,711 4855,736 4853,951L4851,1186L5188,1185C5373,1185 5530,1181 5537,1177C5544,1173 5548,1150 5546,1122C5545,1096 5548,1069 5553,1063C5559,1054 5558,1050 5551,1050C5544,1050 5542,1045 5545,1040C5560,1015 5569,797 5558,725C5543,630 5543,620 5557,608C5565,601 5577,595 5584,594C5590,593 5602,589 5610,586C5645,572 5652,594 5650,706C5645,900 5648,1160 5654,1176C5657,1185 5665,1188 5672,1184C5679,1180 5760,1176 5853,1176L6022,1175L6017,1229C6014,1259 6005,1289 5997,1297C5990,1305 5957,1313 5924,1316C5807,1326 5785,1328 5785,1330C5785,1331 5763,1332 5735,1334C5663,1337 5661,1340 5667,1418C5674,1491 5674,1620 5668,1890C5666,1986 5668,2088 5673,2115C5678,2143 5683,2340 5684,2553C5686,2868 5689,2944 5700,2950C5708,2955 5719,2956 5724,2952C5734,2947 5753,2945 5875,2937C5926,2934 5980,2951 5980,2971C5980,2977 5973,2997 5965,3015C5951,3043 5945,3047 5918,3044C5853,3036 5692,3033 5683,3039C5678,3042 5674,3095 5673,3155C5673,3216 5672,3330 5670,3410C5668,3596 5666,3583 5691,3575C5719,3566 5798,3597 5830,3630C5901,3703 5906,3812 5842,3920C5821,3955 5799,3985 5792,3987C5785,3990 5766,4005 5750,4021C5734,4037 5712,4050 5701,4050C5690,4050 5678,4055 5675,4060C5667,4072 5665,4194 5672,4206C5675,4211 5679,4276 5680,4350C5681,4424 5683,4508 5684,4535L5685,4585L5820,4586C6004,4587 5991,4584 5987,4623C5980,4682 5958,4715 5922,4718C5904,4720 5892,4724 5894,4728C5896,4732 5846,4735 5783,4735C5720,4735 5664,4738 5658,4741C5651,4745 5647,4828 5645,4966C5644,5087 5640,5208 5636,5235C5628,5295 5628,5447 5635,5510C5638,5535 5643,5661 5646,5790C5648,5919 5652,6053 5653,6088C5655,6122 5654,6150 5651,6150C5648,6150 5646,6183 5647,6222C5649,6262 5650,6312 5651,6334L5651,6372L5723,6365C5763,6362 5811,6357 5830,6356C5872,6352 5924,6366 5939,6384C5948,6395 5946,6406 5933,6434L5915,6470L5830,6464C5783,6461 5724,6457 5698,6455C5671,6453 5647,6456 5644,6462C5631,6482 5626,7139 5635,7545C5638,7710 5642,7904 5644,7977C5645,8050 5648,8111 5651,8114C5658,8121 5723,8121 5805,8115C5917,8106 5945,8108 5984,8124C6004,8132 6020,8146 6020,8154C6020,8171 5964,8204 5950,8195C5945,8192 5931,8199 5920,8210C5907,8223 5894,8228 5887,8223C5873,8213 5653,8214 5643,8224C5639,8227 5636,8322 5636,8433C5635,8628 5636,8636 5655,8638C5666,8638 5682,8632 5691,8624C5704,8612 5713,8611 5727,8619C5737,8625 5764,8634 5787,8640C5814,8647 5831,8657 5835,8670C5839,8681 5845,8690 5850,8690C5859,8690 5886,8777 5894,8832C5899,8873 5883,8935 5851,8996C5816,9063 5764,9099 5692,9106C5667,9108 5646,9111 5644,9113C5639,9118 5635,9292 5640,9295C5645,9298 5645,9490 5640,9515C5635,9537 5642,9634 5647,9622C5651,9612 5655,9612 5666,9621C5677,9630 5680,9630 5680,9620C5680,9611 5683,9610 5694,9619C5713,9635 5987,9635 6006,9619C6017,9610 6020,9610 6020,9620C6020,9630 6023,9630 6035,9620C6048,9610 6054,9610 6069,9624C6084,9638 6086,9655 6085,9743C6084,9799 6079,9854 6073,9865C6067,9876 6065,9890 6067,9897C6069,9903 6067,9911 6062,9914C6053,9919 5920,9921 5540,9920C5329,9919 4897,9926 4677,9933C4639,9934 4608,9935 4607,9934ZM2986,9572C2987,9544 2990,9514 2993,9506C2997,9497 2996,9488 2991,9486C2987,9483 2985,9455 2987,9423C2988,9391 2991,9300 2993,9222C2997,9061 2992,9047 2935,9051C2914,9053 2894,9047 2875,9032C2860,9020 2839,9010 2829,9010C2775,9010 2743,8914 2764,8815C2778,8749 2795,8710 2811,8710C2817,8710 2818,8705 2815,8700C2811,8694 2822,8685 2839,8679C2856,8673 2870,8662 2870,8655C2870,8648 2880,8642 2893,8642C2927,8641 2974,8628 2981,8617C2985,8612 2986,8569 2984,8521C2981,8474 2978,8379 2977,8310L2974,8185L2186,8185L2182,8360C2176,8656 2177,8935 2186,9155C2190,9271 2194,9419 2194,9485L2195,9605L2310,9606C2601,9610 2932,9618 2936,9622C2938,9625 2950,9626 2962,9625C2983,9624 2985,9618 2986,9572ZM3608,9616C3615,9612 3620,9612 3620,9617C3620,9621 3650,9624 3687,9623C3725,9623 3783,9621 3818,9621C3862,9620 3879,9617 3874,9609C3860,9586 3857,9462 3866,9325C3876,9174 3876,9094 3867,9073C3861,9061 3854,9052 3851,9054C3841,9060 3503,9072 3288,9073L3090,9075L3090,9100C3088,9171 3080,9428 3075,9517C3073,9577 3075,9620 3080,9622C3100,9628 3597,9623 3608,9616ZM4422,9616L4715,9613L4720,9555C4727,9475 4724,9107 4715,9081C4709,9061 4702,9060 4582,9058C4512,9058 4448,9058 4440,9059C4425,9060 4247,9059 4060,9056L3965,9055L3968,9225C3969,9319 3972,9445 3973,9505L3975,9615L4039,9617C4074,9619 4105,9622 4108,9625C4111,9627 4117,9627 4121,9624C4126,9621 4262,9617 4422,9616ZM4960,9620C4960,9617 5082,9615 5232,9615C5411,9615 5508,9611 5518,9604C5533,9593 5536,9501 5530,9208C5528,9095 5527,9090 5506,9089C5495,9088 5445,9086 5395,9085C5092,9078 4852,9068 4836,9063C4818,9058 4818,9066 4825,9315C4832,9586 4834,9610 4849,9619C4860,9626 4960,9627 4960,9620ZM2040,9607L2095,9605L2093,9530C2091,9489 2089,9236 2087,8967C2085,8699 2080,8477 2077,8474C2074,8471 2075,8458 2079,8446C2084,8430 2086,8235 2081,8199C2080,8196 2054,8193 2023,8192C1939,8190 1429,8191 1400,8193C1372,8195 1373,8173 1388,8401C1392,8459 1394,8599 1393,8711C1387,9205 1390,9570 1400,9617C1400,9619 1938,9610 2040,9607ZM3630,8626C3656,8622 3716,8615 3816,8605L3876,8598L3879,8547C3886,8396 3878,8205 3863,8190C3861,8187 3752,8184 3622,8183C3491,8182 3366,8179 3343,8177C3320,8176 3304,8178 3306,8182C3312,8192 3312,8192 3272,8181C3250,8174 3240,8175 3240,8183C3240,8191 3237,8191 3229,8183C3222,8176 3209,8175 3195,8180C3181,8185 3168,8184 3161,8177C3155,8171 3150,8170 3150,8176C3150,8181 3132,8185 3111,8183L3072,8181L3075,8363C3077,8463 3079,8566 3079,8591L3080,8637L3343,8634C3487,8632 3616,8629 3630,8626ZM5478,8620L5530,8620L5524,8418C5521,8306 5514,8211 5509,8206C5503,8200 5500,8200 5500,8206C5500,8215 5468,8217 5450,8210C5447,8208 5393,8209 5330,8210C5139,8214 5010,8214 4902,8208L4798,8202L4803,8403C4806,8514 4809,8605 4809,8606C4810,8606 4865,8607 4933,8607C5052,8606 5311,8617 5316,8623C5318,8624 5343,8624 5372,8623C5401,8622 5449,8621 5478,8620ZM4420,8592L4715,8595L4712,8544C4711,8515 4708,8428 4707,8349C4705,8229 4702,8205 4690,8204C4682,8203 4671,8201 4665,8200C4660,8198 4505,8197 4323,8196C3997,8195 3990,8195 3989,8215C3989,8226 3987,8246 3985,8260C3983,8274 3979,8357 3976,8445L3970,8606L4047,8598C4090,8593 4258,8591 4420,8592ZM5135,8119C5141,8116 5227,8114 5328,8114C5428,8115 5510,8113 5511,8110C5511,8107 5513,7954 5515,7770C5518,7586 5522,7361 5525,7270C5529,7179 5532,6960 5533,6783C5535,6502 5533,6460 5520,6460C5488,6459 5311,6449 5235,6445C5130,6438 4852,6438 4841,6444C4837,6447 4832,6511 4831,6587C4829,6663 4827,6743 4825,6765C4804,7019 4783,8095 4800,8105C4804,8108 4856,8112 4915,8114C4973,8116 5022,8119 5024,8121C5030,8127 5124,8125 5135,8119ZM4314,8108C4325,8112 4418,8115 4520,8115L4705,8115L4707,7820C4708,7658 4709,7517 4709,7508C4710,7498 4710,7478 4710,7463C4710,7371 4720,7161 4725,7140C4728,7126 4733,6987 4736,6830C4739,6673 4743,6523 4744,6497C4745,6471 4744,6447 4741,6445C4738,6443 4683,6441 4620,6439C4557,6438 4497,6432 4486,6427C4474,6421 4470,6421 4474,6428C4482,6441 4440,6440 4423,6427C4414,6421 4410,6422 4410,6429C4410,6436 4406,6438 4400,6435C4392,6430 4156,6426 4049,6429L4013,6430L4012,6478C4012,6504 4009,6662 4006,6830C4003,6998 3998,7266 3995,7425C3993,7585 3988,7735 3985,7760C3976,7833 3972,8051 3979,8077C3985,8101 3987,8101 4123,8104C4198,8106 4263,8110 4267,8114C4271,8117 4278,8116 4283,8111C4288,8106 4302,8105 4314,8108ZM3877,8087C3881,8083 3885,7982 3887,7862C3899,6865 3905,6576 3914,6562C3917,6556 3917,6549 3912,6546C3907,6543 3905,6516 3907,6486L3910,6432L3514,6435C3297,6436 3117,6440 3114,6443C3105,6452 3101,6511 3095,6730C3092,6848 3087,7013 3084,7095C3076,7329 3074,8049 3082,8071C3087,8084 3094,8088 3102,8084C3120,8073 3150,8072 3150,8082C3150,8087 3155,8088 3161,8084C3176,8075 3596,8084 3607,8093C3613,8099 3871,8092 3877,8087ZM1805,8079C1807,8076 1869,8075 1942,8076C2076,8078 2103,8075 2079,8059C2067,8051 2067,8049 2079,8041C2088,8035 2089,8030 2081,8026C2074,8022 2074,8011 2080,7995C2085,7982 2086,7969 2082,7966C2077,7963 2075,7944 2077,7923C2086,7782 2089,7705 2091,7555C2092,7462 2091,7381 2090,7375C2089,7370 2089,7361 2090,7355C2092,7342 2093,7118 2090,7105C2084,7074 2086,6970 2093,6970C2098,6970 2098,6965 2094,6959C2090,6952 2087,6830 2086,6686L2085,6425L2030,6428C2000,6430 1846,6432 1689,6433L1403,6435L1407,6460C1409,6481 1413,6804 1410,6820C1410,6823 1408,6899 1405,6990C1403,7081 1398,7187 1395,7225C1376,7465 1370,8059 1386,8075C1397,8086 1794,8089 1805,8079ZM2968,7942C2973,7692 2979,7486 2985,7375C2988,7315 2992,7187 2994,7093C2997,6998 3001,6916 3005,6910C3008,6905 3006,6900 2999,6900C2992,6900 2991,6895 2997,6888C3001,6881 3005,6776 3005,6656L3004,6436L2864,6433C2557,6426 2284,6424 2246,6430L2205,6435L2205,6612C2205,6710 2203,6790 2200,6790C2197,6790 2194,6872 2194,6973C2193,7073 2190,7263 2187,7395C2181,7604 2179,7908 2183,8035L2184,8076L2536,8074C2730,8073 2904,8075 2922,8079C2940,8083 2957,8085 2960,8083C2963,8080 2966,8017 2968,7942ZM5531,6248C5531,6186 5533,6119 5535,6100C5541,6049 5542,5181 5536,5140C5534,5121 5526,5067 5520,5020C5503,4906 5502,4887 5513,4872C5518,4866 5520,4846 5516,4830C5513,4813 5514,4800 5519,4800C5525,4800 5526,4790 5521,4748C5520,4741 5488,4729 5455,4723C5444,4721 5390,4720 5335,4721C5219,4723 5111,4722 4948,4716L4830,4713L4829,4769C4827,4904 4829,5123 4835,5355C4844,5724 4846,6174 4839,6244C4836,6277 4837,6310 4841,6315C4845,6321 4906,6327 4982,6328C5055,6330 5135,6333 5160,6335C5185,6337 5273,6342 5355,6346C5438,6349 5507,6354 5509,6356C5525,6371 5530,6346 5531,6248ZM1520,6325C1545,6322 1571,6319 1578,6319C1645,6321 2072,6314 2091,6311C2095,6310 2098,6223 2098,6118C2099,6012 2100,5654 2102,5322C2104,4990 2102,4714 2098,4707C2094,4700 2027,4695 1908,4693C1807,4691 1686,4689 1637,4687C1589,4686 1550,4689 1550,4694C1550,4699 1544,4698 1538,4692C1531,4687 1516,4686 1505,4690C1494,4694 1477,4692 1467,4686C1452,4677 1445,4679 1432,4696C1418,4712 1415,4733 1417,4791C1421,4894 1420,5138 1415,5305C1409,5525 1404,6177 1408,6257C1411,6322 1414,6329 1433,6332C1445,6334 1460,6335 1465,6333C1471,6332 1495,6328 1520,6325ZM4757,6213C4764,6057 4763,5589 4755,5320C4751,5202 4748,5016 4747,4907L4745,4709L4675,4709C4590,4709 4207,4702 4200,4700C4181,4694 4013,4704 4006,4711C3984,4735 3984,5342 4006,5915C4014,6124 4014,6146 4006,6243L3999,6320L4037,6321C4058,6321 4116,6321 4165,6320C4355,6315 4729,6326 4739,6336C4749,6346 4752,6325 4757,6213ZM3901,6322C3912,6246 3915,5304 3905,5193C3901,5155 3898,5031 3897,4915L3895,4705L3848,4705C3821,4705 3800,4707 3800,4710C3800,4713 3763,4716 3718,4718C3673,4719 3634,4722 3632,4725C3629,4728 3621,4722 3614,4712C3601,4696 3601,4696 3600,4713C3600,4725 3596,4729 3588,4723C3571,4714 3120,4708 3119,4718C3114,4761 3110,5362 3112,5720C3113,5805 3112,5972 3109,6090L3105,6305L3400,6308C3649,6310 3745,6314 3883,6327C3892,6328 3900,6326 3901,6322ZM3016,6254C3015,6219 3012,6190 3009,6190C3006,6190 3005,6162 3007,6128C3009,6093 3012,6026 3013,5979C3015,5932 3020,5888 3024,5882C3028,5875 3027,5870 3023,5870C3018,5870 3016,5826 3018,5773C3023,5627 3022,5530 3015,5260C3012,5125 3009,5007 3009,4998C3009,4988 3004,4980 2998,4980C2991,4980 2991,4976 2999,4967C3005,4959 3008,4951 3005,4948C3003,4946 2998,4896 2996,4837C2994,4779 2989,4726 2985,4720C2982,4715 2967,4712 2952,4716C2912,4724 2660,4728 2655,4720C2652,4716 2633,4716 2611,4720C2586,4724 2567,4723 2561,4717C2553,4709 2550,4710 2550,4719C2550,4726 2546,4729 2542,4726C2537,4723 2494,4720 2444,4719C2395,4718 2351,4714 2345,4711C2340,4708 2317,4706 2295,4705C2273,4705 2249,4701 2243,4697C2228,4687 2228,4683 2225,4820C2222,4975 2210,5182 2204,5203C2201,5212 2204,5220 2211,5220C2219,5220 2221,5244 2216,5311C2212,5362 2207,5406 2205,5410C2198,5422 2198,5479 2205,5685C2213,5910 2215,6082 2210,6215L2207,6305L2573,6305C2774,6305 2941,6307 2943,6310C2946,6313 2964,6315 2982,6316L3016,6317L3016,6254ZM2097,4587C2104,4583 2109,4572 2109,4562C2110,4553 2112,4464 2114,4365C2116,4266 2120,4169 2124,4149C2129,4114 2128,4112 2086,4096C2062,4087 2031,4069 2018,4057C2004,4045 1980,4023 1964,4009C1916,3966 1901,3943 1885,3886C1869,3833 1870,3819 1893,3730C1910,3663 1984,3560 2016,3560C2022,3560 2033,3554 2039,3546C2045,3539 2062,3533 2076,3533C2090,3533 2107,3527 2113,3521C2126,3508 2130,3200 2116,3200C2111,3200 2112,3194 2118,3188C2123,3181 2125,3167 2121,3157C2117,3147 2117,3112 2120,3079C2125,3026 2123,3017 2107,3008C2096,3003 2090,3002 2093,3007C2096,3011 1951,3015 1772,3016L1446,3017L1443,3306C1442,3465 1438,3651 1435,3720C1426,3961 1418,4267 1417,4418C1416,4504 1411,4570 1406,4570C1401,4570 1400,4573 1404,4578C1408,4582 1524,4586 1662,4587C1799,4588 1914,4590 1916,4592C1922,4599 2086,4594 2097,4587ZM2795,4588C2839,4587 2895,4588 2920,4590C3000,4594 2999,4594 3000,4548C3000,4465 3008,4135 3010,4135C3011,4135 3013,4077 3015,4005C3017,3934 3019,3875 3020,3875C3021,3875 3023,3865 3024,3853C3026,3840 3022,3830 3017,3830C3012,3830 3013,3823 3020,3815C3029,3804 3029,3800 3021,3800C3014,3800 3012,3795 3016,3789C3027,3771 3040,3360 3029,3360C3026,3360 3026,3341 3029,3318C3032,3294 3035,3217 3035,3145L3035,3015L2850,3013C2748,3011 2571,3009 2457,3008C2342,3006 2246,3008 2244,3012C2242,3015 2239,3134 2238,3276L2235,3533L2260,3537C2284,3540 2366,3580 2402,3605C2440,3631 2481,3701 2487,3749C2494,3812 2458,3921 2413,3971C2395,3991 2380,4012 2380,4018C2380,4024 2374,4027 2366,4024C2358,4021 2330,4034 2303,4052C2277,4071 2248,4089 2238,4092C2219,4100 2217,4138 2219,4490L2220,4596L2468,4592C2604,4590 2751,4588 2795,4588ZM3330,4590C3388,4589 3542,4592 3673,4595C3804,4599 3910,4598 3908,4593C3907,4589 3909,4567 3913,4545C3923,4489 3929,4283 3935,3730C3938,3469 3942,3200 3944,3133L3947,3011L3548,3015C3328,3017 3146,3021 3143,3024C3140,3027 3136,3103 3134,3192C3133,3282 3129,3443 3125,3550C3121,3657 3117,3936 3116,4170L3113,4595L3169,4594C3200,4593 3272,4591 3330,4590ZM4743,4525C4735,4399 4734,4178 4742,4174C4747,4171 4749,4143 4749,4111L4747,4054L4699,4037C4668,4026 4643,4008 4629,3987C4616,3970 4603,3953 4599,3950C4585,3940 4572,3834 4577,3770C4585,3661 4640,3590 4728,3575L4765,3569L4767,3507C4767,3473 4770,3349 4773,3233L4777,3020L4741,3019C4636,3017 4594,3013 4582,3006C4575,3002 4570,3004 4570,3010C4570,3016 4565,3018 4559,3014C4545,3006 4129,3002 4082,3009L4048,3015L4044,3160C4041,3240 4037,3503 4035,3745C4033,3987 4028,4223 4026,4270C4023,4317 4018,4391 4016,4435C4013,4479 4011,4517 4010,4520C4007,4529 4012,4585 4016,4592C4019,4596 4184,4598 4384,4597L4748,4595L4743,4525ZM5527,4586C5531,4582 5535,4535 5537,4482C5538,4400 5546,4216 5553,4105L5555,4075L5455,4076C5400,4077 5237,4079 5093,4081L4830,4085L4829,4125C4828,4173 4828,4522 4829,4565L4830,4595L5175,4594C5365,4594 5523,4590 5527,4586ZM5120,3542C5172,3538 5247,3538 5285,3542C5324,3545 5405,3550 5465,3553L5575,3558L5573,3419C5573,3343 5569,3276 5565,3271C5562,3265 5564,3260 5570,3260C5576,3260 5579,3256 5576,3251C5573,3247 5569,3196 5568,3138L5566,3033L5470,3033C5358,3033 5252,3025 5244,3017C5241,3014 5227,3015 5214,3020C5201,3025 5189,3026 5186,3022C5182,3015 4883,3014 4876,3021C4872,3025 4866,3151 4855,3455L4851,3555L4938,3552C4986,3550 5068,3546 5120,3542ZM5568,2820C5574,2522 5576,1730 5570,1730C5566,1730 5564,1718 5566,1703C5567,1688 5566,1671 5562,1665C5558,1660 5554,1639 5553,1620C5550,1564 5544,1520 5537,1514C5534,1511 5536,1497 5541,1483C5558,1438 5560,1352 5545,1336C5537,1329 5533,1321 5535,1319C5537,1317 5520,1315 5497,1316C5474,1316 5451,1314 5446,1312C5429,1303 5370,1305 5370,1314C5370,1320 5365,1319 5358,1312C5352,1306 5340,1304 5331,1309C5322,1313 5266,1315 5205,1313C5145,1312 5041,1309 4975,1308L4855,1305L4855,1450C4855,1530 4856,1599 4859,1604C4861,1609 4864,1672 4866,1744C4868,1816 4871,1974 4874,2095C4880,2336 4881,2563 4877,2768C4875,2894 4876,2900 4895,2901C4906,2901 4962,2903 5020,2905C5078,2907 5150,2912 5180,2915C5210,2918 5290,2922 5358,2924C5426,2926 5483,2930 5485,2932C5487,2934 5506,2935 5527,2935L5565,2935L5568,2820ZM4785,2884C4785,2868 4788,2851 4791,2845C4799,2832 4793,1882 4785,1760C4781,1708 4777,1583 4776,1483L4775,1302L4732,1304C4709,1305 4687,1304 4685,1301C4682,1299 4584,1296 4467,1294C4351,1293 4253,1291 4250,1290C4247,1289 4241,1289 4235,1290C4230,1291 4177,1292 4119,1293L4013,1295L4016,1320C4017,1334 4022,1552 4025,1805C4029,2058 4033,2290 4035,2320C4043,2429 4047,2756 4041,2810C4030,2915 4003,2905 4312,2904C4461,2903 4606,2905 4634,2909C4661,2912 4707,2914 4735,2914C4783,2912 4785,2911 4785,2884ZM1853,2895C2000,2894 2123,2890 2126,2888C2130,2884 2142,2209 2141,2065C2138,1544 2132,1308 2124,1300C2111,1287 1760,1281 1760,1294C1760,1301 1757,1300 1752,1293C1747,1285 1701,1282 1595,1283L1446,1285L1449,1335C1456,1417 1454,1818 1446,2075C1438,2317 1438,2676 1445,2805C1447,2844 1449,2883 1449,2893C1450,2909 1457,2910 1518,2905C1555,2901 1706,2897 1853,2895ZM3940,2890C3940,2882 3943,2823 3945,2760C3948,2697 3950,2625 3950,2600C3950,2408 3951,2352 3954,2330C3955,2316 3954,2301 3951,2295C3948,2290 3944,2177 3943,2045C3942,1913 3939,1765 3936,1715C3934,1666 3930,1553 3929,1464L3927,1303L3143,1305L3146,1330C3151,1369 3151,1421 3145,1615C3138,1816 3139,1920 3146,2125C3149,2202 3151,2306 3150,2355C3148,2487 3144,2687 3141,2750C3139,2780 3139,2824 3139,2846L3140,2888L3218,2887C3435,2887 3792,2895 3795,2899C3797,2903 3830,2905 3869,2905C3926,2906 3940,2903 3940,2890ZM3050,2880C3048,2872 3047,2777 3049,2670C3057,2104 3053,1822 3034,1530C3031,1478 3027,1412 3026,1385C3025,1357 3021,1329 3017,1323C3011,1314 2940,1311 2737,1311C2587,1312 2425,1309 2375,1305C2211,1292 2225,1288 2226,1340C2227,1365 2231,1435 2236,1495C2243,1609 2245,1847 2238,2103C2236,2185 2239,2250 2244,2250C2248,2250 2247,2257 2240,2265C2233,2273 2231,2280 2236,2280C2247,2280 2254,2616 2247,2810L2245,2885L2607,2885C2806,2885 2971,2887 2973,2890C2976,2893 2996,2895 3017,2895C3046,2895 3054,2891 3050,2880Z" style="fill-rule:nonzero;"/>
                <path d="M2535,4349C2486,4304 2476,4264 2506,4239C2520,4227 2525,4229 2539,4248C2581,4308 2597,4323 2613,4317C2654,4301 2623,4238 2521,4131C2471,4078 2457,4039 2482,4024C2488,4020 2550,4016 2620,4015C2730,4013 2749,4015 2769,4031C2788,4047 2790,4053 2780,4065C2762,4087 2712,4097 2661,4089C2615,4082 2580,4087 2580,4100C2580,4104 2600,4129 2625,4156C2650,4182 2670,4208 2670,4213C2670,4217 2677,4228 2685,4236C2707,4259 2703,4319 2678,4357C2659,4384 2649,4390 2617,4390C2587,4390 2571,4382 2535,4349Z" style="fill-rule:nonzero;"/>
                <path d="M6145,9252C6126,9220 6092,9175 6069,9150C6013,9088 6007,9075 6026,9056C6052,9029 6058,9032 6128,9116L6160,9154L6161,9110C6162,9085 6163,9058 6164,9050C6166,9042 6167,9015 6168,8990C6170,8942 6187,8905 6197,8928C6199,8934 6210,8940 6221,8940C6242,8940 6242,8942 6240,9045C6233,9303 6234,9294 6200,9303C6184,9307 6173,9296 6145,9252Z" style="fill-rule:nonzero;"/>
                <path d="M5705,4470C5702,4465 5704,4460 5709,4460C5715,4460 5720,4465 5720,4470C5720,4476 5718,4480 5716,4480C5713,4480 5708,4476 5705,4470Z" style="fill-rule:nonzero;"/>
                <path d="M6027,4390C5974,4374 5944,4331 5962,4298C5973,4276 5988,4275 6009,4294C6018,4302 6040,4311 6058,4315C6118,4328 6091,4275 6005,4214C5977,4195 5976,4191 5988,4168C5998,4150 6010,4144 6035,4143C6082,4142 6130,4111 6130,4083C6130,4049 6097,4037 6022,4044C5944,4052 5922,4041 5946,4005C5973,3963 6074,3956 6136,3991C6188,4022 6199,4038 6200,4084C6200,4115 6193,4129 6163,4160C6142,4180 6119,4199 6111,4201C6101,4205 6106,4215 6129,4237C6146,4254 6161,4277 6161,4287C6162,4297 6163,4312 6164,4320C6166,4346 6140,4378 6108,4389C6073,4401 6066,4402 6027,4390Z" style="fill-rule:nonzero;"/>
            </g>
        </g>
        <g id="Absus4-Db1" serif:id="Absus4-Db">
        </g>
    </g>
</svg>
