<?xml version="1.0" encoding="iso-8859-1"?>
<!-- Generator: Adobe Illustrator 16.0.0, SVG Export Plug-In . SVG Version: 6.00 Build 0)  -->
<!DOCTYPE svg PUBLIC "-//W3C//DTD SVG 1.1//EN" "http://www.w3.org/Graphics/SVG/1.1/DTD/svg11.dtd">
<svg version="1.1" xmlns="http://www.w3.org/2000/svg" xmlns:xlink="http://www.w3.org/1999/xlink" x="0px" y="0px"
	 width="173.929px" height="261.012px" viewBox="0 0 173.929 261.012" style="enable-background:new 0 0 173.929 261.012;"
	 xml:space="preserve">
<g id="Fism">
	<g id="Fism_1_">
		<path style="fill:none;" d="M0,0c57.976,0,115.952,0,173.929,0c0,87.004,0,174.007,0,261.011c-57.977,0-115.953,0-173.929,0
			C0,174.008,0,87.004,0,0z M30.99,109.355c-0.301,0.119-0.551,0.228-0.808,0.319c-2.481,0.881-4.237,2.542-5.293,4.945
			c-1.275,2.903-1.391,5.894-0.543,8.917c0.977,3.484,2.861,6.231,6.439,7.487c0.559,0.196,0.528,0.604,0.54,1.041
			c0.062,2.291,0.203,4.584,0.17,6.873c-0.026,1.803-0.263,3.604-0.414,5.503c-1.926-0.116-3.687-0.253-5.451-0.313
			c-0.855-0.029-1.745-0.028-2.56,0.185c-0.345,0.09-0.662,0.731-0.77,1.176c-0.147,0.607,0.431,0.83,0.888,0.884
			c0.972,0.111,1.957,0.162,2.936,0.158c1.34-0.004,2.685-0.168,4.02-0.105c1.244,0.06,1.418,0.322,1.398,1.535
			c-0.044,2.687-0.123,5.373-0.176,8.061c-0.097,4.9-0.246,9.8-0.26,14.701c-0.018,5.929,0.081,11.857,0.127,17.787
			c0.006,0.776,0.001,1.553,0.001,2.369c-2.806,0.125-5.514,0.246-8.449,0.377c0.3,0.828,0.523,1.485,0.777,2.13
			c0.233,0.592,0.597,0.847,1.292,0.608c0.704-0.241,1.453-0.371,2.192-0.483c1.75-0.268,3.503-0.329,5.282-0.076
			c0.027,0.347,0.059,0.579,0.062,0.812c0.078,5.255,0.089,10.512,0.244,15.765c0.214,7.234,0.324,14.465-0.179,21.692
			c-0.079,1.135-0.215,2.266-0.333,3.49c-0.764-0.056-1.429-0.095-2.093-0.154c-1.296-0.115-2.588-0.309-3.886-0.344
			c-1.133-0.031-2.02,0.51-2.705,1.762c0.843,0.291,1.589,0.711,2.365,0.779c1.13,0.1,2.283-0.075,3.426-0.092
			c0.904-0.014,1.809,0.031,2.713,0.056c0.597,0.016,0.817,0.354,0.824,0.922c0.018,1.579,0.112,3.158,0.074,4.736
			c-0.073,3.081-0.229,6.16-0.318,9.241c-0.021,0.735,0.083,1.474,0.129,2.2c1.065,0,1.99,0,2.99,0
			c-0.32-5.604-0.412-11.11,0.328-16.662c6.123,0.144,12.107,0.284,18.237,0.429c-0.025,5.313-0.284,10.398,0.36,15.455
			c0.25,0.054,0.4,0.101,0.553,0.115c1.571,0.149,1.79-0.07,1.786-1.602c-0.009-3.322,0.01-6.644,0.016-9.965
			c0.002-1.332,0-2.663,0-4.013c7.39,0,14.597,0,21.728,0c0.088,4.751,0.176,9.504,0.265,14.321c0.704-0.066,1.293-0.09,1.871-0.186
			c0.585-0.097,0.85-0.377,0.72-1.075c-0.649-3.475-0.838-6.997-0.561-10.508c0.258-3.267-0.147-2.601,2.873-2.767
			c0.04-0.002,0.08,0.001,0.119,0c5.967-0.143,11.934-0.286,17.9-0.425c0.183-0.004,0.366,0.048,0.716,0.098
			c0,5.086,0,10.12,0,15.166c0.701,0,1.311,0,1.999,0c0.726-5.007,0.149-9.981,0.321-15.063c6.873-0.152,13.636-0.448,20.555-0.222
			c0,5.427,0,10.701,0,15.994c1.31-0.187,2.082-0.996,2.07-2.084c-0.03-2.807-0.046-5.614-0.131-8.42
			c-0.055-1.804-0.221-3.604-0.341-5.464c6.189-0.31,12.32-0.616,18.696-0.936c0.172,4.872,0.338,9.548,0.505,14.259
			c0.849,0.054,1.652,0.104,2.541,0.16c0-0.333,0-0.604,0-0.873c0-4.23-0.007-8.46,0.005-12.69c0.003-1.223,0.035-1.304,1.27-1.258
			c1.295,0.049,2.586,0.249,3.877,0.4c1.24,0.146,2.238-0.205,2.945-1.342c-0.641-0.869-1.44-1.436-2.484-1.466
			c-0.82-0.022-1.646,0.133-2.47,0.215c-1.08,0.106-2.159,0.22-3.215,0.327c-1.027-5.368-0.777-38.242,0.269-41.588
			c2.516,0,5.029,0,7.649,0c-0.023-0.438-0.005-0.865-0.076-1.277c-0.271-1.549-0.546-1.864-2.103-2.022
			c-2.001-0.204-4.01-0.328-6.019-0.438c-0.818-0.045-1.043-0.405-1.048-1.194c-0.049-6.917-0.222-13.835-0.187-20.751
			c0.034-6.758,0.264-13.514,0.418-20.27c0.029-1.286,0.17-1.416,1.484-1.33c1.144,0.074,2.284,0.317,3.422,0.293
			c0.837-0.018,1.697-0.264,2.489-0.564c0.569-0.215,0.606-0.624,0.163-1.21c-0.55-0.726-1.17-0.933-1.999-0.854
			c-1.022,0.096-2.046,0.191-3.071,0.236c-0.886,0.04-1.774,0.009-2.81,0.009c0-4.541,0-8.949,0-13.416
			c0.254-0.022,0.521-0.05,0.79-0.068c3.771-0.257,6.388-2.149,7.764-5.648c1.175-2.989,1.144-6.053,0.021-9.044
			c-1.424-3.792-4.042-6.161-8.242-6.467c-0.146-0.01-0.287-0.091-0.317-0.101c0-2.25-0.113-4.428,0.025-6.588
			c0.236-3.694,0.114-3.221,3.618-2.892c1.294,0.122,2.596,0.227,3.893,0.209c0.924-0.012,1.732-0.426,2.279-1.31
			c-3.135-1.913-6.588-1.115-10.028-1.414c0.289-12.652-0.529-25.237,0.079-37.857c3.762-0.654,7.419-0.425,11.163-0.052
			c0.354-2.279,0.54-4.45-0.062-6.634c-0.212-0.768-0.606-1.063-1.435-1.029c-2.33,0.096-4.663,0.151-6.995,0.135
			c-6.838-0.048-13.676-0.21-20.514-0.193c-6.837,0.017-13.673,0.179-20.51,0.309c-6.639,0.126-13.275,0.318-19.914,0.433
			c-9.881,0.17-19.762,0.337-29.644,0.43c-5.851,0.055-11.704,0.016-17.554-0.072c-5.729-0.086-11.458-0.29-17.186-0.435
			c-0.81-0.021-1.621-0.002-2.565-0.002c0,1.89-0.144,3.675,0.038,5.426c0.218,2.107,0.649,2.348,2.755,2.328
			c1.694-0.016,3.392-0.078,5.083-0.002c1.213,0.055,1.222,0.142,1.238,1.331c0.089,6.403,0.294,12.808,0.219,19.209
			c-0.067,5.607-0.444,11.211-0.705,16.815c-0.053,1.145-0.309,1.382-1.482,1.316c-0.941-0.053-1.872-0.284-2.813-0.368
			c-0.896-0.081-1.809-0.164-2.694-0.063c-0.35,0.04-0.853,0.54-0.903,0.887c-0.051,0.343,0.291,0.94,0.62,1.102
			c0.657,0.322,1.414,0.519,2.147,0.594c1.719,0.175,3.449,0.247,5.297,0.369c0.082,2.715,0.164,5.429,0.245,8.142
			C30.996,108.869,30.99,109.102,30.99,109.355z M100.234,23.194c0.566-1.277,0.508-2.609,0.499-3.949
			c-0.009-1.259-0.001-2.529,0.157-3.775c0.139-1.087,0.964-1.702,1.961-1.71c0.951-0.008,1.597,0.541,1.798,1.7
			c0.161,0.93,0.161,1.888,0.274,2.828c0.127,1.055,0.236,2.119,0.481,3.148c0.154,0.647,0.567,1.363,1.355,1.233
			c0.745-0.123,1.177-0.772,1.236-1.558c0.045-0.589,0.045-1.183,0.034-1.773c-0.008-0.434-0.085-0.866-0.096-1.299
			c-0.069-2.657,0.509-3.22,3.21-3.145c0.04,0.001,0.079,0.006,0.118,0.003c0.563-0.042,0.947,0.203,0.988,0.77
			c0.07,1.012,0.145,2.032,0.097,3.042c-0.058,1.214-0.311,2.42-0.343,3.633c-0.021,0.807,0.607,1.218,1.345,1.452
			c0.791,0.25,0.945-0.442,1.218-0.847c1.799-2.683,1.402-7.492-0.777-9.883c-1.543-1.692-3.406-2.068-5.471-1.07
			c-0.587,0.284-1.133,0.653-1.725,1c-0.148-0.261-0.256-0.47-0.383-0.667c-0.994-1.543-1.861-1.913-3.667-1.599
			c-1.536,0.267-3.075,0.517-4.843,0.812c-1.232,3.792,0.094,7.606,0.797,11.418C99.155,23.048,99.656,23.116,100.234,23.194z
			 M74.925,31.202c-0.411,0.436-0.651,0.843-1.008,1.042c-1.213,0.678-1.238,1.714-1.157,2.928c0.25,3.735,0.84,7.465,0.356,11.225
			c-0.008,0.062,0.066,0.135,0.176,0.344c4.503,0.884,8.729,0.188,12.301-2.967c1.932-1.706,2.097-4.107,0.856-6.369
			c-1.69-3.084-7.005-6.197-10.775-5.375C75.459,31.792,75.235,31.544,74.925,31.202z M108.154,47.981
			c0-1.931,0.078-3.821-0.038-5.699c-0.049-0.787-0.447-1.579-0.802-2.313c-0.416-0.861-1.154-1.237-2.147-1.109
			c-1.793,0.231-3.591,0.423-5.458,0.639c0,0.41-0.038,0.797,0.007,1.175c0.156,1.307,0.561,1.565,1.807,1.203
			c0.454-0.132,0.907-0.306,1.372-0.361c0.599-0.071,1.261-0.243,1.711,0.367c-0.727,2.316-3.416,3.574-5.891,2.827
			c-0.935-0.282-1.582-0.827-1.969-1.728c-1.041-2.422-0.025-6.375,2.031-8.023c1.237-0.992,3.859-1.383,4.919,0.465
			c0.368,0.643,0.963,1.13,1.823,1.032c0.158-2.839-1.963-4.874-4.781-4.544c-2.605,0.304-4.676,1.593-6.281,3.654
			c-0.532,0.685-0.763,1.444-0.721,2.318c0.081,1.685,0.447,3.295,1.258,4.774c2.376,4.333,6.885,5.349,10.276,3.606
			c0.117-0.06,0.277-0.037,0.433-0.054C105.519,48.373,105.804,48.589,108.154,47.981z M75.941,8.659
			c0.036-2.067-0.426-2.663-2.127-2.684c-3.158-0.04-6.317,0.021-9.476,0.035c-0.528,0.002-0.877,0.165-1.036,0.741
			c-0.144,0.523-0.099,0.854,0.354,1.227c0.371,0.306,0.723,0.78,0.823,1.237c0.202,0.919,0.269,1.876,0.296,2.821
			c0.007,0.258-0.261,0.623-0.505,0.772c-1.044,0.637-1.252,1.663-0.31,2.357c0.743,0.546,0.949,1.182,0.908,2.027
			c-0.038,0.788-0.059,1.584,0.005,2.369c0.079,0.978,0.2,1.959,0.406,2.917c0.11,0.513,0.327,1.13,1.042,1.087
			c0.695-0.042,1.344-0.28,1.59-1.021c0.134-0.404,0.219-0.849,0.206-1.272c-0.032-0.986-0.157-1.968-0.205-2.954
			c-0.035-0.725-0.007-1.453-0.007-2.192c0.355-0.042,0.549-0.078,0.743-0.085c1.736-0.066,3.472-0.152,5.209-0.177
			c0.662-0.009,0.896-0.319,0.985-0.908c0.11-0.727-0.146-1.292-0.812-1.523c-0.62-0.216-1.298-0.334-1.957-0.358
			c-1.447-0.052-2.898-0.016-4.347-0.016c0-1.476,0-2.827,0-4.399C70.544,8.659,73.208,8.659,75.941,8.659z M87.933,14.358
			c0.055-0.127,0.108-0.255,0.163-0.382c0.838,0.206,1.669,0.442,2.514,0.607c0.803,0.157,1.616,0.309,2.429,0.334
			c0.711,0.023,1.04-0.438,0.999-1.169c-0.068-1.207-1.856-3.382-3.041-3.483c-1.979-0.17-3.887,0.167-5.482,1.448
			c-2.378,1.911-2.041,4.604,0.697,5.916c0.925,0.443,1.88,0.836,2.759,1.358c0.808,0.48,1.517,1.112,1.588,2.186
			c-1.016,0.495-1.967,0.348-2.914-0.021c-0.772-0.3-1.542-0.606-2.314-0.905c-0.681-0.263-1.017,0.025-1.19,0.691
			c-0.306,1.183,0.213,2.219,1.565,2.828c2.048,0.923,4.151,0.871,6.228,0.118c0.389-0.141,0.773-0.553,0.967-0.938
			c1.086-2.161,0.563-4.568-1.309-6.086c-0.673-0.545-1.428-0.989-2.145-1.478C88.943,15.041,88.438,14.7,87.933,14.358z M37,43.599
			c-0.258-0.082-0.404-0.132-0.552-0.174c-1.689-0.485-3.373-0.147-5.06,0.028c-1.514,0.157-1.515,0.147-1.988-1.275
			c-0.739-2.22-0.626-2.389,1.7-2.548c1.658-0.114,1.873-0.453,1.713-2.084c-0.086-0.887-0.481-1.047-1.231-0.959
			c-0.665,0.078-1.343,0.18-2.002,0.124c-0.82-0.07-1.003-0.44-0.774-1.223c0.312-1.075,1.063-1.716,2.26-1.757
			c0.782-0.027,1.571,0.109,2.354,0.188c2.025,0.206,2.268,0.019,2.555-2.009c0.017-0.117,0.035-0.236,0.026-0.353
			c-0.064-0.849-0.635-1.281-1.484-1.221c-1.377,0.096-2.76,0.113-4.136,0.22c-1.097,0.085-2.189,0.239-3.278,0.395
			c-0.658,0.094-0.932,0.508-0.862,1.177c0.041,0.392-0.006,0.793,0.035,1.185c0.376,3.575,0.761,7.149,1.148,10.723
			c0.079,0.731,0.176,1.461,0.276,2.285c3.167-0.02,6.233,0.137,9.301-0.555C37,45.003,37,44.343,37,43.599z M48.169,47.303
			c0.274-0.29,0.372-0.344,0.375-0.404c0.128-2.379,1.944-3.341,4.174-3.494c0.985-0.068,1.987-0.102,2.941-0.322
			c0.767-0.177,1.116,0.117,1.385,0.717c0.453,1.009,0.869,2.036,1.355,3.028c0.464,0.946,0.826,1.053,1.801,0.673
			c1.071-0.417,1.373-1.16,0.865-2.228c-2.103-4.421-4.212-8.838-6.333-13.25c-0.105-0.219-0.396-0.545-0.526-0.513
			c-0.25,0.061-0.528,0.299-0.653,0.538c-1.268,2.413-2.513,4.837-3.752,7.264c-1.09,2.135-2.166,4.277-3.266,6.453
			C47.095,46.291,47.621,46.787,48.169,47.303z M126.143,31.581c0,0.746-0.011,1.358,0.002,1.97
			c0.022,1.026,0.138,2.057,0.065,3.074c-0.049,0.673-0.165,1.548-1.092,1.594c-1.524,0.076-3.056,0.021-4.797,0.021
			c0-1.71,0.013-3.275-0.009-4.84c-0.006-0.359-0.005-0.861-0.222-1.048c-0.745-0.642-1.638-1.004-2.504-0.957
			c0.281,4.997,0.557,9.9,0.832,14.803c0.758,0,1.403,0,2.107,0c0.084-1.763,0.164-3.441,0.241-5.051
			c1.123-0.258,2.081-0.491,3.044-0.695c0.422-0.089,0.855-0.156,1.285-0.173c1.185-0.045,1.483,0.241,1.454,1.436
			c-0.015,0.629-0.138,1.254-0.18,1.884c-0.053,0.786-0.144,1.579-0.088,2.36c0.069,0.985,0.855,1.591,1.772,1.498
			c0.832-0.085,1.35-0.711,1.142-1.743c-0.578-2.865-0.244-5.751-0.354-8.626c-0.046-1.211-0.229-2.432-0.492-3.615
			C128.135,32.505,127.519,31.788,126.143,31.581z M142.948,35.197c1.194-0.479,2.367-0.26,3.539-0.23
			c1.172,0.029,2.35-0.035,3.517-0.144c0.26-0.024,0.672-0.39,0.691-0.625c0.051-0.617-0.023-1.259-0.149-1.871
			c-0.108-0.525-0.449-0.7-1.062-0.615c-1.322,0.184-2.663,0.268-3.999,0.322c-1.261,0.051-2.526,0.001-3.789,0.021
			c-0.294,0.004-0.587,0.113-0.922,0.183c0.076,5.01,0.176,9.918,1.116,14.646c1.828,0.093,3.478,0.22,5.128,0.246
			c0.899,0.014,1.82-0.059,2.697-0.25c0.921-0.201,1.73-0.686,2.324-1.645c-0.453-0.153-0.811-0.368-1.176-0.382
			c-1.963-0.079-3.928-0.155-5.891-0.135c-1.223,0.012-1.34,0.014-1.587-1.176c-0.072-0.344-0.061-0.706-0.085-1.059
			c-0.043-0.641,0.215-0.915,0.897-0.913c1.172,0.002,2.344-0.088,3.711-0.148c-0.116-0.986-0.218-1.845-0.316-2.688
			c-1.541,0-2.868,0-4.191,0C143.251,37.557,143.103,36.402,142.948,35.197z M17.006,108.398c0.136,0.092,0.272,0.184,0.409,0.276
			c-0.062,1.244-0.125,2.488-0.184,3.732c-0.033,0.707-0.127,1.421-0.067,2.121c0.101,1.174,0.681,1.557,1.977,1.389
			c0.08-0.923,0.176-1.859,0.24-2.797c0.176-2.571,0.088-5.124-0.667-7.61c-0.172-0.565-0.244-1.285-1.007-1.32
			c-1.08,0.919-2.138,1.743-3.1,2.666c-0.73,0.701-1.401,1.486-1.979,2.317c-0.439,0.63-0.42,1.385-0.009,2.208
			c0.466-0.193,0.912-0.281,1.232-0.53c0.618-0.482,1.139-1.087,1.75-1.58C16.026,108.927,16.535,108.686,17.006,108.398z
			 M80.858,24.465c0.206-0.536,0.421-0.958,0.532-1.407c0.607-2.457,0.555-4.916-0.109-7.352c-0.131-0.482-0.395-0.942-0.666-1.369
			c-0.33-0.52-0.815-0.714-1.427-0.458c-0.577,0.241-0.822,0.585-0.729,1.277c0.125,0.93,0.068,1.884,0.105,2.828
			c0.054,1.375,0.048,2.757,0.208,4.12C78.905,23.232,79.604,24.023,80.858,24.465z M80.456,8.481
			c0.749-1.306,0.737-2.592-0.111-3.22c-0.414-0.307-1.13-0.507-1.584-0.362c-0.355,0.114-0.627,0.808-0.737,1.29
			c-0.123,0.544-0.184,1.199,0.542,1.5C79.203,7.954,79.838,8.222,80.456,8.481z"/>
		<path style="fill-rule:evenodd;clip-rule:evenodd;" d="M30.99,109.355c0-0.254,0.006-0.486,0-0.718
			c-0.081-2.713-0.163-5.427-0.245-8.142c-1.848-0.122-3.578-0.194-5.297-0.369c-0.733-0.075-1.49-0.272-2.147-0.594
			c-0.329-0.161-0.67-0.758-0.62-1.102c0.051-0.347,0.554-0.848,0.903-0.887c0.885-0.101,1.798-0.018,2.694,0.063
			c0.941,0.084,1.872,0.315,2.813,0.368c1.174,0.066,1.429-0.171,1.482-1.316c0.26-5.604,0.638-11.208,0.705-16.815
			c0.076-6.401-0.129-12.806-0.219-19.209c-0.017-1.189-0.025-1.276-1.238-1.331c-1.691-0.076-3.389-0.014-5.083,0.002
			c-2.105,0.02-2.537-0.221-2.755-2.328c-0.182-1.751-0.038-3.537-0.038-5.426c0.944,0,1.755-0.018,2.565,0.002
			c5.729,0.146,11.457,0.349,17.186,0.435c5.851,0.088,11.703,0.127,17.554,0.072c9.881-0.093,19.763-0.26,29.644-0.43
			c6.639-0.115,13.275-0.307,19.914-0.433c6.837-0.129,13.673-0.292,20.51-0.309c6.838-0.017,13.676,0.145,20.514,0.193
			c2.332,0.016,4.665-0.039,6.995-0.135c0.828-0.034,1.223,0.261,1.435,1.029c0.602,2.184,0.415,4.355,0.062,6.634
			c-3.744-0.374-7.401-0.603-11.163,0.052c-0.608,12.62,0.21,25.205-0.079,37.857c3.44,0.299,6.894-0.499,10.028,1.414
			c-0.547,0.884-1.355,1.298-2.279,1.31c-1.297,0.018-2.599-0.088-3.893-0.209c-3.504-0.33-3.382-0.803-3.618,2.892
			c-0.139,2.161-0.025,4.338-0.025,6.588c0.03,0.01,0.171,0.091,0.317,0.101c4.2,0.306,6.818,2.675,8.242,6.467
			c1.123,2.991,1.154,6.055-0.021,9.044c-1.376,3.499-3.993,5.391-7.764,5.648c-0.269,0.018-0.536,0.046-0.79,0.068
			c0,4.467,0,8.875,0,13.416c1.035,0,1.924,0.031,2.81-0.009c1.025-0.045,2.049-0.141,3.071-0.236
			c0.829-0.078,1.449,0.129,1.999,0.854c0.443,0.586,0.406,0.995-0.163,1.21c-0.792,0.301-1.652,0.547-2.489,0.564
			c-1.138,0.024-2.278-0.219-3.422-0.293c-1.314-0.086-1.455,0.044-1.484,1.33c-0.154,6.756-0.384,13.512-0.418,20.27
			c-0.035,6.916,0.138,13.834,0.187,20.751c0.005,0.789,0.229,1.149,1.048,1.194c2.009,0.11,4.018,0.234,6.019,0.438
			c1.557,0.158,1.831,0.474,2.103,2.022c0.071,0.412,0.053,0.84,0.076,1.277c-2.62,0-5.134,0-7.649,0
			c-1.046,3.346-1.296,36.22-0.269,41.588c1.056-0.107,2.135-0.221,3.215-0.327c0.823-0.082,1.649-0.237,2.47-0.215
			c1.044,0.03,1.844,0.597,2.484,1.466c-0.707,1.137-1.705,1.487-2.945,1.342c-1.291-0.151-2.582-0.352-3.877-0.4
			c-1.234-0.046-1.267,0.035-1.27,1.258c-0.012,4.23-0.005,8.46-0.005,12.69c0,0.27,0,0.54,0,0.873
			c-0.889-0.056-1.692-0.106-2.541-0.16c-0.167-4.711-0.333-9.387-0.505-14.259c-6.376,0.319-12.507,0.626-18.696,0.936
			c0.12,1.86,0.286,3.66,0.341,5.464c0.085,2.806,0.101,5.613,0.131,8.42c0.012,1.088-0.761,1.897-2.07,2.084
			c0-5.293,0-10.567,0-15.994c-6.919-0.227-13.682,0.069-20.555,0.222c-0.172,5.082,0.404,10.057-0.321,15.063
			c-0.688,0-1.298,0-1.999,0c0-5.046,0-10.08,0-15.166c-0.35-0.05-0.533-0.102-0.716-0.098c-5.966,0.139-11.933,0.282-17.9,0.425
			c-0.039,0.001-0.079-0.002-0.119,0c-3.021,0.166-2.615-0.5-2.873,2.767c-0.278,3.511-0.088,7.033,0.561,10.508
			c0.13,0.698-0.134,0.979-0.72,1.075c-0.578,0.096-1.167,0.119-1.871,0.186c-0.089-4.817-0.177-9.57-0.265-14.321
			c-7.131,0-14.337,0-21.728,0c0,1.35,0.002,2.681,0,4.013c-0.006,3.321-0.025,6.643-0.016,9.965
			c0.004,1.531-0.214,1.751-1.786,1.602c-0.153-0.015-0.303-0.062-0.553-0.115c-0.644-5.057-0.386-10.142-0.36-15.455
			c-6.13-0.145-12.114-0.285-18.237-0.429c-0.74,5.552-0.648,11.058-0.328,16.662c-1,0-1.925,0-2.99,0
			c-0.046-0.727-0.151-1.465-0.129-2.2c0.089-3.081,0.245-6.16,0.318-9.241c0.038-1.578-0.056-3.157-0.074-4.736
			c-0.007-0.567-0.228-0.906-0.824-0.922c-0.904-0.024-1.809-0.069-2.713-0.056c-1.143,0.017-2.295,0.191-3.426,0.092
			c-0.776-0.068-1.522-0.488-2.365-0.779c0.685-1.252,1.572-1.793,2.705-1.762c1.297,0.035,2.59,0.229,3.886,0.344
			c0.664,0.06,1.329,0.099,2.093,0.154c0.119-1.225,0.255-2.355,0.333-3.49c0.503-7.228,0.393-14.458,0.179-21.692
			c-0.155-5.253-0.166-10.51-0.244-15.765c-0.003-0.232-0.035-0.465-0.062-0.812c-1.779-0.253-3.533-0.191-5.282,0.076
			c-0.739,0.112-1.488,0.242-2.192,0.483c-0.695,0.238-1.059-0.017-1.292-0.608c-0.254-0.645-0.477-1.302-0.777-2.13
			c2.936-0.131,5.643-0.252,8.449-0.377c0-0.816,0.005-1.593-0.001-2.369c-0.046-5.93-0.146-11.858-0.127-17.787
			c0.015-4.901,0.164-9.801,0.26-14.701c0.053-2.688,0.132-5.374,0.176-8.061c0.02-1.213-0.155-1.476-1.398-1.535
			c-1.335-0.062-2.679,0.102-4.02,0.105c-0.979,0.004-1.963-0.047-2.936-0.158c-0.457-0.054-1.035-0.276-0.888-0.884
			c0.108-0.444,0.425-1.086,0.77-1.176c0.815-0.213,1.705-0.214,2.56-0.185c1.764,0.061,3.525,0.197,5.451,0.313
			c0.151-1.899,0.388-3.7,0.414-5.503c0.033-2.289-0.107-4.582-0.17-6.873c-0.012-0.437,0.019-0.844-0.54-1.041
			c-3.578-1.256-5.462-4.003-6.439-7.487c-0.848-3.023-0.732-6.014,0.543-8.917c1.056-2.403,2.812-4.063,5.293-4.945
			C30.438,109.583,30.688,109.475,30.99,109.355z M56.084,190.318c6.95-0.441,13.824-0.992,20.84-0.536
			c1.14-14.346,0.527-28.543,0.476-42.899c-7.386,1.246-14.657,0.192-21.933,0.597C55.673,161.776,55.878,175.973,56.084,190.318z
			 M80.184,189.937c7.057,0,13.832,0,20.604,0c0.662-3.649,0.677-41.032,0.034-43.136c-7.022,0.188-14.031,0.377-21.108,0.566
			c-0.064,0.646-0.198,1.274-0.177,1.896c0.084,2.484,0.182,4.971,0.34,7.451c0.163,2.556,0.49,5.082,0.126,7.672
			c-0.339,2.411-0.446,4.878-0.396,7.314c0.098,4.816,0.385,9.628,0.571,14.442C80.225,187.396,80.184,188.65,80.184,189.937z
			 M123.616,189.79c0.261-14.549,1.042-28.902,0.08-43.196c-6.784,0-13.398,0-20.138,0c0.371,14.561-1.036,28.941,0.009,43.559
			C110.238,190.032,116.851,189.912,123.616,189.79z M99.748,97.847c0.471-2.618,0.379-36.664-0.092-38.738
			c-7.076,0-14.162,0-21.279,0c0,1.038-0.017,1.978,0.003,2.917c0.134,6.319,0.321,12.637,0.402,18.957
			c0.067,5.253,0.01,10.507,0.018,15.761c0,0.374,0.081,0.747,0.122,1.104C85.969,97.847,92.869,97.847,99.748,97.847z
			 M104.971,234.845c6.664,0.204,13.326-0.037,20.057-0.572c-0.527-13.936-1.787-27.704-1.138-41.65
			c-6.75,0.077-13.356-0.451-19.817,0.227C104.373,206.897,104.67,220.786,104.971,234.845z M75.988,97.967
			c0.006-13.115,0.927-25.97,0.07-38.838c-7.084,0.177-14.011,0.35-21.043,0.525c-0.105,3.221-0.312,6.375-0.292,9.529
			c0.052,7.981,0.216,15.961,0.304,23.943c0.01,0.855-0.112,1.729-0.3,2.566c-0.439,1.963-0.244,2.271,1.699,2.273
			c5.021,0.006,10.041,0.001,15.061,0.001C72.943,97.967,74.398,97.967,75.988,97.967z M125.689,146.886
			c0.046,0.737,0.062,1.288,0.119,1.833c0.534,5.161,0.472,10.336,0.367,15.512c-0.135,6.752-0.275,13.505-0.375,20.257
			c-0.025,1.722,0.091,3.446,0.14,5.067c3.83,0,7.494,0.079,11.152-0.03c2.236-0.066,4.464-0.424,6.695-0.649
			c0.861-0.087,1.116-0.624,1.032-1.398c-0.034-0.312-0.061-0.642-0.176-0.929c-0.768-1.919-0.582-3.852-0.235-5.825
			c0.354-2.019,0.749-4.059,0.793-6.096c0.082-3.867-0.048-7.74-0.135-11.61c-0.119-5.291-0.288-10.582-0.418-15.873
			c-0.039-1.606-0.047-1.595-1.586-1.479c-3.74,0.281-7.484,0.508-11.227,0.766C129.835,146.568,127.834,146.727,125.689,146.886z
			 M53.103,190.311c0-0.612,0.003-1.08,0-1.548c-0.074-11.028-0.148-22.058-0.225-33.086c-0.017-2.412-0.035-4.823-0.062-7.233
			c-0.012-1.118-0.089-1.191-1.232-1.209c-0.791-0.014-1.582,0.005-2.372-0.006c-4.387-0.062-8.774-0.098-13.159-0.213
			c-1.604-0.043-1.714-0.135-1.747,1.506c-0.087,4.504-0.157,9.012-0.076,13.515c0.166,9.127,0.436,18.253,0.66,27.379
			c0.011,0.455,0.001,0.912,0.001,1.485C41.018,190.669,46.98,190.968,53.103,190.311z M144.932,192.698c-6.434,0-12.663,0-18.985,0
			c-0.546,13.915,1.036,27.687,1.064,41.623c6.312,0.464,12.466-0.239,18.745-0.618
			C146.415,219.978,145.023,206.393,144.932,192.698z M122.524,58.853c-3.853,0-7.518-0.03-11.183,0.01
			c-2.643,0.029-5.285,0.162-7.929,0.224c-0.745,0.018-1.024,0.309-1.019,1.079c0.014,2.094-0.102,4.188-0.073,6.282
			c0.12,9.05,0.265,18.1,0.422,27.149c0.022,1.291,0.157,2.579,0.233,3.752c6.459,0,12.796,0,19.277,0
			C121.957,84.368,122.84,71.597,122.524,58.853z M79.994,193.15c0,0.582-0.006,1.008,0.001,1.434
			c0.038,2.211,0.088,4.422,0.118,6.633c0.04,2.924,0.081,5.848,0.082,8.771c0,0.743,0.182,1.099,0.997,1.277
			c2.333,0.514,4.333,1.679,5.948,3.461c1.555,1.715,2.35,3.712,2.217,6.052c-0.149,2.654-1.535,4.526-3.774,5.781
			c-1.269,0.712-2.645,1.23-3.95,1.883c-0.302,0.151-0.715,0.487-0.724,0.751c-0.063,1.844-0.033,3.689-0.033,5.634
			c7.306-0.332,14.474,0.519,21.688-0.304c0-0.343,0.006-0.614,0-0.885c-0.166-7.187-0.313-14.374-0.506-21.56
			c-0.145-5.369-0.336-10.737-0.533-16.105c-0.039-1.091-0.2-2.177-0.312-3.327C94.125,192.814,87.146,192.98,79.994,193.15z
			 M124.554,96.94c6.576,0,13.023,0,19.529,0c0.227-12.775,0.304-25.443,0.004-38.172c-6.317,0-12.465,0-18.771,0
			C125.062,71.516,124.809,84.185,124.554,96.94z M52.381,59.634c-6.256-0.131-12.477-0.261-18.739-0.392
			c-0.553,12.896,0.806,25.609-0.493,38.225c2.434,0.859,16.619,0.522,19.232,0.038C52.381,84.991,52.381,72.476,52.381,59.634z
			 M78.311,228.961c-0.209-0.139-0.268-0.202-0.338-0.221c-0.268-0.069-0.537-0.133-0.809-0.184
			c-2.245-0.42-3.859-1.711-5.022-3.628c-0.84-1.382-1.219-2.915-1.332-4.5c-0.305-4.292,1.895-8.94,6.236-9.791
			c0.505-0.099,0.678-0.357,0.658-0.913c-0.15-3.986-0.231-7.976-0.39-11.961c-0.064-1.6-0.27-3.192-0.401-4.668
			c-7.08,0-13.97,0-20.993,0c0,2.501-0.008,4.821,0.016,7.142c0.002,0.184,0.186,0.438,0.355,0.534
			c1.374,0.771,2.774,1.494,4.142,2.277c0.391,0.224,0.79,0.534,1.029,0.906c1.746,2.711,1.908,5.66,1.019,8.658
			c-0.817,2.751-2.56,4.686-5.464,5.379c-0.179,0.043-0.346,0.136-0.444,0.176c0,5.612,0,11.124,0,16.698
			c7.238,0.94,14.444-0.396,21.738,0.242C78.311,232.932,78.311,230.898,78.311,228.961z M35.96,235.03c5.898,0,11.761,0,17.774,0
			c0-5.491,0-10.927,0-16.178c-1.192-0.615-2.417-1.041-3.393-1.789c-3.019-2.313-4.136-5.532-3.769-9.221
			c0.356-3.572,2.475-5.848,5.906-6.702c0.293-0.072,0.572-0.203,0.788-0.281c0-2.529,0-4.96,0-7.383
			c-6.262-0.694-12.398-0.072-18.683-0.035C35.046,207.39,35.502,221.189,35.96,235.03z M55.668,144.471
			c7.176-0.108,14.26-0.217,21.417-0.324c-0.115-4.417-0.224-8.617-0.334-12.86c-7.138-0.093-14.227-0.186-21.375-0.279
			C55.068,135.494,55.049,139.856,55.668,144.471z M79.62,144.027c0.524,0.023,0.795,0.043,1.067,0.047
			c3.118,0.037,6.236,0.104,9.354,0.1c3.196-0.006,6.394-0.039,9.588-0.144c1.388-0.045,1.469-0.165,1.437-1.562
			c-0.06-2.604-0.21-5.205-0.296-7.808c-0.037-1.125-0.006-2.252-0.006-3.421c-7.2-0.918-14.359,0.42-21.596-0.213
			C79.321,135.432,79.469,139.682,79.62,144.027z M103.461,130.869c-0.127,0.308-0.184,0.378-0.182,0.447
			c0.135,3.868,0.268,7.735,0.416,11.603c0.047,1.22,0.066,1.273,1.295,1.262c4.463-0.048,8.926-0.104,13.387-0.223
			c1.721-0.045,3.437-0.266,5.194-0.41c-0.183-4.418-0.359-8.699-0.542-13.12C116.419,130.576,109.888,130.724,103.461,130.869z
			 M125.35,130.412c0.156,4.513,0.31,8.907,0.47,13.518c6.308-0.24,12.396-0.472,18.51-0.704c0.784-4.491,0.399-8.88,0.331-13.37
			C138.187,130.073,131.838,129.555,125.35,130.412z M52.286,144.334c0-4.477,0-8.876,0-13.377
			c-5.924-0.938-11.877,0.241-17.988,0.31c0,4.39,0,8.704,0,13.067C40.221,144.334,46.162,144.334,52.286,144.334z M78.763,109.422
			c7.229,0,14.494,0,21.854,0c-0.096-3.033-0.195-6.121-0.301-9.439c-7.225,0.188-14.33,0.372-21.554,0.56
			C78.763,103.511,78.763,106.376,78.763,109.422z M121.98,99.096c-6.504,0.238-12.848,0.47-19.246,0.705
			c-0.535,3.402,0,6.577,0.262,9.535c6.476-0.03,12.778-0.059,19.246-0.088C121.965,105.722,123.043,102.428,121.98,99.096z
			 M143.985,99.155c-3.53,0-6.964-0.038-10.396,0.013c-2.602,0.038-5.202,0.188-7.804,0.289c-0.598,0.023-1.131,0.145-1.133,0.899
			c-0.006,2.95-0.003,5.901-0.003,8.993c6.433-0.317,12.89-0.211,19.336-1.087C143.985,105.156,143.985,102.174,143.985,99.155z
			 M75.42,100.536c-3.404,0.105-6.707,0.259-10.012,0.294c-3.195,0.034-6.392-0.041-9.588-0.096c-0.678-0.012-1.172,0.095-1.21,0.9
			c-0.067,1.458-0.215,2.916-0.196,4.372c0.015,1.192,0.223,2.383,0.352,3.642c7.157-0.521,14.133,0.588,21.188-0.295
			C75.804,106.338,76.175,103.385,75.42,100.536z M33.514,100.754c-0.21,3.274-0.537,6.445,0.046,9.717
			c6.333-0.209,12.586-0.416,18.7-0.617c0-3.071,0-6.017,0-9.1C45.941,100.754,39.8,100.754,33.514,100.754z"/>
		<path style="fill-rule:evenodd;clip-rule:evenodd;" d="M100.234,21.194c-0.578-0.078-1.079-0.146-1.734-0.234
			c-0.703-3.812-2.029-7.626-0.797-11.418c1.768-0.296,3.307-0.546,4.843-0.812c1.806-0.314,2.673,0.056,3.667,1.599
			c0.127,0.196,0.234,0.405,0.383,0.667c0.592-0.347,1.138-0.716,1.725-1c2.064-0.998,3.928-0.622,5.471,1.07
			c2.18,2.391,2.576,7.2,0.777,9.883c-0.272,0.405-0.427,1.098-1.218,0.847c-0.737-0.234-1.365-0.645-1.345-1.452
			c0.032-1.213,0.285-2.419,0.343-3.633c0.048-1.011-0.026-2.03-0.097-3.042c-0.041-0.567-0.425-0.812-0.988-0.77
			c-0.039,0.002-0.078-0.002-0.118-0.003c-2.701-0.075-3.279,0.488-3.21,3.145c0.011,0.434,0.088,0.866,0.096,1.299
			c0.011,0.591,0.011,1.185-0.034,1.773c-0.06,0.786-0.491,1.435-1.236,1.558c-0.788,0.13-1.201-0.586-1.355-1.233
			c-0.245-1.029-0.354-2.094-0.481-3.148c-0.113-0.94-0.113-1.897-0.274-2.828c-0.201-1.159-0.847-1.708-1.798-1.7
			c-0.997,0.008-1.822,0.623-1.961,1.71c-0.158,1.246-0.166,2.516-0.157,3.775C100.742,18.584,100.801,19.917,100.234,21.194z"/>
		<path style="fill-rule:evenodd;clip-rule:evenodd;" d="M74.925,31.202c0.31,0.342,0.534,0.59,0.75,0.828
			c3.77-0.822,9.084,2.292,10.775,5.375c1.24,2.262,1.075,4.664-0.856,6.369c-3.573,3.155-7.798,3.851-12.301,2.967
			c-0.11-0.209-0.184-0.282-0.176-0.344c0.484-3.76-0.106-7.49-0.356-11.225c-0.081-1.214-0.056-2.25,1.157-2.928
			C74.274,32.045,74.515,31.638,74.925,31.202z M76.039,44.668c2.664-0.185,4.958-1.041,6.832-2.913
			c1.253-1.251,1.482-2.4,0.542-3.912c-0.439-0.707-1.105-1.369-1.823-1.788c-1.854-1.083-3.92-1.287-6.015-1.158
			C75.151,36.838,75.326,40.521,76.039,44.668z"/>
		<path style="fill-rule:evenodd;clip-rule:evenodd;" d="M108.154,47.981c-2.351,0.608-2.636,0.392-2.451-1.769
			c-0.155,0.017-0.315-0.006-0.433,0.054c-3.392,1.742-7.9,0.727-10.276-3.606c-0.811-1.479-1.177-3.089-1.258-4.774
			c-0.042-0.874,0.188-1.633,0.721-2.318c1.605-2.062,3.676-3.35,6.281-3.654c2.818-0.329,4.939,1.705,4.781,4.544
			c-0.86,0.098-1.455-0.389-1.823-1.032c-1.06-1.848-3.682-1.458-4.919-0.465c-2.057,1.648-3.072,5.601-2.031,8.023
			c0.387,0.901,1.034,1.445,1.969,1.728c2.475,0.747,5.164-0.511,5.891-2.827c-0.45-0.61-1.112-0.438-1.711-0.367
			c-0.465,0.055-0.918,0.229-1.372,0.361c-1.246,0.362-1.65,0.104-1.807-1.203c-0.045-0.378-0.007-0.765-0.007-1.175
			c1.867-0.216,3.665-0.408,5.458-0.639c0.993-0.128,1.731,0.248,2.147,1.109c0.354,0.734,0.753,1.526,0.802,2.313
			C108.232,44.16,108.154,46.05,108.154,47.981z"/>
		<path style="fill-rule:evenodd;clip-rule:evenodd;" d="M75.941,6.659c-2.733,0-5.397,0-8.212,0c0,1.572,0,2.923,0,4.399
			c1.449,0,2.899-0.036,4.347,0.016c0.658,0.023,1.336,0.142,1.957,0.358c0.666,0.231,0.921,0.796,0.812,1.523
			c-0.088,0.589-0.323,0.899-0.985,0.908c-1.737,0.025-3.473,0.111-5.209,0.177c-0.194,0.007-0.387,0.043-0.743,0.085
			c0,0.739-0.028,1.467,0.007,2.192c0.047,0.986,0.173,1.968,0.205,2.954c0.014,0.423-0.072,0.868-0.206,1.272
			c-0.246,0.741-0.895,0.979-1.59,1.021c-0.716,0.043-0.932-0.574-1.042-1.087c-0.206-0.958-0.327-1.939-0.406-2.917
			c-0.064-0.785-0.043-1.581-0.005-2.369c0.041-0.845-0.165-1.481-0.908-2.027c-0.943-0.694-0.734-1.72,0.31-2.357
			c0.244-0.149,0.513-0.514,0.505-0.772c-0.028-0.944-0.095-1.901-0.296-2.821c-0.1-0.457-0.452-0.931-0.823-1.237
			c-0.453-0.373-0.498-0.704-0.354-1.227c0.159-0.576,0.508-0.739,1.036-0.741c3.159-0.014,6.318-0.075,9.476-0.035
			C75.515,3.997,75.978,4.592,75.941,6.659z"/>
		<path style="fill-rule:evenodd;clip-rule:evenodd;" d="M87.933,12.358c0.505,0.342,1.011,0.683,1.515,1.025
			c0.717,0.489,1.472,0.933,2.145,1.478c1.872,1.518,2.395,3.925,1.309,6.086c-0.193,0.385-0.578,0.797-0.967,0.938
			c-2.077,0.752-4.18,0.805-6.228-0.118c-1.352-0.609-1.871-1.645-1.565-2.828c0.173-0.666,0.509-0.954,1.19-0.691
			c0.772,0.299,1.542,0.605,2.314,0.905c0.947,0.368,1.898,0.516,2.914,0.021c-0.071-1.073-0.78-1.706-1.588-2.186
			c-0.879-0.522-1.834-0.915-2.759-1.358c-2.738-1.312-3.076-4.005-0.697-5.916c1.595-1.281,3.502-1.618,5.482-1.448
			c1.185,0.102,2.973,2.276,3.041,3.483c0.041,0.731-0.288,1.192-0.999,1.169c-0.812-0.026-1.626-0.178-2.429-0.334
			c-0.845-0.166-1.676-0.402-2.514-0.607C88.041,12.103,87.987,12.23,87.933,12.358z"/>
		<path style="fill-rule:evenodd;clip-rule:evenodd;" d="M37,43.599c0,0.745,0,1.405,0,2.166c-3.068,0.692-6.133,0.535-9.301,0.555
			c-0.1-0.824-0.197-1.554-0.276-2.285c-0.387-3.574-0.772-7.148-1.148-10.723c-0.042-0.392,0.005-0.793-0.035-1.185
			c-0.069-0.668,0.204-1.083,0.862-1.177c1.089-0.156,2.182-0.31,3.278-0.395c1.376-0.107,2.759-0.124,4.136-0.22
			c0.849-0.06,1.42,0.373,1.484,1.221c0.009,0.116-0.01,0.236-0.026,0.353c-0.288,2.027-0.53,2.214-2.555,2.009
			c-0.784-0.08-1.573-0.215-2.354-0.188c-1.196,0.041-1.947,0.683-2.26,1.757c-0.229,0.783-0.045,1.153,0.774,1.223
			c0.66,0.056,1.338-0.046,2.002-0.124c0.75-0.088,1.145,0.072,1.231,0.959c0.159,1.631-0.055,1.97-1.713,2.084
			c-2.326,0.16-2.439,0.328-1.7,2.548c0.473,1.422,0.474,1.432,1.988,1.275c1.687-0.176,3.371-0.514,5.06-0.028
			C36.596,43.467,36.742,43.517,37,43.599z"/>
		<path style="fill-rule:evenodd;clip-rule:evenodd;" d="M48.169,47.303c-0.548-0.517-1.074-1.012-1.633-1.539
			c1.1-2.175,2.175-4.318,3.266-6.453c1.24-2.427,2.485-4.851,3.752-7.264c0.125-0.239,0.403-0.477,0.653-0.538
			c0.13-0.032,0.42,0.294,0.526,0.513c2.122,4.412,4.231,8.829,6.333,13.25c0.508,1.068,0.206,1.812-0.865,2.228
			c-0.975,0.379-1.337,0.272-1.801-0.673c-0.487-0.992-0.902-2.019-1.355-3.028c-0.27-0.601-0.618-0.894-1.385-0.717
			c-0.955,0.221-1.957,0.254-2.941,0.322c-2.23,0.153-4.045,1.115-4.174,3.494C48.542,46.959,48.444,47.013,48.169,47.303z
			 M56.04,40.27c-1.224-0.689-0.649-2.687-2.427-2.85c-0.588,1.284-1.137,2.481-1.686,3.678c0.063,0.071,0.126,0.142,0.19,0.213
			C53.315,40.82,54.768,41.532,56.04,40.27z"/>
		<path style="fill-rule:evenodd;clip-rule:evenodd;" d="M126.143,31.581c1.376,0.207,1.992,0.924,2.208,1.891
			c0.264,1.184,0.446,2.404,0.492,3.615c0.11,2.875-0.224,5.761,0.354,8.626c0.208,1.032-0.31,1.658-1.142,1.743
			c-0.917,0.093-1.703-0.513-1.772-1.498c-0.056-0.781,0.035-1.574,0.088-2.36c0.042-0.629,0.165-1.255,0.18-1.884
			c0.029-1.195-0.27-1.481-1.454-1.436c-0.43,0.017-0.863,0.083-1.285,0.173c-0.963,0.204-1.921,0.437-3.044,0.695
			c-0.077,1.61-0.157,3.289-0.241,5.051c-0.704,0-1.35,0-2.107,0c-0.275-4.903-0.551-9.807-0.832-14.803
			c0.866-0.047,1.759,0.315,2.504,0.957c0.217,0.188,0.216,0.689,0.222,1.048c0.021,1.565,0.009,3.13,0.009,4.84
			c1.741,0,3.272,0.056,4.797-0.021c0.927-0.046,1.043-0.921,1.092-1.594c0.072-1.018-0.043-2.048-0.065-3.074
			C126.132,32.939,126.143,32.327,126.143,31.581z"/>
		<path style="fill-rule:evenodd;clip-rule:evenodd;" d="M142.948,35.197c0.154,1.205,0.303,2.36,0.454,3.537
			c1.323,0,2.65,0,4.191,0c0.099,0.843,0.2,1.703,0.316,2.688c-1.367,0.06-2.539,0.151-3.711,0.148
			c-0.683-0.001-0.94,0.272-0.897,0.913c0.024,0.354,0.013,0.715,0.085,1.059c0.247,1.189,0.364,1.188,1.587,1.176
			c1.963-0.02,3.928,0.057,5.891,0.135c0.365,0.014,0.723,0.229,1.176,0.382c-0.594,0.959-1.403,1.444-2.324,1.645
			c-0.877,0.19-1.798,0.263-2.697,0.25c-1.65-0.025-3.3-0.152-5.128-0.246c-0.94-4.728-1.04-9.636-1.116-14.646
			c0.335-0.069,0.628-0.178,0.922-0.183c1.263-0.02,2.528,0.03,3.789-0.021c1.336-0.054,2.677-0.138,3.999-0.322
			c0.612-0.085,0.953,0.089,1.062,0.615c0.126,0.611,0.2,1.254,0.149,1.871c-0.02,0.235-0.432,0.601-0.691,0.625
			c-1.167,0.109-2.345,0.173-3.517,0.144C145.315,34.938,144.143,34.719,142.948,35.197z"/>
		<path style="fill-rule:evenodd;clip-rule:evenodd;" d="M17.006,108.398c-0.471,0.287-0.979,0.529-1.406,0.873
			c-0.61,0.493-1.132,1.098-1.75,1.58c-0.32,0.249-0.766,0.337-1.232,0.53c-0.411-0.823-0.43-1.578,0.009-2.208
			c0.578-0.831,1.249-1.616,1.979-2.317c0.962-0.923,2.021-1.747,3.1-2.666c0.763,0.035,0.835,0.755,1.007,1.32
			c0.755,2.486,0.842,5.039,0.667,7.61c-0.064,0.938-0.16,1.874-0.24,2.797c-1.296,0.168-1.876-0.215-1.977-1.389
			c-0.06-0.7,0.034-1.414,0.067-2.121c0.058-1.245,0.122-2.488,0.184-3.732C17.278,108.582,17.142,108.49,17.006,108.398z"/>
		<path style="fill-rule:evenodd;clip-rule:evenodd;" d="M80.858,22.465c-1.254-0.442-1.953-1.232-2.086-2.361
			c-0.16-1.363-0.154-2.745-0.208-4.12c-0.037-0.943,0.02-1.897-0.105-2.828c-0.093-0.692,0.152-1.036,0.729-1.277
			c0.612-0.256,1.097-0.061,1.427,0.458c0.271,0.426,0.535,0.886,0.666,1.369c0.664,2.436,0.716,4.895,0.109,7.352
			C81.28,21.506,81.064,21.929,80.858,22.465z"/>
		<path style="fill-rule:evenodd;clip-rule:evenodd;" d="M80.456,6.481c-0.618-0.259-1.253-0.527-1.89-0.792
			c-0.726-0.301-0.665-0.956-0.542-1.5c0.109-0.481,0.381-1.176,0.737-1.29c0.454-0.145,1.17,0.056,1.584,0.362
			C81.192,3.889,81.204,5.175,80.456,6.481z"/>
		<path style="fill-rule:evenodd;clip-rule:evenodd;fill:none;" d="M56.084,190.318c-0.207-14.346-0.411-28.542-0.617-42.839
			c7.276-0.404,14.547,0.649,21.933-0.597c0.052,14.356,0.665,28.554-0.476,42.899C69.908,189.326,63.034,189.877,56.084,190.318z"
			/>
		<path style="fill-rule:evenodd;clip-rule:evenodd;fill:none;" d="M80.184,189.937c0-1.286,0.041-2.541-0.007-3.793
			c-0.186-4.814-0.473-9.626-0.571-14.442c-0.05-2.437,0.057-4.903,0.396-7.314c0.364-2.59,0.037-5.116-0.126-7.672
			c-0.158-2.48-0.256-4.967-0.34-7.451c-0.021-0.622,0.113-1.25,0.177-1.896c7.077-0.189,14.086-0.378,21.108-0.566
			c0.643,2.104,0.628,39.486-0.034,43.136C94.016,189.937,87.24,189.937,80.184,189.937z"/>
		<path style="fill-rule:evenodd;clip-rule:evenodd;fill:none;" d="M123.616,189.79c-6.766,0.122-13.378,0.242-20.049,0.362
			c-1.045-14.617,0.362-28.998-0.009-43.559c6.739,0,13.354,0,20.138,0C124.658,160.888,123.877,175.241,123.616,189.79z"/>
		<path style="fill-rule:evenodd;clip-rule:evenodd;fill:none;" d="M99.748,97.847c-6.879,0-13.779,0-20.827,0
			c-0.041-0.357-0.121-0.73-0.122-1.104c-0.007-5.253,0.049-10.508-0.018-15.761c-0.081-6.32-0.268-12.638-0.402-18.957
			c-0.02-0.939-0.003-1.879-0.003-2.917c7.117,0,14.203,0,21.279,0C100.127,61.183,100.219,95.229,99.748,97.847z"/>
		<path style="fill-rule:evenodd;clip-rule:evenodd;fill:none;" d="M104.971,234.845c-0.301-14.059-0.598-27.947-0.898-41.996
			c6.461-0.678,13.067-0.149,19.817-0.227c-0.649,13.946,0.61,27.715,1.138,41.65C118.297,234.808,111.635,235.049,104.971,234.845z
			"/>
		<path style="fill-rule:evenodd;clip-rule:evenodd;fill:none;" d="M75.988,97.967c-1.59,0-3.045,0-4.5,0
			c-5.02,0-10.041,0.004-15.061-0.001c-1.943-0.002-2.138-0.31-1.699-2.273c0.188-0.837,0.31-1.711,0.3-2.566
			c-0.088-7.981-0.252-15.962-0.304-23.943c-0.021-3.153,0.186-6.308,0.292-9.529c7.032-0.176,13.959-0.349,21.043-0.525
			C76.915,71.997,75.995,84.852,75.988,97.967z"/>
		<path style="fill-rule:evenodd;clip-rule:evenodd;fill:none;" d="M125.689,146.886c2.145-0.159,4.146-0.317,6.147-0.456
			c3.742-0.258,7.486-0.484,11.227-0.766c1.539-0.115,1.547-0.127,1.586,1.479c0.13,5.291,0.299,10.582,0.418,15.873
			c0.087,3.87,0.217,7.743,0.135,11.61c-0.044,2.037-0.439,4.077-0.793,6.096c-0.347,1.974-0.532,3.906,0.235,5.825
			c0.115,0.287,0.142,0.616,0.176,0.929c0.084,0.774-0.171,1.312-1.032,1.398c-2.231,0.226-4.459,0.583-6.695,0.649
			c-3.658,0.109-7.322,0.03-11.152,0.03c-0.049-1.621-0.165-3.346-0.14-5.067c0.1-6.752,0.24-13.505,0.375-20.257
			c0.104-5.176,0.167-10.351-0.367-15.512C125.752,148.174,125.735,147.623,125.689,146.886z"/>
		<path style="fill-rule:evenodd;clip-rule:evenodd;fill:none;" d="M53.103,190.311c-6.123,0.657-12.085,0.358-18.21,0.59
			c0-0.573,0.01-1.03-0.001-1.485c-0.225-9.126-0.495-18.252-0.66-27.379c-0.081-4.503-0.011-9.011,0.076-13.515
			c0.032-1.641,0.143-1.549,1.747-1.506c4.385,0.115,8.772,0.15,13.159,0.213c0.791,0.011,1.582-0.008,2.372,0.006
			c1.143,0.018,1.22,0.091,1.232,1.209c0.026,2.41,0.045,4.821,0.062,7.233c0.076,11.028,0.15,22.058,0.225,33.086
			C53.105,189.23,53.103,189.698,53.103,190.311z"/>
		<path style="fill-rule:evenodd;clip-rule:evenodd;fill:none;" d="M144.932,192.698c0.092,13.694,1.483,27.279,0.824,41.005
			c-6.279,0.379-12.434,1.082-18.745,0.618c-0.028-13.937-1.61-27.708-1.064-41.623
			C132.269,192.698,138.498,192.698,144.932,192.698z"/>
		<path style="fill-rule:evenodd;clip-rule:evenodd;fill:none;" d="M122.524,58.853c0.315,12.744-0.567,25.515-0.271,38.497
			c-6.481,0-12.818,0-19.277,0c-0.076-1.174-0.211-2.462-0.233-3.752c-0.157-9.05-0.302-18.1-0.422-27.149
			c-0.028-2.093,0.087-4.188,0.073-6.282c-0.006-0.77,0.273-1.061,1.019-1.079c2.644-0.062,5.286-0.195,7.929-0.224
			C115.007,58.823,118.672,58.853,122.524,58.853z"/>
		<path style="fill-rule:evenodd;clip-rule:evenodd;fill:none;" d="M79.994,193.15c7.152-0.17,14.131-0.336,21.218-0.504
			c0.111,1.15,0.272,2.236,0.312,3.327c0.197,5.368,0.389,10.736,0.533,16.105c0.192,7.186,0.34,14.373,0.506,21.56
			c0.006,0.271,0,0.542,0,0.885c-7.215,0.822-14.383-0.028-21.688,0.304c0-1.944-0.03-3.79,0.033-5.634
			c0.009-0.264,0.422-0.6,0.724-0.751c1.305-0.652,2.681-1.171,3.95-1.883c2.239-1.255,3.625-3.127,3.774-5.781
			c0.133-2.34-0.662-4.337-2.217-6.052c-1.615-1.782-3.616-2.947-5.948-3.461c-0.814-0.179-0.997-0.534-0.997-1.277
			c0-2.924-0.042-5.848-0.082-8.771c-0.03-2.211-0.08-4.422-0.118-6.633C79.987,194.158,79.994,193.732,79.994,193.15z
			 M89.852,208.918c0.126,0.76,0.166,1.477,0.377,2.138c0.221,0.691,0.48,1.51,1.387,1.55c0.576,0.026,0.869-0.87,0.774-2.006
			c-0.055-0.655-0.064-1.314-0.098-2.046c0.921-0.08,1.706-0.116,2.482-0.225c0.669-0.094,1.524-0.918,1.302-1.296
			c-0.236-0.4-0.787-0.666-1.253-0.862c-0.302-0.127-0.7-0.036-1.054-0.02c-0.537,0.025-1.073,0.071-1.49,0.101
			c-0.152-1.114-0.203-2.095-0.438-3.029c-0.226-0.898-0.807-1.046-1.603-0.545c-0.266,0.167-0.517,0.354-0.774,0.532
			c0.114,0.049,0.228,0.097,0.341,0.145c0.086,0.979,0.172,1.957,0.252,2.888c-1.707,0.521-1.842,0.453-1.951-1.058
			c-0.049-0.664,0.053-1.338,0.049-2.007c-0.006-0.863,0.01-1.734-0.098-2.588c-0.094-0.737-0.514-1.303-1.36-1.522
			c-0.735,1.901-0.954,3.835-0.812,5.819C86.082,207.655,87.082,208.686,89.852,208.918z"/>
		<path style="fill-rule:evenodd;clip-rule:evenodd;fill:none;" d="M124.554,96.94c0.255-12.755,0.508-25.424,0.763-38.172
			c6.306,0,12.453,0,18.771,0c0.3,12.729,0.223,25.397-0.004,38.172C137.577,96.94,131.13,96.94,124.554,96.94z"/>
		<path style="fill-rule:evenodd;clip-rule:evenodd;fill:none;" d="M52.381,59.634c0,12.842,0,25.357,0,37.87
			c-2.613,0.485-16.798,0.822-19.232-0.038c1.299-12.616-0.06-25.329,0.493-38.225C39.904,59.373,46.125,59.503,52.381,59.634z"/>
		<path style="fill-rule:evenodd;clip-rule:evenodd;fill:none;" d="M78.311,228.961c0,1.938,0,3.971,0,6.147
			c-7.294-0.638-14.5,0.698-21.738-0.242c0-5.574,0-11.086,0-16.698c0.098-0.04,0.265-0.133,0.444-0.176
			c2.905-0.693,4.647-2.628,5.464-5.379c0.89-2.998,0.727-5.947-1.019-8.658c-0.239-0.372-0.638-0.683-1.029-0.906
			c-1.367-0.783-2.768-1.506-4.142-2.277c-0.17-0.096-0.354-0.351-0.355-0.534c-0.024-2.32-0.016-4.641-0.016-7.142
			c7.022,0,13.913,0,20.993,0c0.131,1.476,0.337,3.068,0.401,4.668c0.159,3.985,0.239,7.975,0.39,11.961
			c0.021,0.556-0.153,0.814-0.658,0.913c-4.341,0.851-6.541,5.499-6.236,9.791c0.112,1.585,0.492,3.118,1.332,4.5
			c1.163,1.917,2.777,3.208,5.022,3.628c0.271,0.051,0.541,0.114,0.809,0.184C78.042,228.759,78.101,228.822,78.311,228.961z"/>
		<path style="fill-rule:evenodd;clip-rule:evenodd;fill:none;" d="M35.96,235.03c-0.458-13.841-0.915-27.641-1.376-41.589
			c6.285-0.037,12.421-0.659,18.683,0.035c0,2.423,0,4.854,0,7.383c-0.216,0.078-0.495,0.209-0.788,0.281
			c-3.431,0.854-5.55,3.13-5.906,6.702c-0.367,3.688,0.75,6.907,3.769,9.221c0.976,0.748,2.2,1.174,3.393,1.789
			c0,5.251,0,10.687,0,16.178C47.721,235.03,41.858,235.03,35.96,235.03z M41.245,229.384c-0.422,0.808-0.19,1.333,0.256,1.775
			c0.391,0.388,0.827,0.73,1.258,1.076c2.023,1.621,5.606,0.501,6.267-1.999c0.349-1.32,0.082-2.599-0.732-3.711
			c-0.306-0.419-0.399-0.774-0.247-1.297c0.878-3.022-1.819-4.702-3.86-4.669c-1.451,0.023-2.274,0.841-2.473,2.307
			c0.751,0.407,0.751,0.407,2.595,0.154c1.264-0.174,2.024,0.102,2.236,0.81c0.212,0.711-0.412,1.517-1.541,1.947
			c-0.653,0.249-1.319,0.462-1.957,0.684c0.192,1.321,0.44,1.575,1.54,1.61c0.591,0.019,1.187-0.039,1.775,0.009
			c0.45,0.037,0.85,0.204,0.791,0.809c-0.145,1.485-1.988,2.493-3.307,1.806C42.988,230.247,42.118,229.823,41.245,229.384z"/>
		<path style="fill-rule:evenodd;clip-rule:evenodd;fill:none;" d="M55.668,144.471c-0.619-4.614-0.601-8.977-0.292-13.463
			c7.147,0.093,14.236,0.186,21.375,0.279c0.11,4.243,0.219,8.443,0.334,12.86C69.929,144.254,62.844,144.362,55.668,144.471z"/>
		<path style="fill-rule:evenodd;clip-rule:evenodd;fill:none;" d="M79.62,144.027c-0.151-4.346-0.299-8.596-0.452-13
			c7.236,0.633,14.396-0.705,21.596,0.213c0,1.169-0.031,2.296,0.006,3.421c0.086,2.603,0.236,5.204,0.296,7.808
			c0.032,1.396-0.049,1.517-1.437,1.562c-3.194,0.104-6.392,0.138-9.588,0.144c-3.118,0.004-6.236-0.062-9.354-0.1
			C80.415,144.07,80.144,144.051,79.62,144.027z"/>
		<path style="fill-rule:evenodd;clip-rule:evenodd;fill:none;" d="M103.461,130.869c6.427-0.145,12.958-0.292,19.568-0.441
			c0.183,4.42,0.359,8.702,0.542,13.12c-1.758,0.145-3.474,0.365-5.194,0.41c-4.461,0.119-8.924,0.175-13.387,0.223
			c-1.229,0.012-1.248-0.042-1.295-1.262c-0.148-3.867-0.281-7.734-0.416-11.603C103.277,131.247,103.334,131.176,103.461,130.869z"
			/>
		<path style="fill-rule:evenodd;clip-rule:evenodd;fill:none;" d="M125.35,130.412c6.488-0.857,12.837-0.338,19.311-0.556
			c0.068,4.49,0.453,8.879-0.331,13.37c-6.114,0.232-12.202,0.464-18.51,0.704C125.659,139.318,125.506,134.925,125.35,130.412z"/>
		<path style="fill-rule:evenodd;clip-rule:evenodd;fill:none;" d="M52.286,144.334c-6.124,0-12.065,0-17.988,0
			c0-4.363,0-8.678,0-13.067c6.111-0.068,12.063-1.248,17.988-0.31C52.286,135.458,52.286,139.857,52.286,144.334z"/>
		<path style="fill-rule:evenodd;clip-rule:evenodd;fill:none;" d="M78.763,109.422c0-3.046,0-5.912,0-8.879
			c7.224-0.188,14.329-0.372,21.554-0.56c0.105,3.318,0.205,6.406,0.301,9.439C93.257,109.422,85.992,109.422,78.763,109.422z"/>
		<path style="fill-rule:evenodd;clip-rule:evenodd;fill:none;" d="M121.98,99.096c1.062,3.332-0.016,6.625,0.262,10.151
			c-6.468,0.03-12.771,0.059-19.246,0.088c-0.262-2.958-0.797-6.133-0.262-9.535C109.133,99.566,115.477,99.334,121.98,99.096z"/>
		<path style="fill-rule:evenodd;clip-rule:evenodd;fill:none;" d="M143.985,99.155c0,3.019,0,6,0,9.106
			c-6.446,0.876-12.903,0.77-19.336,1.087c0-3.092-0.003-6.043,0.003-8.993c0.002-0.754,0.535-0.876,1.133-0.899
			c2.602-0.1,5.202-0.25,7.804-0.289C137.021,99.118,140.455,99.155,143.985,99.155z"/>
		<path style="fill-rule:evenodd;clip-rule:evenodd;fill:none;" d="M75.42,100.536c0.755,2.849,0.384,5.802,0.534,8.817
			c-7.055,0.883-14.031-0.227-21.188,0.295c-0.129-1.259-0.337-2.449-0.352-3.642c-0.019-1.457,0.129-2.915,0.196-4.372
			c0.038-0.805,0.532-0.912,1.21-0.9c3.196,0.055,6.393,0.13,9.588,0.096C68.713,100.795,72.016,100.642,75.42,100.536z"/>
		<path style="fill-rule:evenodd;clip-rule:evenodd;fill:none;" d="M33.514,100.754c6.286,0,12.427,0,18.746,0
			c0,3.083,0,6.028,0,9.1c-6.114,0.202-12.367,0.408-18.7,0.617C32.977,107.199,33.304,104.028,33.514,100.754z"/>
		<path style="fill-rule:evenodd;clip-rule:evenodd;fill:none;" d="M76.039,44.668c-0.712-4.147-0.888-7.83-0.464-9.771
			c2.095-0.129,4.16,0.075,6.015,1.158c0.717,0.419,1.383,1.081,1.823,1.788c0.94,1.512,0.712,2.661-0.542,3.912
			C80.997,43.627,78.702,44.483,76.039,44.668z"/>
		<path style="fill-rule:evenodd;clip-rule:evenodd;fill:none;" d="M56.04,40.27c-1.272,1.263-2.725,0.55-3.923,1.042
			c-0.063-0.071-0.126-0.142-0.19-0.213c0.549-1.197,1.097-2.394,1.686-3.678C55.391,37.583,54.816,39.58,56.04,40.27z"/>
		<path style="fill-rule:evenodd;clip-rule:evenodd;" d="M89.852,208.918c-2.77-0.232-3.77-1.263-3.967-4.031
			c-0.142-1.984,0.077-3.918,0.812-5.819c0.847,0.22,1.267,0.785,1.36,1.522c0.107,0.854,0.092,1.725,0.098,2.588
			c0.004,0.669-0.098,1.343-0.049,2.007c0.109,1.511,0.244,1.579,1.951,1.058c-0.08-0.931-0.166-1.909-0.252-2.888
			c-0.113-0.048-0.227-0.096-0.341-0.145c0.258-0.178,0.509-0.365,0.774-0.532c0.796-0.501,1.377-0.354,1.603,0.545
			c0.235,0.935,0.286,1.915,0.438,3.029c0.417-0.029,0.953-0.075,1.49-0.101c0.354-0.017,0.752-0.107,1.054,0.02
			c0.466,0.196,1.017,0.462,1.253,0.862c0.223,0.378-0.633,1.202-1.302,1.296c-0.776,0.108-1.562,0.145-2.482,0.225
			c0.033,0.731,0.043,1.391,0.098,2.046c0.095,1.136-0.198,2.032-0.774,2.006c-0.906-0.04-1.166-0.858-1.387-1.55
			C90.018,210.395,89.978,209.678,89.852,208.918z"/>
		<path style="fill-rule:evenodd;clip-rule:evenodd;" d="M41.245,229.384c0.873,0.439,1.743,0.863,2.6,1.311
			c1.319,0.688,3.163-0.32,3.307-1.806c0.059-0.604-0.341-0.771-0.791-0.809c-0.588-0.048-1.184,0.01-1.775-0.009
			c-1.1-0.035-1.348-0.289-1.54-1.61c0.638-0.222,1.304-0.435,1.957-0.684c1.128-0.431,1.752-1.236,1.541-1.947
			c-0.211-0.708-0.972-0.983-2.236-0.81c-1.844,0.253-1.844,0.253-2.595-0.154c0.199-1.466,1.022-2.283,2.473-2.307
			c2.041-0.033,4.739,1.646,3.86,4.669c-0.152,0.522-0.059,0.878,0.247,1.297c0.813,1.112,1.081,2.391,0.732,3.711
			c-0.66,2.5-4.244,3.62-6.267,1.999c-0.431-0.346-0.867-0.688-1.258-1.076C41.055,230.717,40.823,230.191,41.245,229.384z"/>
	</g>
</g>
<g id="Layer_1">
</g>
</svg>
