<?xml version="1.0" encoding="iso-8859-1"?>
<!-- Generator: Adobe Illustrator 16.0.0, SVG Export Plug-In . SVG Version: 6.00 Build 0)  -->
<!DOCTYPE svg PUBLIC "-//W3C//DTD SVG 1.1//EN" "http://www.w3.org/Graphics/SVG/1.1/DTD/svg11.dtd">
<svg version="1.1" xmlns="http://www.w3.org/2000/svg" xmlns:xlink="http://www.w3.org/1999/xlink" x="0px" y="0px"
	 width="175.919px" height="232.949px" viewBox="0 0 175.919 232.949" style="enable-background:new 0 0 175.919 232.949;"
	 xml:space="preserve">
<g id="A">
	<g id="A_1_">
		<path style="fill:none;" d="M175.919,232.949c-58.64,0-117.279,0-175.919,0c0-79.76,0-159.52,0-239.28
			c58.64,0,117.279,0,175.919,0C175.919,73.429,175.919,153.189,175.919,232.949z M16.587,152.885
			c1.267,1.061,2.75,1.115,4.288,1.016c1.355-0.088,2.713-0.117,4.07-0.176c0.744-0.031,1.06,0.264,1.042,1.062
			c-0.054,2.4-0.027,4.801-0.047,7.199c-0.089,10.754-0.184,21.508-0.273,32.264c-0.011,1.262-0.001,2.523-0.001,4.012
			c-2.854,0-5.559,0-8.427,0c0.214,0.863,0.317,1.492,0.528,2.084c0.327,0.912,0.855,1.213,1.927,0.902
			c1.397-0.406,2.881-0.609,4.339-0.682c1.736-0.088,1.785,0.039,1.877,1.797c0.181,3.434,0.328,6.869,0.523,10.301
			c0.076,1.326,0.244,2.646,0.374,4.008c2.104-0.697,2.483-1.363,2.372-3.281c-0.123-2.113-0.143-4.236-0.125-6.354
			c0.019-2.143,0.139-4.285,0.216-6.488c6.327,0.281,12.494-0.781,18.689-0.059c0,5.207,0,10.311,0,15.479
			c0.16,0.051,0.341,0.117,0.527,0.166c1.513,0.4,1.633,0.404,1.687-1.15c0.116-3.35,0.1-6.705,0.128-10.057
			c0.013-1.51,0.002-3.02,0.002-4.629c1.148,0,2.216-0.004,3.284,0c5.879,0.027,11.758,0.074,17.637,0.072
			c1.141,0,1.48,0.342,1.395,1.547c-0.224,3.146-0.328,6.305-0.345,9.461c-0.006,1.059,0.396,2.119,0.647,3.361
			c1.722-1.043,2.346-2.396,2.41-3.961c0.071-1.75-0.096-3.51-0.085-5.264c0.01-1.512,0.088-3.023,0.212-4.529
			c0.053-0.639,0.378-0.982,1.194-0.977c6.037,0.045,12.074,0.016,18.111,0.008c0.82,0,1.639,0,2.37,0
			c-0.136,3.785-0.271,7.494-0.401,11.203c-0.042,1.184,0.457,2.518-1.041,3.193c0.989,1.199,2.105,1.611,3.117,1.207
			c1.23-0.49,0.612-1.553,0.715-2.393c0.01-0.076-0.023-0.158-0.022-0.238c0.043-3.834,0.087-7.668,0.133-11.502
			c0.013-0.998,0.421-1.457,1.522-1.457c5.996,0,11.992-0.072,17.988-0.107c0.257-0.002,0.515,0.096,0.589,0.109
			c0.258,1.635,0.446,3.135,0.742,4.615c0.326,1.635,0.385,3.225-0.123,4.846c-0.271,0.865-0.388,1.801-0.418,2.709
			c-0.033,1.041,0.373,1.92,1.568,2.461c0.315-0.748,0.805-1.418,0.855-2.119c0.148-2.059,0.156-4.131,0.154-6.197
			c-0.002-1.828-0.111-3.654-0.133-5.482c-0.008-0.674,0.375-0.955,1.082-0.953c5.719,0.018,11.438,0.016,17.158-0.008
			c0.678-0.002,0.91,0.254,0.934,0.906c0.041,1.236,0.191,2.471,0.215,3.707c0.06,3.068,0.071,6.139,0.104,9.207
			c0.006,0.439-0.146,1.016,0.072,1.283c0.35,0.428,0.923,0.764,1.461,0.895c0.185,0.047,0.699-0.6,0.795-0.994
			c0.156-0.648,0.135-1.352,0.115-2.027c-0.094-3.236-0.262-6.469-0.295-9.703c-0.012-1.08,0.297-2.164,0.445-3.154
			c3.338,0,6.443,0,9.617,0c0-0.367,0.018-0.717-0.003-1.064c-0.11-1.893-0.272-2.076-2.15-2.268
			c-1.072-0.109-2.151-0.148-3.226-0.246c-1.374-0.127-2.746-0.281-4.14-0.426c0.06-0.83,0.153-1.463,0.145-2.094
			c-0.058-3.996-0.226-7.992-0.188-11.986c0.049-5.195,0.26-10.389,0.393-15.582c0.107-4.156,0.234-8.312,0.28-12.471
			c0.013-1.139,0.448-1.488,1.503-1.305c0.825,0.145,1.654,0.287,2.486,0.365c1.377,0.133,2.766,0.254,3.945-0.715
			c-0.922-1.93-0.922-1.928-2.871-1.822c-1.475,0.08-2.949,0.154-4.424,0.229c-0.795,0.039-1.148-0.297-1.135-1.137
			c0.018-1.037-0.122-2.076-0.127-3.113c-0.039-8.559-0.119-17.117-0.068-25.676c0.025-4.113,0.27-8.226,0.484-12.336
			c0.145-2.768,0.377-2.88,3.131-2.502c1.381,0.19,2.777,0.317,4.17,0.342c1.115,0.02,2.027-0.49,2.793-1.724
			c-1.471-0.334-2.727-0.766-4.011-0.876c-1.706-0.146-3.433-0.067-5.15-0.036c-1.021,0.018-1.5-0.261-1.447-1.435
			c0.139-3.074,0.197-6.155,0.188-9.232c-0.026-8.518-0.084-17.034-0.182-25.552c-0.012-1.146,0.161-1.833,1.504-1.771
			c0.832,0.038,1.672-0.171,2.506-0.159c2.277,0.031,4.556,0.102,6.832,0.198c0.779,0.033,1.235-0.151,1.188-1.035
			c-0.098-1.781-0.172-3.564-0.248-5.348c-0.046-1.082-0.67-1.377-1.658-1.345c-2.078,0.068-4.157,0.089-6.236,0.109
			c-5.792,0.057-11.584,0.174-17.376,0.138c-8.595-0.054-17.189-0.387-25.781-0.294c-10.43,0.112-20.855,0.706-31.285,0.794
			c-13.315,0.111-26.633-0.061-39.95-0.141c-3.917-0.024-7.833-0.163-11.75-0.226c-1.86-0.03-3.721-0.006-5.478-0.006
			c0,2.104,0.022,4.092-0.008,6.079c-0.019,1.303,0.7,1.741,1.863,1.749c0.36,0.003,0.719,0.031,1.079,0.032
			c1.675,0.002,3.35,0,5.025-0.003c0.726-0.002,1.023,0.277,1.047,1.079c0.154,5.193,0.461,10.383,0.542,15.577
			c0.105,6.676-0.075,13.348-1.082,19.971c-0.283,1.86-0.576,2.089-2.477,1.73c-1.213-0.229-2.437-0.571-3.651-0.555
			c-0.576,0.008-1.142,0.736-1.713,1.138c0.378,0.471,0.667,1.127,1.158,1.366c0.611,0.298,1.387,0.295,2.096,0.344
			c1.275,0.088,2.556,0.088,3.83,0.181c0.858,0.062,1.281,0.449,1.265,1.456c-0.041,2.597,0.082,5.194,0.112,7.793
			c0.11,9.236,0.244,18.472,0.289,27.708c0.013,2.535-0.252,5.072-0.397,7.744c-1.176-0.064-2.165-0.125-3.154-0.174
			c-1.353-0.064-2.708-0.18-4.061-0.162C17.562,151.346,16.848,151.832,16.587,152.885z M77.595,26.307
			c0.003,1.123,0.542,1.715,1.578,2.013c1.087,0.313,1.329-0.549,1.647-1.167c0.435-0.847,0.697-1.78,1.061-2.665
			c0.403-0.98,1.008-1.653,2.197-1.727c1.912-0.118,3.824-0.296,5.721-0.557c2.108-0.289,3.442,0.335,4.046,2.547
			c0.256,0.933,1.052,1.774,1.753,2.514c0.682,0.719,1.546,0.599,2.424,0.135c0.917-0.483,0.55-1.18,0.341-1.754
			c-0.733-2.02-1.377-4.103-2.381-5.988c-1.65-3.099-3.604-6.034-5.325-9.096c-0.581-1.034-1.056-1.85-2.395-2.119
			c-1.759-0.353-1.759-0.512-2.615,1.101c-1.479,2.786-2.959,5.572-4.396,8.38c-1.068,2.088-2.095,4.197-3.08,6.325
			C77.874,24.886,77.781,25.619,77.595,26.307z M68.959,52.85c-0.115,0.074-0.231,0.148-0.347,0.224
			c0.575,0.381,1.131,1.059,1.727,1.094c3.982,0.239,7.741-0.457,10.747-3.346c2.488-2.393,2.605-5.418,0.355-8.016
			c-2.333-2.692-5.379-3.875-8.879-4.04c-0.506-0.023-1.009-0.112-1.646-0.188c-0.329,0.192-0.876,0.443-1.336,0.805
			c-0.308,0.241-0.667,0.624-0.699,0.972c-0.112,1.187-0.172,2.39-0.103,3.578c0.144,2.47,0.412,4.932,0.561,7.401
			C69.369,51.83,69.094,52.344,68.959,52.85z M96.021,46.518c0.444,2.736,0.542,2.8,2.851,2.237c0.31-0.075,0.625-0.193,0.935-0.184
			c0.523,0.018,1.044,0.122,1.69,0.206c-0.195,0.468-0.271,0.733-0.408,0.961c-0.977,1.618-3.115,2.309-5.543,1.914
			c-0.905-0.147-1.524-0.509-1.967-1.321c-1.316-2.417-0.763-6.228,1.225-8.123c1.846-1.761,3.996-1.61,5.72,0.301
			c0.429,0.477,1.127,0.71,1.794,1.111c0.314-1.933-0.32-3.193-1.896-3.996c-1.837-0.936-3.952-1.344-5.622-0.229
			c-1.764,1.178-3.072,3.038-4.57,4.609c-0.068,0.072-0.052,0.229-0.066,0.349c-0.568,4.589,3.881,9.771,8.508,9.775
			c1.264,0.001,2.526-0.419,3.82-0.651c0.029,0.512,0.065,1.134,0.102,1.779c0.347,0.035,0.58,0.075,0.813,0.079
			c1.653,0.031,1.884-0.231,1.739-1.866c-0.059-0.676,0.002-1.365-0.09-2.035c-0.186-1.339-0.314-2.707-0.717-3.984
			c-0.191-0.605-0.965-1.465-1.465-1.459C100.623,46.016,98.375,46.311,96.021,46.518z M23.88,46.742
			c1.104-0.149,2.113-0.306,3.127-0.417c1.09-0.12,0.862-0.951,0.897-1.622c0.035-0.67-0.16-1.149-0.988-1.162
			c-0.795-0.013-1.639,0.001-2.366-0.262c-0.483-0.174-1.007-0.757-1.14-1.257c-0.195-0.73,0.308-1.114,1.117-1.128
			c1.631-0.025,3.262-0.107,4.89-0.204c0.353-0.021,0.898-0.104,1.007-0.327c0.39-0.801,0.629-1.673,0.951-2.591
			c-3.255-0.767-6.274-0.729-9.317-0.004c-0.768,0.184-0.998,0.517-0.936,1.215c0.289,3.292,0.531,6.59,0.882,9.875
			c0.163,1.519,0.537,3.016,0.789,4.379c2.611-0.096,5.001-0.185,7.391-0.269c1.748-0.062,2.419-1.079,1.883-2.787
			c-2.512,0-5.008,0-7.53,0C24.323,49.061,24.115,47.974,23.88,46.742z M43.697,54.168c0.3-2.472,1.914-3.457,4.059-3.812
			c1.259-0.207,2.525-0.402,3.796-0.479c0.355-0.021,0.896,0.31,1.076,0.632c0.601,1.076,1.01,2.263,1.637,3.321
			c0.222,0.375,0.88,0.747,1.297,0.704c1.141-0.118,1.558-1.003,1.165-2.1c-0.349-0.972-0.682-1.948-1.027-2.92
			c-0.202-0.569-0.291-1.231-0.644-1.686c-2.011-2.586-3.526-5.405-4.38-8.579c-0.095-0.352-0.429-0.639-0.652-0.955
			c-0.322,0.236-0.78,0.401-0.947,0.72c-2.175,4.129-4.339,8.265-6.438,12.433C41.805,53.1,41.881,53.139,43.697,54.168z
			 M123.608,54.59c0.942-0.156,1.781-0.147,2.458-0.476c0.296-0.144,0.369-0.978,0.354-1.492c-0.061-2.058-0.209-4.113-0.299-6.17
			c-0.066-1.548,0.045-3.118-0.179-4.641c-0.19-1.291-0.964-2.32-2.706-2.706c0,2.122,0,4.106,0,6.156
			c-0.961,0-1.634-0.021-2.305,0.006c-0.678,0.026-1.354,0.093-2.029,0.153c-0.85,0.077-1.416-0.231-1.473-1.14
			c-0.054-0.875-0.068-1.754-0.07-2.631c-0.01-2.65,0.424-2.423-2.459-3.042c-0.104-0.022-0.221,0.023-0.358,0.04
			c0.287,4.905,0.573,9.786,0.856,14.632c2.006,0.295,2.166,0.206,2.343-1.592c0.097-0.986,0.007-1.991,0.106-2.977
			c0.029-0.287,0.395-0.732,0.658-0.773c1.297-0.2,2.611-0.291,3.92-0.416c0.829-0.08,1.234,0.19,1.201,1.133
			C123.562,50.488,123.608,52.323,123.608,54.59z M141.187,51.858c-0.046-0.385-0.042-0.585-0.096-0.768
			c-0.653-2.233-0.489-2.441,1.945-2.442c0.859,0,1.719,0,2.614,0c0-0.537,0.046-0.9-0.008-1.248
			c-0.279-1.789-0.288-1.789-2.105-1.647c-0.89,0.069-1.778,0.146-2.604,0.215c-0.197-1.377-0.365-2.537-0.552-3.834
			c2.701,0,5.276,0,7.911,0c0-1.104,0-2.084,0-2.885c-3.521,0-6.826,0-10.275,0c0.382,5.087,0.748,9.961,1.123,14.969
			c3.557-0.419,7.162,1.135,10.384-1.279c-1.15-1.647-2.72-1.477-4.284-1.352C143.931,51.69,142.621,51.763,141.187,51.858z"/>
		<path style="fill-rule:evenodd;clip-rule:evenodd;" d="M16.587,152.885c0.261-1.053,0.975-1.539,1.921-1.553
			c1.353-0.018,2.708,0.098,4.061,0.162c0.989,0.049,1.978,0.109,3.154,0.174c0.145-2.672,0.41-5.209,0.397-7.744
			c-0.045-9.236-0.179-18.473-0.289-27.708c-0.031-2.599-0.153-5.196-0.112-7.793c0.016-1.007-0.407-1.394-1.265-1.456
			c-1.274-0.093-2.555-0.093-3.83-0.181c-0.709-0.049-1.485-0.046-2.096-0.344c-0.491-0.239-0.779-0.896-1.158-1.366
			c0.571-0.401,1.137-1.13,1.713-1.138c1.215-0.017,2.438,0.325,3.651,0.555c1.901,0.358,2.194,0.13,2.477-1.73
			c1.007-6.623,1.187-13.295,1.082-19.971c-0.082-5.194-0.388-10.384-0.542-15.577c-0.023-0.802-0.321-1.081-1.047-1.079
			c-1.675,0.003-3.35,0.005-5.025,0.003c-0.36-0.001-0.719-0.029-1.079-0.032c-1.163-0.008-1.882-0.446-1.863-1.749
			c0.03-1.987,0.008-3.976,0.008-6.079c1.757,0,3.618-0.024,5.478,0.006c3.917,0.062,7.833,0.201,11.75,0.226
			c13.317,0.08,26.635,0.252,39.95,0.141c10.43-0.088,20.855-0.682,31.285-0.794c8.592-0.093,17.187,0.24,25.781,0.294
			c5.792,0.036,11.584-0.081,17.376-0.138c2.079-0.021,4.158-0.041,6.236-0.109c0.988-0.032,1.612,0.263,1.658,1.345
			c0.076,1.783,0.15,3.566,0.248,5.348c0.048,0.884-0.408,1.068-1.188,1.035c-2.276-0.097-4.555-0.167-6.832-0.198
			c-0.834-0.012-1.674,0.197-2.506,0.159c-1.343-0.062-1.516,0.624-1.504,1.771c0.098,8.518,0.155,17.034,0.182,25.552
			c0.009,3.077-0.05,6.158-0.188,9.232c-0.053,1.174,0.427,1.452,1.447,1.435c1.718-0.031,3.444-0.11,5.15,0.036
			c1.284,0.11,2.54,0.542,4.011,0.876c-0.766,1.233-1.678,1.743-2.793,1.724c-1.393-0.024-2.789-0.151-4.17-0.342
			c-2.754-0.378-2.986-0.266-3.131,2.502c-0.215,4.11-0.459,8.224-0.484,12.336c-0.051,8.559,0.029,17.117,0.068,25.676
			c0.005,1.037,0.145,2.076,0.127,3.113c-0.014,0.84,0.34,1.176,1.135,1.137c1.475-0.074,2.949-0.148,4.424-0.229
			c1.949-0.105,1.949-0.107,2.871,1.822c-1.18,0.969-2.568,0.848-3.945,0.715c-0.832-0.078-1.661-0.221-2.486-0.365
			c-1.055-0.184-1.49,0.166-1.503,1.305c-0.046,4.158-0.173,8.314-0.28,12.471c-0.133,5.193-0.344,10.387-0.393,15.582
			c-0.037,3.994,0.131,7.99,0.188,11.986c0.009,0.631-0.085,1.264-0.145,2.094c1.394,0.145,2.766,0.299,4.14,0.426
			c1.074,0.098,2.153,0.137,3.226,0.246c1.878,0.191,2.04,0.375,2.15,2.268c0.021,0.348,0.003,0.697,0.003,1.064
			c-3.174,0-6.279,0-9.617,0c-0.148,0.99-0.457,2.074-0.445,3.154c0.033,3.234,0.201,6.467,0.295,9.703
			c0.02,0.676,0.041,1.379-0.115,2.027c-0.096,0.395-0.61,1.041-0.795,0.994c-0.538-0.131-1.111-0.467-1.461-0.895
			c-0.219-0.268-0.066-0.844-0.072-1.283c-0.032-3.068-0.044-6.139-0.104-9.207c-0.023-1.236-0.174-2.471-0.215-3.707
			c-0.023-0.652-0.256-0.908-0.934-0.906c-5.72,0.023-11.439,0.025-17.158,0.008c-0.707-0.002-1.09,0.279-1.082,0.953
			c0.021,1.828,0.131,3.654,0.133,5.482c0.002,2.066-0.006,4.139-0.154,6.197c-0.051,0.701-0.54,1.371-0.855,2.119
			c-1.195-0.541-1.602-1.42-1.568-2.461c0.03-0.908,0.147-1.844,0.418-2.709c0.508-1.621,0.449-3.211,0.123-4.846
			c-0.296-1.48-0.484-2.98-0.742-4.615c-0.074-0.014-0.332-0.111-0.589-0.109c-5.996,0.035-11.992,0.107-17.988,0.107
			c-1.102,0-1.51,0.459-1.522,1.457c-0.046,3.834-0.09,7.668-0.133,11.502c-0.001,0.08,0.032,0.162,0.022,0.238
			c-0.103,0.84,0.516,1.902-0.715,2.393c-1.012,0.404-2.128-0.008-3.117-1.207c1.498-0.676,0.999-2.01,1.041-3.193
			c0.131-3.709,0.266-7.418,0.401-11.203c-0.731,0-1.55,0-2.37,0c-6.037,0.008-12.074,0.037-18.111-0.008
			c-0.815-0.006-1.141,0.338-1.194,0.977c-0.124,1.506-0.202,3.018-0.212,4.529c-0.011,1.754,0.156,3.514,0.085,5.264
			c-0.064,1.564-0.688,2.918-2.41,3.961c-0.252-1.242-0.653-2.303-0.647-3.361c0.017-3.156,0.121-6.314,0.345-9.461
			c0.085-1.205-0.254-1.547-1.395-1.547c-5.879,0.002-11.758-0.045-17.637-0.072c-1.068-0.004-2.136,0-3.284,0
			c0,1.609,0.01,3.119-0.002,4.629c-0.028,3.352-0.012,6.707-0.128,10.057c-0.054,1.555-0.174,1.551-1.687,1.15
			c-0.186-0.049-0.367-0.115-0.527-0.166c0-5.168,0-10.271,0-15.479c-6.195-0.723-12.363,0.34-18.689,0.059
			c-0.077,2.203-0.197,4.346-0.216,6.488c-0.018,2.117,0.002,4.24,0.125,6.354c0.112,1.918-0.268,2.584-2.372,3.281
			c-0.129-1.361-0.298-2.682-0.374-4.008c-0.195-3.432-0.342-6.867-0.523-10.301c-0.092-1.758-0.141-1.885-1.877-1.797
			c-1.458,0.072-2.942,0.275-4.339,0.682c-1.072,0.311-1.6,0.01-1.927-0.902c-0.211-0.592-0.314-1.221-0.528-2.084
			c2.868,0,5.573,0,8.427,0c0-1.488-0.009-2.75,0.001-4.012c0.089-10.756,0.184-21.51,0.273-32.264
			c0.02-2.398-0.006-4.799,0.047-7.199c0.018-0.799-0.297-1.094-1.042-1.062c-1.356,0.059-2.715,0.088-4.07,0.176
			C19.337,154,17.854,153.945,16.587,152.885z M97.521,197.23c0-14.391,0-28.664,0-42.832c-7.311,0-14.571,0-21.863,0
			c-0.049,0.359-0.1,0.551-0.096,0.74c0.075,3.867,0.228,7.734,0.209,11.6c-0.012,2.504-0.402,5.008-0.396,7.51
			c0.012,5.193,0.189,10.387,0.269,15.58c0.038,2.432,0.006,4.863,0.006,7.402C83.018,197.23,90.109,197.23,97.521,197.23z
			 M72.498,196.971c0.056-0.236,0.117-0.387,0.124-0.539c0.279-7.027,0.484-14.059,0.847-21.082
			c0.342-6.625-1.222-13.221-0.247-19.854c0.14-0.953-0.443-1.352-1.422-1.232c-1.504,0.182-3.016,0.41-4.527,0.424
			c-5.035,0.051-10.071,0.016-15.107,0.012c-0.422,0-0.843,0-1.323,0c0,7.328-0.521,14.523,0.146,21.607
			c0.675,7.16-0.924,14.23-0.219,21.184C58.141,197.314,65.315,197.143,72.498,196.971z M120.35,197.209
			c0.33-14.434,1.082-28.779,0.364-43.451c-6.891,0.18-13.724,0.357-20.581,0.535c-0.215,14.443-0.428,28.801-0.645,43.389
			C106.531,197.521,113.343,197.367,120.35,197.209z M47.772,151.656c0.137-14.812,0.731-29.645-0.518-44.296
			c-6.37,0-12.578,0-18.901,0c-0.842,14.921,1.104,29.601,0.918,44.296C35.465,151.656,41.524,151.656,47.772,151.656z
			 M74.238,65.94c-0.02,0.267-0.054,0.459-0.045,0.648c0.13,2.633,0.354,5.264,0.384,7.896c0.068,6.074,0.062,12.149,0.047,18.224
			c-0.008,3.555-0.089,7.11-0.142,10.665c-0.009,0.642,0.001,1.171,0.914,1.168c6.63-0.026,13.261-0.023,19.891-0.01
			c0.756,0.002,1.066-0.306,1.103-1.047c0.08-1.635,0.312-3.27,0.294-4.901c-0.119-10.746-0.287-21.49-0.446-32.235
			c-0.002-0.146-0.081-0.292-0.116-0.408C88.809,65.94,81.551,65.94,74.238,65.94z M72.075,66.038
			c-7.302,0.134-14.391,0.264-21.52,0.395c-0.035,0.351-0.074,0.585-0.079,0.819c-0.115,5.115-0.288,10.23-0.323,15.347
			c-0.047,6.914,0.015,13.83,0.02,20.745c0,0.714,0.081,1.224,1.015,1.221c6.82-0.024,13.641-0.013,20.587-0.013
			C72.134,91.79,72.757,79.024,72.075,66.038z M50.463,107.348c-0.99,14.867,0.508,29.488,0.355,44.164
			c7.457,0.947,14.716-0.441,21.952-0.045c0-0.934,0.016-1.688-0.002-2.441c-0.155-6.271-0.434-12.545-0.406-18.816
			c0.008-1.953-0.792-2.633-2.379-3.158c-1.967-0.652-3.658-1.809-4.236-3.9c-0.427-1.547-0.708-3.205-0.653-4.801
			c0.147-4.295,2.57-7.145,6.45-7.959c0-1.056,0-2.102,0-3.042C64.494,107.348,57.59,107.348,50.463,107.348z M122.441,196.896
			c5.253,0,10.362,0.018,15.472-0.018c0.869-0.006,1.732-0.309,2.604-0.352c1.187-0.057,1.398-0.682,1.345-1.729
			c-0.122-2.389-0.376-4.803-0.168-7.17c0.788-8.98,0.73-17.973,0.584-26.965c-0.04-2.492-0.422-4.977-0.667-7.684
			c-1.559,0.121-3.009-0.059-4.188,0.424c-0.855,0.35-1.494,0.467-2.312,0.227c-0.418-0.121-0.867-0.219-1.297-0.201
			c-2.555,0.111-5.109,0.238-7.661,0.404c-1.136,0.074-2.266,0.25-3.099,0.348C122.847,168.6,122.644,182.816,122.441,196.896z
			 M48.07,197.775c0.682-14.422,0.2-28.701,0.003-43.203c-6.323-0.143-12.482-0.283-18.688-0.424
			c-0.043,0.17-0.111,0.316-0.115,0.465c-0.161,4.99-0.492,9.98-0.433,14.969c0.112,9.348,0.449,18.691,0.698,28.037
			c0.004,0.146,0.073,0.291,0.15,0.578C35.766,198.059,41.827,197.918,48.07,197.775z M119.571,65.866
			c-3.096,0-5.93-0.036-8.764,0.01c-3.511,0.056-7.021,0.183-10.532,0.272c-0.959,0.024-1.442,0.383-1.336,1.458
			c0.09,0.908-0.045,1.837-0.038,2.756c0.074,10.116,0.153,20.233,0.243,30.35c0.011,1.144,0.102,2.287,0.149,3.326
			c6.489,0,12.801-0.003,19.113,0.003c0.754,0,0.783-0.48,0.789-1.048c0.121-10.396,0.252-20.79,0.372-31.185
			C119.591,69.896,119.571,67.984,119.571,65.866z M122.808,65.866c-0.877,2.722-1.27,35.412-1.01,37.813c6.464,0,12.916,0,19.379,0
			c0.058-0.44,0.117-0.714,0.125-0.989c0.314-10.265,0.656-20.528,0.906-30.794c0.049-1.974-0.258-3.955-0.406-6.03
			C135.344,65.866,129.12,65.866,122.808,65.866z M121.486,106.145c0,2.312-0.052,4.309,0.01,6.302
			c0.179,5.829,0.388,11.657,0.644,17.483c0.016,0.363,0.462,0.84,0.828,1.029c1.201,0.619,2.498,1.059,3.688,1.697
			c5.816,3.133,4.787,10.596,0.426,13.287c-1.368,0.844-2.895,1.434-4.426,2.176c0,0.525,0.047,1.207-0.011,1.879
			c-0.073,0.848,0.288,1.135,1.099,1.115c4.432-0.113,8.863-0.176,13.293-0.316c1.656-0.053,3.307-0.266,5.023-0.41
			c0-0.621,0.006-1.098-0.001-1.572c-0.153-10.035-0.302-20.07-0.468-30.104c-0.062-3.678-0.162-7.356-0.253-11.033
			c-0.04-1.603-0.048-1.591-1.696-1.61c-2.399-0.027-4.799-0.119-7.197-0.104C128.897,105.986,125.352,106.078,121.486,106.145z
			 M74.678,110.244c3.129,0.005,5.38,1.395,6.568,4.202c1.407,3.322,1.213,6.63-0.625,9.771c-0.813,1.389-2.005,2.379-3.566,2.854
			c-0.742,0.225-1.876,0.141-2.168,0.609c-0.372,0.596-0.074,1.613-0.055,2.447c0.159,6.793,0.319,13.584,0.483,20.377
			c0.005,0.229,0.058,0.457,0.114,0.871c7.401,0,14.765,0,22.234,0c0-0.426,0.002-0.857,0-1.291
			c-0.028-4.033-0.044-8.066-0.114-12.098c-0.005-0.258-0.395-0.68-0.667-0.736c-3.901-0.826-6.172-3.342-7.23-7.033
			c-1.365-4.764,0.868-8.896,5.41-10.164c0.645-0.18,1.309-0.287,1.809-0.396c0-3.693,0.02-7.283-0.009-10.873
			c-0.017-1.957-0.054-1.954-2.066-1.988c-0.599-0.011-1.198-0.075-1.796-0.062c-5.793,0.129-11.585,0.268-17.377,0.411
			c-0.303,0.007-0.604,0.072-0.943,0.116C74.678,108.261,74.678,109.173,74.678,110.244z M47.806,104.458c0-12.76,0-25.363,0-38.142
			c-6.434,0-12.795,0-19.077,0c-1.075,12.622,0.841,25.246-0.79,37.872C34.591,105.105,41.087,104.383,47.806,104.458z
			 M120.317,147.992c-5.25-1.176-7.536-3.221-7.889-7.59c-0.424-5.242,1.871-8.75,7.076-9.76
			c-0.072-5.322-0.151-10.514-0.213-15.706c-0.031-2.519-0.063-5.038-0.027-7.556c0.016-1.052-0.365-1.431-1.41-1.323
			c-1.03,0.104-2.073,0.087-3.11,0.124c-4.788,0.173-9.575,0.359-14.363,0.505c-0.865,0.026-1.242,0.364-1.214,1.218
			c0.12,3.664,0.231,7.329,0.341,10.841c1.146,0.342,2.22,0.418,2.995,0.941c1.617,1.086,3.095,2.387,4.595,3.643
			c1.146,0.959,1.583,2.271,1.608,3.727c0.072,4.051-3.704,8.869-7.952,10.088c-0.633,0.182-0.949,0.344-0.916,1.086
			c0.082,1.836,0.016,3.678,0.099,5.514c0.116,2.574,0.315,5.146,0.497,8.016c6.841-0.199,13.407-0.391,20.116-0.588
			C120.457,149.9,120.386,148.922,120.317,147.992z"/>
		<path style="fill-rule:evenodd;clip-rule:evenodd;" d="M75.595,26.307c0.186-0.688,0.278-1.421,0.574-2.059
			c0.985-2.128,2.012-4.237,3.08-6.325c1.437-2.808,2.918-5.594,4.396-8.38c0.856-1.612,0.856-1.453,2.615-1.101
			c1.339,0.27,1.813,1.085,2.395,2.119c1.722,3.062,3.675,5.997,5.325,9.096c1.004,1.886,1.647,3.969,2.381,5.988
			c0.209,0.574,0.576,1.271-0.341,1.754c-0.878,0.464-1.742,0.584-2.424-0.135c-0.701-0.739-1.497-1.581-1.753-2.514
			c-0.604-2.212-1.938-2.836-4.046-2.547c-1.897,0.261-3.809,0.438-5.721,0.557c-1.189,0.073-1.793,0.746-2.197,1.727
			c-0.364,0.885-0.626,1.818-1.061,2.665c-0.318,0.618-0.56,1.48-1.647,1.167C76.137,28.022,75.598,27.43,75.595,26.307z
			 M82.835,18.999c1.865-0.278,3.367-0.504,5-0.748c-0.781-1.304-1.104-2.739-2.703-3.219
			C84.417,16.267,83.729,17.456,82.835,18.999z"/>
		<path style="fill-rule:evenodd;clip-rule:evenodd;" d="M68.959,52.85c0.134-0.506,0.409-1.021,0.379-1.516
			c-0.148-2.47-0.417-4.932-0.561-7.401c-0.069-1.188-0.01-2.392,0.103-3.578c0.033-0.348,0.392-0.73,0.699-0.972
			c0.46-0.361,1.007-0.612,1.336-0.805c0.637,0.075,1.141,0.164,1.646,0.188c3.5,0.165,6.546,1.348,8.879,4.04
			c2.25,2.598,2.133,5.623-0.355,8.016c-3.005,2.889-6.765,3.585-10.747,3.346c-0.595-0.035-1.152-0.713-1.727-1.094
			C68.729,52.999,68.844,52.924,68.959,52.85z M71.649,51.29c2.667,0.289,5.832-0.718,7.331-2.223
			c1.365-1.37,1.475-3.887,0.081-5.202c-2.192-2.068-4.97-2.158-7.899-2.266C71.332,44.969,71.49,48.11,71.649,51.29z"/>
		<path style="fill-rule:evenodd;clip-rule:evenodd;" d="M96.021,46.518c2.354-0.207,4.603-0.502,6.853-0.526
			c0.5-0.006,1.273,0.854,1.465,1.459c0.402,1.277,0.531,2.646,0.717,3.984c0.092,0.67,0.031,1.359,0.09,2.035
			c0.145,1.635-0.086,1.897-1.739,1.866c-0.233-0.004-0.467-0.044-0.813-0.079c-0.036-0.646-0.072-1.268-0.102-1.779
			c-1.294,0.232-2.557,0.652-3.82,0.651c-4.627-0.004-9.076-5.187-8.508-9.775c0.015-0.119-0.002-0.276,0.066-0.349
			c1.498-1.571,2.807-3.432,4.57-4.609c1.67-1.115,3.785-0.707,5.622,0.229c1.575,0.803,2.21,2.063,1.896,3.996
			c-0.667-0.401-1.365-0.635-1.794-1.111c-1.724-1.911-3.874-2.062-5.72-0.301c-1.987,1.896-2.541,5.706-1.225,8.123
			c0.442,0.812,1.062,1.174,1.967,1.321c2.428,0.395,4.566-0.296,5.543-1.914c0.138-0.228,0.213-0.493,0.408-0.961
			c-0.646-0.084-1.167-0.188-1.69-0.206c-0.31-0.01-0.625,0.108-0.935,0.184C96.562,49.318,96.465,49.254,96.021,46.518z"/>
		<path style="fill-rule:evenodd;clip-rule:evenodd;" d="M23.88,46.742c0.235,1.232,0.443,2.319,0.658,3.439c2.522,0,5.018,0,7.53,0
			c0.536,1.708-0.136,2.725-1.883,2.787c-2.39,0.084-4.78,0.173-7.391,0.269c-0.251-1.363-0.626-2.86-0.789-4.379
			c-0.351-3.285-0.593-6.583-0.882-9.875c-0.062-0.698,0.168-1.031,0.936-1.215c3.043-0.726,6.062-0.763,9.317,0.004
			c-0.322,0.918-0.561,1.79-0.951,2.591c-0.109,0.224-0.655,0.306-1.007,0.327c-1.628,0.097-3.259,0.179-4.89,0.204
			c-0.809,0.014-1.312,0.397-1.117,1.128c0.133,0.5,0.657,1.083,1.14,1.257c0.727,0.263,1.571,0.249,2.366,0.262
			c0.828,0.013,1.022,0.492,0.988,1.162c-0.035,0.671,0.193,1.502-0.897,1.622C25.993,46.436,24.984,46.592,23.88,46.742z"/>
		<path style="fill-rule:evenodd;clip-rule:evenodd;" d="M43.697,54.168c-1.815-1.029-1.892-1.068-1.059-2.721
			c2.099-4.168,4.263-8.304,6.438-12.433c0.167-0.318,0.625-0.483,0.947-0.72c0.223,0.316,0.557,0.604,0.652,0.955
			c0.854,3.174,2.37,5.993,4.38,8.579c0.353,0.454,0.442,1.116,0.644,1.686c0.345,0.972,0.678,1.948,1.027,2.92
			c0.394,1.097-0.023,1.981-1.165,2.1c-0.417,0.043-1.075-0.329-1.297-0.704c-0.626-1.059-1.036-2.245-1.637-3.321
			c-0.18-0.322-0.721-0.653-1.076-0.632c-1.271,0.077-2.537,0.272-3.796,0.479C45.611,50.711,43.997,51.697,43.697,54.168z
			 M51.143,47.825c-0.374-1.529-0.396-2.958-2.021-3.61c-0.63,1.255-1.219,2.427-1.813,3.61
			C48.652,47.825,49.823,47.825,51.143,47.825z"/>
		<path style="fill-rule:evenodd;clip-rule:evenodd;" d="M123.608,54.59c0-2.268-0.047-4.103,0.02-5.935
			c0.033-0.942-0.372-1.213-1.201-1.133c-1.309,0.125-2.623,0.216-3.92,0.416c-0.264,0.041-0.629,0.486-0.658,0.773
			c-0.1,0.985-0.01,1.99-0.106,2.977c-0.177,1.798-0.337,1.887-2.343,1.592c-0.283-4.846-0.569-9.727-0.856-14.632
			c0.138-0.017,0.255-0.062,0.358-0.04c2.883,0.619,2.449,0.392,2.459,3.042c0.002,0.877,0.017,1.756,0.07,2.631
			c0.057,0.908,0.623,1.217,1.473,1.14c0.676-0.061,1.352-0.127,2.029-0.153c0.671-0.026,1.344-0.006,2.305-0.006
			c0-2.05,0-4.034,0-6.156c1.742,0.386,2.516,1.415,2.706,2.706c0.224,1.522,0.112,3.093,0.179,4.641
			c0.09,2.057,0.238,4.112,0.299,6.17c0.015,0.515-0.059,1.349-0.354,1.492C125.39,54.443,124.551,54.434,123.608,54.59z"/>
		<path style="fill-rule:evenodd;clip-rule:evenodd;" d="M141.187,51.858c1.435-0.095,2.744-0.168,4.053-0.271
			c1.564-0.125,3.134-0.296,4.284,1.352c-3.222,2.414-6.827,0.86-10.384,1.279c-0.375-5.008-0.741-9.882-1.123-14.969
			c3.449,0,6.754,0,10.275,0c0,0.801,0,1.781,0,2.885c-2.635,0-5.21,0-7.911,0c0.187,1.297,0.354,2.457,0.552,3.834
			c0.826-0.068,1.715-0.146,2.604-0.215c1.817-0.142,1.826-0.142,2.105,1.647c0.054,0.348,0.008,0.711,0.008,1.248
			c-0.896,0-1.755,0-2.614,0c-2.435,0.001-2.599,0.209-1.945,2.442C141.145,51.273,141.141,51.473,141.187,51.858z"/>
		<path style="fill-rule:evenodd;clip-rule:evenodd;fill:none;" d="M97.521,197.23c-7.412,0-14.503,0-21.87,0
			c0-2.539,0.031-4.971-0.006-7.402c-0.08-5.193-0.257-10.387-0.269-15.58c-0.006-2.502,0.384-5.006,0.396-7.51
			c0.019-3.865-0.135-7.732-0.209-11.6c-0.003-0.189,0.047-0.381,0.096-0.74c7.292,0,14.552,0,21.863,0
			C97.521,168.566,97.521,182.84,97.521,197.23z"/>
		<path style="fill-rule:evenodd;clip-rule:evenodd;fill:none;" d="M72.498,196.971c-7.183,0.172-14.357,0.344-21.73,0.52
			c-0.705-6.953,0.894-14.023,0.219-21.184c-0.667-7.084-0.146-14.279-0.146-21.607c0.48,0,0.901,0,1.323,0
			c5.036,0.004,10.072,0.039,15.107-0.012c1.511-0.014,3.022-0.242,4.527-0.424c0.979-0.119,1.562,0.279,1.422,1.232
			c-0.975,6.633,0.589,13.229,0.247,19.854c-0.362,7.023-0.568,14.055-0.847,21.082C72.615,196.584,72.554,196.734,72.498,196.971z"
			/>
		<path style="fill-rule:evenodd;clip-rule:evenodd;fill:none;" d="M120.35,197.209c-7.007,0.158-13.818,0.312-20.861,0.473
			c0.217-14.588,0.43-28.945,0.645-43.389c6.857-0.178,13.69-0.355,20.581-0.535C121.432,168.43,120.68,182.775,120.35,197.209z"/>
		<path style="fill-rule:evenodd;clip-rule:evenodd;fill:none;" d="M47.772,151.656c-6.248,0-12.307,0-18.5,0
			c0.185-14.695-1.76-29.375-0.918-44.296c6.323,0,12.531,0,18.901,0C48.503,122.012,47.909,136.844,47.772,151.656z"/>
		<path style="fill-rule:evenodd;clip-rule:evenodd;fill:none;" d="M74.238,65.94c7.313,0,14.571,0,21.883,0
			c0.035,0.116,0.114,0.262,0.116,0.408c0.159,10.745,0.327,21.489,0.446,32.235c0.018,1.632-0.214,3.267-0.294,4.901
			c-0.036,0.741-0.347,1.049-1.103,1.047c-6.63-0.014-13.261-0.017-19.891,0.01c-0.913,0.003-0.923-0.526-0.914-1.168
			c0.053-3.555,0.133-7.11,0.142-10.665c0.015-6.074,0.021-12.149-0.047-18.224c-0.029-2.633-0.253-5.264-0.384-7.896
			C74.184,66.399,74.218,66.207,74.238,65.94z"/>
		<path style="fill-rule:evenodd;clip-rule:evenodd;fill:none;" d="M72.075,66.038c0.682,12.986,0.059,25.752-0.301,38.514
			c-6.946,0-13.767-0.012-20.587,0.013c-0.934,0.003-1.014-0.507-1.015-1.221c-0.005-6.915-0.067-13.831-0.02-20.745
			c0.035-5.116,0.208-10.231,0.323-15.347c0.005-0.234,0.044-0.469,0.079-0.819C57.684,66.301,64.773,66.171,72.075,66.038z"/>
		<path style="fill-rule:evenodd;clip-rule:evenodd;fill:none;" d="M50.463,107.348c7.126,0,14.03,0,21.081,0
			c0,0.94,0,1.986,0,3.042c-3.88,0.814-6.303,3.664-6.45,7.959c-0.055,1.596,0.226,3.254,0.653,4.801
			c0.578,2.092,2.269,3.248,4.236,3.9c1.586,0.525,2.387,1.205,2.379,3.158c-0.027,6.271,0.251,12.545,0.406,18.816
			c0.019,0.754,0.002,1.508,0.002,2.441c-7.236-0.396-14.496,0.992-21.952,0.045C50.971,136.836,49.474,122.215,50.463,107.348z
			 M58.02,113.336c0.113,0.077,0.226,0.155,0.339,0.233c-0.12,1.387-0.292,2.771-0.344,4.159c-0.051,1.375,0.016,2.754,1.319,3.967
			c1.904-3.775,0.381-7.672,1.155-11.459c-3.286,0.107-4.609,2.466-6.252,4.517c0.4,0.51,0.727,0.924,1.096,1.393
			C56.306,115.127,57.163,114.232,58.02,113.336z"/>
		<path style="fill-rule:evenodd;clip-rule:evenodd;fill:none;" d="M122.441,196.896c0.202-14.08,0.405-28.297,0.612-42.715
			c0.833-0.098,1.963-0.273,3.099-0.348c2.552-0.166,5.106-0.293,7.661-0.404c0.43-0.018,0.879,0.08,1.297,0.201
			c0.818,0.24,1.457,0.123,2.312-0.227c1.18-0.482,2.63-0.303,4.188-0.424c0.245,2.707,0.627,5.191,0.667,7.684
			c0.146,8.992,0.204,17.984-0.584,26.965c-0.208,2.367,0.046,4.781,0.168,7.17c0.054,1.047-0.158,1.672-1.345,1.729
			c-0.872,0.043-1.735,0.346-2.604,0.352C132.804,196.914,127.694,196.896,122.441,196.896z"/>
		<path style="fill-rule:evenodd;clip-rule:evenodd;fill:none;" d="M48.07,197.775c-6.243,0.143-12.304,0.283-18.385,0.422
			c-0.077-0.287-0.146-0.432-0.15-0.578c-0.249-9.346-0.586-18.689-0.698-28.037c-0.059-4.988,0.272-9.979,0.433-14.969
			c0.004-0.148,0.072-0.295,0.115-0.465c6.206,0.141,12.365,0.281,18.688,0.424C48.27,169.074,48.752,183.354,48.07,197.775z"/>
		<path style="fill-rule:evenodd;clip-rule:evenodd;fill:none;" d="M119.571,65.866c0,2.118,0.02,4.03-0.003,5.942
			c-0.12,10.395-0.251,20.789-0.372,31.185c-0.006,0.567-0.035,1.048-0.789,1.048c-6.312-0.006-12.624-0.003-19.113-0.003
			c-0.048-1.039-0.139-2.183-0.149-3.326c-0.09-10.116-0.169-20.233-0.243-30.35c-0.007-0.919,0.128-1.848,0.038-2.756
			c-0.106-1.075,0.377-1.434,1.336-1.458c3.512-0.09,7.021-0.217,10.532-0.272C113.642,65.83,116.476,65.866,119.571,65.866z"/>
		<path style="fill-rule:evenodd;clip-rule:evenodd;fill:none;" d="M122.808,65.866c6.312,0,12.536,0,18.994,0
			c0.148,2.075,0.455,4.057,0.406,6.03c-0.25,10.266-0.592,20.529-0.906,30.794c-0.008,0.275-0.067,0.549-0.125,0.989
			c-6.463,0-12.915,0-19.379,0C121.538,101.278,121.931,68.587,122.808,65.866z"/>
		<path style="fill-rule:evenodd;clip-rule:evenodd;fill:none;" d="M121.486,106.145c3.865-0.067,7.411-0.159,10.958-0.182
			c2.398-0.015,4.798,0.077,7.197,0.104c1.648,0.02,1.656,0.008,1.696,1.61c0.091,3.677,0.191,7.354,0.253,11.033
			c0.166,10.033,0.314,20.068,0.468,30.104c0.007,0.475,0.001,0.951,0.001,1.572c-1.717,0.145-3.367,0.357-5.023,0.41
			c-4.43,0.141-8.861,0.203-13.293,0.316c-0.811,0.02-1.172-0.268-1.099-1.115c0.058-0.672,0.011-1.354,0.011-1.879
			c1.531-0.742,3.058-1.332,4.426-2.176c4.361-2.691,5.391-10.154-0.426-13.287c-1.189-0.639-2.486-1.078-3.688-1.697
			c-0.366-0.189-0.812-0.666-0.828-1.029c-0.256-5.826-0.465-11.654-0.644-17.483C121.435,110.454,121.486,108.457,121.486,106.145z
			 M126.935,122.566c0.881-0.219,1.638-0.275,2.26-0.594c0.881-0.453,1.633-0.279,2.035,0.451c0.43,0.783,0.117,1.539-0.804,1.932
			c-0.723,0.309-1.75,0.604-1.454,1.562c0.143,0.461,1.18,0.627,1.789,0.969c0.354,0.199,0.821,0.42,0.941,0.742
			c0.086,0.234-0.232,0.807-0.512,0.947c-0.458,0.23-1.059,0.381-1.549,0.291c-0.604-0.109-1.143-0.547-1.738-0.758
			c-0.582-0.207-1.201-0.311-2.053-0.52c0.521,1.785,1.332,2.828,2.803,3.102c1.768,0.33,3.361-0.092,4.452-1.641
			c1.072-1.523,0.367-2.861-0.626-4.092c0.892-1.152,1.326-2.311,0.406-3.559c-0.928-1.26-2.215-1.83-3.76-1.631
			C127.78,119.943,127.186,120.893,126.935,122.566z"/>
		<path style="fill-rule:evenodd;clip-rule:evenodd;fill:none;" d="M74.678,110.244c0-1.07,0-1.982,0-2.982
			c0.339-0.044,0.64-0.109,0.943-0.116c5.792-0.144,11.584-0.282,17.377-0.411c0.598-0.014,1.197,0.051,1.796,0.062
			c2.013,0.034,2.05,0.031,2.066,1.988c0.028,3.59,0.009,7.18,0.009,10.873c-0.5,0.109-1.164,0.217-1.809,0.396
			c-4.542,1.268-6.775,5.4-5.41,10.164c1.059,3.691,3.329,6.207,7.23,7.033c0.272,0.057,0.662,0.479,0.667,0.736
			c0.07,4.031,0.086,8.064,0.114,12.098c0.002,0.434,0,0.865,0,1.291c-7.47,0-14.833,0-22.234,0
			c-0.056-0.414-0.108-0.643-0.114-0.871c-0.165-6.793-0.325-13.584-0.483-20.377c-0.019-0.834-0.316-1.852,0.055-2.447
			c0.292-0.469,1.427-0.385,2.168-0.609c1.561-0.475,2.753-1.465,3.566-2.854c1.838-3.141,2.032-6.449,0.625-9.771
			C80.058,111.638,77.808,110.249,74.678,110.244z M85.862,141.855c1.669-2.789,1.609-5.361-0.299-7.824
			c-0.188-0.242-0.502-0.641-0.677-0.602c-1.091,0.242-2.28,0.391-3.204,0.955c-0.998,0.607-1.102,1.805-0.772,3.068
			c0.71-0.375,1.293-0.842,1.814-1.369c0.854-0.861,1.509-0.76,1.999,0.324c0.427,0.943,0.266,1.828-0.336,2.59
			c-0.715,0.904-1.573,1.697-2.29,2.602c-0.51,0.643-0.89,1.389-1.439,2.268c2.631,0.197,4.895,0.391,7.163,0.518
			c0.358,0.02,0.733-0.266,1.1-0.408c-0.239-0.41-0.381-0.982-0.738-1.197C87.515,142.379,86.724,142.184,85.862,141.855z"/>
		<path style="fill-rule:evenodd;clip-rule:evenodd;fill:none;" d="M47.806,104.458c-6.719-0.075-13.215,0.646-19.866-0.27
			c1.63-12.626-0.286-25.25,0.79-37.872c6.282,0,12.643,0,19.077,0C47.806,79.095,47.806,91.699,47.806,104.458z"/>
		<path style="fill-rule:evenodd;clip-rule:evenodd;fill:none;" d="M120.317,147.992c0.068,0.93,0.14,1.908,0.232,3.18
			c-6.709,0.197-13.275,0.389-20.116,0.588c-0.182-2.869-0.381-5.441-0.497-8.016c-0.083-1.836-0.017-3.678-0.099-5.514
			c-0.033-0.742,0.283-0.904,0.916-1.086c4.248-1.219,8.024-6.037,7.952-10.088c-0.025-1.455-0.462-2.768-1.608-3.727
			c-1.5-1.256-2.978-2.557-4.595-3.643c-0.775-0.523-1.85-0.6-2.995-0.941c-0.109-3.512-0.221-7.177-0.341-10.841
			c-0.028-0.854,0.349-1.191,1.214-1.218c4.788-0.146,9.575-0.332,14.363-0.505c1.037-0.037,2.08-0.02,3.11-0.124
			c1.045-0.107,1.426,0.271,1.41,1.323c-0.036,2.518-0.004,5.037,0.027,7.556c0.062,5.192,0.141,10.383,0.213,15.706
			c-5.205,1.01-7.5,4.518-7.076,9.76C112.781,144.771,115.067,146.816,120.317,147.992z"/>
		<path style="fill-rule:evenodd;clip-rule:evenodd;fill:none;" d="M84.835,18.999c0.894-1.543,1.582-2.731,2.297-3.967
			c1.598,0.479,1.922,1.915,2.702,3.219C88.202,18.495,86.7,18.72,84.835,18.999z"/>
		<path style="fill-rule:evenodd;clip-rule:evenodd;fill:none;" d="M71.649,51.29c-0.16-3.18-0.318-6.32-0.488-9.69
			c2.93,0.107,5.708,0.197,7.899,2.266c1.394,1.315,1.284,3.832-0.081,5.202C77.481,50.572,74.316,51.579,71.649,51.29z"/>
		<path style="fill-rule:evenodd;clip-rule:evenodd;fill:none;" d="M51.143,47.825c-1.32,0-2.491,0-3.834,0
			c0.595-1.184,1.183-2.355,1.813-3.61C50.747,44.867,50.769,46.295,51.143,47.825z"/>
		<path style="fill-rule:evenodd;clip-rule:evenodd;" d="M58.02,113.336c-0.857,0.896-1.714,1.791-2.688,2.809
			c-0.369-0.469-0.695-0.883-1.096-1.393c1.643-2.051,2.966-4.409,6.252-4.517c-0.773,3.787,0.749,7.684-1.155,11.459
			c-1.304-1.213-1.371-2.592-1.319-3.967c0.052-1.388,0.225-2.772,0.344-4.159C58.246,113.492,58.133,113.414,58.02,113.336z"/>
		<path style="fill-rule:evenodd;clip-rule:evenodd;" d="M126.935,122.566c0.251-1.674,0.846-2.623,2.191-2.797
			c1.545-0.199,2.832,0.371,3.76,1.631c0.92,1.248,0.485,2.406-0.406,3.559c0.993,1.23,1.698,2.568,0.626,4.092
			c-1.091,1.549-2.685,1.971-4.452,1.641c-1.471-0.273-2.281-1.316-2.803-3.102c0.852,0.209,1.471,0.312,2.053,0.52
			c0.596,0.211,1.134,0.648,1.738,0.758c0.49,0.09,1.091-0.061,1.549-0.291c0.279-0.141,0.598-0.713,0.512-0.947
			c-0.12-0.322-0.587-0.543-0.941-0.742c-0.609-0.342-1.646-0.508-1.789-0.969c-0.296-0.959,0.731-1.254,1.454-1.562
			c0.921-0.393,1.233-1.148,0.804-1.932c-0.402-0.73-1.154-0.904-2.035-0.451C128.572,122.291,127.815,122.348,126.935,122.566z"/>
		<path style="fill-rule:evenodd;clip-rule:evenodd;" d="M85.862,141.855c0.861,0.328,1.653,0.523,2.32,0.924
			c0.357,0.215,0.499,0.787,0.738,1.197c-0.367,0.143-0.742,0.428-1.1,0.408c-2.268-0.127-4.532-0.32-7.163-0.518
			c0.549-0.879,0.929-1.625,1.439-2.268c0.717-0.904,1.575-1.697,2.29-2.602c0.602-0.762,0.763-1.646,0.336-2.59
			c-0.49-1.084-1.145-1.186-1.999-0.324c-0.521,0.527-1.104,0.994-1.814,1.369c-0.33-1.264-0.226-2.461,0.772-3.068
			c0.924-0.564,2.113-0.713,3.204-0.955c0.175-0.039,0.489,0.359,0.677,0.602C87.471,136.494,87.531,139.066,85.862,141.855z"/>
	</g>
</g>
<g id="Layer_1">
</g>
</svg>
