<?xml version="1.0" encoding="UTF-8" standalone="no"?>
<!DOCTYPE svg PUBLIC "-//W3C//DTD SVG 1.1//EN" "http://www.w3.org/Graphics/SVG/1.1/DTD/svg11.dtd">
<svg width="100%" height="100%" viewBox="0 0 963 1280" version="1.1" xmlns="http://www.w3.org/2000/svg" xmlns:xlink="http://www.w3.org/1999/xlink" xml:space="preserve" xmlns:serif="http://www.serif.com/" style="fill-rule:evenodd;clip-rule:evenodd;stroke-linejoin:round;stroke-miterlimit:2;">
    <g transform="matrix(0.41014,0,0,0.41014,483.126,465.636)">
        <g id="Asus4" transform="matrix(1,0,0,1,-834.5,-1147.5)">
            <g transform="matrix(0.1,0,0,-0.1,0,2295)">
                <path d="M9813,21998C9771,21951 9755,21841 9745,21530C9741,21423 9732,21263 9725,21175C9717,21087 9708,20927 9705,20820L9698,20625L9741,20584C9783,20544 9791,20541 9900,20521C9974,20507 10055,20500 10128,20500L10240,20500L10240,20287C10240,20049 10250,19988 10300,19915C10332,19868 10385,19830 10418,19830C10429,19830 10447,19838 10459,19848C10493,19876 10520,20054 10527,20297L10533,20499L10589,20510C10620,20516 10651,20523 10659,20526C10667,20528 10715,20535 10767,20540C10867,20551 10921,20568 10957,20602C10985,20628 10986,20649 10960,20699L10941,20737L10848,20749C10781,20758 10743,20759 10710,20751C10685,20745 10624,20740 10574,20740L10483,20740L10506,20878C10523,20973 10530,21055 10530,21148L10530,21280L10290,21280L10290,20700L10198,20700C10141,20700 10088,20706 10062,20715C10038,20724 9991,20733 9958,20737L9897,20743L9904,20855C9912,20990 9923,21067 9985,21395C10010,21533 10034,21689 10037,21742C10043,21832 10041,21842 10017,21892C9997,21933 9978,21954 9934,21983C9869,22026 9842,22029 9813,21998Z" style="fill-rule:nonzero;"/>
                <path d="M4552,21568C4498,21533 4485,21518 4455,21456C4425,21396 4418,21368 4410,21277C4392,21092 4299,20773 4204,20572C4179,20521 4129,20400 4091,20302C4053,20205 3997,20065 3966,19991C3909,19855 3896,19790 3925,19790C3934,19790 3958,19799 3980,19810C4002,19821 4024,19830 4030,19830C4036,19830 4040,19806 4040,19774C4040,19724 4042,19719 4058,19725C4067,19729 4106,19743 4144,19756C4183,19769 4218,19784 4224,19790C4244,19810 4271,19939 4278,20057C4283,20126 4291,20184 4298,20193C4306,20202 4356,20215 4423,20226C4564,20250 4968,20253 5039,20232C5103,20212 5176,20132 5241,20009C5270,19953 5312,19888 5334,19864L5375,19820L5454,19827L5533,19833L5527,19924C5517,20076 5471,20178 5320,20379C5272,20443 5213,20531 5190,20575C5166,20619 5075,20781 4987,20935C4900,21089 4786,21298 4735,21400C4684,21502 4636,21591 4628,21597C4617,21607 4601,21600 4552,21568ZM4785,20805C4829,20738 4950,20512 4950,20495C4950,20492 4826,20490 4674,20490L4398,20490L4404,20521C4407,20538 4437,20609 4471,20678C4523,20787 4561,20874 4601,20979C4611,21003 4612,21003 4671,20944C4704,20912 4755,20849 4785,20805Z" style="fill-rule:nonzero;"/>
                <path d="M8588,21145C8461,21098 8248,20902 8185,20772C8163,20727 8159,20708 8164,20672C8179,20562 8254,20463 8367,20402C8443,20362 8517,20343 8646,20331C8769,20320 8821,20296 8899,20216L8953,20161L8920,20123C8865,20059 8820,20040 8721,20040C8582,20040 8489,20072 8410,20146L8359,20193L8325,20177C8304,20167 8283,20145 8270,20120L8249,20079L8342,19979C8500,19807 8651,19710 8761,19710C8852,19710 8892,19732 8972,19824C9047,19912 9112,20032 9130,20116C9139,20158 9138,20184 9120,20269C9094,20398 9070,20450 9012,20500C8961,20545 8865,20580 8735,20600C8690,20607 8631,20625 8599,20641C8569,20656 8520,20676 8491,20685C8448,20700 8436,20709 8419,20743L8398,20783L8432,20816C8481,20866 8560,20890 8672,20890C8744,20890 8775,20885 8810,20869C8856,20848 8950,20765 8950,20744C8950,20738 8941,20725 8930,20715C8900,20688 8905,20670 8943,20670C9014,20670 9063,20726 9076,20823C9084,20879 9064,20926 9003,20991C8883,21121 8704,21187 8588,21145Z" style="fill-rule:nonzero;"/>
                <path d="M6051,21069C5978,21055 5918,21019 5845,20945C5672,20771 5663,20630 5817,20490C5906,20409 6009,20370 6136,20370C6250,20370 6371,20327 6429,20267C6458,20237 6464,20221 6468,20175C6474,20107 6459,20071 6408,20024C6354,19975 6313,19960 6237,19960C6165,19960 6104,19978 6047,20016C5986,20056 5836,20110 5785,20110L5740,20110L5740,20072C5740,20027 5771,19979 5846,19910C5982,19784 6052,19750 6174,19750C6426,19751 6619,19901 6660,20127C6673,20200 6654,20312 6621,20359C6571,20429 6395,20511 6267,20525C6170,20535 6012,20588 5972,20624L5939,20655L5979,20741C6029,20849 6053,20870 6129,20870C6210,20870 6277,20835 6370,20745L6446,20670L6468,20693C6509,20737 6487,20854 6421,20938C6334,21048 6194,21097 6051,21069Z" style="fill-rule:nonzero;"/>
                <path d="M7687,20983C7670,20948 7631,20772 7615,20651C7611,20621 7592,20545 7574,20482C7555,20419 7540,20357 7540,20344C7540,20283 7364,20167 7269,20166C7228,20165 7216,20170 7186,20199C7113,20270 7077,20450 7100,20627C7132,20879 7125,20941 7056,20974C6983,21009 6913,20981 6877,20902C6858,20861 6855,20838 6855,20715C6856,20558 6868,20487 6932,20270C6982,20101 7012,20037 7064,19985C7119,19930 7180,19912 7255,19929C7336,19947 7392,19979 7550,20099C7630,20160 7698,20206 7701,20202C7711,20192 7738,20101 7746,20055C7755,20000 7795,19933 7830,19915C7888,19885 7944,19902 7993,19965L8022,20001L8005,20073C7995,20113 7979,20166 7969,20192C7932,20287 7862,20603 7856,20700C7846,20882 7816,20966 7750,21000C7729,21011 7709,21020 7708,21020C7706,21020 7697,21003 7687,20983Z" style="fill-rule:nonzero;"/>
                <path d="M2450,18930C2311,18922 2285,18918 2186,18887L2117,18865L2123,18600C2131,18217 2195,17646 2253,17435C2296,17282 2292,17289 2320,17294C2353,17300 2653,17326 2855,17341C2943,17347 3049,17357 3090,17363C3178,17377 3189,17391 3190,17485C3190,17518 3197,17556 3205,17570C3213,17584 3219,17598 3220,17603C3220,17607 3054,17610 2851,17610L2482,17610L2477,17668C2474,17699 2465,17754 2456,17790C2447,17826 2440,17888 2440,17928L2440,18000L2548,18000C2679,18000 2732,18019 2755,18074C2770,18108 2788,18280 2778,18280C2775,18280 2728,18289 2675,18300C2621,18311 2539,18320 2489,18320L2400,18320L2400,18385C2400,18431 2394,18462 2378,18494C2357,18538 2357,18540 2375,18560C2393,18579 2404,18580 2730,18580L3066,18580L3088,18648C3116,18736 3120,18904 3094,18914C3039,18935 2690,18943 2450,18930Z" style="fill-rule:nonzero;"/>
                <path d="M4940,18832C4897,18810 4884,18788 4691,18405C4455,17936 4263,17524 4215,17384L4199,17337L4242,17293C4266,17268 4302,17240 4323,17229L4361,17209L4421,17337C4534,17580 4524,17571 4687,17581C4813,17588 5058,17630 5127,17656C5150,17664 5186,17670 5206,17668L5243,17665L5297,17535C5362,17380 5410,17245 5410,17220C5410,17200 5444,17174 5483,17165C5522,17155 5590,17191 5664,17261L5732,17325L5656,17480C5614,17565 5576,17659 5570,17687C5559,17746 5531,17808 5490,17860C5413,17958 5070,18665 5070,18726C5070,18751 5032,18818 5008,18834C4980,18854 4982,18854 4940,18832ZM5035,18080C5100,17950 5116,17910 5104,17910C5095,17910 5082,17903 5075,17894C5059,17872 4988,17861 4847,17861C4729,17860 4729,17860 4736,17883C4755,17946 4928,18250 4945,18250C4948,18250 4988,18174 5035,18080Z" style="fill-rule:nonzero;"/>
                <path d="M7075,18820C6967,18800 6899,18748 6883,18673C6879,18652 6875,18527 6875,18395C6875,18201 6880,18107 6902,17905C6917,17768 6934,17639 6940,17620C6953,17576 6953,17465 6940,17421C6935,17402 6918,17374 6903,17358L6876,17330L6925,17280C6986,17218 7013,17210 7156,17210C7361,17210 7667,17278 7832,17361C8109,17499 8281,17687 8311,17884C8346,18104 8154,18422 7872,18612C7741,18701 7571,18771 7405,18805C7308,18825 7143,18832 7075,18820ZM7443,18465C7703,18408 7723,18400 7808,18311C7854,18264 7893,18211 7913,18170C7942,18112 7945,18096 7945,18015C7945,17938 7941,17917 7918,17868C7870,17765 7827,17729 7631,17632C7435,17534 7344,17500 7255,17493L7195,17488L7177,17566C7143,17717 7117,17993 7113,18253L7108,18500L7195,18500C7257,18500 7328,18490 7443,18465Z" style="fill-rule:nonzero;"/>
                <path d="M11420,18811C11420,18806 11427,18784 11435,18761C11452,18713 11490,17833 11490,17492L11490,17290L11730,17290L11731,17463C11731,17557 11735,17674 11739,17722C11750,17847 11757,17853 11946,17891C12060,17913 12122,17920 12212,17920L12330,17920L12330,17780C12330,17703 12325,17609 12318,17570C12303,17482 12320,17261 12347,17206C12363,17170 12365,17170 12424,17170C12513,17170 12542,17191 12590,17291C12620,17353 12627,17377 12620,17391C12614,17401 12610,17533 12610,17703C12610,18296 12551,18632 12429,18734C12401,18758 12309,18810 12295,18810C12292,18810 12290,18664 12290,18485L12290,18160L12250,18160C12227,18160 12199,18153 12186,18144C12155,18125 12020,18110 11858,18110L11730,18110L11730,18154C11730,18178 11723,18213 11715,18233C11688,18298 11686,18461 11710,18599C11721,18667 11729,18728 11727,18735C11724,18741 11693,18754 11659,18764C11624,18774 11570,18791 11539,18801C11480,18821 11420,18826 11420,18811Z" style="fill-rule:nonzero;"/>
                <path d="M9632,18769C9419,18732 9227,18600 9077,18389C9009,18293 8999,18262 8997,18151C8995,18067 8999,18042 9028,17950C9101,17724 9205,17533 9307,17440C9368,17384 9508,17311 9605,17285C9638,17276 9717,17266 9781,17263C9891,17258 9903,17259 10044,17295C10129,17317 10195,17329 10199,17324C10219,17302 10240,17211 10240,17147L10240,17077L10310,17083C10349,17086 10395,17096 10412,17104C10429,17113 10460,17120 10482,17120C10528,17120 10527,17106 10500,17329C10490,17420 10474,17561 10466,17641C10440,17899 10399,18001 10305,18049C10234,18086 10079,18091 9965,18060C9907,18044 9843,18037 9733,18033L9580,18027L9580,17950C9580,17888 9584,17868 9600,17847C9612,17833 9620,17807 9620,17786C9620,17766 9621,17750 9623,17750C9624,17750 9677,17759 9740,17770C9815,17783 9901,17790 9988,17790L10120,17790L10120,17763C10120,17727 10082,17681 9999,17614C9912,17545 9826,17504 9733,17489C9600,17467 9460,17507 9392,17585C9246,17751 9237,18054 9370,18281C9425,18374 9507,18453 9596,18496C9661,18528 9680,18533 9762,18537C9845,18541 9860,18539 9900,18518C9925,18505 9955,18479 9967,18460C10017,18382 10087,18339 10178,18332L10232,18327L10228,18428C10225,18528 10225,18529 10184,18587C10135,18656 10049,18718 9959,18750C9886,18775 9721,18785 9632,18769Z" style="fill-rule:nonzero;"/>
                <path d="M13973,18769C13939,18765 13902,18757 13891,18751C13880,18745 13853,18740 13830,18740L13789,18740L13793,18348C13796,17957 13824,17513 13852,17393C13858,17366 13865,17314 13867,17277L13872,17208L14273,17213C14696,17217 14750,17223 14854,17269C14887,17283 14904,17299 14919,17328L14939,17367L14907,17398C14834,17469 14703,17490 14333,17490L14070,17490L14070,17530C14070,17553 14063,17582 14054,17595C14036,17623 14039,17691 14061,17753L14075,17790L14530,17790L14529,17853C14529,17942 14515,18011 14496,18025C14486,18033 14480,18051 14480,18074C14480,18094 14477,18110 14473,18110C14468,18110 14413,18101 14350,18090C14286,18079 14189,18070 14133,18070L14030,18070L14030,18459L14368,18462C14704,18465 14705,18465 14755,18490C14814,18520 14817,18528 14819,18678L14820,18780L14428,18779C14212,18778 14007,18774 13973,18769Z" style="fill-rule:nonzero;"/>
                <path d="M10435,16810C10204,16806 9860,16797 9670,16791C9237,16776 7252,16751 5895,16744C5105,16739 4500,16743 3299,16759C2438,16771 1717,16780 1697,16780L1660,16780L1660,16567C1660,16333 1670,16219 1701,16118C1720,16053 1723,16049 1770,16025C1871,15974 1921,15968 2261,15963L2577,15958L2584,15907C2593,15825 2591,14064 2580,13425C2569,12796 2554,12245 2544,12138L2537,12070L2306,12070C2142,12070 2052,12074 1997,12085C1905,12103 1837,12104 1809,12090C1799,12084 1781,12061 1770,12039L1749,11999L1812,11930C1850,11887 1887,11856 1907,11849C1926,11843 2005,11834 2083,11830C2161,11825 2243,11816 2265,11810C2287,11805 2366,11797 2441,11793L2577,11787L2586,10086C2596,8222 2596,7615 2585,7411L2578,7277L2291,7285C1932,7294 1859,7293 1788,7273C1711,7252 1670,7216 1663,7165C1658,7125 1658,7124 1706,7102C1799,7060 2040,7041 2340,7051C2464,7055 2535,7040 2578,7000C2609,6970 2615,6889 2599,6690C2588,6551 2585,6112 2583,4544L2580,2573L2342,2567C2212,2564 2048,2554 1977,2546C1840,2529 1710,2503 1710,2492C1710,2488 1727,2460 1747,2430C1769,2397 1787,2356 1791,2327C1796,2301 1809,2264 1820,2245C1839,2215 1847,2210 1881,2210C1903,2210 1949,2219 1983,2231C2128,2280 2425,2310 2492,2282C2507,2276 2526,2261 2534,2248C2570,2191 2602,1707 2616,1002L2623,658L2653,664C2670,667 2724,694 2774,723C2852,769 2867,782 2880,816C2892,849 2895,971 2898,1571L2901,2287L3248,2294C3439,2298 3640,2306 3695,2311C3750,2316 4019,2323 4293,2326L4790,2332L4790,710L4823,710C4842,710 4883,701 4915,690C4947,679 4975,670 4977,670C4978,670 4980,685 4980,703C4980,720 4987,755 4996,780C5018,841 5029,1198 5030,1833L5030,2330L5603,2330C5999,2330 6328,2324 6670,2310C6942,2299 7172,2290 7181,2290C7196,2290 7198,2235 7203,1688C7207,1310 7213,1066 7220,1035C7226,1008 7233,959 7237,928C7242,874 7244,870 7269,870C7305,870 7393,923 7419,959C7472,1033 7473,1038 7481,1591C7488,2093 7491,2175 7511,2251L7520,2288L7588,2294C7824,2317 8018,2322 8813,2327C9556,2331 9700,2330 9700,2319C9700,2311 9691,2271 9680,2230C9662,2159 9660,2119 9660,1553L9660,950L9540,950L9540,916C9540,868 9577,828 9662,785C9726,753 9741,750 9815,750L9898,750L9903,1322C9906,1720 9913,1959 9924,2105C9933,2221 9943,2320 9945,2327C9947,2334 9968,2345 9992,2352C10050,2369 11012,2370 11300,2353C11413,2346 11605,2337 11726,2334L11947,2327L11953,1781C11960,1110 11977,941 12044,863L12068,835L12099,864C12138,902 12165,966 12186,1075C12206,1182 12209,1388 12196,1953L12187,2330L14120,2330L14122,1538L14125,747L14175,729C14203,719 14248,711 14276,711C14367,709 14360,638 14360,1537L14360,2328L14823,2333C15282,2337 15342,2342 15368,2373C15376,2382 15375,2409 15366,2465C15334,2663 15281,2684 14773,2698C14481,2706 14486,2705 14470,2776C14438,2919 14435,3118 14438,5139C14439,6247 14443,7156 14445,7159C14448,7162 14538,7153 14645,7140C14805,7121 14864,7118 14973,7124C15143,7133 15165,7139 15222,7197L15268,7245L15205,7314C15147,7378 15139,7383 15094,7387C15067,7390 14990,7385 14923,7376C14851,7366 14729,7360 14622,7360L14443,7360L14436,7558C14410,8316 14403,9517 14420,10510C14425,10810 14433,11249 14436,11485L14443,11916L14639,11893C14918,11862 15218,11861 15348,11892L15440,11914L15440,12070L15385,12070C15333,12070 15201,12105 15189,12122C15175,12143 15091,12150 14778,12156L14440,12163L14440,16000L15613,16000L15607,16288C15600,16614 15591,16686 15553,16765L15526,16820L13190,16818C11906,16817 10666,16813 10435,16810ZM9620,16000L9620,12030L7442,12030L7436,13753C7433,14780 7427,15511 7421,15565C7415,15615 7408,15733 7404,15828L7397,16000L9620,16000ZM11913,15898C11916,15841 11924,15759 11930,15715C11953,15561 11929,13753 11890,12720C11879,12431 11870,12186 11870,12174C11870,12159 11857,12148 11823,12132C11736,12094 11216,12070 10443,12070L9900,12070L9900,12378C9900,12547 9893,12888 9885,13135C9857,14006 9856,14429 9880,15225C9892,15626 9902,15955 9903,15956C9904,15957 10110,15967 10360,15978C10661,15991 11000,15998 11361,15999L11908,16000L11913,15898ZM13660,15979C13932,15967 14157,15956 14158,15955C14160,15953 14154,15646 14145,15273C14136,14900 14125,14105 14120,13505C14111,12517 14104,12216 14085,12169C14080,12156 14057,12151 13967,12146C13905,12142 13788,12135 13705,12129C13623,12124 13230,12117 12833,12113C12198,12108 12110,12109 12110,12122C12110,12130 12119,12242 12129,12371C12144,12547 12150,12748 12155,13180C12158,13496 12165,13861 12170,13990C12175,14119 12184,14432 12189,14685C12199,15125 12213,15551 12227,15858L12233,16000L12699,16000C13017,16000 13322,15994 13660,15979ZM7202,15952C7212,15941 7215,15764 7214,15032C7212,13737 7181,12529 7139,12170C7127,12062 7119,12055 7003,12043C6954,12039 6521,12035 6040,12035C5168,12036 5057,12039 5026,12070C4992,12104 5021,15424 5058,15839C5067,15931 5052,15925 5319,15940C5675,15960 6007,15967 6602,15966C7069,15965 7192,15962 7202,15952ZM4281,15938L4787,15916L4783,15791C4763,15107 4740,13696 4740,13170C4740,12571 4730,12158 4714,12096L4708,12072L4447,12066C4035,12055 3389,12054 3112,12064L2858,12073L2863,13914C2868,15645 2872,15912 2895,15950C2907,15969 3746,15962 4281,15938ZM14120,10383C14120,9097 14123,8730 14140,8145C14151,7760 14160,7426 14160,7403L14160,7361L13763,7357C13544,7355 13302,7348 13225,7341C13089,7330 12662,7309 12550,7307C12520,7307 12435,7310 12363,7315L12230,7323L12230,7484C12230,7586 12217,7794 12194,8050C12161,8421 12158,8501 12149,9000C12144,9300 12135,9662 12129,9805C12103,10395 12107,11746 12136,11846C12142,11867 12149,11868 12328,11874C12597,11883 12971,11901 13070,11910C13117,11914 13372,11918 13638,11919L14120,11920L14120,10383ZM11910,10561C11910,9727 11914,9242 11920,9225C11952,9142 11983,8521 11987,7884L11991,7323L11878,7317C11816,7313 11711,7306 11645,7301C11281,7272 10350,7255 10098,7273L9982,7282L9977,7563C9975,7718 9967,7892 9960,7950C9943,8099 9941,8711 9958,8767C9975,8824 10023,8868 10129,8925C10233,8980 10379,9097 10432,9166C10512,9273 10543,9365 10561,9550C10574,9677 10567,9978 10550,10049C10512,10204 10378,10340 10188,10418C10142,10436 10100,10444 10033,10448L9940,10453L9940,10594C9939,10672 9933,10775 9924,10825C9913,10892 9908,11033 9903,11373L9897,11830L9938,11830C9960,11830 9991,11835 10007,11841C10064,11862 10244,11867 11068,11869L11910,11870L11910,10561ZM9660,11830L9660,10490L9611,10490C9520,10490 9438,10445 9324,10332C9186,10196 9094,10047 9054,9895C9027,9795 9027,9531 9053,9445C9096,9306 9196,9129 9289,9028C9406,8900 9529,8830 9635,8830L9699,8830L9705,8163C9707,7795 9711,7459 9712,7415C9714,7371 9712,7323 9707,7308L9700,7280L7530,7280L7530,7378C7530,7431 7520,7590 7509,7730C7497,7891 7487,8133 7483,8387L7477,8788L7566,8815C7714,8859 7768,8888 7846,8965C7952,9071 8032,9217 8080,9395C8111,9507 8118,9711 8095,9800C8040,10016 7846,10270 7651,10380C7513,10458 7499,10469 7479,10515C7449,10583 7441,10754 7440,11303L7440,11790L7890,11790C8320,11790 8739,11802 8900,11819C8941,11824 9129,11828 9318,11829L9660,11830ZM4245,11770C4482,11759 4689,11750 4706,11750L4737,11750L4743,11528C4747,11405 4754,11177 4760,11020C4774,10649 4774,8535 4760,8135C4754,7965 4747,7693 4743,7531L4737,7237L4556,7244C4456,7248 4323,7255 4260,7261C4197,7266 3865,7273 3523,7276L2902,7282L2897,7894C2894,8230 2887,8593 2882,8700C2876,8807 2866,9095 2860,9340C2854,9585 2844,9886 2838,10010C2833,10134 2826,10585 2823,11013L2818,11790L3317,11790C3656,11790 3952,11783 4245,11770ZM7160,11750L7160,10532L7078,10528C6880,10518 6722,10401 6615,10185C6503,9960 6501,9761 6606,9415C6714,9057 6868,8876 7148,8779L7240,8747L7240,7283L6733,7277C6450,7274 6159,7265 6075,7258C5909,7244 5290,7240 5198,7253C5118,7265 5101,7281 5090,7360C5077,7455 5063,7797 5040,8565C5029,8939 5011,9531 5000,9880C4987,10286 4980,10736 4980,11132L4980,11750L7160,11750ZM14077,7075C14133,7036 14147,6915 14162,6340C14186,5368 14175,4129 14137,3760C14131,3694 14126,3465 14125,3218L14125,2791L14100,2765C14069,2732 13975,2704 13850,2690C13653,2669 13171,2650 12797,2650C12462,2650 12402,2648 12358,2633C12315,2619 12302,2619 12276,2630C12259,2637 12233,2645 12218,2647L12190,2652L12190,3054C12191,3675 12204,3782 12284,3815C12304,3823 12340,3830 12365,3830C12462,3830 12618,3904 12725,4001C12870,4134 12951,4311 12985,4568C13010,4758 13002,4974 12964,5125C12937,5235 12824,5369 12676,5468C12566,5542 12505,5562 12383,5568L12280,5572L12280,5639C12279,5782 12259,6168 12245,6303C12235,6395 12230,6548 12230,6741L12230,7037L12528,7044C13083,7056 13965,7081 13985,7084C14031,7092 14057,7089 14077,7075ZM12040,7040L12040,5530L11981,5530C11816,5530 11597,5389 11480,5208C11382,5057 11319,4788 11334,4592C11347,4434 11407,4260 11481,4163C11571,4047 11752,3926 11927,3867L12038,3829L12034,3792C12010,3579 11990,3192 11990,2944C11990,2662 11990,2656 11968,2633L11947,2610L9897,2610L9904,2748C9907,2823 9914,2928 9920,2980C9925,3032 9934,3606 9940,4260C9945,4912 9956,5731 9964,6080C9973,6429 9980,6779 9980,6858L9980,7000L10563,7001C10955,7001 11271,7008 11530,7019C11742,7029 11943,7038 11978,7039L12040,7040ZM4005,6985C4115,6977 4336,6967 4496,6964L4787,6957L4793,6216C4802,5262 4802,3397 4793,2932L4787,2570L2943,2570L2936,2983C2932,3209 2924,3472 2918,3565C2912,3664 2906,4419 2903,5368L2899,7000L3352,7000C3651,7000 3873,6995 4005,6985ZM9703,6808C9707,6673 9714,6597 9725,6555C9741,6500 9742,6436 9735,5840C9732,5480 9724,5088 9719,4970C9714,4852 9707,4272 9704,3683L9698,2610L9652,2610C9626,2611 9506,2618 9385,2626C9223,2638 8948,2643 8348,2647L7530,2652L7530,6960L7984,6960C8252,6960 8557,6966 8727,6975C8885,6983 9042,6991 9075,6993C9108,6995 9261,6997 9416,6998L9697,7000L9703,6808ZM7296,6873C7305,6757 7294,4738 7280,4175C7274,3933 7265,3627 7259,3495C7253,3363 7246,3119 7243,2953L7238,2650L6531,2650C5630,2650 5149,2630 5070,2590L5030,2570L5030,2598C5030,2613 5039,2713 5050,2820C5069,3007 5070,3086 5070,4987L5070,6960L7288,6960L7296,6873Z" style="fill-rule:nonzero;"/>
                <path d="M8505,11221C8383,11177 8258,11095 8230,11040L8209,10998L8252,10952C8276,10926 8311,10881 8329,10851L8363,10798L8383,10836C8414,10898 8479,10960 8513,10960L8543,10960L8538,10832C8532,10672 8522,10649 8401,10519C8303,10415 8250,10338 8250,10303C8250,10274 8281,10210 8295,10210C8301,10210 8358,10217 8421,10226C8484,10234 8612,10245 8706,10249C8858,10256 8883,10259 8926,10281L8975,10305L8978,10378L8981,10450L8690,10450L8690,10476C8690,10510 8707,10540 8726,10540C8734,10540 8748,10556 8756,10576C8821,10731 8735,11124 8615,11218C8582,11244 8570,11245 8505,11221Z" style="fill-rule:nonzero;"/>
                <path d="M5827,11193C5825,11189 5815,11160 5805,11130C5795,11100 5772,11057 5755,11035C5737,11013 5692,10950 5654,10895C5617,10840 5561,10765 5530,10729C5500,10692 5460,10642 5442,10617L5410,10572L5436,10551C5496,10503 5582,10512 5644,10572C5693,10620 5776,10670 5808,10670L5830,10670L5830,10160L5861,10160C5880,10160 5898,10168 5909,10181C5923,10198 5941,10203 5996,10207L6066,10212L6049,10364C6040,10447 6029,10567 6025,10630C6013,10829 5982,11083 5962,11140L5943,11195L5887,11198C5857,11200 5830,11197 5827,11193Z" style="fill-rule:nonzero;"/>
                <path d="M10937,6550C10828,6508 10729,6401 10749,6347C10775,6276 10907,6252 11000,6301C11057,6332 11092,6326 11129,6280L11162,6239L11116,6185C11086,6150 11059,6129 11039,6125C11003,6117 10940,6063 10898,6006C10876,5976 10870,5956 10870,5918L10870,5870L10948,5870C11026,5870 11150,5839 11184,5811C11207,5792 11205,5779 11160,5690L11120,5610L11075,5610C11049,5610 11018,5617 11004,5627C10986,5638 10945,5646 10867,5650C10802,5654 10734,5665 10706,5675L10657,5693L10633,5666C10596,5623 10618,5562 10695,5491C10783,5410 10941,5356 11018,5381C11072,5398 11137,5445 11240,5539C11333,5624 11370,5678 11370,5727C11370,5742 11350,5813 11325,5885C11300,5956 11280,6022 11280,6031C11280,6040 11289,6055 11301,6066C11379,6137 11365,6294 11269,6422C11173,6551 11055,6596 10937,6550Z" style="fill-rule:nonzero;"/>
                <path d="M15830,5275C15830,5253 15834,5250 15865,5250C15902,5250 15913,5267 15883,5276C15873,5279 15857,5286 15848,5291C15833,5299 15830,5296 15830,5275Z" style="fill-rule:nonzero;"/>
            </g>
        </g>
        <g id="Asus41" serif:id="Asus4">
        </g>
    </g>
</svg>
