<?xml version="1.0" encoding="iso-8859-1"?>
<!-- Generator: Adobe Illustrator 16.0.0, SVG Export Plug-In . SVG Version: 6.00 Build 0)  -->
<!DOCTYPE svg PUBLIC "-//W3C//DTD SVG 1.1//EN" "http://www.w3.org/Graphics/SVG/1.1/DTD/svg11.dtd">
<svg version="1.1" xmlns="http://www.w3.org/2000/svg" xmlns:xlink="http://www.w3.org/1999/xlink" x="0px" y="0px"
	 width="169.432px" height="227.75px" viewBox="0 0 169.432 227.75" style="enable-background:new 0 0 169.432 227.75;"
	 xml:space="preserve">
<g id="B">
	<g id="B_1_">
		<path style="fill:none;" d="M169.432,227.75c-56.479,0-112.955,0-169.432,0C0,150.932,0,74.114,0-2.704
			c56.477,0,112.953,0,169.431,0C169.431,74.114,169.431,150.932,169.432,227.75z M27.623,151.761c-0.601,0-1.097,0.042-1.583-0.009
			c-1.185-0.123-2.364-0.305-3.549-0.436c-1.521-0.168-2.902,0.053-3.87,1.469c0.493,0.785,1.144,1.262,1.997,1.28
			c0.954,0.021,1.912-0.085,2.866-0.169c1.031-0.09,2.085-0.417,3.083-0.285c1.613,0.216,2.057,0.717,1.894,2.154
			c-0.049,0.42-0.081,0.842-0.138,1.261c-0.427,3.135-0.65,6.274-0.479,9.445c0.124,2.306,0.207,4.627,0.083,6.928
			c-0.435,8.011-0.275,16.015-0.014,24.021c0.012,0.364-0.052,0.73-0.077,1.052c-2.865,0.135-5.587,0.261-8.37,0.391
			c0.125,1.3,0.523,2.374,1.352,3.259c3.72-1.216,6.253-1.456,8.146-0.773c0.013,0.175,0.035,0.364,0.039,0.552
			c0.097,5.044,0.193,10.087,0.289,15.129c0.021,1.104,0.606,1.639,1.637,1.449c0.322-0.061,0.624-0.229,0.863-0.318
			c-0.187-5.793-0.37-11.475-0.55-17.093c6.417-0.13,12.632-0.255,18.851-0.38c0.053,0.398,0.092,0.585,0.101,0.775
			c0.223,4.613,0.445,9.228,0.661,13.843c0.035,0.729-0.002,1.466,0.065,2.193c0.063,0.683,0.865,1.339,1.442,1.216
			c0.77-0.164,0.839-0.722,0.827-1.413c-0.089-5.274-0.144-10.55-0.201-15.825c-0.002-0.213,0.089-0.427,0.146-0.684
			c7.009,0,13.965,0,21.043,0c0.228,5.441,0.451,10.764,0.68,16.254c0.899-0.06,1.627-0.108,2.394-0.16
			c-0.068-5.54-0.157-10.908,0.006-16.291c1.088,0,1.969,0.015,2.849-0.002c5.583-0.108,11.166-0.224,16.748-0.343
			c1.334-0.028,1.347-0.044,1.771,1.241c0.727,2.192,0.748,4.459,0.709,6.738c-0.037,2.041-0.008,4.083,0.025,6.123
			c0.012,0.803,0.827,1.664,1.471,1.647c0.643-0.015,1.237-0.734,1.203-1.584c-0.129-3.231-0.281-6.462-0.445-9.691
			c-0.07-1.367-0.19-2.732-0.295-4.21c6.793-0.699,13.476-0.086,20.146-0.246c0,4.569,0,9.013,0,13.568
			c0.633,0.033,1.262,0.066,1.934,0.104c0-4.603,0-9.083,0-13.64c6.452,0,12.854,0,19.267,0c0.038,0.312,0.077,0.5,0.084,0.688
			c0.126,3.771,0.287,7.544,0.345,11.316c0.015,0.946,0.534,1.557,1.039,2.167c0.166,0.203,0.986,0.188,1.188-0.027
			c0.388-0.412,0.735-1.026,0.769-1.577c0.211-3.497,0.325-6.999,0.485-10.5c0.032-0.676,0.128-1.351,0.208-2.152
			c2.687,0,5.249,0,7.828,0c0.021-0.371,0.049-0.599,0.042-0.826c-0.057-1.919-0.374-2.358-2.295-2.576
			c-1.717-0.195-3.455-0.197-5.184-0.305c-0.597-0.038-1.188-0.14-1.816-0.216c0-14.647,0-29.149,0-43.774
			c0.565,0,0.988-0.044,1.398,0.009c1.066,0.136,2.128,0.317,3.193,0.476c1.323,0.198,2.402-0.201,3.243-1.307
			c-0.535-0.903-1.294-1.382-2.281-1.4c-0.842-0.016-1.688,0.067-2.529,0.137c-1.092,0.09-2.182,0.382-3.359,0.016
			c-0.279-14.913-0.876-29.783,0.316-44.758c1.005,0.141,1.834,0.266,2.666,0.372c1.754,0.224,3.506,0.566,5.276,0.124
			c0.761-0.19,1.446-0.491,1.892-1.338c-0.558-0.25-1.062-0.519-1.595-0.708c-1.814-0.648-3.704-0.602-5.593-0.575
			c-1.061,0.016-2.121-0.038-3.194-0.061c0-3.019,0-5.849,0-8.725c0.399-0.039,0.7-0.076,1.002-0.096
			c3.147-0.208,5.388-1.782,6.617-4.644c1.534-3.565,1.25-7.134-0.362-10.614c-0.184-0.395-0.53-0.775-0.898-1.012
			c-1.812-1.165-3.621-2.341-5.504-3.38c-0.853-0.471-1.319-0.888-1.069-1.932c0.148-0.619,0.058-1.3,0.048-1.953
			c-0.03-1.989-0.292-3.986,0.228-6.092c3.799,0,7.593,0,11.392,0c0.076-0.474,0.157-0.811,0.184-1.152
			c0.148-1.922,0.271-3.838-0.467-5.697c-0.286-0.72-0.622-1.143-1.502-1.058c-1.263,0.122-2.538,0.091-3.806,0.161
			c-2.846,0.155-5.688,0.462-8.534,0.469c-4.117,0.008-8.234-0.275-12.353-0.289c-8.008-0.028-16.017-0.032-24.022,0.097
			c-8.237,0.133-16.474,0.473-24.711,0.653c-5.813,0.126-11.63,0.177-17.445,0.188c-7.588,0.014-15.176-0.053-22.764-0.07
			c-7.204-0.016-14.408-0.014-21.611-0.017c-0.256,0-0.514,0.038-0.947,0.072c0.101,1.986,0.125,3.904,0.319,5.805
			c0.133,1.303,0.637,1.721,1.957,1.849c0.797,0.078,1.611-0.03,2.418-0.035c1.114-0.006,2.228,0.007,3.341,0.011
			c0.798,0.003,1.173,0.385,1.195,1.199c0.064,2.463,0.153,4.925,0.246,7.387c0.024,0.648-0.214,0.924-0.898,1.052
			c-2.259,0.422-4.054,1.636-5.366,3.517c-2.225,3.189-2.824,6.719-1.871,10.452c0.94,3.683,3.231,6.052,7.11,6.665
			c0.258,0.041,0.508,0.117,0.835,0.195c-0.14,2.272-0.171,4.504-0.444,6.707c-0.26,2.088-0.513,2.168-2.542,1.753
			c-0.98-0.201-1.953-0.46-2.943-0.575c-1.089-0.126-2.357,0.576-2.4,1.207c-0.048,0.713,0.917,1.54,2.088,1.676
			c0.877,0.102,1.769,0.062,2.652,0.112c1.101,0.062,2.201,0.152,3.366,0.235C27.32,122.372,28.602,136.94,27.623,151.761z
			 M69.47,14.049c-0.022,0.42-0.063,0.764-0.055,1.104c0.111,4.888,0.43,9.755,1.256,14.584c0.126,0.74,0.427,1.065,1.11,1.218
			c3.252,0.729,6.349,0.362,9.244-1.322c2.01-1.17,2.432-2.322,1.663-4.523c-0.225-0.643-0.619-1.231-0.975-1.821
			c-0.217-0.361-0.487-0.694-0.77-1.009c-0.488-0.542-0.539-1.059-0.252-1.769c0.801-1.983,0.381-3.704-1.204-5.117
			c-0.537-0.479-1.165-0.901-1.82-1.195C75.007,13.003,72.299,13.069,69.47,14.049z M70.017,53.168
			c1.56,0.489,3.062,0.406,4.539,0.287c2.602-0.21,5.081-0.877,7.184-2.522c2.889-2.26,3.206-5.601,0.808-8.363
			c-0.401-0.461-0.854-0.889-1.329-1.275c-1.977-1.602-4.263-2.539-6.708-3.191c-1.683-0.449-3.167-0.482-4.235,1.129
			c-0.277,0.417-0.603,0.923-0.6,1.386c0.009,1.688,0.099,3.38,0.249,5.063C70.143,48.128,70.538,50.566,70.017,53.168z
			 M105.83,54.376c-0.097-1.806-0.121-3.537-0.309-5.25c-0.105-0.976-0.4-1.954-0.768-2.868c-0.152-0.382-0.684-0.801-1.094-0.861
			c-2.318-0.341-4.542,0.364-6.959,0.646c0.154,0.868,0.285,1.604,0.434,2.445c0.681-0.045,1.291-0.048,1.889-0.137
			c0.645-0.095,1.271-0.341,1.916-0.396c0.866-0.075,1.105,0.289,0.855,1.133c-0.357,1.217-1.342,1.694-2.443,1.791
			c-1.296,0.113-2.612,0.055-3.913-0.03c-0.335-0.022-0.804-0.35-0.942-0.658c-1.114-2.481-1.182-5,0.027-7.47
			c0.826-1.689,2.325-2.367,4.137-1.812c1.129,0.345,2.185,0.927,3.269,1.414c0.358,0.161,0.704,0.354,1.11,0.561
			c0.047-2.676-1.604-4.625-4.057-4.697c-3.303-0.097-5.858,1.347-7.604,4.162c-0.238,0.384-0.412,0.842-0.484,1.288
			c-0.531,3.269,0.616,5.926,3.146,7.958c2.398,1.927,5.085,2.455,8.007,1.245c0.266-0.11,0.537-0.206,0.821-0.314
			C103.259,54.839,103.773,55.155,105.83,54.376z M33.432,52.483c0.07-0.633,0.116-1.011,0.153-1.391
			c0.114-1.136,0.035-1.305-1.132-1.312c-1.341-0.008-2.684,0.112-4.022,0.22c-2.066,0.167-2.144,0.131-2.715-1.796
			c-0.043-0.147-0.069-0.3-0.104-0.45c-0.29-1.195-0.222-1.238,1.032-1.441c0.749-0.121,1.516-0.301,2.196-0.621
			c0.711-0.335,0.869-1.087,0.678-1.905c-0.194-0.828-0.819-0.656-1.374-0.66c-0.944-0.007-1.887-0.002-2.793-0.002
			c-0.285-1.888,0.341-2.752,2.003-2.802c1.188-0.035,2.383,0.083,3.568,0.201c0.86,0.084,1.258-0.26,1.431-1.085
			c0.449-2.151,0.244-2.45-1.962-2.653c-2.254-0.208-4.439,0.18-6.616,0.711c-0.658,0.16-1.021,0.435-0.985,1.151
			c0.11,2.147,0.101,4.307,0.329,6.442c0.276,2.587,0.747,5.153,1.144,7.803C27.389,52.753,30.373,52.62,33.432,52.483z
			 M51.468,37.529c-0.431,0.335-0.778,0.493-0.952,0.763c-0.5,0.774-0.959,1.578-1.381,2.397c-1.985,3.858-3.951,7.725-5.921,11.584
			c0.597,0.571,1.1,1.054,1.818,1.742c0.091-2.455,1.454-3.508,3.319-3.902c1.68-0.354,3.412-0.454,5.125-0.666
			c0.165,0.522,0.258,0.888,0.393,1.237c0.499,1.284,1.242,2.394,2.431,3.136c0.582,0.363,1.196,0.384,1.625-0.253
			c0.379-0.563,0.602-1.135,0.025-1.774c-0.403-0.447-0.834-0.968-0.981-1.528c-0.563-2.15-1.584-4.079-2.668-5.986
			C53.125,42.212,51.842,40.193,51.468,37.529z M123.6,46.834c0.38,0.75,0.526,1.543,0.386,2.414
			c-0.154,0.947-0.236,1.905-0.381,2.854c-0.122,0.803,0.32,1.283,0.969,1.494c0.463,0.151,1.149,0.237,1.487-0.001
			c0.518-0.368,0.966-0.925,0.672-1.782c-0.242-0.711-0.301-1.509-0.313-2.271c-0.032-1.922,0.067-3.848-0.01-5.768
			c-0.046-1.14-0.224-2.3-0.53-3.398c-0.293-1.053-0.992-1.869-2.219-2.194c-0.056,0.401-0.135,0.735-0.142,1.071
			c-0.029,1.383-0.002,2.769-0.061,4.15c-0.051,1.208-0.139,1.265-1.372,1.293c-1.038,0.023-2.088-0.073-3.113,0.049
			c-0.889,0.106-1.257-0.282-1.291-1.031c-0.062-1.26-0.079-2.529-0.014-3.789c0.062-1.251-0.042-1.526-1.229-1.898
			c-0.458-0.144-0.948-0.187-1.557-0.3c0.09,0.678,0.192,1.197,0.221,1.719c0.22,4.03,0.43,8.062,0.635,12.093
			c0.045,0.893,0.454,1.27,1.347,1.284c0.898,0.015,0.813-0.608,0.831-1.184c0.007-0.23,0.021-0.461,0.021-0.692
			c0.002-1.136,0.001-2.272,0.001-3.49C119.882,47.244,121.702,47.043,123.6,46.834z M139.114,53.459c1.32,0,2.47,0.025,3.618-0.005
			c1.572-0.042,3.151-0.06,4.713-0.221c0.864-0.088,1.7-0.448,2.226-1.462c-0.502-0.194-0.937-0.459-1.397-0.519
			c-1.024-0.133-2.063-0.207-3.098-0.223c-1.113-0.018-2.229,0.079-3.344,0.079c-0.274,0-0.768-0.16-0.783-0.291
			c-0.095-0.785-0.22-1.621-0.027-2.358c0.073-0.278,0.96-0.439,1.49-0.482c0.943-0.076,1.897-0.021,2.924-0.021
			c0-0.577,0.015-0.99-0.003-1.401c-0.056-1.286-0.234-1.443-1.51-1.431c-1.025,0.01-2.051,0.002-3.082,0.002
			c-0.12-0.802-0.224-1.482-0.322-2.164c-0.021-0.152-0.027-0.307-0.028-0.46c-0.008-1.183,0.288-1.449,1.438-1.279
			c0.874,0.13,1.744,0.309,2.624,0.401c1.256,0.132,2.464-0.037,3.497-0.85c0.625-0.492,0.37-2.5-0.355-2.81
			c-0.129-0.054-0.309-0.056-0.443-0.015c-2.146,0.662-4.346,0.444-6.535,0.441c-0.791-0.001-1.58,0.104-2.585,0.176
			C138.463,43.589,138.784,48.453,139.114,53.459z M13.785,85.017c0.756-1.284,1.001-2.593,1.024-3.938
			c0.035-2.113-0.073-4.23,0.035-6.338c0.059-1.138-0.491-1.797-1.074-2.396c-1.317,1.081-2.584,2.066-3.786,3.127
			c-0.769,0.679-1.503,1.419-2.132,2.226c-0.439,0.564-0.646,1.291-0.36,2.035c0.92,0.274,1.644-0.023,2.25-0.617
			c0.493-0.482,0.894-1.059,1.396-1.53c0.502-0.475,1.079-0.872,1.623-1.302c0.099,0.06,0.198,0.12,0.297,0.179
			c0,0.94,0.037,1.881-0.01,2.818c-0.056,1.111-0.236,2.217-0.267,3.327C12.757,83.454,12.915,84.291,13.785,85.017z"/>
		<path style="fill-rule:evenodd;clip-rule:evenodd;" d="M27.623,151.761c0.979-14.82-0.303-29.389-0.321-44.135
			c-1.165-0.083-2.265-0.172-3.366-0.235c-0.883-0.05-1.775-0.01-2.652-0.112c-1.171-0.136-2.136-0.963-2.088-1.676
			c0.042-0.63,1.311-1.333,2.4-1.207c0.99,0.115,1.963,0.374,2.943,0.575c2.029,0.415,2.282,0.334,2.542-1.753
			c0.273-2.202,0.305-4.434,0.444-6.707c-0.327-0.078-0.578-0.154-0.835-0.195c-3.879-0.613-6.17-2.982-7.11-6.665
			c-0.953-3.733-0.354-7.263,1.871-10.452c1.312-1.88,3.107-3.094,5.366-3.517c0.684-0.128,0.922-0.403,0.898-1.052
			c-0.093-2.462-0.182-4.924-0.246-7.387c-0.022-0.814-0.397-1.196-1.195-1.199c-1.114-0.003-2.228-0.017-3.341-0.011
			c-0.807,0.004-1.621,0.113-2.418,0.035c-1.32-0.128-1.824-0.546-1.957-1.849c-0.194-1.901-0.218-3.819-0.319-5.805
			c0.434-0.034,0.691-0.072,0.947-0.072c7.203,0.003,14.407,0.001,21.611,0.017c7.588,0.018,15.176,0.084,22.764,0.07
			c5.815-0.011,11.632-0.062,17.445-0.188c8.238-0.18,16.474-0.52,24.711-0.653c8.006-0.129,16.015-0.125,24.022-0.097
			c4.118,0.014,8.235,0.297,12.353,0.289c2.846-0.007,5.688-0.314,8.534-0.469c1.268-0.069,2.543-0.039,3.806-0.161
			c0.88-0.085,1.216,0.338,1.502,1.058c0.738,1.859,0.615,3.775,0.467,5.697c-0.026,0.341-0.107,0.679-0.184,1.152
			c-3.799,0-7.593,0-11.392,0c-0.52,2.106-0.258,4.103-0.228,6.092c0.01,0.653,0.101,1.334-0.048,1.953
			c-0.25,1.044,0.217,1.461,1.069,1.932c1.883,1.039,3.692,2.216,5.504,3.38c0.368,0.236,0.715,0.617,0.898,1.012
			c1.612,3.48,1.896,7.048,0.362,10.614c-1.229,2.861-3.47,4.436-6.617,4.644c-0.302,0.02-0.603,0.057-1.002,0.096
			c0,2.876,0,5.706,0,8.725c1.073,0.022,2.134,0.076,3.194,0.061c1.889-0.027,3.778-0.073,5.593,0.575
			c0.532,0.189,1.037,0.457,1.595,0.708c-0.445,0.847-1.131,1.147-1.892,1.338c-1.771,0.442-3.522,0.1-5.276-0.124
			c-0.832-0.106-1.661-0.231-2.666-0.372c-1.192,14.975-0.596,29.845-0.316,44.758c1.178,0.366,2.268,0.074,3.359-0.016
			c0.842-0.069,1.688-0.152,2.529-0.137c0.987,0.019,1.746,0.497,2.281,1.4c-0.841,1.105-1.92,1.505-3.243,1.307
			c-1.065-0.158-2.127-0.34-3.193-0.476c-0.41-0.053-0.833-0.009-1.398-0.009c0,14.625,0,29.127,0,43.774
			c0.629,0.076,1.22,0.178,1.816,0.216c1.729,0.107,3.467,0.109,5.184,0.305c1.921,0.218,2.238,0.657,2.295,2.576
			c0.007,0.228-0.021,0.455-0.042,0.826c-2.579,0-5.142,0-7.828,0c-0.08,0.802-0.176,1.477-0.208,2.152
			c-0.16,3.501-0.274,7.003-0.485,10.5c-0.033,0.551-0.381,1.165-0.769,1.577c-0.202,0.215-1.022,0.23-1.188,0.027
			c-0.505-0.61-1.024-1.221-1.039-2.167c-0.058-3.772-0.219-7.545-0.345-11.316c-0.007-0.188-0.046-0.377-0.084-0.688
			c-6.413,0-12.814,0-19.267,0c0,4.557,0,9.037,0,13.64c-0.672-0.037-1.301-0.07-1.934-0.104c0-4.556,0-8.999,0-13.568
			c-6.67,0.16-13.353-0.453-20.146,0.246c0.104,1.478,0.225,2.843,0.295,4.21c0.164,3.229,0.316,6.46,0.445,9.691
			c0.034,0.85-0.561,1.569-1.203,1.584c-0.644,0.017-1.459-0.845-1.471-1.647c-0.033-2.04-0.062-4.082-0.025-6.123
			c0.039-2.279,0.018-4.546-0.709-6.738c-0.425-1.285-0.438-1.27-1.771-1.241c-5.582,0.119-11.165,0.234-16.748,0.343
			c-0.88,0.017-1.761,0.002-2.849,0.002c-0.163,5.383-0.074,10.751-0.006,16.291c-0.767,0.052-1.495,0.101-2.394,0.16
			c-0.229-5.49-0.452-10.812-0.68-16.254c-7.079,0-14.034,0-21.043,0c-0.057,0.257-0.148,0.471-0.146,0.684
			c0.057,5.275,0.112,10.551,0.201,15.825c0.012,0.691-0.058,1.249-0.827,1.413c-0.577,0.123-1.379-0.533-1.442-1.216
			c-0.068-0.728-0.031-1.464-0.065-2.193c-0.215-4.615-0.438-9.229-0.661-13.843c-0.009-0.19-0.048-0.377-0.101-0.775
			c-6.219,0.125-12.434,0.25-18.851,0.38c0.181,5.618,0.364,11.3,0.55,17.093c-0.239,0.09-0.542,0.258-0.863,0.318
			c-1.03,0.189-1.616-0.345-1.637-1.449c-0.096-5.042-0.191-10.085-0.289-15.129c-0.004-0.188-0.026-0.377-0.039-0.552
			c-1.893-0.683-4.426-0.442-8.146,0.773c-0.829-0.885-1.228-1.959-1.352-3.259c2.783-0.13,5.505-0.256,8.37-0.391
			c0.025-0.321,0.089-0.688,0.077-1.052c-0.261-8.007-0.421-16.011,0.014-24.021c0.125-2.301,0.042-4.622-0.083-6.928
			c-0.171-3.171,0.052-6.311,0.479-9.445c0.057-0.419,0.089-0.841,0.138-1.261c0.164-1.438-0.28-1.938-1.894-2.154
			c-0.997-0.132-2.051,0.195-3.083,0.285c-0.954,0.084-1.912,0.19-2.866,0.169c-0.853-0.019-1.504-0.495-1.997-1.28
			c0.968-1.416,2.35-1.637,3.87-1.469c1.185,0.131,2.364,0.312,3.549,0.436C26.526,151.803,27.022,151.761,27.623,151.761z
			 M98.385,151.429c0.025-0.499,0.067-0.874,0.059-1.248c-0.041-1.692-0.116-3.384-0.143-5.075
			c-0.096-5.887-0.156-11.773-0.268-17.659c-0.119-6.462-0.277-12.924-0.426-19.386c-0.025-1.078-0.24-1.211-1.346-1.139
			c-2.188,0.142-4.375,0.284-6.566,0.352c-4.153,0.129-8.31,0.201-12.464,0.312c-0.519,0.014-1.036,0.119-1.533,0.18
			c0.15,14.534-0.109,28.947,1.025,43.41C83.877,151.783,91.096,151.295,98.385,151.429z M74.147,151.441
			c0-0.498,0.012-0.84-0.001-1.18c-0.197-5.154-0.442-10.307-0.583-15.461c-0.215-7.929-0.343-15.86-0.552-23.789
			c-0.024-0.904-0.29-1.812-0.527-2.696c-0.166-0.619-0.607-0.828-1.313-0.806c-4.229,0.134-8.461,0.205-12.692,0.288
			c-2.261,0.044-4.523,0.068-6.903,0.104c-0.291,14.701,0.658,29.177,0.904,43.896C59.711,151.68,66.852,151.562,74.147,151.441z
			 M99.996,106.815c0.35,14.999,0.693,29.789,1.037,44.62c6.728,0.43,13.273-0.33,19.932-0.297
			c-0.54-15.027-1.074-29.891-1.612-44.848C113.001,106.463,106.656,106.634,99.996,106.815z M142.098,150.631
			c0.06-0.525,0.115-0.862,0.133-1.199c0.452-8.549-0.119-17.08-0.399-25.618c-0.18-5.461-0.222-10.926-0.317-16.389
			c-0.007-0.41,0.04-0.821,0.063-1.287c-0.439,0-0.774-0.008-1.11,0.001c-1.806,0.045-3.611,0.133-5.417,0.133
			c-3.001,0-6.002-0.124-9-0.057c-1.391,0.032-2.774,0.388-4.201,0.604c0,0.63-0.005,1.05,0.001,1.469
			c0.05,3.501,0.05,7.004,0.167,10.503c0.17,5.077,0.441,10.149,0.643,15.226c0.198,4.958,0.394,9.917,0.526,14.877
			c0.051,1.903,0.062,2.113,1.947,2.09C130.746,150.918,136.357,150.758,142.098,150.631z M29.854,107.795
			c0,0.455-0.004,0.832,0.001,1.208c0.045,3.116,0.048,6.233,0.15,9.348c0.162,4.999,0.431,9.994,0.577,14.992
			c0.146,4.998,0.199,9.998,0.284,14.997c0.019,1.095,0.003,2.19,0.003,3.296c6.151,0,12.252,0,18.456,0
			c0.224-14.635,0.009-29.193-0.241-43.841C42.642,107.795,36.348,107.795,29.854,107.795z M50.3,198.115
			c-0.2-14.646-0.396-29.061-0.595-43.588c-1.056,0-1.896,0.01-2.735-0.002c-4.966-0.068-9.932-0.14-14.898-0.217
			c-0.821-0.014-1.061,0.17-1.076,1.103c-0.063,3.848-0.193,7.697-0.127,11.543c0.173,10.124,0.436,20.245,0.665,30.368
			c0.008,0.374,0.035,0.749,0.062,1.312C37.809,198.461,43.942,198.292,50.3,198.115z M73.905,197.422
			c0.53-7.542,0.856-14.876,0.794-22.187c-1.046-0.446-2.017-0.81-2.94-1.266c-2.321-1.146-4.061-2.874-4.578-5.463
			c-0.294-1.476-0.483-3.103-0.161-4.537c0.308-1.365,1.263-2.619,2.076-3.828c1.017-1.514,2.49-2.375,4.355-2.477
			c0.298-0.016,0.593-0.076,0.885-0.117c0-1.117,0-2.163,0-3.284c-7.31,1.028-14.53,0.656-21.925,0.277
			c0.176,14.517,0.352,28.929,0.528,43.457C60.026,197.484,66.89,196.965,73.905,197.422z M123.468,153.978
			c0.108,7.658,0.217,15.107,0.322,22.559c4.734,1.037,6.419,5.165,6.5,9.038c0.043,2.14-0.521,4.189-1.848,5.955
			c-1.245,1.656-2.934,2.537-4.999,2.812c0,1.029,0,1.989,0,2.939c0.265,0.043,0.377,0.079,0.488,0.077
			c4.229-0.066,8.457-0.131,12.686-0.206c1.266-0.022,2.546,0.029,3.793-0.144c1.328-0.184,1.766-0.782,1.803-2.084
			c0.178-6.422,0.456-12.845,0.479-19.268c0.024-6.539-0.2-13.08-0.332-19.62c-0.021-1.025-0.133-2.051-0.203-3.092
			C135.826,153.295,129.624,153.639,123.468,153.978z M79.943,157.656c-0.465,0.639-0.078,0.82,0.488,1.028
			c1.938,0.718,3.36,1.97,4.023,3.999c1.546,4.721-1.692,10.868-6.46,12.229c-0.396,0.113-0.799,0.209-1.287,0.335
			c0.568,7.48-0.113,14.948,0.625,22.463c6.981-0.011,13.849-0.964,20.788-0.012c0.504-4.64,0.399-9.159,0.341-13.735
			c-1.61-0.19-3.069-0.521-4.276-1.495c-3.184-2.57-4.018-5.997-3.387-9.848c0.647-3.963,3.248-6.32,7.227-6.779
			c0.214-0.024,0.423-0.097,0.678-0.156c-0.049-3.924,0.115-7.795-0.597-11.653c-0.351,0-0.58-0.01-0.808,0.002
			c-6.612,0.321-13.222,0.771-19.848,0.485c-0.69-0.028-0.908,0.343-0.876,0.911c0.041,0.721,0.155,1.437,0.245,2.227
			C77.851,157.656,78.83,157.656,79.943,157.656z M121.269,195.331c-0.154-0.082-0.186-0.108-0.22-0.116
			c-0.151-0.028-0.303-0.057-0.454-0.073c-2.394-0.277-4.309-1.354-5.601-3.417c-1.771-2.823-1.944-5.878-1.075-8.999
			c0.83-2.987,2.568-5.23,5.676-6.151c0.619-0.184,1.266-0.273,1.97-0.421c0.339-7.459,0.026-14.895-0.269-22.202
			c-6.832,0-13.511,0-20.202,0c0,4.367,0,8.533,0,12.68c5.154,0.845,7.027,4.775,7.287,8.267c0.154,2.089-0.312,4.054-1.504,5.808
			c-1.451,2.134-3.617,2.985-6.241,3.261c0.099,4.604,0.194,9.119,0.292,13.718c6.935,0.103,13.633,0.013,20.341-0.576
			C121.269,196.413,121.269,195.883,121.269,195.331z M97.237,65.924c-7.332-0.602-14.581-0.081-21.954-0.232
			c0.114,3.647,0.224,7.121,0.334,10.636c7.298,0,14.444,0,21.693,0C96.915,72.84,96.347,69.452,97.237,65.924z M73.046,65.835
			c-7.225,0.154-14.275,0.305-21.354,0.456c0,3.464,0,6.828,0,10.294c7.209-0.104,14.369-0.206,21.705-0.311
			C73.278,72.742,73.163,69.299,73.046,65.835z M99.583,65.605c0.211,3.606-0.308,7.002-0.016,10.253c6.874,0,13.579,0,20.275,0
			c0-3.594,0-6.959,0-10.253C113.067,65.605,106.425,65.605,99.583,65.605z M75.651,104.883c3.533,0,7.027,0,10.521,0
			c3.53,0,7.062,0,10.699,0c1.094-2.929,0.552-6.083,0.698-9.125c-7.388,0.142-14.603,0.28-21.919,0.421
			C75.651,98.919,75.651,101.791,75.651,104.883z M51.551,96.078c0,3.011,0,5.841,0,8.643c2.391,0.443,20.002,0.384,21.395-0.046
			c0-2.794,0-5.588,0-8.542C65.778,95.715,58.628,95.404,51.551,96.078z M30.196,76.369c6.306-0.884,12.527,0.674,18.964,0.231
			c0-3.384,0-6.672,0-10.074c-6.237-0.727-12.569-0.149-18.986-0.559C30.494,69.509,29.554,72.866,30.196,76.369z M122.888,65.451
			c-0.516,2.835-0.488,9.028-0.016,10.186c6.325-0.226,12.617-0.45,18.962-0.676c0-3.211,0-6.305,0-9.51
			C135.446,65.451,129.155,65.451,122.888,65.451z M119.529,95.332c-6.554,0.095-13.067,0.188-19.729,0.284
			c0.119,3.018,0.232,5.919,0.343,8.735c6.515,0,12.916,0,19.386,0C119.529,101.247,119.529,98.342,119.529,95.332z M122.216,95.362
			c0.04,3.005-0.423,5.909-0.051,8.864c1.447-0.133,2.78-0.348,4.113-0.359c4.429-0.038,8.857,0.002,13.287,0
			c0.673,0,1.348-0.067,2.167-0.11c0-2.989,0-5.814,0-8.69C135.263,95.165,128.808,95.263,122.216,95.362z M49.008,95.86
			c-6.391-0.39-12.566,0.586-18.74,0.65c-0.16,2.907-0.308,5.575-0.461,8.356c6.498,0.452,12.813,0.032,19.201-0.025
			C49.008,101.821,49.008,98.917,49.008,95.86z"/>
		<path style="fill-rule:evenodd;clip-rule:evenodd;" d="M79.47,11.049c2.83-0.98,5.538-1.046,8.197,0.149
			c0.655,0.294,1.283,0.716,1.82,1.195c1.585,1.414,2.005,3.134,1.204,5.117c-0.287,0.709-0.236,1.226,0.252,1.769
			c0.282,0.314,0.553,0.648,0.77,1.009c0.355,0.59,0.75,1.179,0.975,1.821c0.77,2.201,0.348,3.354-1.662,4.523
			c-2.896,1.684-5.992,2.052-9.245,1.322c-0.683-0.153-0.983-0.478-1.11-1.218c-0.826-4.829-1.146-9.696-1.256-14.584
			C79.406,11.812,79.447,11.469,79.47,11.049z M83.217,20.796c0.14,1.285,0.318,2.304,0.34,3.326
			c0.016,0.733,0.34,1.026,0.985,1.165c1.885,0.403,3.502-0.125,4.843-1.456c1.068-1.06,0.918-1.878-0.522-2.705
			c-0.408-0.234-0.952-0.301-1.438-0.315C86.094,20.769,84.759,20.796,83.217,20.796z M82.957,17.815
			c1.509,0.152,2.802,0.088,3.971-0.604c0.69-0.409,1.504-0.917,1.396-1.801c-0.113-0.927-0.909-1.461-1.796-1.756
			c-0.145-0.048-0.297-0.112-0.443-0.107c-1.167,0.034-2.333,0.082-3.674,0.133C82.611,15.2,82.78,16.475,82.957,17.815z"/>
		<path style="fill-rule:evenodd;clip-rule:evenodd;" d="M70.017,53.168c0.521-2.602,0.125-5.04-0.092-7.487
			c-0.15-1.683-0.24-3.375-0.249-5.063c-0.003-0.463,0.323-0.969,0.6-1.386c1.069-1.611,2.552-1.578,4.235-1.129
			c2.445,0.653,4.731,1.589,6.708,3.191c0.476,0.386,0.928,0.813,1.329,1.275c2.398,2.762,2.081,6.103-0.808,8.363
			c-2.104,1.645-4.582,2.312-7.184,2.522C73.079,53.575,71.577,53.657,70.017,53.168z M72.533,41.132
			c-0.114,0.231-0.165,0.295-0.177,0.365c-0.551,3.051,0.053,6.035,0.575,9.017c0.037,0.216,0.552,0.51,0.831,0.496
			c2.734-0.14,4.821-1.595,6.699-3.428c0.125-0.122,0.218-0.327,0.231-0.5c0.162-2.015-0.246-3.952-2.645-4.969
			C76.289,41.368,74.418,41.247,72.533,41.132z"/>
		<path style="fill-rule:evenodd;clip-rule:evenodd;" d="M105.83,54.376c-2.057,0.778-2.571,0.462-2.962-1.854
			c-0.284,0.108-0.556,0.204-0.821,0.314c-2.922,1.21-5.608,0.682-8.007-1.245c-2.529-2.032-3.677-4.689-3.146-7.958
			c0.072-0.445,0.246-0.904,0.484-1.288c1.745-2.815,4.301-4.259,7.604-4.162c2.453,0.072,4.104,2.021,4.057,4.697
			c-0.406-0.207-0.752-0.4-1.11-0.561c-1.084-0.487-2.14-1.069-3.269-1.414c-1.812-0.554-3.311,0.124-4.137,1.812
			c-1.209,2.47-1.142,4.989-0.027,7.47c0.139,0.309,0.607,0.636,0.942,0.658c1.301,0.085,2.617,0.143,3.913,0.03
			c1.102-0.096,2.086-0.574,2.443-1.791c0.25-0.845,0.011-1.208-0.855-1.133c-0.645,0.056-1.271,0.301-1.916,0.396
			c-0.598,0.089-1.208,0.091-1.889,0.137c-0.148-0.841-0.279-1.577-0.434-2.445c2.417-0.281,4.641-0.987,6.959-0.646
			c0.41,0.06,0.941,0.479,1.094,0.861c0.367,0.915,0.662,1.892,0.768,2.868C105.709,50.84,105.733,52.571,105.83,54.376z"/>
		<path style="fill-rule:evenodd;clip-rule:evenodd;" d="M33.432,52.483c-3.06,0.137-6.043,0.27-9.169,0.409
			c-0.397-2.65-0.868-5.216-1.144-7.803c-0.228-2.135-0.219-4.294-0.329-6.442c-0.036-0.716,0.328-0.991,0.985-1.151
			c2.177-0.532,4.362-0.92,6.616-0.711c2.206,0.203,2.411,0.502,1.962,2.653c-0.172,0.825-0.57,1.169-1.431,1.085
			c-1.185-0.118-2.381-0.235-3.568-0.201c-1.663,0.049-2.289,0.914-2.003,2.802c0.906,0,1.849-0.005,2.793,0.002
			c0.555,0.004,1.18-0.168,1.374,0.66c0.191,0.818,0.034,1.57-0.678,1.905c-0.68,0.32-1.447,0.5-2.196,0.621
			c-1.254,0.203-1.322,0.246-1.032,1.441c0.036,0.149,0.062,0.302,0.104,0.45c0.571,1.927,0.649,1.963,2.715,1.796
			c1.339-0.108,2.682-0.228,4.022-0.22c1.167,0.007,1.246,0.176,1.132,1.312C33.548,51.472,33.502,51.851,33.432,52.483z"/>
		<path style="fill-rule:evenodd;clip-rule:evenodd;" d="M51.468,37.529c0.374,2.664,1.656,4.683,2.833,6.75
			c1.084,1.907,2.105,3.836,2.668,5.986c0.146,0.56,0.578,1.081,0.981,1.528c0.577,0.639,0.354,1.211-0.025,1.774
			c-0.429,0.637-1.044,0.616-1.625,0.253c-1.189-0.742-1.932-1.852-2.431-3.136c-0.135-0.349-0.229-0.715-0.393-1.237
			c-1.712,0.212-3.445,0.312-5.125,0.666c-1.866,0.394-3.229,1.447-3.319,3.902c-0.718-0.688-1.221-1.17-1.818-1.742
			c1.971-3.859,3.937-7.726,5.921-11.584c0.422-0.82,0.881-1.624,1.381-2.397C50.69,38.022,51.037,37.865,51.468,37.529z
			 M50.503,43.853c-0.595,1.313-1.678,2.243-1.713,3.805c1.251-0.334,2.541,0.373,3.685-0.643
			C51.935,45.953,52.032,44.525,50.503,43.853z"/>
		<path style="fill-rule:evenodd;clip-rule:evenodd;" d="M123.6,46.834c-1.897,0.209-3.718,0.41-5.663,0.625
			c0,1.218,0.001,2.354-0.001,3.49c0,0.23-0.014,0.461-0.021,0.692c-0.018,0.576,0.067,1.198-0.831,1.184
			c-0.893-0.015-1.302-0.392-1.347-1.284c-0.205-4.031-0.415-8.063-0.635-12.093c-0.028-0.522-0.131-1.041-0.221-1.719
			c0.608,0.113,1.099,0.157,1.557,0.3c1.188,0.372,1.292,0.646,1.229,1.898c-0.065,1.26-0.048,2.528,0.014,3.789
			c0.034,0.749,0.402,1.137,1.291,1.031c1.025-0.122,2.075-0.025,3.113-0.049c1.233-0.028,1.321-0.085,1.372-1.293
			c0.059-1.381,0.031-2.767,0.061-4.15c0.007-0.336,0.086-0.67,0.142-1.071c1.227,0.325,1.926,1.141,2.219,2.194
			c0.307,1.099,0.484,2.258,0.53,3.398c0.077,1.92-0.022,3.845,0.01,5.768c0.013,0.762,0.071,1.56,0.313,2.271
			c0.294,0.856-0.154,1.414-0.672,1.782c-0.338,0.238-1.024,0.152-1.487,0.001c-0.648-0.211-1.091-0.691-0.969-1.494
			c0.145-0.949,0.227-1.907,0.381-2.854C124.126,48.378,123.979,47.584,123.6,46.834z"/>
		<path style="fill-rule:evenodd;clip-rule:evenodd;" d="M139.114,53.459c-0.33-5.006-0.651-9.87-0.984-14.894
			c1.005-0.072,1.794-0.178,2.585-0.176c2.189,0.003,4.39,0.221,6.535-0.441c0.135-0.041,0.314-0.039,0.443,0.015
			c0.726,0.31,0.98,2.317,0.355,2.81c-1.033,0.813-2.241,0.982-3.497,0.85c-0.88-0.092-1.75-0.271-2.624-0.401
			c-1.149-0.17-1.445,0.096-1.438,1.279c0.001,0.154,0.007,0.309,0.028,0.46c0.099,0.682,0.202,1.362,0.322,2.164
			c1.031,0,2.057,0.008,3.082-0.002c1.275-0.012,1.454,0.146,1.51,1.431c0.018,0.411,0.003,0.824,0.003,1.401
			c-1.026,0-1.98-0.056-2.924,0.021c-0.53,0.043-1.417,0.204-1.49,0.482c-0.192,0.738-0.067,1.573,0.027,2.358
			c0.016,0.131,0.509,0.291,0.783,0.291c1.114,0,2.23-0.097,3.344-0.079c1.034,0.016,2.073,0.089,3.098,0.223
			c0.461,0.06,0.896,0.325,1.397,0.519c-0.525,1.014-1.361,1.374-2.226,1.462c-1.562,0.161-3.141,0.178-4.713,0.221
			C141.584,53.484,140.435,53.459,139.114,53.459z"/>
		<path style="fill-rule:evenodd;clip-rule:evenodd;" d="M13.785,85.017c-0.871-0.727-1.028-1.563-1.003-2.408
			c0.031-1.11,0.211-2.216,0.267-3.327c0.047-0.937,0.01-1.878,0.01-2.818c-0.1-0.06-0.198-0.12-0.297-0.179
			c-0.544,0.43-1.12,0.827-1.623,1.302c-0.502,0.471-0.902,1.048-1.396,1.53c-0.606,0.594-1.33,0.891-2.25,0.617
			c-0.286-0.744-0.079-1.47,0.36-2.035c0.629-0.807,1.363-1.547,2.132-2.226c1.201-1.061,2.468-2.046,3.786-3.127
			c0.583,0.6,1.133,1.259,1.074,2.396c-0.108,2.107,0,4.225-0.035,6.338C14.786,82.424,14.541,83.733,13.785,85.017z"/>
		<path style="fill-rule:evenodd;clip-rule:evenodd;fill:none;" d="M98.385,151.429c-7.289-0.134-14.507,0.354-21.661-0.255
			c-1.135-14.463-0.875-28.876-1.025-43.41c0.497-0.061,1.014-0.166,1.533-0.18c4.154-0.111,8.311-0.183,12.464-0.312
			c2.191-0.068,4.379-0.209,6.566-0.352c1.105-0.072,1.32,0.062,1.346,1.139c0.148,6.462,0.307,12.924,0.426,19.386
			c0.111,5.886,0.172,11.772,0.268,17.659c0.026,1.691,0.102,3.383,0.143,5.075C98.452,150.555,98.41,150.93,98.385,151.429z"/>
		<path style="fill-rule:evenodd;clip-rule:evenodd;fill:none;" d="M74.147,151.441c-7.296,0.121-14.437,0.238-21.667,0.357
			c-0.246-14.72-1.195-29.195-0.904-43.896c2.38-0.036,4.642-0.06,6.903-0.104c4.231-0.083,8.463-0.154,12.692-0.288
			c0.706-0.022,1.147,0.187,1.313,0.806c0.237,0.883,0.502,1.792,0.527,2.696c0.209,7.929,0.336,15.86,0.552,23.789
			c0.14,5.154,0.386,10.307,0.583,15.461C74.159,150.602,74.147,150.943,74.147,151.441z"/>
		<path style="fill-rule:evenodd;clip-rule:evenodd;fill:none;" d="M99.996,106.815c6.66-0.181,13.005-0.353,19.356-0.525
			c0.538,14.958,1.072,29.821,1.612,44.848c-6.658-0.033-13.204,0.727-19.932,0.297C100.689,136.604,100.346,121.814,99.996,106.815
			z"/>
		<path style="fill-rule:evenodd;clip-rule:evenodd;fill:none;" d="M142.098,150.631c-5.74,0.127-11.352,0.287-16.965,0.354
			c-1.886,0.023-1.896-0.187-1.947-2.09c-0.133-4.96-0.328-9.919-0.526-14.877c-0.201-5.076-0.473-10.148-0.643-15.226
			c-0.117-3.499-0.117-7.002-0.167-10.503c-0.006-0.419-0.001-0.839-0.001-1.469c1.427-0.216,2.811-0.572,4.201-0.604
			c2.998-0.067,5.999,0.057,9,0.057c1.806,0,3.611-0.088,5.417-0.133c0.336-0.009,0.671-0.001,1.11-0.001
			c-0.023,0.466-0.07,0.877-0.063,1.287c0.096,5.463,0.138,10.928,0.317,16.389c0.28,8.538,0.852,17.069,0.399,25.618
			C142.213,149.769,142.157,150.105,142.098,150.631z"/>
		<path style="fill-rule:evenodd;clip-rule:evenodd;fill:none;" d="M29.854,107.795c6.494,0,12.788,0,19.23,0
			c0.25,14.648,0.465,29.207,0.241,43.841c-6.203,0-12.304,0-18.456,0c0-1.105,0.016-2.201-0.003-3.296
			c-0.085-4.999-0.139-9.999-0.284-14.997c-0.146-4.998-0.415-9.993-0.577-14.992c-0.102-3.114-0.105-6.232-0.15-9.348
			C29.849,108.627,29.854,108.25,29.854,107.795z"/>
		<path style="fill-rule:evenodd;clip-rule:evenodd;fill:none;" d="M50.3,198.115c-6.358,0.177-12.491,0.346-18.704,0.519
			c-0.028-0.562-0.054-0.938-0.062-1.312c-0.229-10.123-0.491-20.244-0.665-30.368c-0.066-3.846,0.063-7.695,0.127-11.543
			c0.016-0.933,0.255-1.116,1.076-1.103c4.966,0.077,9.932,0.148,14.898,0.217c0.839,0.012,1.679,0.002,2.735,0.002
			C49.903,169.055,50.1,183.469,50.3,198.115z"/>
		<path style="fill-rule:evenodd;clip-rule:evenodd;fill:none;" d="M73.905,197.422c-7.015-0.457-13.878,0.062-20.965,0.576
			c-0.176-14.528-0.352-28.94-0.528-43.457c7.395,0.379,14.615,0.751,21.925-0.277c0,1.121,0,2.167,0,3.284
			c-0.292,0.041-0.586,0.102-0.885,0.117c-1.866,0.102-3.338,0.963-4.355,2.477c-0.812,1.209-1.768,2.463-2.076,3.828
			c-0.323,1.435-0.134,3.062,0.161,4.537c0.518,2.589,2.257,4.317,4.578,5.463c0.923,0.456,1.894,0.819,2.94,1.266
			C74.761,182.546,74.435,189.88,73.905,197.422z M60.314,160.556c-0.02,0.303,0.029,0.557-0.059,0.75
			c-0.581,1.283-1.153,2.575-1.804,3.824c-0.582,1.119-1.276,2.179-1.891,3.28c-0.314,0.562-0.082,0.895,0.501,1.144
			c1.714,0.736,3.487,1.243,5.349,1.265c0.782,0.01,1.586-0.222,2.338-0.471c0.279-0.093,0.641-0.58,0.602-0.831
			c-0.053-0.342-0.396-0.74-0.721-0.909c-0.387-0.201-0.885-0.235-1.338-0.252c-0.845-0.031-1.692,0.024-2.537,0.001
			c-0.349-0.008-0.696-0.125-1.181-0.222c0.278-0.372,0.436-0.583,0.593-0.794c1.195-1.611,1.963-3.401,2.082-5.409
			c0.065-1.098,0.162-2.26-0.758-3.134c-1.281-1.217-4.323-0.823-5.274,0.671c-0.446,0.7-0.307,1.451,0.331,2.079
			c0.643,0.633,1.057,0.038,1.475-0.276C58.675,160.778,59.296,160.28,60.314,160.556z"/>
		<path style="fill-rule:evenodd;clip-rule:evenodd;fill:none;" d="M123.468,153.978c6.156-0.339,12.358-0.683,18.689-1.032
			c0.07,1.041,0.182,2.066,0.203,3.092c0.132,6.54,0.356,13.081,0.332,19.62c-0.023,6.423-0.302,12.846-0.479,19.268
			c-0.037,1.302-0.475,1.9-1.803,2.084c-1.247,0.173-2.527,0.121-3.793,0.144c-4.229,0.075-8.457,0.14-12.686,0.206
			c-0.111,0.002-0.224-0.034-0.488-0.077c0-0.95,0-1.91,0-2.939c2.065-0.275,3.754-1.156,4.999-2.812
			c1.326-1.766,1.891-3.815,1.848-5.955c-0.081-3.873-1.766-8.001-6.5-9.038C123.685,169.085,123.576,161.636,123.468,153.978z"/>
		<path style="fill-rule:evenodd;clip-rule:evenodd;fill:none;" d="M79.943,157.656c-1.113,0-2.092,0-3.125,0
			c-0.09-0.79-0.205-1.506-0.245-2.227c-0.032-0.568,0.186-0.939,0.876-0.911c6.626,0.286,13.236-0.164,19.848-0.485
			c0.228-0.012,0.457-0.002,0.808-0.002c0.712,3.858,0.548,7.729,0.597,11.653c-0.255,0.06-0.464,0.132-0.678,0.156
			c-3.979,0.459-6.579,2.816-7.227,6.779c-0.631,3.851,0.203,7.277,3.387,9.848c1.207,0.974,2.666,1.305,4.276,1.495
			c0.059,4.576,0.163,9.096-0.341,13.735c-6.938-0.952-13.807,0.001-20.788,0.012c-0.738-7.515-0.056-14.982-0.625-22.463
			c0.488-0.126,0.891-0.222,1.287-0.335c4.768-1.36,8.006-7.508,6.46-12.229c-0.664-2.029-2.085-3.281-4.023-3.999
			C79.865,158.477,79.478,158.295,79.943,157.656z M83.093,187.421c-0.682,1.399-0.523,2.417,0.456,3.297
			c1.177,1.058,2.605,1.443,4.16,1.357c0.289-0.016,0.594-0.157,0.852-0.31c2.396-1.408,2.998-4.333,1.346-6.565
			c-0.359-0.485-0.799-0.911-1.181-1.341c0.874-2.717-0.34-4.843-2.894-5.16c-1.607-0.201-2.42,0.613-2.252,2.406
			c0.483-0.113,0.945-0.293,1.415-0.314c0.456-0.022,1.078-0.041,1.342,0.223c0.438,0.439,0.519,1.137,0.091,1.699
			c-0.346,0.455-0.782,0.844-1.184,1.254c-0.476,0.487-0.766,1.026-0.583,1.731c0.556,0,1.081-0.11,1.532,0.024
			c0.711,0.214,1.471,0.471,2.028,0.93c0.797,0.653,0.889,1.811,0.427,2.634c-0.433,0.771-1.445,1.311-2.376,0.992
			c-0.635-0.218-1.167-0.791-1.689-1.269C84.068,188.541,83.625,187.995,83.093,187.421z"/>
		<path style="fill-rule:evenodd;clip-rule:evenodd;fill:none;" d="M121.269,195.331c0,0.552,0,1.082,0,1.776
			c-6.708,0.589-13.406,0.679-20.341,0.576c-0.098-4.599-0.193-9.114-0.292-13.718c2.624-0.275,4.79-1.127,6.241-3.261
			c1.191-1.754,1.658-3.719,1.504-5.808c-0.26-3.491-2.133-7.422-7.287-8.267c0-4.146,0-8.312,0-12.68c6.691,0,13.37,0,20.202,0
			c0.295,7.308,0.607,14.743,0.269,22.202c-0.704,0.147-1.351,0.237-1.97,0.421c-3.107,0.921-4.846,3.164-5.676,6.151
			c-0.869,3.121-0.695,6.176,1.075,8.999c1.292,2.062,3.207,3.14,5.601,3.417c0.151,0.017,0.303,0.045,0.454,0.073
			C121.083,195.223,121.114,195.249,121.269,195.331z M117.856,173.762c-0.098-1.799-0.191-3.514-0.288-5.262
			c0.437-0.03,0.704-0.029,0.966-0.069c0.814-0.125,1.399-0.759,1.318-1.483c-0.087-0.787-0.732-0.639-1.246-0.662
			c-0.711-0.034-1.045-0.4-1.046-1.1c-0.002-0.538,0.019-1.079-0.023-1.614c-0.051-0.622-0.136-1.347-0.93-1.371
			c-0.72-0.021-1.039,0.579-1.155,1.231c-0.066,0.375-0.082,0.762-0.092,1.144c-0.016,0.53-0.004,1.062-0.004,1.63
			c-0.666,0.125-1.232,0.233-1.941,0.368c0.074-0.787,0.119-1.393,0.188-1.995c0.124-1.106,0.316-2.207,0.372-3.315
			c0.039-0.778-0.216-1.493-1.188-1.875c-0.781,3.288-1.657,6.466-1.05,10.025c1.111-0.134,2.184-0.261,3.377-0.405
			c0,0.532,0.007,0.985-0.002,1.438c-0.021,0.962-0.029,1.924-0.082,2.884c-0.032,0.628,0.354,0.951,0.842,1.063
			c0.385,0.087,0.839-0.012,1.235-0.125C117.373,174.191,117.593,173.946,117.856,173.762z"/>
		<path style="fill-rule:evenodd;clip-rule:evenodd;fill:none;" d="M97.237,65.924c-0.891,3.528-0.322,6.916,0.073,10.404
			c-7.249,0-14.395,0-21.693,0c-0.111-3.515-0.22-6.989-0.334-10.636C82.656,65.843,89.905,65.322,97.237,65.924z"/>
		<path style="fill-rule:evenodd;clip-rule:evenodd;fill:none;" d="M73.046,65.835c0.117,3.464,0.232,6.906,0.351,10.439
			c-7.336,0.105-14.496,0.207-21.705,0.311c0-3.466,0-6.83,0-10.294C58.771,66.14,65.821,65.99,73.046,65.835z"/>
		<path style="fill-rule:evenodd;clip-rule:evenodd;fill:none;" d="M99.583,65.605c6.842,0,13.484,0,20.26,0
			c0,3.293,0,6.659,0,10.253c-6.696,0-13.401,0-20.275,0C99.275,72.607,99.794,69.211,99.583,65.605z"/>
		<path style="fill-rule:evenodd;clip-rule:evenodd;fill:none;" d="M75.651,104.883c0-3.092,0-5.963,0-8.705
			c7.316-0.141,14.531-0.279,21.919-0.421c-0.146,3.043,0.396,6.197-0.698,9.125c-3.638,0-7.169,0-10.699,0
			C82.679,104.883,79.185,104.883,75.651,104.883z"/>
		<path style="fill-rule:evenodd;clip-rule:evenodd;fill:none;" d="M51.551,96.078c7.077-0.674,14.227-0.363,21.395,0.054
			c0,2.955,0,5.749,0,8.542c-1.393,0.43-19.003,0.49-21.395,0.046C51.551,101.919,51.551,99.089,51.551,96.078z"/>
		<path style="fill-rule:evenodd;clip-rule:evenodd;fill:none;" d="M30.196,76.369c-0.642-3.503,0.297-6.86-0.022-10.402
			c6.417,0.41,12.749-0.167,18.986,0.559c0,3.402,0,6.69,0,10.074C42.724,77.042,36.502,75.485,30.196,76.369z"/>
		<path style="fill-rule:evenodd;clip-rule:evenodd;fill:none;" d="M122.888,65.451c6.268,0,12.559,0,18.946,0
			c0,3.205,0,6.298,0,9.51c-6.345,0.226-12.637,0.45-18.962,0.676C122.399,74.479,122.372,68.286,122.888,65.451z"/>
		<path style="fill-rule:evenodd;clip-rule:evenodd;fill:none;" d="M119.529,95.332c0,3.01,0,5.916,0,9.019
			c-6.47,0-12.871,0-19.386,0c-0.11-2.816-0.224-5.717-0.343-8.735C106.462,95.52,112.976,95.426,119.529,95.332z"/>
		<path style="fill-rule:evenodd;clip-rule:evenodd;fill:none;" d="M122.216,95.362c6.592-0.1,13.047-0.198,19.517-0.295
			c0,2.876,0,5.701,0,8.69c-0.819,0.043-1.494,0.11-2.167,0.11c-4.43,0.002-8.858-0.038-13.287,0
			c-1.333,0.011-2.666,0.226-4.113,0.359C121.793,101.271,122.256,98.368,122.216,95.362z"/>
		<path style="fill-rule:evenodd;clip-rule:evenodd;fill:none;" d="M49.008,95.86c0,3.057,0,5.961,0,8.981
			c-6.388,0.057-12.703,0.478-19.201,0.025c0.154-2.781,0.301-5.45,0.461-8.356C36.442,96.446,42.617,95.47,49.008,95.86z"/>
		<path style="fill-rule:evenodd;clip-rule:evenodd;fill:none;" d="M73.217,23.796c1.542,0,2.876-0.027,4.208,0.015
			c0.485,0.014,1.029,0.082,1.437,0.315c1.441,0.826,1.591,1.645,0.523,2.705c-1.341,1.33-2.958,1.859-4.843,1.456
			c-0.645-0.138-0.969-0.432-0.985-1.165C73.535,26.1,73.357,25.081,73.217,23.796z"/>
		<path style="fill-rule:evenodd;clip-rule:evenodd;fill:none;" d="M72.957,20.815c-0.177-1.341-0.346-2.616-0.547-4.135
			c1.341-0.051,2.507-0.099,3.674-0.133c0.147-0.004,0.299,0.06,0.444,0.107c0.886,0.295,1.682,0.829,1.795,1.756
			c0.108,0.884-0.705,1.392-1.396,1.801C75.759,20.903,74.466,20.967,72.957,20.815z"/>
		<path style="fill-rule:evenodd;clip-rule:evenodd;fill:none;" d="M72.533,41.132c1.886,0.115,3.756,0.236,5.514,0.981
			c2.398,1.017,2.807,2.954,2.645,4.969c-0.014,0.173-0.107,0.378-0.231,0.5c-1.878,1.833-3.965,3.288-6.699,3.428
			c-0.279,0.014-0.794-0.28-0.831-0.496c-0.521-2.982-1.126-5.966-0.575-9.017C72.368,41.427,72.419,41.363,72.533,41.132z"/>
		<path style="fill-rule:evenodd;clip-rule:evenodd;fill:none;" d="M50.503,43.853c1.529,0.672,1.432,2.1,1.972,3.162
			c-1.144,1.015-2.433,0.308-3.685,0.643C48.825,46.096,49.908,45.167,50.503,43.853z"/>
		<path style="fill-rule:evenodd;clip-rule:evenodd;" d="M60.314,160.556c-1.018-0.275-1.639,0.223-2.293,0.716
			c-0.418,0.314-0.832,0.909-1.475,0.276c-0.638-0.628-0.777-1.379-0.331-2.079c0.951-1.494,3.993-1.888,5.274-0.671
			c0.92,0.874,0.823,2.036,0.758,3.134c-0.119,2.008-0.887,3.798-2.082,5.409c-0.157,0.211-0.315,0.422-0.593,0.794
			c0.485,0.097,0.832,0.214,1.181,0.222c0.845,0.023,1.692-0.032,2.537-0.001c0.453,0.017,0.951,0.051,1.338,0.252
			c0.325,0.169,0.668,0.567,0.721,0.909c0.039,0.251-0.323,0.738-0.602,0.831c-0.752,0.249-1.556,0.48-2.338,0.471
			c-1.862-0.021-3.635-0.528-5.349-1.265c-0.583-0.249-0.815-0.582-0.501-1.144c0.615-1.102,1.309-2.161,1.891-3.28
			c0.65-1.249,1.223-2.541,1.804-3.824C60.343,161.112,60.294,160.858,60.314,160.556z"/>
		<path style="fill-rule:evenodd;clip-rule:evenodd;" d="M83.093,187.421c0.532,0.574,0.975,1.12,1.489,1.589
			c0.522,0.478,1.055,1.051,1.689,1.269c0.931,0.318,1.943-0.222,2.376-0.992c0.462-0.823,0.37-1.98-0.427-2.634
			c-0.558-0.459-1.317-0.716-2.028-0.93c-0.451-0.135-0.977-0.024-1.532-0.024c-0.183-0.705,0.107-1.244,0.583-1.731
			c0.402-0.41,0.838-0.799,1.184-1.254c0.428-0.562,0.347-1.26-0.091-1.699c-0.264-0.264-0.886-0.245-1.342-0.223
			c-0.469,0.021-0.932,0.201-1.415,0.314c-0.168-1.793,0.645-2.607,2.252-2.406c2.554,0.317,3.768,2.443,2.894,5.16
			c0.382,0.43,0.821,0.855,1.181,1.341c1.652,2.232,1.05,5.157-1.346,6.565c-0.258,0.152-0.562,0.294-0.852,0.31
			c-1.555,0.086-2.982-0.3-4.16-1.357C82.57,189.838,82.411,188.82,83.093,187.421z"/>
		<path style="fill-rule:evenodd;clip-rule:evenodd;" d="M117.856,173.762c-0.264,0.185-0.483,0.43-0.75,0.506
			c-0.396,0.113-0.851,0.212-1.235,0.125c-0.487-0.112-0.874-0.436-0.842-1.063c0.053-0.96,0.062-1.922,0.082-2.884
			c0.009-0.452,0.002-0.905,0.002-1.438c-1.193,0.145-2.266,0.271-3.377,0.405c-0.607-3.56,0.269-6.737,1.05-10.025
			c0.973,0.382,1.228,1.097,1.188,1.875c-0.056,1.108-0.248,2.209-0.372,3.315c-0.068,0.603-0.113,1.208-0.188,1.995
			c0.709-0.135,1.275-0.243,1.941-0.368c0-0.567-0.012-1.1,0.004-1.63c0.01-0.382,0.025-0.769,0.092-1.144
			c0.116-0.652,0.436-1.253,1.155-1.231c0.794,0.024,0.879,0.749,0.93,1.371c0.042,0.535,0.021,1.076,0.023,1.614
			c0.001,0.699,0.335,1.065,1.046,1.1c0.514,0.023,1.159-0.125,1.246,0.662c0.081,0.725-0.504,1.358-1.318,1.483
			c-0.262,0.04-0.529,0.039-0.966,0.069C117.665,170.248,117.759,171.963,117.856,173.762z"/>
	</g>
</g>
<g id="Layer_1">
</g>
</svg>
