<?xml version="1.0" encoding="UTF-8" standalone="no"?>
<!DOCTYPE svg PUBLIC "-//W3C//DTD SVG 1.1//EN" "http://www.w3.org/Graphics/SVG/1.1/DTD/svg11.dtd">
<svg width="100%" height="100%" viewBox="0 0 963 1280" version="1.1" xmlns="http://www.w3.org/2000/svg" xmlns:xlink="http://www.w3.org/1999/xlink" xml:space="preserve" xmlns:serif="http://www.serif.com/" style="fill-rule:evenodd;clip-rule:evenodd;stroke-linejoin:round;stroke-miterlimit:2;">
    <g transform="matrix(1.14881,0,0,1.12907,493.581,560.542)">
        <g id="Bm-Gb" transform="matrix(1,0,0,1,-338.5,-621)">
            <g transform="matrix(0.1,0,0,-0.1,0,1242)">
                <path d="M3052,11028C3043,11016 3032,10966 2994,10750C2980,10672 2969,10621 2926,10438C2910,10369 2905,10288 2917,10277C2920,10273 2929,10275 2937,10281C2944,10287 2959,10290 2971,10287C2988,10282 2991,10285 2986,10303C2983,10315 2992,10377 3005,10440C3019,10503 3046,10636 3065,10735C3084,10834 3104,10935 3109,10960C3117,10996 3115,11008 3103,11023C3084,11043 3066,11045 3052,11028Z" style="fill-rule:nonzero;"/>
                <path d="M1810,10958C1791,10953 1769,10944 1763,10938C1756,10933 1735,10928 1716,10928C1674,10928 1655,10909 1664,10877C1684,10797 1688,10735 1689,10489L1690,10293L1723,10293C1740,10292 1784,10291 1820,10289C1898,10285 1932,10300 2009,10367C2065,10416 2110,10493 2110,10542C2110,10556 2099,10582 2085,10598C2057,10632 1989,10663 1964,10653C1954,10650 1965,10672 1991,10710C2039,10781 2049,10839 2025,10897C1999,10958 1903,10985 1810,10958ZM1959,10857C1982,10814 1958,10763 1883,10687C1845,10650 1805,10613 1794,10605C1773,10591 1772,10592 1767,10643C1764,10671 1761,10718 1760,10745C1760,10773 1758,10804 1757,10815C1755,10839 1795,10860 1864,10870C1944,10882 1946,10881 1959,10857ZM2018,10522C2024,10440 1944,10380 1829,10380C1808,10380 1788,10376 1785,10370C1770,10346 1765,10365 1768,10435C1771,10508 1773,10511 1803,10526C1851,10551 1921,10568 1970,10566L2015,10565L2018,10522Z" style="fill-rule:nonzero;"/>
                <path d="M3744,10928C3731,10908 3729,10648 3741,10550C3748,10498 3753,10424 3754,10387C3755,10304 3763,10298 3850,10306C3948,10315 4018,10343 4054,10387C4090,10430 4098,10450 4099,10507C4101,10584 4048,10650 3987,10650C3957,10649 3880,10614 3853,10588L3830,10567L3829,10626C3829,10658 3825,10721 3819,10765C3814,10809 3808,10859 3807,10876C3804,10926 3763,10960 3744,10928ZM4020,10529C4020,10491 3994,10458 3932,10414C3852,10358 3834,10359 3837,10420C3841,10496 3901,10549 3981,10548C4012,10548 4020,10544 4020,10529Z" style="fill-rule:nonzero;"/>
                <path d="M3370,10873C3285,10838 3201,10747 3179,10666C3155,10577 3172,10511 3247,10412C3321,10314 3397,10299 3492,10364L3526,10387L3545,10356C3556,10339 3568,10316 3573,10305C3578,10294 3584,10290 3588,10296C3592,10301 3606,10307 3619,10307C3632,10308 3644,10311 3646,10312C3648,10314 3643,10339 3636,10367C3622,10419 3622,10511 3635,10563C3643,10594 3620,10621 3590,10613C3581,10611 3568,10616 3561,10624C3534,10656 3416,10640 3371,10599C3320,10553 3336,10540 3441,10540C3527,10540 3530,10539 3530,10517C3530,10461 3418,10416 3342,10441C3302,10454 3271,10511 3263,10585C3255,10661 3273,10704 3332,10751C3386,10793 3429,10801 3466,10776C3491,10758 3576,10752 3590,10766C3597,10773 3597,10787 3589,10807C3581,10832 3569,10842 3532,10854C3479,10873 3392,10883 3370,10873Z" style="fill-rule:nonzero;"/>
                <path d="M2140,10675C2133,10667 2130,10650 2134,10637C2147,10583 2152,10531 2154,10414C2155,10298 2162,10262 2178,10287C2182,10293 2196,10300 2210,10301L2235,10305L2233,10414L2231,10522L2266,10555C2285,10573 2310,10590 2321,10593C2353,10602 2373,10543 2374,10435L2375,10345L2405,10349C2422,10350 2438,10354 2441,10356C2444,10358 2450,10394 2453,10436C2458,10510 2461,10515 2498,10553C2561,10616 2571,10604 2570,10468C2569,10406 2569,10349 2569,10343C2570,10328 2608,10326 2628,10339C2646,10350 2655,10523 2640,10579C2626,10631 2599,10660 2563,10660C2532,10660 2455,10617 2441,10592C2433,10577 2430,10579 2420,10605C2414,10622 2397,10644 2383,10656C2357,10677 2356,10677 2307,10659C2280,10649 2250,10634 2240,10625C2218,10605 2210,10606 2210,10630C2210,10650 2178,10690 2161,10690C2156,10690 2147,10683 2140,10675Z" style="fill-rule:nonzero;"/>
                <path d="M5217,10459C5214,10447 5215,10430 5220,10421C5225,10412 5254,10362 5285,10308C5344,10206 5347,10196 5328,10183C5321,10179 5298,10155 5278,10130C5258,10105 5218,10060 5190,10030C5113,9948 5105,9920 5160,9920C5181,9920 5197,9931 5226,9968C5247,9994 5269,10020 5275,10025C5281,10031 5306,10059 5329,10088C5353,10116 5375,10140 5378,10140C5382,10140 5396,10121 5409,10097C5471,9989 5515,9930 5535,9930C5566,9931 5597,9958 5585,9974C5518,10069 5430,10203 5430,10210C5430,10215 5454,10245 5483,10277C5513,10309 5555,10361 5578,10392L5620,10449L5595,10466C5571,10482 5569,10482 5547,10454C5520,10419 5420,10299 5405,10284C5392,10270 5393,10268 5309,10418C5278,10472 5270,10480 5245,10480C5230,10480 5220,10473 5217,10459Z" style="fill-rule:nonzero;"/>
                <path d="M1296,9833C1292,9829 1245,9825 1191,9824C1138,9824 1070,9817 1042,9810L990,9798L989,9757C988,9689 992,9607 1003,9475C1004,9459 1008,9441 1011,9435C1014,9430 1018,9407 1019,9386C1020,9364 1024,9342 1027,9336C1031,9331 1034,9303 1035,9276L1037,9225L1096,9227C1128,9229 1205,9231 1265,9233C1398,9238 1389,9236 1389,9258C1389,9267 1392,9291 1395,9311C1401,9346 1400,9348 1368,9353C1336,9357 1249,9355 1163,9346C1125,9342 1120,9344 1118,9363C1116,9399 1115,9404 1106,9418C1102,9425 1101,9441 1104,9454C1108,9472 1116,9476 1147,9476C1168,9476 1197,9479 1212,9483C1237,9490 1239,9494 1238,9539C1238,9567 1233,9590 1227,9593C1220,9595 1189,9597 1157,9598C1125,9598 1096,9601 1093,9604C1081,9616 1084,9671 1097,9682C1105,9689 1153,9693 1225,9692C1288,9691 1341,9694 1341,9698C1342,9702 1344,9714 1346,9725C1347,9736 1351,9756 1354,9769C1361,9799 1335,9831 1312,9823C1302,9819 1299,9821 1304,9828C1312,9841 1307,9844 1296,9833Z" style="fill-rule:nonzero;"/>
                <path d="M2011,9777C1998,9770 1989,9763 1991,9760C1993,9757 1983,9742 1970,9727C1956,9711 1945,9695 1945,9692C1942,9658 1899,9559 1876,9533C1865,9520 1860,9510 1864,9510C1868,9510 1863,9498 1853,9483C1832,9452 1812,9409 1814,9398C1814,9395 1804,9380 1791,9366C1777,9352 1769,9337 1773,9334C1776,9330 1770,9316 1760,9302C1734,9269 1735,9238 1763,9213C1788,9190 1820,9186 1820,9207C1820,9214 1824,9228 1829,9238C1834,9247 1843,9267 1850,9281C1868,9319 1894,9330 1990,9335C2037,9337 2084,9341 2095,9342C2109,9344 2119,9335 2131,9310C2140,9291 2146,9271 2143,9267C2140,9262 2145,9251 2153,9242C2162,9233 2172,9213 2175,9198C2181,9173 2186,9171 2218,9175C2237,9177 2263,9189 2276,9201C2298,9221 2298,9223 2282,9266C2273,9290 2262,9310 2258,9310C2254,9310 2250,9324 2250,9340C2250,9359 2235,9394 2210,9430C2168,9495 2131,9571 2115,9628C2111,9640 2105,9650 2100,9650C2086,9650 2050,9725 2050,9754C2050,9786 2040,9792 2011,9777ZM2037,9523C2046,9502 2054,9474 2054,9460C2055,9436 2052,9435 1998,9432C1966,9430 1940,9432 1940,9435C1940,9449 2004,9560 2012,9560C2017,9560 2028,9543 2037,9523Z" style="fill-rule:nonzero;"/>
                <path d="M2751,9746L2708,9702L2709,9624C2710,9521 2717,9404 2725,9360C2737,9288 2737,9279 2719,9258C2696,9232 2696,9235 2720,9207C2738,9186 2747,9185 2834,9186C2885,9187 2934,9191 2941,9196C2949,9200 2961,9205 2970,9206C3025,9215 3076,9241 3167,9306C3191,9324 3237,9399 3241,9428C3246,9464 3226,9545 3209,9564C3198,9575 3190,9589 3190,9596C3190,9613 3072,9709 3043,9716C3030,9720 3020,9725 3020,9729C3020,9740 2926,9759 2865,9762C2837,9763 2811,9770 2805,9777C2797,9788 2786,9781 2751,9746ZM2925,9640C2925,9638 2935,9636 2946,9635C2958,9634 2979,9630 2994,9626C3008,9623 3023,9619 3027,9618C3032,9617 3050,9603 3068,9586C3095,9560 3101,9546 3106,9499C3110,9450 3108,9440 3083,9407C3068,9387 3050,9371 3044,9370C3038,9370 3025,9361 3015,9350C3005,9339 2989,9330 2979,9330C2969,9330 2959,9326 2956,9321C2951,9313 2895,9300 2848,9295C2838,9294 2830,9300 2830,9309C2828,9349 2817,9435 2811,9452C2807,9462 2807,9498 2810,9530C2813,9565 2812,9594 2806,9600C2799,9607 2801,9610 2809,9610C2819,9610 2820,9613 2811,9623C2794,9645 2811,9652 2870,9647C2900,9644 2925,9641 2925,9640Z" style="fill-rule:nonzero;"/>
                <path d="M4349,9756C4355,9749 4359,9735 4358,9725C4358,9714 4361,9689 4365,9670C4369,9651 4374,9561 4376,9470C4381,9260 4383,9235 4398,9217C4412,9201 4459,9203 4470,9220C4474,9227 4478,9271 4479,9318C4480,9365 4482,9405 4483,9406C4484,9407 4520,9411 4563,9414C4606,9417 4646,9423 4651,9426C4657,9429 4667,9427 4675,9420C4688,9409 4688,9321 4676,9245C4673,9225 4684,9196 4704,9175C4718,9159 4749,9168 4778,9194C4798,9211 4800,9220 4794,9250C4790,9269 4786,9364 4785,9460C4784,9610 4782,9641 4765,9675C4742,9725 4721,9745 4695,9745C4677,9745 4675,9738 4674,9655C4671,9516 4671,9517 4656,9523C4648,9526 4639,9526 4636,9523C4628,9514 4479,9513 4474,9521C4472,9525 4469,9576 4469,9634C4468,9692 4463,9737 4459,9734C4454,9731 4450,9734 4450,9739C4450,9745 4441,9750 4430,9750C4419,9750 4410,9753 4410,9758C4410,9762 4394,9766 4375,9766C4349,9767 4342,9764 4349,9756Z" style="fill-rule:nonzero;"/>
                <path d="M3651,9735C3593,9711 3527,9652 3500,9599C3483,9566 3481,9523 3494,9445C3506,9373 3578,9262 3630,9235C3646,9227 3665,9213 3674,9205C3684,9194 3710,9189 3752,9188C3827,9186 3859,9193 3894,9215C3922,9233 3923,9232 3920,9184C3920,9167 3925,9148 3932,9142C3951,9127 4018,9136 4032,9155C4040,9165 4032,9248 4022,9264C4019,9270 4016,9311 4015,9357C4014,9434 4011,9443 3987,9468C3962,9492 3953,9495 3892,9494C3855,9493 3815,9490 3802,9487C3789,9483 3759,9480 3735,9479C3701,9477 3690,9472 3686,9456C3683,9445 3686,9430 3692,9423C3698,9415 3700,9407 3697,9403C3693,9400 3694,9392 3699,9386C3706,9378 3732,9377 3789,9384C3834,9389 3872,9391 3876,9388C3886,9378 3861,9342 3826,9315C3798,9294 3781,9289 3732,9289C3699,9289 3662,9293 3651,9299C3604,9325 3577,9443 3599,9526C3629,9639 3752,9701 3822,9638C3839,9623 3858,9610 3862,9610C3867,9610 3868,9606 3865,9600C3862,9595 3865,9590 3872,9589C3879,9589 3897,9587 3912,9585C3938,9582 3939,9583 3935,9618C3932,9644 3917,9667 3879,9706L3828,9757L3765,9756C3727,9755 3682,9747 3651,9735Z" style="fill-rule:nonzero;"/>
                <path d="M5546,9751C5543,9746 5483,9743 5413,9744C5342,9745 5279,9742 5273,9737C5264,9731 5260,9732 5260,9740C5260,9750 5257,9750 5246,9741C5238,9735 5226,9731 5220,9732C5211,9734 5207,9719 5206,9683C5205,9654 5209,9630 5214,9630C5220,9630 5219,9625 5213,9619C5206,9612 5205,9599 5210,9585C5215,9571 5214,9558 5207,9551C5201,9545 5200,9540 5206,9540C5211,9540 5216,9525 5217,9508C5219,9459 5230,9282 5233,9226L5236,9177L5388,9175C5507,9172 5543,9175 5554,9185C5561,9193 5570,9197 5573,9194C5581,9186 5620,9213 5620,9226C5620,9233 5608,9246 5593,9256C5569,9272 5547,9275 5439,9274C5317,9273 5314,9273 5315,9294C5316,9305 5312,9318 5307,9322C5299,9326 5300,9336 5307,9353C5318,9376 5323,9377 5387,9375C5470,9373 5481,9376 5476,9404C5473,9415 5468,9442 5465,9463L5459,9501L5305,9491L5304,9543C5303,9572 5301,9602 5299,9610C5297,9619 5301,9624 5309,9622C5339,9616 5517,9620 5545,9628C5571,9635 5575,9641 5576,9674C5578,9742 5563,9779 5546,9751Z" style="fill-rule:nonzero;"/>
                <path d="M4255,9051C4239,9035 2057,9019 1730,9032C1645,9036 1406,9040 1200,9042L825,9045L824,8969C824,8927 820,8888 816,8882C812,8875 814,8870 820,8870C826,8870 829,8866 826,8862C818,8849 841,8760 853,8759C860,8758 876,8756 890,8754C922,8750 980,8750 1055,8753C1154,8757 1156,8755 1160,8615C1165,8436 1166,7816 1161,7806C1159,7801 1156,7749 1154,7691C1152,7633 1149,7563 1145,7535C1142,7508 1137,7449 1134,7405C1131,7361 1128,7324 1126,7323C1117,7314 1008,7324 989,7336C985,7338 961,7342 935,7345C886,7351 861,7338 848,7300C840,7278 900,7228 928,7233C940,7235 952,7234 955,7230C957,7226 998,7223 1046,7222C1094,7221 1135,7218 1137,7216C1139,7214 1143,7097 1145,6957C1149,6734 1147,6701 1134,6696C1125,6693 1115,6692 1111,6695C1103,6699 1042,6679 969,6647C929,6629 854,6553 840,6514C824,6472 829,6411 852,6359C865,6332 878,6310 882,6310C887,6310 890,6303 890,6295C890,6276 945,6223 974,6214C985,6210 997,6203 1000,6199C1003,6194 1039,6189 1080,6188L1155,6185L1154,5901C1152,5606 1150,5590 1111,5609C1102,5613 1038,5616 968,5616C850,5615 839,5613 818,5593L796,5570L819,5546C842,5522 846,5521 974,5522C1118,5523 1156,5517 1162,5492C1168,5469 1163,5370 1155,5340C1151,5326 1147,5200 1145,5060C1144,4920 1139,4765 1134,4715C1127,4635 1126,4396 1133,4020L1135,3896L1080,3893C1050,3891 982,3888 930,3886C839,3884 835,3883 832,3860C828,3836 843,3798 868,3768C882,3752 884,3752 914,3767C937,3780 975,3785 1057,3786C1119,3788 1170,3785 1171,3782C1180,3711 1185,2298 1177,2275C1170,2259 1158,2258 1036,2264C891,2270 830,2258 830,2222C831,2177 861,2169 1031,2169C1185,2169 1192,2165 1191,2089C1190,2028 1187,1999 1179,1985C1176,1979 1174,1876 1174,1756L1175,1537L1215,1536C1291,1533 1289,1526 1287,1751C1286,1861 1287,1953 1289,1956C1292,1958 1294,2000 1294,2048C1295,2136 1303,2166 1322,2154C1332,2148 1426,2145 1779,2139C1986,2136 1969,2144 1969,2041C1970,1715 1974,1583 1981,1568C1986,1559 1998,1553 2007,1555C2083,1570 2076,1559 2080,1672C2085,1834 2085,1985 2080,2061L2075,2132L2270,2126C2608,2115 2813,2118 2866,2135C2873,2137 2876,2090 2877,1991C2877,1765 2883,1590 2890,1590C2894,1590 2900,1593 2903,1597C2907,1600 2922,1605 2936,1606C2972,1610 2992,1618 2987,1627C2984,1632 2979,1663 2976,1698C2972,1733 2969,1764 2969,1768C2968,1772 2969,1777 2970,1780C2975,1793 2979,1957 2974,1970C2966,1991 2966,2110 2975,2118C2978,2122 3097,2126 3238,2127C3379,2128 3552,2131 3623,2133C3713,2136 3750,2134 3751,2126C3751,2120 3753,1996 3755,1850L3759,1585L3782,1579C3795,1576 3814,1576 3826,1578C3845,1581 3847,1590 3851,1703C3855,1828 3855,1994 3850,2065C3845,2141 3828,2135 4053,2136C4164,2136 4329,2138 4420,2140L4585,2143L4588,2119C4589,2106 4592,1971 4594,1820C4596,1654 4602,1544 4608,1542C4613,1541 4631,1551 4648,1565L4679,1591L4676,1860C4674,2009 4676,2131 4679,2131C4686,2133 4767,2137 4925,2143C4991,2146 5111,2152 5193,2156C5279,2160 5340,2159 5341,2154C5343,2133 5351,1885 5353,1765L5355,1635L5391,1634C5411,1634 5434,1630 5443,1627C5458,1622 5460,1629 5461,1683C5461,1717 5462,1795 5463,1855C5465,1916 5462,1975 5458,1986C5454,1998 5454,2011 5458,2014C5461,2018 5464,2056 5465,2098C5465,2174 5465,2175 5490,2173C5504,2173 5556,2169 5605,2165C5739,2155 5772,2174 5734,2239L5718,2267L5606,2264C5545,2263 5491,2261 5485,2260C5454,2253 5452,2263 5450,2418C5445,2863 5450,3381 5463,3725L5465,3775L5770,3775L5764,3810C5755,3864 5740,3899 5721,3904C5699,3911 5642,3918 5530,3925C5478,3929 5433,3934 5431,3936C5429,3938 5428,3990 5430,4052C5434,4220 5434,4258 5426,4340C5416,4444 5416,4607 5425,4720C5429,4772 5433,4974 5434,5168L5435,5520L5467,5526C5484,5529 5503,5529 5509,5525C5529,5513 5690,5507 5690,5519C5690,5525 5696,5530 5704,5530C5728,5530 5730,5559 5709,5595C5690,5627 5685,5629 5642,5627C5616,5626 5590,5622 5585,5618C5579,5615 5541,5612 5500,5612L5425,5613L5423,5809C5419,6121 5419,6222 5423,6226C5425,6229 5448,6232 5474,6234C5500,6236 5527,6244 5533,6252C5540,6260 5559,6277 5576,6288C5600,6305 5611,6322 5620,6360C5627,6387 5636,6410 5640,6410C5645,6410 5648,6425 5648,6443C5648,6460 5650,6503 5652,6538C5654,6573 5653,6603 5648,6606C5644,6609 5640,6620 5640,6631C5640,6641 5636,6650 5632,6650C5627,6650 5618,6661 5613,6673C5597,6707 5498,6754 5457,6746L5424,6740L5427,6787C5430,6853 5439,7124 5439,7182C5440,7221 5444,7230 5463,7236C5475,7241 5489,7243 5495,7241C5513,7236 5614,7229 5683,7229C5753,7228 5800,7246 5800,7274C5800,7289 5777,7312 5764,7309C5740,7305 5718,7312 5700,7330C5684,7346 5675,7348 5656,7340C5641,7334 5628,7334 5625,7340C5622,7345 5610,7346 5597,7341C5585,7336 5563,7336 5548,7341C5532,7345 5520,7345 5520,7340C5520,7335 5507,7335 5490,7340C5473,7345 5458,7345 5455,7340C5442,7319 5423,7342 5427,7373C5429,7391 5432,7707 5433,8075L5435,8745L5600,8748C5691,8750 5784,8747 5807,8742C5837,8735 5852,8736 5859,8744C5873,8761 5868,8994 5853,9012C5846,9020 5842,9029 5844,9031C5846,9033 5652,9036 5412,9037C5172,9038 4937,9041 4890,9045C4793,9051 4260,9057 4255,9051ZM3383,8749L3700,8746L3694,8696C3686,8631 3688,8432 3696,8418C3707,8401 3708,8210 3697,8203C3691,8200 3691,8149 3696,8071C3704,7940 3704,7928 3700,7845C3699,7818 3701,7706 3704,7596C3707,7487 3707,7393 3703,7387C3699,7381 3696,7364 3695,7350C3694,7336 3691,7319 3687,7314C3681,7303 3483,7304 3473,7314C3470,7317 3459,7315 3449,7309C3436,7302 3430,7303 3430,7310C3430,7316 3425,7318 3418,7314C3408,7308 3269,7306 2994,7309L2913,7310L2918,7523C2925,7829 2924,8658 2917,8707L2911,8749L2963,8752C2992,8754 3026,8754 3040,8753C3054,8752 3208,8750 3383,8749ZM4978,8743C5141,8740 5286,8737 5300,8737C5322,8735 5326,8729 5331,8685C5334,8658 5336,8600 5334,8558C5333,8516 5328,8282 5325,8038C5321,7794 5317,7543 5316,7480C5313,7318 5317,7325 5218,7327C4789,7337 4700,7337 4700,7326C4700,7320 4696,7321 4691,7329C4685,7338 4680,7339 4676,7331C4672,7325 4656,7320 4639,7320C4616,7320 4610,7325 4609,7343C4608,7355 4609,7370 4610,7375C4611,7381 4613,7459 4615,7550C4617,7641 4621,7841 4625,7995C4630,8244 4633,8347 4644,8656C4647,8740 4654,8765 4671,8754C4677,8751 4815,8746 4978,8743ZM1750,8735C1841,8733 1922,8731 1931,8731C1945,8730 1946,8708 1943,8538C1940,8432 1938,8113 1937,7828C1936,7544 1931,7314 1927,7317C1919,7322 1860,7322 1545,7318C1468,7317 1368,7318 1323,7320L1241,7325L1246,7400C1257,7598 1259,7657 1258,7810C1255,8408 1258,8712 1268,8738C1271,8748 1307,8749 1429,8745C1515,8742 1659,8737 1750,8735ZM2830,8705C2833,8683 2833,8654 2830,8641C2827,8629 2828,8586 2831,8547C2837,8470 2833,8010 2825,7845C2823,7790 2818,7648 2816,7530L2812,7315L2453,7314C2256,7313 2081,7315 2063,7317L2032,7322L2031,7474C2031,7557 2030,7722 2030,7840C2029,7958 2031,8129 2034,8220C2037,8311 2042,8461 2044,8554C2047,8647 2052,8725 2054,8728C2057,8730 2118,8734 2190,8735C2263,8737 2323,8740 2325,8742C2327,8744 2440,8745 2577,8745L2825,8745L2830,8705ZM4391,8741L4537,8740L4534,8438C4532,8168 4524,7854 4521,7840C4520,7837 4519,7721 4519,7583C4519,7444 4515,7328 4510,7325C4500,7319 3820,7317 3813,7324C3795,7341 3788,8706 3806,8740C3807,8743 3906,8744 4027,8744C4147,8743 4311,8741 4391,8741ZM4498,7239C4526,7242 4524,7273 4516,6905L4511,6725L3813,6725L3813,6755C3814,6772 3810,6839 3806,6905C3799,7009 3797,7159 3802,7205C3803,7213 3811,7222 3821,7225C3831,7228 3975,7233 4140,7235C4306,7237 4444,7241 4447,7244C4450,7247 4458,7246 4464,7243C4470,7239 4485,7237 4498,7239ZM5302,7109C5299,6984 5299,6881 5304,6802C5305,6779 5303,6756 5300,6750C5297,6745 5169,6736 5015,6730C4862,6724 4733,6718 4730,6718C4727,6718 4698,6718 4664,6719L4603,6720L4605,6972L4606,7224L4630,7231C4644,7235 4801,7237 4980,7236L5305,7234L5302,7109ZM3706,7070C3707,6990 3709,6883 3710,6832C3711,6781 3709,6736 3705,6732C3698,6724 3235,6725 3071,6733C3000,6736 2965,6742 2959,6752C2953,6762 2950,6762 2950,6753C2950,6746 2943,6740 2935,6740C2927,6740 2919,6746 2919,6753C2916,6789 2921,7194 2925,7198C2933,7206 3028,7210 3308,7214C3458,7216 3582,7219 3585,7221C3587,7223 3615,7223 3647,7220L3705,7215L3706,7070ZM1650,7206C1708,7198 1833,7199 1878,7208C1927,7219 1933,7214 1931,7164C1927,7090 1928,7009 1933,6885C1936,6813 1936,6749 1932,6743C1928,6737 1872,6730 1795,6726C1724,6722 1652,6717 1635,6715C1619,6712 1525,6708 1428,6705L1252,6700L1246,6763C1242,6797 1241,6911 1242,7017L1244,7209L1294,7212C1362,7216 1606,7212 1650,7206ZM2806,7050C2808,6965 2811,6860 2813,6818C2814,6775 2813,6739 2810,6739C2807,6738 2631,6737 2418,6736L2030,6734L2029,6769C2028,6833 2028,7073 2029,7137L2030,7199L2217,7196C2320,7195 2422,7197 2445,7200C2467,7203 2557,7205 2644,7205L2803,7205L2806,7050ZM3716,6192C3715,6163 3717,6137 3721,6134C3726,6131 3725,6119 3720,6106C3715,6091 3715,6079 3723,6071C3731,6063 3731,6060 3721,6060C3714,6060 3711,6057 3713,6052C3716,6048 3721,5943 3724,5819L3730,5594L3567,5597C3478,5599 3302,5602 3175,5603L2945,5605L2943,5675C2938,5893 2928,6168 2925,6188C2918,6232 2927,6237 3001,6238C3040,6238 3074,6241 3078,6245C3081,6248 3227,6250 3402,6248L3719,6245L3716,6192ZM3956,6237C3960,6233 3970,6235 3979,6240C3989,6245 4002,6245 4010,6240C4018,6235 4028,6234 4034,6237C4039,6240 4098,6242 4164,6240C4332,6236 4359,6235 4365,6228C4368,6225 4406,6225 4450,6227C4509,6229 4530,6227 4531,6218C4534,6189 4539,6063 4545,5865C4549,5750 4552,5645 4553,5632C4555,5610 4551,5609 4485,5604C4417,5600 4188,5592 3987,5587C3934,5586 3890,5587 3890,5590C3890,5593 3878,5596 3863,5595C3830,5595 3832,5569 3825,5975L3819,6245L3885,6244C3921,6244 3953,6240 3956,6237ZM4745,6232C4791,6234 4921,6234 4965,6231C4982,6230 5038,6229 5090,6229C5142,6230 5188,6226 5193,6221C5198,6216 5214,6215 5229,6219C5258,6227 5301,6227 5316,6218C5324,6213 5326,5714 5318,5640C5315,5616 5315,5616 5185,5613C4867,5605 4664,5603 4654,5607C4648,5609 4643,5651 4642,5708C4641,5761 4638,5816 4635,5830C4633,5844 4628,5941 4625,6047L4619,6238L4662,6234C4686,6231 4723,6230 4745,6232ZM2830,6165C2831,6132 2833,5991 2834,5851L2835,5597L2785,5599C2758,5600 2674,5600 2600,5599C2285,5595 2061,5595 2057,5600C2054,5603 2049,5740 2047,5905L2043,6205L2189,6206C2414,6207 2543,6212 2565,6221C2576,6225 2639,6228 2706,6227L2827,6225L2830,6165ZM1855,6204L1936,6197L1933,5916C1932,5762 1928,5625 1925,5613C1920,5593 1915,5591 1857,5596C1699,5608 1536,5612 1360,5607L1265,5605L1268,5635C1271,5668 1270,5923 1267,6090L1265,6195L1383,6196C1448,6197 1504,6201 1507,6204C1515,6212 1753,6212 1855,6204ZM5318,5410C5325,5246 5324,4370 5318,4320C5304,4223 5296,4133 5297,4100C5298,4081 5300,4035 5301,3998C5303,3961 5300,3927 5296,3923C5292,3919 5186,3914 5062,3913C4937,3913 4790,3910 4734,3907L4634,3902L4633,3943C4628,4111 4628,4158 4634,4168C4637,4174 4636,4181 4630,4185C4624,4189 4622,4196 4626,4201C4632,4211 4636,4294 4645,4615C4652,4845 4652,5444 4645,5462C4637,5482 4656,5488 4735,5490C4943,5496 5222,5509 5227,5513C5228,5514 5248,5515 5271,5515L5314,5515L5318,5410ZM1346,5501C1373,5496 1516,5490 1663,5489C1815,5487 1934,5482 1937,5476C1946,5462 1946,5059 1937,5053C1933,5050 1933,5043 1938,5037C1950,5023 1948,3915 1937,3903C1932,3899 1782,3895 1602,3895L1275,3893L1274,4274C1274,4484 1270,4738 1266,4840C1259,5029 1258,5349 1265,5360C1267,5363 1270,5393 1271,5426C1273,5490 1278,5510 1290,5510C1294,5510 1319,5506 1346,5501ZM4556,5488C4566,5472 4572,5329 4571,5110L4571,4735C4569,4687 4559,4372 4554,4240C4547,4011 4543,3916 4541,3909C4541,3905 4483,3902 4413,3901C4342,3901 4186,3899 4065,3897C3944,3895 3838,3896 3829,3898C3817,3901 3812,3913 3811,3943C3810,4000 3809,4402 3809,4419C3810,4426 3816,4430 3825,4427C3833,4423 3842,4425 3845,4430C3849,4436 3860,4440 3870,4440C3936,4440 4049,4620 4056,4737C4061,4826 4039,4881 3982,4927C3956,4948 3926,4975 3915,4988C3904,5001 3879,5015 3861,5019L3827,5026L3825,5486L4143,5487C4319,5488 4463,5490 4465,5492C4475,5501 4550,5499 4556,5488ZM2536,5476C2675,5477 2801,5480 2818,5483L2847,5489L2847,5322C2847,5230 2850,5121 2853,5079L2859,5003L2818,4991C2745,4969 2704,4936 2674,4873C2649,4823 2645,4803 2645,4725C2645,4651 2649,4626 2669,4585C2695,4531 2810,4410 2836,4410C2849,4410 2850,4397 2845,4308C2831,4095 2829,4053 2829,3992C2828,3937 2825,3928 2807,3921C2795,3916 2781,3915 2776,3918C2763,3925 2348,3929 2336,3922C2331,3919 2299,3916 2266,3914C2233,3913 2174,3909 2135,3905L2064,3899L2063,3992C2063,4079 2055,4239 2046,4358C2043,4386 2045,4410 2050,4410C2056,4410 2057,4448 2054,4498C2051,4546 2050,4695 2051,4830C2053,4965 2054,5166 2054,5277C2054,5512 2038,5488 2190,5480C2242,5477 2398,5475 2536,5476ZM3721,5476C3722,5470 3724,5416 3726,5355C3728,5295 3731,5197 3733,5138L3737,5030L3706,5020C3656,5004 3578,4943 3553,4901C3511,4830 3506,4649 3544,4575C3566,4532 3639,4471 3682,4459C3718,4450 3728,4434 3721,4396C3720,4391 3717,4279 3714,4146C3710,4014 3707,3904 3706,3904C3706,3903 3681,3906 3652,3910C3608,3915 3359,3915 3090,3909C3060,3908 3016,3909 2993,3911L2950,3914L2949,4014C2949,4070 2947,4181 2946,4263C2944,4405 2945,4410 2965,4410C2985,4410 3030,4434 3067,4464C3077,4472 3099,4490 3117,4505C3138,4522 3154,4549 3165,4583C3174,4612 3185,4643 3190,4652C3196,4662 3201,4700 3202,4737C3203,4794 3199,4812 3179,4845C3165,4867 3155,4892 3157,4901C3161,4916 3097,4982 3083,4978C3078,4977 3059,4981 3039,4988C3020,4995 2993,4999 2980,4998C2950,4994 2948,5005 2945,5170C2943,5244 2941,5313 2940,5323C2937,5370 2942,5470 2948,5471C2952,5472 3039,5473 3142,5474C3245,5475 3332,5478 3334,5481C3336,5483 3424,5485 3529,5486C3662,5487 3720,5484 3721,5476ZM1948,3770C1949,3756 1952,3664 1955,3565C1957,3466 1962,3366 1965,3343L1971,3301L1930,3289C1848,3264 1781,3179 1751,3065C1731,2988 1733,2954 1761,2887C1785,2829 1878,2732 1929,2710C1946,2703 1960,2692 1961,2686C1967,2609 1963,2450 1956,2450C1950,2450 1951,2445 1957,2439C1964,2432 1965,2418 1961,2406C1957,2395 1955,2355 1955,2318C1956,2278 1952,2249 1946,2247C1940,2245 1895,2246 1845,2250C1796,2253 1653,2255 1527,2255L1300,2255L1299,2420C1298,2631 1292,2913 1285,3060C1282,3123 1278,3312 1277,3479L1275,3783L1448,3785C1543,3787 1623,3789 1625,3791C1627,3793 1700,3795 1787,3795L1945,3795L1948,3770ZM3721,3790C3733,3715 3742,3479 3745,3105C3746,2929 3749,2664 3751,2515L3755,2245L3680,2246C3222,2251 2987,2256 2980,2260C2976,2263 2969,2364 2966,2485C2962,2606 2957,2752 2955,2810C2948,2977 2947,3776 2953,3786C2958,3795 3719,3799 3721,3790ZM4546,3564C4547,3438 4548,3290 4549,3235C4551,3179 4551,3130 4550,3125C4548,3119 4548,3113 4549,3110C4555,3090 4571,2639 4573,2428L4575,2251L4410,2245C4274,2241 4009,2240 3888,2243C3870,2243 3860,2249 3859,2259C3858,2278 3853,2583 3845,3135C3842,3350 3837,3554 3834,3590C3824,3715 3824,3790 3834,3793C3840,3795 4002,3796 4195,3795L4545,3793L4546,3564ZM4979,3784C5147,3783 5293,3781 5302,3781C5317,3780 5319,3770 5316,3705C5314,3664 5316,3628 5320,3625C5324,3622 5327,3564 5326,3494C5325,3425 5327,3366 5330,3363C5333,3361 5335,3342 5336,3322C5336,3301 5340,3168 5345,3025C5353,2795 5354,2439 5347,2310L5345,2265L5265,2262C5221,2261 5140,2257 5085,2254C4917,2244 4691,2245 4681,2255C4673,2264 4668,2352 4655,2700C4653,2758 4648,2879 4644,2970C4641,3061 4637,3204 4636,3287C4636,3376 4631,3440 4626,3440C4620,3440 4621,3445 4627,3451C4635,3459 4635,3471 4630,3486C4625,3499 4624,3511 4628,3514C4632,3516 4635,3578 4634,3652C4633,3779 4639,3808 4663,3793C4669,3790 4811,3786 4979,3784ZM2834,3706C2834,3661 2836,3588 2839,3542C2843,3497 2841,3460 2837,3460C2832,3460 2832,3456 2835,3450C2843,3437 2859,2896 2863,2495L2865,2255L2750,2253C2364,2246 2169,2245 2125,2248L2075,2252L2075,2665L2102,2665C2177,2667 2333,2805 2314,2854C2311,2863 2314,2872 2321,2875C2340,2882 2351,3011 2337,3067C2330,3094 2268,3190 2258,3190C2253,3190 2250,3196 2250,3203C2250,3210 2242,3220 2231,3225C2221,3231 2190,3247 2162,3263C2134,3278 2104,3290 2097,3290C2065,3290 2061,3317 2059,3525C2058,3641 2058,3747 2059,3762L2060,3789L2448,3788L2835,3786L2834,3706Z" style="fill-rule:nonzero;"/>
                <path d="M4155,5353C4143,5351 4112,5332 4085,5312C4029,5270 4009,5230 4030,5206C4048,5183 4080,5186 4080,5209C4080,5228 4127,5270 4149,5270C4170,5270 4160,5208 4130,5144C4113,5109 4095,5078 4090,5075C4071,5063 4079,5023 4103,5013C4120,5006 4315,5003 4363,5009C4377,5011 4370,5068 4354,5074C4345,5077 4300,5080 4254,5080C4208,5080 4170,5084 4170,5089C4170,5093 4178,5108 4188,5121C4235,5184 4244,5271 4210,5328C4199,5345 4187,5359 4183,5359C4178,5358 4166,5355 4155,5353Z" style="fill-rule:nonzero;"/>
                <path d="M3183,5359C3133,5335 3116,5316 3124,5295C3130,5278 3166,5275 3202,5289C3215,5293 3234,5294 3245,5290C3263,5283 3261,5278 3220,5239C3157,5179 3168,5151 3253,5150C3282,5150 3290,5124 3268,5102C3253,5087 3194,5086 3185,5100C3177,5113 3133,5113 3125,5099C3114,5082 3129,5041 3152,5029C3181,5013 3231,5011 3255,5024C3266,5029 3278,5033 3282,5032C3285,5031 3302,5046 3319,5066C3360,5112 3360,5151 3320,5191C3292,5220 3291,5222 3306,5245C3328,5279 3320,5329 3290,5351C3249,5379 3227,5381 3183,5359Z" style="fill-rule:nonzero;"/>
                <path d="M2367,3665C2358,3657 2346,3624 2339,3593C2333,3561 2321,3525 2313,3512C2293,3480 2292,3411 2310,3400C2318,3394 2355,3390 2393,3390L2460,3390L2461,3353C2462,3317 2466,3248 2469,3223C2471,3205 2509,3197 2526,3210C2536,3219 2540,3240 2539,3279C2535,3408 2536,3410 2574,3410C2599,3410 2613,3417 2624,3432C2638,3452 2638,3456 2623,3472C2610,3487 2598,3490 2569,3485L2532,3479L2523,3531C2514,3590 2492,3612 2465,3590C2453,3580 2449,3563 2451,3521L2454,3465L2421,3462C2402,3460 2384,3462 2379,3467C2374,3472 2382,3513 2397,3559C2416,3619 2421,3646 2414,3658C2399,3681 2385,3683 2367,3665Z" style="fill-rule:nonzero;"/>
                <path d="M6034,6933C6008,6895 5979,6857 5969,6848C5939,6819 5890,6742 5890,6726C5890,6700 5947,6705 5961,6732C5980,6767 6060,6846 6060,6830C6061,6767 6072,6589 6076,6562C6081,6528 6100,6527 6100,6561C6100,6580 6101,6580 6116,6566C6147,6535 6153,6547 6146,6623C6142,6662 6137,6758 6134,6835C6126,7027 6111,7041 6034,6933Z" style="fill-rule:nonzero;"/>
            </g>
        </g>
        <g id="Bm-Gb1" serif:id="Bm-Gb">
        </g>
    </g>
</svg>
