<?xml version="1.0" encoding="UTF-8" standalone="no"?>
<!DOCTYPE svg PUBLIC "-//W3C//DTD SVG 1.1//EN" "http://www.w3.org/Graphics/SVG/1.1/DTD/svg11.dtd">
<svg width="100%" height="100%" viewBox="0 0 247 413" version="1.1" xmlns="http://www.w3.org/2000/svg" xmlns:xlink="http://www.w3.org/1999/xlink" xml:space="preserve" xmlns:serif="http://www.serif.com/" style="fill-rule:evenodd;clip-rule:evenodd;stroke-linejoin:round;stroke-miterlimit:2;">
    <g id="IO8e6l">
        <path d="M172.09,350.85C173.07,350.85 173.91,350.79 174.73,350.87C175.42,350.93 176.16,351.15 176.09,352.06C176.02,353.04 175.22,352.92 174.55,352.89C171.94,352.76 171.85,352.8 172.27,355.36C172.87,359.02 172.49,362.68 172.35,366.34C172.31,367.29 172.49,368.26 172.43,369.21C172.36,370.44 172.21,371.67 171.99,372.87C171.83,373.74 171.57,373.87 170.54,374.01L170.54,372.75C170.57,368.28 170.65,363.81 170.6,359.35C170.58,357.4 170.3,355.45 170.07,353.51C170.04,353.26 169.6,352.87 169.36,352.87C164.92,352.91 160.47,352.94 156.03,353.1C153.67,353.18 153.79,353.29 153.88,355.81C154,358.91 153.88,362.02 153.89,365.13C153.89,366.87 153.99,368.62 153.93,370.36C153.87,372.03 153.67,373.69 153.48,375.35C153.45,375.58 153.01,375.97 152.89,375.93C152.6,375.83 152.22,375.54 152.17,375.27C152.01,374.37 151.91,373.45 151.9,372.54C151.88,369.92 151.99,367.29 151.92,364.67C151.85,362.1 151.62,359.53 151.5,356.95C151.46,356.12 151.53,355.28 151.58,354.45C151.62,353.79 151.4,353.29 150.7,353.28C149.28,353.26 147.86,353.33 146.44,353.33C145.29,353.33 144.14,353.26 142.99,353.29C140.85,353.35 138.71,353.47 136.58,353.54C135.69,353.57 134.79,353.54 133.64,353.54L133.64,357.57C133.65,361.72 133.67,365.87 133.68,370.01C133.68,371.4 133.74,372.8 133.66,374.19C133.63,374.63 133.25,375.05 133.03,375.48C132.72,375.02 132.18,374.58 132.14,374.09C131.95,372.07 131.85,370.04 131.81,368.01C131.73,363.54 131.7,359.08 131.67,354.61C131.67,353.87 131.44,353.56 130.6,353.61C128.58,353.73 126.56,353.72 124.54,353.77C120.95,353.87 117.36,353.95 113.77,354.08C111.84,354.15 111.89,354.19 111.95,356.1C112.07,359.92 112.16,363.75 112.21,367.58C112.24,369.97 112.18,372.36 112.08,374.75C112.06,375.24 111.68,376.13 111.45,376.13C110.63,376.14 110.3,375.58 110.3,374.68C110.27,369.7 110.21,364.72 110.09,359.74C110.05,357.88 109.82,356.02 109.66,354.01C103.14,353.96 96.75,353.64 90.23,354.21C90.47,357.98 90.98,361.59 90.86,365.18C90.74,368.78 89.91,372.36 90.32,376.1C89.72,376.35 89.09,376.61 88.32,376.93C88.32,376.19 88.31,375.62 88.32,375.04C88.39,371.83 88.46,368.62 88.52,365.41C88.52,364.98 88.5,364.54 88.45,364.1C88.11,361.35 87.55,358.62 87.92,355.82C88.09,354.5 87.82,354.21 86.54,354.2C81.81,354.15 77.09,354.11 72.36,354.08C71.77,354.08 71.17,354.16 70.47,354.22C70.41,354.94 70.29,355.64 70.29,356.35C70.24,361.94 70.22,367.53 70.18,373.12C70.18,373.83 70.13,374.56 70,375.26C69.94,375.58 69.61,375.84 69.4,376.12C69.15,375.85 68.74,375.6 68.69,375.29C68.53,374.39 68.47,373.47 68.45,372.55C68.33,366.57 68.24,360.58 68.14,354.6C68.14,354.45 68.08,354.29 68.04,354.09C67.11,354.17 66.2,354.34 65.3,354.3C64.57,354.26 63.84,354 63.14,353.76C62.97,353.7 62.79,353.29 62.83,353.08C62.87,352.88 63.15,352.61 63.37,352.56C64.86,352.21 66.36,351.9 68,351.55L68,311.3C67.34,311.22 66.76,311.19 66.21,311.06C65.72,310.95 65.11,310.86 64.83,310.53C64.56,310.21 64.49,309.53 64.64,309.13C64.74,308.86 65.39,308.68 65.8,308.68C66.42,308.68 67.04,308.88 67.91,309.04L67.91,305.38C67.89,297.2 67.88,289.02 67.86,280.84C67.86,278.4 67.79,275.97 67.82,273.53C67.82,272.75 67.56,272.44 66.8,272.44C66.12,272.44 65.43,272.43 64.77,272.31C64.33,272.23 63.93,271.95 63.51,271.75C63.53,271.57 63.56,271.39 63.58,271.21C64.57,271.09 65.56,270.86 66.54,270.89C67.68,270.93 67.86,270.41 67.84,269.45C67.8,265.59 67.82,261.72 67.79,257.86C67.76,254.4 67.66,250.94 67.64,247.48C67.63,243.62 67.68,239.76 67.7,235.89L67.7,234.73C66.25,234.64 64.94,234.58 63.65,234.48C63.31,234.45 62.9,234.39 62.66,234.18C62.35,233.92 62.19,233.49 61.96,233.14C62.39,232.95 62.81,232.61 63.24,232.6C64.46,232.58 65.67,232.7 66.89,232.75C67.68,232.78 67.78,232.16 67.77,231.6C67.74,226.07 67.68,220.54 67.64,215C67.61,210.98 67.59,206.95 67.57,202.93C67.56,200.63 67.51,198.34 67.57,196.04C67.59,195.18 67.26,194.96 66.49,194.85C64.58,194.59 62.68,194.23 60.78,193.91C60.69,193.89 60.61,193.76 60.48,193.64C60.97,192.69 61.81,192.81 62.63,192.9C64.23,193.08 65.82,193.26 67.53,193.45L67.53,154.4C66.45,154.4 65.42,154.45 64.4,154.39C63.41,154.33 62.41,154.24 61.45,154.01C60.55,153.79 59.23,154.07 59.12,152.32C60.13,152.32 61.09,152.33 62.06,152.32C63.57,152.29 65.08,152.23 66.59,152.21C67.38,152.2 67.56,151.83 67.55,151.07C67.48,146.12 67.47,141.17 67.44,136.22C67.42,133.12 67.48,130.01 67.33,126.92C67.21,124.26 66.8,121.62 66.6,118.96C66.47,117.31 66.47,115.64 66.46,113.98C66.46,113.14 66.03,113 65.31,113.05C64.32,113.12 63.32,113.12 62.33,113.1C61.94,113.1 61.46,113.08 61.18,112.86C60.79,112.56 60.54,112.07 60.23,111.65C60.64,111.35 61.01,110.87 61.46,110.8C62.75,110.58 64.07,110.49 65.38,110.4C66.23,110.34 66.51,109.86 66.54,109.09C66.6,107.52 66.66,105.95 66.74,104.38C66.85,102.24 67.01,100.11 67.07,97.97C67.14,95.59 67.12,93.2 67.14,90.82C67.18,86.89 67.23,82.97 67.27,79.04L67.27,77.25C65.17,77.25 63.19,77.24 61.21,77.25C59.85,77.26 59.42,76.86 59.43,75.52C59.44,73.87 59.52,72.23 59.45,70.58C59.4,69.42 59.99,69.09 60.97,69.09C64.52,69.09 68.07,69.12 71.62,69.07C73.37,69.05 75.11,68.82 76.85,68.77C78.43,68.72 80.02,68.81 81.6,68.8C84.58,68.78 87.56,68.7 90.54,68.69C94.32,68.68 98.11,68.71 101.89,68.74C106.26,68.78 110.63,68.86 115,68.88C118.43,68.9 121.87,68.81 125.3,68.85C129.96,68.9 134.62,69.06 139.29,69.12C141.26,69.14 143.23,68.94 145.19,68.98C148.67,69.05 152.16,69.26 155.64,69.34C157.3,69.38 158.96,69.19 160.63,69.21C163.39,69.25 166.16,69.43 168.92,69.43C171.81,69.43 174.69,69.28 177.58,69.2C177.73,69.2 177.89,69.26 178.28,69.34L178.28,75.28C178.28,77.17 177.53,77.86 175.6,77.83C173.3,77.79 170.99,77.83 168.6,77.83L168.6,109.39C169.54,109.49 170.43,109.64 171.32,109.66C173.34,109.71 175.36,109.68 177.38,109.7C177.99,109.7 178.76,109.45 178.93,110.37C179.04,110.98 177.97,111.93 177.27,111.91C174.88,111.83 172.48,111.79 170.1,111.65C169.11,111.59 168.68,111.7 168.75,112.89C168.84,114.54 168.52,116.21 168.59,117.86C168.69,120.35 169.02,122.82 169.17,125.31C169.24,126.5 169.09,127.69 169.06,128.89C169.02,130.26 168.98,131.63 168.98,133C168.98,135.67 168.99,138.34 169,141.01L169,150.6C170.78,150.6 172.3,150.63 173.83,150.59C174.82,150.56 175.8,150.34 176.78,150.38C177.16,150.4 177.87,150.93 177.84,151.15C177.74,151.95 177.77,153.03 176.53,153.06C174.34,153.11 172.15,153.1 169.96,153.11L169.4,153.11C169.31,154.14 169.13,155.16 169.15,156.17C169.25,160.79 169.4,165.4 169.56,170.01C169.71,174.31 169.9,178.6 170.06,182.9C170.15,185.43 170.24,187.97 170.28,190.51C170.29,191.27 170.49,191.56 171.3,191.56C172.65,191.56 174.01,191.67 175.36,191.79C175.82,191.83 176.31,191.95 176.72,192.17C176.97,192.3 177.26,192.71 177.22,192.94C177.16,193.25 176.84,193.67 176.57,193.74C176.05,193.86 175.48,193.77 174.94,193.75C173.75,193.72 172.56,193.77 171.38,193.64C170.46,193.54 170.13,193.91 170.12,194.75C170.1,197.86 170.09,200.98 170.08,204.09C170.08,204.59 170.23,204.86 170.84,205.06C174.35,206.18 175.91,208.86 175.6,212.62C175.45,214.39 175.32,216.11 174.68,217.81C173.99,219.65 172.75,220.65 170.9,221.04C170.67,221.09 170.44,221.14 170.17,221.2C170.14,221.36 170.08,221.51 170.08,221.66C170.02,224.24 169.98,226.83 169.91,229.41C169.85,231.55 170.49,232.18 172.71,232.04C173.23,232.01 173.73,231.84 174.25,231.82C174.67,231.8 175.15,231.78 175.51,231.95C175.84,232.11 176.22,232.5 176.26,232.83C176.29,233.08 175.86,233.58 175.57,233.64C174.49,233.86 173.39,233.97 172.3,234.05C171.69,234.09 171.07,233.98 170.33,233.93C170.3,234.53 170.26,234.99 170.27,235.45C170.33,242.03 170.39,248.61 170.47,255.18C170.52,259.04 170.61,262.91 170.72,266.77C170.75,267.93 170.85,269.09 171.03,270.23C171.08,270.52 171.54,270.95 171.83,270.97C172.97,271.04 174.11,270.92 175.25,270.96C175.71,270.97 176.23,271.1 176.59,271.36C176.91,271.59 177.29,272.18 177.19,272.43C177.06,272.77 176.5,273.12 176.11,273.14C174.52,273.22 172.91,273.17 171.22,273.17C171.22,274.81 171.15,276.55 171.23,278.28C171.46,283.14 171.8,288 171.99,292.87C172.18,297.77 172.25,302.68 172.36,307.59C172.37,308.21 172.56,308.59 173.26,308.55C174.06,308.5 174.86,308.4 175.64,308.48C176.02,308.52 176.67,308.95 176.65,309.17C176.61,309.75 176.5,310.47 175.58,310.47C174.83,310.47 174.07,310.61 173.31,310.59C172.56,310.58 172.24,310.8 172.24,311.61C172.24,316.36 172.23,321.11 172.17,325.86C172.14,328.77 171.97,331.69 171.96,334.6C171.95,339.43 172.01,344.25 172.05,349.08C172.05,349.59 172.1,350.11 172.13,350.87L172.09,350.85ZM109.6,352.12L109.6,311.43L89.33,311.43C89.62,325.05 89.92,338.56 90.21,352.12L109.6,352.12ZM131.01,311.3C130.91,311.28 130.76,311.21 130.61,311.21C124.66,311.27 118.72,311.36 112.77,311.4C111.93,311.4 111.78,311.81 111.79,312.52C111.87,318.1 111.95,323.69 111.98,329.27C112.01,334.61 112.01,339.95 111.98,345.29C111.98,347.05 111.86,348.8 111.77,350.56C111.71,351.9 111.85,352.06 113.2,352.06C115.77,352.06 118.35,352.08 120.92,352.04C122.95,352.01 124.98,351.92 127.01,351.84C128.43,351.79 129.84,351.7 131.01,351.65L131.01,311.29L131.01,311.3ZM133.31,311.33L133.31,323.19C133.31,328.53 133.25,333.87 133.28,339.2C133.3,343.03 133.42,346.85 133.46,350.68C133.46,351.5 133.83,351.71 134.58,351.64C135.71,351.53 136.85,351.42 137.98,351.39C141.99,351.27 146.01,351.16 150.03,351.08C150.98,351.06 151.32,350.76 151.31,349.75C151.3,347.89 151.47,346.02 151.57,344.16C151.64,342.85 151.79,341.54 151.79,340.23C151.79,336.87 151.71,333.51 151.71,330.15C151.71,325.13 151.77,320.12 151.77,315.1C151.77,313.72 151.63,312.34 151.55,310.93C145.47,311.07 139.55,311.2 133.32,311.34L133.31,311.33ZM108.8,153.18C109.03,166.43 109.26,179.33 109.49,192.34C111.24,192.21 112.89,191.98 114.55,191.97C118.44,191.95 122.33,192.01 126.22,192.08C127.21,192.1 127.66,191.82 127.69,190.75C127.81,185.65 128.02,180.56 128.15,175.47C128.24,171.88 128.33,168.29 128.23,164.7C128.13,161.2 127.75,157.7 127.59,154.2C127.55,153.26 127.21,153.05 126.38,153.07C123.91,153.13 121.44,153.16 118.97,153.17C115.67,153.19 112.37,153.17 108.8,153.17L108.8,153.18ZM126.54,111.77C125.44,111.77 124.33,111.75 123.22,111.77C118.61,111.88 114.01,112.01 109.4,112.13C108.72,112.15 108.25,112.37 108.25,113.17C108.25,114.08 108.17,114.99 108.15,115.9C108.11,118.19 108.08,120.47 108.06,122.76C108.06,123.62 108.17,124.47 108.13,125.33C108.02,127.37 108.03,129.38 108.31,131.42C108.57,133.33 108.46,135.3 108.51,137.24C108.62,141.45 108.73,145.66 108.83,149.87C108.85,150.62 109,150.98 109.94,150.95C114.12,150.79 118.31,150.74 122.5,150.68C124.11,150.65 125.72,150.68 127.26,150.68C127.02,137.54 126.78,124.66 126.55,111.78L126.54,111.77ZM147.68,111.57C144.23,111.57 141.13,111.58 138.02,111.57C135.39,111.56 132.75,111.53 130.12,111.48C129.48,111.47 129.13,111.63 129.13,112.32C129.11,114.79 129.04,117.26 129.04,119.72C129.04,124.2 128.99,128.69 129.09,133.17C129.19,137.82 129.44,142.47 129.61,147.12C129.65,148.21 129.61,149.3 129.61,150.43L147.94,150.43C147.85,137.49 147.76,124.65 147.67,111.57L147.68,111.57ZM88.64,153.54L88.64,192.62L107.17,192.62C106.92,179.38 106.67,166.41 106.42,153.54L88.64,153.54ZM87.14,311.57C86.69,311.47 86.42,311.36 86.16,311.36C81.14,311.32 76.12,311.27 71.1,311.29C70.83,311.29 70.36,311.84 70.34,312.16C70.27,313.03 70.42,313.91 70.42,314.79C70.42,318.56 70.38,322.34 70.37,326.11L70.37,352.06C76.08,352.13 81.61,352.2 87.14,352.27C88.14,352.28 87.94,351.54 87.91,351C87.76,348.12 87.53,345.25 87.42,342.37C87.32,339.91 87.33,337.45 87.3,334.99C87.25,330.67 87.18,326.35 87.15,322.03C87.13,318.58 87.15,315.13 87.15,311.57L87.14,311.57ZM107.67,231.49C108.47,219.08 106.72,206.87 106.82,194.6C106.48,194.54 106.28,194.48 106.09,194.49C103.53,194.54 100.98,194.61 98.42,194.64C95.78,194.67 93.13,194.66 90.49,194.68C89.55,194.68 88.64,194.65 88.69,196.09C88.75,198.12 88.64,200.15 88.62,202.18C88.58,205.58 88.45,208.98 88.52,212.38C88.6,216.77 88.8,221.16 89.03,225.55C89.13,227.52 89.44,229.48 89.65,231.51L107.68,231.51L107.67,231.49ZM105.49,112.41C105.49,112.41 105.3,112.36 105.11,112.36L90.74,112.36C88.3,112.36 88.21,112.37 88.06,114.75C87.9,117.12 87.92,119.51 87.88,121.89C87.86,122.87 87.89,123.85 87.91,124.83C87.96,127.16 88.01,129.48 88.07,131.81C88.13,134.49 88.22,137.17 88.26,139.85C88.31,142.74 88.34,145.63 88.37,148.52L88.37,151.08L106.32,151.08C106.04,138.08 105.76,125.3 105.47,112.42L105.49,112.41ZM128.73,231.41C128.73,230.59 128.77,229.85 128.73,229.11C128.64,227.8 128.44,226.5 128.39,225.2C128.27,221.9 128.24,218.59 128.13,215.29C127.95,209.88 127.75,204.47 127.55,199.06C127.48,197.33 127.38,195.61 127.28,193.8C121.22,193.92 115.33,194.04 109.35,194.16C109.35,196.65 109.33,198.82 109.35,201C109.4,205.18 109.43,209.35 109.55,213.53C109.62,215.95 109.91,218.37 109.96,220.79C110.03,224.29 109.98,227.79 109.98,231.42L128.73,231.42L128.73,231.41ZM107.54,234.22C105.88,234.22 104.43,234.26 102.98,234.22C99.13,234.09 95.28,233.89 91.43,233.8C89.66,233.76 89.58,233.85 89.53,235.66C89.48,237.44 89.62,239.23 89.66,241.02C89.72,243.65 89.79,246.28 89.81,248.91C89.82,250.7 89.68,252.5 89.75,254.29C89.9,258.44 90.16,262.58 90.3,266.72C90.35,268.05 90.17,269.39 90.08,270.83L109.01,270.83L109.01,268.87C109.02,265.76 109.19,262.64 109.01,259.55C108.81,256 108.2,252.47 107.95,248.91C107.66,244.74 107.57,240.55 107.41,236.37C107.38,235.63 107.49,234.88 107.53,234.23L107.54,234.22ZM147.58,152.88L129.74,152.88C129.81,153.97 129.87,154.88 129.94,155.79C130.23,159.6 130.75,163.42 130.77,167.23C130.8,172.82 130.46,178.42 130.32,184.01C130.26,186.58 130.31,189.14 130.31,191.74C136.14,191.56 141.94,191.39 147.58,191.22L147.58,152.87L147.58,152.88ZM132.29,272.94C132.29,275.17 132.22,277.2 132.3,279.22C132.53,285.03 132.83,290.83 133.09,296.63C133.25,300.26 133.43,303.88 133.53,307.51C133.57,309.08 133.49,309.1 135.08,309.08C140.19,309.02 145.3,308.93 150.4,308.88C151.46,308.88 151.94,308.42 151.88,307.37C151.62,302.24 151.39,297.1 151.12,291.97C150.85,286.72 149.8,281.5 150.54,276.21C150.68,275.18 150.56,274.1 150.56,272.93L132.29,272.93L132.29,272.94ZM150.34,152.93C150.22,155.3 150.05,157.49 150.01,159.69C149.94,163.11 149.92,166.54 149.92,169.97C149.92,173.46 150,176.95 150.04,180.44C150.07,183.46 150.07,186.48 150.13,189.5C150.17,191.36 150.44,191.56 152.32,191.54C154.94,191.52 157.55,191.52 160.17,191.52L167.24,191.52C167,178.62 166.76,165.89 166.52,152.93L150.33,152.93L150.34,152.93ZM70,154.01C70,156.25 69.98,158.27 70,160.28C70.05,164.37 70.18,168.47 70.16,172.56C70.15,176.19 69.94,179.83 69.89,183.46C69.86,186.2 69.99,188.94 69.96,191.67C69.94,193.23 69.88,193.24 71.47,193.22C76.15,193.15 80.84,193.06 85.52,193.01C86.21,193.01 86.48,192.73 86.49,192.11C86.51,191.15 86.52,190.2 86.5,189.24C86.46,186.88 86.34,184.52 86.35,182.16C86.37,178.17 86.49,174.18 86.51,170.18C86.53,167.28 86.46,164.39 86.44,161.49C86.43,158.91 86.44,156.33 86.44,153.56C80.86,153.71 75.46,153.85 69.97,154L70,154.01ZM166.58,150.38C166.41,137.54 166.25,124.62 166.08,111.53L149.68,111.53C149.65,112.1 149.58,112.53 149.61,112.95C149.7,114.16 149.93,115.37 149.94,116.57C149.98,120.57 149.94,124.58 149.93,128.58C149.93,129.65 149.87,130.72 149.91,131.78C150.03,134.32 150.29,136.85 150.31,139.39C150.34,142.74 150.21,146.09 150.13,149.44C150.11,150.31 150.41,150.59 151.33,150.54C153.59,150.41 155.87,150.4 158.14,150.38C160.88,150.36 163.63,150.38 166.59,150.38L166.58,150.38ZM169.55,310.34C164.51,310.54 159.32,310.74 154.04,310.94C154.04,312.65 154.03,314.27 154.04,315.88C154.07,318.87 154.17,321.87 154.14,324.86C154.09,328.76 153.91,332.66 153.85,336.57C153.81,339.38 153.91,342.19 153.89,345C153.88,346.71 153.79,348.42 153.66,350.12C153.61,350.82 153.92,350.97 154.48,350.95C156.11,350.9 157.74,350.82 159.37,350.78C162.46,350.7 165.56,350.56 168.65,350.6C169.65,350.61 169.88,350.41 169.85,349.46C169.73,344.91 169.63,340.36 169.61,335.81C169.59,332.3 169.74,328.78 169.74,325.27C169.74,322.16 169.59,319.04 169.54,315.93C169.51,314.15 169.54,312.36 169.54,310.33L169.55,310.34ZM69.95,151.87C71.99,151.73 73.85,151.55 75.72,151.48C78.87,151.35 82.02,151.29 85.17,151.2C85.81,151.18 86.35,151.1 86.33,150.25C86.3,148.82 86.35,147.38 86.31,145.95C86.24,143.45 86.11,140.96 86.04,138.46C86.02,137.8 86.18,137.13 86.15,136.47C86.09,134.74 85.94,133.02 85.88,131.29C85.78,128.04 85.7,124.79 85.68,121.54C85.67,119.84 85.8,118.14 85.83,116.44C85.86,115.12 85.83,113.79 85.83,112.56C80.22,112.79 74.85,113.02 69.42,113.25C69.59,126.24 69.76,138.99 69.94,151.89L69.95,151.87ZM87.49,270.84L87.49,265.72C87.49,263.93 87.45,262.15 87.45,260.36C87.45,257.71 87.54,255.05 87.49,252.4C87.44,249.68 87.25,246.95 87.16,244.23C87.12,243.08 87.18,241.93 87.19,240.78L87.19,234.47L70.06,234.47L70.06,247.35C70.07,254.77 70.1,262.19 70.09,269.61C70.09,270.47 70.36,270.79 71.28,270.79C74.83,270.76 78.37,270.82 81.92,270.84L87.49,270.84ZM130.08,261.13C129.51,261.03 129.16,260.98 128.81,260.9C126.34,260.36 122.76,257.75 122.89,254.44C122.92,253.61 123.16,252.78 123.13,251.96C123.04,249.17 124.96,247.31 126.19,245.14C126.28,244.98 126.6,244.93 126.82,244.87C128.58,244.43 129.84,243.39 129.47,241.42C129.3,240.53 129.34,239.6 129.27,238.68C129.18,237.37 129.08,236.06 128.99,234.75C128.94,234.02 128.53,233.67 127.83,233.68C126.93,233.69 126.02,233.77 125.12,233.78C121.69,233.81 118.26,233.81 114.83,233.86C113.2,233.89 111.56,234.02 109.7,234.12C110.2,246.38 110.69,258.54 111.18,270.75C112.04,270.79 112.91,270.87 113.78,270.87C117.44,270.88 121.09,270.87 124.75,270.87C126.03,270.87 127.3,270.9 128.58,270.97C129.55,271.02 130.07,270.78 130.04,269.66C129.99,267.91 130.04,266.16 130.06,264.41L130.06,261.13L130.08,261.13ZM109.2,272.81C107.62,272.81 106.25,272.82 104.89,272.81C100.29,272.75 95.69,272.71 91.09,272.59C90,272.56 89.71,272.94 89.76,273.95C89.89,276.86 90.07,279.77 90.03,282.68C89.99,285.43 89.62,288.17 89.54,290.92C89.45,294.06 89.58,297.21 89.5,300.36C89.44,302.83 89.24,305.29 89.06,307.75C89.01,308.4 89.18,308.68 89.89,308.7C92.86,308.8 95.84,309.03 98.81,309.07C102.04,309.12 105.27,309.01 108.5,309C109.24,309 109.41,308.7 109.4,307.98C109.37,305.87 109.4,303.76 109.48,301.66C109.55,299.75 109.59,299.77 107.66,299.42C107.31,299.36 107.01,298.95 106.66,298.92C104.52,298.7 103.66,296.93 103.09,295.39C102.05,292.61 102.17,289.62 103.42,286.89C104.04,285.52 105.09,284.3 106.12,283.16C106.83,282.37 107.77,281.68 108.74,281.26C109.4,280.97 109.62,280.61 109.59,280.05C109.48,277.67 109.33,275.29 109.19,272.83L109.2,272.81ZM86.9,308.61C87.09,303.41 87.33,298.5 87.45,293.58C87.55,289.6 87.52,285.62 87.52,281.64C87.52,278.94 87.5,276.24 87.4,273.55C87.39,273.22 86.83,272.64 86.5,272.62C84.45,272.52 82.39,272.53 80.33,272.53C77.48,272.53 74.62,272.53 71.77,272.56C71.27,272.56 70.77,272.62 70.31,272.65L70.31,308.62L86.92,308.62L86.9,308.61ZM70.14,195.08L70.14,232.17C71.79,232.17 73.25,232.2 74.71,232.17C78.48,232.07 82.26,231.92 86.03,231.83C86.74,231.81 87.06,231.58 87.02,230.85C86.94,229.27 86.91,227.69 86.83,226.11C86.69,223.38 86.44,220.65 86.41,217.92C86.36,213.89 86.48,209.86 86.5,205.83C86.52,202.3 86.5,198.78 86.5,195.1L70.14,195.1L70.14,195.08ZM131.61,231.15C132.03,231.22 132.26,231.29 132.49,231.29C135.05,231.26 137.62,231.19 140.18,231.19C143.02,231.19 145.86,231.22 148.69,231.33C149.46,231.36 149.57,231.18 149.52,230.49C149.34,228.03 149.18,225.56 149.09,223.1C149.06,222.28 148.71,221.99 148,221.81C144.98,221.02 142.52,219.62 142.17,216.1C141.94,213.83 142.18,211.63 143.31,209.59C144.14,208.09 145.53,207.2 147.02,206.56C148.27,206.02 148.44,205.18 148.32,204.01C148.08,201.62 147.86,199.22 147.72,196.82C147.67,195.96 147.81,195.08 147.92,194.22C148.02,193.44 147.66,193.22 146.97,193.28C146.26,193.34 145.55,193.42 144.85,193.41C143.47,193.39 142.09,193.21 140.72,193.27C137.44,193.42 134.17,193.69 130.89,193.88C130.25,193.92 129.92,194.13 129.96,194.81C130.02,195.88 130.08,196.96 130.1,198.03C130.16,200.58 130.13,203.13 130.28,205.67C130.49,209.17 130.94,212.65 131.12,216.15C131.37,221.11 131.46,226.08 131.62,231.15L131.61,231.15ZM86.91,77.37C87.01,78.98 87.09,80.44 87.19,81.9C87.45,85.6 87.73,89.3 87.96,93C88.05,94.42 88.01,95.85 88.05,97.28C88.12,99.48 88.25,101.68 88.29,103.88C88.31,105.38 88.22,106.88 88.18,108.39C88.16,109.15 88.15,109.67 89.31,109.62C92.68,109.49 96.05,109.56 99.42,109.58C101.25,109.59 103.07,109.66 104.9,109.73C105.52,109.75 105.88,109.58 105.91,108.89C105.98,107.24 106.13,105.59 106.16,103.94C106.21,101.38 106.13,98.81 106.21,96.25C106.28,94.07 106.56,91.9 106.6,89.73C106.64,87.67 106.47,85.61 106.43,83.55C106.4,81.66 106.43,79.78 106.43,77.8C99.83,77.66 93.44,77.52 86.9,77.38L86.91,77.37ZM147.81,77.48C147.73,77.46 147.58,77.38 147.43,77.38C141.77,77.36 136.11,77.34 130.45,77.38C130.21,77.38 129.77,77.91 129.76,78.2C129.65,82.32 129.59,86.43 129.53,90.55C129.44,96.16 129.36,101.77 129.28,107.38L129.28,109.37C135.23,109.47 141.04,109.59 146.84,109.64C147.1,109.64 147.56,109.17 147.58,108.9C147.64,108.13 147.47,107.35 147.47,106.58C147.47,103.42 147.48,100.27 147.51,97.11C147.54,93.77 147.6,90.42 147.66,87.08C147.69,85.23 147.78,83.39 147.81,81.54C147.83,80.24 147.81,78.94 147.81,77.49L147.81,77.48ZM126.72,109.44C126.9,98.79 127.08,88.2 127.26,77.65C125.73,77.5 124.35,77.23 122.98,77.27C118.31,77.38 113.65,77.59 108.99,77.81C108.7,77.82 108.19,78.29 108.19,78.54C108.21,80.04 108.33,81.54 108.46,83.03C108.65,85.35 109.01,87.68 109.05,90C109.08,92.13 108.7,94.26 108.65,96.39C108.59,98.75 108.72,101.12 108.75,103.49C108.77,105.48 108.75,107.48 108.75,109.44L126.72,109.44ZM152.75,264.36L152.65,264.36C152.8,266.3 152.92,268.24 153.11,270.17C153.14,270.45 153.5,270.9 153.73,270.92C154.87,271 156.03,270.96 157.18,270.96C160.12,270.96 163.06,270.9 165.99,270.98C168.53,271.05 168.49,271.12 168.4,268.64C168.28,265.25 168.23,261.86 168.14,258.47C168.01,253.77 167.86,249.06 167.73,244.36C167.64,241.14 167.56,237.92 167.53,234.7C167.53,233.79 167.17,233.56 166.3,233.6C164.11,233.69 161.92,233.71 159.74,233.71C157.34,233.71 154.94,233.66 152.55,233.57C151.83,233.54 151.75,233.85 151.79,234.42C151.88,235.69 152.01,236.96 151.99,238.23C151.97,240.05 151.64,241.89 151.81,243.68C152.02,245.88 152.51,248.01 152.48,250.28C152.4,254.97 152.65,259.67 152.76,264.37L152.75,264.36ZM168.63,273.2C166.67,273.1 164.92,272.96 163.18,272.93C161.73,272.91 160.28,273.05 158.83,273.07C157.21,273.09 155.58,273.02 153.96,273.08C153.65,273.09 153.11,273.48 153.09,273.73C152.96,275.35 152.83,276.98 152.91,278.6C153.09,282.24 153.43,285.87 153.62,289.5C153.77,292.27 153.78,295.04 153.87,297.81C154,301.41 154.15,305.01 154.31,308.81C159.51,308.64 164.62,308.46 170.04,308.28C169.57,296.53 169.1,284.89 168.63,273.19L168.63,273.2ZM132.22,233.63C132.22,235.95 132.1,237.93 132.26,239.9C132.41,241.77 131.73,244.09 134.37,244.96C134.59,245.03 134.81,245.16 135,245.29C136.74,246.51 138.46,247.71 138.84,250.06C139.24,252.53 138.7,254.79 137.46,256.91C136.42,258.69 135.16,260.2 133,260.67C132.73,260.73 132.35,261.12 132.35,261.36C132.3,264.34 132.31,267.33 132.35,270.31C132.35,270.5 132.8,270.82 133.06,270.83C134.57,270.9 136.08,270.92 137.59,270.91C140.09,270.9 142.59,270.82 145.09,270.83C146.63,270.83 148.18,270.94 149.72,271.02C150.38,271.06 150.7,270.85 150.63,270.14C150.53,269.07 150.41,268 150.41,266.93C150.39,262.79 150.5,258.64 150.37,254.5C150.28,251.82 150.51,249.13 149.81,246.44C149.42,244.94 149.86,243.24 149.88,241.62C149.9,239.6 149.95,237.57 149.83,235.55C149.71,233.55 149.62,233.57 147.65,233.59C144.8,233.61 141.95,233.61 139.1,233.61L132.23,233.61L132.22,233.63ZM129.93,272.94L128.5,272.94C125.53,272.91 122.55,272.89 119.58,272.85C117.28,272.82 114.97,272.88 112.68,272.7C111.57,272.61 111.17,272.92 111.23,273.94C111.36,276.2 111.51,278.46 111.7,280.72C111.72,281.01 111.97,281.39 112.22,281.54C113.13,282.07 114.16,282.41 115.01,283.01C116.41,284 117.52,285.23 118.27,286.86C119.18,288.86 119.29,290.9 119.07,292.98C118.88,294.76 118.69,296.7 117.07,297.79C115.78,298.67 114.26,299.3 112.75,299.75C111.92,300 111.75,300.31 111.75,301.03C111.73,303.38 111.73,305.74 111.63,308.09C111.59,309.04 111.96,309.27 112.81,309.23C114.96,309.13 117.12,309.02 119.28,309.01C122.9,308.99 126.52,309.03 130.15,309.04C130.84,309.04 131.26,308.83 131.23,307.99C131.13,305.29 131.12,302.58 131.01,299.87C130.84,295.74 130.59,291.61 130.43,287.48C130.24,282.67 130.11,277.87 129.95,272.93L129.93,272.94ZM86.17,109.66L86.17,107.89C86.2,104.32 86.26,100.74 86.24,97.17C86.21,93.84 86.05,90.5 86.01,87.17C85.97,84.19 86.04,81.21 85.99,78.23C85.99,77.94 85.55,77.4 85.32,77.4C81.46,77.34 77.6,77.35 73.75,77.36C72.56,77.36 71.36,77.48 70.18,77.41C69.5,77.37 69.31,77.63 69.31,78.2C69.3,79.91 69.24,81.63 69.3,83.34C69.42,87.17 69.69,90.99 69.74,94.82C69.78,97.78 69.55,100.75 69.49,103.71C69.45,105.84 69.49,107.98 69.49,110.18C75.15,110 80.67,109.83 86.2,109.66L86.17,109.66ZM166.12,109.4L166.12,77.58L150.13,77.58C149.59,88.21 149.95,98.81 149.51,109.4L166.12,109.4ZM151.71,231.39L167.4,231.39L167.4,221.2C164.46,220.48 162.38,219.23 161.58,216.26C161,214.14 160.88,212.15 161.85,210.19C162.81,208.25 164.17,206.67 166.33,205.97C166.96,205.77 167.18,205.39 167.16,204.72C167.13,203.53 167.21,202.34 167.21,201.15C167.22,198.66 167.21,196.17 167.21,193.54L150.19,193.54C150.31,197.6 150.42,201.54 150.54,205.53C152.78,205.5 154.39,206.23 155.42,207.86C156.06,208.88 156.45,210.06 156.93,211.17C157.89,213.38 157.35,215.66 156.67,217.7C155.86,220.15 154.07,221.96 151.11,222.13C151.31,225.18 151.5,228.17 151.71,231.38L151.71,231.39Z" style="fill-rule:nonzero;"/>
        <path d="M113.03,37.2C110.74,37.09 108.52,36.95 106.3,36.91C106.03,36.91 105.67,37.36 105.5,37.69C104.9,38.88 104.39,40.11 103.78,41.29C103.66,41.52 103.22,41.58 102.93,41.73C102.81,41.39 102.56,41.03 102.59,40.7C102.64,40.15 102.89,39.63 103.02,39.09C103.6,36.67 104.14,34.25 104.74,31.84C105.23,29.88 105.76,27.93 106.3,25.99C106.65,24.73 107.03,23.48 107.42,22.22C107.54,21.84 107.64,21.41 107.88,21.12C108.24,20.69 108.69,20.11 109.15,20.05C109.5,20.01 110.1,20.63 110.29,21.08C110.94,22.65 111.51,24.27 112.03,25.89C112.81,28.34 113.52,30.81 114.25,33.28C115.01,35.85 115.77,38.43 116.47,41.02C116.56,41.37 116.5,41.91 116.28,42.15C115.88,42.58 115.31,42.85 114.81,43.19C114.57,42.74 114.24,42.31 114.11,41.83C113.71,40.3 113.38,38.74 113.03,37.21L113.03,37.2ZM109.13,22.72L108.77,22.78C108.02,25.77 107.25,28.75 106.52,31.75C106.35,32.44 106.3,33.16 106.31,33.87C106.31,34.1 106.68,34.53 106.88,34.54C108.57,34.59 110.25,34.57 111.86,34.57C111.41,32.54 111.03,30.81 110.63,29.09C110.14,26.96 109.63,24.84 109.13,22.72Z" style="fill-rule:nonzero;"/>
        <path d="M103.7,58.64C103.57,56.9 103.46,55.15 103.31,53.41C103.21,52.19 103.56,51.79 104.77,51.86C107.95,52.04 110.98,52.85 113.79,54.33C115.68,55.32 117.19,58.97 115.55,61.55C113.8,64.31 111.38,65.4 108.32,65.71C107.36,65.81 106.48,66.34 105.44,65.83C104.44,65.34 103.84,64.66 103.78,63.56C103.68,61.93 103.6,60.3 103.51,58.67C103.57,58.67 103.63,58.67 103.69,58.66L103.7,58.64ZM105.5,53.77C105.61,54.38 105.7,54.76 105.75,55.15C106.07,57.68 106.39,60.2 106.67,62.73C106.74,63.36 106.93,63.77 107.61,63.6C108.84,63.3 110.13,63.1 111.26,62.57C113.94,61.32 114.64,58.18 112.49,56.61C110.48,55.14 108.13,54.19 105.49,53.77L105.5,53.77Z" style="fill-rule:nonzero;"/>
        <path d="M130.96,64.71C130.12,64.86 129.26,65.03 128.4,65.16C125.9,65.53 123.36,64.25 122.33,61.98C121.19,59.46 121.95,56.61 123.87,54.44C125.36,52.76 128.39,52.48 130.66,53.64C131.16,53.89 131.7,54.12 132.08,54.5C132.34,54.76 132.34,55.27 132.45,55.67C132.1,55.72 131.74,55.85 131.4,55.8C130.19,55.64 128.99,55.3 127.77,55.25C125.63,55.15 124.06,57.47 123.96,58.98C123.83,60.96 125.76,62.86 127.81,62.92C128.64,62.95 129.48,62.85 130.31,62.72C130.99,62.62 131.4,62.23 131.15,61.47C129.83,61.21 128.51,61 127.23,60.66C126.82,60.55 126.51,60.07 126.15,59.76C126.49,59.46 126.79,58.94 127.16,58.9C128.37,58.74 129.61,58.72 130.84,58.7C131.92,58.69 133,58.7 134.07,58.8C134.45,58.84 135.06,59.15 135.1,59.4C135.16,59.83 134.96,60.58 134.66,60.71C133.18,61.34 133.2,62.4 133.49,63.68C133.67,64.45 133.77,65.26 133.74,66.05C133.74,66.39 133.4,66.85 133.09,67.02C132.86,67.15 132.27,67.01 132.11,66.79C131.68,66.2 131.38,65.5 130.96,64.7L130.96,64.71Z" style="fill-rule:nonzero;"/>
        <path d="M145.97,59.77C146.13,61.02 146.28,62.11 146.39,63.2C146.47,64.01 146.79,64.98 145.55,65.22C144.51,65.42 143.09,64.53 143.08,63.56C143.04,59.97 143.08,56.38 143.18,52.8C143.18,52.45 143.7,52.12 143.98,51.77C144.33,52.12 144.89,52.41 144.98,52.81C145.25,54.13 145.37,55.49 145.51,56.83C145.59,57.56 145.79,58 146.68,57.95C147.67,57.89 148.67,57.98 149.66,58.07C150.64,58.16 150.77,57.65 150.72,56.83C150.65,55.53 150.64,54.22 150.69,52.91C150.7,52.59 151,52.03 151.21,52.01C151.53,51.98 151.92,52.28 152.21,52.52C152.37,52.65 152.42,52.95 152.46,53.18C153.04,57.02 153.63,60.86 154.17,64.71C154.27,65.44 154.31,66.3 153.35,66.61C152.41,66.91 151.04,65.89 151.01,64.9C150.97,63.71 150.9,62.52 150.9,61.33C150.9,60.52 150.61,60.24 149.76,60.22C148.58,60.19 147.4,59.95 145.97,59.77Z" style="fill-rule:nonzero;"/>
        <path d="M67.24,59.07C67.34,59.81 67.38,60.32 67.49,60.82C67.59,61.32 67.76,61.81 67.91,62.37C69.36,62.37 70.87,62.47 72.36,62.32C72.99,62.26 73.71,62 73.86,62.68C73.99,63.26 73.66,64.01 73.36,64.59C73.23,64.85 72.68,64.99 72.3,65.01C70.39,65.12 68.47,65.19 66.56,65.24C65.71,65.26 65.07,64.82 65.18,63.96C65.48,61.63 64.44,59.55 64.16,57.34C63.99,55.97 63.77,54.54 64.02,53.22C64.14,52.57 65.22,51.83 65.99,51.64C67.36,51.31 68.82,51.37 70.25,51.28C70.64,51.25 71.03,51.19 71.41,51.24C71.81,51.29 72.44,51.36 72.54,51.59C72.69,51.96 72.61,52.6 72.37,52.9C72.04,53.29 71.48,53.55 70.98,53.71C70.15,53.97 69.28,54.13 68.42,54.27C67.6,54.4 67.17,54.75 67.09,55.65C66.95,57.17 66.96,57.27 68.44,57.22C69.91,57.18 71.37,57.06 72.84,57.07C73.23,57.07 73.62,57.44 74.01,57.64C73.74,57.98 73.51,58.57 73.18,58.63C71.91,58.86 70.6,58.95 69.31,59.05C68.69,59.1 68.06,59.05 67.26,59.05L67.24,59.07Z" style="fill-rule:nonzero;"/>
        <path d="M83.26,65.79C80.65,65.04 81.33,64.24 81.84,62.74C82.14,61.84 82.4,60.92 82.75,60.04C83.77,57.45 84.8,54.87 85.87,52.3C85.98,52.03 86.44,51.65 86.58,51.71C86.99,51.87 87.45,52.16 87.65,52.52C88.77,54.58 89.82,56.68 90.91,58.76C91.07,59.06 91.29,59.41 91.58,59.54C92.26,59.86 92.41,60.24 92.38,61.02C92.35,61.7 92.8,62.45 93.19,63.07C93.74,63.92 93.92,64.7 93.45,65.64C93.05,66.45 92.26,66.65 91.73,65.92C91.24,65.26 90.84,64.51 90.52,63.75C89.81,62.03 88.81,61.55 86.96,61.54C85.36,61.54 84.79,62.4 84.31,63.63C84.02,64.36 83.62,65.04 83.25,65.78L83.26,65.79ZM86.85,56.3C86.38,57.64 85.98,58.77 85.5,60.12C86.58,60.03 87.38,59.96 88.3,59.88C87.81,58.68 87.4,57.67 86.85,56.3Z" style="fill-rule:nonzero;"/>
        <path d="M171.08,59.2C171.38,60.71 170.89,61.19 169.82,61.19L165.92,61.19C166.13,62.24 166.31,63.14 166.5,64.06C168.29,64.06 170,64.15 171.69,64.02C172.47,63.96 173,64.08 173.16,64.8C173.35,65.64 172.7,65.92 172.01,65.99C171.1,66.08 170.18,66.1 169.27,66.16C168.6,66.2 167.92,66.19 167.27,66.33C165.85,66.62 165.24,66.24 164.57,65C163.69,63.37 163.95,61.61 163.74,59.91C163.51,58.15 163.5,56.36 163.4,54.59C163.35,53.59 163.83,52.96 164.8,52.83C166.81,52.57 168.83,52.33 170.86,52.17C171.9,52.09 173.06,53.21 172.98,54.22C172.96,54.52 172.37,55.01 172.03,55.03C170.64,55.1 169.25,55.03 167.86,55C167.19,54.98 166.52,54.93 165.6,54.88C165.75,56.26 165.79,57.54 166.08,58.76C166.14,59.01 167.09,59.15 167.64,59.18C168.79,59.24 169.95,59.2 171.09,59.2L171.08,59.2Z" style="fill-rule:nonzero;"/>
        <path d="M125.73,31.84C123.41,30.39 121.94,30.16 120.53,32.93C121.74,33.33 122.92,33.73 124.1,34.1C126.43,34.84 127.44,37.32 126.15,39.35C125.86,39.8 125.28,40.26 124.77,40.34C123.23,40.58 121.65,40.82 120.11,40.71C119.02,40.63 118.64,39 119.26,37.71C119.41,37.4 119.65,37.12 119.96,36.66C120.23,37 120.48,37.23 120.62,37.51C121.19,38.72 123.85,39.07 124.59,37.94C124.75,37.69 124.5,36.89 124.2,36.68C123.6,36.26 122.84,36.07 122.14,35.79C122.03,35.75 121.9,35.77 121.79,35.73C120.7,35.27 119.2,35.36 118.86,33.85C118.46,32.11 119.31,30.74 120.54,29.66C122.19,28.21 123.61,28.16 125.53,29.28C126.57,29.89 126.67,30.92 125.74,31.84L125.73,31.84Z" style="fill-rule:nonzero;"/>
        <path d="M178.03,198.96C176.94,200.25 176,201.35 175.07,202.45C174.92,202.38 174.76,202.32 174.61,202.25C174.71,201.82 174.7,201.31 174.93,200.97C175.75,199.75 176.59,198.52 177.57,197.43C177.98,196.97 178.8,196.56 179.37,196.63C180.22,196.74 180.13,197.64 180.17,198.38C180.26,200.44 180.38,202.49 180.58,204.54C180.67,205.5 179.96,205.63 179.41,205.71C179.08,205.76 178.38,205.28 178.35,204.98C178.17,203.41 178.16,201.83 178.09,200.25C178.07,199.9 178.06,199.55 178.03,198.95L178.03,198.96Z" style="fill-rule:nonzero;"/>
        <path d="M142.02,243.76C142.61,243.76 143.05,243.8 143.48,243.76C144.53,243.63 144.98,243.98 145.01,245.12C145.04,246.29 144.37,246.32 143.56,246.32C142.88,246.32 142.21,246.32 141.53,246.29C139.82,246.2 138.99,244.63 139.87,243.15C140.97,241.3 141.06,240.9 140.76,239.17C140.08,239.09 139.52,239.11 139.51,240.05C139.51,240.24 139.28,240.59 139.19,240.58C138.95,240.55 138.66,240.42 138.51,240.23C137.81,239.36 138.04,237.83 138.92,237.24C140.18,236.4 141.27,236.63 142.08,237.71C143.43,239.51 142.77,241.3 142.25,243.11C142.2,243.29 142.13,243.47 142.02,243.77L142.02,243.76Z" style="fill-rule:nonzero;"/>
        <path d="M120.79,284.86C118.88,284.84 118.48,284.42 118.98,283.01C119.31,282.08 119.87,282.13 120.38,282.72C120.93,283.35 121.53,283.48 122.16,283.07C122.54,282.82 123.09,282.19 122.99,281.95C122.76,281.36 122.31,280.69 121.76,280.42C120.89,279.98 120.57,279.6 121.09,278.69C121.52,277.94 121.23,277.52 120.37,277.51C120.21,277.51 120.05,277.52 119.9,277.56C119.28,277.72 118.54,277.83 118.53,277C118.53,276.49 118.97,275.74 119.43,275.5C121.02,274.68 123.46,275.65 123.7,277.43C123.89,278.85 124.5,280.03 124.85,281.33C125.33,283.15 123.65,284.86 121.53,284.9C121.29,284.9 121.05,284.87 120.81,284.85L120.79,284.86Z" style="fill-rule:nonzero;"/>
        <path d="M154.99,200.11C154.5,200.78 154.17,201.4 153.68,201.83C153.38,202.09 152.82,202.06 152.37,202.16C152.28,201.72 151.99,201.18 152.14,200.85C152.65,199.78 153.26,198.74 153.97,197.8C154.34,197.31 155.21,196.63 155.5,196.77C156.13,197.08 156.81,197.78 156.97,198.45C157.32,199.89 157.43,201.41 157.48,202.9C157.49,203.35 156.97,203.81 156.69,204.27C156.37,203.92 155.91,203.62 155.77,203.21C155.45,202.29 155.28,201.32 154.99,200.12L154.99,200.11Z" style="fill-rule:nonzero;"/>
    </g>
</svg>
