<?xml version="1.0" encoding="UTF-8" standalone="no"?>
<!DOCTYPE svg PUBLIC "-//W3C//DTD SVG 1.1//EN" "http://www.w3.org/Graphics/SVG/1.1/DTD/svg11.dtd">
<svg width="100%" height="100%" viewBox="0 0 218 263" version="1.1" xmlns="http://www.w3.org/2000/svg" xmlns:xlink="http://www.w3.org/1999/xlink" xml:space="preserve" xmlns:serif="http://www.serif.com/" style="fill-rule:evenodd;clip-rule:evenodd;stroke-linejoin:round;stroke-miterlimit:2;">
    <g id="mUsNqF">
        <path d="M57.5,75.3C55.46,75.3 53.44,75.29 51.42,75.3C50.04,75.3 49.62,74.92 49.63,73.59C49.63,71.9 49.69,70.22 49.65,68.53C49.62,67.42 50.25,67.14 51.15,67.14C54.7,67.13 58.25,67.17 61.8,67.12C63.55,67.1 65.29,66.87 67.03,66.82C68.61,66.77 70.2,66.86 71.78,66.85C74.76,66.83 77.74,66.75 80.72,66.75C84.54,66.75 88.37,66.77 92.19,66.8C96.56,66.83 100.93,66.92 105.3,66.93C109.04,66.93 112.79,66.79 116.53,66.84C120.84,66.89 125.15,67.11 129.46,67.19C131.43,67.23 133.4,67.03 135.37,67.06C138.74,67.1 142.11,67.25 145.48,67.31C147.26,67.34 149.03,67.25 150.81,67.28C153.57,67.33 156.34,67.51 159.1,67.51C161.95,67.51 164.79,67.35 167.64,67.27C167.83,67.27 168.03,67.32 168.49,67.37C168.49,69.32 168.48,71.26 168.49,73.2C168.51,75.31 167.78,75.94 165.6,75.88C163.37,75.82 161.15,75.87 158.84,75.87C158.84,78.31 158.78,80.79 158.9,83.25C158.92,83.65 159.72,84.06 160.22,84.36C161.1,84.88 162.11,85.21 162.94,85.8C166.69,88.51 164.93,93.82 162.46,95.9C161.71,96.53 160.82,97.01 159.96,97.47C159.35,97.8 158.97,98.18 158.98,98.92C159,100.34 159.01,101.76 158.98,103.18C158.95,104.57 158.86,105.95 158.8,107.44C159.72,107.53 160.58,107.66 161.43,107.68C163.49,107.73 165.55,107.71 167.61,107.74C168.21,107.74 168.99,107.49 169.15,108.42C169.25,109.04 168.19,109.97 167.49,109.95C164.98,109.87 162.46,109.8 159.95,109.69C159.26,109.66 158.96,109.74 158.97,110.57C158.99,112.35 158.73,114.13 158.8,115.9C158.9,118.43 159.22,120.94 159.38,123.47C159.44,124.46 159.3,125.46 159.3,126.45C159.29,129.21 159.3,131.98 159.3,134.74L159.3,148.68C160.91,148.68 162.36,148.72 163.8,148.67C164.82,148.63 165.84,148.39 166.86,148.4C167.27,148.4 167.93,148.75 168.04,149.08C168.34,149.97 167.59,151.03 166.69,151.06C164.5,151.12 162.31,151.1 160.11,151.12L159.54,151.12C159.49,152.31 159.38,153.44 159.4,154.57C159.49,159.03 159.61,163.49 159.75,167.94C159.89,172.28 160.09,176.62 160.25,180.95C160.34,183.41 160.43,185.86 160.45,188.32C160.45,189.2 160.64,189.61 161.64,189.58C162.95,189.55 164.27,189.68 165.58,189.8C166.04,189.84 166.53,189.97 166.94,190.19C167.18,190.32 167.42,190.73 167.4,190.99C167.38,191.26 167.08,191.66 166.82,191.72C166.34,191.85 165.81,191.81 165.3,191.8C163.92,191.76 162.53,191.69 161.15,191.64C160.31,191.61 160.31,192.26 160.3,192.81C160.28,194.49 160.38,196.17 160.28,197.84C160.12,200.57 159.84,203.3 159.61,206.03C159.57,206.51 159.69,207.05 159.5,207.44C159.28,207.88 158.78,208.17 158.41,208.53C158.09,208.14 157.49,207.76 157.48,207.37C157.4,203.03 157.41,198.7 157.4,194.36L157.4,191.58L140.43,191.58C140.53,194.54 140.61,197.39 140.73,200.24C140.81,202.1 140.98,203.96 141.02,205.82C141.03,206.37 141.17,207.25 140.2,207.26C139.46,207.26 138.61,207.38 138.61,206.09C138.61,204.16 138.45,202.23 138.33,200.3C138.22,198.49 138.02,196.69 137.95,194.88C137.92,193.98 138.08,193.07 138.16,192.16C138.21,191.58 138.01,191.29 137.35,191.31C132.94,191.45 128.52,191.55 124.1,191.69C123.15,191.72 122.21,191.88 121.26,191.89C120.42,191.89 120.13,192.22 120.17,193.04C120.28,195.3 120.36,197.57 120.45,199.84C120.54,202.27 120.57,204.7 120.72,207.13C120.79,208.22 120.36,208.48 119.39,208.49C118.41,208.49 117.92,207.9 117.9,207.14C117.79,203.83 117.78,200.52 117.75,197.21C117.73,195.47 117.75,193.73 117.75,191.82C111.5,191.95 105.58,192.07 99.58,192.19C99.58,194.89 99.55,197.27 99.58,199.64C99.61,201.79 99.76,203.95 99.76,206.1C99.76,207.14 99.54,208.18 99.43,209.23C99.33,210.18 98.59,210.42 97.9,210.34C97.61,210.3 97.22,209.52 97.21,209.07C97.16,206.16 97.21,203.25 97.21,200.34L97.21,192.54L95.48,192.54C92.21,192.54 88.93,192.53 85.66,192.56C83.73,192.58 81.79,192.61 79.86,192.77C79.51,192.8 78.96,193.47 78.95,193.85C78.84,197.61 78.85,201.38 78.77,205.14C78.73,206.93 78.58,208.71 78.44,210.5C78.42,210.73 78.19,210.93 78.06,211.15C77.84,211 77.57,210.9 77.41,210.71C76.35,209.4 76.79,207.84 76.74,206.37C76.66,203.94 76.62,201.51 76.61,199.08C76.61,197.38 76.63,195.68 76.72,193.98C76.76,193.22 76.56,193.04 75.79,193.06C72.82,193.14 69.85,193.14 66.88,193.16C64.71,193.17 62.53,193.16 60.28,193.16C60.28,194.75 60.27,196.29 60.28,197.84C60.3,200.61 60.16,203.4 60.43,206.14C60.65,208.38 59.87,210.36 59.43,212.55C59.06,212.6 58.65,212.66 57.98,212.76C57.98,211.37 58,210.13 57.98,208.89C57.93,206.07 57.84,203.25 57.79,200.43C57.75,198.3 57.7,196.17 57.77,194.05C57.8,193.07 57.33,192.98 56.57,192.87C54.6,192.59 52.65,192.21 50.58,191.85C51.13,190.69 51.96,190.83 52.78,190.91C54.28,191.05 55.77,191.19 57.27,191.31C57.41,191.32 57.56,191.25 57.85,191.18L57.85,152.24C55.16,152.63 52.46,152.36 49.82,151.56C49.55,151.48 49.41,150.94 49.02,150.32C50.26,150.32 51.22,150.33 52.19,150.32C53.74,150.29 55.29,150.22 56.84,150.21C57.88,150.21 58.05,149.59 58.05,148.72C58.03,146.46 58.09,144.2 58.04,141.95C57.99,140.02 57.79,138.08 57.73,136.15C57.68,134.24 57.79,132.33 57.71,130.42C57.59,127.53 57.34,124.64 57.18,121.75C57.04,119.3 56.95,116.85 56.84,114.39C56.81,113.75 56.7,113.11 56.73,112.48C56.79,111.09 56.03,110.98 54.91,111.1C53.93,111.21 52.91,111.18 51.93,111.06C51.18,110.97 50.35,110.72 50.43,109.7C50.51,108.76 51.31,108.84 51.98,108.77C53.17,108.65 54.35,108.51 55.54,108.43C56.38,108.37 56.7,107.91 56.72,107.14C56.76,105.69 56.8,104.23 56.87,102.78C56.99,100.48 57.18,98.19 57.26,95.9C57.33,93.76 57.29,91.62 57.32,89.48C57.36,86.67 57.43,83.86 57.47,81.05C57.49,79.24 57.47,77.42 57.47,75.29L57.5,75.3ZM99.73,190.3C100.02,190.3 100.29,190.31 100.56,190.3C102.06,190.21 103.55,190.04 105.05,190.04C108.94,190.04 112.83,190.1 116.72,190.13C117.56,190.13 117.96,189.72 117.9,188.87C117.85,188.07 117.74,187.27 117.77,186.48C117.95,182.18 118.21,177.89 118.35,173.59C118.46,169.96 118.55,166.33 118.45,162.71C118.36,159.25 117.97,155.79 117.81,152.33C117.77,151.38 117.49,151.1 116.57,151.11C112.87,151.17 109.16,151.15 105.45,151.21C103.36,151.24 101.26,151.36 99.03,151.44C99.26,164.47 99.49,177.35 99.72,190.3L99.73,190.3ZM116.78,109.8C113.79,109.8 110.81,109.75 107.83,109.82C105.41,109.87 102.99,110.16 100.58,110.16C98.29,110.16 98.45,110.3 98.37,112.28C98.22,115.93 98.41,119.6 98.37,123.26C98.34,125.33 98.27,127.39 98.56,129.46C98.82,131.37 98.71,133.34 98.76,135.28C98.87,139.49 98.98,143.7 99.08,147.91C99.1,148.67 99.28,149.01 100.2,148.97C103.55,148.83 106.9,148.82 110.25,148.79C112.67,148.77 115.09,148.79 117.51,148.79C117.27,135.61 117.03,122.7 116.79,109.81L116.78,109.8ZM137.94,148.46C138.61,135.52 137.72,122.66 137.94,109.69C135.74,109.69 133.87,109.71 132.01,109.69C128.1,109.65 124.19,109.59 120.29,109.51C119.6,109.5 119.39,109.76 119.39,110.42C119.38,112.85 119.3,115.28 119.29,117.71C119.29,122.27 119.25,126.84 119.35,131.4C119.45,136.01 119.71,140.62 119.88,145.22C119.92,146.28 119.88,147.34 119.88,148.46L137.94,148.46ZM97.41,190.69C97.16,177.42 96.91,164.48 96.66,151.62L78.89,151.62L78.89,190.69L97.41,190.69ZM96.57,149.13C96.29,136.11 96.01,123.29 95.73,110.42C95.7,110.42 95.55,110.38 95.39,110.38L80.66,110.38C78.53,110.38 78.46,110.38 78.34,112.49C78.2,114.95 78.17,117.41 78.11,119.87C78.09,120.85 78.11,121.83 78.14,122.81C78.22,125.02 78.33,127.23 78.4,129.44C78.45,131.12 78.4,132.8 78.46,134.48C78.53,136.83 78.69,139.17 78.73,141.52C78.77,143.73 78.71,145.94 78.66,148.15C78.64,149 79.06,149.11 79.77,149.1C81.49,149.07 83.2,149.12 84.92,149.13L96.57,149.13ZM119.98,150.88C120.05,152 120.11,152.91 120.18,153.81C120.47,157.62 120.99,161.44 121.01,165.25C121.04,170.84 120.7,176.44 120.56,182.03C120.5,184.6 120.55,187.17 120.55,189.77C126.37,189.6 132.17,189.42 137.82,189.26L137.82,150.87L119.98,150.87L119.98,150.88ZM140.67,150.95C140.48,153.01 140.18,154.96 140.14,156.92C140.07,160.62 140.12,164.32 140.16,168.03C140.19,171.4 140.27,174.77 140.3,178.14C140.33,181.24 140.32,184.34 140.36,187.44C140.39,189.37 140.67,189.57 142.59,189.57C145.52,189.57 148.46,189.6 151.39,189.61L157.48,189.61C157.24,176.63 157,163.91 156.76,150.96L140.67,150.96L140.67,150.95ZM76.65,151.77C76.36,151.71 76.2,151.66 76.05,151.66C71.55,151.79 67.05,151.92 62.55,152.06C61.77,152.09 60.68,151.94 60.31,152.37C59.92,152.82 60.22,153.87 60.23,154.65C60.29,158.7 60.35,162.75 60.39,166.81C60.39,167.4 60.25,167.99 60.25,168.58C60.25,170.82 60.31,173.07 60.29,175.31C60.27,177.2 60.12,179.09 60.12,180.99C60.12,183.79 60.23,186.59 60.21,189.39C60.2,191.31 60.14,191.29 62.08,191.25C66.49,191.16 70.9,191.08 75.31,191.02C76.74,191 76.77,190.97 76.74,189.54C76.67,186.46 76.59,183.38 76.6,180.3C76.6,176.07 76.71,171.83 76.73,167.6C76.74,165.18 76.66,162.76 76.65,160.33C76.63,157.51 76.65,154.69 76.65,151.77ZM139.9,109.56C139.87,110.15 139.81,110.58 139.84,111C139.93,112.21 140.15,113.42 140.16,114.62C140.2,118.63 140.16,122.63 140.16,126.64C140.16,127.71 140.1,128.78 140.14,129.84C140.26,132.38 140.52,134.91 140.54,137.45C140.57,140.8 140.44,144.15 140.36,147.49C140.34,148.39 140.68,148.61 141.58,148.57C143.84,148.45 146.12,148.44 148.39,148.42C151.13,148.4 153.88,148.42 156.83,148.42C156.66,135.56 156.49,122.64 156.32,109.56L139.9,109.56ZM60.2,149.91C61.76,149.8 63.19,149.66 64.62,149.6C68.21,149.46 71.79,149.36 75.38,149.24C76,149.22 76.58,149.18 76.57,148.31C76.55,146.88 76.59,145.44 76.55,144.01C76.48,141.51 76.35,139.02 76.28,136.52C76.26,135.86 76.43,135.19 76.4,134.52C76.34,132.79 76.16,131.07 76.12,129.34C76.05,126.21 76.02,123.07 76.01,119.93C76.01,118.07 76.07,116.22 76.09,114.36C76.1,113.07 76.09,111.78 76.09,110.61C71.38,110.77 66.89,110.92 62.4,111.07C61.64,111.1 60.89,111.18 60.13,111.2C59.46,111.22 59.24,111.53 59.26,112.19C59.31,113.61 59.31,115.02 59.33,116.44C59.35,117.31 59.36,118.18 59.41,119.05C59.59,122.71 59.81,126.36 59.96,130.01C60.03,131.74 59.96,133.48 60,135.21C60.05,137.83 60.14,140.44 60.18,143.06C60.21,145.29 60.18,147.52 60.18,149.89L60.2,149.91ZM77.15,75.4C77.25,77.02 77.34,78.49 77.44,79.95C77.7,83.65 77.98,87.35 78.21,91.05C78.3,92.43 78.23,93.82 78.28,95.21C78.36,97.41 78.52,99.61 78.56,101.81C78.59,103.35 78.45,104.89 78.43,106.43C78.43,107.07 78.26,107.7 79.45,107.65C82.74,107.52 86.03,107.59 89.32,107.62C91.27,107.63 93.21,107.69 95.16,107.76C95.79,107.78 96.12,107.58 96.16,106.9C96.24,105.45 96.42,104 96.46,102.55C96.56,98.73 96.6,94.92 96.66,91.1C96.67,90.25 96.64,89.39 96.68,88.54C96.72,87.73 96.9,86.92 96.87,86.12C96.81,84.13 96.65,82.13 96.58,80.14C96.53,78.73 96.58,77.32 96.58,75.82C90.08,75.68 83.68,75.54 77.15,75.4ZM76.51,107.68C76.45,106.92 76.39,106.49 76.39,106.06C76.42,102.45 76.5,98.84 76.48,95.22C76.46,91.92 76.29,88.63 76.24,85.33C76.2,82.31 76.24,79.29 76.26,76.27C76.26,75.73 76.13,75.38 75.45,75.38C72.23,75.38 69.01,75.31 65.78,75.29C63.48,75.27 61.19,75.29 58.68,75.29C60.23,86.42 59.81,97.32 59.49,108.23C65.27,108.04 70.86,107.86 76.5,107.68L76.51,107.68ZM117.44,75.66C115.95,75.53 114.57,75.27 113.19,75.3C108.56,75.41 103.94,75.64 99.32,75.78C98.63,75.8 98.35,76.1 98.4,76.71C98.53,78.4 98.71,80.1 98.85,81.79C99.03,83.84 99.32,85.89 99.32,87.94C99.32,90.07 98.94,92.2 98.9,94.33C98.85,96.85 99,99.38 99.03,101.9C99.05,103.77 99.03,105.65 99.03,107.47L116.82,107.47C116.9,107.19 117.01,106.96 117.02,106.73C117.04,104.34 117.05,101.95 117.02,99.56C117.02,99.33 116.73,98.99 116.5,98.91C112.95,97.63 111.68,95.89 111.87,92.24C112,89.84 112.68,87.67 114.74,86.1C116.03,85.12 117.91,84.45 117.49,82.2C117.42,81.82 117.46,81.41 117.46,81.02L117.46,75.66L117.44,75.66ZM138.06,75.34L135.46,75.34C130.6,75.35 125.74,75.34 120.88,75.41C120.57,75.41 120.02,75.88 120.01,76.16C119.88,78.56 119.82,80.97 119.8,83.38C119.8,83.66 120.11,84.09 120.38,84.2C121.77,84.8 123.21,85.32 124.62,85.89C126.3,86.57 127.02,87.91 127.04,89.65C127.08,92.68 124.45,97.49 120.78,98.45C119.86,98.69 119.36,99.16 119.44,100.23C119.55,101.73 119.5,103.24 119.52,104.75L119.52,107.39C125.46,107.5 131.3,107.61 137.14,107.67C137.38,107.67 137.83,107.23 137.84,106.99C137.87,106.14 137.69,105.28 137.69,104.43C137.69,101.31 137.72,98.2 137.75,95.08C137.79,91.78 137.85,88.47 137.92,85.17C137.96,83.29 138.03,81.4 138.06,79.52C138.08,78.22 138.06,76.92 138.06,75.34ZM156.34,98.7C156.01,98.63 155.83,98.56 155.63,98.54C153.5,98.35 151.76,97.42 150.44,95.73C147.59,92.05 151.14,85.11 154.87,83.94C155.59,83.71 156.38,83.5 156.39,82.55C156.42,80.31 156.39,78.06 156.39,75.61L140.53,75.61C140.34,77.2 140.04,78.8 139.99,80.41C139.92,82.68 140.09,84.95 140.08,87.23C140.08,89.28 139.97,91.34 139.94,93.39C139.89,97.11 139.85,100.82 139.82,104.54L139.82,107.43L156.32,107.43L156.32,98.7L156.34,98.7Z" style="fill-rule:nonzero;"/>
        <path d="M93.93,56.63C93.81,54.97 93.72,53.3 93.55,51.64C93.41,50.17 93.77,49.82 95.29,49.92C98.31,50.12 101.14,50.97 103.86,52.26C105.77,53.17 107.46,57.02 105.79,59.63C104.7,61.34 103.3,62.44 101.62,63.06C99.72,63.76 97.67,64.51 95.54,63.76C94.58,63.42 94.09,62.66 94.03,61.65C93.92,59.98 93.84,58.31 93.75,56.64C93.81,56.64 93.87,56.64 93.93,56.63ZM95.73,51.8C95.84,52.39 95.94,52.77 95.99,53.16C96.31,55.72 96.6,58.28 96.97,60.82C97.02,61.13 97.57,61.65 97.79,61.6C99.1,61.33 100.48,61.12 101.65,60.52C104.3,59.17 104.85,56.05 102.67,54.56C100.65,53.18 98.37,52.22 95.74,51.79L95.73,51.8Z" style="fill-rule:nonzero;"/>
        <path d="M121.21,62.75C120.79,62.82 120.27,62.85 119.79,63C117.67,63.63 115.76,63.12 113.97,61.98C112.6,61.11 112.27,59.6 112.07,58.18C111.76,55.94 113.31,52.03 116.06,51.28C118.33,50.66 120.41,51.11 122.26,52.48C122.55,52.69 122.54,53.31 122.67,53.74C122.31,53.77 121.94,53.88 121.6,53.83C120.39,53.67 119.19,53.33 117.97,53.28C115.91,53.2 114.3,55.43 114.21,57.05C114.1,59 115.97,60.87 117.97,60.94C118.84,60.97 119.72,60.87 120.59,60.74C121.29,60.63 121.65,60.21 121.38,59.5C119.99,59.23 118.63,59.01 117.3,58.68C116.95,58.59 116.68,58.16 116.38,57.88C116.66,57.58 116.9,57.06 117.21,57.01C118.46,56.82 119.73,56.73 121,56.7C122.11,56.67 123.23,56.7 124.34,56.83C124.71,56.87 125.32,57.22 125.34,57.47C125.39,57.9 125.16,58.63 124.86,58.76C123.44,59.36 123.44,60.39 123.7,61.63C123.87,62.44 123.99,63.29 123.98,64.11C123.98,64.45 123.61,64.9 123.29,65.06C123.06,65.18 122.48,65.02 122.31,64.79C121.89,64.23 121.63,63.55 121.2,62.74L121.21,62.75Z" style="fill-rule:nonzero;"/>
        <path d="M136.22,57.81C136.37,59.06 136.52,60.15 136.63,61.24C136.71,62.06 137.01,63.02 135.8,63.26C134.77,63.47 133.34,62.57 133.33,61.6C133.28,58.05 133.33,54.5 133.41,50.96C133.41,50.57 133.94,50.19 134.22,49.81C134.58,50.23 135.15,50.61 135.26,51.08C135.54,52.32 135.63,53.6 135.75,54.87C135.82,55.6 136.03,56.04 136.91,56C137.9,55.95 138.9,56.03 139.89,56.12C140.87,56.21 141,55.7 140.96,54.89C140.89,53.59 140.88,52.28 140.93,50.97C140.94,50.64 141.23,50.09 141.45,50.06C141.76,50.02 142.16,50.33 142.45,50.57C142.61,50.7 142.67,51 142.7,51.23C143.28,55.07 143.87,58.91 144.41,62.76C144.51,63.49 144.56,64.35 143.59,64.66C142.65,64.97 141.28,63.95 141.25,62.95C141.21,61.76 141.13,60.57 141.13,59.38C141.13,58.56 140.83,58.29 139.99,58.27C138.81,58.24 137.63,58 136.21,57.82L136.22,57.81Z" style="fill-rule:nonzero;"/>
        <path d="M57.66,55.38C59.48,55.28 61.29,55.14 63.11,55.11C63.48,55.11 63.86,55.52 64.24,55.74C63.98,56.06 63.76,56.6 63.46,56.65C62.1,56.87 60.73,56.97 59.35,57.08C58.77,57.13 58.19,57.08 57.43,57.08C57.67,58.27 57.87,59.27 58.09,60.36C59.6,60.36 61.12,60.34 62.65,60.37C63.14,60.38 64.05,60.52 64.06,60.63C64.09,61.26 64,61.93 63.75,62.51C63.63,62.78 63.09,62.99 62.73,63.02C60.74,63.14 58.74,63.22 56.75,63.26C55.9,63.28 55.3,62.79 55.42,61.93C55.74,59.6 54.66,57.53 54.38,55.31C54.21,53.94 54.02,52.51 54.24,51.18C54.41,50.12 55.52,49.58 56.61,49.49C58.43,49.34 60.25,49.27 62.07,49.22C62.86,49.2 63.26,50.07 62.73,50.78C62.42,51.19 61.89,51.53 61.39,51.69C60.56,51.97 59.69,52.08 58.83,52.26C57.27,52.58 56.77,53.93 57.67,55.36L57.66,55.38Z" style="fill-rule:nonzero;"/>
        <path d="M88.55,38.94C88.41,35.9 88.27,32.85 88.11,29.81C88.09,29.46 87.82,29.07 87.92,28.79C88.14,28.14 88.42,27.08 88.84,26.99C90.76,26.58 92.76,26.26 94.67,27.06C97.35,28.18 99.24,31.66 99.19,34.63C99.15,36.89 98.72,38.92 97.18,40.62C95.11,42.91 92.49,43.46 89.61,42.83C89.19,42.74 88.82,41.77 88.69,41.16C88.53,40.45 88.65,39.68 88.65,38.94L88.55,38.94ZM90.64,41.52C91.8,42.03 92.93,41.34 93.99,40.97C94.8,40.68 95.54,39.92 96.07,39.2C97.54,37.2 97.19,34.97 96.49,32.8C95.3,29.12 93.62,28.01 89.51,28.19C89.89,32.61 90.26,37.02 90.65,41.52L90.64,41.52Z" style="fill-rule:nonzero;"/>
        <path d="M73.5,63.87C71.39,62.98 71.27,62.63 72.03,60.83C72.4,59.96 72.62,59.02 72.96,58.14C73.99,55.51 75.04,52.9 76.12,50.29C76.22,50.05 76.65,49.68 76.74,49.73C77.17,49.94 77.69,50.2 77.9,50.6C79,52.58 79.9,54.68 81.09,56.6C81.8,57.73 82.82,58.63 82.89,60.12C82.91,60.57 83.37,61.02 83.65,61.45C84.25,62.35 84.02,63.28 83.53,64.04C83.14,64.63 82.38,64.58 81.94,63.93C81.48,63.24 81.06,62.51 80.75,61.75C80.05,60.06 79.11,59.45 77.28,59.63C76.65,59.69 76.02,59.79 75.47,59.87C74.8,61.23 74.16,62.54 73.5,63.89L73.5,63.87ZM77.08,54.27C76.59,55.71 76.21,56.83 75.77,58.15C76.85,58.05 77.63,57.98 78.53,57.9C78.05,56.71 77.64,55.66 77.08,54.28L77.08,54.27Z" style="fill-rule:nonzero;"/>
        <path d="M161.3,57.22C161.66,58.75 161.14,59.23 160.02,59.23L156.16,59.23C156.38,60.22 156.53,61.08 156.8,61.91C156.85,62.08 157.33,62.19 157.6,62.19C159.15,62.16 160.7,62.04 162.24,62.07C162.63,62.07 163.02,62.54 163.41,62.79C163.16,63.18 162.97,63.82 162.65,63.9C161.65,64.12 160.6,64.13 159.57,64.21C158.9,64.26 158.22,64.23 157.56,64.36C156.02,64.66 155.34,64.41 154.84,62.97C154.49,61.96 154.25,60.88 154.15,59.81C153.92,57.41 153.79,55 153.64,52.59C153.58,51.59 154.12,50.99 155.08,50.87C157.09,50.62 159.11,50.38 161.13,50.23C162.13,50.15 163.34,51.37 163.22,52.32C163.18,52.62 162.66,53.07 162.35,53.08C160.92,53.14 159.49,53.08 158.06,53.06C157.39,53.05 156.72,53 155.83,52.96C155.97,54.33 156.03,55.57 156.3,56.77C156.36,57.02 157.2,57.2 157.7,57.22C158.89,57.28 160.09,57.24 161.31,57.24L161.3,57.22Z" style="fill-rule:nonzero;"/>
        <path d="M106.06,35.42L106.06,28.98C106.06,28.1 106.43,27.57 107.33,27.65C108.27,27.73 108.1,28.46 108.07,29.1C107.91,32.57 108.08,36.01 109.16,39.36C109.37,40.01 109.8,40.79 108.9,41.25C108.11,41.66 107.24,41.12 106.84,40.08C106.79,39.94 106.71,39.81 106.55,39.48C106.19,40 105.9,40.4 105.64,40.82C104.74,42.27 103.68,42.71 102.15,42.24C100.94,41.87 99.78,40.31 99.91,39.01C100.07,37.46 100.38,36.03 102.03,35.15C103.4,34.42 104.47,35.15 106.06,35.41L106.06,35.42ZM103.83,36.35C103.35,36.71 102.56,37 102.45,37.45C102.27,38.17 102.36,39.08 102.65,39.78C103,40.6 103.65,40.57 104.14,39.74C104.46,39.19 104.82,38.67 105.1,38.1C105.71,36.86 105.44,36.49 103.83,36.34L103.83,36.35Z" style="fill-rule:nonzero;"/>
        <path d="M118.49,34.3C117.2,34.59 116.65,35.23 116.63,36.2C116.62,37.27 116.75,38.34 116.83,39.41C116.88,40.1 116.99,40.95 116.09,41.03C115.26,41.11 114.93,40.44 114.89,39.61C114.79,37.86 114.61,36.12 114.49,34.37C114.44,33.59 114.62,33.08 115.6,33.54C115.87,33.67 116.36,33.54 116.65,33.38C118.26,32.43 119,32.62 119.79,34.07C120.74,33.88 121.61,33.6 122.48,33.57C124.06,33.53 124.94,34.24 125.29,35.79C125.56,36.99 125.74,38.22 125.85,39.45C125.88,39.81 125.57,40.21 125.42,40.59C125.1,40.37 124.61,40.21 124.49,39.91C124.18,39.16 124.02,38.35 123.83,37.55C123.74,37.17 123.7,36.76 123.68,36.37C123.62,35.51 123.42,34.67 122.36,34.79C121.36,34.91 120.9,35.72 120.84,36.67C120.79,37.46 120.91,38.26 120.87,39.06C120.84,39.66 120.87,40.58 120.01,40.44C119.56,40.37 118.98,39.57 118.89,39.03C118.64,37.52 118.62,35.98 118.49,34.31L118.49,34.3Z" style="fill-rule:nonzero;"/>
        <path d="M168.64,85.51C169.82,85.31 170.67,85.1 171.52,85.04C171.91,85.01 172.31,85.26 172.71,85.38C172.55,85.84 172.47,86.65 172.22,86.71C170.63,87.07 169,87.39 167.38,87.46C166.69,87.49 166.52,86.18 166.98,85.36C167.78,83.95 168.58,82.54 169.28,81.08C169.48,80.65 169.31,80.05 169.31,79.53C169.15,79.45 168.99,79.37 168.83,79.29C167.96,80.11 167.1,80.93 166.25,81.72C165.72,80 167.47,77.66 169.22,77.91C169.69,77.98 170.26,78.55 170.48,79.03C171.44,81.19 170.13,82.9 169.2,84.68C169.1,84.88 168.95,85.05 168.64,85.51Z" style="fill-rule:nonzero;"/>
        <path d="M111.42,34.14C111.63,34.55 111.94,34.94 112.03,35.38C112.33,36.93 112.59,38.5 112.79,40.07C112.83,40.41 112.55,40.79 112.42,41.15C112.07,40.97 111.46,40.85 111.41,40.6C111.09,39.11 110.84,37.59 110.68,36.07C110.61,35.44 110.8,34.78 110.86,34.13L111.43,34.13L111.42,34.14Z" style="fill-rule:nonzero;"/>
        <path d="M111.35,29.41C110.96,28.95 110.7,28.64 110.43,28.33C110.86,28.01 111.26,27.49 111.73,27.41C112.25,27.33 113.11,27.56 112.9,28.33C112.79,28.75 112,28.98 111.34,29.41L111.35,29.41Z" style="fill-rule:nonzero;"/>
        <path d="M129.9,80.18C129.36,80.77 129.08,81.16 128.72,81.43C128.48,81.61 127.94,81.8 127.82,81.69C127.58,81.46 127.33,80.91 127.45,80.7C128.12,79.49 128.86,78.31 129.66,77.18C129.82,76.96 130.5,76.82 130.69,76.96C131.17,77.34 131.74,77.86 131.86,78.41C132.11,79.55 132.06,80.75 132.18,81.92C132.24,82.54 132.46,83.16 132.51,83.78C132.54,84.21 132.38,84.65 132.3,85.09C131.92,85 131.5,84.97 131.16,84.8C129.85,84.13 130.15,82.81 129.99,81.69C129.93,81.29 129.94,80.89 129.9,80.19L129.9,80.18Z" style="fill-rule:nonzero;"/>
    </g>
</svg>
