<?xml version="1.0" encoding="iso-8859-1"?>
<!-- Generator: Adobe Illustrator 16.0.0, SVG Export Plug-In . SVG Version: 6.00 Build 0)  -->
<!DOCTYPE svg PUBLIC "-//W3C//DTD SVG 1.1//EN" "http://www.w3.org/Graphics/SVG/1.1/DTD/svg11.dtd">
<svg version="1.1" xmlns="http://www.w3.org/2000/svg" xmlns:xlink="http://www.w3.org/1999/xlink" x="0px" y="0px"
	 width="175.66px" height="232.814px" viewBox="0 0 175.66 232.814" style="enable-background:new 0 0 175.66 232.814;"
	 xml:space="preserve">
<g id="C">
	<g id="C_1_">
		<path style="fill:none;" d="M0-6.662c58.547,0,117.094,0,175.66,0c0,79.808,0,159.624,0,239.476c-58.541,0-117.101,0-175.66,0
			C0,153.002,0,73.173,0-6.662z M148.091,150.836c-0.069-0.654-0.147-1.089-0.157-1.525c-0.12-5.715-0.26-11.43-0.336-17.146
			c-0.104-7.839,0.203-15.666,0.712-23.489c0.188-2.885,0.47-3.16,3.34-2.709c1.181,0.186,2.377,0.349,3.568,0.371
			c1.198,0.022,2.272-0.381,2.984-1.624c-3.264-1.966-6.887-0.905-10.206-1.293c0-12.569,0-25.055,0-37.549
			c3.962-0.5,7.72-0.834,11.56-0.054c0.448-2.722,0.478-5.299-0.238-7.772c-1.552,0-2.947,0.008-4.343-0.001
			c-4.397-0.031-8.796-0.054-13.193-0.107c-5.276-0.063-10.553-0.235-15.829-0.214c-5.995,0.024-11.989,0.198-17.983,0.329
			c-7.753,0.169-15.504,0.429-23.257,0.522c-8.557,0.104-17.116,0.062-25.675,0.084c-0.24,0-0.48,0.005-0.72,0.001
			c-3.753-0.071-7.507-0.143-11.26-0.214c-4.556-0.086-9.111-0.221-13.667-0.242c-3.916-0.019-7.833,0.099-11.75,0.142
			c-0.577,0.006-1.155-0.066-1.741-0.102c0,0.671-0.003,1.227,0,1.782c0.008,1.279-0.04,2.562,0.044,3.835
			c0.114,1.736,0.545,2.142,2.279,2.183c1.197,0.028,2.397-0.111,3.594-0.085c0.866,0.019,1.736,0.147,2.59,0.303
			c0.616,0.112,0.872,0.516,0.875,1.203c0.007,2.118,0.154,4.236,0.147,6.353c-0.021,6.756-0.015,13.513-0.166,20.267
			c-0.071,3.189-0.484,6.371-0.722,9.557c-0.057,0.759-0.454,1.06-1.164,1.028c-0.278-0.012-0.558-0.048-0.83-0.107
			c-1.209-0.259-2.408-0.576-3.625-0.781c-1.068-0.18-2.052,0.396-2.24,1.188c-0.139,0.584,0.608,1.363,1.673,1.575
			c0.856,0.17,1.742,0.202,2.617,0.261c1.296,0.087,2.595,0.145,4.075,0.224c0,1.129,0.013,2.041-0.002,2.952
			c-0.044,2.716-0.191,5.434-0.132,8.147c0.113,5.114,0.42,10.225,0.499,15.339c0.062,4.035-0.075,8.074-0.172,12.109
			c-0.045,1.867-0.207,3.732-0.323,5.742c-1.104-0.057-2.089-0.109-3.076-0.156c-1.156-0.054-2.315-0.174-3.468-0.129
			c-1.099,0.043-2.084,0.42-2.594,1.818c0.71,0.207,1.333,0.523,1.965,0.547c1.635,0.059,3.275-0.055,4.912-0.014
			c0.931,0.023,1.857,0.217,2.766,0.332c0,1.755,0.041,3.271-0.007,4.784c-0.187,5.872-0.519,11.742-0.575,17.614
			c-0.063,6.636,0.113,13.272,0.174,19.909c0.004,0.5-0.083,1-0.126,1.489c-2.785,0.72-5.604-0.283-8.229,0.626
			c-0.006,1.035,0.41,2.468,0.928,2.594c0.555,0.135,1.203-0.111,1.81-0.194c0.078-0.012,0.152-0.049,0.23-0.066
			c1.48-0.323,2.947-0.724,4.487-0.285c0.581,0.165,0.889,0.413,0.925,1.047c0.147,2.593,0.348,5.184,0.489,7.777
			c0.125,2.305,0.197,4.612,0.292,6.923c2.064-0.286,2.635-0.91,2.595-2.853c-0.024-1.198-0.102-2.396-0.139-3.594
			c-0.1-3.15-0.006-6.291,0.478-9.477c0.295,0,0.527-0.002,0.759,0c2.394,0.015,4.789,0.076,7.182,0.032
			c2.837-0.051,5.671-0.212,8.508-0.28c0.686-0.017,1.376,0.145,2.026,0.22c0,5.267,0,10.326,0,15.427
			c0.628,0.191,1.262,0.385,1.943,0.592c0.614-2.68,0.593-5.312,0.518-7.946c-0.076-2.661-0.185-5.321-0.283-8.091
			c7.576,0,14.947,0,22.368,0c-0.082,4.133-0.166,8.115-0.236,12.097c-0.014,0.79-0.043,1.61,0.854,2.053
			c1.208-0.779,1.966-1.84,2.095-3.229c0.118-1.264,0.131-2.545,0.083-3.814c-0.092-2.423-0.382-4.847,0.234-7.384
			c7.245,0.809,14.467-0.567,21.764,0.314c-0.034,0.628-0.068,1.177-0.092,1.727c-0.129,3.03-0.337,6.06-0.34,9.09
			c-0.001,1.134,0.191,2.188-0.821,2.998c-0.095,0.076-0.088,0.278-0.121,0.397c1.742,1.454,1.895,1.48,3.535,0.599
			c0.157-4.973-0.932-10.027,0.629-15.051c6.545,0,13.123,0,19.694,0c0.175,1.338,0.35,2.594,0.503,3.853
			c0.274,2.264,0.535,4.524-0.141,6.776c-0.17,0.566-0.233,1.182-0.235,1.775c-0.004,1.203,0.449,1.746,1.842,2.189
			c0.25-0.952,0.682-1.893,0.71-2.845c0.066-2.229-0.038-4.463-0.118-6.693c-0.062-1.697-0.343-3.403,0.249-4.903
			c6.364,0,12.585,0,18.853,0c0.463,5.036,0.928,9.881,0.122,14.822c0.367,0.282,0.741,0.658,1.188,0.897
			c0.769,0.41,1.21,0.178,1.32-0.672c0.118-0.909,0.257-1.829,0.229-2.739c-0.053-1.756-0.185-3.511-0.342-5.262
			c-0.208-2.324-0.051-4.611,0.491-6.907c3.258,0,6.462,0,9.721,0c-0.066-0.595-0.113-1.151-0.193-1.703
			c-0.188-1.295-0.387-1.533-1.721-1.728c-1.024-0.15-2.064-0.19-3.099-0.269c-1.424-0.107-2.85-0.204-4.374-0.312
			c-0.263-14.55-0.156-28.948,0.487-43.386c0.666,0,1.146-0.039,1.619,0.008c1.071,0.105,2.14,0.242,3.207,0.387
			c1.125,0.151,2.108-0.061,2.871-0.943c-1.057-1.929-1.167-1.984-3.287-1.717c-0.118,0.016-0.235,0.051-0.354,0.062
			C151.135,150.578,149.669,150.702,148.091,150.836z M81.27,23.277c0.036,5.509,4.438,9.366,9.924,8.857
			c1.557-0.144,2.801-0.542,3.849-1.73c1.079-1.225,2.312-2.313,3.429-3.506c0.529-0.566,0.809-1.274,0.654-2.096
			c-0.22-1.161-0.936-1.58-1.988-1.037c-0.666,0.343-1.229,0.884-1.874,1.273c-1.289,0.778-2.53,1.71-3.923,2.221
			c-2.307,0.846-4.556-0.483-5.214-2.846c-0.513-1.842-0.185-3.576,0.857-5.145c1.604-2.414,3.929-2.748,6.23-0.999
			c0.498,0.378,1.064,0.728,1.656,0.91c0.848,0.26,1.562-0.173,1.537-0.976c-0.039-1.226-0.258-2.448-0.449-3.665
			c-0.026-0.174-0.295-0.353-0.49-0.453c-2.17-1.102-4.439-1.547-6.834-0.899C84.349,14.348,81.239,18.625,81.27,23.277z
			 M75.58,53.938c1.03-0.122,2.117-0.164,3.163-0.39c2.698-0.583,5.204-1.569,6.96-3.863c1.076-1.404,1.483-3.085,0.736-4.62
			c-0.678-1.391-1.747-2.715-2.944-3.704c-2.352-1.942-5.253-2.803-8.22-3.349c-1.215-0.224-2.55,0.637-2.987,1.913
			c-0.24,0.702-0.386,1.485-0.355,2.222c0.066,1.551,0.268,3.096,0.432,4.642c0.193,1.821,0.543,3.64-0.255,5.422
			c-0.239,0.534,0.182,1.266,0.815,1.39C73.782,53.768,74.66,53.826,75.58,53.938z M105.582,43.26
			c0.834-1.221,0.291-1.968-0.378-2.733c-1.388-1.588-3.149-2.245-5.163-1.811c-2.075,0.448-4.228,0.935-5.207,3.23
			c-0.074,0.173-0.229,0.328-0.381,0.45c-0.824,0.667-1.051,1.582-1.037,2.568c0.041,2.728,1.252,4.934,3.238,6.694
			c2.594,2.295,5.468,3.064,8.684,1.237c0.114-0.065,0.284-0.033,0.418-0.044c0.115,0.82,0.222,1.58,0.338,2.404
			c0.787-0.136,1.383-0.196,1.954-0.349c0.515-0.138,0.754-0.458,0.649-1.079c-0.211-1.253-0.253-2.535-0.488-3.783
			c-0.232-1.24-0.566-2.469-0.969-3.665c-0.107-0.319-0.619-0.697-0.96-0.711c-2.356-0.099-4.666,0.26-7.104,0.828
			c0.287,0.811,0.531,1.501,0.805,2.273c0.833-0.115,1.619-0.207,2.399-0.335c0.774-0.127,1.557-0.393,2.231,0.25
			c-0.594,1.912-2.072,2.79-4.533,2.732c-2.43-0.057-2.984-0.465-3.547-2.624c-0.09-0.347-0.203-0.698-0.229-1.052
			c-0.162-2.234-0.267-4.452,2.199-5.677c0.168-0.084,0.278-0.282,0.42-0.422c1.021-1.006,2.309-1.182,3.475-0.44
			c0.437,0.277,0.807,0.659,1.242,0.937C104.268,42.54,104.928,42.887,105.582,43.26z M25.646,52.917
			c0.707,0.037,1.294,0.115,1.877,0.09c2.116-0.087,4.229-0.227,6.345-0.311c1.287-0.051,1.521-0.225,1.635-1.502
			c0.034-0.383,0.005-0.771,0.005-1.131c-2.541-0.759-5.048-0.089-7.714-0.068c-0.164-1.21-0.32-2.358-0.48-3.539
			c1.103-0.117,2.017-0.18,2.916-0.329c0.297-0.049,0.747-0.275,0.803-0.5c0.444-1.783,0.293-2.663-1.626-2.602
			c-0.357,0.011-0.71,0.11-1.067,0.13c-0.422,0.024-0.847,0.005-1.328,0.005c-0.112-0.783-0.212-1.48-0.319-2.226
			c2.253-0.852,4.583-0.265,6.84-0.347c0.287-0.593,0.532-1.094,0.771-1.6c0.051-0.107,0.084-0.226,0.111-0.342
			c0.229-0.99-0.386-1.923-1.191-1.866c-1.35,0.095-2.703,0.139-4.053,0.222c-1.111,0.068-2.247,0.037-3.323,0.273
			c-1.459,0.321-1.668,0.58-1.538,2.085C24.699,43.85,25.186,48.331,25.646,52.917z M46.94,53.85
			c0.398-2.306,1.83-3.504,3.978-3.797c1.614-0.22,3.256-0.238,4.861-0.345c0.615,1.38,1.208,2.64,1.736,3.926
			c0.25,0.61,0.673,0.728,1.237,0.657c1.383-0.173,1.953-1.488,1.122-2.595c-0.589-0.786-1.322-1.494-0.862-2.657
			c0.101-0.254-0.127-0.698-0.304-0.995c-0.938-1.578-1.903-3.142-2.87-4.703c-0.944-1.524-1.991-2.991-2.364-4.803
			c-0.135-0.657-0.613-0.797-0.966-0.239c-0.699,1.102-1.405,2.239-1.845,3.457c-0.889,2.46-1.964,4.791-3.556,6.883
			c-0.551,0.724-1.009,1.545-1.367,2.383C45.197,52.293,45.556,53.11,46.94,53.85z M128.138,54.307
			c0.209-0.099,0.38-0.191,0.559-0.262c1.325-0.528,1.366-0.654,0.836-2.008c-0.127-0.322-0.17-0.694-0.173-1.044
			c-0.014-1.479,0.006-2.957,0.008-4.436c0.002-1.475,0.088-2.958-0.03-4.424c-0.131-1.638-1.018-2.855-2.759-3.838
			c0,2.343,0,4.431,0,6.523c-2.076,0.317-3.917,0.58-5.891-0.035c0-1.897,0-3.794,0-5.768c-1.049,0.017-1.692-1.094-2.803-0.628
			c0.64,4.9,0.144,9.838,1.028,14.722c0.644,0,1.183,0,1.955,0c0-1.766,0-3.458,0-5.356c2.156-0.231,4.104-0.439,6.284-0.673
			c-0.12,1.519-0.197,2.822-0.332,4.119C126.686,52.491,127.012,53.552,128.138,54.307z M143.719,41.802
			c0.601,0,1.112-0.001,1.623,0c1.756,0.003,3.514-0.022,5.269,0.022c0.902,0.023,1.249-0.446,1.222-1.227
			c-0.018-0.541-0.101-1.131-0.353-1.592c-0.152-0.279-0.756-0.574-1.031-0.482c-1.842,0.616-3.716,0.37-5.586,0.363
			c-1.174-0.004-2.379-0.113-3.532,0.552c0.93,4.749,0.125,9.659,1.543,14.384c1.006,0,1.921-0.023,2.835,0.006
			c1.195,0.038,2.394,0.207,3.583,0.153c1.352-0.061,2.685-0.331,3.64-1.575c-0.73-0.715-1.579-1.011-2.515-0.985
			c-1.635,0.044-3.266,0.163-4.899,0.23c-1.191,0.049-1.472-0.223-1.537-1.411c-0.055-1.003,0.413-1.567,1.578-1.707
			c1.133-0.135,2.28-0.158,3.558-0.24c-0.207-0.994-0.397-1.905-0.592-2.835c-1.511,0.08-2.966,0.157-4.385,0.232
			C143.994,44.356,143.868,43.184,143.719,41.802z"/>
		<path style="fill-rule:evenodd;clip-rule:evenodd;" d="M148.091,150.836c1.578-0.134,3.044-0.258,4.509-0.384
			c0.118-0.011,0.235-0.046,0.354-0.062c2.12-0.268,2.23-0.212,3.287,1.717c-0.763,0.883-1.746,1.095-2.871,0.943
			c-1.067-0.145-2.136-0.281-3.207-0.387c-0.473-0.047-0.953-0.008-1.619-0.008c-0.644,14.438-0.75,28.836-0.487,43.386
			c1.524,0.108,2.95,0.205,4.374,0.312c1.034,0.078,2.074,0.118,3.099,0.269c1.334,0.194,1.532,0.433,1.721,1.728
			c0.08,0.552,0.127,1.108,0.193,1.703c-3.259,0-6.463,0-9.721,0c-0.542,2.296-0.699,4.583-0.491,6.907
			c0.157,1.751,0.289,3.506,0.342,5.262c0.027,0.91-0.111,1.83-0.229,2.739c-0.11,0.85-0.552,1.082-1.32,0.672
			c-0.447-0.239-0.821-0.615-1.188-0.897c0.806-4.941,0.341-9.786-0.122-14.822c-6.268,0-12.488,0-18.853,0
			c-0.592,1.5-0.311,3.206-0.249,4.903c0.08,2.23,0.185,4.465,0.118,6.693c-0.028,0.952-0.46,1.893-0.71,2.845
			c-1.393-0.443-1.846-0.986-1.842-2.189c0.002-0.594,0.065-1.209,0.235-1.775c0.676-2.252,0.415-4.513,0.141-6.776
			c-0.153-1.259-0.328-2.515-0.503-3.853c-6.571,0-13.149,0-19.694,0c-1.561,5.023-0.472,10.078-0.629,15.051
			c-1.641,0.882-1.793,0.855-3.535-0.599c0.033-0.119,0.026-0.321,0.121-0.397c1.013-0.811,0.82-1.864,0.821-2.998
			c0.003-3.03,0.211-6.06,0.34-9.09c0.023-0.55,0.058-1.099,0.092-1.727c-7.297-0.882-14.52,0.494-21.764-0.314
			c-0.616,2.537-0.326,4.961-0.234,7.384c0.048,1.27,0.035,2.551-0.083,3.814c-0.129,1.389-0.887,2.449-2.095,3.229
			c-0.896-0.442-0.867-1.263-0.854-2.053c0.07-3.981,0.154-7.964,0.236-12.097c-7.421,0-14.792,0-22.368,0
			c0.099,2.77,0.207,5.43,0.283,8.091c0.076,2.634,0.096,5.267-0.518,7.946c-0.681-0.207-1.314-0.4-1.943-0.592
			c0-5.101,0-10.16,0-15.427c-0.65-0.075-1.34-0.236-2.026-0.22c-2.837,0.068-5.671,0.229-8.508,0.28
			c-2.393,0.044-4.788-0.018-7.182-0.032c-0.232-0.002-0.464,0-0.759,0c-0.484,3.186-0.577,6.326-0.478,9.477
			c0.038,1.198,0.115,2.396,0.139,3.594c0.04,1.942-0.531,2.566-2.595,2.853c-0.095-2.311-0.167-4.618-0.292-6.923
			c-0.141-2.594-0.342-5.185-0.489-7.777c-0.036-0.634-0.344-0.882-0.925-1.047c-1.541-0.438-3.007-0.038-4.487,0.285
			c-0.078,0.018-0.152,0.055-0.23,0.066c-0.607,0.083-1.255,0.329-1.81,0.194c-0.518-0.126-0.934-1.559-0.928-2.594
			c2.625-0.909,5.445,0.094,8.229-0.626c0.044-0.489,0.131-0.989,0.126-1.489c-0.061-6.637-0.237-13.273-0.174-19.909
			c0.057-5.872,0.389-11.742,0.575-17.614c0.048-1.514,0.007-3.029,0.007-4.784c-0.909-0.115-1.835-0.309-2.766-0.332
			c-1.636-0.041-3.277,0.072-4.912,0.014c-0.632-0.023-1.255-0.34-1.965-0.547c0.51-1.398,1.495-1.775,2.594-1.818
			c1.153-0.045,2.312,0.075,3.468,0.129c0.986,0.047,1.972,0.1,3.076,0.156c0.117-2.01,0.278-3.875,0.323-5.742
			c0.097-4.035,0.234-8.074,0.172-12.109c-0.078-5.114-0.386-10.225-0.499-15.339c-0.06-2.713,0.087-5.432,0.132-8.147
			c0.015-0.912,0.002-1.823,0.002-2.952c-1.48-0.08-2.779-0.137-4.075-0.224c-0.875-0.059-1.761-0.091-2.617-0.261
			c-1.065-0.211-1.812-0.99-1.673-1.575c0.188-0.792,1.172-1.369,2.24-1.188c1.217,0.205,2.416,0.522,3.625,0.781
			c0.272,0.059,0.552,0.095,0.83,0.107c0.71,0.031,1.107-0.269,1.164-1.028c0.238-3.187,0.65-6.368,0.722-9.557
			c0.15-6.753,0.145-13.511,0.166-20.267c0.007-2.117-0.14-4.235-0.147-6.353c-0.002-0.687-0.259-1.09-0.875-1.203
			c-0.854-0.156-1.725-0.284-2.59-0.303c-1.197-0.026-2.397,0.113-3.594,0.085c-1.734-0.041-2.166-0.447-2.279-2.183
			c-0.083-1.274-0.036-2.557-0.044-3.835c-0.003-0.555,0-1.11,0-1.782c0.586,0.036,1.164,0.108,1.741,0.102
			c3.917-0.043,7.834-0.161,11.75-0.142c4.556,0.021,9.112,0.156,13.667,0.242c3.753,0.071,7.507,0.144,11.26,0.214
			c0.24,0.004,0.479,0,0.72-0.001c8.559-0.022,17.118,0.019,25.675-0.084c7.753-0.093,15.504-0.354,23.257-0.522
			c5.994-0.13,11.988-0.305,17.983-0.329c5.276-0.021,10.553,0.15,15.829,0.214c4.397,0.053,8.796,0.076,13.193,0.107
			c1.396,0.01,2.791,0.001,4.343,0.001c0.716,2.474,0.687,5.051,0.238,7.772c-3.84-0.78-7.598-0.445-11.56,0.054
			c0,12.494,0,24.98,0,37.549c3.319,0.388,6.942-0.673,10.206,1.293c-0.712,1.243-1.786,1.646-2.984,1.624
			c-1.191-0.022-2.388-0.186-3.568-0.371c-2.87-0.451-3.152-0.176-3.34,2.709c-0.509,7.823-0.815,15.65-0.712,23.489
			c0.076,5.716,0.216,11.431,0.336,17.146C147.943,149.747,148.021,150.182,148.091,150.836z M78.557,154.555
			c0,0.457-0.008,0.848,0.001,1.239c0.082,3.714,0.211,7.428,0.241,11.143c0.075,9.351,0.103,18.7,0.158,28.05
			c0.003,0.663,0.07,1.325,0.114,2.083c7.232,0,14.32,0,21.527,0c0.057-0.917,0.161-1.905,0.168-2.895
			c0.041-5.63,0.072-11.261,0.081-16.891c0.012-7.429-0.007-14.858,0.009-22.288c0.002-0.875-0.424-1.122-1.188-1.077
			c-0.957,0.057-1.913,0.137-2.871,0.159c-5.752,0.136-11.503,0.257-17.255,0.388C79.231,154.473,78.921,154.521,78.557,154.555z
			 M123.989,153.723c-6.896,0.104-13.706,0.207-20.646,0.312c-0.048,1.139-0.114,2.085-0.121,3.032
			c-0.065,9.111-0.107,18.224-0.187,27.334c-0.021,2.476-0.178,4.95-0.213,7.426c-0.025,1.782,0.048,3.565,0.076,5.273
			c6.973,0,13.732,0,20.533,0C124.441,182.544,124.52,168.188,123.989,153.723z M123.7,151.088c-0.12-3.888-0.22-7.557-0.348-11.223
			c-0.23-6.586-0.519-13.168-0.7-19.754c-0.099-3.553-0.008-7.11-0.042-10.665c-0.011-1.098-0.154-2.195-0.242-3.361
			c-6.714,0.112-13.278,0.222-19.906,0.333c0.664,15.105,0.339,30.08,1.112,45.189C110.331,151.434,116.949,151.263,123.7,151.088z
			 M145.012,150.787c0.074-2.193,0.177-4.22,0.205-6.248c0.063-4.515,0.188-9.032,0.107-13.546
			c-0.135-7.592-0.412-15.181-0.624-22.771c-0.02-0.668-0.003-1.338-0.003-2.111c-6.654,0.129-13.227-0.7-19.706,0.238
			c-1.109,14.989,0.481,29.788,0.983,44.68C132.39,151.651,138.623,150.462,145.012,150.787z M78.026,123.865
			c0.336,0.034,0.607,0.055,0.875,0.089c3.421,0.436,5.872,2.13,7.061,5.455c0.689,1.929,0.836,3.907,0.398,5.896
			c-0.838,3.813-2.804,6.669-6.817,7.681c-0.407,0.103-0.823,0.164-1.202,0.238c0.097,2.723,0.19,5.332,0.288,8.088
			c7.52-0.267,14.805,0.315,22.282-0.068c-0.275-14.855-0.549-29.574-0.826-44.498c-7.477,0.131-14.757,0.26-22.068,0.388
			C77.771,112.81,77.593,118.309,78.026,123.865z M99.647,66.106c-1.869-0.104-3.421-0.256-4.974-0.266
			c-5.115-0.031-10.232-0.008-15.349-0.013c-1.637-0.002-1.614-0.013-1.58,1.574c0.093,4.315,0.241,8.631,0.229,12.946
			c-0.022,7.794-0.146,15.588-0.223,23.382c-0.003,0.301,0.035,0.602,0.053,0.888c4.656,0.42,20.289,0.138,21.953-0.476
			c0.18-4.48,0.433-9.064,0.513-13.651c0.034-1.94-0.294-3.887-0.463-5.83c-0.093-1.071-0.28-2.141-0.279-3.211
			c0.005-3.677,0.079-7.354,0.116-11.032C99.66,69.029,99.647,67.64,99.647,66.106z M74.999,104.729
			c0.49-12.955,1.075-25.741,0.502-38.741c-7.298,0.153-14.494,0.303-21.771,0.456c0,2.469,0.071,4.787-0.015,7.099
			c-0.174,4.668-0.581,9.333-0.615,14c-0.034,4.628,0.277,9.258,0.423,13.888c0.031,0.986,0.005,1.975,0.005,3.012
			C60.7,105.192,67.768,104.208,74.999,104.729z M50.707,151.363c1.089-14.74,0.133-29.437,0.075-43.992
			c-2.266,0-4.337,0.035-6.407-0.008c-3.156-0.065-6.31-0.217-9.466-0.264c-1.14-0.017-2.282,0.164-3.518,0.263
			c0,0.525,0,0.917,0,1.309c0,2.599-0.062,5.2,0.017,7.796c0.084,2.751,0.283,5.498,0.472,8.245c0.187,2.708,0.51,5.407,0.068,8.126
			c-0.112,0.694,0,1.431,0.054,2.145c0.133,1.783,0.418,3.564,0.413,5.347c-0.008,3.035-0.196,6.069-0.298,9.104
			c-0.022,0.662-0.003,1.326-0.003,1.93C38.428,151.363,44.53,151.363,50.707,151.363z M125.898,153.895
			c0.776,14.447,0.095,28.715-0.51,42.875c2.77,0,5.398,0.001,8.027,0c2.078-0.001,4.16,0.08,6.231-0.029
			c1.769-0.093,3.525-0.404,5.103-0.596c0.132-2.505,0.14-4.741,0.389-6.95c0.528-4.692,0.866-9.386,0.724-14.109
			c-0.211-6.949-0.409-13.897-0.615-20.847c-0.011-0.341-0.052-0.681-0.093-1.193C138.753,153.328,132.456,153.605,125.898,153.895z
			 M53.776,197.312c3.761-0.189,7.347-0.44,10.936-0.53c3.582-0.091,7.167-0.021,10.873-0.021c1.456-14.055,1.171-28.25,0.498-42.52
			c-7.42,0.506-14.709-0.049-21.883,0.211c0,2.815,0,5.4,0,8.005c0.619,0.125,1.086,0.206,1.547,0.313
			c6.766,1.586,10.53,9.59,5.14,15.623c-1.7,1.902-3.843,3.075-6.521,3.76C54.167,187.234,53.97,192.325,53.776,197.312z
			 M75.336,123.347c-0.181-5.438-0.358-10.771-0.533-15.998c-7.227,0-14.237,0-21.26,0c-0.743,14.761,0.344,29.312,0.498,43.854
			c2.598,0.443,20.007,0.342,22.085-0.135c-0.103-2.445-0.205-4.914-0.312-7.381c-0.01-0.234-0.043-0.468-0.063-0.68
			c-5.242-1.607-7.726-4.631-7.735-9.748C68.009,129.332,69.599,124.779,75.336,123.347z M51.166,66.511
			c-0.499-0.077-0.69-0.13-0.882-0.133c-5.797-0.085-11.594-0.157-17.391-0.256c-0.767-0.013-0.976,0.368-0.98,1.022
			c-0.045,6.076-0.203,12.154-0.105,18.228c0.082,5.081,0.144,10.151-0.304,15.216c-0.104,1.177-0.21,2.354-0.321,3.588
			c6.662,0.725,13.189,0.399,19.652,0.014C50.944,91.595,51.055,79.097,51.166,66.511z M32.686,153.722
			c-0.179,0.765-0.48,1.485-0.497,2.215c-0.104,4.434-0.332,8.876-0.163,13.302c0.305,7.988,0.785,15.97,0.608,23.97
			c-0.032,1.421-0.004,2.844-0.004,4.349c6.198,0.319,12.4,0.014,18.79-0.285c0-5.219,0-10.313,0-15.459
			c-1.942-0.311-3.596-1.227-4.822-2.803c-2.375-3.051-3.142-6.514-2.31-10.27c0.743-3.355,2.767-5.503,6.266-6.075
			c0.227-0.038,0.443-0.136,0.719-0.223c0-2.737,0-5.44,0-8.233C45.083,153.955,38.932,154.51,32.686,153.722z M122.591,65.936
			c-6.803,0-13.527,0-20.382,0c0.171,12.77-0.381,25.493,0.53,38.21c6.644,0,13.131,0,19.765,0c0-1.938,0-3.761,0-5.657
			c-0.179-0.066-0.43-0.181-0.693-0.253c-2.823-0.767-4.738-2.579-5.859-5.222c-0.448-1.055-0.646-2.213-1.03-3.297
			c-0.647-1.824-0.031-3.353,1.004-4.809c0.946-1.332,2.155-2.366,3.649-3.016c1.046-0.456,2.145-0.793,3.296-1.21
			C122.819,75.791,123.534,70.854,122.591,65.936z M125.398,80.09c1.301,0.448,2.554,0.746,3.685,1.293
			c4.992,2.415,6.358,8.398,2.949,12.737c-1.075,1.368-2.385,2.477-3.961,3.229c-0.962,0.459-1.962,0.837-3.02,1.282
			c-0.092,1.705-0.185,3.441-0.275,5.12c6.743,0,13.304,0,19.95,0c0.751-12.72,0.587-25.248,0.283-37.966
			c-6.416,0-12.704,0-19.083,0C125.203,70.484,125.702,75.285,125.398,80.09z"/>
		<path style="fill-rule:evenodd;clip-rule:evenodd;" d="M81.27,21.277c-0.03-4.652,3.08-8.93,7.363-10.089
			c2.395-0.648,4.664-0.203,6.834,0.899c0.195,0.1,0.464,0.278,0.49,0.453c0.191,1.217,0.41,2.439,0.449,3.665
			c0.025,0.803-0.689,1.236-1.537,0.976c-0.592-0.182-1.158-0.531-1.656-0.91c-2.301-1.75-4.626-1.415-6.23,0.999
			c-1.042,1.568-1.37,3.303-0.857,5.145c0.658,2.362,2.907,3.691,5.214,2.846c1.393-0.511,2.634-1.443,3.923-2.221
			c0.646-0.39,1.208-0.93,1.874-1.273c1.053-0.542,1.769-0.124,1.988,1.037c0.154,0.822-0.125,1.529-0.654,2.096
			c-1.117,1.193-2.35,2.282-3.429,3.506c-1.048,1.188-2.292,1.586-3.849,1.73C85.708,30.644,81.305,26.787,81.27,21.277z"/>
		<path style="fill-rule:evenodd;clip-rule:evenodd;" d="M75.58,53.938c-0.92-0.111-1.798-0.17-2.655-0.337
			c-0.634-0.124-1.055-0.855-0.815-1.39c0.798-1.782,0.448-3.601,0.255-5.422c-0.164-1.545-0.365-3.091-0.432-4.642
			c-0.031-0.737,0.115-1.52,0.355-2.222c0.437-1.275,1.772-2.136,2.987-1.913c2.967,0.546,5.868,1.407,8.22,3.349
			c1.198,0.989,2.266,2.312,2.944,3.704c0.747,1.534,0.34,3.216-0.736,4.62c-1.756,2.293-4.262,3.28-6.96,3.863
			C77.697,53.773,76.61,53.816,75.58,53.938z M75.568,51.274c2.019-0.208,3.981-0.957,6.096-2.291
			c1.825-1.151,2.234-3.243,0.809-4.876c-0.633-0.726-1.505-1.322-2.381-1.74c-1.729-0.822-3.575-1.209-5.561-0.934
			C74.851,44.783,74.144,48.109,75.568,51.274z"/>
		<path style="fill-rule:evenodd;clip-rule:evenodd;" d="M105.582,43.26c-0.654-0.373-1.314-0.72-1.943-1.12
			c-0.436-0.277-0.806-0.659-1.242-0.937c-1.166-0.742-2.453-0.566-3.475,0.44c-0.142,0.14-0.252,0.338-0.42,0.422
			c-2.466,1.225-2.361,3.443-2.199,5.677c0.025,0.354,0.139,0.705,0.229,1.052c0.562,2.158,1.117,2.566,3.547,2.624
			c2.461,0.058,3.939-0.821,4.533-2.732c-0.675-0.644-1.457-0.378-2.231-0.25c-0.78,0.128-1.566,0.221-2.399,0.335
			c-0.273-0.772-0.518-1.462-0.805-2.273c2.438-0.568,4.748-0.927,7.104-0.828c0.341,0.014,0.853,0.392,0.96,0.711
			c0.402,1.196,0.736,2.425,0.969,3.665c0.235,1.248,0.277,2.53,0.488,3.783c0.104,0.621-0.135,0.941-0.649,1.079
			c-0.571,0.153-1.167,0.213-1.954,0.349c-0.116-0.825-0.223-1.584-0.338-2.404c-0.134,0.012-0.304-0.021-0.418,0.044
			c-3.216,1.827-6.09,1.059-8.684-1.237c-1.986-1.76-3.197-3.966-3.238-6.694c-0.014-0.987,0.213-1.902,1.037-2.568
			c0.151-0.122,0.307-0.277,0.381-0.45c0.979-2.296,3.132-2.783,5.207-3.23c2.014-0.435,3.775,0.222,5.163,1.811
			C105.873,41.292,106.416,42.039,105.582,43.26z"/>
		<path style="fill-rule:evenodd;clip-rule:evenodd;" d="M25.646,52.917c-0.459-4.586-0.946-9.067-1.335-13.556
			c-0.13-1.506,0.078-1.765,1.538-2.085c1.076-0.237,2.212-0.206,3.323-0.273c1.351-0.083,2.704-0.127,4.053-0.222
			c0.805-0.057,1.419,0.876,1.191,1.866c-0.027,0.116-0.06,0.234-0.111,0.342c-0.238,0.505-0.484,1.007-0.771,1.6
			c-2.257,0.082-4.587-0.505-6.84,0.347c0.107,0.746,0.207,1.443,0.319,2.226c0.481,0,0.906,0.019,1.328-0.005
			c0.357-0.02,0.71-0.119,1.067-0.13c1.919-0.061,2.07,0.819,1.626,2.602c-0.056,0.225-0.506,0.451-0.803,0.5
			c-0.899,0.149-1.813,0.212-2.916,0.329c0.16,1.181,0.316,2.329,0.48,3.539c2.666-0.021,5.173-0.691,7.714,0.068
			c0,0.359,0.029,0.748-0.005,1.131c-0.113,1.277-0.348,1.451-1.635,1.502c-2.116,0.084-4.229,0.224-6.345,0.311
			C26.939,53.032,26.352,52.954,25.646,52.917z"/>
		<path style="fill-rule:evenodd;clip-rule:evenodd;" d="M46.94,53.85c-1.384-0.74-1.743-1.557-1.199-2.827
			c0.358-0.837,0.816-1.659,1.367-2.383c1.592-2.092,2.667-4.423,3.556-6.883c0.44-1.218,1.146-2.355,1.845-3.457
			c0.354-0.558,0.832-0.417,0.966,0.239c0.373,1.812,1.419,3.278,2.364,4.803c0.967,1.561,1.931,3.125,2.87,4.703
			c0.176,0.297,0.404,0.74,0.304,0.995c-0.46,1.164,0.273,1.872,0.862,2.657c0.831,1.107,0.261,2.422-1.122,2.595
			c-0.564,0.071-0.987-0.047-1.237-0.657c-0.529-1.286-1.121-2.546-1.736-3.926c-1.605,0.106-3.247,0.125-4.861,0.345
			C48.77,50.345,47.338,51.543,46.94,53.85z M52.674,43.924c-0.927,1.217-1.732,2.385-1.945,4.026
			c1.367-0.146,2.561-0.274,3.827-0.41C54.315,46.053,54.082,44.784,52.674,43.924z"/>
		<path style="fill-rule:evenodd;clip-rule:evenodd;" d="M128.138,54.307c-1.126-0.754-1.452-1.816-1.317-3.108
			c0.135-1.297,0.212-2.601,0.332-4.119c-2.18,0.233-4.128,0.442-6.284,0.673c0,1.898,0,3.59,0,5.356c-0.772,0-1.312,0-1.955,0
			c-0.885-4.884-0.389-9.822-1.028-14.722c1.11-0.465,1.754,0.646,2.803,0.628c0,1.973,0,3.871,0,5.768
			c1.974,0.615,3.814,0.352,5.891,0.035c0-2.092,0-4.18,0-6.523c1.741,0.983,2.628,2.2,2.759,3.838
			c0.118,1.466,0.032,2.949,0.03,4.424c-0.002,1.479-0.021,2.957-0.008,4.436c0.003,0.35,0.046,0.722,0.173,1.044
			c0.53,1.354,0.489,1.48-0.836,2.008C128.518,54.116,128.347,54.208,128.138,54.307z"/>
		<path style="fill-rule:evenodd;clip-rule:evenodd;" d="M143.719,41.802c0.149,1.382,0.275,2.555,0.42,3.89
			c1.419-0.075,2.874-0.152,4.385-0.232c0.194,0.931,0.385,1.841,0.592,2.835c-1.277,0.082-2.425,0.104-3.558,0.24
			c-1.165,0.139-1.633,0.704-1.578,1.707c0.065,1.188,0.346,1.46,1.537,1.411c1.634-0.068,3.265-0.187,4.899-0.23
			c0.936-0.025,1.784,0.27,2.515,0.985c-0.955,1.244-2.288,1.514-3.64,1.575c-1.189,0.054-2.388-0.116-3.583-0.153
			c-0.914-0.029-1.829-0.006-2.835-0.006c-1.418-4.725-0.613-9.635-1.543-14.384c1.153-0.665,2.358-0.556,3.532-0.552
			c1.87,0.006,3.744,0.252,5.586-0.363c0.275-0.092,0.879,0.203,1.031,0.482c0.252,0.46,0.335,1.051,0.353,1.592
			c0.027,0.781-0.319,1.25-1.222,1.227c-1.755-0.045-3.513-0.019-5.269-0.022C144.831,41.801,144.319,41.802,143.719,41.802z"/>
		<path style="fill-rule:evenodd;clip-rule:evenodd;fill:none;" d="M78.557,154.555c0.365-0.033,0.674-0.082,0.985-0.089
			c5.751-0.131,11.503-0.252,17.255-0.388c0.958-0.022,1.914-0.103,2.871-0.159c0.764-0.045,1.189,0.202,1.188,1.077
			c-0.016,7.43,0.003,14.859-0.009,22.288c-0.009,5.63-0.04,11.261-0.081,16.891c-0.007,0.989-0.111,1.978-0.168,2.895
			c-7.207,0-14.294,0-21.527,0c-0.043-0.758-0.11-1.42-0.114-2.083c-0.055-9.35-0.083-18.699-0.158-28.05
			c-0.03-3.715-0.159-7.429-0.241-11.143C78.549,155.402,78.557,155.012,78.557,154.555z"/>
		<path style="fill-rule:evenodd;clip-rule:evenodd;fill:none;" d="M123.989,153.723c0.53,14.466,0.452,28.821-0.558,43.378
			c-6.801,0-13.561,0-20.533,0c-0.028-1.708-0.102-3.491-0.076-5.273c0.035-2.476,0.191-4.95,0.213-7.426
			c0.079-9.11,0.121-18.223,0.187-27.334c0.007-0.947,0.073-1.894,0.121-3.032C110.283,153.93,117.093,153.827,123.989,153.723z"/>
		<path style="fill-rule:evenodd;clip-rule:evenodd;fill:none;" d="M123.7,151.088c-6.751,0.175-13.369,0.346-20.126,0.52
			c-0.773-15.109-0.448-30.084-1.112-45.189c6.628-0.111,13.192-0.22,19.906-0.333c0.088,1.166,0.231,2.263,0.242,3.361
			c0.034,3.555-0.057,7.112,0.042,10.665c0.182,6.586,0.47,13.168,0.7,19.754C123.48,143.531,123.58,147.2,123.7,151.088z"/>
		<path style="fill-rule:evenodd;clip-rule:evenodd;fill:none;" d="M145.012,150.787c-6.389-0.325-12.622,0.864-19.037,0.242
			c-0.502-14.893-2.093-29.691-0.983-44.68c6.479-0.938,13.052-0.109,19.706-0.238c0,0.773-0.017,1.442,0.003,2.111
			c0.212,7.59,0.489,15.18,0.624,22.771c0.081,4.514-0.044,9.031-0.107,13.546C145.188,146.567,145.086,148.594,145.012,150.787z"/>
		<path style="fill-rule:evenodd;clip-rule:evenodd;fill:none;" d="M78.026,123.865c-0.433-5.557-0.255-11.055-0.009-16.731
			c7.311-0.128,14.592-0.257,22.068-0.388c0.277,14.924,0.551,29.643,0.826,44.498c-7.477,0.384-14.762-0.198-22.282,0.068
			c-0.098-2.756-0.19-5.365-0.288-8.088c0.378-0.074,0.795-0.136,1.202-0.238c4.013-1.012,5.979-3.867,6.817-7.681
			c0.438-1.989,0.291-3.968-0.398-5.896c-1.189-3.325-3.64-5.02-7.061-5.455C78.633,123.92,78.363,123.899,78.026,123.865z"/>
		<path style="fill-rule:evenodd;clip-rule:evenodd;fill:none;" d="M99.647,66.106c0,1.534,0.013,2.923-0.003,4.312
			c-0.037,3.677-0.111,7.354-0.116,11.032c-0.001,1.07,0.187,2.141,0.279,3.211c0.169,1.943,0.497,3.89,0.463,5.83
			c-0.08,4.587-0.333,9.17-0.513,13.651c-1.664,0.614-17.297,0.896-21.953,0.476c-0.018-0.286-0.056-0.587-0.053-0.888
			c0.077-7.794,0.201-15.588,0.223-23.382c0.012-4.315-0.135-8.631-0.229-12.946c-0.034-1.586-0.057-1.576,1.58-1.574
			c5.116,0.005,10.233-0.019,15.349,0.013C96.227,65.85,97.778,66.001,99.647,66.106z"/>
		<path style="fill-rule:evenodd;clip-rule:evenodd;fill:none;" d="M74.999,104.729c-7.231-0.521-14.299,0.463-21.471-0.286
			c0-1.037,0.026-2.026-0.005-3.012c-0.146-4.63-0.458-9.26-0.423-13.888c0.035-4.668,0.441-9.332,0.615-14
			c0.086-2.312,0.015-4.63,0.015-7.099c7.277-0.152,14.473-0.303,21.771-0.456C76.074,78.988,75.489,91.774,74.999,104.729z"/>
		<path style="fill-rule:evenodd;clip-rule:evenodd;fill:none;" d="M50.707,151.363c-6.177,0-12.279,0-18.594,0
			c0-0.604-0.019-1.268,0.003-1.93c0.103-3.035,0.29-6.069,0.298-9.104c0.005-1.782-0.28-3.563-0.413-5.347
			c-0.054-0.714-0.167-1.45-0.054-2.145c0.442-2.719,0.119-5.418-0.068-8.126c-0.188-2.747-0.387-5.494-0.472-8.245
			c-0.08-2.596-0.017-5.197-0.017-7.796c0-0.392,0-0.783,0-1.309c1.235-0.099,2.378-0.28,3.518-0.263
			c3.156,0.046,6.311,0.198,9.466,0.264c2.07,0.043,4.141,0.008,6.407,0.008C50.84,121.927,51.796,136.623,50.707,151.363z"/>
		<path style="fill-rule:evenodd;clip-rule:evenodd;fill:none;" d="M125.898,153.895c6.558-0.289,12.854-0.566,19.256-0.85
			c0.041,0.513,0.082,0.853,0.093,1.193c0.206,6.949,0.404,13.897,0.615,20.847c0.143,4.724-0.195,9.417-0.724,14.109
			c-0.249,2.209-0.257,4.445-0.389,6.95c-1.577,0.191-3.334,0.503-5.103,0.596c-2.071,0.109-4.153,0.028-6.231,0.029
			c-2.629,0.001-5.258,0-8.027,0C125.993,182.609,126.675,168.342,125.898,153.895z"/>
		<path style="fill-rule:evenodd;clip-rule:evenodd;fill:none;" d="M53.776,197.312c0.194-4.987,0.392-10.078,0.589-15.158
			c2.679-0.685,4.822-1.857,6.521-3.76c5.39-6.033,1.626-14.037-5.14-15.623c-0.461-0.107-0.928-0.188-1.547-0.313
			c0-2.604,0-5.189,0-8.005c7.174-0.26,14.463,0.295,21.883-0.211c0.673,14.27,0.958,28.465-0.498,42.52
			c-3.706,0-7.292-0.07-10.873,0.021C61.123,196.872,57.537,197.123,53.776,197.312z"/>
		<path style="fill-rule:evenodd;clip-rule:evenodd;fill:none;" d="M75.336,123.347c-5.738,1.433-7.328,5.985-7.321,9.913
			c0.009,5.117,2.493,8.141,7.735,9.748c0.021,0.212,0.054,0.445,0.063,0.68c0.106,2.467,0.209,4.936,0.312,7.381
			c-2.078,0.477-19.487,0.578-22.085,0.135c-0.154-14.543-1.24-29.094-0.498-43.854c7.023,0,14.034,0,21.26,0
			C74.978,112.576,75.155,117.908,75.336,123.347z M63.457,124.641c0.288-0.55,0.477-0.893,0.649-1.242
			c0.908-1.842,1.608-3.737,1.445-5.844c-0.166-2.13-1.46-3.173-3.557-2.808c-1.483,0.259-2.541,1.138-3.145,2.5
			c-0.441,0.996-0.324,1.945,0.614,2.812c0.318-0.367,0.639-0.703,0.919-1.07c0.218-0.283,0.325-0.684,0.591-0.889
			c0.387-0.298,0.884-0.651,1.313-0.627c0.304,0.018,0.667,0.579,0.844,0.97c0.564,1.239,0.136,2.376-0.635,3.345
			c-0.916,1.15-1.951,2.204-2.953,3.32c0.196,0.444,0.398,0.904,0.55,1.248c2.503,0.48,4.912,0.943,7.314,1.406
			c0.602-1.771,0.248-3.351-2.093-2.977C64.766,124.873,64.177,124.704,63.457,124.641z"/>
		<path style="fill-rule:evenodd;clip-rule:evenodd;fill:none;" d="M51.166,66.511c-0.111,12.586-0.221,25.084-0.332,37.679
			c-6.463,0.385-12.991,0.711-19.652-0.014c0.11-1.234,0.217-2.411,0.321-3.588c0.448-5.065,0.386-10.136,0.304-15.216
			c-0.097-6.074,0.06-12.152,0.105-18.228c0.005-0.655,0.213-1.036,0.98-1.022c5.797,0.1,11.594,0.171,17.391,0.256
			C50.475,66.38,50.667,66.434,51.166,66.511z"/>
		<path style="fill-rule:evenodd;clip-rule:evenodd;fill:none;" d="M32.686,153.722c6.246,0.788,12.398,0.233,18.587,0.487
			c0,2.793,0,5.496,0,8.233c-0.275,0.087-0.492,0.185-0.719,0.223c-3.499,0.572-5.522,2.72-6.266,6.075
			c-0.832,3.756-0.065,7.219,2.31,10.27c1.226,1.576,2.879,2.492,4.822,2.803c0,5.146,0,10.24,0,15.459
			c-6.39,0.299-12.592,0.604-18.79,0.285c0-1.505-0.027-2.928,0.004-4.349c0.177-8-0.303-15.981-0.608-23.97
			c-0.169-4.426,0.059-8.868,0.163-13.302C32.206,155.207,32.507,154.486,32.686,153.722z M34.06,167.026
			c-0.343,1.339,0.21,3.019,1.07,3.617c1.486,1.034,4.049,0.99,5.567-0.095c1.494-1.068,2.195-3.007,1.532-4.903
			c-0.376-1.076-0.345-2.029-0.124-3.104c0.46-2.233-1.25-4.502-3.512-4.738c-1.212-0.128-2.461,0.194-3.129,1.157
			c-0.518,0.747-0.53,1.866-0.689,2.833c-0.1,0.607,0.141,1.079,0.831,1.247c0.667,0.161,0.771-0.346,1.047-0.729
			c0.413-0.569,0.837-1.178,1.396-1.573c0.281-0.199,1.032-0.132,1.276,0.11c0.314,0.313,0.462,0.935,0.421,1.399
			c-0.019,0.215-0.648,0.395-1.017,0.552c-0.177,0.076-0.393,0.058-0.589,0.094c-1.225,0.223-1.545,0.941-0.716,1.889
			c0.482,0.55,1.193,0.911,1.829,1.313c0.769,0.486,0.927,1.089,0.498,2.156c-0.346,0.861-0.908,1.163-1.805,0.823
			c-0.74-0.281-1.435-0.688-2.139-1.059C35.253,167.724,34.715,167.398,34.06,167.026z"/>
		<path style="fill-rule:evenodd;clip-rule:evenodd;fill:none;" d="M122.591,65.936c0.943,4.918,0.229,9.854,0.279,14.746
			c-1.151,0.417-2.25,0.755-3.296,1.21c-1.494,0.649-2.703,1.684-3.649,3.016c-1.035,1.457-1.651,2.985-1.004,4.809
			c0.385,1.084,0.582,2.243,1.03,3.297c1.121,2.643,3.036,4.455,5.859,5.222c0.264,0.072,0.515,0.187,0.693,0.253
			c0,1.896,0,3.719,0,5.657c-6.634,0-13.121,0-19.765,0c-0.911-12.717-0.359-25.44-0.53-38.21
			C109.063,65.936,115.788,65.936,122.591,65.936z M113.358,83.386c1.796-2.888,2.128-9.896,0.483-12.098
			c-0.846,0.648-1.757,1.225-2.518,1.958c-1.29,1.242-2.494,2.575-3.71,3.891c-0.161,0.175-0.333,0.58-0.249,0.7
			c0.328,0.463,0.713,0.912,1.16,1.257c0.529,0.407,0.881-0.114,1.213-0.42c0.379-0.351,0.67-0.797,1.057-1.137
			c0.335-0.294,0.749-0.496,1.391-0.907c-0.104,1.339-0.19,2.36-0.26,3.383C111.835,81.372,111.978,82.636,113.358,83.386z"/>
		<path style="fill-rule:evenodd;clip-rule:evenodd;fill:none;" d="M125.398,80.09c0.304-4.805-0.195-9.606,0.528-14.305
			c6.379,0,12.667,0,19.083,0c0.304,12.718,0.468,25.246-0.283,37.966c-6.646,0-13.207,0-19.95,0
			c0.091-1.678,0.184-3.415,0.275-5.12c1.058-0.445,2.058-0.823,3.02-1.282c1.576-0.752,2.886-1.862,3.961-3.229
			c3.409-4.339,2.043-10.322-2.949-12.737C127.952,80.836,126.699,80.539,125.398,80.09z"/>
		<path style="fill-rule:evenodd;clip-rule:evenodd;fill:none;" d="M75.568,51.274c-1.425-3.166-0.718-6.491-1.038-9.841
			c1.986-0.275,3.832,0.111,5.561,0.934c0.876,0.417,1.749,1.014,2.381,1.74c1.425,1.633,1.016,3.725-0.809,4.876
			C79.55,50.317,77.587,51.067,75.568,51.274z"/>
		<path style="fill-rule:evenodd;clip-rule:evenodd;fill:none;" d="M52.674,43.924c1.408,0.86,1.642,2.129,1.882,3.616
			c-1.267,0.135-2.46,0.263-3.827,0.41C50.941,46.309,51.747,45.141,52.674,43.924z"/>
		<path style="fill-rule:evenodd;clip-rule:evenodd;" d="M63.457,124.641c0.721,0.063,1.31,0.232,1.857,0.145
			c2.341-0.374,2.695,1.206,2.093,2.977c-2.403-0.463-4.812-0.926-7.314-1.406c-0.151-0.344-0.354-0.804-0.55-1.248
			c1.002-1.116,2.038-2.17,2.953-3.32c0.771-0.969,1.2-2.105,0.635-3.345c-0.178-0.391-0.54-0.952-0.844-0.97
			c-0.43-0.024-0.927,0.329-1.313,0.627c-0.266,0.205-0.373,0.605-0.591,0.889c-0.281,0.367-0.601,0.703-0.919,1.07
			c-0.938-0.867-1.055-1.816-0.614-2.812c0.604-1.361,1.662-2.241,3.145-2.5c2.097-0.365,3.392,0.678,3.557,2.808
			c0.164,2.106-0.537,4.002-1.445,5.844C63.933,123.748,63.744,124.091,63.457,124.641z"/>
		<path style="fill-rule:evenodd;clip-rule:evenodd;" d="M34.06,167.026c0.655,0.372,1.193,0.697,1.749,0.99
			c0.704,0.371,1.399,0.777,2.139,1.059c0.896,0.34,1.459,0.038,1.805-0.823c0.429-1.067,0.271-1.67-0.498-2.156
			c-0.636-0.402-1.347-0.764-1.829-1.313c-0.829-0.947-0.509-1.666,0.716-1.889c0.196-0.036,0.412-0.018,0.589-0.094
			c0.369-0.157,0.998-0.337,1.017-0.552c0.041-0.465-0.107-1.086-0.421-1.399c-0.244-0.242-0.995-0.31-1.276-0.11
			c-0.559,0.396-0.983,1.004-1.396,1.573c-0.277,0.383-0.381,0.89-1.047,0.729c-0.69-0.168-0.931-0.64-0.831-1.247
			c0.159-0.967,0.171-2.086,0.689-2.833c0.668-0.963,1.917-1.285,3.129-1.157c2.262,0.236,3.972,2.505,3.512,4.738
			c-0.221,1.075-0.253,2.028,0.124,3.104c0.663,1.896-0.039,3.835-1.532,4.903c-1.518,1.085-4.081,1.129-5.567,0.095
			C34.27,170.045,33.717,168.365,34.06,167.026z"/>
		<path style="fill-rule:evenodd;clip-rule:evenodd;" d="M113.358,83.386c-1.381-0.75-1.523-2.014-1.433-3.374
			c0.069-1.022,0.156-2.043,0.26-3.383c-0.642,0.411-1.056,0.613-1.391,0.907c-0.387,0.34-0.678,0.787-1.057,1.137
			c-0.332,0.307-0.684,0.828-1.213,0.42c-0.447-0.345-0.832-0.793-1.16-1.257c-0.084-0.121,0.088-0.525,0.249-0.7
			c1.216-1.316,2.42-2.649,3.71-3.891c0.761-0.733,1.672-1.31,2.518-1.958C115.486,73.49,115.154,80.499,113.358,83.386z"/>
	</g>
</g>
<g id="Layer_1">
</g>
</svg>
