<?xml version="1.0" encoding="UTF-8" standalone="no"?>
<!DOCTYPE svg PUBLIC "-//W3C//DTD SVG 1.1//EN" "http://www.w3.org/Graphics/SVG/1.1/DTD/svg11.dtd">
<svg width="100%" height="100%" viewBox="0 0 963 1280" version="1.1" xmlns="http://www.w3.org/2000/svg" xmlns:xlink="http://www.w3.org/1999/xlink" xml:space="preserve" xmlns:serif="http://www.serif.com/" style="fill-rule:evenodd;clip-rule:evenodd;stroke-linejoin:round;stroke-miterlimit:2;">
    <g transform="matrix(0.45858,0,0,0.442346,478.452,660.518)">
        <g id="Dsus4" transform="matrix(1,0,0,1,-750,-1500)">
            <g transform="matrix(0.1,0,0,-0.1,0,3000)">
                <path d="M5668,28521C5614,28511 5567,28501 5564,28497C5546,28479 5521,27829 5520,27373L5520,26890L5643,26890C5744,26890 5781,26894 5846,26914C5889,26927 5968,26945 6020,26954C6072,26964 6125,26973 6136,26976C6148,26978 6200,27007 6251,27041C6378,27124 6533,27280 6582,27375C6613,27436 6638,27519 6632,27543C6631,27547 6639,27588 6651,27633C6711,27865 6604,28147 6385,28334C6263,28437 6148,28511 6083,28526C6003,28545 5789,28542 5668,28521ZM5992,28399C6216,28353 6433,28130 6496,27880C6520,27784 6511,27608 6478,27518C6441,27418 6393,27343 6320,27269C6268,27217 6234,27193 6150,27153C6012,27086 5894,27049 5795,27043L5715,27037L5692,27131C5655,27284 5647,27406 5653,27790C5659,28130 5664,28203 5689,28298C5699,28334 5708,28344 5750,28365C5836,28409 5902,28418 5992,28399Z" style="fill-rule:nonzero;"/>
                <path d="M9580,28395C9568,28359 9554,28327 9548,28324C9531,28313 9480,28196 9480,28167C9480,28152 9469,28113 9456,28081C9420,27997 9375,27839 9356,27730C9323,27548 9339,27521 9486,27513C9553,27509 9601,27513 9679,27529C9736,27540 9789,27550 9796,27550C9808,27550 9810,27492 9810,27220L9810,26890L9850,26890C9873,26890 9909,26899 9930,26910L9970,26930L9970,27240C9970,27411 9974,27550 9978,27550C9983,27550 10013,27541 10045,27530C10077,27519 10118,27510 10137,27510L10170,27510L10170,27631L10087,27669C9971,27723 9970,27724 9970,27974L9970,28170L9910,28170C9851,28170 9850,28170 9830,28130C9812,28094 9810,28072 9810,27880L9810,27670L9640,27670C9536,27670 9470,27674 9470,27680C9470,27685 9488,27735 9510,27790C9532,27845 9550,27902 9550,27915C9550,27941 9619,28171 9651,28252C9664,28284 9670,28324 9670,28379L9670,28460L9636,28460C9603,28460 9601,28458 9580,28395Z" style="fill-rule:nonzero;"/>
                <path d="M8657,27772C8603,27743 8524,27681 8456,27611L8397,27551L8415,27511C8448,27437 8605,27306 8793,27195C8846,27163 8890,27135 8890,27131C8890,27128 8873,27106 8851,27082C8815,27042 8809,27040 8758,27040C8678,27040 8559,27074 8475,27120C8435,27142 8399,27160 8395,27160C8391,27160 8390,27138 8392,27110C8405,26982 8548,26885 8725,26885C8870,26885 8962,26937 9019,27052C9036,27086 9050,27119 9050,27127C9050,27148 8893,27307 8829,27349C8797,27371 8749,27396 8723,27406C8666,27426 8616,27470 8599,27514C8592,27531 8578,27555 8567,27567C8556,27580 8548,27592 8551,27594C8553,27596 8585,27607 8622,27619C8699,27645 8770,27640 8801,27609C8812,27598 8825,27590 8830,27590C8836,27590 8858,27581 8880,27570C8924,27547 8970,27544 8970,27563C8969,27600 8946,27669 8924,27697C8864,27776 8734,27812 8657,27772Z" style="fill-rule:nonzero;"/>
                <path d="M6973,27705C6891,27683 6820,27642 6766,27586C6641,27456 6653,27375 6810,27302C6857,27280 6913,27257 6935,27250C7001,27229 7047,27194 7090,27130C7150,27042 7150,27045 7074,27020C7020,27002 6995,26999 6942,27004C6865,27012 6826,27027 6742,27082L6679,27123L6640,27085L6600,27046L6623,27006C6651,26954 6668,26947 6821,26914C6913,26895 6966,26889 7027,26892C7121,26896 7134,26904 7202,27005C7237,27058 7241,27070 7238,27111C7229,27198 7117,27317 6969,27395C6891,27436 6840,27476 6840,27496C6840,27503 6858,27519 6880,27530C6937,27559 7098,27559 7125,27530C7149,27503 7174,27505 7194,27535C7221,27576 7223,27612 7200,27648C7157,27717 7085,27735 6973,27705Z" style="fill-rule:nonzero;"/>
                <path d="M7405,27650C7375,27590 7374,27553 7400,27416C7421,27308 7468,27167 7536,27003C7580,26897 7582,26896 7705,26902L7774,26905L7837,26980C7880,27031 7924,27101 7973,27197C8013,27276 8048,27340 8052,27340C8056,27340 8064,27314 8070,27283C8113,27065 8146,26968 8191,26922C8219,26893 8228,26890 8281,26890C8351,26890 8352,26893 8320,27005C8309,27043 8300,27085 8300,27096C8300,27108 8289,27138 8275,27163C8242,27221 8223,27288 8215,27375C8212,27414 8203,27470 8195,27500C8188,27530 8179,27572 8176,27592C8171,27620 8162,27634 8140,27645C8100,27666 8096,27665 8076,27624C8067,27603 8044,27569 8026,27546C7947,27447 7858,27305 7795,27180C7758,27106 7726,27043 7723,27040C7720,27037 7703,27052 7685,27073C7648,27116 7592,27271 7559,27424C7543,27494 7540,27532 7545,27593L7552,27670L7524,27670C7508,27671 7484,27677 7470,27685C7434,27706 7433,27705 7405,27650Z" style="fill-rule:nonzero;"/>
                <path d="M2255,26504C2074,26492 1913,26468 1863,26445L1810,26421L1810,26276C1810,26194 1816,26092 1825,26043C1833,25994 1844,25892 1849,25815C1854,25738 1867,25626 1878,25565C1907,25411 1930,25201 1930,25098L1930,25010L2840,25010L2840,25290L2172,25290L2167,25318C2164,25333 2155,25363 2146,25385C2137,25410 2131,25458 2130,25511L2130,25596L2223,25618C2275,25631 2347,25640 2388,25640L2460,25640L2460,25920L2090,25920L2090,26138L2175,26159C2293,26189 2517,26189 2632,26159C2676,26148 2714,26140 2715,26142C2720,26148 2768,26305 2780,26360C2792,26409 2791,26415 2775,26425C2765,26430 2743,26445 2724,26457C2706,26469 2674,26484 2653,26490C2613,26501 2357,26510 2255,26504Z" style="fill-rule:nonzero;"/>
                <path d="M4408,26323C4343,26260 4230,26100 4230,26070C4230,26059 4117,25825 3979,25549L3729,25047L3807,24968L3885,24890L3966,25053L4048,25216L4173,25228C4241,25235 4312,25245 4331,25250C4414,25274 4640,25252 4697,25215C4733,25191 4757,25144 4765,25082C4774,25013 4800,24958 4849,24907C4896,24857 4929,24840 4980,24840C5039,24840 5078,24864 5101,24913C5128,24973 5125,24999 5081,25103C5034,25215 5012,25287 5005,25361C5000,25407 4992,25425 4959,25465C4937,25492 4901,25544 4879,25581C4812,25696 4633,26066 4590,26178C4525,26348 4509,26380 4488,26380C4477,26380 4441,26354 4408,26323ZM4474,25761C4512,25701 4551,25603 4557,25549L4563,25500L4494,25500C4456,25500 4391,25491 4350,25480C4309,25469 4272,25460 4268,25460C4263,25460 4260,25479 4260,25501C4260,25549 4331,25702 4380,25763C4420,25811 4443,25810 4474,25761Z" style="fill-rule:nonzero;"/>
                <path d="M6355,26322C6338,26296 6300,26250 6269,26220C6197,26150 6192,26127 6184,25852C6179,25696 6182,25606 6194,25486C6203,25398 6210,25269 6210,25199C6210,25071 6210,25071 6180,25037L6151,25003L6190,24963C6245,24905 6300,24888 6452,24883C6610,24876 6735,24895 6908,24952C7068,25004 7146,25039 7247,25106C7346,25172 7409,25242 7455,25335C7560,25549 7499,25786 7281,26013C7158,26141 7017,26229 6868,26270C6813,26285 6765,26290 6665,26290C6557,26290 6528,26294 6491,26310C6467,26321 6443,26330 6437,26330C6431,26330 6417,26339 6405,26350L6385,26369L6355,26322ZM6645,26001C6711,25985 6799,25965 6841,25956C7008,25920 7132,25828 7165,25717C7187,25644 7184,25516 7160,25462C7126,25386 7048,25321 6905,25248C6731,25160 6639,25130 6540,25130L6463,25130L6457,25323C6453,25428 6446,25589 6440,25680C6423,25942 6438,26030 6500,26030C6514,26030 6579,26017 6645,26001Z" style="fill-rule:nonzero;"/>
                <path d="M10353,26248C10356,26224 10363,26187 10370,26165C10378,26138 10385,25959 10391,25630C10396,25332 10404,25117 10411,25090C10417,25065 10424,25010 10427,24968L10432,24890L10670,24890L10670,25390L10723,25390C10751,25390 10812,25399 10858,25410C10917,25424 10976,25430 11061,25430L11180,25430L11180,24760L11245,24760C11289,24760 11327,24767 11365,24783L11421,24805L11418,25390C11414,26058 11415,26043 11332,26132C11281,26187 11244,26210 11207,26210C11184,26210 11182,26205 11161,26078C11146,25986 11140,25902 11140,25808L11140,25670L11021,25670C10941,25670 10870,25663 10805,25650C10752,25639 10700,25630 10691,25630C10676,25630 10670,25655 10652,25808C10639,25910 10630,26041 10630,26118L10630,26250L10593,26250C10572,26250 10531,26259 10502,26270C10473,26281 10427,26290 10399,26290L10348,26290L10353,26248Z" style="fill-rule:nonzero;"/>
                <path d="M8705,26258C8583,26244 8570,26236 8276,25983C8175,25897 8151,25853 8144,25739C8139,25676 8142,25640 8155,25595C8164,25562 8174,25482 8177,25418L8183,25300L8226,25300C8267,25300 8271,25297 8290,25260C8301,25239 8310,25216 8310,25210C8310,25190 8451,24991 8479,24970C8532,24933 8624,24892 8697,24875C8807,24848 8989,24858 9090,24895C9131,24910 9189,24925 9218,24927L9270,24932L9270,24720L9550,24720L9550,24818C9550,24881 9544,24931 9534,24960C9523,24991 9515,25065 9510,25195C9505,25300 9497,25399 9492,25415C9465,25503 9404,25577 9336,25605C9282,25628 9134,25633 9052,25616C9011,25607 8930,25596 8870,25590C8793,25584 8748,25575 8719,25560L8678,25539L8682,25464C8684,25411 8690,25385 8703,25373C8724,25351 8817,25341 9003,25341L9140,25340L9140,25312C9140,25282 9097,25206 9059,25171C8988,25105 8809,25061 8688,25080C8604,25093 8554,25117 8512,25165C8341,25359 8376,25717 8588,25933C8668,26015 8734,26045 8830,26045C8926,26044 8959,26027 9066,25921C9166,25823 9202,25800 9258,25800L9300,25800L9300,25868C9300,25924 9295,25948 9270,25996C9234,26069 9080,26233 9027,26255C8986,26272 8840,26274 8705,26258Z" style="fill-rule:nonzero;"/>
                <path d="M12520,26193C12520,26183 12529,26063 12540,25925C12555,25739 12560,25584 12560,25319C12560,24989 12561,24960 12580,24904L12601,24844L12673,24820C12738,24798 12765,24795 12955,24792C13165,24788 13402,24805 13503,24830C13541,24840 13550,24848 13565,24881C13575,24903 13581,24922 13579,24924C13577,24926 13546,24943 13510,24961L13445,24995L13123,24998L12800,25002L12800,25131C12800,25256 12801,25260 12823,25265C12935,25291 13008,25300 13107,25300L13223,25300L13216,25368C13212,25405 13200,25453 13190,25476C13179,25498 13170,25531 13170,25548L13170,25580L13063,25580C12989,25580 12931,25574 12880,25560C12839,25550 12804,25543 12802,25545C12800,25547 12788,25588 12775,25637C12763,25685 12747,25738 12741,25753C12735,25769 12730,25800 12730,25824C12730,25908 12800,25935 12940,25906C13049,25883 13346,25885 13415,25909L13465,25927L13468,26068L13471,26210L12995,26210C12549,26210 12520,26209 12520,26193Z" style="fill-rule:nonzero;"/>
                <path d="M1390,24288C1390,23968 1410,23880 1491,23838C1534,23816 1657,23800 1790,23800C1894,23799 2168,23767 2180,23753C2184,23749 2198,23714 2211,23675L2235,23605L2234,22875C2234,22182 2221,21591 2199,21160C2194,21053 2185,20841 2181,20690C2174,20482 2168,20404 2156,20370C2147,20345 2140,20299 2140,20268C2140,20228 2136,20210 2128,20210C2121,20210 2045,20219 1960,20230C1763,20255 1470,20258 1470,20235C1470,20226 1479,20220 1495,20220L1520,20220L1499,20178C1487,20154 1469,20125 1458,20114L1438,20092L1492,20075C1521,20065 1568,20045 1595,20029C1650,19999 1771,19970 1847,19970C1873,19970 1954,19961 2025,19950C2097,19939 2161,19930 2168,19930C2177,19930 2180,19513 2180,17880L2180,15830L1344,15830L1322,15785C1295,15728 1295,15718 1323,15693C1385,15637 1586,15600 1880,15591C2022,15586 2103,15579 2118,15571C2131,15564 2150,15540 2161,15517C2187,15458 2186,15298 2155,14776C2101,13852 2100,13832 2100,12654C2100,11555 2100,11539 2080,11500L2060,11460L1347,11460L1352,11386C1355,11336 1363,11301 1377,11279C1388,11260 1405,11221 1415,11193C1424,11164 1435,11140 1440,11140C1465,11140 1655,11184 1723,11205C1808,11232 1815,11233 2058,11224L2221,11219L2216,9382C2213,8244 2208,7520 2202,7480C2196,7444 2188,7386 2184,7351L2177,7288L1966,7295C1653,7305 1555,7306 1448,7296L1350,7287L1350,7234C1350,7125 1385,7102 1592,7071C1702,7054 1777,7050 1974,7050L2220,7050L2220,6693C2220,6496 2216,6286 2210,6225C2205,6165 2194,5978 2185,5810C2176,5642 2164,5460 2158,5405C2151,5340 2146,4892 2143,4133L2139,2960L1957,2960C1840,2960 1746,2954 1695,2945C1651,2937 1555,2927 1483,2924C1369,2918 1350,2915 1350,2900C1350,2867 1394,2754 1423,2713C1474,2640 1504,2637 1705,2685C1865,2723 1934,2726 2043,2699L2137,2677L2149,2451C2156,2327 2165,2151 2170,2060C2175,1969 2179,1743 2180,1558L2180,1220L2213,1220C2255,1220 2343,1263 2373,1300C2424,1359 2451,1657 2459,2229L2465,2644L2495,2652C2531,2661 2678,2674 3052,2700C3265,2715 3441,2720 3739,2720L4140,2720L4140,2177C4140,1706 4143,1609 4160,1440C4171,1333 4180,1240 4180,1233C4180,1223 4201,1220 4260,1220L4340,1220L4340,1259C4340,1282 4348,1307 4360,1323C4380,1348 4380,1363 4380,2035L4380,2722L4943,2716C5252,2713 5559,2707 5625,2701C5691,2696 5890,2688 6068,2684L6390,2677L6390,2351C6390,2172 6385,1954 6380,1868C6364,1613 6388,1423 6444,1371L6468,1349L6526,1430C6667,1627 6662,1597 6667,2198L6672,2680L7676,2680C8626,2680 8680,2679 8680,2663C8680,2653 8671,2598 8661,2540C8637,2411 8611,2107 8599,1815C8590,1568 8569,1425 8540,1396C8522,1377 8522,1376 8542,1336C8567,1288 8580,1276 8639,1248C8693,1223 8761,1230 8795,1264C8826,1295 8836,1351 8860,1628C8876,1814 8880,1943 8880,2270L8880,2680L10728,2680L10733,2522C10735,2436 10743,2287 10750,2191C10760,2051 10760,1989 10750,1871C10725,1580 10725,1508 10754,1417C10768,1372 10785,1311 10792,1281L10806,1228L10855,1300C10883,1340 10919,1395 10935,1424L10965,1475L10968,2053L10971,2630L11728,2630C12472,2630 12652,2624 12675,2598C12701,2570 12729,2073 12730,1630C12730,1347 12739,1240 12765,1190C12784,1153 12803,1143 12868,1134L12920,1127L12921,1516C12921,1797 12928,2000 12943,2245L12965,2585L13423,2588L13880,2590L13880,2669C13880,2776 13851,2867 13801,2920C13763,2960 13762,2960 13689,2960C13648,2960 13572,2967 13520,2976C13468,2984 13351,2995 13260,2999C13148,3005 13075,3013 13033,3026C12961,3047 12961,3047 12987,3150C13001,3207 13004,3333 13010,4165C13015,4753 13022,5155 13029,5220C13035,5278 13044,5584 13050,5900C13055,6216 13066,6583 13075,6715C13083,6847 13089,6967 13090,6983L13090,7010L13405,7010C13702,7010 13723,7011 13760,7030C13800,7050 13800,7051 13800,7108C13800,7176 13783,7205 13731,7228C13701,7242 13643,7245 13371,7248L13048,7252L13054,8583C13058,9347 13065,9960 13071,10020C13076,10078 13083,10353 13086,10633L13091,11140L13840,11140L13840,11213C13840,11260 13833,11306 13820,11343C13809,11374 13800,11413 13800,11429C13800,11457 13799,11458 13723,11469C13548,11494 13464,11500 13241,11500L13007,11500L13016,11843C13027,12263 13027,12336 13016,12525C13004,12745 13010,12755 13259,13013C13354,13112 13425,13195 13438,13221C13465,13279 13474,13393 13460,13505C13431,13737 13316,13929 13163,14002C13087,14039 13074,14063 13060,14191C13055,14243 13050,14579 13050,14938L13050,15590L13073,15590C13085,15590 13167,15581 13255,15569C13377,15553 13447,15549 13550,15553C13714,15559 13748,15570 13774,15628L13792,15669L13756,15714C13735,15738 13705,15764 13687,15771C13664,15781 13565,15785 13332,15788L13008,15791L13013,16873C13016,17468 13023,18074 13028,18220C13034,18366 13042,18748 13045,19070C13051,19566 13055,19675 13071,19788C13081,19861 13090,19924 13090,19927C13090,19930 13159,19929 13243,19924C13454,19912 13740,19914 13830,19929C13900,19941 14040,19995 14040,20010C14040,20023 13973,20079 13931,20100L13888,20121L13866,20101C13834,20070 13802,20073 13798,20107C13793,20155 13746,20162 13378,20167L13050,20172L13050,20229C13050,20260 13057,20533 13065,20835C13074,21138 13085,21844 13090,22405C13098,23314 13108,23642 13126,23671C13129,23676 13349,23680 13651,23680L14170,23680L14170,23714C14170,23732 14177,23765 14186,23786C14209,23840 14208,24038 14185,24252L14166,24419L13221,24424C12574,24427 12248,24432 12190,24440C12127,24449 11024,24454 7890,24460C4855,24466 3653,24471 3595,24479C3542,24487 3157,24492 2453,24496L1390,24502L1390,24288ZM3810,23740C4016,23729 4193,23720 4203,23720C4221,23720 4222,23686 4216,22673C4213,22034 4206,21590 4200,21535C4194,21486 4187,21158 4184,20807L4179,20168L3602,20173C3205,20176 2966,20183 2835,20194C2731,20202 2594,20210 2531,20210L2417,20210L2424,20373C2427,20462 2435,20567 2440,20605C2445,20644 2454,21109 2459,21640C2465,22171 2474,22720 2479,22860C2485,23000 2495,23260 2501,23438L2514,23760L2974,23760C3296,23760 3548,23754 3810,23740ZM8025,23742C8102,23736 8282,23728 8424,23724L8683,23717L8677,22246C8671,20904 8660,20228 8644,20178C8631,20136 8621,20135 7775,20132C7093,20130 6950,20131 6870,20144C6818,20152 6742,20162 6702,20166L6629,20172L6635,20259C6666,20714 6670,20930 6670,22331L6670,23762L7278,23757C7612,23754 7948,23747 8025,23742ZM6470,23650C6470,23612 6461,23359 6451,23088C6440,22817 6429,22307 6426,21955C6421,21331 6406,20598 6394,20313L6388,20172L6286,20165C6133,20154 4832,20154 4613,20164L4420,20173L4420,20774C4420,21231 4426,21524 4445,22000C4458,22344 4476,22852 4485,23130C4494,23408 4503,23654 4506,23678L4511,23720L6470,23720L6470,23650ZM10140,23701C10203,23696 10380,23688 10533,23684L10812,23677L10805,23441C10796,23082 10781,22271 10774,21740C10769,21380 10764,21246 10753,21185C10741,21123 10737,20994 10733,20618L10728,20130L10126,20130C9574,20130 9312,20137 9062,20159C9011,20164 8967,20169 8965,20172C8955,20182 8940,20339 8930,20545C8913,20867 8906,21932 8915,22873L8922,23722L9474,23716C9777,23714 10077,23707 10140,23701ZM11385,23705C11528,23697 11872,23686 12150,23680C12643,23671 12782,23662 12804,23640C12823,23621 12829,23132 12820,22355C12802,21005 12769,20215 12726,20173C12711,20157 11166,20142 11030,20157L10968,20163L10973,20654C10977,20924 10983,21217 10989,21305C10994,21393 11001,21717 11005,22025C11008,22333 11015,22644 11020,22715C11025,22787 11035,22994 11041,23175C11050,23451 11055,23514 11071,23563C11081,23594 11090,23643 11090,23670C11090,23711 11093,23720 11108,23720C11117,23720 11242,23713 11385,23705ZM11905,19935C11999,19932 12222,19920 12403,19908L12730,19886L12730,19756C12730,19684 12739,19211 12750,18705C12763,18089 12770,17456 12770,16789L12770,15793L12388,15786C12177,15782 11969,15774 11925,15769C11881,15764 11667,15757 11449,15754L11054,15748L11042,15817C10989,16122 10920,18103 10920,19313L10920,19930L11193,19931C11342,19931 11485,19935 11510,19940C11535,19945 11596,19947 11645,19945C11695,19942 11812,19938 11905,19935ZM2887,19905C3067,19896 3406,19890 3689,19890L4180,19890L4180,15790L2463,15790L2456,16723C2452,17235 2445,17736 2439,17835C2434,17934 2427,18446 2424,18973L2418,19931L2497,19925C2540,19922 2715,19913 2887,19905ZM10730,18623C10731,17903 10735,17252 10740,17175C10745,17098 10754,16803 10760,16520C10770,16043 10780,15889 10807,15773L10812,15750L8972,15750L8966,15838C8955,16008 8937,16895 8943,17034C8950,17214 8960,17246 9024,17285C9206,17396 9343,17638 9344,17850C9345,18005 9232,18224 9054,18411C9015,18452 8976,18499 8967,18516C8933,18582 8929,18651 8923,19272L8918,19890L8946,19901C8995,19919 9284,19927 10023,19928L10730,19930L10730,18623ZM6390,18768C6390,17942 6396,17427 6410,16820C6421,16366 6430,15949 6430,15893L6430,15790L4464,15790L4442,16248C4421,16680 4419,16792 4420,18298L4420,19890L6390,19890L6390,18768ZM8680,19283C8680,18675 8674,18558 8644,18512C8636,18500 8603,18477 8572,18463C8499,18429 8395,18325 8353,18245C8335,18211 8311,18148 8298,18105C8277,18032 8275,18005 8275,17800C8275,17602 8277,17571 8293,17542C8320,17492 8587,17223 8616,17216C8669,17202 8673,17173 8682,16725C8686,16500 8698,16188 8707,16033L8725,15750L8355,15750C8141,15751 7882,15757 7740,15766C7605,15774 7319,15784 7104,15787L6713,15792L6692,15914C6670,16033 6670,16059 6662,17615C6656,18884 6658,19827 6669,19848C6684,19878 6936,19886 7938,19888L8680,19890L8680,19283ZM3055,15530C3094,15525 3362,15517 3653,15514L4180,15507L4180,11460L2460,11460L2460,15552L2723,15546C2867,15543 3017,15536 3055,15530ZM12770,15003C12770,14462 12761,14211 12740,14138C12724,14083 12687,14045 12609,14004C12343,13864 12190,13503 12271,13210C12313,13056 12417,12912 12535,12841C12587,12810 12602,12806 12682,12802C12758,12798 12770,12795 12766,12781C12740,12697 12729,12602 12720,12400C12713,12271 12704,12140 12699,12110C12694,12080 12686,11943 12681,11805C12677,11668 12668,11543 12662,11529C12653,11506 12644,11501 12593,11496C12393,11473 12225,11468 11633,11463L10970,11458L10970,11856C10970,12098 10976,12356 10985,12510C11007,12867 11002,12842 11056,12868C11080,12880 11107,12890 11116,12890C11181,12890 11381,13065 11436,13170C11465,13224 11465,13227 11464,13390C11464,13539 11461,13563 11437,13643C11387,13805 11306,13943 11184,14071C11095,14165 11074,14205 11060,14311C11048,14409 11046,15470 11058,15470C11062,15470 11153,15479 11260,15490C11421,15507 11529,15510 11890,15511C12231,15511 12364,15515 12505,15529C12604,15539 12704,15548 12728,15549L12770,15550L12770,15003ZM8684,15278C8687,15150 8694,14998 8699,14940C8712,14799 8713,13902 8700,13225C8690,12712 8684,12552 8660,12195C8655,12118 8647,11921 8644,11758L8637,11460L8336,11460C8158,11460 7896,11468 7695,11480C7478,11493 7231,11500 7013,11500L6670,11500L6676,11608C6700,12112 6710,12768 6710,13795C6709,14801 6707,14952 6691,15175L6672,15425L6693,15448L6713,15470L7264,15471C7634,15471 7937,15478 8185,15489C8389,15499 8583,15508 8616,15509L8677,15510L8684,15278ZM10810,15025C10810,14600 10813,14518 10831,14359C10842,14259 10848,14174 10843,14170C10839,14166 10810,14155 10780,14145C10694,14118 10591,14064 10518,14009C10301,13847 10203,13549 10298,13346C10364,13206 10505,13017 10606,12934C10638,12908 10684,12884 10726,12870C10764,12858 10798,12845 10802,12841C10806,12837 10803,12735 10795,12615C10786,12494 10775,12229 10770,12025C10760,11626 10754,11540 10736,11514C10720,11493 10665,11483 10475,11471C10043,11442 9393,11433 9077,11452L8879,11464L8885,11624C8910,12307 8920,13039 8920,14197L8920,15470L8968,15471C8994,15471 9175,15480 9370,15489C9606,15501 9906,15508 10268,15509L10810,15510L10810,15025ZM6470,14552C6470,13199 6434,11907 6389,11645C6370,11537 6389,11544 6098,11536C5959,11532 5791,11524 5725,11519C5659,11513 5348,11506 5033,11503L4461,11498L4457,11777C4455,11930 4447,12217 4440,12415C4430,12703 4430,12925 4439,13525C4446,13938 4454,14544 4457,14873L4463,15470L6470,15470L6470,14552ZM4180,11220L4180,7248L3578,7253C3246,7257 2928,7264 2870,7269C2812,7275 2708,7282 2638,7286L2512,7293L2506,7979C2503,8356 2496,8733 2491,8815C2486,8898 2477,9309 2471,9730C2461,10399 2443,10956 2424,11158L2418,11220L4180,11220ZM5855,11200C6092,11189 6308,11180 6336,11180L6388,11180L6394,10973C6397,10858 6405,10725 6410,10675C6415,10626 6424,10124 6429,9560C6435,8996 6446,8306 6454,8025C6463,7745 6470,7455 6470,7383L6470,7250L4461,7250L4457,8728C4455,9804 4450,10266 4441,10428C4430,10613 4430,10679 4440,10808C4448,10895 4455,11022 4457,11093L4461,11220L4943,11220C5266,11220 5567,11213 5855,11200ZM8680,11073C8680,10870 8697,10541 8715,10387C8728,10278 8730,10024 8730,8755C8730,7366 8729,7251 8713,7239C8693,7222 8214,7222 7850,7239C7721,7245 7412,7250 7164,7250L6713,7250L6706,7948C6702,8331 6694,8737 6689,8850C6684,8963 6677,9533 6674,10118L6668,11180L6747,11181C6790,11181 6998,11190 7210,11199C7455,11211 7792,11218 8138,11219L8680,11220L8680,11073ZM9372,11195C9550,11185 9851,11180 10210,11180L10770,11180L10770,9843C10770,8732 10774,8400 10790,7885C10801,7544 10810,7262 10810,7258C10810,7253 10764,7250 10708,7250C10651,7250 10513,7242 10400,7234C10260,7223 10001,7216 9583,7213L8970,7208L8970,8006C8969,9000 8953,10307 8939,10460C8934,10523 8927,10720 8924,10898L8918,11222L9006,11215C9055,11212 9220,11203 9372,11195ZM12733,10758C12736,10412 12740,10324 12753,10275C12767,10222 12769,10112 12770,9365C12770,8746 12776,8346 12790,7895C12801,7554 12810,7269 12810,7263C12810,7253 12756,7250 12573,7250C12442,7250 12173,7243 11975,7235C11545,7218 11240,7216 11185,7231C11163,7237 11124,7244 11098,7247C11055,7251 11051,7254 11047,7283C11027,7397 11009,7745 10999,8180C10993,8458 10984,8737 10980,8800C10975,8863 10971,9425 10971,10048L10970,11180L12728,11180L12733,10758ZM3215,6991C3259,6985 3504,6978 3758,6974L4222,6967L4217,5906C4214,5323 4207,4724 4201,4575C4196,4427 4188,4002 4184,3633L4177,2960L2460,2960L2460,7012L2798,7006C2983,7003 3171,6996 3215,6991ZM12773,6418C12790,4935 12769,4026 12710,3645C12693,3538 12696,3315 12714,3255C12724,3224 12730,3167 12730,3104L12730,3002L12678,2997C12649,2994 12605,2986 12580,2980C12551,2973 12290,2965 11840,2959C11458,2954 11123,2946 11095,2941C11068,2936 11028,2929 11006,2924L10968,2917L10973,3296C10976,3504 10983,3752 10988,3845C10994,3939 11004,4195 11010,4415C11016,4635 11026,4912 11032,5030C11038,5148 11044,5623 11047,6085C11051,6922 11052,6925 11072,6948L11093,6970L11459,6970C11808,6970 12082,6981 12207,6999C12239,7004 12378,7008 12516,7009L12767,7010L12773,6418ZM5985,6949C6277,6937 6515,6927 6516,6926C6517,6925 6509,6664 6498,6345C6488,6026 6475,5353 6470,4850C6464,4347 6455,3892 6449,3840C6444,3788 6436,3597 6431,3415C6425,3155 6421,3076 6408,3045L6393,3005L5479,3000C4624,2995 4561,2994 4497,2976C4460,2966 4426,2960 4423,2964C4414,2973 4437,3354 4450,3405C4456,3430 4460,3974 4460,4880C4460,6227 4461,6334 4480,6620C4492,6788 4503,6935 4506,6948L4510,6970L4983,6970C5300,6970 5629,6963 5985,6949ZM8730,6683C8729,6071 8710,4941 8695,4655C8685,4448 8680,4138 8680,3657L8680,2958L7978,2963C7477,2966 7215,2972 7065,2984C6950,2992 6822,3000 6783,3000L6710,3000L6710,6930L7313,6930C7879,6930 8179,6939 8281,6959C8305,6964 8416,6968 8528,6969L8730,6970L8730,6683ZM10846,5943C10843,5377 10835,4861 10830,4795C10824,4729 10815,4421 10810,4110C10805,3799 10796,3507 10791,3460C10786,3413 10778,3282 10774,3168L10767,2962L10646,2955C10462,2945 9216,2944 9037,2954L8879,2963L8885,3084C8908,3552 8920,4175 8920,4832C8920,5477 8922,5587 8936,5637C8955,5709 8969,6113 8970,6618L8970,6970L10853,6970L10846,5943Z" style="fill-rule:nonzero;"/>
                <path d="M7783,19115C7712,19066 7400,18672 7400,18632C7400,18628 7416,18609 7435,18590L7470,18556L7595,18680L7719,18804L7723,18674C7725,18603 7734,18509 7744,18465C7753,18421 7768,18352 7776,18312C7793,18230 7827,18180 7866,18180C7879,18180 7905,18188 7925,18197C7960,18214 7960,18214 7941,18234C7919,18259 7896,18430 7880,18680C7875,18765 7864,18900 7855,18979C7847,19058 7840,19124 7840,19126C7840,19136 7802,19129 7783,19115Z" style="fill-rule:nonzero;"/>
                <path d="M11860,14822L11775,14794L11769,14640L11880,14640L11880,14720L12060,14720L12060,14681C12060,14656 12048,14619 12028,14579C11994,14516 11989,14511 11932,14490C11891,14474 11860,14431 11853,14380C11847,14341 11848,14340 11879,14340C11903,14340 11921,14330 11953,14296C11976,14272 12010,14245 12028,14236C12045,14227 12060,14217 12060,14215C12060,14213 12050,14190 12038,14165C12011,14109 11978,14096 11860,14096C11760,14096 11679,14114 11654,14141C11638,14159 11636,14159 11618,14144C11592,14120 11593,14023 11620,13970C11631,13948 11642,13930 11645,13930C11647,13930 11682,13937 11722,13945C11762,13954 11828,13965 11869,13971C12013,13991 12104,14043 12141,14125C12171,14191 12160,14282 12111,14379L12088,14422L12120,14455C12178,14515 12208,14668 12176,14744C12151,14804 12065,14850 11980,14850C11961,14849 11907,14837 11860,14822Z" style="fill-rule:nonzero;"/>
                <path d="M9655,14824C9563,14774 9480,14679 9480,14622C9480,14588 9481,14588 9512,14594C9553,14602 9590,14626 9590,14645C9590,14665 9631,14680 9686,14680C9725,14680 9730,14678 9730,14657C9730,14568 9555,14213 9468,14127C9447,14106 9430,14081 9430,14071C9430,14059 9454,14037 9496,14009C9575,13958 9651,13941 9802,13940C9939,13940 9996,13954 10021,13993C10043,14030 10045,14040 10027,14040C10020,14040 10009,14049 10002,14060C9992,14077 9979,14080 9921,14080C9806,14080 9750,14095 9708,14138L9671,14175L9746,14299C9836,14450 9863,14517 9864,14590C9864,14658 9838,14718 9779,14782C9729,14836 9698,14847 9655,14824Z" style="fill-rule:nonzero;"/>
            </g>
        </g>
        <g id="Dsus41" serif:id="Dsus4">
        </g>
    </g>
</svg>
