<?xml version="1.0" encoding="iso-8859-1"?>
<!-- Generator: Adobe Illustrator 16.0.0, SVG Export Plug-In . SVG Version: 6.00 Build 0)  -->
<!DOCTYPE svg PUBLIC "-//W3C//DTD SVG 1.1//EN" "http://www.w3.org/Graphics/SVG/1.1/DTD/svg11.dtd">
<svg version="1.1" xmlns="http://www.w3.org/2000/svg" xmlns:xlink="http://www.w3.org/1999/xlink" x="0px" y="0px"
	 width="177.427px" height="266.867px" viewBox="0 0 177.427 266.867" style="enable-background:new 0 0 177.427 266.867;"
	 xml:space="preserve">
<g id="Hm7">
	<g id="Hm7_1_">
		<path style="fill:none;" d="M177.427,266.867c-59.143,0-118.285,0-177.427,0C0,177.911,0,88.955,0,0c59.142,0,118.284,0,177.427,0
			C177.427,88.955,177.427,177.911,177.427,266.867z M146.481,99.248c0-6.562,0.057-12.816-0.016-19.069
			c-0.072-6.285,0.019-12.562,0.237-18.967c3.834,0,7.528,0,11.247,0c0.208-2.761,0.652-5.415-0.852-7.929
			c-1.276,0.088-2.521,0.237-3.767,0.251c-6.096,0.067-12.192,0.145-18.288,0.128c-3.755-0.01-7.509-0.213-11.264-0.273
			c-3.34-0.054-6.706-0.295-10.016,0.016c-6.479,0.611-12.964,0.937-19.464,1.058c-8.761,0.164-17.523,0.379-26.285,0.455
			c-6.057,0.052-12.116-0.086-18.173-0.158c-3.183-0.037-6.364-0.13-9.547-0.16c-0.925-0.008-1.853,0.177-2.778,0.173
			c-5.29-0.025-10.58-0.082-15.869-0.122c-0.382-0.003-0.764,0.041-1.275,0.07c0,1.109-0.057,2.08,0.014,3.042
			c0.086,1.159,0.255,2.313,0.436,3.462c0.147,0.939,0.725,1.362,1.695,1.325c1.25-0.047,2.503-0.036,3.755-0.042
			c1.078-0.006,2.156-0.001,3.19-0.001c0.532,2.877,0.773,22.819,0.312,30.101c-0.183,2.886-0.619,5.755-0.963,8.839
			c-1.154-0.273-2.114-0.525-3.085-0.722c-0.786-0.159-1.583-0.33-2.38-0.355c-0.839-0.027-1.646,0.627-1.692,1.288
			c-0.055,0.785,0.542,1.187,1.145,1.378c0.794,0.253,1.641,0.409,2.474,0.451c1.396,0.07,2.798,0.019,4.367,0.019
			c0,3.39,0,6.637,0,9.942c-3.215,0.787-5.184,3.003-6.327,6.046c-1.036,2.758-1.198,5.606-0.515,8.46
			c0.933,3.897,3.146,6.583,7.291,7.313c0.066,0.012,0.122,0.083,0.276,0.194c-0.323,4.065,0.42,8.229-0.461,12.438
			c-0.479,0.041-0.914,0.128-1.344,0.106c-1.37-0.069-2.738-0.179-4.107-0.272c-1.426-0.1-2.697,0.187-3.63,1.371
			c0.551,0.949,1.366,1.244,2.304,1.201c1.732-0.076,3.461-0.242,5.194-0.297c1.616-0.051,1.873,0.064,2.013,1.703
			c0.161,1.876,0.038,3.777,0.002,5.667c-0.14,7.267-0.378,14.533-0.416,21.8c-0.022,4.561,0.248,9.121,0.383,13.681
			c0.014,0.468,0.002,0.937,0.002,1.469c-2.86,0.226-5.621,0.442-8.398,0.659c-0.308,1.313,0.465,2.166,1.086,3.157
			c2.692-1.127,5.405-1.311,8.244-0.743c-0.015,13.917,1.125,27.701,0.257,41.636c-0.886-0.048-1.68-0.104-2.475-0.13
			c-1.371-0.046-2.743-0.105-4.114-0.092c-0.597,0.006-1.232,0.083-1.775,0.308c-0.386,0.16-0.828,0.576-0.924,0.959
			c-0.147,0.582,0.342,0.964,0.896,1.093c0.545,0.126,1.113,0.232,1.669,0.221c1.896-0.04,3.791-0.195,5.686-0.191
			c1.543,0.002,1.654,0.176,1.717,1.66c0.021,0.523,0.021,1.05-0.004,1.573c-0.201,4.109-0.44,8.218-0.588,12.33
			c-0.023,0.624,0.263,1.324,0.591,1.882c0.571,0.973,1.848,0.863,2.299-0.186c0.214-0.497,0.269-1.094,0.269-1.645
			c-0.001-2.949-0.075-5.897-0.059-8.846c0.012-2.086,0.128-4.172,0.199-6.304c6.223,0.089,12.295,0.174,18.423,0.26
			c0.024,0.359,0.051,0.634,0.061,0.91c0.162,4.842,0.294,9.685,0.51,14.525c0.032,0.706,0.388,1.433,0.738,2.071
			c0.115,0.211,0.733,0.315,1.039,0.215c0.661-0.215,1.129-1.336,1.021-2.018c-0.113-0.708-0.231-1.427-0.231-2.14
			c-0.002-3.837,0.034-7.673,0.054-11.51c0.003-0.672,0-1.342,0-1.963c7.257-0.09,14.421-0.178,21.648-0.269
			c0.036,0.306,0.102,0.619,0.108,0.933c0.086,4.119,0.167,8.237,0.241,12.356c0.023,1.292-0.004,2.586,0.039,3.876
			c0.025,0.815,0.576,1.324,1.287,1.294c0.726-0.031,1.129-0.587,1.061-1.439c-0.042-0.521-0.074-1.044-0.085-1.568
			c-0.082-3.795-0.164-7.59-0.229-11.385c-0.024-1.394-0.004-2.787-0.004-4.118c7.246-0.18,14.412-0.356,21.645-0.535
			c0.021,0.229,0.057,0.461,0.063,0.695c0.104,3.876,0.251,7.751,0.29,11.627c0.019,1.883-0.191,3.767-0.232,5.652
			c-0.008,0.34,0.218,0.812,0.49,0.997c0.273,0.187,0.791,0.221,1.108,0.092c0.737-0.298,0.817-0.977,0.815-1.716
			c-0.021-5.292-0.011-10.583-0.011-15.875c0-0.431,0-0.86,0-1.374c6.868-0.179,13.581-0.354,20.359-0.53
			c0.057,1.294,0.142,2.419,0.149,3.545c0.03,4.604,0.035,9.209,0.058,13.813c0.002,0.359-0.038,0.782,0.131,1.06
			c0.207,0.339,0.667,0.815,0.922,0.764c0.359-0.074,0.709-0.536,0.91-0.913c0.156-0.293,0.103-0.712,0.098-1.073
			c-0.083-5.49-0.174-10.981-0.255-16.471c-0.004-0.227,0.067-0.453,0.079-0.527c6.163-0.4,12.219-0.795,18.348-1.193
			c0.045,0.493,0.097,0.89,0.112,1.287c0.23,5.487,0.451,10.975,0.685,16.46c0.02,0.44,0.03,0.915,0.205,1.3
			c0.146,0.32,0.514,0.71,0.814,0.738c0.286,0.027,0.716-0.308,0.896-0.599c0.219-0.354,0.293-0.824,0.342-1.253
			c0.082-0.721,0.117-1.448,0.134-2.176c0.108-4.642,0.21-9.283,0.297-13.925c0.013-0.626-0.067-1.253-0.112-1.98
			c1.261,0,2.374-0.016,3.487,0.005c1.003,0.019,2.027,0.227,3.001,0.08c1.344-0.201,1.558-0.934,0.773-2.024
			c-0.184-0.254-0.343-0.527-0.518-0.799c-2.425-0.164-4.779,0.78-7.3,0.401c-0.094-13.944-0.543-27.808,0.036-41.728
			c2.779,0.069,5.43,0.615,8.087-0.087c-0.095-0.649-0.234-1.241-0.257-1.837c-0.034-0.905-0.469-1.268-1.353-1.304
			c-2.057-0.086-4.111-0.221-6.167-0.346c-1.201-0.071-1.208-0.078-1.263-1.242c-0.083-1.773-0.21-3.548-0.223-5.323
			c-0.055-7.791-0.119-15.584-0.093-23.375c0.015-4.198,0.201-8.396,0.32-12.595c0.037-1.294,0.142-1.372,1.445-1.17
			c0.916,0.142,1.828,0.42,2.745,0.433c0.855,0.012,1.748-0.15,2.563-0.422c0.536-0.179,1.103-0.61,0.884-1.385
			c-0.207-0.732-1.208-1.39-1.92-1.271c-0.915,0.15-1.822,0.364-2.742,0.468c-1.223,0.137-2.457,0.253-3.51-0.075
			c-0.124-3.912-0.241-7.648-0.359-11.414c0-0.001,0.025-0.045,0.058-0.051c0.357-0.06,0.715-0.123,1.075-0.169
			c3.135-0.407,5.041-2.273,5.855-5.207c0.921-3.313,0.488-6.575-0.935-9.68c-1.189-2.593-2.945-4.627-6.024-5.297
			c0.112-4.229,0.224-8.396,0.337-12.676c1.098,0.064,1.938,0.128,2.779,0.161c1.57,0.061,3.143,0.167,4.711,0.13
			c0.968-0.023,1.84-0.429,2.519-1.47c-0.842-0.342-1.559-0.823-2.315-0.9c-1.636-0.167-3.29-0.137-4.938-0.167
			C148.625,99.232,147.588,99.248,146.481,99.248z M118.627,15.896c0.428-1.498,0.918-2.908,1.222-4.356
			c0.355-1.697-0.342-2.402-2.055-2.377c-3.421,0.049-6.854,0.38-10.243-0.413c-0.252-0.059-0.6-0.049-0.801,0.084
			c-0.938,0.615-0.879,2.53,0.152,2.937c1.033,0.408,2.148,0.687,3.252,0.812c1.713,0.194,3.444,0.209,5.303,0.308
			c-0.356,1.408-0.684,2.699-1.001,3.95c-1.437-0.149-2.636-0.329-3.839-0.385c-1.557-0.073-1.982,0.49-1.461,1.96
			c0.138,0.387,0.594,0.78,0.994,0.926c0.588,0.216,1.256,0.246,1.895,0.299c1.64,0.138,1.965,0.53,1.777,2.132
			c-0.168,1.44-0.343,2.882-0.418,4.329c-0.029,0.581,0.083,1.232,0.336,1.752c0.628,1.289,1.884,1.312,2.615,0.08
			c0.241-0.406,0.428-0.887,0.483-1.353c0.188-1.559,0.274-3.129,0.462-4.688c0.094-0.772,0.324-1.527,0.483-2.246
			c2.179,0.078,3.002-0.341,3.179-1.499C121.13,17.05,120.534,16.47,118.627,15.896z M72.761,10.82
			c-0.693,2.302-0.683,4.599-0.398,6.876c0.349,2.798,0.867,5.575,1.316,8.361c0.171,1.068,0.504,1.286,1.77,1.179
			c1.037-0.087,1.189-0.242,1.166-1.389c-0.012-0.561-0.126-1.119-0.185-1.679c-0.109-1.059-0.213-2.118-0.326-3.26
			c1.67-0.161,3.089-0.296,4.669-0.447c0,1.55-0.023,2.957,0.015,4.363c0.01,0.366,0.105,0.814,0.334,1.073
			c0.637,0.726,1.343,1.396,2.064,2.042c0.53,0.475,1.174,0.839,1.848,0.303c0.589-0.469,0.892-1.052,0.656-1.908
			c-0.373-1.356-0.661-2.744-0.873-4.135c-0.485-3.188-0.949-6.381-1.328-9.583c-0.158-1.338-0.785-2.117-2.196-2.47
			c-1.553,2.21-0.453,4.834-0.953,7.239c-1.587,0.188-3.125,0.37-4.765,0.564c-0.069-0.829-0.126-1.506-0.183-2.184
			c-0.082-1.003-0.097-2.018-0.263-3.006C74.91,11.447,74.281,10.959,72.761,10.82z M87.041,16.815
			c-0.119,0.066-0.239,0.133-0.358,0.2c-0.094,0.743-0.381,1.523-0.248,2.223c0.508,2.687,1.137,5.352,1.753,8.017
			c0.121,0.516,1.266,0.95,1.85,0.787c0.747-0.209,0.517-0.781,0.496-1.288c-0.064-1.571-0.181-3.144-0.14-4.712
			c0.016-0.649,0.274-1.351,0.607-1.921c0.482-0.828,1.055-0.88,1.95-0.511c1.622,0.667,2.331,1.884,2.323,3.596
			c-0.004,1.048-0.014,2.1,0.076,3.141c0.06,0.701,0.478,1.221,1.261,1.209c0.741-0.011,1.392-0.304,1.538-1.098
			c0.129-0.704,0.127-1.436,0.13-2.156c0.004-1.167-0.134-2.343-0.03-3.5c0.104-1.173,0.865-1.781,2.014-1.896
			c1.309-0.13,1.616,0.058,2.177,1.378c0.142,0.333,0.298,0.676,0.343,1.028c0.201,1.554,0.448,3.111,0.504,4.672
			c0.03,0.879,0.366,1.254,1.148,1.368c0.348,0.051,0.701,0.061,1.299,0.11c0.104-1.149,0.434-2.254,0.246-3.261
			c-0.367-1.967-1.066-3.87-1.545-5.819c-0.287-1.17-1.066-1.748-2.098-2.116c-2.428-0.867-4.428-0.196-6.229,2.081
			c-2.27-2.141-5.269-2.757-7.263-0.503C88.234,17.496,87.637,17.156,87.041,16.815z M74.14,33.974
			c-1.31,0.896-1.973,1.963-2.12,3.238c-0.156,1.352-0.17,2.732-0.104,4.092c0.13,2.679,0.956,5.32,0.335,8.057
			c0.278,0.121,0.49,0.229,0.713,0.306c3.663,1.261,8.923-0.323,11.773-3.541c1.849-2.088,2.007-3.312,0.645-5.769
			c-2.196-3.961-5.659-5.688-10.104-5.621C74.754,34.745,74.163,34.958,74.14,33.974z M105.238,51.266
			c0.812-0.119,1.487-0.187,2.148-0.321c0.621-0.126,0.771-0.49,0.676-1.157c-0.268-1.871-0.476-3.754-0.604-5.64
			c-0.102-1.481-0.408-2.02-1.838-2.375c-0.58-0.144-1.215-0.236-1.8-0.158c-1.704,0.23-3.394,0.559-5.069,0.845
			c0.176,2.288,0.316,2.412,2.311,2.147c0.398-0.053,0.788-0.18,1.188-0.224c0.506-0.056,1.016-0.063,1.883-0.111
			c-0.459,0.832-0.668,1.507-1.108,1.952c-1.21,1.219-2.746,1.655-4.44,1.417c-1.217-0.171-2.1-0.812-2.42-2.059
			c-0.223-0.857-0.49-1.714-0.594-2.588c-0.253-2.156,1.062-4.544,2.975-5.563c1.754-0.934,3.089-0.724,4.411,0.693
			c0.583,0.625,1.214,1.143,2.172,0.998c0.267-1.286-0.03-2.293-1.038-3.069c-0.254-0.196-0.438-0.493-0.705-0.658
			c-0.454-0.279-0.945-0.681-1.43-0.692c-1.158-0.029-2.357-0.006-3.479,0.256c-3.3,0.771-5.64,3.846-5.367,6.896
			c0.046,0.521,0.141,1.042,0.267,1.549c1.238,5.018,5.913,7.518,10.771,5.773c0.244-0.087,0.498-0.143,0.795-0.227
			C105.04,49.716,105.126,50.388,105.238,51.266z M27.409,37.521c1.812-0.809,3.628-0.744,5.445-0.681
			c1.322,0.046,1.524-0.101,1.746-1.381c0.061-0.355,0.085-0.726,0.059-1.084c-0.056-0.76-0.481-1.143-1.215-0.913
			c-1.447,0.453-2.874,0.12-4.315,0.11c-1.063-0.007-2.164,0.162-3.182,0.473c-0.899,0.275-1.388,0.992-1.25,2.071
			c0.399,3.16,0.728,6.329,1.104,9.493c0.156,1.312,0.361,2.619,0.552,3.983c0.453,0,0.811,0.017,1.167-0.003
			c2.177-0.123,4.353-0.252,6.528-0.385c1.504-0.092,1.636-0.216,1.763-1.685c0.03-0.344,0.004-0.693,0.004-1.114
			c-0.584-0.033-1.063-0.097-1.54-0.079c-1.693,0.064-3.387,0.136-5.077,0.249c-0.51,0.034-0.897-0.013-0.994-0.582
			c-0.166-0.975-0.307-1.954-0.461-2.945c0.689-0.124,1.238-0.243,1.792-0.318c0.555-0.077,1.117-0.111,1.661-0.163
			c0.739-2.169-0.001-3.156-2.21-2.989c-0.505,0.038-1.009,0.1-1.578,0.158C27.409,38.939,27.409,38.265,27.409,37.521z
			 M47.066,50.499c0.441-0.963,0.85-1.825,1.232-2.699c0.376-0.86,0.939-1.265,1.951-1.285c1.361-0.028,2.726-0.24,4.071-0.476
			c1.208-0.212,1.413-0.191,1.922,0.953c0.376,0.844,0.618,1.751,1.027,2.578c0.616,1.246,1.302,1.389,2.426,0.618
			c0.766-0.524,0.921-1.1,0.413-2.09c-1.986-3.872-4.009-7.726-5.996-11.598c-0.177-0.346-0.205-0.774-0.274-1.169
			c-0.048-0.275-0.049-0.558-0.071-0.837c-0.374,0.046-0.771,0.032-1.112,0.164c-0.176,0.067-0.261,0.389-0.37,0.604
			c-2.088,4.138-4.193,8.266-6.25,12.419C45.25,49.265,45.322,49.354,47.066,50.499z M117.737,49.152
			c1.953-0.005,2.068-0.068,2.232-1.64c0.119-1.137,0.13-2.285,0.198-3.577c1.629-0.905,3.614-0.471,5.591-0.889
			c0.048,0.648,0.144,1.166,0.114,1.676c-0.058,1.045-0.233,2.085-0.268,3.13c-0.064,1.991,0.299,2.328,2.294,2.287
			c0.072-0.001,0.143-0.065,0.292-0.137c0.174-0.573,0.665-1.296,0.504-1.816c-0.665-2.153-0.445-4.304-0.349-6.478
			c0.056-1.239,0.028-2.507-0.176-3.726c-0.26-1.554-1.066-2.821-2.698-3.594c0,1.708-0.013,3.301,0.004,4.894
			c0.012,1.059-0.168,1.386-1.188,1.627c-1.474,0.348-2.931,0.048-4.546-0.101c0-1.727,0.016-3.333-0.013-4.94
			c-0.006-0.32-0.082-0.829-0.28-0.922c-0.766-0.359-1.595-0.586-2.509-0.9C117.214,39.221,117.473,44.153,117.737,49.152z
			 M151.242,48.082c-1.468-1.132-3.021-1.111-4.609-0.982c-1.196,0.097-2.396,0.13-3.606,0.192
			c-0.069-0.329-0.096-0.528-0.151-0.718c-0.601-2.036-0.206-2.518,1.988-2.416c0.16,0.008,0.321,0.046,0.48,0.041
			c0.671-0.022,1.341-0.056,2.151-0.091c-0.247-1.082-0.457-2-0.659-2.887c-1.509-0.127-2.9,0.723-4.187-0.026
			c-0.146-1.249-0.278-2.388-0.426-3.648c2.736-0.024,5.405,0.579,8.102-0.448c-0.213-0.957-0.416-1.871-0.618-2.779
			c-1.733,0.131-3.297,0.27-4.863,0.361c-1.551,0.091-3.104,0.133-4.633,0.196c-0.332,2.915,0.433,13.007,1.058,14.748
			c1.613,0.08,3.178,0.139,4.74,0.241C147.974,49.995,149.786,49.718,151.242,48.082z"/>
		<path style="fill-rule:evenodd;clip-rule:evenodd;" d="M146.481,99.248c1.106,0,2.144-0.016,3.179,0.004
			c1.648,0.03,3.303,0,4.938,0.167c0.757,0.078,1.474,0.559,2.315,0.9c-0.679,1.041-1.551,1.447-2.519,1.47
			c-1.568,0.037-3.141-0.069-4.711-0.13c-0.841-0.033-1.682-0.096-2.779-0.161c-0.113,4.28-0.225,8.448-0.337,12.676
			c3.079,0.67,4.835,2.705,6.024,5.297c1.423,3.105,1.855,6.367,0.935,9.68c-0.814,2.934-2.721,4.8-5.855,5.207
			c-0.36,0.046-0.718,0.109-1.075,0.169c-0.032,0.006-0.058,0.05-0.058,0.051c0.118,3.766,0.235,7.502,0.359,11.414
			c1.053,0.328,2.287,0.212,3.51,0.075c0.92-0.104,1.827-0.317,2.742-0.468c0.712-0.118,1.713,0.539,1.92,1.271
			c0.219,0.774-0.348,1.206-0.884,1.385c-0.815,0.271-1.708,0.434-2.563,0.422c-0.917-0.013-1.829-0.291-2.745-0.433
			c-1.304-0.202-1.408-0.124-1.445,1.17c-0.119,4.198-0.306,8.396-0.32,12.595c-0.026,7.791,0.038,15.584,0.093,23.375
			c0.013,1.775,0.14,3.55,0.223,5.323c0.055,1.164,0.062,1.171,1.263,1.242c2.056,0.125,4.11,0.26,6.167,0.346
			c0.884,0.036,1.318,0.398,1.353,1.304c0.022,0.596,0.162,1.188,0.257,1.837c-2.657,0.702-5.308,0.156-8.087,0.087
			c-0.579,13.92-0.13,27.783-0.036,41.728c2.521,0.379,4.875-0.565,7.3-0.401c0.175,0.271,0.334,0.545,0.518,0.799
			c0.784,1.091,0.57,1.823-0.773,2.024c-0.974,0.146-1.998-0.062-3.001-0.08c-1.113-0.021-2.227-0.005-3.487-0.005
			c0.045,0.728,0.125,1.354,0.112,1.98c-0.087,4.642-0.188,9.283-0.297,13.925c-0.017,0.728-0.052,1.455-0.134,2.176
			c-0.049,0.429-0.123,0.898-0.342,1.253c-0.181,0.291-0.61,0.626-0.896,0.599c-0.301-0.028-0.668-0.418-0.814-0.738
			c-0.175-0.385-0.186-0.859-0.205-1.3c-0.233-5.485-0.454-10.973-0.685-16.46c-0.016-0.397-0.067-0.794-0.112-1.287
			c-6.129,0.398-12.185,0.793-18.348,1.193c-0.012,0.074-0.083,0.301-0.079,0.527c0.081,5.489,0.172,10.98,0.255,16.471
			c0.005,0.361,0.059,0.78-0.098,1.073c-0.201,0.377-0.551,0.839-0.91,0.913c-0.255,0.052-0.715-0.425-0.922-0.764
			c-0.169-0.277-0.129-0.7-0.131-1.06c-0.022-4.604-0.027-9.209-0.058-13.813c-0.008-1.126-0.093-2.251-0.149-3.545
			c-6.778,0.177-13.491,0.352-20.359,0.53c0,0.514,0,0.943,0,1.374c0,5.292-0.01,10.583,0.011,15.875
			c0.002,0.739-0.078,1.418-0.815,1.716c-0.317,0.129-0.835,0.095-1.108-0.092c-0.272-0.186-0.498-0.657-0.49-0.997
			c0.041-1.886,0.251-3.77,0.232-5.652c-0.039-3.876-0.186-7.751-0.29-11.627c-0.007-0.234-0.042-0.467-0.063-0.695
			c-7.232,0.179-14.399,0.355-21.645,0.535c0,1.331-0.02,2.725,0.004,4.118c0.066,3.795,0.148,7.59,0.229,11.385
			c0.011,0.524,0.043,1.047,0.085,1.568c0.068,0.853-0.335,1.408-1.061,1.439c-0.711,0.03-1.262-0.479-1.287-1.294
			c-0.042-1.29-0.015-2.584-0.039-3.876c-0.073-4.119-0.155-8.237-0.241-12.356c-0.007-0.313-0.072-0.627-0.108-0.933
			c-7.227,0.091-14.391,0.179-21.648,0.269c0,0.621,0.003,1.291,0,1.963c-0.021,3.837-0.056,7.673-0.054,11.51
			c0,0.713,0.118,1.432,0.231,2.14c0.108,0.682-0.36,1.803-1.021,2.018c-0.306,0.101-0.924-0.004-1.039-0.215
			c-0.35-0.639-0.706-1.365-0.738-2.071c-0.216-4.841-0.348-9.684-0.51-14.525c-0.01-0.276-0.037-0.551-0.061-0.91
			c-6.128-0.086-12.2-0.171-18.423-0.26c-0.071,2.132-0.187,4.218-0.199,6.304c-0.017,2.948,0.058,5.896,0.059,8.846
			c0,0.551-0.055,1.147-0.269,1.645c-0.451,1.049-1.728,1.158-2.299,0.186c-0.328-0.558-0.614-1.258-0.591-1.882
			c0.148-4.112,0.387-8.221,0.588-12.33c0.025-0.523,0.025-1.05,0.004-1.573c-0.063-1.484-0.174-1.658-1.717-1.66
			c-1.895-0.004-3.789,0.151-5.686,0.191c-0.556,0.012-1.124-0.095-1.669-0.221c-0.553-0.129-1.042-0.511-0.896-1.093
			c0.096-0.383,0.538-0.799,0.924-0.959c0.543-0.225,1.179-0.302,1.775-0.308c1.371-0.014,2.743,0.046,4.114,0.092
			c0.795,0.026,1.589,0.082,2.475,0.13c0.867-13.935-0.272-27.719-0.257-41.636c-2.839-0.567-5.552-0.384-8.244,0.743
			c-0.621-0.991-1.394-1.844-1.086-3.157c2.777-0.217,5.538-0.434,8.398-0.659c0-0.532,0.012-1.001-0.002-1.469
			c-0.135-4.56-0.405-9.12-0.383-13.681c0.038-7.267,0.275-14.533,0.416-21.8c0.036-1.89,0.159-3.791-0.002-5.667
			c-0.14-1.639-0.397-1.754-2.013-1.703c-1.733,0.055-3.462,0.221-5.194,0.297c-0.938,0.043-1.752-0.252-2.304-1.201
			c0.933-1.185,2.204-1.471,3.63-1.371c1.369,0.094,2.737,0.203,4.107,0.272c0.43,0.021,0.866-0.065,1.344-0.106
			c0.882-4.209,0.138-8.373,0.461-12.438c-0.154-0.111-0.21-0.183-0.276-0.194c-4.145-0.73-6.357-3.416-7.291-7.313
			c-0.684-2.854-0.521-5.703,0.515-8.46c1.143-3.043,3.112-5.259,6.327-6.046c0-3.305,0-6.552,0-9.942
			c-1.569,0-2.972,0.051-4.367-0.019c-0.833-0.042-1.68-0.198-2.474-0.451c-0.604-0.192-1.2-0.594-1.145-1.378
			c0.046-0.66,0.853-1.314,1.692-1.288c0.797,0.025,1.594,0.196,2.38,0.355c0.971,0.197,1.931,0.449,3.085,0.722
			c0.344-3.083,0.78-5.953,0.963-8.839c0.462-7.282,0.22-27.224-0.312-30.101c-1.035,0-2.112-0.005-3.19,0.001
			c-1.251,0.007-2.504-0.005-3.755,0.042c-0.97,0.037-1.548-0.386-1.695-1.325c-0.181-1.149-0.35-2.303-0.436-3.462
			c-0.071-0.962-0.014-1.933-0.014-3.042c0.512-0.029,0.894-0.073,1.275-0.07c5.289,0.04,10.58,0.096,15.869,0.122
			c0.926,0.004,1.853-0.181,2.778-0.173c3.183,0.029,6.364,0.123,9.547,0.16c6.058,0.071,12.116,0.21,18.173,0.158
			c8.762-0.075,17.524-0.291,26.285-0.455c6.5-0.122,12.984-0.447,19.464-1.058c3.31-0.312,6.676-0.07,10.016-0.016
			c3.755,0.06,7.509,0.263,11.264,0.273c6.096,0.017,12.192-0.061,18.288-0.128c1.246-0.014,2.49-0.163,3.767-0.251
			c1.504,2.514,1.06,5.168,0.852,7.929c-3.719,0-7.413,0-11.247,0c-0.219,6.405-0.31,12.683-0.237,18.967
			C146.538,86.431,146.481,92.685,146.481,99.248z M100.551,192.923c0.286-14.163,0.539-28.423-0.007-42.791
			c-7.339,0.211-14.501,0.417-21.562,0.62c0.128,14.201,0.257,28.293,0.386,42.605C86.46,193.212,93.423,193.069,100.551,192.923z
			 M54.787,150.918c0,1.33-0.01,2.412,0.003,3.494c0.042,3.591,0.098,7.182,0.137,10.771c0.038,3.504,0.043,7.008,0.104,10.511
			c0.017,0.964,0.254,1.926,0.261,2.89c0.035,4.76,0.024,9.522,0.036,14.284c0.001,0.262,0.066,0.524,0.091,0.7
			c6.974-0.235,13.854-0.467,20.87-0.702c1.124-14.009,0.32-27.993,0.555-41.948C69.433,150.918,62.188,150.918,54.787,150.918z
			 M99.438,61.649c-7.463,0.103-14.729,0.203-22.033,0.303c0.667,12.934,0.494,25.793,0.309,38.689c7.165,0,14.281,0,21.449,0
			c0.479-5.038,0.509-9.993,0.389-14.957c-0.162-6.695-0.249-13.393-0.334-20.09C99.2,64.393,99.346,63.188,99.438,61.649z
			 M53.536,100.665c7.359,0.931,14.425-0.294,21.632,0.035c-0.139-12.906,0.994-25.702-0.043-38.583
			c-7.018,0.175-13.898,0.347-20.882,0.521c-0.044,0.584-0.1,1.1-0.121,1.616c-0.146,3.628-0.297,7.256-0.423,10.884
			c-0.22,6.334-0.258,12.667,0.273,18.991c0.074,0.884,0.217,1.778,0.147,2.654C54.018,98.041,53.752,99.285,53.536,100.665z
			 M103.789,195.812c0.366,14.355,0.724,28.364,1.08,42.403c6.68,0.497,13.291,0.136,19.826-0.549
			c-0.591-14.126-1.176-28.094-1.75-41.854C116.429,195.812,110.115,195.812,103.789,195.812z M52.115,193.789
			c0.336-1.79,0.019-41.389-0.341-42.824c-1.039-0.068-2.117-0.182-3.196-0.203c-4.679-0.097-9.358-0.166-14.038-0.246
			c-0.977-0.018-1.322,0.266-1.337,1.268c-0.072,4.923-0.238,9.848-0.153,14.769c0.153,8.915,0.459,17.828,0.7,26.742
			c0.009,0.312,0.002,0.623,0.002,1.044C39.941,194.524,46.005,194.204,52.115,193.789z M79.49,212.479
			c0.703,0.249,1.277,0.43,1.833,0.655c0.325,0.133,0.693,0.272,0.92,0.521c1.225,1.34,2.453,2.68,3.603,4.083
			c3.186,3.889,2.951,7.975-0.717,11.39c-1.233,1.148-2.669,2.077-3.998,3.127c-0.269,0.211-0.667,0.499-0.676,0.764
			c-0.061,1.714-0.031,3.432-0.031,5.182c7.454,0.312,14.69,0.272,21.975,0c0-0.44,0.014-0.756-0.004-1.069
			c-0.102-1.894-0.275-3.785-0.309-5.68c-0.102-5.851-0.098-11.704-0.24-17.553c-0.104-4.274-0.33-8.549-0.589-12.817
			c-0.106-1.747-0.446-3.481-0.707-5.433c-2.226,0.201-4.3,0.391-6.374,0.576c-0.281,0.025-0.563,0.035-0.846,0.037
			c-4.114,0.034-8.227,0.058-12.339,0.11c-0.545,0.007-1.088,0.163-1.501,0.229C79.49,201.988,79.49,207.225,79.49,212.479z
			 M125.484,195.633c-0.048,0.686-0.121,1.125-0.104,1.561c0.473,12.705,0.95,25.41,1.44,38.114
			c0.032,0.838,0.172,1.673,0.289,2.759c6.108-0.236,12.178-0.472,18.334-0.71c0.062-0.314,0.16-0.619,0.176-0.928
			c0.327-6.374,0.27-12.749-0.047-19.122c-0.28-5.645-0.572-11.288-0.822-16.934c-0.07-1.601-0.011-3.206-0.011-4.74
			C138.25,195.633,131.928,195.633,125.484,195.633z M52.901,239.294c0.967-4.972,0.303-38.987-0.833-42.748
			c-6.078,0.209-12.183,0.419-18.537,0.638c0.49,14.09,0.976,28.061,1.467,42.159C41.026,238.556,46.978,238.861,52.901,239.294z
			 M55.102,196.626c0.399,14.19,0.794,28.245,1.196,42.533c7.16-0.201,14.324-0.404,21.705-0.611
			c-0.127-2.219-0.245-4.274-0.363-6.336c-3.087-0.047-5.076-1.548-6.559-3.844c-1.231-1.906-1.915-4.026-1.963-6.277
			c-0.108-4.984,1.702-6.791,5.435-8.257c0.523-0.205,1.076-0.337,1.612-0.512c0.294-0.096,0.583-0.206,0.96-0.34
			c-0.524-5.543,0.135-11.089-0.859-16.623C69.168,196.448,62.167,196.537,55.102,196.626z M123.282,182.527
			c-0.338-0.021-0.66-0.026-0.978-0.062c-2.665-0.3-4.585-1.618-5.682-4.105c-2.085-4.731,0.311-13.691,7.057-14.51
			c-0.097-4.716-0.192-9.444-0.289-14.192c-6.87,0.156-13.584,0.308-20.328,0.459c0,0.199-0.001,0.396,0,0.596
			c0.035,4.439,0.174,8.881,0.084,13.318c-0.17,8.313-0.557,16.623-0.113,24.937c0.074,1.396,0.206,2.79,0.318,4.274
			c6.684,0.58,13.215-0.499,19.931-0.269C123.282,189.396,123.282,186.019,123.282,182.527z M121.679,99.639
			c0.4-3.663,0.373-36.765-0.046-38.104c-6.595,0.529-13.245-0.4-19.99,0.341c-0.068,12.889,0.141,25.686,0.626,38.596
			C108.819,99.533,115.27,100.672,121.679,99.639z M143.529,61.613c-0.348-0.022-0.626-0.056-0.905-0.057
			c-5.41-0.005-10.82-0.005-16.231-0.008c-1.551-0.001-1.548-0.004-1.576,1.575c-0.007,0.322-0.038,0.645-0.052,0.967
			c-0.119,2.903-0.296,5.805-0.347,8.708c-0.128,7.507-0.204,15.015-0.293,22.523c-0.019,1.482-0.002,2.966-0.002,4.341
			c6.51-0.164,12.939-0.327,19.431-0.491C143.83,86.54,144.154,74.093,143.529,61.613z M32.328,62.552
			c-0.52,12.611,0.877,25.274-0.497,37.923c6.542,1.351,12.886,0.226,19.392,0.231c0-12.771,0-25.383,0-38.155
			C44.986,62.552,38.78,62.552,32.328,62.552z M143.698,192.089c1.495-14.481,0.905-28.827,0.389-43.351
			c-6.248,0.374-12.418,0.744-18.668,1.119c0,0.297-0.007,0.616,0.001,0.936c0.104,4.235,0.226,8.471,0.302,12.707
			c0.011,0.601,0.288,0.807,0.757,1.058c1.594,0.854,3.222,1.673,4.705,2.696c1.39,0.961,2.306,2.369,2.629,4.072
			c0.595,3.138-0.538,5.701-2.726,7.871c-1.534,1.521-3.433,2.36-5.613,2.746c0,3.66,0,7.271,0,10.809
			c4.505-0.041,8.898-0.045,13.291-0.137c1.568-0.033,3.133-0.278,4.699-0.434C143.575,192.172,143.682,192.096,143.698,192.089z
			 M54.51,134.418c0,4.38,0,8.758,0,13.268c7.265,0.484,14.426-0.196,21.776-0.019c-0.103-4.397-0.202-8.642-0.306-13.048
			C68.751,134.551,61.702,134.484,54.51,134.418z M78.456,134.603c0.144,4.29,0.286,8.501,0.422,12.567c7.336,0,14.583,0,21.895,0
			c-0.141-4.33-0.273-8.457-0.405-12.567C93.148,134.603,85.901,134.603,78.456,134.603z M103.293,147.417
			c6.746-0.169,13.262-0.331,19.881-0.495c-0.2-4.197-0.389-8.166-0.583-12.234c-6.553-0.172-12.986-0.34-19.65-0.516
			C103.06,138.648,103.174,142.939,103.293,147.417z M78.209,103.366c-0.602,3.471-0.16,6.995-0.217,10.708
			c7.357,0.17,14.593,0.338,21.998,0.509c-0.463-4.145,0.518-8.158-0.762-11.949C92.164,102.88,85.241,103.121,78.209,103.366z
			 M51.511,147.861c0-4.527,0-8.906,0-13.367c-6.153,0.199-12.305,0.399-18.316,0.595c0,4.288,0,8.533,0,12.772
			C39.356,147.861,45.319,147.861,51.511,147.861z M124.06,114.296c6.499-0.115,12.851-0.227,19.333-0.341c0-3.944,0-7.991,0-12.113
			c-6.434-0.106-12.834-0.39-19.333,0.302C124.06,106.201,124.06,110.176,124.06,114.296z M102.092,102.658
			c-0.261,4.039,0.237,10.454,0.912,11.855c6.123-0.137,12.272-0.275,18.497-0.415c0.021-4.071,0.638-8.098,0.294-12.238
			C115.165,102.433,108.625,101.917,102.092,102.658z M124.952,134.604c0.109,3.25,0.192,6.434,0.329,9.615
			c0.117,2.715,0.146,2.746,2.821,2.653c5.081-0.177,10.162-0.394,15.242-0.602c0.187-0.007,0.37-0.096,0.727-0.194
			c0-3.83,0-7.652,0-11.547c-0.283-0.059-0.592-0.182-0.899-0.179C137.127,134.426,131.083,134.516,124.952,134.604z
			 M53.911,114.155c7.086,0,14.008,0,20.952,0c0.815-3.562-0.263-7.05,0.179-10.683c-7.091,0.18-14.078,0.357-21.11,0.535
			C53.404,107.345,53.687,110.705,53.911,114.155z M50.856,103.559c-3.292,0.492-6.463,0.411-9.642,0.218
			c-2.05-0.125-4.107-0.18-6.161-0.185c-0.866-0.002-2.034-0.087-2.516,0.404c-0.49,0.498-0.396,1.661-0.395,2.532
			c0.003,2.447,0.09,4.893,0.147,7.494c6.474,0,12.737,0,19.097,0C51.077,110.561,51.639,107.055,50.856,103.559z"/>
		<path style="fill-rule:evenodd;clip-rule:evenodd;" d="M114.627,10.896c1.907,0.574,2.503,1.153,2.336,2.252
			c-0.177,1.158-1,1.577-3.179,1.499c-0.159,0.718-0.39,1.474-0.483,2.246c-0.188,1.559-0.274,3.129-0.462,4.688
			c-0.056,0.465-0.242,0.946-0.483,1.353c-0.731,1.232-1.987,1.208-2.615-0.08c-0.253-0.52-0.365-1.171-0.336-1.752
			c0.075-1.446,0.25-2.889,0.418-4.329c0.188-1.603-0.138-1.995-1.777-2.132c-0.639-0.054-1.307-0.083-1.895-0.299
			c-0.4-0.146-0.856-0.54-0.994-0.926c-0.521-1.47-0.096-2.034,1.461-1.96c1.203,0.056,2.402,0.235,3.839,0.385
			c0.317-1.251,0.645-2.542,1.001-3.95c-1.858-0.098-3.59-0.114-5.303-0.308c-1.104-0.125-2.219-0.404-3.252-0.812
			c-1.031-0.406-1.091-2.322-0.152-2.937c0.201-0.133,0.549-0.143,0.801-0.084c3.389,0.793,6.822,0.462,10.243,0.413
			c1.713-0.025,2.41,0.68,2.055,2.377C115.545,7.989,115.055,9.399,114.627,10.896z"/>
		<path style="fill-rule:evenodd;clip-rule:evenodd;" d="M68.761,5.82c1.52,0.139,2.148,0.627,2.368,1.94
			c0.167,0.989,0.182,2.003,0.263,3.006c0.057,0.678,0.114,1.355,0.183,2.184c1.64-0.194,3.178-0.376,4.765-0.564
			c0.5-2.405-0.601-5.029,0.953-7.239c1.411,0.353,2.038,1.132,2.196,2.47c0.379,3.202,0.843,6.395,1.328,9.583
			c0.212,1.391,0.5,2.779,0.873,4.135c0.236,0.855-0.067,1.439-0.656,1.908c-0.674,0.536-1.318,0.172-1.848-0.303
			c-0.721-0.645-1.427-1.315-2.064-2.042c-0.229-0.259-0.325-0.708-0.334-1.073c-0.038-1.406-0.015-2.813-0.015-4.363
			c-1.58,0.151-2.999,0.286-4.669,0.447c0.113,1.142,0.217,2.201,0.326,3.26c0.058,0.56,0.173,1.118,0.185,1.679
			c0.024,1.147-0.128,1.302-1.166,1.389c-1.266,0.107-1.598-0.111-1.77-1.179c-0.449-2.786-0.967-5.563-1.316-8.361
			C68.078,10.419,68.068,8.122,68.761,5.82z"/>
		<path style="fill-rule:evenodd;clip-rule:evenodd;" d="M83.041,11.815c0.597,0.34,1.193,0.681,1.806,1.03
			c1.994-2.254,4.993-1.637,7.263,0.503c1.801-2.277,3.801-2.948,6.229-2.081c1.031,0.369,1.811,0.946,2.098,2.116
			c0.479,1.949,1.178,3.852,1.545,5.819c0.188,1.007-0.143,2.112-0.246,3.261c-0.598-0.049-0.951-0.059-1.299-0.11
			c-0.782-0.114-1.118-0.489-1.148-1.368c-0.056-1.562-0.303-3.118-0.504-4.672c-0.045-0.352-0.201-0.695-0.343-1.028
			c-0.561-1.32-0.868-1.508-2.177-1.378c-1.148,0.115-1.91,0.723-2.014,1.896c-0.104,1.156,0.034,2.333,0.03,3.5
			c-0.003,0.72-0.001,1.453-0.13,2.156c-0.146,0.793-0.797,1.086-1.538,1.098c-0.783,0.012-1.201-0.508-1.261-1.209
			c-0.09-1.042-0.08-2.093-0.076-3.141c0.008-1.712-0.701-2.929-2.323-3.596c-0.896-0.369-1.468-0.317-1.951,0.511
			c-0.333,0.57-0.591,1.271-0.607,1.921c-0.041,1.568,0.076,3.142,0.14,4.712c0.021,0.507,0.251,1.078-0.496,1.288
			c-0.584,0.163-1.729-0.271-1.85-0.787c-0.616-2.665-1.246-5.33-1.753-8.017c-0.133-0.7,0.154-1.48,0.248-2.223
			C82.802,11.949,82.921,11.882,83.041,11.815z"/>
		<path style="fill-rule:evenodd;clip-rule:evenodd;" d="M74.14,33.974c0.023,0.984,0.614,0.771,1.14,0.763
			c4.444-0.067,7.907,1.66,10.104,5.621c1.362,2.457,1.204,3.681-0.645,5.769c-2.851,3.218-8.11,4.801-11.773,3.541
			c-0.223-0.077-0.435-0.186-0.713-0.306c0.621-2.736-0.205-5.378-0.335-8.057c-0.067-1.36-0.052-2.741,0.104-4.092
			C72.167,35.937,72.831,34.87,74.14,33.974z M74.333,37.536c0.32,3.483-0.54,7.002,1.313,10.206
			c1.358-0.523,2.607-0.972,3.83-1.486c0.701-0.295,1.385-0.654,2.028-1.062c0.991-0.628,1.429-1.56,1.462-2.751
			c0.057-2.011-1.107-3.137-2.75-3.865C78.427,37.785,76.519,37.477,74.333,37.536z"/>
		<path style="fill-rule:evenodd;clip-rule:evenodd;" d="M105.238,51.266c-0.112-0.878-0.198-1.55-0.297-2.317
			c-0.297,0.084-0.551,0.14-0.795,0.227c-4.858,1.745-9.533-0.755-10.771-5.773c-0.126-0.508-0.221-1.029-0.267-1.549
			c-0.272-3.05,2.067-6.125,5.367-6.896c1.122-0.262,2.321-0.285,3.479-0.256c0.484,0.012,0.976,0.413,1.43,0.692
			c0.268,0.165,0.451,0.462,0.705,0.658c1.008,0.775,1.305,1.783,1.038,3.069c-0.958,0.145-1.589-0.373-2.172-0.998
			c-1.322-1.417-2.657-1.627-4.411-0.693c-1.912,1.019-3.228,3.408-2.975,5.563c0.104,0.875,0.371,1.731,0.594,2.588
			c0.32,1.247,1.203,1.888,2.42,2.059c1.694,0.238,3.23-0.198,4.44-1.417c0.44-0.445,0.649-1.12,1.108-1.952
			c-0.867,0.048-1.377,0.055-1.883,0.111c-0.399,0.044-0.789,0.171-1.188,0.224c-1.994,0.265-2.135,0.141-2.311-2.147
			c1.676-0.286,3.365-0.615,5.069-0.845c0.585-0.078,1.22,0.014,1.8,0.158c1.43,0.356,1.736,0.894,1.838,2.375
			c0.128,1.885,0.336,3.769,0.604,5.64c0.096,0.667-0.055,1.031-0.676,1.157C106.726,51.079,106.051,51.147,105.238,51.266z"/>
		<path style="fill-rule:evenodd;clip-rule:evenodd;" d="M27.409,37.521c0,0.744,0,1.417,0,2.214
			c0.569-0.058,1.073-0.12,1.578-0.158c2.209-0.167,2.949,0.819,2.21,2.989c-0.543,0.052-1.105,0.086-1.661,0.163
			c-0.555,0.076-1.103,0.194-1.792,0.318c0.154,0.991,0.295,1.971,0.461,2.945c0.097,0.569,0.484,0.616,0.994,0.582
			c1.69-0.113,3.384-0.185,5.077-0.249c0.477-0.018,0.956,0.046,1.54,0.079c0,0.421,0.026,0.77-0.004,1.114
			c-0.127,1.468-0.259,1.592-1.763,1.685c-2.176,0.133-4.352,0.262-6.528,0.385c-0.356,0.02-0.714,0.003-1.167,0.003
			c-0.191-1.364-0.396-2.671-0.552-3.983c-0.376-3.164-0.705-6.333-1.104-9.493c-0.137-1.079,0.351-1.796,1.25-2.071
			c1.018-0.312,2.119-0.48,3.182-0.473c1.441,0.009,2.868,0.342,4.315-0.11c0.734-0.23,1.159,0.153,1.215,0.913
			c0.026,0.358,0.002,0.729-0.059,1.084c-0.221,1.281-0.423,1.427-1.746,1.381C31.037,36.777,29.22,36.713,27.409,37.521z"/>
		<path style="fill-rule:evenodd;clip-rule:evenodd;" d="M47.066,50.499c-1.744-1.145-1.815-1.234-1.031-2.819
			c2.057-4.153,4.162-8.281,6.25-12.419c0.109-0.215,0.194-0.538,0.37-0.604c0.341-0.132,0.739-0.117,1.112-0.164
			c0.022,0.279,0.023,0.562,0.071,0.837c0.069,0.395,0.097,0.823,0.274,1.169c1.986,3.872,4.009,7.726,5.996,11.598
			c0.508,0.99,0.353,1.565-0.413,2.09c-1.125,0.771-1.81,0.628-2.426-0.618c-0.409-0.826-0.651-1.733-1.027-2.578
			c-0.51-1.144-0.714-1.165-1.922-0.953c-1.345,0.236-2.71,0.448-4.071,0.476c-1.012,0.02-1.575,0.425-1.951,1.285
			C47.916,48.673,47.507,49.535,47.066,50.499z M52.681,40.236c-0.685,1.315-1.301,2.496-1.916,3.676
			c0.08,0.085,0.16,0.17,0.239,0.255c1.082-0.509,2.366,0.429,3.44-0.609C53.963,42.461,54.015,41.149,52.681,40.236z"/>
		<path style="fill-rule:evenodd;clip-rule:evenodd;" d="M117.737,49.152c-0.265-4.999-0.523-9.931-0.797-15.106
			c0.914,0.313,1.743,0.541,2.509,0.9c0.198,0.093,0.274,0.603,0.28,0.922c0.028,1.606,0.013,3.213,0.013,4.94
			c1.615,0.149,3.072,0.449,4.546,0.101c1.021-0.241,1.2-0.569,1.188-1.627c-0.017-1.593-0.004-3.186-0.004-4.894
			c1.632,0.773,2.438,2.04,2.698,3.594c0.204,1.219,0.231,2.487,0.176,3.726c-0.097,2.174-0.316,4.325,0.349,6.478
			c0.161,0.521-0.33,1.243-0.504,1.816c-0.149,0.072-0.22,0.135-0.292,0.137c-1.995,0.041-2.358-0.296-2.294-2.287
			c0.034-1.045,0.21-2.085,0.268-3.13c0.029-0.51-0.066-1.028-0.114-1.676c-1.977,0.418-3.962-0.016-5.591,0.889
			c-0.068,1.292-0.079,2.44-0.198,3.577C119.806,49.084,119.69,49.147,117.737,49.152z"/>
		<path style="fill-rule:evenodd;clip-rule:evenodd;" d="M151.242,48.082c-1.456,1.636-3.269,1.913-5.233,1.785
			c-1.562-0.102-3.127-0.161-4.74-0.241c-0.625-1.741-1.39-11.833-1.058-14.748c1.528-0.063,3.082-0.105,4.633-0.196
			c1.566-0.091,3.13-0.23,4.863-0.361c0.202,0.908,0.405,1.823,0.618,2.779c-2.696,1.026-5.365,0.423-8.102,0.448
			c0.147,1.26,0.28,2.399,0.426,3.648c1.286,0.749,2.678-0.102,4.187,0.026c0.202,0.887,0.412,1.805,0.659,2.887
			c-0.811,0.035-1.48,0.069-2.151,0.091c-0.159,0.005-0.32-0.033-0.48-0.041c-2.194-0.103-2.589,0.379-1.988,2.416
			c0.056,0.19,0.082,0.389,0.151,0.718c1.21-0.062,2.41-0.095,3.606-0.192C148.221,46.971,149.774,46.95,151.242,48.082z"/>
		<path style="fill-rule:evenodd;clip-rule:evenodd;fill:none;" d="M100.551,192.923c-7.128,0.146-14.091,0.289-21.183,0.435
			c-0.129-14.312-0.258-28.404-0.386-42.605c7.061-0.203,14.223-0.409,21.562-0.62C101.09,164.5,100.837,178.76,100.551,192.923z"/>
		<path style="fill-rule:evenodd;clip-rule:evenodd;fill:none;" d="M54.787,150.918c7.402,0,14.646,0,22.056,0
			c-0.235,13.955,0.569,27.939-0.555,41.948c-7.016,0.235-13.896,0.467-20.87,0.702c-0.025-0.176-0.09-0.438-0.091-0.7
			c-0.012-4.762-0.001-9.524-0.036-14.284c-0.007-0.964-0.245-1.926-0.261-2.89c-0.06-3.503-0.065-7.007-0.104-10.511
			c-0.04-3.59-0.096-7.181-0.137-10.771C54.777,153.33,54.787,152.248,54.787,150.918z"/>
		<path style="fill-rule:evenodd;clip-rule:evenodd;fill:none;" d="M99.438,61.649c-0.092,1.539-0.237,2.744-0.221,3.946
			c0.085,6.697,0.172,13.395,0.334,20.09c0.12,4.964,0.09,9.919-0.389,14.957c-7.168,0-14.284,0-21.449,0
			c0.186-12.896,0.359-25.755-0.309-38.689C84.709,61.852,91.975,61.752,99.438,61.649z"/>
		<path style="fill-rule:evenodd;clip-rule:evenodd;fill:none;" d="M53.536,100.665c0.216-1.38,0.482-2.624,0.583-3.882
			c0.07-0.875-0.073-1.77-0.147-2.654c-0.531-6.324-0.493-12.657-0.273-18.991c0.126-3.628,0.277-7.256,0.423-10.884
			c0.021-0.517,0.076-1.032,0.121-1.616c6.984-0.174,13.865-0.346,20.882-0.521c1.038,12.88-0.096,25.676,0.043,38.583
			C67.961,100.37,60.896,101.595,53.536,100.665z"/>
		<path style="fill-rule:evenodd;clip-rule:evenodd;fill:none;" d="M103.789,195.812c6.326,0,12.64,0,19.156,0
			c0.574,13.761,1.159,27.729,1.75,41.854c-6.535,0.685-13.146,1.046-19.826,0.549C104.513,224.176,104.155,210.167,103.789,195.812
			z"/>
		<path style="fill-rule:evenodd;clip-rule:evenodd;fill:none;" d="M52.115,193.789c-6.11,0.415-12.174,0.735-18.364,0.549
			c0-0.421,0.007-0.732-0.002-1.044c-0.241-8.914-0.546-17.827-0.7-26.742c-0.084-4.921,0.081-9.846,0.153-14.769
			c0.016-1.002,0.361-1.285,1.337-1.268c4.68,0.08,9.358,0.149,14.038,0.246c1.08,0.021,2.158,0.135,3.196,0.203
			C52.133,152.4,52.451,191.999,52.115,193.789z"/>
		<path style="fill-rule:evenodd;clip-rule:evenodd;fill:none;" d="M79.49,212.479c0-5.254,0-10.49,0-15.879
			c0.413-0.065,0.956-0.222,1.501-0.229c4.113-0.053,8.226-0.076,12.339-0.11c0.282-0.002,0.564-0.012,0.846-0.037
			c2.074-0.186,4.148-0.375,6.374-0.576c0.261,1.951,0.601,3.686,0.707,5.433c0.259,4.269,0.485,8.543,0.589,12.817
			c0.143,5.849,0.139,11.702,0.24,17.553c0.033,1.895,0.207,3.786,0.309,5.68c0.018,0.313,0.004,0.629,0.004,1.069
			c-7.284,0.272-14.521,0.312-21.975,0c0-1.75-0.03-3.468,0.031-5.182c0.009-0.265,0.407-0.553,0.676-0.764
			c1.329-1.05,2.765-1.979,3.998-3.127c3.668-3.415,3.902-7.501,0.717-11.39c-1.15-1.403-2.378-2.743-3.603-4.083
			c-0.227-0.248-0.595-0.388-0.92-0.521C80.767,212.908,80.193,212.728,79.49,212.479z"/>
		<path style="fill-rule:evenodd;clip-rule:evenodd;fill:none;" d="M125.484,195.633c6.443,0,12.766,0,19.255,0
			c0,1.534-0.06,3.14,0.011,4.74c0.25,5.646,0.542,11.289,0.822,16.934c0.316,6.373,0.374,12.748,0.047,19.122
			c-0.016,0.309-0.114,0.613-0.176,0.928c-6.156,0.238-12.226,0.474-18.334,0.71c-0.117-1.086-0.257-1.921-0.289-2.759
			c-0.49-12.704-0.968-25.409-1.44-38.114C125.363,196.758,125.437,196.318,125.484,195.633z"/>
		<path style="fill-rule:evenodd;clip-rule:evenodd;fill:none;" d="M52.901,239.294c-5.923-0.433-11.875-0.738-17.903,0.049
			c-0.491-14.099-0.977-28.069-1.467-42.159c6.354-0.219,12.459-0.429,18.537-0.638C53.204,200.307,53.868,234.322,52.901,239.294z"
			/>
		<path style="fill-rule:evenodd;clip-rule:evenodd;fill:none;" d="M55.102,196.626c7.065-0.089,14.066-0.178,21.166-0.267
			c0.994,5.534,0.334,11.08,0.859,16.623c-0.377,0.134-0.667,0.244-0.96,0.34c-0.537,0.175-1.089,0.307-1.612,0.512
			c-3.732,1.466-5.543,3.272-5.435,8.257c0.048,2.251,0.732,4.371,1.963,6.277c1.483,2.296,3.472,3.797,6.559,3.844
			c0.118,2.062,0.235,4.117,0.363,6.336c-7.381,0.207-14.545,0.41-21.705,0.611C55.896,224.871,55.501,210.816,55.102,196.626z"/>
		<path style="fill-rule:evenodd;clip-rule:evenodd;fill:none;" d="M123.282,182.527c0,3.491,0,6.868,0,10.446
			c-6.716-0.23-13.247,0.849-19.931,0.269c-0.112-1.484-0.244-2.878-0.318-4.274c-0.443-8.313-0.057-16.623,0.113-24.937
			c0.09-4.438-0.049-8.879-0.084-13.318c-0.001-0.199,0-0.396,0-0.596c6.744-0.151,13.458-0.303,20.328-0.459
			c0.097,4.748,0.192,9.477,0.289,14.192c-6.746,0.818-9.142,9.778-7.057,14.51c1.097,2.487,3.017,3.806,5.682,4.105
			C122.622,182.501,122.944,182.507,123.282,182.527z"/>
		<path style="fill-rule:evenodd;clip-rule:evenodd;fill:none;" d="M121.679,99.639c-6.409,1.033-12.859-0.106-19.41,0.833
			c-0.485-12.911-0.694-25.707-0.626-38.596c6.745-0.741,13.396,0.188,19.99-0.341C122.052,62.874,122.079,95.976,121.679,99.639z"
			/>
		<path style="fill-rule:evenodd;clip-rule:evenodd;fill:none;" d="M143.529,61.613c0.625,12.48,0.301,24.926,0.024,37.559
			c-6.491,0.164-12.921,0.327-19.431,0.491c0-1.375-0.017-2.858,0.002-4.341c0.089-7.508,0.165-15.016,0.293-22.523
			c0.051-2.904,0.228-5.806,0.347-8.708c0.014-0.322,0.045-0.645,0.052-0.967c0.028-1.579,0.025-1.576,1.576-1.575
			c5.411,0.003,10.821,0.003,16.231,0.008C142.903,61.557,143.182,61.591,143.529,61.613z"/>
		<path style="fill-rule:evenodd;clip-rule:evenodd;fill:none;" d="M32.328,62.552c6.452,0,12.658,0,18.895,0
			c0,12.772,0,25.384,0,38.155c-6.506-0.005-12.85,1.119-19.392-0.231C33.205,87.827,31.808,75.163,32.328,62.552z"/>
		<path style="fill-rule:evenodd;clip-rule:evenodd;fill:none;" d="M143.698,192.089c-0.017,0.007-0.123,0.083-0.234,0.093
			c-1.566,0.155-3.131,0.4-4.699,0.434c-4.393,0.092-8.786,0.096-13.291,0.137c0-3.537,0-7.148,0-10.809
			c2.181-0.386,4.079-1.225,5.613-2.746c2.188-2.17,3.32-4.733,2.726-7.871c-0.323-1.703-1.239-3.111-2.629-4.072
			c-1.483-1.023-3.111-1.843-4.705-2.696c-0.469-0.251-0.746-0.457-0.757-1.058c-0.076-4.236-0.197-8.472-0.302-12.707
			c-0.008-0.319-0.001-0.639-0.001-0.936c6.25-0.375,12.42-0.745,18.668-1.119C144.604,163.262,145.193,177.607,143.698,192.089z"/>
		<path style="fill-rule:evenodd;clip-rule:evenodd;fill:none;" d="M54.51,134.418c7.192,0.066,14.241,0.133,21.47,0.201
			c0.104,4.406,0.203,8.65,0.306,13.048c-7.35-0.178-14.511,0.503-21.776,0.019C54.51,143.176,54.51,138.798,54.51,134.418z"/>
		<path style="fill-rule:evenodd;clip-rule:evenodd;fill:none;" d="M78.456,134.603c7.445,0,14.692,0,21.912,0
			c0.132,4.11,0.265,8.237,0.405,12.567c-7.312,0-14.559,0-21.895,0C78.742,143.104,78.6,138.893,78.456,134.603z"/>
		<path style="fill-rule:evenodd;clip-rule:evenodd;fill:none;" d="M103.293,147.417c-0.119-4.478-0.233-8.769-0.353-13.245
			c6.664,0.176,13.098,0.344,19.65,0.516c0.194,4.068,0.383,8.037,0.583,12.234C116.555,147.086,110.039,147.248,103.293,147.417z"
			/>
		<path style="fill-rule:evenodd;clip-rule:evenodd;fill:none;" d="M78.209,103.366c7.031-0.245,13.955-0.486,21.019-0.732
			c1.279,3.791,0.299,7.804,0.762,11.949c-7.404-0.171-14.64-0.339-21.998-0.509C78.05,110.361,77.608,106.837,78.209,103.366z"/>
		<path style="fill-rule:evenodd;clip-rule:evenodd;fill:none;" d="M51.511,147.861c-6.192,0-12.155,0-18.316,0
			c0-4.239,0-8.484,0-12.772c6.012-0.195,12.163-0.396,18.316-0.595C51.511,138.955,51.511,143.334,51.511,147.861z"/>
		<path style="fill-rule:evenodd;clip-rule:evenodd;fill:none;" d="M124.06,114.296c0-4.121,0-8.095,0-12.151
			c6.499-0.692,12.899-0.409,19.333-0.302c0,4.122,0,8.169,0,12.113C136.91,114.069,130.559,114.182,124.06,114.296z"/>
		<path style="fill-rule:evenodd;clip-rule:evenodd;fill:none;" d="M102.092,102.658c6.533-0.741,13.073-0.225,19.703-0.797
			c0.344,4.14-0.272,8.167-0.294,12.238c-6.225,0.14-12.374,0.278-18.497,0.415C102.329,113.111,101.831,106.697,102.092,102.658z"
			/>
		<path style="fill-rule:evenodd;clip-rule:evenodd;fill:none;" d="M124.952,134.604c6.131-0.088,12.175-0.178,18.22-0.253
			c0.308-0.003,0.616,0.12,0.899,0.179c0,3.895,0,7.717,0,11.547c-0.356,0.099-0.54,0.188-0.727,0.194
			c-5.08,0.208-10.161,0.425-15.242,0.602c-2.675,0.093-2.704,0.062-2.821-2.653C125.145,141.037,125.062,137.854,124.952,134.604z"
			/>
		<path style="fill-rule:evenodd;clip-rule:evenodd;fill:none;" d="M53.911,114.155c-0.224-3.45-0.507-6.81,0.021-10.148
			c7.032-0.178,14.019-0.355,21.11-0.535c-0.442,3.633,0.636,7.122-0.179,10.683C67.919,114.155,60.997,114.155,53.911,114.155z"/>
		<path style="fill-rule:evenodd;clip-rule:evenodd;fill:none;" d="M50.856,103.559c0.783,3.497,0.221,7.002,0.53,10.464
			c-6.36,0-12.623,0-19.097,0c-0.057-2.602-0.144-5.047-0.147-7.494c-0.002-0.871-0.096-2.034,0.395-2.532
			c0.482-0.491,1.65-0.406,2.516-0.404c2.054,0.004,4.111,0.06,6.161,0.185C44.393,103.97,47.564,104.051,50.856,103.559z"/>
		<path style="fill-rule:evenodd;clip-rule:evenodd;fill:none;" d="M74.333,37.536c2.186-0.06,4.093,0.249,5.882,1.042
			c1.643,0.729,2.808,1.854,2.75,3.865c-0.034,1.191-0.471,2.123-1.462,2.751c-0.643,0.407-1.327,0.766-2.028,1.062
			c-1.222,0.515-2.472,0.963-3.83,1.486C73.794,44.539,74.653,41.019,74.333,37.536z"/>
		<path style="fill-rule:evenodd;clip-rule:evenodd;fill:none;" d="M52.681,40.236c1.334,0.913,1.282,2.225,1.763,3.322
			c-1.074,1.039-2.358,0.101-3.44,0.609c-0.079-0.085-0.159-0.17-0.239-0.255C51.38,42.732,51.996,41.552,52.681,40.236z"/>
	</g>
</g>
<g id="Layer_1">
</g>
</svg>
