<?xml version="1.0" encoding="iso-8859-1"?>
<!-- Generator: Adobe Illustrator 16.0.0, SVG Export Plug-In . SVG Version: 6.00 Build 0)  -->
<!DOCTYPE svg PUBLIC "-//W3C//DTD SVG 1.1//EN" "http://www.w3.org/Graphics/SVG/1.1/DTD/svg11.dtd">
<svg version="1.1" xmlns="http://www.w3.org/2000/svg" xmlns:xlink="http://www.w3.org/1999/xlink" x="0px" y="0px"
	 width="177.096px" height="266.369px" viewBox="0 0 177.096 266.369" style="enable-background:new 0 0 177.096 266.369;"
	 xml:space="preserve">
<g id="Fis">
	<g id="Fis_1_">
		<path style="fill:none;" d="M0,0c59.032,0,118.063,0,177.096,0c0,88.79,0,177.58,0,266.37c-59.032,0-118.064,0-177.096,0
			C0,177.579,0,88.789,0,0z M24.938,102.78c0.457,0.994,1.213,1.351,2.086,1.448c0.999,0.112,2.008,0.132,3.013,0.195
			c0.723,0.045,1.451,0.058,2.167,0.156c0.435,0.059,0.847,0.218,0.854,0.82c0.039,3.296,0.098,6.592,0.152,10.045
			c-2.793,0.078-4.306,2.459-6.43,3.848c-0.188,0.123-0.364,0.353-0.424,0.567c-0.397,1.423-1.038,2.846-1.084,4.287
			c-0.13,4.006,1.89,6.896,5.301,8.825c1,0.565,2.134,0.892,3.269,1.354c0,0.195,0.004,0.434-0.001,0.671
			c-0.046,2.214-0.094,4.427-0.14,6.641c-0.038,1.813-0.012,3.632-0.129,5.439c-0.109,1.687-0.238,1.778-1.894,1.698
			c-1.123-0.055-2.236-0.277-3.358-0.37c-1.471-0.122-2.875,0.009-3.894,1.306c0.475,0.863,1.162,1.254,2.014,1.271
			c0.882,0.017,1.767-0.089,2.65-0.123c1.084-0.04,2.176-0.151,3.251-0.065c1.056,0.086,1.428,0.497,1.494,1.548
			c0.074,1.203,0.16,2.438-0.024,3.619c-0.592,3.8-0.688,7.621-0.652,11.449c0.073,7.698,0.214,15.395,0.318,23.093
			c0.021,1.52,0.003,3.042,0.003,4.617c-2.892,0.165-5.566,0.318-8.505,0.488c0.476,1.021,0.887,1.903,1.321,2.835
			c2.872-0.376,5.645-1.585,8.245-0.294c-0.019,13.839,0.88,27.472,0.428,41.206c-0.672,0.032-1.23,0.109-1.782,0.074
			c-1.044-0.065-2.083-0.256-3.126-0.281c-1.074-0.024-2.164,0.007-3.225,0.164c-0.703,0.104-1.084,0.691-1.014,1.434
			c0.067,0.707,0.642,0.908,1.216,0.959c0.839,0.075,1.688,0.089,2.531,0.071c1.409-0.03,2.819-0.156,4.227-0.143
			c1.125,0.013,1.246,0.175,1.282,1.276c0.037,1.087,0.05,2.177,0.018,3.264c-0.101,3.304-0.252,6.605-0.332,9.908
			c-0.023,0.981,0.126,1.967,0.2,2.993c0.602,0,1.002-0.004,1.402,0c1.383,0.014,1.619-0.236,1.591-1.596
			c-0.075-3.707-0.185-7.414-0.176-11.121c0.003-1.426,0.286-2.852,0.439-4.252c6.225,0.163,12.248,0.32,18.344,0.479
			c0,5.298,0,10.471,0,15.82c0.953-0.122,1.682-0.215,2.592-0.331c0.031-5.196,0.062-10.287,0.093-15.566c7.394,0,14.547,0,21.778,0
			c-0.506,4.771-0.656,9.601,0.313,14.429c0.683-0.171,1.224-0.306,1.733-0.433c0-4.745,0-9.433,0-14.12
			c7.112-0.1,14.176-0.199,21.425-0.302c0.084,2.593,0.198,5.119,0.24,7.646c0.04,2.521,0.008,5.043,0.008,7.593
			c0.749,0,1.37,0,2.235,0c0-5.192,0-10.326,0-15.574c6.943,0.715,13.645-0.184,20.349-0.018c0.105,5.561,0.209,10.959,0.314,16.475
			c0.683-0.448,1.298-0.851,2.027-1.33c-0.131-4.888-0.264-9.824-0.4-14.898c6.375-0.339,12.619-0.673,19.024-1.015
			c0.119,4.883,0.235,9.618,0.35,14.31c0.937,0.169,1.67,0.302,2.493,0.45c0.252-5.061-0.261-10.057,0.313-15.145
			c0.758,0,1.435-0.051,2.1,0.012c1.001,0.095,1.991,0.324,2.993,0.394c1.005,0.069,2.003-0.039,2.788-0.775
			c-0.542-2.019-0.733-2.158-2.615-1.966c-0.921,0.094-1.841,0.226-2.765,0.27c-0.984,0.046-1.971,0.01-3.016,0.01
			c-0.163-13.91-0.912-27.63,0.275-41.438c2.66,0,5.178,0,7.671,0c0.509-2.462,0.123-3.078-2.162-3.369
			c-1.035-0.131-2.093-0.078-3.134-0.177c-1.262-0.12-2.515-0.313-3.758-0.473c-0.033-0.422-0.062-0.619-0.063-0.817
			c-0.062-6.408-0.201-12.818-0.162-19.227c0.046-7.174,0.256-14.345,0.392-21.518c0.034-1.797,0.108-1.873,1.951-1.758
			c0.441,0.029,0.879,0.117,1.32,0.154c0.922,0.076,1.851,0.227,2.767,0.174c0.623-0.037,1.229-0.368,1.981-0.613
			c-0.484-0.898-0.839-1.557-1.124-2.088c-2.546,0.132-4.933,0.256-7.364,0.382c-0.162-5.122-0.467-10.017,0.036-14.904
			c0.474-0.089,0.827-0.169,1.185-0.219c3.019-0.424,4.906-2.185,5.658-5.061c0.959-3.673,0.087-7.024-2.188-10.02
			c-1.238-1.629-2.917-2.602-4.988-2.991c0.634-3.886-0.74-7.816,0.95-11.563c0.541,0.065,1.018,0.121,1.495,0.18
			c1.318,0.165,2.632,0.406,3.955,0.476c1.362,0.073,2.739-0.006,3.843-1.138c-0.909-0.816-1.934-1.293-3.06-1.392
			c-1.357-0.12-2.73-0.076-4.097-0.092c-0.99-0.011-1.98-0.002-3.084-0.002c0-0.619,0-1.175,0-1.731
			c-0.004-5.281,0.002-10.562-0.013-15.843c-0.019-6.489-0.049-12.977-0.089-19.465c-0.006-0.844,0.269-1.185,1.186-1.218
			c3.535-0.131,7.067-0.435,10.852,0.27c-0.155-2.342-0.303-4.534-0.442-6.727c-0.048-0.754-0.421-1.006-1.182-1.001
			c-2.538,0.017-5.078-0.065-7.617-0.056c-7.135,0.026-14.271,0.041-21.406,0.129c-9.19,0.114-18.379,0.297-27.567,0.449
			c-9.066,0.15-18.134,0.337-27.202,0.432c-5.037,0.053-10.078-0.043-15.116-0.08c-11.449-0.083-22.898-0.17-34.347-0.254
			c-0.589-0.004-1.178,0-1.811,0c0,2.209-0.001,4.294,0.001,6.379c0.001,0.725,0.48,0.997,1.095,1.029
			c1.363,0.072,2.729,0.092,4.094,0.139c1.109,0.038,2.218,0.083,3.357,0.125c0.663,13.024,0.888,25.835-0.595,38.711
			c-0.579-0.047-1.018-0.056-1.446-0.123c-0.955-0.147-1.9-0.36-2.858-0.479C26.93,101.565,25.801,101.708,24.938,102.78z
			 M107.564,40.582c0.029-2.428-1.309-4.081-3.559-4.32c-2.84-0.303-5.224,0.685-7.125,2.808c-0.867,0.969-1.248,2.144-1.301,3.435
			c-0.218,5.212,4.85,9.645,9.994,8.719c0.69-0.125,1.355-0.382,2.021-0.574c0.132,0.664,0.254,1.275,0.396,1.982
			c0.979-0.102,1.818-0.189,2.557-0.267c-0.148-1.708-0.25-3.189-0.413-4.664c-0.12-1.073-0.288-2.145-0.495-3.205
			c-0.2-1.017-0.871-1.518-1.908-1.415c-2.027,0.199-4.051,0.433-6.232,0.669c0.176,0.965,0.309,1.691,0.464,2.538
			c0.622-0.067,1.173-0.104,1.714-0.191c0.476-0.077,0.945-0.314,1.41-0.293c0.48,0.021,0.95,0.27,1.424,0.419
			c-0.154,0.432-0.295,0.871-0.475,1.293c-0.058,0.137-0.213,0.237-0.332,0.346c-1.173,1.079-4.371,1.539-5.727,0.733
			c-0.412-0.245-0.748-0.747-0.941-1.207c-0.94-2.235-0.912-4.481,0.201-6.652c0.285-0.558,0.734-1.069,1.211-1.487
			c1.679-1.474,3.734-1.308,5.185,0.382C106.126,40.205,106.678,40.628,107.564,40.582z M74.932,50.182
			c1.253,1.24,2.652,1.539,4.138,1.407c3.666-0.325,6.679-1.97,9.098-4.715c1.019-1.156,1.261-2.529,0.724-3.95
			c-0.323-0.851-0.744-1.726-1.336-2.401c-2.504-2.855-5.738-4.372-9.482-4.775c-1.827-0.196-3.183,1.069-3.089,2.879
			c0.175,3.376,0.423,6.75,0.688,10.12C75.722,49.38,75.663,49.861,74.932,50.182z M68.106,15.437c0-1.092-0.018-2.094,0.006-3.096
			c0.015-0.597,0.266-0.979,0.965-0.944c1.927,0.093,3.856,0.145,5.784,0.239c0.455,0.022,0.906,0.146,1.343,0.22
			c0.618-2.205,0.422-2.561-1.577-2.934c-0.629-0.118-1.272-0.203-1.911-0.222c-2.758-0.081-5.518-0.131-8.453-0.196
			c-0.308,0.316-0.524,0.814-0.079,1.505c0.249,0.387,0.379,0.904,0.407,1.372c0.165,2.769,0.246,5.542,0.434,8.309
			c0.116,1.72,0.281,3.446,0.599,5.136c0.208,1.11,0.968,1.597,1.752,1.481c0.908-0.134,1.403-0.77,1.359-1.958
			c-0.042-1.124-0.229-2.24-0.312-3.362c-0.168-2.302,0.091-2.553,2.406-2.589c0.838-0.013,1.688-0.054,2.505-0.215
			c0.27-0.054,0.627-0.516,0.651-0.813c0.077-1.001-0.938-1.939-1.949-1.934C70.796,15.443,69.557,15.437,68.106,15.437z
			 M32.104,47.815c-0.091-0.239-0.255-0.561-0.338-0.903c-0.679-2.828-1.025-2.788,2.098-3.131c0.88-0.097,1.268-0.558,1.249-1.533
			c-0.018-0.915-0.507-1.391-1.424-1.389c-0.799,0.002-1.599,0-2.379,0c-0.831-1.781-0.386-2.655,1.485-2.835
			c0.878-0.085,1.772-0.033,2.658-0.009c2.389,0.063,2.391,0.071,2.738-2.303c0.017-0.11-0.035-0.229-0.067-0.415
			c-3.19-1.321-6.343-0.784-9.512,0.114c-0.474,5.264,0.846,10.239,1.438,15.312c3.081-0.345,6.146,0.253,9.146-0.897
			c0-0.769,0-1.531,0-2.486C36.747,47.504,34.469,47.657,32.104,47.815z M56.318,35.526c-0.239,0.351-0.381,0.543-0.507,0.745
			c-2.661,4.239-4.689,8.799-6.717,13.356c-0.401,0.9,0.24,1.688,1.529,1.848c0.131-2.106,1.382-3.303,3.362-3.662
			c1.457-0.264,2.956-0.317,4.44-0.388c0.259-0.013,0.657,0.298,0.783,0.56c0.469,0.976,0.855,1.991,1.269,2.995
			c0.407,0.988,0.896,1.159,2.125,0.735c0.899-0.311,0.98-0.547,0.633-1.657C61.63,44.951,58.648,40.507,56.318,35.526z
			 M153.169,38.925c-0.154-1.047-0.308-2.085-0.438-2.976c-1.611,0.133-3.003,0.293-4.4,0.352c-1.367,0.056-2.738-0.013-4.106,0.02
			c-0.458,0.011-0.912,0.162-1.46,0.267c0.335,4.961,0.661,9.799,0.996,14.751c3.541-0.384,7.083,0.94,10.477-0.896
			c-0.562-1.139-1.482-1.517-2.51-1.545c-1.364-0.038-2.732,0.065-4.098,0.122c-0.63,0.026-1.26,0.086-1.884,0.13
			c-0.096-0.568-0.157-0.999-0.244-1.424c-0.324-1.595,0.108-2.09,1.731-1.964c0.161,0.013,0.32,0.034,0.48,0.049
			c2.476,0.237,2.875-0.263,2.055-2.571c-0.023-0.065-0.106-0.109-0.262-0.263c-1.288,0-2.681,0-3.991,0
			c-0.181-1.278-0.347-2.444-0.527-3.713C147.763,39.087,150.432,39.99,153.169,38.925z M85.609,23.742
			c-0.936,1.495-0.719,2.611,0.646,3.532c1.875,1.265,5.278,1.294,7.128,0.009c0.373-0.259,0.78-0.665,0.889-1.077
			c0.737-2.812-0.021-5.209-2.322-6.666c-1.045-0.661-2.213-1.135-3.349-1.639c-0.692-0.307-1.429-0.508-2.179-0.768
			c0.103-0.168,0.143-0.292,0.228-0.363c1.054-0.903,2.189-0.869,3.364-0.263c0.88,0.454,1.757,0.915,2.653,1.382
			c0.874-2.423-0.049-4.034-2.373-4.33c-1.83-0.232-3.537,0.174-5.03,1.276c-1.072,0.792-1.707,1.829-1.404,3.231
			c0.327,1.509,1.079,2.138,2.709,2.464c1.141,0.228,2.293,0.465,3.382,0.861c1.112,0.404,1.882,1.226,2.043,2.48
			c0.135,1.051-0.023,1.306-1.03,1.514c-1.365,0.28-2.645,0.009-3.835-0.691C86.612,24.393,86.114,24.061,85.609,23.742z
			 M119.945,35.603c-0.059,0.455-0.111,0.648-0.106,0.84c0.105,3.5,0.191,7,0.343,10.498c0.041,0.953,0.236,1.911,0.459,2.843
			c0.137,0.576,0.563,1.01,1.232,0.932c0.739-0.087,0.805-0.679,0.812-1.27c0.013-1.128,0.02-2.255,0.029-3.383
			c0.005-0.669,0.276-1.018,1.01-1.043c0.923-0.032,1.84-0.181,2.762-0.266c2.05-0.189,2.292,0.057,2.151,2.179
			c-0.019,0.28-0.107,0.556-0.118,0.835c-0.037,0.959-0.159,1.931-0.051,2.875c0.121,1.052,0.627,1.36,1.437,1.136
			c0.894-0.247,1.471-1.156,1.37-1.923c-0.193-1.467-0.369-2.943-0.418-4.419c-0.059-1.809,0.103-3.625,0.017-5.432
			c-0.08-1.662-0.741-3.079-2.54-4.068c-0.057,0.826-0.127,1.449-0.134,2.072c-0.011,0.966,0.067,1.934,0.026,2.898
			c-0.053,1.199-0.34,1.488-1.508,1.56c-1.044,0.065-2.092,0.059-3.137,0.075c-0.757,0.011-1.205-0.271-1.188-1.128
			c0.03-1.602,0.009-3.206,0.009-4.955C121.628,36.19,120.837,35.914,119.945,35.603z M17.631,113.685
			c0.104,0.517,0.251,0.939,0.263,1.365c0.032,1.084,0.016,2.17-0.004,3.254c-0.031,1.646,0.284,2.011,2.133,2.27
			c-0.118-0.571,0.079-0.948,0.738-0.786c-0.078-0.651-0.157-1.203-0.208-1.757c-0.159-1.72-0.267-3.446-0.473-5.16
			c-0.182-1.509-0.688-2.88-1.95-3.658c-1.2,1.005-2.335,1.942-3.455,2.898c-0.67,0.572-1.39,1.111-1.947,1.783
			c-0.458,0.555-0.709,1.282-1.087,1.998C14.544,117.327,15.666,114.71,17.631,113.685z M77.308,22.936
			c0.047,0.005,0.095,0.009,0.142,0.014c0,0.683,0.003,1.366-0.001,2.049c-0.006,1.188,0.656,1.959,1.807,2.076
			c0.713,0.073,1.332-0.074,1.368-0.943c0.056-1.357,0.05-2.717,0.087-4.075c0.03-1.117-0.018-2.25,0.154-3.346
			c0.191-1.212-0.041-1.9-1.128-2.48c-0.663-0.354-1.165-0.204-1.503,0.435c-0.167,0.314-0.31,0.667-0.353,1.017
			C77.669,19.432,77.495,21.185,77.308,22.936z M81.445,10.907c0.186-1.691-0.074-2.634-0.796-2.848
			c-0.703-0.208-1.246,0.072-1.659,0.655c-0.607,0.858-0.714,1.716-0.044,2.361C79.792,11.893,80.626,11.054,81.445,10.907z"/>
		<path style="fill-rule:evenodd;clip-rule:evenodd;" d="M24.938,102.78c0.863-1.073,1.993-1.215,3.19-1.066
			c0.958,0.119,1.903,0.331,2.858,0.479c0.429,0.067,0.867,0.076,1.446,0.123c1.483-12.875,1.258-25.687,0.595-38.711
			c-1.14-0.043-2.249-0.088-3.357-0.125c-1.365-0.046-2.731-0.067-4.094-0.139c-0.615-0.032-1.094-0.304-1.095-1.029
			c-0.002-2.085-0.001-4.17-0.001-6.379c0.632,0,1.222-0.004,1.811,0c11.449,0.084,22.898,0.171,34.347,0.254
			c5.038,0.037,10.079,0.133,15.116,0.08c9.068-0.095,18.136-0.282,27.202-0.432c9.188-0.152,18.377-0.335,27.567-0.449
			c7.135-0.088,14.271-0.104,21.406-0.129c2.539-0.009,5.079,0.073,7.617,0.056c0.761-0.005,1.134,0.247,1.182,1.001
			c0.14,2.193,0.287,4.385,0.442,6.727c-3.784-0.705-7.316-0.4-10.852-0.27c-0.917,0.034-1.191,0.375-1.186,1.218
			c0.04,6.488,0.07,12.976,0.089,19.465c0.015,5.281,0.009,10.562,0.013,15.843c0,0.556,0,1.112,0,1.731
			c1.104,0,2.094-0.009,3.084,0.002c1.366,0.016,2.739-0.028,4.097,0.092c1.126,0.099,2.15,0.576,3.06,1.392
			c-1.104,1.132-2.48,1.21-3.843,1.138c-1.323-0.07-2.637-0.312-3.955-0.476c-0.478-0.06-0.954-0.115-1.495-0.18
			c-1.69,3.747-0.316,7.677-0.95,11.563c2.071,0.389,3.75,1.361,4.988,2.991c2.275,2.995,3.147,6.346,2.188,10.02
			c-0.752,2.875-2.64,4.637-5.658,5.061c-0.357,0.05-0.711,0.13-1.185,0.219c-0.503,4.888-0.198,9.782-0.036,14.904
			c2.432-0.126,4.818-0.25,7.364-0.382c0.285,0.531,0.64,1.189,1.124,2.088c-0.753,0.245-1.358,0.576-1.981,0.613
			c-0.916,0.053-1.845-0.098-2.767-0.174c-0.441-0.037-0.879-0.125-1.32-0.154c-1.843-0.115-1.917-0.039-1.951,1.758
			c-0.136,7.173-0.346,14.344-0.392,21.518c-0.039,6.408,0.101,12.818,0.162,19.227c0.002,0.198,0.03,0.396,0.063,0.817
			c1.243,0.159,2.496,0.353,3.758,0.473c1.041,0.099,2.099,0.046,3.134,0.177c2.285,0.291,2.671,0.907,2.162,3.369
			c-2.493,0-5.011,0-7.671,0c-1.188,13.808-0.438,27.527-0.275,41.438c1.045,0,2.031,0.036,3.016-0.01
			c0.924-0.044,1.844-0.176,2.765-0.27c1.882-0.192,2.073-0.053,2.615,1.966c-0.785,0.736-1.783,0.845-2.788,0.775
			c-1.002-0.069-1.992-0.299-2.993-0.394c-0.665-0.062-1.342-0.012-2.1-0.012c-0.574,5.088-0.062,10.084-0.313,15.145
			c-0.823-0.148-1.557-0.281-2.493-0.45c-0.114-4.691-0.23-9.427-0.35-14.31c-6.405,0.342-12.649,0.676-19.024,1.015
			c0.137,5.074,0.27,10.011,0.4,14.898c-0.729,0.479-1.345,0.882-2.027,1.33c-0.105-5.516-0.209-10.914-0.314-16.475
			c-6.704-0.166-13.405,0.732-20.349,0.018c0,5.248,0,10.382,0,15.574c-0.865,0-1.486,0-2.235,0c0-2.55,0.032-5.072-0.008-7.593
			c-0.042-2.527-0.156-5.054-0.24-7.646c-7.249,0.103-14.312,0.202-21.425,0.302c0,4.688,0,9.375,0,14.12
			c-0.51,0.127-1.05,0.262-1.733,0.433c-0.969-4.828-0.819-9.657-0.313-14.429c-7.231,0-14.384,0-21.778,0
			c-0.031,5.279-0.062,10.37-0.093,15.566c-0.911,0.116-1.639,0.209-2.592,0.331c0-5.35,0-10.522,0-15.82
			c-6.096-0.159-12.12-0.316-18.344-0.479c-0.153,1.4-0.436,2.826-0.439,4.252c-0.008,3.707,0.101,7.414,0.176,11.121
			c0.027,1.359-0.208,1.609-1.591,1.596c-0.4-0.004-0.8,0-1.402,0c-0.074-1.026-0.224-2.012-0.2-2.993
			c0.08-3.303,0.231-6.604,0.332-9.908c0.033-1.087,0.019-2.177-0.018-3.264c-0.037-1.102-0.157-1.264-1.282-1.276
			c-1.408-0.014-2.818,0.112-4.227,0.143c-0.844,0.018-1.692,0.004-2.531-0.071c-0.574-0.051-1.148-0.252-1.216-0.959
			c-0.071-0.742,0.311-1.33,1.014-1.434c1.061-0.157,2.15-0.188,3.225-0.164c1.044,0.025,2.083,0.216,3.126,0.281
			c0.552,0.035,1.11-0.042,1.782-0.074c0.452-13.734-0.447-27.367-0.428-41.206c-2.6-1.291-5.373-0.082-8.245,0.294
			c-0.434-0.932-0.846-1.814-1.321-2.835c2.939-0.17,5.613-0.323,8.505-0.488c0-1.575,0.018-3.098-0.003-4.617
			c-0.104-7.698-0.245-15.395-0.318-23.093c-0.037-3.828,0.06-7.649,0.652-11.449c0.184-1.181,0.098-2.416,0.024-3.619
			c-0.065-1.051-0.438-1.462-1.494-1.548c-1.075-0.086-2.167,0.025-3.251,0.065c-0.884,0.034-1.768,0.14-2.65,0.123
			c-0.852-0.017-1.539-0.407-2.014-1.271c1.019-1.297,2.422-1.428,3.894-1.306c1.122,0.093,2.235,0.315,3.358,0.37
			c1.656,0.08,1.785-0.012,1.894-1.698c0.117-1.808,0.091-3.626,0.129-5.439c0.046-2.214,0.094-4.427,0.14-6.641
			c0.005-0.237,0.001-0.476,0.001-0.671c-1.134-0.462-2.269-0.789-3.269-1.354c-3.412-1.93-5.431-4.819-5.301-8.825
			c0.046-1.44,0.687-2.864,1.084-4.287c0.06-0.214,0.235-0.444,0.424-0.567c2.124-1.389,3.636-3.77,6.43-3.848
			c-0.055-3.454-0.114-6.75-0.152-10.045c-0.007-0.602-0.419-0.761-0.854-0.82c-0.716-0.098-1.444-0.111-2.167-0.156
			c-1.005-0.063-2.014-0.083-3.013-0.195C26.15,104.131,25.394,103.774,24.938,102.78z M79.06,194.03
			c0.847-14.125,0.617-28.321,0.253-42.657c-7.226,1.008-14.34,0.396-21.69,0.285c0.197,14.36,0.392,28.557,0.588,42.825
			C65.276,194.33,72.099,194.182,79.06,194.03z M80.159,63.421c0.867,12.976,0.367,25.796,0.328,38.642c7.193,0,14.225,0,21.334,0
			c0.419-2.561,0.5-5.077,0.399-7.612c-0.073-1.85-0.222-3.718-0.038-5.549c0.24-2.4,0.127-4.724-0.45-7.06
			c-0.31-1.252-0.379-2.522,0.125-3.796c0.286-0.724,0.467-1.544,0.457-2.318c-0.015-1.2-0.215-2.399-0.368-3.595
			c-0.295-2.31-0.83-4.605-0.338-6.952c0.112-0.536,0.226-1.072,0.369-1.76C94.711,63.421,87.559,63.421,80.159,63.421z
			 M127.074,238.668c-0.491-13.909-1.72-27.64-1.129-41.502c-6.723-0.098-13.264-0.146-19.714,0.006
			c0.308,14.104,0.613,28.027,0.919,42.008C113.844,239.789,120.368,239.285,127.074,238.668z M128.057,151.139
			c0,1.535-0.006,2.982,0.002,4.431c0.035,7.215,0.133,14.429,0.091,21.643c-0.026,4.753-0.267,9.505-0.375,14.259
			c-0.021,0.906,0.128,1.818,0.191,2.638c2.627-0.092,5.113-0.212,7.601-0.253c1.73-0.027,3.465,0.125,5.195,0.073
			c1.954-0.059,3.938-0.019,5.859-0.751c0-0.631-0.021-1.23,0.005-1.827c0.224-5.314,0.578-10.625,0.658-15.941
			c0.104-6.888,0.291-13.788-0.443-20.66c-0.159-1.5-0.441-2.987-0.681-4.566C140.03,150.507,134.084,150.82,128.057,151.139z
			 M57.315,63.878c-0.628,3.63-0.84,35.282-0.277,38.042c6.916,0.572,13.864,0.088,20.843,0.212c0.02-0.363,0.038-0.559,0.041-0.755
			c0.077-4.391,0.191-8.782,0.218-13.174c0.039-6.484,0.049-12.969-0.004-19.453c-0.014-1.748-0.3-3.493-0.462-5.246
			C70.774,63.631,64.061,63.754,57.315,63.878z M148.119,238.593c0.929-13.899-0.772-27.609-0.854-41.44
			c-6.515,0.054-12.863-0.326-19.271,0.248c-0.225,13.94,0.691,27.708,1.354,41.524C135.71,239.468,141.868,238.238,148.119,238.593
			z M55.163,194.792c0.513-14.396,0.174-28.702-0.267-43.052c-6.114-0.096-12.098-0.188-18.224-0.283
			c-0.76,14.495,0.808,28.914,0.313,43.369C43.11,195.763,49.075,194.654,55.163,194.792z M105.785,151.174
			c-0.031,0.291-0.082,0.529-0.08,0.766c0.012,3.304,0.047,6.607,0.038,9.911c-0.002,0.593,0.278,0.841,0.75,1.08
			c1.22,0.619,2.442,1.239,3.616,1.939c3.199,1.907,4.057,5.053,3.111,8.48c-0.967,3.507-3.401,5.789-6.714,7.11
			c-0.838,0.332-1.06,0.74-1.042,1.577c0.049,2.497-0.012,4.997,0.026,7.496c0.024,1.639,0.144,3.277,0.231,5.146
			c6.707-0.168,13.279-0.333,19.953-0.5c0.447-14.487,0.698-28.909,0.272-43.273C119.103,150.997,112.508,151.085,105.785,151.174z
			 M104.423,63.443c-0.546,5.267-0.021,35.947,0.591,38.178c6.418,0,12.793,0,19.183,0c0.02-0.437,0.037-0.635,0.037-0.834
			c0.004-4.027-0.018-8.055,0.014-12.083c0.056-7.049,0.158-14.098,0.208-21.147c0.01-1.43-0.123-2.86-0.194-4.361
			C117.573,63.771,111.01,62.572,104.423,63.443z M104.6,239.24c-0.422-14.007-0.223-27.895-1.111-41.825
			c-7.229-0.747-14.309,0.412-21.342-0.052c0,6.436,0,12.764,0,19.061c5.346,0.586,7.723,4.572,7.991,8.646
			c0.124,1.891-0.279,3.683-1.314,5.301c-1.338,2.095-3.396,2.991-5.807,3.346c0,1.857,0,3.644,0,5.524
			C90.224,239.24,97.301,239.24,104.6,239.24z M103.097,194.152c0.038-0.154,0.09-0.27,0.09-0.384
			c0.011-4.152,0.01-8.306,0.029-12.459c0.003-0.54-0.216-0.76-0.726-0.916c-4.07-1.246-5.943-4.222-6.249-8.275
			c-0.335-4.444,1.966-8.797,6.327-9.966c0.555-0.149,0.717-0.439,0.703-0.937c-0.078-2.776-0.09-5.556-0.262-8.326
			c-0.094-1.513-0.219-1.526-1.709-1.507c-6.407,0.092-12.814,0.196-19.221,0.303c-0.147,0.003-0.293,0.088-0.419,0.128
			c0.075,4.036,0.185,8.022,0.217,12.009c0.075,9.514,0.108,19.028,0.17,28.542c0.004,0.704,0.097,1.408,0.148,2.109
			C89.251,194.364,96.132,194.26,103.097,194.152z M146.133,101.125c0.272-12.741,0.553-25.318,0.024-38.046
			c-6.284,0-12.349,0-18.513,0c-1.172,12.78-0.659,25.616-1.087,38.221C133.17,101.241,139.599,101.184,146.133,101.125z
			 M35.323,101.979c6.409,0,12.669,0,19.124,0c0-12.646,0-25.271,0-38.13c-6.087-0.114-12.182-0.229-18.315-0.345
			c-0.109,0.945-0.282,1.779-0.289,2.615c-0.042,5.355-0.035,10.711-0.07,16.066c-0.036,5.277-0.09,10.554-0.169,15.83
			C35.585,99.254,35.433,100.492,35.323,101.979z M79.162,197.499c-7.067,0-13.93,0-20.834,0c-0.058,1.195-0.121,2.278-0.16,3.363
			c-0.025,0.672,0.233,1.076,0.951,1.305c0.914,0.29,1.808,0.699,2.635,1.185c6.617,3.881,5.022,10.92,1.02,13.877
			c-1.197,0.885-2.664,1.404-4.076,2.127c0.111,6.46,0.227,13.123,0.344,19.876c6.996,0.884,14.048,0.01,21.181-0.005
			c0-1.73,0-3.315,0-4.845c-5.49-1.8-7.678-4.318-7.901-8.915c-0.109-2.236,0.332-4.326,1.53-6.235
			c1.377-2.195,3.497-3.228,5.916-3.644C79.564,209.51,79.365,203.56,79.162,197.499z M55.727,239.52
			c0.022-0.118,0.104-0.39,0.118-0.664c0.103-1.932,0.239-3.862,0.275-5.796c0.079-4.35,0.092-8.702,0.167-13.054
			c0.01-0.629-0.296-0.718-0.79-0.797c-2.082-0.334-3.718-1.455-4.715-3.251c-0.728-1.312-1.338-2.791-1.563-4.263
			c-0.646-4.215,1.118-8.664,6.185-9.241c0.068-0.008,0.13-0.081,0.239-0.154c0.095-1.596,0.365-3.226-0.223-4.917
			c-6.146,0.119-12.244,0.237-18.335,0.354c-0.05,0.321-0.083,0.479-0.098,0.637c-0.532,5.518-0.232,11.033,0.106,16.544
			c0.309,5.025,0.764,10.043,1.006,15.072c0.151,3.126,0.028,6.264,0.028,9.529C43.853,239.52,49.752,239.52,55.727,239.52z
			 M78.599,134.512c-7.006,0.055-13.946-1.5-21.047-1.137c0,5.104,0,10.105,0,15.154c7.221,0.801,14.31-0.246,21.51-0.021
			C78.905,143.762,78.754,139.193,78.599,134.512z M103.231,148.479c-0.165-4.703-0.325-9.298-0.49-13.971
			c-1.075,0-2.115-0.021-3.155,0.003c-6.134,0.146-12.271,1.119-18.554-0.217c0.501,4.766-0.047,9.481,0.896,14.185
			C88.993,148.479,95.987,148.479,103.231,148.479z M127.93,148.387c6.394-0.256,12.563-0.504,18.809-0.754
			c0.399-4.986,0.272-9.833,0.006-14.693c-2.118,0-4.121-0.071-6.118,0.016c-3.296,0.146-6.585,0.409-9.88,0.589
			c-1.074,0.059-2.154,0.009-3.409,0.009C127.53,138.413,127.725,143.262,127.93,148.387z M125.604,147.703
			c-0.232-4.719-0.458-9.288-0.679-13.755c-6.586,0.136-12.966,0.269-19.508,0.403c0.124,4.728,0.246,9.41,0.372,14.197
			C112.481,148.494,119.003,148.874,125.604,147.703z M54.555,148.691c0-5.104,0-10.145,0-15.271
			c-6.061,0.547-12.062-0.311-18.097,0.523c0.279,5.011-0.14,9.902,0.191,14.748C42.716,148.691,48.586,148.691,54.555,148.691z
			 M80.779,104.85c-0.211,3.696-0.283,7.332,0.004,11.04c7.37,0.117,14.553-0.088,21.602-0.774c0-3.684,0-7.243,0-10.914
			C95.104,104.42,88.029,104.632,80.779,104.85z M56.912,115.295c7.046,0.174,13.978,0.346,21.01,0.52
			c-0.209-3.736,0.178-7.385-0.322-10.916c-6.971,0-13.798,0-20.688,0C56.912,108.384,56.912,111.825,56.912,115.295z
			 M124.008,114.968c0.003-3.863,1.059-7.728-0.206-11.479c-6.507,0.223-12.839,0.44-19.21,0.659
			c-0.25,3.905,0.212,7.523,0.627,11.212C111.493,115.229,117.646,115.101,124.008,114.968z M146.108,103.645
			c-6.479,0-12.854,0-19.299,0c-0.638,3.766-0.108,7.445-0.272,10.967c6.632,0,13.087,0,19.571,0
			C146.108,110.867,146.108,107.332,146.108,103.645z M35.807,115.829c6.323-0.195,12.488-0.387,18.643-0.577
			c0-1.817-0.002-3.547,0-5.277c0.002-1.719,0.137-3.45-0.416-5.116c-6.086,0-12.107,0-18.215,0
			C35.336,108.505,35.458,112.108,35.807,115.829z"/>
		<path style="fill-rule:evenodd;clip-rule:evenodd;" d="M107.564,40.582c-0.887,0.047-1.438-0.376-1.933-0.952
			c-1.45-1.689-3.506-1.856-5.185-0.382c-0.477,0.417-0.926,0.929-1.211,1.487c-1.113,2.17-1.142,4.417-0.201,6.652
			c0.193,0.46,0.529,0.962,0.941,1.207c1.355,0.806,4.554,0.346,5.727-0.733c0.119-0.109,0.274-0.208,0.332-0.346
			c0.18-0.422,0.32-0.861,0.475-1.293c-0.474-0.149-0.943-0.397-1.424-0.419c-0.465-0.021-0.935,0.216-1.41,0.293
			c-0.541,0.087-1.092,0.124-1.714,0.191c-0.155-0.847-0.288-1.573-0.464-2.538c2.182-0.236,4.205-0.47,6.232-0.669
			c1.037-0.103,1.708,0.398,1.908,1.415c0.207,1.06,0.375,2.131,0.495,3.205c0.163,1.475,0.265,2.956,0.413,4.664
			c-0.738,0.077-1.577,0.165-2.557,0.267c-0.142-0.707-0.264-1.318-0.396-1.982c-0.665,0.192-1.33,0.45-2.021,0.574
			c-5.145,0.926-10.212-3.507-9.994-8.719c0.053-1.291,0.434-2.466,1.301-3.435c1.901-2.123,4.285-3.11,7.125-2.808
			C106.256,36.501,107.594,38.154,107.564,40.582z"/>
		<path style="fill-rule:evenodd;clip-rule:evenodd;" d="M74.932,50.182c0.73-0.321,0.79-0.802,0.74-1.436
			c-0.265-3.371-0.513-6.744-0.688-10.12c-0.094-1.81,1.262-3.075,3.089-2.879c3.744,0.403,6.978,1.919,9.482,4.775
			c0.592,0.676,1.013,1.551,1.336,2.401c0.537,1.421,0.295,2.793-0.724,3.95c-2.419,2.745-5.432,4.39-9.098,4.715
			C77.584,51.721,76.186,51.422,74.932,50.182z M77.683,48.984c1.542-0.338,2.969-0.554,4.326-0.986
			c0.856-0.272,1.674-0.784,2.393-1.339c1.618-1.248,2.029-4.923-0.523-6.308c-2.023-1.098-4.244-1.317-6.72-1.676
			C77.335,42.152,77.503,45.461,77.683,48.984z"/>
		<path style="fill-rule:evenodd;clip-rule:evenodd;" d="M80.106,14.437c1.451,0,2.69,0.006,3.93-0.001
			c1.012-0.006,2.026,0.932,1.949,1.934c-0.024,0.298-0.381,0.76-0.651,0.813c-0.818,0.162-1.667,0.203-2.505,0.215
			c-2.315,0.036-2.574,0.287-2.406,2.589c0.083,1.122,0.27,2.239,0.312,3.362c0.044,1.188-0.451,1.824-1.359,1.958
			c-0.784,0.116-1.543-0.371-1.752-1.481c-0.317-1.69-0.482-3.417-0.599-5.136c-0.188-2.767-0.269-5.54-0.434-8.309
			c-0.028-0.468-0.158-0.985-0.407-1.372c-0.446-0.691-0.229-1.189,0.079-1.505c2.935,0.065,5.694,0.116,8.453,0.196
			c0.639,0.019,1.282,0.104,1.911,0.222c2,0.374,2.195,0.729,1.577,2.934c-0.437-0.074-0.888-0.198-1.343-0.22
			c-1.928-0.094-3.857-0.146-5.784-0.239c-0.699-0.034-0.95,0.347-0.965,0.944C80.088,12.343,80.106,13.345,80.106,14.437z"/>
		<path style="fill-rule:evenodd;clip-rule:evenodd;" d="M32.104,47.815c2.365-0.158,4.643-0.311,7.093-0.475
			c0,0.956,0,1.717,0,2.486c-3.001,1.15-6.066,0.552-9.146,0.897c-0.592-5.073-1.913-10.048-1.438-15.312
			c3.169-0.897,6.322-1.435,9.512-0.114c0.032,0.185,0.083,0.305,0.067,0.415c-0.347,2.374-0.349,2.366-2.738,2.303
			c-0.886-0.024-1.78-0.076-2.658,0.009c-1.872,0.181-2.316,1.054-1.485,2.835c0.781,0,1.581,0.001,2.379,0
			c0.917-0.002,1.406,0.474,1.424,1.389c0.019,0.975-0.369,1.436-1.249,1.533c-3.124,0.344-2.777,0.304-2.098,3.131
			C31.849,47.254,32.013,47.576,32.104,47.815z"/>
		<path style="fill-rule:evenodd;clip-rule:evenodd;" d="M56.318,35.526c2.331,4.981,5.312,9.424,6.915,14.532
			c0.348,1.109,0.266,1.346-0.633,1.657c-1.229,0.424-1.718,0.253-2.125-0.735c-0.413-1.003-0.799-2.019-1.269-2.995
			c-0.126-0.261-0.524-0.572-0.783-0.56c-1.484,0.07-2.983,0.124-4.44,0.388c-1.98,0.359-3.231,1.556-3.362,3.662
			c-1.289-0.16-1.93-0.948-1.529-1.848c2.028-4.557,4.056-9.117,6.717-13.356C55.937,36.069,56.079,35.877,56.318,35.526z
			 M56.415,41.401c-1.251,1.209-2.054,2.368-2.401,3.954c1.293-0.096,2.498-0.184,3.946-0.291
			C57.394,43.723,56.948,42.666,56.415,41.401z"/>
		<path style="fill-rule:evenodd;clip-rule:evenodd;" d="M153.169,38.925c-2.737,1.065-5.406,0.162-8.182,0.338
			c0.181,1.27,0.347,2.436,0.527,3.713c1.311,0,2.703,0,3.991,0c0.155,0.154,0.238,0.198,0.262,0.263
			c0.82,2.308,0.421,2.808-2.055,2.571c-0.16-0.015-0.319-0.036-0.48-0.049c-1.623-0.126-2.056,0.369-1.731,1.964
			c0.087,0.425,0.148,0.856,0.244,1.424c0.624-0.044,1.254-0.104,1.884-0.13c1.365-0.057,2.733-0.159,4.098-0.122
			c1.027,0.028,1.948,0.406,2.51,1.545c-3.394,1.836-6.936,0.512-10.477,0.896c-0.335-4.952-0.661-9.79-0.996-14.751
			c0.548-0.105,1.002-0.256,1.46-0.267c1.368-0.032,2.739,0.037,4.106-0.02c1.397-0.059,2.789-0.219,4.4-0.352
			C152.861,36.84,153.015,37.877,153.169,38.925z"/>
		<path style="fill-rule:evenodd;clip-rule:evenodd;" d="M97.609,22.742c0.505,0.318,1.003,0.65,1.52,0.954
			c1.19,0.7,2.471,0.971,3.835,0.691c1.007-0.208,1.165-0.463,1.03-1.514c-0.161-1.254-0.932-2.076-2.043-2.48
			c-1.09-0.396-2.242-0.634-3.383-0.861c-1.631-0.326-2.383-0.955-2.709-2.464c-0.304-1.402,0.332-2.438,1.403-3.231
			c1.493-1.103,3.2-1.509,5.03-1.276c2.324,0.295,3.247,1.906,2.373,4.33c-0.896-0.468-1.773-0.929-2.653-1.382
			c-1.175-0.605-2.31-0.64-3.364,0.263c-0.084,0.072-0.125,0.195-0.227,0.363c0.749,0.26,1.486,0.461,2.178,0.768
			c1.137,0.504,2.305,0.978,3.35,1.639c2.301,1.457,3.06,3.854,2.322,6.666c-0.108,0.413-0.516,0.818-0.889,1.077
			c-1.85,1.285-5.254,1.255-7.128-0.009C96.891,25.354,96.674,24.237,97.609,22.742z"/>
		<path style="fill-rule:evenodd;clip-rule:evenodd;" d="M119.945,35.603c0.892,0.311,1.683,0.587,2.457,0.856
			c0,1.749,0.021,3.353-0.009,4.955c-0.017,0.857,0.432,1.14,1.188,1.128c1.045-0.016,2.093-0.01,3.137-0.075
			c1.168-0.072,1.455-0.361,1.508-1.56c0.041-0.964-0.037-1.933-0.026-2.898c0.007-0.624,0.077-1.247,0.134-2.072
			c1.799,0.989,2.46,2.406,2.54,4.068c0.086,1.807-0.075,3.624-0.017,5.432c0.049,1.477,0.225,2.953,0.418,4.419
			c0.101,0.767-0.477,1.676-1.37,1.923c-0.81,0.224-1.315-0.084-1.437-1.136c-0.108-0.944,0.014-1.916,0.051-2.875
			c0.011-0.279,0.1-0.556,0.118-0.835c0.141-2.122-0.102-2.368-2.151-2.179c-0.922,0.085-1.839,0.234-2.762,0.266
			c-0.733,0.025-1.005,0.375-1.01,1.043c-0.01,1.128-0.017,2.255-0.029,3.383c-0.008,0.59-0.073,1.182-0.812,1.27
			c-0.669,0.079-1.096-0.356-1.232-0.932c-0.223-0.932-0.418-1.89-0.459-2.843c-0.151-3.498-0.237-6.999-0.343-10.498
			C119.834,36.251,119.887,36.058,119.945,35.603z"/>
		<path style="fill-rule:evenodd;clip-rule:evenodd;" d="M17.631,113.685c-1.966,1.025-3.087,3.642-5.989,2.207
			c0.377-0.716,0.628-1.443,1.087-1.998c0.557-0.671,1.277-1.21,1.947-1.783c1.12-0.956,2.254-1.893,3.455-2.898
			c1.263,0.778,1.769,2.149,1.95,3.658c0.206,1.714,0.313,3.44,0.473,5.16c0.051,0.554,0.13,1.106,0.208,1.757
			c-0.66-0.162-0.856,0.215-0.738,0.786c-1.849-0.259-2.164-0.623-2.133-2.27c0.02-1.084,0.036-2.17,0.004-3.254
			C17.882,114.624,17.735,114.202,17.631,113.685z"/>
		<path style="fill-rule:evenodd;clip-rule:evenodd;" d="M89.308,21.936c0.187-1.751,0.361-3.504,0.573-5.252
			c0.042-0.349,0.186-0.703,0.352-1.017c0.34-0.639,0.842-0.79,1.504-0.435c1.087,0.58,1.318,1.268,1.128,2.48
			c-0.173,1.096-0.124,2.229-0.154,3.346c-0.036,1.358-0.03,2.718-0.087,4.075c-0.036,0.869-0.655,1.016-1.368,0.943
			c-1.151-0.117-1.812-0.889-1.807-2.076c0.004-0.683,0.001-1.366,0.001-2.049C89.402,21.945,89.355,21.941,89.308,21.936z"/>
		<path style="fill-rule:evenodd;clip-rule:evenodd;" d="M93.445,9.907c-0.819,0.147-1.654,0.986-2.5,0.168
			c-0.669-0.646-0.562-1.503,0.045-2.361c0.413-0.583,0.955-0.863,1.658-0.655C93.371,7.272,93.631,8.216,93.445,9.907z"/>
		<path style="fill-rule:evenodd;clip-rule:evenodd;fill:none;" d="M79.06,194.03c-6.961,0.151-13.784,0.3-20.85,0.453
			c-0.196-14.269-0.391-28.465-0.588-42.825c7.35,0.111,14.464,0.723,21.69-0.285C79.677,165.709,79.907,179.905,79.06,194.03z"/>
		<path style="fill-rule:evenodd;clip-rule:evenodd;fill:none;" d="M80.159,63.421c7.4,0,14.552,0,21.818,0
			c-0.144,0.688-0.257,1.224-0.369,1.76c-0.492,2.347,0.043,4.643,0.338,6.952c0.153,1.196,0.354,2.395,0.368,3.595
			c0.01,0.774-0.171,1.595-0.457,2.318c-0.504,1.274-0.435,2.544-0.125,3.796c0.577,2.335,0.69,4.659,0.45,7.06
			c-0.184,1.831-0.035,3.699,0.038,5.549c0.101,2.535,0.02,5.052-0.399,7.612c-7.109,0-14.141,0-21.334,0
			C80.526,89.217,81.026,76.397,80.159,63.421z"/>
		<path style="fill-rule:evenodd;clip-rule:evenodd;fill:none;" d="M127.074,238.668c-6.706,0.617-13.23,1.121-19.924,0.512
			c-0.306-13.98-0.611-27.904-0.919-42.008c6.45-0.151,12.991-0.104,19.714-0.006C125.354,211.028,126.583,224.759,127.074,238.668z
			"/>
		<path style="fill-rule:evenodd;clip-rule:evenodd;fill:none;" d="M128.057,151.139c6.027-0.318,11.974-0.632,18.104-0.956
			c0.239,1.579,0.521,3.066,0.681,4.566c0.734,6.872,0.548,13.772,0.443,20.66c-0.08,5.316-0.435,10.627-0.658,15.941
			c-0.026,0.597-0.005,1.196-0.005,1.827c-1.922,0.732-3.905,0.692-5.859,0.751c-1.73,0.052-3.465-0.101-5.195-0.073
			c-2.487,0.041-4.974,0.161-7.601,0.253c-0.063-0.819-0.212-1.731-0.191-2.638c0.108-4.754,0.349-9.506,0.375-14.259
			c0.042-7.214-0.056-14.428-0.091-21.643C128.051,154.121,128.057,152.674,128.057,151.139z"/>
		<path style="fill-rule:evenodd;clip-rule:evenodd;fill:none;" d="M57.315,63.878c6.746-0.124,13.459-0.247,20.359-0.373
			c0.162,1.752,0.448,3.498,0.462,5.246c0.053,6.484,0.043,12.969,0.004,19.453c-0.027,4.392-0.141,8.783-0.218,13.174
			c-0.003,0.196-0.021,0.393-0.041,0.755c-6.979-0.124-13.928,0.36-20.843-0.212C56.475,99.16,56.687,67.508,57.315,63.878z"/>
		<path style="fill-rule:evenodd;clip-rule:evenodd;fill:none;" d="M148.119,238.593c-6.251-0.354-12.409,0.875-18.771,0.332
			c-0.662-13.816-1.578-27.584-1.354-41.524c6.408-0.574,12.757-0.194,19.271-0.248
			C147.347,210.983,149.048,224.693,148.119,238.593z"/>
		<path style="fill-rule:evenodd;clip-rule:evenodd;fill:none;" d="M55.163,194.792c-6.088-0.138-12.052,0.971-18.178,0.034
			c0.495-14.455-1.073-28.874-0.313-43.369c6.126,0.095,12.11,0.188,18.224,0.283C55.336,166.09,55.676,180.396,55.163,194.792z"/>
		<path style="fill-rule:evenodd;clip-rule:evenodd;fill:none;" d="M105.785,151.174c6.723-0.089,13.317-0.177,20.163-0.268
			c0.426,14.364,0.175,28.786-0.272,43.273c-6.674,0.167-13.246,0.332-19.953,0.5c-0.088-1.868-0.207-3.507-0.231-5.146
			c-0.038-2.499,0.022-4.999-0.026-7.496c-0.018-0.837,0.204-1.245,1.042-1.577c3.312-1.321,5.747-3.604,6.714-7.11
			c0.945-3.428,0.088-6.573-3.111-8.48c-1.174-0.7-2.396-1.32-3.616-1.939c-0.472-0.239-0.752-0.487-0.75-1.08
			c0.009-3.304-0.026-6.607-0.038-9.911C105.703,151.703,105.754,151.465,105.785,151.174z"/>
		<path style="fill-rule:evenodd;clip-rule:evenodd;fill:none;" d="M104.423,63.443c6.587-0.871,13.15,0.328,19.838-0.246
			c0.071,1.5,0.204,2.931,0.194,4.361c-0.05,7.049-0.152,14.098-0.208,21.147c-0.031,4.027-0.01,8.055-0.014,12.083
			c0,0.199-0.018,0.397-0.037,0.834c-6.39,0-12.765,0-19.183,0C104.402,99.39,103.877,68.71,104.423,63.443z"/>
		<path style="fill-rule:evenodd;clip-rule:evenodd;fill:none;" d="M104.6,239.24c-7.299,0-14.376,0-21.584,0
			c0-1.881,0-3.667,0-5.524c2.411-0.354,4.469-1.251,5.807-3.346c1.035-1.618,1.438-3.41,1.314-5.301
			c-0.268-4.073-2.645-8.06-7.991-8.646c0-6.297,0-12.625,0-19.061c7.034,0.464,14.113-0.695,21.342,0.052
			C104.377,211.346,104.178,225.233,104.6,239.24z M95.02,218.87c1.27-1.05,0.863-2.153,0.724-3.203
			c-0.067-0.51-0.409-1.146-0.215-1.498c0.759-1.382,0.224-2.626-0.075-3.962c-0.363-1.61-1.767-2.04-2.852-2.836
			c-0.195-0.143-0.586-0.021-0.91-0.021c-0.029,0.235-0.081,0.395-0.061,0.545c0.043,0.317,0.109,0.632,0.19,0.941
			c0.521,1.999,0.166,2.445-1.917,2.375c-0.107-0.003-0.211-0.087-0.396-0.169c0-1.423,0.046-2.86-0.019-4.294
			c-0.034-0.748-0.189-1.513-0.423-2.225c-0.212-0.645-0.715-1.01-1.398-0.862c-0.142,2.155-0.331,4.194-0.386,6.237
			c-0.026,0.987,0.16,1.988,0.33,2.969c0.085,0.495,0.423,0.774,1.023,0.824c1.028,0.084,2.046,0.311,2.774,0.43
			C92.687,215.802,93.817,217.29,95.02,218.87z"/>
		<path style="fill-rule:evenodd;clip-rule:evenodd;fill:none;" d="M103.097,194.152c-6.965,0.107-13.846,0.212-20.9,0.321
			c-0.051-0.701-0.145-1.405-0.148-2.109c-0.062-9.514-0.096-19.028-0.17-28.542c-0.032-3.986-0.142-7.973-0.217-12.009
			c0.126-0.04,0.272-0.125,0.419-0.128c6.407-0.106,12.813-0.211,19.221-0.303c1.49-0.02,1.615-0.006,1.709,1.507
			c0.172,2.771,0.184,5.55,0.262,8.326c0.014,0.497-0.148,0.787-0.703,0.937c-4.361,1.169-6.662,5.521-6.327,9.966
			c0.306,4.054,2.179,7.029,6.249,8.275c0.51,0.156,0.729,0.376,0.726,0.916c-0.02,4.153-0.019,8.307-0.029,12.459
			C103.187,193.883,103.135,193.998,103.097,194.152z M87.031,166.066c1.422,0.725,5.09,1.224,6.742,0.897
			c0.425-0.085,0.87-0.217,1.232-0.444c0.75-0.471,0.696-1.077-0.117-1.408c-0.576-0.234-1.192-0.369-1.866-0.571
			c0.284-0.399,0.494-0.688,0.697-0.982c1.838-2.656,1.528-6.743-0.748-9.035c-0.352-0.354-0.953-0.626-1.449-0.645
			c-2.665-0.102-4.279,1.224-4.974,3.96c-0.236,0.93,0.225,1.503,1.157,1.299c0.529-0.115,1.017-0.454,1.499-0.736
			c0.415-0.244,0.77-0.59,1.19-0.82c0.612-0.336,1.236-0.256,1.557,0.384c0.164,0.331,0.189,0.924-0.003,1.203
			c-0.861,1.251-1.774,2.474-2.767,3.622C88.31,163.794,87.373,164.729,87.031,166.066z"/>
		<path style="fill-rule:evenodd;clip-rule:evenodd;fill:none;" d="M146.133,101.125c-6.534,0.058-12.963,0.116-19.575,0.175
			c0.428-12.605-0.085-25.441,1.087-38.221c6.164,0,12.229,0,18.513,0C146.686,75.808,146.405,88.385,146.133,101.125z"/>
		<path style="fill-rule:evenodd;clip-rule:evenodd;fill:none;" d="M35.323,101.979c0.109-1.488,0.262-2.726,0.281-3.964
			c0.079-5.276,0.133-10.553,0.169-15.83c0.036-5.355,0.028-10.711,0.07-16.066c0.007-0.835,0.18-1.67,0.289-2.615
			c6.133,0.116,12.229,0.23,18.315,0.345c0,12.859,0,25.484,0,38.13C47.992,101.979,41.732,101.979,35.323,101.979z"/>
		<path style="fill-rule:evenodd;clip-rule:evenodd;fill:none;" d="M79.162,197.499c0.203,6.061,0.402,12.011,0.605,18.089
			c-2.418,0.416-4.538,1.448-5.916,3.644c-1.198,1.909-1.639,3.999-1.53,6.235c0.224,4.597,2.411,7.115,7.901,8.915
			c0,1.529,0,3.114,0,4.845c-7.133,0.015-14.185,0.889-21.181,0.005c-0.117-6.753-0.232-13.416-0.344-19.876
			c1.412-0.723,2.878-1.242,4.076-2.127c4.002-2.957,5.597-9.996-1.02-13.877c-0.828-0.485-1.722-0.895-2.635-1.185
			c-0.718-0.229-0.976-0.633-0.951-1.305c0.039-1.085,0.102-2.168,0.16-3.363C65.232,197.499,72.095,197.499,79.162,197.499z"/>
		<path style="fill-rule:evenodd;clip-rule:evenodd;fill:none;" d="M55.727,239.52c-5.975,0-11.875,0-17.6,0
			c0-3.266,0.123-6.403-0.028-9.529c-0.243-5.029-0.697-10.047-1.006-15.072c-0.338-5.511-0.639-11.026-0.106-16.544
			c0.015-0.158,0.048-0.315,0.098-0.637c6.091-0.117,12.19-0.235,18.335-0.354c0.587,1.691,0.317,3.321,0.223,4.917
			c-0.109,0.073-0.171,0.146-0.239,0.154c-5.066,0.577-6.831,5.026-6.185,9.241c0.226,1.472,0.835,2.951,1.563,4.263
			c0.997,1.796,2.633,2.917,4.715,3.251c0.493,0.079,0.8,0.168,0.79,0.797c-0.075,4.352-0.088,8.704-0.167,13.054
			c-0.036,1.934-0.172,3.864-0.275,5.796C55.831,239.13,55.749,239.401,55.727,239.52z M40.811,226.625
			c0.421,1.572,1.218,2.426,2.306,2.904c1.171,0.517,2.427,0.843,3.653,1.23c0.18,0.058,0.416,0.056,0.591-0.011
			c1.675-0.63,2.71-1.841,3.095-3.578c0.338-1.525-0.242-2.675-1.563-3.468c-0.14-0.084-0.296-0.14-0.445-0.209
			c0.265-0.503,0.434-0.817,0.597-1.135c0.556-1.084,0.384-2.241-0.46-3.112c-1.252-1.293-4.107-1.64-5.637-0.684
			c-0.875,0.546-1.082,1.167-0.697,2.377c0.6-0.145,1.209-0.303,1.825-0.438c0.624-0.137,1.255-0.35,1.88-0.336
			c0.417,0.01,0.826,0.358,1.239,0.555c-0.202,0.409-0.3,0.965-0.626,1.194c-0.647,0.455-1.421,0.729-2.144,1.077
			c-0.702,0.339-1.499,0.688-1.293,1.642c0.203,0.94,1.1,0.765,1.791,0.814c0.641,0.047,1.322-0.104,1.919,0.066
			c0.475,0.137,1.06,0.556,1.2,0.979c0.108,0.328-0.296,0.969-0.644,1.28c-0.953,0.853-1.852,0.868-2.958,0.217
			c-0.521-0.307-1.016-0.678-1.572-0.894C42.295,226.879,41.665,226.813,40.811,226.625z"/>
		<path style="fill-rule:evenodd;clip-rule:evenodd;fill:none;" d="M78.599,134.512c0.155,4.682,0.306,9.25,0.463,13.996
			c-7.2-0.225-14.289,0.822-21.51,0.021c0-5.049,0-10.051,0-15.154C64.653,133.012,71.593,134.566,78.599,134.512z"/>
		<path style="fill-rule:evenodd;clip-rule:evenodd;fill:none;" d="M103.231,148.479c-7.244,0-14.239,0-21.304,0
			c-0.943-4.703-0.395-9.419-0.896-14.185c6.283,1.336,12.42,0.363,18.554,0.217c1.04-0.024,2.08-0.003,3.155-0.003
			C102.906,139.182,103.066,143.776,103.231,148.479z"/>
		<path style="fill-rule:evenodd;clip-rule:evenodd;fill:none;" d="M127.93,148.387c-0.205-5.125-0.399-9.974-0.593-14.833
			c1.255,0,2.335,0.049,3.409-0.009c3.295-0.18,6.584-0.443,9.88-0.589c1.997-0.087,4-0.016,6.118-0.016
			c0.267,4.86,0.394,9.707-0.006,14.693C140.493,147.883,134.323,148.131,127.93,148.387z"/>
		<path style="fill-rule:evenodd;clip-rule:evenodd;fill:none;" d="M125.604,147.703c-6.601,1.171-13.122,0.791-19.814,0.846
			c-0.126-4.787-0.248-9.47-0.372-14.197c6.542-0.135,12.922-0.268,19.508-0.403C125.146,138.415,125.371,142.984,125.604,147.703z"
			/>
		<path style="fill-rule:evenodd;clip-rule:evenodd;fill:none;" d="M54.555,148.691c-5.969,0-11.839,0-17.906,0
			c-0.332-4.846,0.087-9.736-0.191-14.748c6.035-0.834,12.036,0.024,18.097-0.523C54.555,138.547,54.555,143.588,54.555,148.691z"/>
		<path style="fill-rule:evenodd;clip-rule:evenodd;fill:none;" d="M80.779,104.85c7.25-0.218,14.325-0.43,21.606-0.648
			c0,3.67,0,7.23,0,10.914c-7.049,0.687-14.232,0.892-21.602,0.774C80.496,112.182,80.568,108.545,80.779,104.85z"/>
		<path style="fill-rule:evenodd;clip-rule:evenodd;fill:none;" d="M56.912,115.295c0-3.47,0-6.911,0-10.396
			c6.89,0,13.717,0,20.688,0c0.5,3.531,0.112,7.18,0.322,10.916C70.89,115.641,63.958,115.469,56.912,115.295z"/>
		<path style="fill-rule:evenodd;clip-rule:evenodd;fill:none;" d="M124.008,114.968c-6.362,0.133-12.515,0.261-18.789,0.392
			c-0.415-3.689-0.877-7.308-0.627-11.212c6.371-0.219,12.703-0.436,19.21-0.659C125.066,107.24,124.011,111.105,124.008,114.968z"
			/>
		<path style="fill-rule:evenodd;clip-rule:evenodd;fill:none;" d="M146.108,103.645c0,3.687,0,7.222,0,10.967
			c-6.484,0-12.939,0-19.571,0c0.164-3.522-0.365-7.201,0.272-10.967C133.254,103.645,139.63,103.645,146.108,103.645z"/>
		<path style="fill-rule:evenodd;clip-rule:evenodd;fill:none;" d="M35.807,115.829c-0.349-3.721-0.471-7.324,0.013-10.97
			c6.108,0,12.128,0,18.215,0c0.552,1.666,0.418,3.397,0.416,5.116c-0.002,1.73,0,3.46,0,5.277
			C48.295,115.442,42.129,115.634,35.807,115.829z"/>
		<path style="fill-rule:evenodd;clip-rule:evenodd;fill:none;" d="M77.683,48.984c-0.179-3.523-0.348-6.832-0.524-10.309
			c2.476,0.358,4.696,0.578,6.72,1.676c2.552,1.385,2.141,5.061,0.523,6.308c-0.719,0.555-1.537,1.067-2.393,1.339
			C80.652,48.431,79.225,48.646,77.683,48.984z"/>
		<path style="fill-rule:evenodd;clip-rule:evenodd;fill:none;" d="M56.415,41.401c0.534,1.265,0.979,2.322,1.545,3.663
			c-1.449,0.107-2.653,0.195-3.946,0.291C54.361,43.769,55.164,42.61,56.415,41.401z"/>
		<path style="fill-rule:evenodd;clip-rule:evenodd;" d="M95.02,218.87c-1.202-1.58-2.333-3.068-3.609-4.748
			c-0.729-0.119-1.746-0.346-2.774-0.43c-0.6-0.05-0.938-0.329-1.023-0.824c-0.17-0.98-0.356-1.981-0.33-2.969
			c0.055-2.043,0.244-4.082,0.386-6.237c0.683-0.147,1.186,0.218,1.398,0.862c0.233,0.712,0.389,1.477,0.423,2.225
			c0.064,1.434,0.019,2.871,0.019,4.294c0.184,0.082,0.288,0.166,0.396,0.169c2.083,0.07,2.438-0.376,1.917-2.375
			c-0.081-0.31-0.147-0.624-0.19-0.941c-0.021-0.15,0.031-0.31,0.061-0.545c0.324,0,0.715-0.122,0.91,0.021
			c1.085,0.796,2.488,1.226,2.852,2.836c0.299,1.336,0.834,2.58,0.075,3.962c-0.194,0.353,0.147,0.988,0.215,1.498
			C95.883,216.717,96.289,217.82,95.02,218.87z"/>
		<path style="fill-rule:evenodd;clip-rule:evenodd;" d="M87.031,166.066c0.342-1.337,1.279-2.272,2.149-3.277
			c0.992-1.148,1.905-2.371,2.767-3.622c0.192-0.279,0.167-0.872,0.003-1.203c-0.32-0.64-0.944-0.72-1.557-0.384
			c-0.42,0.23-0.775,0.576-1.19,0.82c-0.481,0.282-0.97,0.621-1.499,0.736c-0.932,0.204-1.393-0.369-1.157-1.299
			c0.695-2.736,2.31-4.062,4.974-3.96c0.496,0.019,1.098,0.29,1.449,0.645c2.276,2.292,2.586,6.379,0.748,9.035
			c-0.203,0.295-0.413,0.583-0.697,0.982c0.674,0.202,1.29,0.337,1.866,0.571c0.813,0.331,0.867,0.938,0.117,1.408
			c-0.362,0.228-0.808,0.359-1.232,0.444C92.121,167.29,88.453,166.791,87.031,166.066z"/>
		<path style="fill-rule:evenodd;clip-rule:evenodd;" d="M40.811,226.625c0.854,0.188,1.485,0.254,2.056,0.474
			c0.556,0.216,1.052,0.587,1.572,0.894c1.106,0.651,2.005,0.636,2.958-0.217c0.348-0.312,0.752-0.952,0.644-1.28
			c-0.14-0.424-0.725-0.843-1.2-0.979c-0.597-0.17-1.279-0.02-1.919-0.066c-0.691-0.05-1.587,0.126-1.791-0.814
			c-0.206-0.953,0.591-1.303,1.293-1.642c0.722-0.349,1.496-0.622,2.144-1.077c0.327-0.229,0.425-0.785,0.626-1.194
			c-0.413-0.196-0.822-0.545-1.239-0.555c-0.625-0.014-1.256,0.199-1.88,0.336c-0.615,0.135-1.225,0.293-1.825,0.438
			c-0.385-1.21-0.179-1.831,0.697-2.377c1.53-0.956,4.385-0.609,5.637,0.684c0.844,0.871,1.016,2.028,0.46,3.112
			c-0.163,0.317-0.332,0.632-0.597,1.135c0.149,0.069,0.305,0.125,0.445,0.209c1.322,0.793,1.902,1.942,1.563,3.468
			c-0.385,1.737-1.42,2.948-3.095,3.578c-0.176,0.066-0.412,0.068-0.591,0.011c-1.226-0.388-2.481-0.714-3.653-1.23
			C42.029,229.051,41.231,228.197,40.811,226.625z"/>
	</g>
</g>
<g id="Layer_1">
</g>
</svg>
