<?xml version="1.0" encoding="iso-8859-1"?>
<!-- Generator: Adobe Illustrator 16.0.0, SVG Export Plug-In . SVG Version: 6.00 Build 0)  -->
<!DOCTYPE svg PUBLIC "-//W3C//DTD SVG 1.1//EN" "http://www.w3.org/Graphics/SVG/1.1/DTD/svg11.dtd">
<svg version="1.1" xmlns="http://www.w3.org/2000/svg" xmlns:xlink="http://www.w3.org/1999/xlink" x="0px" y="0px"
	 width="175.66px" height="234.613px" viewBox="0 0 175.66 234.613" style="enable-background:new 0 0 175.66 234.613;"
	 xml:space="preserve">
<g id="F-bar">
	<g id="F-bar_1_">
		<path style="fill:none;" d="M0-4.863c58.547,0,117.094,0,175.66,0c0,79.808,0,159.624,0,239.476c-58.541,0-117.101,0-175.66,0
			C0,154.801,0,74.972,0-4.863z M150.024,195.546c-0.09-1.522-0.243-2.876-0.237-4.229c0.027-5.517,0.129-11.032,0.154-16.549
			c0.03-6.438,0.011-12.876,0.012-19.314c0.001-0.904,0-1.809,0-2.91c1.201,0.055,2.183,0.098,3.163,0.145
			c1.115,0.051,2.232,0.17,3.343,0.129c0.549-0.021,1.087-0.337,1.616-0.516c-0.533-2.016-0.846-2.257-2.653-2.141
			c-0.517,0.033-1.028,0.146-1.545,0.176c-1.332,0.076-2.666,0.125-4.126,0.191c0-0.639,0.008-1.031-0.001-1.422
			c-0.096-4.117-0.141-8.235-0.303-12.35c-0.331-8.396-0.334-16.791,0.108-25.182c0.094-1.781,0.334-3.554,0.516-5.424
			c0.664,0,1.263-0.049,1.85,0.01c1.231,0.125,2.455,0.314,3.684,0.466c1.65,0.204,3.132-0.071,4.338-1.575
			c-3.379-1.727-6.947-1.092-10.264-1.281c0-3.084,0-6.025,0-9.049c0.393,0,0.626-0.008,0.858,0.001
			c3.12,0.132,5.141-1.446,6.351-4.179c1.13-2.549,1.194-5.223,0.45-7.86c-0.774-2.743-2.419-4.772-5.383-5.367
			c-0.766-0.153-1.565-0.133-2.385-0.195c0-3.598,0-7.137,0-10.764c3.883-1.194,7.766-0.65,11.737-0.194
			c0.379-2.509,0.334-4.921-0.153-7.321c-0.044-0.216-0.412-0.466-0.667-0.518c-0.463-0.094-0.954-0.068-1.434-0.062
			c-3.598,0.044-7.195,0.164-10.792,0.13c-6.916-0.065-13.831-0.276-20.747-0.313c-5.877-0.031-11.755,0.07-17.632,0.163
			c-6.715,0.105-13.428,0.309-20.144,0.392c-7.634,0.094-15.27,0.147-22.904,0.131c-6.717-0.014-13.433-0.144-20.149-0.23
			c-6.597-0.085-13.193-0.184-19.79-0.267c-1.748-0.021-3.495-0.003-5.481-0.003c0.128,2.263,0.255,4.321,0.356,6.382
			c0.05,0.998,0.666,1.279,1.521,1.272c1.52-0.013,3.039-0.077,4.557-0.052c0.787,0.013,1.574,0.151,2.356,0.27
			c0.569,0.086,0.734,0.458,0.741,1.031c0.034,2.876,0.126,5.752,0.164,8.629c0.009,0.702-0.11,1.406-0.166,2.052
			c-1.642,0-3.155-0.032-4.665,0.021c-0.417,0.015-0.949,0.171-1.217,0.46c-1.509,1.629-2.661,3.499-3.324,5.628
			c-0.44,1.412-0.7,2.843-0.437,4.358c0.451,2.6,1.834,4.357,4.333,5.24c1.539,0.543,3.077,1.097,4.587,1.715
			c0.286,0.117,0.639,0.57,0.623,0.848c-0.141,2.391-0.33,4.781-0.566,7.165c-0.119,1.198-0.292,1.374-1.508,1.279
			c-1.102-0.086-2.184-0.406-3.276-0.608c-1.231-0.228-2.381-0.191-3.141,1c0.445,1.395,1.526,1.714,2.744,1.77
			c1.396,0.064,2.804,0,4.19,0.146c1.419,0.15,1.401,0.231,1.415,1.648c0.055,5.596,0.122,11.192,0.172,16.789
			c0.054,5.955,0.127,11.91,0.124,17.865c-0.002,2.552-0.175,5.103-0.276,7.821c-0.702,0-1.287,0.027-1.869-0.005
			c-1.713-0.096-3.424-0.288-5.137-0.298c-1.096-0.007-2.094,0.724-2.114,1.279c-0.024,0.619,1.006,1.272,2.191,1.297
			c1.118,0.023,2.237-0.062,3.356-0.066c0.955-0.003,1.913,0.012,2.866,0.077c0.84,0.058,1.285,0.462,1.185,1.407
			c-0.123,1.15-0.162,2.312-0.189,3.471c-0.068,2.838-0.069,5.678-0.172,8.515c-0.148,4.074-0.511,8.146-0.509,12.218
			c0.003,4.231,0.353,8.463,0.506,12.696c0.062,1.741,0.01,3.487,0.01,5.376c-2.839,0.104-5.654,0.208-8.488,0.312
			c-0.123,1.234,0.456,2.126,1.073,3.02c2.488-0.546,4.93-1.175,7.562-0.446c0.229,5.134,0.457,10.229,0.685,15.329
			c1.595,0.09,2.606-0.778,2.585-2.346c-0.044-3.156-0.186-6.312-0.158-9.468c0.011-1.247,0.363-2.492,0.571-3.811
			c6.18,0.428,12.193-0.866,18.357,0.031c-0.192,5.118,0.662,10.165-0.29,15.294c0.88,0.149,1.604,0.273,2.446,0.418
			c0.665-5.381-0.118-10.649,0.291-15.874c7.412,0,14.701,0,22.022,0c0,0.816,0.012,1.533-0.002,2.249
			c-0.064,3.393-0.135,6.785-0.209,10.178c-0.018,0.814,0.151,1.512,1.106,1.874c0.262-0.309,0.563-0.62,0.815-0.969
			c1.217-1.675,1.471-3.591,1.336-5.588c-0.087-1.276-0.243-2.548-0.327-3.824c-0.094-1.438,0.072-2.846,0.535-4.097
			c7.214,0,14.312,0,21.552,0c-0.071,1.29-0.121,2.441-0.198,3.59c-0.199,2.945-0.667,5.886-0.135,8.842
			c0.088,0.485-0.028,0.839-0.507,1.081c-0.67,0.339-0.559,0.798-0.091,1.233c0.875,0.812,1.879,0.931,3.006,0.546
			c0.033-0.229,0.088-0.423,0.086-0.617c-0.02-2.555-0.115-5.112-0.053-7.665c0.053-2.15,0.3-4.295,0.433-6.444
			c0.043-0.687,0.387-0.867,1.016-0.843c0.999,0.037,2-0.006,2.999,0.02c4.236,0.104,8.471,0.228,12.707,0.328
			c0.756,0.019,1.514-0.061,2.271-0.048c0.668,0.011,0.933,0.359,0.988,1.065c0.093,1.188,0.267,2.381,0.54,3.539
			c0.344,1.46,0.519,2.888,0.2,4.382c-0.257,1.203-0.412,2.435-0.523,3.661c-0.075,0.826,0.258,1.53,1.01,2.028
			c1.5-1.687,1.924-3.638,1.774-5.735c-0.122-1.713-0.368-3.416-0.514-5.128c-0.113-1.343-0.048-2.678,0.396-3.979
			c0.272,0,0.43-0.001,0.587,0c4.716,0.037,9.431,0.072,14.146,0.111c1.079,0.01,2.158,0.036,3.237,0.05
			c0.558,0.007,0.891,0.217,0.932,0.832c0.064,0.956,0.256,1.908,0.258,2.862c0.011,3.554-0.026,7.107-0.063,10.661
			c-0.01,0.913,0.625,1.564,1.609,1.593c1.067,0.031,0.849-0.777,0.837-1.355c-0.061-2.957-0.22-5.912-0.229-8.869
			c-0.007-1.857,0.188-3.715,0.292-5.531c3.421,0,6.592,0,9.911,0c-0.081-0.733-0.137-1.358-0.22-1.979
			c-0.115-0.868-0.628-1.314-1.498-1.395c-0.993-0.09-1.981-0.238-2.977-0.306C153.069,195.674,151.598,195.623,150.024,195.546z
			 M84.37,22.662c1.045,1.217,1.283,2.56,1.354,3.991c0.066,1.35,0.179,2.715,0.461,4.033c0.226,1.051,1.004,1.358,2.161,1.153
			c1.039-0.185,0.882-1.022,0.859-1.695c-0.029-0.873-0.225-1.74-0.312-2.612c-0.116-1.168-0.483-2.343-0.028-3.549
			c0.245-0.027,0.439-0.056,0.636-0.07c2.068-0.151,4.148-0.214,6.203-0.475c1.68-0.213,1.737-0.405,1.726-2.066
			c-0.008-1.148-0.178-1.416-1.356-1.479c-1.15-0.062-2.314,0.011-3.467,0.097c-1.37,0.104-2.735,0.285-4.312,0.456
			c0.098-1.423,0.179-2.595,0.262-3.794c2.965-0.653,5.953,0.019,8.873-0.623c0-0.544,0-0.94,0.001-1.337
			c0-1.814-0.091-1.919-1.948-2.049c-0.557-0.039-1.122-0.067-1.676-0.016c-1.588,0.147-3.17,0.359-4.759,0.504
			c-1.659,0.151-3.323,0.254-5.142,0.39c0.325,1.142,0.605,2.256,0.961,3.346C85.514,18.846,85.665,20.775,84.37,22.662z
			 M106.235,48.315c0.075,1.715-0.855,2.95-2.49,3.173c-1.204,0.164-2.458,0.078-3.675-0.051c-0.428-0.045-0.963-0.459-1.184-0.854
			c-1.397-2.504-1.403-5.059,0.145-7.486c1.479-2.318,3.672-2.631,5.866-0.995c0.796,0.594,1.606,1.173,2.688,1.022
			c0.17-1.362-1.243-4.023-2.565-4.205c-1.624-0.223-3.401-0.23-4.954,0.218c-1.217,0.352-2.267,1.458-3.257,2.374
			c-1.026,0.948-1.532,2.215-1.547,3.648c-0.039,3.783,1.938,6.316,5.095,8.038c2.151,1.174,4.392,1.389,6.618,0.096
			c0.126-0.074,0.29-0.084,0.44-0.125c0.094,0.739,0.183,1.432,0.285,2.24c0.953-0.13,1.758-0.239,2.523-0.343
			c-0.12-1.966-0.208-3.801-0.348-5.632c-0.236-3.079-1.212-3.943-4.207-3.623c-1.537,0.164-3.057,0.495-4.783,0.783
			c0.244,0.817,0.461,1.54,0.703,2.353C103.191,48.73,104.704,48.524,106.235,48.315z M73.752,52.703
			c-0.027,0.119-0.054,0.237-0.08,0.355c0.557,0.244,1.108,0.679,1.672,0.696c1.782,0.052,3.619,0.196,5.343-0.151
			c3.252-0.654,5.91-2.322,7.434-5.459c0.377-0.777,0.386-1.477,0.104-2.275c-1.484-4.19-6.094-7.343-10.703-7.328
			c-0.52,0.001-1.04-0.235-1.56-0.362c-0.022-0.098-0.044-0.195-0.065-0.293c-0.201,0.248-0.354,0.572-0.61,0.731
			c-1.362,0.848-1.679,2.125-1.559,3.599c0.236,2.901,0.407,5.811,0.758,8.698C74.587,51.758,74.466,52.279,73.752,52.703z
			 M28.48,40.658c0.806-0.116,1.467-0.259,2.134-0.296c1.035-0.059,2.076-0.093,3.111-0.054c1.769,0.066,1.769,0.093,2.143-1.573
			c0.076-0.339,0.144-0.68,0.21-0.998c-1.136-0.794-2.346-0.97-3.603-0.905c-1.594,0.083-3.187,0.189-4.778,0.304
			c-0.881,0.063-1.521,0.711-1.553,1.571c-0.031,0.837-0.109,1.686-0.016,2.512c0.342,3.009,0.749,6.01,1.125,9.015
			c0.112,0.895,0.202,1.793,0.308,2.742c3.154-0.021,6.178,0.048,9.188-0.526c0.176-0.837,0.336-1.601,0.518-2.461
			c-2.57,0-4.983,0-7.479,0c-0.361-1.115-0.999-2.245-0.643-3.645c0.746-0.085,1.454-0.158,2.16-0.248
			c1.602-0.204,1.854-0.551,1.505-2.1c-0.066-0.294-0.225-0.568-0.309-0.772c-1.288,0-2.473,0-3.854,0
			C28.596,42.425,28.541,41.584,28.48,40.658z M55.644,38.132c-0.991-0.092-1.575,0.423-2.054,1.007
			c-0.449,0.549-0.832,1.175-1.139,1.817c-1.685,3.521-2.921,7.251-5.089,10.551c-0.795,1.21-0.421,1.862,1.168,2.47
			c0.36-0.765,0.663-1.587,1.117-2.314c0.314-0.503,0.787-1.17,1.276-1.253c1.766-0.3,3.572-0.35,5.355-0.562
			c0.913-0.108,1.407,0.243,1.71,1.072c0.341,0.935,0.701,1.87,1.157,2.75c0.167,0.322,0.618,0.664,0.967,0.694
			c1.265,0.111,2.271-1.23,1.751-2.374c-0.81-1.776-1.689-3.525-2.629-5.237C57.737,44.029,56.097,41.372,55.644,38.132z
			 M154.583,52.495c-2.75-1.505-5.561-0.48-8.401-0.5c-0.153-0.988-0.296-1.907-0.477-3.068c1.773-0.087,3.396-0.167,5.007-0.247
			c0-0.369,0.021-0.53-0.003-0.685c-0.41-2.653-0.029-2.401-2.755-2.177c-0.648,0.054-1.296,0.116-2.007,0.18
			c-0.021-1.442-0.767-2.646-0.147-3.991c0.419,0.025,0.812,0.059,1.205,0.07c1.59,0.046,3.188,0.21,4.768,0.096
			c1.87-0.136,2.025-0.458,1.843-2.317c-0.067-0.697-0.308-1.069-1.119-1.033c-2.871,0.127-5.746,0.188-8.62,0.283
			c-0.185,0.006-0.367,0.092-0.771,0.2c0.306,5.007,0.61,10.008,0.919,15.055c1.508,0,2.861-0.004,4.214,0.001
			c1.198,0.005,2.4,0.09,3.593,0.013C153.019,54.299,154.107,53.933,154.583,52.495z M128.331,45.104
			c-1.726,0.132-3.194,0.185-4.645,0.379c-0.883,0.118-1.171-0.309-1.256-1.014c-0.072-0.592-0.061-1.195-0.064-1.793
			c-0.008-0.878,0.062-1.763-0.02-2.633c-0.035-0.384-0.271-0.917-0.573-1.072c-0.67-0.343-1.439-0.489-2.201-0.726
			c0.284,5.14,0.557,10.055,0.825,14.919c2.147,0.434,2.245,0.355,2.262-1.62c0.002-0.24,0.005-0.48,0.001-0.719
			c-0.062-3.467,0.751-3.076,3.223-3.597c0.154-0.032,0.318-0.023,0.479-0.026c1.617-0.028,2.261,0.582,2.284,2.209
			c0.02,1.358-0.019,2.717,0.023,4.074c0.009,0.315,0.148,0.747,0.38,0.91c0.562,0.396,1.145,0.155,1.658-0.216
			c0.494-0.356,0.883-0.688,0.752-1.461c-0.232-1.367-0.391-2.762-0.404-4.147c-0.018-1.792,0.23-3.588,0.192-5.379
			c-0.04-1.912-1.012-3.35-2.916-4.522C128.331,40.892,128.331,42.868,128.331,45.104z M15.606,92.961
			c0.821-3.836-0.991-7.263-1.134-10.875c-1.367-0.208-2.503,0.118-3.31,0.988c-1.045,1.127-1.907,2.425-2.846,3.651
			c-0.384,0.502-0.525,1.012,0.106,1.42c0.57,0.368,1.079,0.535,1.652-0.152c0.646-0.774,1.466-1.404,2.347-2.224
			c0.245,0.65,0.47,1.074,0.56,1.524c0.195,0.973,0.282,1.969,0.483,2.94C13.708,91.411,13.972,92.61,15.606,92.961z"/>
		<path style="fill-rule:evenodd;clip-rule:evenodd;" d="M150.024,195.546c1.573,0.077,3.045,0.128,4.513,0.228
			c0.995,0.067,1.983,0.216,2.977,0.306c0.87,0.08,1.383,0.526,1.498,1.395c0.083,0.621,0.139,1.246,0.22,1.979
			c-3.319,0-6.49,0-9.911,0c-0.104,1.816-0.299,3.674-0.292,5.531c0.01,2.957,0.169,5.912,0.229,8.869
			c0.012,0.578,0.23,1.387-0.837,1.355c-0.984-0.028-1.619-0.68-1.609-1.593c0.037-3.554,0.074-7.107,0.063-10.661
			c-0.002-0.954-0.193-1.906-0.258-2.862c-0.041-0.615-0.374-0.825-0.932-0.832c-1.079-0.014-2.158-0.04-3.237-0.05
			c-4.716-0.039-9.431-0.074-14.146-0.111c-0.157-0.001-0.314,0-0.587,0c-0.443,1.302-0.509,2.637-0.396,3.979
			c0.146,1.712,0.392,3.415,0.514,5.128c0.149,2.098-0.274,4.049-1.774,5.735c-0.752-0.498-1.085-1.202-1.01-2.028
			c0.111-1.227,0.267-2.458,0.523-3.661c0.318-1.494,0.144-2.922-0.2-4.382c-0.273-1.158-0.447-2.352-0.54-3.539
			c-0.056-0.706-0.32-1.055-0.988-1.065c-0.757-0.013-1.515,0.066-2.271,0.048c-4.236-0.101-8.471-0.224-12.707-0.328
			c-0.999-0.025-2,0.018-2.999-0.02c-0.629-0.024-0.973,0.156-1.016,0.843c-0.133,2.149-0.38,4.294-0.433,6.444
			c-0.062,2.553,0.033,5.11,0.053,7.665c0.002,0.194-0.053,0.389-0.086,0.617c-1.127,0.385-2.131,0.267-3.006-0.546
			c-0.468-0.436-0.579-0.895,0.091-1.233c0.479-0.242,0.595-0.596,0.507-1.081c-0.532-2.956-0.064-5.896,0.135-8.842
			c0.077-1.148,0.127-2.3,0.198-3.59c-7.239,0-14.338,0-21.552,0c-0.463,1.251-0.629,2.659-0.535,4.097
			c0.084,1.276,0.24,2.548,0.327,3.824c0.135,1.997-0.119,3.913-1.336,5.588c-0.252,0.349-0.554,0.66-0.815,0.969
			c-0.955-0.362-1.124-1.06-1.106-1.874c0.074-3.393,0.145-6.785,0.209-10.178c0.014-0.716,0.002-1.433,0.002-2.249
			c-7.321,0-14.61,0-22.022,0c-0.409,5.225,0.374,10.493-0.291,15.874c-0.843-0.145-1.566-0.269-2.446-0.418
			c0.952-5.129,0.098-10.176,0.29-15.294c-6.164-0.897-12.178,0.396-18.357-0.031c-0.208,1.318-0.561,2.563-0.571,3.811
			c-0.027,3.155,0.114,6.312,0.158,9.468c0.021,1.567-0.99,2.436-2.585,2.346c-0.228-5.1-0.455-10.195-0.685-15.329
			c-2.633-0.729-5.074-0.1-7.562,0.446c-0.617-0.894-1.196-1.785-1.073-3.02c2.834-0.104,5.649-0.208,8.488-0.312
			c0-1.889,0.053-3.635-0.01-5.376c-0.153-4.233-0.503-8.465-0.506-12.696c-0.002-4.072,0.36-8.144,0.509-12.218
			c0.103-2.837,0.104-5.677,0.172-8.515c0.027-1.158,0.066-2.32,0.189-3.471c0.101-0.945-0.345-1.35-1.185-1.407
			c-0.953-0.065-1.911-0.08-2.866-0.077c-1.119,0.004-2.238,0.09-3.356,0.066c-1.186-0.024-2.216-0.678-2.191-1.297
			c0.021-0.556,1.019-1.286,2.114-1.279c1.713,0.01,3.424,0.202,5.137,0.298c0.582,0.032,1.167,0.005,1.869,0.005
			c0.102-2.719,0.274-5.27,0.276-7.821c0.003-5.955-0.07-11.91-0.124-17.865c-0.05-5.597-0.117-11.192-0.172-16.789
			c-0.014-1.417,0.004-1.499-1.415-1.648c-1.387-0.146-2.794-0.082-4.19-0.146c-1.218-0.056-2.299-0.375-2.744-1.77
			c0.76-1.191,1.909-1.227,3.141-1c1.093,0.202,2.175,0.522,3.276,0.608c1.216,0.095,1.389-0.081,1.508-1.279
			c0.236-2.384,0.426-4.773,0.566-7.165c0.016-0.278-0.337-0.731-0.623-0.848c-1.51-0.618-3.048-1.171-4.587-1.715
			c-2.499-0.883-3.882-2.64-4.333-5.24c-0.264-1.515-0.004-2.946,0.437-4.358c0.663-2.129,1.815-3.999,3.324-5.628
			c0.268-0.289,0.8-0.445,1.217-0.46c1.51-0.054,3.023-0.021,4.665-0.021c0.056-0.646,0.175-1.35,0.166-2.052
			c-0.038-2.876-0.13-5.752-0.164-8.629c-0.007-0.573-0.172-0.945-0.741-1.031c-0.782-0.119-1.569-0.257-2.356-0.27
			c-1.518-0.025-3.037,0.04-4.557,0.052c-0.855,0.007-1.472-0.275-1.521-1.272c-0.102-2.061-0.229-4.119-0.356-6.382
			c1.986,0,3.733-0.018,5.481,0.003c6.597,0.083,13.193,0.182,19.79,0.267c6.717,0.086,13.433,0.216,20.149,0.23
			c7.635,0.016,15.271-0.038,22.904-0.131c6.716-0.083,13.429-0.286,20.144-0.392c5.877-0.093,11.755-0.194,17.632-0.163
			c6.916,0.037,13.831,0.248,20.747,0.313c3.597,0.034,7.194-0.086,10.792-0.13c0.479-0.006,0.971-0.032,1.434,0.062
			c0.255,0.052,0.623,0.302,0.667,0.518c0.487,2.4,0.532,4.812,0.153,7.321c-3.972-0.457-7.854-1-11.737,0.194
			c0,3.626,0,7.166,0,10.764c0.819,0.062,1.619,0.042,2.385,0.195c2.964,0.594,4.608,2.624,5.383,5.367
			c0.744,2.637,0.68,5.311-0.45,7.86c-1.21,2.733-3.23,4.311-6.351,4.179c-0.232-0.01-0.466-0.001-0.858-0.001
			c0,3.024,0,5.965,0,9.049c3.316,0.189,6.885-0.446,10.264,1.281c-1.206,1.504-2.688,1.779-4.338,1.575
			c-1.229-0.151-2.452-0.34-3.684-0.466c-0.587-0.06-1.186-0.01-1.85-0.01c-0.182,1.87-0.422,3.643-0.516,5.424
			c-0.442,8.391-0.439,16.785-0.108,25.182c0.162,4.114,0.207,8.232,0.303,12.35c0.009,0.391,0.001,0.783,0.001,1.422
			c1.46-0.066,2.794-0.115,4.126-0.191c0.517-0.029,1.028-0.143,1.545-0.176c1.808-0.116,2.12,0.125,2.653,2.141
			c-0.529,0.179-1.067,0.495-1.616,0.516c-1.11,0.041-2.228-0.078-3.343-0.129c-0.98-0.047-1.962-0.09-3.163-0.145
			c0,1.102,0.001,2.006,0,2.91c-0.001,6.438,0.019,12.877-0.012,19.314c-0.025,5.517-0.127,11.032-0.154,16.549
			C149.781,192.67,149.935,194.023,150.024,195.546z M55.275,107.417c-0.894,14.716,0.498,29.176,0.445,43.719
			c7.34,0.611,14.512-0.355,21.857,0.039c0.034-3.154,0.176-6.143,0.076-9.122c-0.202-6.067-0.588-12.13-0.794-18.196
			c-0.126-3.715-0.036-7.435-0.088-11.152c-0.026-1.829-0.163-3.655-0.83-5.288C69.011,107.417,62.19,107.417,55.275,107.417z
			 M125.709,153.684c-7.011,0.113-13.901,0.227-20.902,0.34c0.1,1.54,0.272,2.891,0.26,4.24c-0.056,5.914-0.187,11.828-0.249,17.743
			c-0.068,6.395-0.107,12.79-0.122,19.185c-0.004,1.479,0.064,1.526,1.553,1.509c5.595-0.069,11.188-0.173,16.783-0.259
			c0.866-0.013,1.732-0.002,2.694-0.002C125.445,182.116,126.55,168.025,125.709,153.684z M146.148,106.333
			c-1.368,0-2.601,0.005-3.832-0.001c-4.318-0.02-8.637-0.058-12.954-0.054c-0.9,0.001-1.8,0.148-2.786,0.235
			c-0.746,14.815,0.645,29.425,1.09,44.069c6.535,1.1,12.869-0.294,19.34-0.208C147.209,135.609,146.447,121.01,146.148,106.333z
			 M33.928,151.037c6.411,0,12.582,0,18.812,0c0.118-14.615,0.783-29.176-0.622-43.768c-0.906,0.058-1.739,0.173-2.568,0.155
			c-4.035-0.09-8.068-0.236-12.104-0.319c-1.336-0.027-2.675,0.074-4.04,0.116c-0.096,1.744-0.275,3.298-0.25,4.849
			c0.095,5.832,0.269,11.663,0.391,17.495c0.14,6.67,0.256,13.34,0.381,20.009C33.936,150.043,33.928,150.514,33.928,151.037z
			 M127.331,196.26c1.048,0,1.958-0.003,2.869,0c3.439,0.014,6.878,0.032,10.317,0.04c2.073,0.005,4.132-0.122,6.276-0.699
			c0-1.7-0.104-3.378,0.021-5.038c0.273-3.66,0.938-7.283,0.843-10.979c-0.223-8.712-0.381-17.426-0.57-26.138
			c-0.003-0.148-0.075-0.295-0.141-0.539c-6.43,0.33-12.831,0.658-19.354,0.992C128.437,168.014,127.525,182.103,127.331,196.26z
			 M101.949,118.73c0-2.653,0.023-5.163-0.012-7.672c-0.014-0.954-0.083-1.921-0.27-2.853c-0.249-1.244-0.319-1.257-1.587-1.242
			c-6.516,0.082-13.031,0.172-19.546,0.267c-0.263,0.003-0.523,0.089-0.805,0.141c-0.796,14.539,0.334,28.976,0.528,43.622
			c7.477,0.096,14.81,0.189,22.081,0.283c0-4.26,0-8.472,0-12.459c-1.716-0.661-3.173-1.305-4.683-1.774
			c-0.956-0.298-1.578-0.869-2.099-1.65c-2.48-3.726-2.258-10.029,0.468-13.58C97.508,119.885,99.52,118.973,101.949,118.73z
			 M125.386,150.59c-0.53-14.857-1.056-29.575-1.583-44.382c-6.6,0.162-13.085,0.321-19.527,0.479
			c-0.509,3.239-0.092,10.214,0.364,12.028c0.342,0.048,0.695,0.101,1.049,0.148c3.461,0.461,5.626,2.488,6.729,5.698
			c1.03,2.997,0.867,6-0.424,8.874c-1.194,2.663-3.183,4.505-6.167,4.944c-0.874,0.128-1.148,0.398-1.112,1.261
			c0.159,3.752,0.265,7.506,0.397,11.26c0.002,0.06,0.095,0.116,0.146,0.176C111.967,151.623,118.652,151.281,125.386,150.59z
			 M80.763,175.209c1.172,0.391,2.415,0.697,3.567,1.209c4.262,1.893,6.429,6.491,5.143,10.92c-0.981,3.379-3.201,5.626-6.517,6.812
			c-0.592,0.212-1.21,0.452-1.695,0.832c-0.659,0.516-0.551,1.079,0.263,1.286c0.797,0.203,1.65,0.25,2.479,0.251
			c5.632,0.008,11.264-0.015,16.896-0.027c0.432-0.001,0.863,0,1.371,0c0.067-0.571,0.175-1.079,0.181-1.589
			c0.032-2.838,0.04-5.676,0.055-8.514c0.014-2.719-0.053-5.439,0.056-8.154c0.307-7.674,0.218-15.342-0.152-23.01
			c-0.022-0.461-0.127-0.92-0.186-1.331c-7.373,0.14-14.618,0.278-21.928,0.417C80.452,161.356,80.607,168.254,80.763,175.209z
			 M55.787,154.219c0.106,1.648,0.273,3.076,0.257,4.501c-0.008,0.669,0.239,0.853,0.76,1.125c1.62,0.847,3.288,1.655,4.759,2.726
			c2.044,1.486,3.131,3.595,3.08,6.186c-0.082,4.229-3.661,9.294-7.662,10.753c-0.784,0.285-0.986,0.652-0.996,1.452
			c-0.051,3.915-0.186,7.829-0.273,11.743c-0.028,1.253-0.004,2.507-0.004,3.741c6.803-0.149,13.655-0.301,20.508-0.452
			c-0.27-0.32-0.573-0.481-0.896-0.544c-1.39-0.266-2.34-1.135-3.136-2.226c-2.064-2.828-2.704-6.004-2.217-9.423
			c0.307-2.15,1.178-4.038,2.771-5.576c1.109-1.072,2.502-1.514,3.911-1.969c1.77-0.572,1.779-0.595,1.748-2.408
			c-0.11-6.393-0.232-12.783-0.355-19.175c-0.003-0.187-0.076-0.372-0.094-0.454C70.561,154.219,63.26,154.219,55.787,154.219z
			 M53.293,196.753c0-5.699,0-11.153,0-16.642c-1.8-0.345-3.344-0.954-4.575-2.177c-3.196-3.177-4.093-7.055-3.229-11.347
			c0.764-3.795,3.026-6.26,6.946-7.001c0.185-0.034,0.369-0.075,0.547-0.112c0-1.74,0-3.401,0-5.044
			c-0.207-0.079-0.314-0.155-0.424-0.158c-5.872-0.174-11.745-0.333-17.617-0.521c-0.841-0.027-1.045,0.459-1.064,1.112
			c-0.079,2.598-0.236,5.198-0.174,7.792c0.125,5.154,0.451,10.303,0.553,15.456c0.106,5.433,0.049,10.868,0.062,16.302
			c0.002,0.785,0,1.57,0,2.599C40.678,196.926,46.929,196.841,53.293,196.753z M79.602,77.716
			c7.447,0.099,14.643,0.194,21.689,0.288c0-4.144,0-8.038,0-12.083c-0.74,0-1.288,0.005-1.837,0
			c-6.306-0.066-12.611-0.131-18.917-0.202c-1.013-0.011-1.335,0.349-1.289,1.367c0.07,1.592,0.091,3.188,0.144,4.781
			C79.454,73.772,79.527,75.677,79.602,77.716z M55.497,66.473c-0.097,3.917-0.19,7.659-0.286,11.535
			c7.43,0.179,14.711,0.059,22.069-0.234c-0.01-4.07,0.056-7.922-0.346-11.738C69.734,66.183,62.674,66.327,55.497,66.473z
			 M124.626,66.125c-6.902,0-13.629,0-20.398,0c-0.501,3.845-0.535,7.687-0.219,11.676c6.917,0,13.733,0,20.617,0
			C124.626,74.032,124.626,70.209,124.626,66.125z M52.918,77.912c0-2-0.043-3.873,0.012-5.743c0.057-1.899,0.326-3.803-0.282-5.857
			c-6.324-0.081-12.618-0.161-18.98-0.242c-0.514,3.97-0.205,7.901-0.3,11.842C39.914,77.912,46.263,77.912,52.918,77.912z
			 M127.133,78.015c6.595-0.318,13.066-0.629,19.613-0.945c0.117-1.808,0.338-3.597,0.319-5.384
			c-0.016-1.545-0.286-3.089-0.479-4.63c-0.104-0.835-0.529-1.188-1.466-1.1c-1.547,0.146-3.111,0.167-4.667,0.155
			c-3.873-0.029-7.747-0.107-11.62-0.164c-0.428-0.006-0.854-0.001-1.386-0.001C127.515,70.09,126.864,74.08,127.133,78.015z
			 M67.71,94.464c-0.068,0.68-0.764,0.473-1.328,0.491c-3.074,0.097-6.148,0.17-9.223,0.272c-0.706,0.023-1.409,0.128-2.078,0.192
			c0,3.079,0,6.055,0,9.092c0.119,0.023,0.268,0.07,0.418,0.078c6.667,0.351,13.335,0.431,20-0.038
			c0.494-0.035,0.979-0.188,1.302-0.252c0-3.208,0-6.225,0-9.388c-2.376,0-4.604,0.031-6.83-0.019
			C69.282,94.878,68.6,94.641,67.71,94.464z M101.7,95.792c-7.475-0.29-14.823-0.575-22.169-0.859
			c-0.104,3.331-0.2,6.461-0.303,9.758c7.409,0,14.698,0,22.009,0C101.919,101.768,102.054,98.808,101.7,95.792z M103.971,95.852
			c0.134,2.903,0.268,5.789,0.395,8.532c6.797,0,13.332,0,19.897,0c0-2.907,0-5.638,0-8.532
			C117.497,95.852,110.801,95.852,103.971,95.852z M33.032,104.346c6.641,0.349,13.04,0.438,19.47-0.036c0-3.035,0-5.9,0-8.923
			c-6.416-0.582-12.667,1.001-19.046,0.798C33.312,98.948,33.177,101.559,33.032,104.346z M146.847,95.032
			c-6.875,0.391-13.516,0.768-20.248,1.151c0,2.765,0,5.376,0,7.916c6.639,0,13.174,0,19.781,0
			C146.535,101.079,146.683,98.223,146.847,95.032z"/>
		<path style="fill-rule:evenodd;clip-rule:evenodd;" d="M84.37,18.662c1.295-1.887,1.144-3.816,0.498-5.796
			c-0.355-1.09-0.636-2.205-0.961-3.346c1.818-0.136,3.482-0.239,5.142-0.39c1.589-0.145,3.171-0.357,4.759-0.504
			c0.554-0.051,1.119-0.023,1.676,0.016c1.857,0.13,1.948,0.234,1.948,2.049c-0.001,0.397-0.001,0.793-0.001,1.337
			c-2.92,0.642-5.908-0.031-8.873,0.623c-0.083,1.199-0.164,2.371-0.262,3.794c1.576-0.17,2.941-0.352,4.312-0.456
			c1.152-0.086,2.316-0.159,3.467-0.097c1.179,0.063,1.349,0.331,1.356,1.479c0.012,1.661-0.046,1.853-1.726,2.066
			c-2.055,0.261-4.135,0.324-6.203,0.475c-0.196,0.015-0.391,0.043-0.636,0.07c-0.455,1.206-0.088,2.38,0.028,3.549
			c0.087,0.873,0.282,1.739,0.312,2.612c0.022,0.673,0.18,1.511-0.859,1.695c-1.157,0.206-1.936-0.102-2.161-1.153
			c-0.282-1.318-0.395-2.683-0.461-4.033C85.653,21.222,85.415,19.879,84.37,18.662z"/>
		<path style="fill-rule:evenodd;clip-rule:evenodd;" d="M106.235,48.315c-1.531,0.208-3.044,0.415-4.646,0.633
			c-0.242-0.812-0.459-1.535-0.703-2.353c1.727-0.289,3.246-0.619,4.783-0.783c2.995-0.32,3.971,0.544,4.207,3.623
			c0.14,1.831,0.228,3.666,0.348,5.632c-0.766,0.104-1.57,0.213-2.523,0.343c-0.103-0.808-0.191-1.501-0.285-2.24
			c-0.15,0.041-0.314,0.051-0.44,0.125c-2.227,1.292-4.467,1.078-6.618-0.096c-3.156-1.722-5.134-4.255-5.095-8.038
			c0.015-1.434,0.521-2.7,1.547-3.648c0.99-0.916,2.04-2.022,3.257-2.374c1.553-0.448,3.33-0.441,4.954-0.218
			c1.322,0.182,2.735,2.843,2.565,4.205c-1.081,0.15-1.892-0.429-2.688-1.022c-2.194-1.637-4.387-1.324-5.866,0.995
			c-1.548,2.427-1.542,4.981-0.145,7.486c0.221,0.395,0.756,0.809,1.184,0.854c1.217,0.128,2.471,0.215,3.675,0.051
			C105.38,51.266,106.311,50.031,106.235,48.315z"/>
		<path style="fill-rule:evenodd;clip-rule:evenodd;" d="M73.752,52.703c0.714-0.424,0.835-0.945,0.732-1.79
			c-0.351-2.887-0.521-5.796-0.758-8.698c-0.12-1.474,0.196-2.75,1.559-3.599c0.256-0.159,0.409-0.483,0.61-0.731
			c0.021,0.098,0.043,0.195,0.065,0.293c0.52,0.126,1.04,0.363,1.56,0.362c4.609-0.015,9.219,3.138,10.703,7.328
			c0.282,0.799,0.273,1.499-0.104,2.275c-1.523,3.138-4.182,4.806-7.434,5.459c-1.724,0.347-3.561,0.203-5.343,0.151
			c-0.563-0.017-1.115-0.452-1.672-0.696C73.698,52.939,73.725,52.821,73.752,52.703z M77.257,51.814
			c2.643-0.485,4.964-1.368,6.682-3.348c0.516-0.594,0.902-1.44,1.013-2.219c0.268-1.9-0.964-3.48-3.141-4.021
			c-1.676-0.417-3.405-0.619-5.14-0.921C75.888,44.843,76.089,48.282,77.257,51.814z"/>
		<path style="fill-rule:evenodd;clip-rule:evenodd;" d="M28.48,40.658c0.061,0.926,0.115,1.767,0.167,2.565
			c1.382,0,2.566,0,3.854,0c0.084,0.205,0.242,0.478,0.309,0.772c0.35,1.548,0.097,1.896-1.505,2.1
			c-0.706,0.09-1.414,0.163-2.16,0.248c-0.356,1.4,0.281,2.53,0.643,3.645c2.495,0,4.908,0,7.479,0
			c-0.182,0.86-0.342,1.624-0.518,2.461c-3.01,0.574-6.033,0.505-9.188,0.526c-0.105-0.949-0.195-1.847-0.308-2.742
			c-0.376-3.005-0.783-6.006-1.125-9.015c-0.094-0.826-0.016-1.675,0.016-2.512c0.031-0.859,0.672-1.507,1.553-1.571
			c1.592-0.114,3.185-0.221,4.778-0.304c1.257-0.065,2.467,0.111,3.603,0.905c-0.066,0.318-0.134,0.659-0.21,0.998
			c-0.374,1.666-0.374,1.639-2.143,1.573c-1.035-0.039-2.076-0.005-3.111,0.054C29.947,40.399,29.286,40.542,28.48,40.658z"/>
		<path style="fill-rule:evenodd;clip-rule:evenodd;" d="M55.644,38.132c0.453,3.24,2.094,5.896,3.592,8.623
			c0.939,1.711,1.819,3.46,2.629,5.237c0.521,1.143-0.486,2.484-1.751,2.374c-0.349-0.031-0.8-0.372-0.967-0.694
			c-0.456-0.881-0.816-1.816-1.157-2.75c-0.303-0.829-0.797-1.18-1.71-1.072c-1.783,0.212-3.59,0.262-5.355,0.562
			c-0.489,0.083-0.962,0.75-1.276,1.253c-0.454,0.727-0.757,1.549-1.117,2.314c-1.589-0.607-1.963-1.26-1.168-2.47
			c2.168-3.3,3.404-7.03,5.089-10.551c0.307-0.642,0.689-1.268,1.139-1.817C54.068,38.556,54.652,38.041,55.644,38.132z
			 M52.214,47.583c0.489,0.126,0.828,0.248,1.178,0.296c0.917,0.128,2.122-0.356,2.407-0.999c0.385-0.868,0.043-1.633-0.466-2.333
			c-0.504-0.694-1.152-0.676-1.576,0.074C53.231,45.548,52.769,46.511,52.214,47.583z"/>
		<path style="fill-rule:evenodd;clip-rule:evenodd;" d="M154.583,52.495c-0.476,1.438-1.564,1.805-2.753,1.881
			c-1.192,0.077-2.395-0.008-3.593-0.013c-1.353-0.006-2.706-0.001-4.214-0.001c-0.309-5.047-0.613-10.047-0.919-15.055
			c0.404-0.108,0.587-0.194,0.771-0.2c2.874-0.095,5.749-0.156,8.62-0.283c0.812-0.036,1.052,0.336,1.119,1.033
			c0.183,1.859,0.027,2.182-1.843,2.317c-1.579,0.115-3.178-0.049-4.768-0.096c-0.394-0.012-0.786-0.045-1.205-0.07
			c-0.619,1.346,0.126,2.549,0.147,3.991c0.711-0.064,1.358-0.126,2.007-0.18c2.726-0.225,2.345-0.476,2.755,2.177
			c0.023,0.154,0.003,0.315,0.003,0.685c-1.61,0.079-3.233,0.159-5.007,0.247c0.181,1.161,0.323,2.08,0.477,3.068
			C149.022,52.015,151.833,50.99,154.583,52.495z"/>
		<path style="fill-rule:evenodd;clip-rule:evenodd;" d="M128.331,45.104c0-2.236,0-4.212,0-6.434
			c1.904,1.172,2.876,2.61,2.916,4.522c0.038,1.791-0.21,3.587-0.192,5.379c0.014,1.385,0.172,2.78,0.404,4.147
			c0.131,0.773-0.258,1.105-0.752,1.461c-0.514,0.371-1.096,0.612-1.658,0.216c-0.231-0.163-0.371-0.595-0.38-0.91
			c-0.042-1.357-0.004-2.716-0.023-4.074c-0.023-1.627-0.667-2.237-2.284-2.209c-0.16,0.003-0.324-0.006-0.479,0.026
			c-2.472,0.521-3.285,0.129-3.223,3.597c0.004,0.239,0.001,0.479-0.001,0.719c-0.017,1.975-0.114,2.054-2.262,1.62
			c-0.269-4.864-0.541-9.78-0.825-14.919c0.762,0.236,1.531,0.382,2.201,0.726c0.303,0.155,0.538,0.688,0.573,1.072
			c0.081,0.87,0.012,1.754,0.02,2.633c0.004,0.598-0.008,1.201,0.064,1.793c0.085,0.706,0.373,1.132,1.256,1.014
			C125.137,45.289,126.605,45.236,128.331,45.104z"/>
		<path style="fill-rule:evenodd;clip-rule:evenodd;" d="M15.606,92.961c-1.635-0.351-1.898-1.55-2.142-2.727
			c-0.201-0.972-0.288-1.967-0.483-2.94c-0.09-0.451-0.315-0.874-0.56-1.524c-0.881,0.819-1.7,1.449-2.347,2.224
			c-0.574,0.687-1.083,0.52-1.652,0.152c-0.632-0.408-0.491-0.918-0.106-1.42c0.938-1.226,1.8-2.524,2.846-3.651
			c0.807-0.87,1.943-1.195,3.31-0.988C14.615,85.698,16.428,89.125,15.606,92.961z"/>
		<path style="fill-rule:evenodd;clip-rule:evenodd;fill:none;" d="M55.275,107.417c6.915,0,13.735,0,20.667,0
			c0.667,1.633,0.804,3.459,0.83,5.288c0.052,3.717-0.038,7.437,0.088,11.152c0.206,6.066,0.592,12.129,0.794,18.196
			c0.1,2.979-0.042,5.968-0.076,9.122c-7.346-0.395-14.518,0.572-21.857-0.039C55.773,136.594,54.382,122.134,55.275,107.417z"/>
		<path style="fill-rule:evenodd;clip-rule:evenodd;fill:none;" d="M125.709,153.684c0.841,14.342-0.264,28.433,0.017,42.756
			c-0.962,0-1.828-0.011-2.694,0.002c-5.595,0.086-11.188,0.189-16.783,0.259c-1.488,0.018-1.557-0.029-1.553-1.509
			c0.015-6.395,0.054-12.79,0.122-19.185c0.062-5.915,0.193-11.829,0.249-17.743c0.013-1.35-0.16-2.7-0.26-4.24
			C111.808,153.91,118.698,153.797,125.709,153.684z"/>
		<path style="fill-rule:evenodd;clip-rule:evenodd;fill:none;" d="M146.148,106.333c0.299,14.677,1.061,29.277,0.857,44.042
			c-6.471-0.086-12.805,1.308-19.34,0.208c-0.445-14.645-1.836-29.254-1.09-44.069c0.986-0.087,1.886-0.234,2.786-0.235
			c4.317-0.003,8.636,0.035,12.954,0.054C143.548,106.337,144.78,106.333,146.148,106.333z"/>
		<path style="fill-rule:evenodd;clip-rule:evenodd;fill:none;" d="M33.928,151.037c0-0.523,0.008-0.994-0.001-1.464
			c-0.125-6.669-0.241-13.339-0.381-20.009c-0.122-5.832-0.296-11.663-0.391-17.495c-0.025-1.551,0.154-3.105,0.25-4.849
			c1.365-0.042,2.704-0.144,4.04-0.116c4.035,0.083,8.068,0.229,12.104,0.319c0.829,0.019,1.662-0.097,2.568-0.155
			c1.405,14.592,0.74,29.152,0.622,43.768C46.51,151.037,40.339,151.037,33.928,151.037z"/>
		<path style="fill-rule:evenodd;clip-rule:evenodd;fill:none;" d="M127.331,196.26c0.194-14.157,1.105-28.246,0.261-42.361
			c6.523-0.334,12.925-0.662,19.354-0.992c0.065,0.244,0.138,0.391,0.141,0.539c0.189,8.712,0.348,17.426,0.57,26.138
			c0.095,3.696-0.569,7.319-0.843,10.979c-0.124,1.66-0.021,3.338-0.021,5.038c-2.145,0.577-4.203,0.704-6.276,0.699
			c-3.439-0.008-6.878-0.026-10.317-0.04C129.289,196.257,128.379,196.26,127.331,196.26z"/>
		<path style="fill-rule:evenodd;clip-rule:evenodd;fill:none;" d="M101.949,118.73c-2.43,0.242-4.441,1.154-5.923,3.083
			c-2.726,3.551-2.948,9.854-0.468,13.58c0.521,0.781,1.143,1.353,2.099,1.65c1.51,0.47,2.967,1.113,4.683,1.774
			c0,3.987,0,8.199,0,12.459c-7.271-0.094-14.604-0.188-22.081-0.283c-0.194-14.646-1.324-29.083-0.528-43.622
			c0.281-0.052,0.542-0.138,0.805-0.141c6.515-0.095,13.03-0.185,19.546-0.267c1.268-0.016,1.338-0.002,1.587,1.242
			c0.187,0.932,0.256,1.899,0.27,2.853C101.973,113.567,101.949,116.078,101.949,118.73z M88.404,124.708
			c-0.043-0.171-0.074-0.222-0.06-0.247c0.215-0.376,0.436-0.748,0.653-1.122c1.142-1.962,1.975-4.013,1.726-6.35
			c-0.139-1.311-0.765-2.019-2.021-2.364c-2.599-0.714-5.758,1.693-5.899,4.515c-0.024,0.481,0.062,0.969,0.099,1.472
			c1.326-0.185,1.91-1.091,2.591-1.858c0.608-0.686,1.2-1.384,2.258-1.454c0.106,0.192,0.23,0.352,0.292,0.533
			c0.431,1.269,0.004,2.37-0.759,3.351c-0.857,1.102-1.847,2.105-2.658,3.238c-0.474,0.661-0.822,1.463-1.028,2.254
			c-0.211,0.803,0.105,1.025,0.967,1.007c1.558-0.032,3.116-0.072,4.673-0.047c0.835,0.015,1.667,0.187,2.503,0.235
			c0.708,0.04,1.289-0.729,1.026-1.304c-0.278-0.61-0.565-1.218-0.859-1.821c-0.251-0.516-0.555-0.793-1.224-0.554
			C89.953,124.453,89.162,124.545,88.404,124.708z"/>
		<path style="fill-rule:evenodd;clip-rule:evenodd;fill:none;" d="M125.386,150.59c-6.733,0.691-13.419,1.033-20.128,0.486
			c-0.052-0.06-0.145-0.116-0.146-0.176c-0.133-3.754-0.238-7.508-0.397-11.26c-0.036-0.862,0.238-1.133,1.112-1.261
			c2.984-0.439,4.973-2.281,6.167-4.944c1.291-2.874,1.454-5.877,0.424-8.874c-1.103-3.21-3.268-5.237-6.729-5.698
			c-0.354-0.048-0.707-0.101-1.049-0.148c-0.456-1.814-0.873-8.79-0.364-12.028c6.442-0.158,12.928-0.316,19.527-0.479
			C124.33,121.015,124.855,135.732,125.386,150.59z"/>
		<path style="fill-rule:evenodd;clip-rule:evenodd;fill:none;" d="M80.763,175.209c-0.155-6.955-0.311-13.853-0.468-20.898
			c7.31-0.139,14.555-0.277,21.928-0.417c0.059,0.411,0.163,0.87,0.186,1.331c0.37,7.668,0.459,15.336,0.152,23.01
			c-0.108,2.715-0.042,5.436-0.056,8.154c-0.015,2.838-0.022,5.676-0.055,8.514c-0.006,0.51-0.113,1.018-0.181,1.589
			c-0.508,0-0.939-0.001-1.371,0c-5.632,0.013-11.264,0.035-16.896,0.027c-0.829-0.001-1.683-0.048-2.479-0.251
			c-0.813-0.207-0.922-0.771-0.263-1.286c0.485-0.38,1.104-0.62,1.695-0.832c3.315-1.186,5.535-3.433,6.517-6.812
			c1.286-4.429-0.881-9.027-5.143-10.92C83.178,175.906,81.935,175.6,80.763,175.209z M94.746,179.361
			c0,0.704-0.004,1.373,0.002,2.043c0.005,0.598-0.03,1.203,0.047,1.792c0.082,0.62,0.391,1.185,1.093,1.226
			c0.824,0.049,1.267-0.441,1.291-1.371c0.013-0.514-0.095-1.029-0.133-1.545c-0.052-0.705-0.09-1.411-0.137-2.154
			c0.988-0.191,1.847-0.402,2.239-1.598c-0.436-0.225-0.871-0.545-1.357-0.678c-1.12-0.307-1.25-0.431-1.047-1.55
			c0.113-0.627,0.337-1.241,0.378-1.87c0.023-0.354-0.14-0.945-0.37-1.033c-0.325-0.125-0.902-0.004-1.167,0.236
			c-0.355,0.322-0.605,0.834-0.735,1.309c-0.167,0.609-0.209,1.262-0.233,1.898c-0.026,0.676-0.227,1.111-0.992,0.93
			c-0.635-0.15-1.147-0.402-0.806-1.239c0.132-0.325,0.191-0.704,0.187-1.057c-0.02-1.546-0.026-3.095-0.145-4.635
			c-0.044-0.562-0.413-1.077-1.16-0.866c-0.628,0.178-1.132,0.945-1.119,1.48c0.031,1.348-0.005,2.697,0.01,4.045
			c0.01,0.99,0.034,1.981,0.098,2.969c0.037,0.585,0.389,0.923,0.985,1.033C92.65,178.907,93.621,179.126,94.746,179.361z"/>
		<path style="fill-rule:evenodd;clip-rule:evenodd;fill:none;" d="M55.787,154.219c7.473,0,14.773,0,22.159,0
			c0.018,0.082,0.091,0.268,0.094,0.454c0.123,6.392,0.245,12.782,0.355,19.175c0.031,1.813,0.021,1.836-1.748,2.408
			c-1.409,0.455-2.802,0.896-3.911,1.969c-1.593,1.538-2.464,3.426-2.771,5.576c-0.487,3.419,0.152,6.595,2.217,9.423
			c0.796,1.091,1.746,1.96,3.136,2.226c0.323,0.062,0.627,0.224,0.896,0.544c-6.853,0.151-13.705,0.303-20.508,0.452
			c0-1.234-0.024-2.488,0.004-3.741c0.088-3.914,0.223-7.828,0.273-11.743c0.01-0.8,0.212-1.167,0.996-1.452
			c4.001-1.459,7.58-6.524,7.662-10.753c0.051-2.591-1.036-4.699-3.08-6.186c-1.471-1.07-3.139-1.879-4.759-2.726
			c-0.521-0.272-0.768-0.456-0.76-1.125C56.061,157.295,55.894,155.867,55.787,154.219z"/>
		<path style="fill-rule:evenodd;clip-rule:evenodd;fill:none;" d="M53.293,196.753c-6.364,0.088-12.615,0.173-18.976,0.26
			c0-1.028,0.002-1.813,0-2.599c-0.013-5.434,0.045-10.869-0.062-16.302c-0.102-5.153-0.428-10.302-0.553-15.456
			c-0.062-2.594,0.095-5.194,0.174-7.792c0.02-0.653,0.224-1.14,1.064-1.112c5.872,0.188,11.745,0.347,17.617,0.521
			c0.109,0.003,0.217,0.079,0.424,0.158c0,1.643,0,3.304,0,5.044c-0.178,0.037-0.362,0.078-0.547,0.112
			c-3.92,0.741-6.183,3.206-6.946,7.001c-0.864,4.292,0.032,8.17,3.229,11.347c1.231,1.223,2.775,1.832,4.575,2.177
			C53.293,185.6,53.293,191.054,53.293,196.753z M36.879,165.287c0.312-0.091,0.533-0.18,0.764-0.219
			c1.479-0.246,2.709,0.727,2.793,2.225c0.044,0.783-0.282,1.43-0.978,1.782c-0.678,0.343-0.987-0.315-1.378-0.668
			c-0.634-0.575-1.242-1.18-1.89-1.799c-0.827,1.415-0.599,2.401,0.638,3.33c2.157,1.621,3.431,1.73,4.746,0.409
			c1.782-1.789,1.711-3.684-0.231-6.136c2.129-2.265,1.506-4.791,0.133-6.11c-1.123-1.08-2.339-1.439-3.466-0.938
			c-1.146,0.511-1.883,1.963-1.739,3.77c0.912-0.676,1.707-1.264,2.656-1.967c0.431,0.651,0.903,1.191,1.179,1.82
			c0.459,1.045,0.23,1.504-0.832,1.969c-0.473,0.208-0.977,0.344-1.459,0.529C36.69,163.717,36.603,163.898,36.879,165.287z"/>
		<path style="fill-rule:evenodd;clip-rule:evenodd;fill:none;" d="M79.602,77.716c-0.074-2.039-0.147-3.944-0.21-5.85
			c-0.053-1.594-0.073-3.189-0.144-4.781c-0.046-1.018,0.276-1.378,1.289-1.367c6.306,0.071,12.611,0.136,18.917,0.202
			c0.549,0.005,1.097,0,1.837,0c0,4.045,0,7.939,0,12.083C94.244,77.91,87.049,77.815,79.602,77.716z"/>
		<path style="fill-rule:evenodd;clip-rule:evenodd;fill:none;" d="M55.497,66.473c7.177-0.146,14.237-0.29,21.438-0.437
			c0.401,3.815,0.336,7.668,0.346,11.738c-7.358,0.292-14.64,0.413-22.069,0.234C55.307,74.132,55.4,70.39,55.497,66.473z"/>
		<path style="fill-rule:evenodd;clip-rule:evenodd;fill:none;" d="M124.626,66.125c0,4.084,0,7.907,0,11.676
			c-6.884,0-13.7,0-20.617,0c-0.316-3.99-0.282-7.832,0.219-11.676C110.997,66.125,117.724,66.125,124.626,66.125z"/>
		<path style="fill-rule:evenodd;clip-rule:evenodd;fill:none;" d="M52.918,77.912c-6.655,0-13.004,0-19.551,0
			c0.095-3.941-0.214-7.872,0.3-11.842c6.362,0.081,12.656,0.161,18.98,0.242c0.608,2.055,0.339,3.958,0.282,5.857
			C52.875,74.039,52.918,75.912,52.918,77.912z"/>
		<path style="fill-rule:evenodd;clip-rule:evenodd;fill:none;" d="M127.133,78.015c-0.269-3.936,0.382-7.925,0.314-12.068
			c0.531,0,0.958-0.005,1.386,0.001c3.873,0.057,7.747,0.135,11.62,0.164c1.556,0.012,3.12-0.009,4.667-0.155
			c0.937-0.089,1.361,0.265,1.466,1.1c0.193,1.541,0.464,3.085,0.479,4.63c0.019,1.787-0.202,3.576-0.319,5.384
			C140.199,77.386,133.728,77.697,127.133,78.015z"/>
		<path style="fill-rule:evenodd;clip-rule:evenodd;fill:none;" d="M67.71,94.464c0.89,0.177,1.572,0.414,2.261,0.43
			c2.226,0.05,4.454,0.019,6.83,0.019c0,3.163,0,6.179,0,9.388c-0.322,0.064-0.808,0.217-1.302,0.252
			c-6.665,0.469-13.333,0.389-20,0.038c-0.15-0.008-0.299-0.055-0.418-0.078c0-3.038,0-6.014,0-9.092
			c0.669-0.064,1.372-0.169,2.078-0.192c3.074-0.102,6.148-0.175,9.223-0.272C66.946,94.938,67.642,95.144,67.71,94.464z"/>
		<path style="fill-rule:evenodd;clip-rule:evenodd;fill:none;" d="M101.7,95.792c0.354,3.015,0.219,5.976-0.463,8.899
			c-7.311,0-14.6,0-22.009,0c0.103-3.297,0.199-6.427,0.303-9.758C86.877,95.218,94.226,95.503,101.7,95.792z"/>
		<path style="fill-rule:evenodd;clip-rule:evenodd;fill:none;" d="M103.971,95.852c6.83,0,13.526,0,20.292,0
			c0,2.894,0,5.625,0,8.532c-6.565,0-13.101,0-19.897,0C104.238,101.64,104.104,98.755,103.971,95.852z"/>
		<path style="fill-rule:evenodd;clip-rule:evenodd;fill:none;" d="M33.032,104.346c0.145-2.787,0.28-5.397,0.424-8.161
			c6.379,0.204,12.63-1.379,19.046-0.798c0,3.023,0,5.888,0,8.923C46.072,104.784,39.673,104.695,33.032,104.346z"/>
		<path style="fill-rule:evenodd;clip-rule:evenodd;fill:none;" d="M146.847,95.032c-0.164,3.191-0.312,6.047-0.467,9.067
			c-6.607,0-13.143,0-19.781,0c0-2.54,0-5.151,0-7.916C133.331,95.8,139.972,95.422,146.847,95.032z"/>
		<path style="fill-rule:evenodd;clip-rule:evenodd;fill:none;" d="M77.257,51.814c-1.168-3.533-1.369-6.972-0.586-10.51
			c1.734,0.303,3.464,0.504,5.14,0.921c2.177,0.542,3.408,2.122,3.141,4.021c-0.11,0.778-0.497,1.625-1.013,2.219
			C82.221,50.446,79.899,51.329,77.257,51.814z"/>
		<path style="fill-rule:evenodd;clip-rule:evenodd;fill:none;" d="M52.214,47.583c0.555-1.072,1.018-2.035,1.543-2.963
			c0.424-0.75,1.072-0.768,1.576-0.074c0.509,0.701,0.851,1.465,0.466,2.333c-0.285,0.643-1.49,1.127-2.407,0.999
			C53.042,47.831,52.703,47.709,52.214,47.583z"/>
		<path style="fill-rule:evenodd;clip-rule:evenodd;" d="M88.404,124.708c0.758-0.163,1.549-0.255,2.279-0.516
			c0.669-0.239,0.973,0.038,1.224,0.554c0.294,0.604,0.581,1.211,0.859,1.821c0.263,0.575-0.318,1.344-1.026,1.304
			c-0.836-0.049-1.668-0.221-2.503-0.235c-1.557-0.025-3.115,0.015-4.673,0.047c-0.861,0.019-1.178-0.204-0.967-1.007
			c0.206-0.791,0.555-1.593,1.028-2.254c0.812-1.133,1.801-2.137,2.658-3.238c0.763-0.98,1.189-2.082,0.759-3.351
			c-0.062-0.181-0.186-0.341-0.292-0.533c-1.058,0.069-1.649,0.768-2.258,1.454c-0.681,0.768-1.265,1.674-2.591,1.858
			c-0.037-0.503-0.123-0.99-0.099-1.472c0.142-2.822,3.301-5.229,5.899-4.515c1.256,0.345,1.882,1.053,2.021,2.364
			c0.249,2.337-0.584,4.388-1.726,6.35c-0.218,0.374-0.438,0.746-0.653,1.122C88.33,124.486,88.361,124.537,88.404,124.708z"/>
		<path style="fill-rule:evenodd;clip-rule:evenodd;" d="M94.746,179.361c-1.125-0.235-2.096-0.454-3.072-0.635
			c-0.597-0.11-0.948-0.448-0.985-1.033c-0.063-0.987-0.088-1.979-0.098-2.969c-0.015-1.348,0.021-2.697-0.01-4.045
			c-0.013-0.535,0.491-1.303,1.119-1.48c0.747-0.211,1.116,0.305,1.16,0.866c0.118,1.54,0.125,3.089,0.145,4.635
			c0.005,0.353-0.055,0.731-0.187,1.057c-0.342,0.837,0.171,1.089,0.806,1.239c0.766,0.182,0.966-0.254,0.992-0.93
			c0.024-0.637,0.066-1.289,0.233-1.898c0.13-0.475,0.38-0.986,0.735-1.309c0.265-0.24,0.842-0.361,1.167-0.236
			c0.23,0.088,0.394,0.68,0.37,1.033c-0.041,0.629-0.265,1.243-0.378,1.87c-0.203,1.119-0.073,1.243,1.047,1.55
			c0.486,0.133,0.922,0.453,1.357,0.678c-0.393,1.195-1.251,1.406-2.239,1.598c0.047,0.743,0.085,1.449,0.137,2.154
			c0.038,0.516,0.146,1.031,0.133,1.545c-0.024,0.93-0.467,1.42-1.291,1.371c-0.702-0.041-1.011-0.605-1.093-1.226
			c-0.077-0.589-0.042-1.194-0.047-1.792C94.742,180.734,94.746,180.065,94.746,179.361z"/>
		<path style="fill-rule:evenodd;clip-rule:evenodd;" d="M36.879,165.287c-0.276-1.389-0.188-1.57,0.936-2.002
			c0.482-0.186,0.986-0.321,1.459-0.529c1.062-0.465,1.291-0.924,0.832-1.969c-0.275-0.629-0.748-1.169-1.179-1.82
			c-0.949,0.703-1.744,1.291-2.656,1.967c-0.144-1.807,0.593-3.259,1.739-3.77c1.127-0.502,2.343-0.143,3.466,0.938
			c1.373,1.319,1.996,3.846-0.133,6.11c1.942,2.452,2.014,4.347,0.231,6.136c-1.315,1.321-2.589,1.212-4.746-0.409
			c-1.236-0.929-1.465-1.915-0.638-3.33c0.647,0.619,1.256,1.224,1.89,1.799c0.391,0.353,0.7,1.011,1.378,0.668
			c0.695-0.353,1.021-0.999,0.978-1.782c-0.084-1.498-1.313-2.471-2.793-2.225C37.412,165.107,37.19,165.196,36.879,165.287z"/>
	</g>
</g>
<g id="Layer_1">
</g>
</svg>
