<?xml version="1.0" encoding="UTF-8" standalone="no"?>
<!DOCTYPE svg PUBLIC "-//W3C//DTD SVG 1.1//EN" "http://www.w3.org/Graphics/SVG/1.1/DTD/svg11.dtd">
<svg width="100%" height="100%" viewBox="0 0 963 1280" version="1.1" xmlns="http://www.w3.org/2000/svg" xmlns:xlink="http://www.w3.org/1999/xlink" xml:space="preserve" xmlns:serif="http://www.serif.com/" style="fill-rule:evenodd;clip-rule:evenodd;stroke-linejoin:round;stroke-miterlimit:2;">
    <g transform="matrix(1.14667,0,0,1.09556,481.901,650.246)">
        <g id="Bm" transform="matrix(1,0,0,1,-338.5,-621)">
            <g transform="matrix(0.1,0,0,-0.1,0,1242)">
                <path d="M2870,12050C2840,12045 2801,12043 2784,12046C2726,12056 2724,12042 2735,11710C2736,11658 2739,11552 2740,11474C2741,11397 2746,11327 2750,11320C2771,11287 2944,11323 3033,11380C3122,11436 3140,11463 3140,11540C3140,11624 3078,11720 3023,11720L2995,11720L3029,11741C3092,11779 3095,11786 3095,11881C3095,11954 3092,11973 3074,11997C3036,12048 2969,12065 2870,12050ZM2990,11950C3019,11924 3022,11917 3017,11884C3014,11865 3005,11841 2998,11832C2975,11804 2850,11700 2839,11700C2832,11700 2830,11740 2833,11816C2838,11944 2843,11956 2901,11970C2953,11982 2954,11982 2990,11950ZM3037,11613C3056,11566 3055,11494 3034,11462C3015,11434 2927,11390 2887,11390C2871,11390 2861,11393 2863,11398C2866,11402 2862,11439 2854,11480C2847,11521 2841,11569 2840,11587C2840,11616 2843,11620 2878,11625C2898,11628 2922,11635 2930,11640C2938,11645 2962,11649 2983,11649C3018,11650 3022,11647 3037,11613Z" style="fill-rule:nonzero;"/>
                <path d="M3240,11750C3229,11730 3230,11713 3250,11555C3261,11463 3280,11359 3286,11348C3289,11344 3306,11340 3325,11340L3359,11340L3358,11448C3358,11526 3361,11563 3372,11583C3389,11614 3418,11639 3438,11640C3460,11640 3497,11540 3503,11465C3510,11377 3518,11355 3536,11371C3543,11377 3553,11379 3558,11376C3579,11363 3592,11401 3589,11464C3586,11519 3589,11535 3610,11569C3649,11632 3700,11647 3737,11608C3764,11578 3780,11432 3760,11395C3732,11342 3778,11322 3837,11363C3870,11385 3875,11400 3871,11465C3863,11598 3787,11698 3692,11700C3657,11700 3592,11671 3571,11646C3559,11632 3552,11636 3514,11679C3472,11725 3467,11728 3432,11723C3390,11717 3331,11684 3329,11667C3328,11660 3324,11675 3319,11700C3306,11764 3263,11792 3240,11750Z" style="fill-rule:nonzero;"/>
                <path d="M1434,11562C1417,11550 1367,11471 1320,11383C1296,11337 1273,11300 1269,11300C1256,11300 1173,11436 1162,11476C1155,11499 1143,11523 1135,11530C1118,11544 1084,11535 1076,11514C1066,11487 1108,11388 1168,11301L1226,11215L1195,11145C1178,11107 1145,11046 1122,11011C1076,10940 1075,10937 1093,10922C1131,10891 1176,10937 1244,11078C1261,11112 1277,11140 1280,11140C1287,11140 1390,10955 1390,10942C1390,10936 1401,10923 1414,10915C1434,10901 1442,10901 1459,10912C1471,10919 1480,10928 1480,10932C1480,10950 1377,11146 1349,11181C1320,11218 1319,11223 1331,11253C1338,11271 1351,11296 1361,11310C1405,11375 1490,11528 1490,11542C1490,11565 1456,11577 1434,11562Z" style="fill-rule:nonzero;"/>
                <path d="M1132,10724C1126,10717 1114,10713 1107,10716C1100,10718 1085,10712 1075,10700C1060,10684 1058,10667 1060,10608C1062,10568 1064,10514 1064,10488C1065,10461 1067,10440 1070,10440C1073,10440 1076,10417 1078,10388C1079,10360 1084,10331 1088,10326C1093,10320 1096,10296 1096,10273C1095,10251 1099,10234 1103,10237C1108,10240 1111,10232 1110,10219C1109,10206 1109,10193 1110,10190C1116,10173 1115,10140 1108,10140C1103,10140 1101,10137 1103,10133C1109,10123 1198,10124 1348,10134C1456,10142 1462,10143 1471,10167C1476,10180 1480,10204 1480,10220C1480,10249 1479,10249 1418,10252C1383,10254 1322,10253 1281,10250C1201,10244 1198,10246 1186,10315C1183,10329 1179,10344 1175,10349C1167,10363 1198,10376 1245,10379C1298,10383 1320,10404 1320,10450C1320,10495 1298,10508 1223,10505C1194,10504 1170,10506 1169,10509C1169,10512 1166,10527 1164,10541C1157,10584 1189,10596 1305,10594C1360,10594 1410,10597 1416,10601C1422,10606 1427,10624 1428,10641C1428,10658 1433,10677 1439,10684C1447,10693 1444,10702 1427,10717C1407,10735 1393,10736 1291,10734C1229,10732 1172,10729 1165,10726C1157,10723 1150,10725 1148,10730C1146,10734 1139,10732 1132,10724Z" style="fill-rule:nonzero;"/>
                <path d="M2088,10680C2079,10670 2074,10659 2078,10656C2081,10653 2078,10650 2071,10650C2064,10650 2061,10646 2064,10641C2067,10636 2063,10627 2055,10620C2047,10613 2040,10601 2040,10594C2040,10586 2036,10572 2031,10562C2026,10553 2016,10531 2009,10513C2002,10496 1992,10484 1986,10487C1981,10490 1980,10488 1984,10481C1988,10475 1983,10457 1973,10442C1941,10394 1932,10377 1875,10263L1818,10150L1851,10120C1870,10104 1887,10090 1891,10090C1898,10090 1926,10151 1923,10161C1922,10164 1933,10181 1948,10199C1974,10229 1979,10231 2055,10235C2134,10239 2172,10244 2188,10254C2199,10261 2221,10246 2224,10229C2225,10221 2232,10204 2240,10190C2248,10176 2255,10161 2256,10155C2257,10150 2265,10128 2274,10107C2286,10078 2294,10070 2307,10074C2317,10077 2337,10082 2351,10085C2366,10089 2383,10102 2390,10114C2400,10134 2398,10145 2372,10194C2356,10226 2344,10259 2346,10268C2348,10277 2337,10303 2320,10325C2289,10367 2238,10460 2245,10460C2252,10460 2210,10540 2179,10586C2162,10611 2153,10637 2154,10654C2159,10695 2118,10712 2088,10680ZM2131,10446C2132,10440 2132,10430 2131,10424C2130,10417 2137,10410 2145,10406C2154,10403 2158,10395 2155,10390C2151,10384 2153,10373 2160,10365C2176,10346 2161,10340 2091,10336C2034,10333 2016,10340 2040,10355C2045,10358 2061,10385 2075,10415C2093,10453 2105,10467 2115,10463C2123,10460 2131,10453 2131,10446Z" style="fill-rule:nonzero;"/>
                <path d="M2884,10681C2888,10675 2885,10670 2877,10670C2860,10670 2807,10630 2814,10623C2817,10620 2815,10609 2809,10599C2802,10586 2803,10580 2810,10580C2816,10580 2818,10575 2814,10568C2804,10553 2802,10490 2811,10485C2814,10483 2816,10458 2816,10430C2815,10403 2819,10380 2823,10380C2828,10380 2828,10374 2823,10368C2813,10351 2813,10330 2823,10300C2839,10253 2840,10170 2825,10164C2818,10161 2809,10152 2806,10144C2803,10135 2805,10132 2810,10135C2816,10138 2820,10134 2820,10125C2820,10117 2832,10105 2847,10099C2877,10088 3000,10081 3000,10091C3000,10094 3010,10096 3023,10096C3035,10095 3051,10098 3058,10104C3066,10109 3079,10115 3088,10116C3126,10122 3141,10127 3152,10138C3159,10145 3170,10150 3176,10150C3193,10150 3269,10202 3297,10232C3308,10244 3328,10275 3341,10299C3361,10338 3362,10347 3351,10384C3345,10406 3338,10432 3337,10440C3332,10480 3225,10600 3195,10600C3188,10600 3177,10606 3171,10614C3150,10639 3056,10673 2995,10676C2962,10678 2922,10683 2906,10687C2886,10691 2879,10690 2884,10681ZM3066,10539C3148,10525 3203,10474 3217,10399L3227,10349L3182,10305C3141,10265 3081,10227 3055,10224C3050,10224 3038,10220 3030,10217C3022,10214 2998,10207 2978,10202C2944,10193 2941,10194 2935,10218C2926,10256 2919,10348 2917,10463L2915,10560L2960,10555C2985,10552 3033,10544 3066,10539Z" style="fill-rule:nonzero;"/>
                <path d="M4486,10674C4483,10665 4483,10653 4487,10647C4496,10632 4503,10525 4504,10367C4505,10292 4508,10230 4511,10230C4514,10230 4516,10208 4516,10181C4515,10129 4523,10115 4555,10116C4612,10118 4615,10123 4615,10222C4615,10304 4617,10315 4632,10314C4642,10313 4647,10316 4644,10321C4639,10329 4658,10331 4768,10333C4785,10333 4800,10338 4800,10342C4800,10347 4804,10349 4809,10345C4815,10342 4819,10285 4818,10219C4818,10147 4822,10094 4828,10088C4848,10068 4885,10073 4916,10102L4947,10131L4933,10183C4925,10212 4919,10264 4920,10300C4924,10461 4923,10508 4917,10548C4904,10626 4819,10717 4814,10659C4813,10651 4811,10643 4810,10640C4809,10637 4807,10594 4806,10544C4803,10446 4799,10432 4772,10431C4763,10430 4721,10429 4680,10428L4605,10426L4605,10538C4605,10625 4601,10653 4590,10660C4582,10665 4572,10666 4568,10664C4564,10661 4560,10664 4560,10669C4560,10675 4557,10679 4553,10679C4548,10678 4543,10678 4540,10680C4514,10690 4491,10687 4486,10674Z" style="fill-rule:nonzero;"/>
                <path d="M3845,10669C3823,10665 3802,10664 3799,10666C3795,10668 3785,10661 3775,10650C3765,10639 3753,10633 3748,10636C3737,10643 3630,10542 3630,10524C3630,10518 3624,10507 3616,10501C3601,10488 3596,10373 3611,10364C3616,10361 3618,10354 3614,10349C3611,10344 3614,10333 3620,10325C3626,10317 3629,10307 3626,10302C3623,10296 3627,10287 3635,10280C3643,10273 3650,10261 3650,10253C3650,10236 3765,10118 3773,10126C3776,10129 3787,10127 3799,10121C3845,10097 3857,10094 3898,10091C3923,10090 3956,10095 3976,10105C4013,10122 4073,10136 4054,10123C4045,10117 4045,10106 4054,10080C4064,10049 4069,10045 4100,10045C4152,10045 4171,10064 4164,10113C4162,10135 4156,10158 4153,10164C4149,10170 4145,10213 4145,10260C4144,10307 4138,10356 4131,10368C4118,10393 4069,10415 4035,10413C3965,10409 3884,10398 3870,10390C3860,10385 3849,10384 3845,10388C3842,10392 3832,10386 3824,10376C3810,10357 3814,10316 3831,10294C3840,10283 3897,10285 3963,10300C4009,10310 4015,10301 3993,10261C3963,10209 3880,10185 3796,10204C3755,10214 3752,10216 3729,10262C3712,10295 3709,10314 3714,10369C3717,10405 3720,10442 3720,10451C3722,10471 3766,10520 3810,10551C3841,10573 3860,10576 3917,10571C3933,10570 3981,10524 3974,10518C3966,10509 4039,10487 4055,10494C4086,10506 4072,10554 4021,10609C3980,10654 3964,10664 3928,10669C3904,10673 3867,10673 3845,10669Z" style="fill-rule:nonzero;"/>
                <path d="M5685,10669C5668,10664 5587,10659 5505,10658L5355,10655L5355,10545C5354,10485 5356,10431 5359,10425C5362,10420 5365,10386 5367,10350C5368,10314 5373,10247 5377,10200C5380,10153 5383,10111 5381,10106C5377,10088 5401,10085 5542,10087C5716,10090 5749,10093 5743,10102C5741,10107 5745,10110 5753,10110C5761,10110 5773,10117 5780,10125C5790,10138 5789,10144 5775,10160C5765,10171 5755,10178 5752,10175C5749,10172 5741,10175 5734,10180C5721,10191 5667,10193 5537,10186C5465,10182 5460,10183 5465,10200C5468,10210 5466,10221 5460,10225C5455,10228 5450,10239 5450,10249C5450,10282 5478,10294 5548,10293C5619,10292 5640,10300 5635,10328C5633,10337 5628,10361 5625,10382C5620,10417 5618,10418 5580,10415C5559,10413 5536,10409 5529,10404C5521,10399 5519,10401 5525,10409C5530,10419 5528,10420 5514,10413C5470,10393 5457,10402 5455,10455C5453,10483 5451,10512 5449,10520C5445,10535 5445,10535 5610,10531C5646,10530 5689,10533 5705,10538C5734,10546 5735,10549 5735,10603C5734,10669 5726,10680 5685,10669Z" style="fill-rule:nonzero;"/>
                <path d="M3800,10040C3800,10035 3805,10030 3810,10030C3816,10030 3820,10035 3820,10040C3820,10046 3816,10050 3810,10050C3805,10050 3800,10046 3800,10040Z" style="fill-rule:nonzero;"/>
                <path d="M4205,9952C4202,9949 4112,9946 4005,9945C3898,9944 3807,9940 3804,9937C3800,9933 3789,9935 3778,9941C3768,9946 3755,9948 3749,9944C3743,9940 3618,9937 3471,9936C3325,9935 3199,9931 3191,9926C3181,9920 3179,9921 3184,9928C3194,9944 3177,9943 3161,9928C3151,9919 3149,9919 3154,9927C3161,9940 3123,9939 3102,9926C3095,9922 3090,9924 3090,9931C3090,9938 3086,9939 3078,9933C3063,9922 2140,9923 2122,9934C2115,9938 2110,9937 2110,9933C2110,9925 2042,9925 1813,9932C1789,9933 1770,9937 1770,9940C1770,9949 1523,9946 1515,9938C1511,9934 1498,9935 1485,9940C1472,9945 1459,9946 1455,9942C1451,9938 1324,9935 1172,9935L895,9935L894,9837C893,9783 898,9718 904,9693L916,9647L975,9644C1008,9642 1041,9638 1047,9635C1054,9633 1060,9634 1060,9638C1060,9646 1214,9645 1227,9637C1232,9634 1236,9547 1236,9445C1235,9342 1237,9257 1240,9255C1251,9248 1238,8498 1225,8385C1222,8363 1218,8320 1216,8288C1214,8257 1209,8227 1205,8220C1198,8209 1114,8208 1095,8219C1084,8226 1032,8231 986,8231C969,8231 947,8221 936,8210C916,8191 916,8189 932,8162C941,8147 955,8135 963,8135C971,8135 984,8130 991,8124C999,8119 1016,8115 1030,8116C1044,8117 1059,8115 1063,8113C1068,8110 1106,8107 1147,8106L1223,8105L1226,7805C1228,7640 1231,7482 1233,7453C1236,7417 1233,7403 1226,7407C1218,7412 1219,7409 1226,7399C1234,7389 1237,7252 1236,6925L1235,6466L1212,6460C1200,6457 1139,6457 1077,6460C955,6466 937,6464 900,6437L875,6420L901,6394C925,6371 934,6369 1022,6368C1074,6367 1122,6370 1128,6374C1135,6378 1140,6377 1140,6372C1140,6368 1160,6365 1185,6366C1219,6368 1232,6364 1238,6352C1247,6333 1247,6247 1237,6150C1233,6114 1227,5952 1224,5790C1219,5510 1213,5301 1209,5290C1208,5287 1208,5282 1208,5279C1213,5237 1223,4962 1224,4853L1225,4710L1190,4709C1158,4709 1076,4703 990,4696C971,4694 942,4692 926,4691C902,4690 900,4688 910,4675C916,4667 919,4657 916,4652C913,4646 917,4637 925,4630C932,4624 937,4613 934,4606C931,4599 935,4588 942,4582C955,4572 977,4574 1055,4596C1081,4603 1260,4607 1261,4600C1265,4586 1271,4048 1273,3577C1274,3233 1272,3046 1265,3042C1260,3038 1226,3037 1190,3039C1044,3048 973,3044 946,3027C915,3006 913,2989 941,2964C959,2948 980,2945 1111,2944C1237,2944 1264,2941 1278,2927C1289,2915 1290,2910 1282,2910C1274,2910 1272,2905 1277,2897C1288,2879 1288,2767 1276,2752C1270,2744 1265,2609 1263,2422C1262,2248 1257,2082 1252,2054C1247,2026 1245,1941 1246,1864C1248,1788 1251,1639 1253,1534C1255,1429 1260,1338 1263,1333C1277,1310 1249,1300 1154,1295C941,1284 955,1287 956,1254C958,1217 963,1201 979,1172C989,1153 994,1151 1007,1161C1023,1175 1024,1175 1120,1185C1195,1193 1187,1193 1225,1191C1250,1190 1255,1186 1257,1162C1258,1147 1262,1106 1265,1070C1268,1034 1272,928 1274,834C1276,740 1280,658 1284,651C1288,645 1287,640 1282,640C1268,640 1279,602 1295,596C1303,593 1319,599 1332,609C1345,619 1362,629 1370,632C1383,637 1386,677 1388,906C1389,1054 1394,1178 1399,1183C1404,1188 1434,1191 1467,1190C1536,1188 1513,1188 1680,1195C1850,1202 1899,1202 1910,1195C1914,1192 1921,1196 1923,1202C1927,1212 1931,1211 1939,1200C1947,1188 1950,1188 1950,1199C1950,1210 1953,1210 1965,1200C1977,1190 1980,1190 1980,1200C1980,1210 1983,1210 1994,1201C2005,1192 2009,1192 2013,1202C2017,1212 2021,1212 2029,1200C2036,1190 2040,1189 2040,1198C2040,1204 2046,1210 2053,1210C2063,1210 2067,1183 2070,1103C2074,983 2073,730 2068,660C2066,630 2069,615 2078,614C2084,613 2091,612 2093,610C2094,609 2104,607 2115,605C2160,596 2162,614 2162,885C2162,973 2161,1077 2160,1115C2159,1154 2158,1190 2159,1195C2160,1202 2292,1205 2568,1205C2964,1204 2975,1203 2972,1184C2971,1174 2968,1071 2965,955C2962,839 2960,736 2960,726C2959,715 2970,695 2984,682C3006,660 3011,658 3026,671C3035,678 3052,705 3063,730C3081,770 3083,797 3083,991L3084,1206L3361,1205C3514,1204 3637,1207 3634,1212C3626,1225 3644,1221 3659,1208C3667,1201 3670,1200 3667,1205C3664,1212 3699,1216 3769,1216L3877,1217L3875,1166C3874,1138 3869,1099 3865,1080C3861,1061 3856,970 3855,877C3854,735 3851,707 3837,693C3821,677 3822,674 3851,644C3879,615 3883,613 3915,625C3934,631 3952,639 3956,643C3959,646 3963,770 3964,919C3965,1126 3968,1192 3978,1202C3988,1212 4064,1215 4325,1215C4509,1215 4660,1211 4660,1206C4660,1201 4666,1202 4673,1208C4697,1229 4709,1205 4712,1127C4714,1085 4718,1050 4722,1050C4732,1050 4724,832 4713,818C4701,803 4701,741 4714,722C4718,715 4720,706 4716,703C4711,698 4721,686 4752,662C4766,650 4771,653 4785,683C4808,732 4817,803 4813,911C4804,1187 4804,1209 4814,1213C4820,1215 4854,1215 4890,1213C4967,1209 5410,1206 5425,1210C5431,1211 5450,1212 5468,1211L5500,1210L5500,1147C5500,1113 5503,1060 5506,1030C5516,925 5510,695 5496,671C5485,654 5527,610 5556,610C5596,610 5600,627 5594,786C5588,940 5588,1116 5594,1160C5596,1174 5598,1190 5599,1195C5600,1202 5663,1206 5782,1205C5987,1205 5973,1199 5957,1282C5946,1333 5933,1337 5750,1346C5687,1349 5630,1353 5624,1355C5607,1360 5601,1407 5612,1453C5617,1476 5621,1545 5620,1605C5614,1987 5624,2964 5635,2972C5644,2978 5722,2976 5813,2966C5862,2961 5916,2976 5924,2996C5931,3015 5883,3081 5867,3075C5860,3072 5816,3069 5768,3067C5720,3065 5678,3061 5675,3058C5672,3055 5658,3055 5645,3058L5620,3062L5619,3359C5617,3907 5618,4094 5625,4290C5629,4397 5632,4514 5632,4550L5631,4615L5723,4613C5774,4613 5815,4611 5815,4610C5815,4609 5825,4607 5838,4606C5850,4604 5860,4606 5860,4610C5860,4613 5875,4616 5893,4616C5924,4615 5925,4617 5926,4655C5926,4677 5924,4700 5921,4705C5918,4711 5915,4717 5915,4720C5915,4723 5910,4732 5905,4740C5895,4755 5887,4756 5706,4765C5651,4768 5604,4773 5601,4776C5598,4779 5597,4838 5599,4908C5605,5074 5604,5102 5594,5185C5589,5224 5587,5329 5588,5420C5589,5511 5591,5719 5593,5882C5594,6046 5597,6180 5600,6180C5603,6180 5605,6228 5605,6287L5605,6394L5658,6394C5688,6395 5714,6392 5716,6388C5723,6377 5859,6387 5875,6400C5894,6415 5894,6444 5877,6462C5869,6469 5865,6480 5867,6486C5871,6497 5706,6500 5685,6489C5679,6486 5657,6484 5635,6485L5595,6485L5590,6615C5583,6786 5586,7671 5594,7924C5598,8034 5605,8129 5610,8135C5616,8142 5646,8145 5692,8142C5732,8139 5802,8137 5848,8137C5920,8136 5933,8139 5952,8158C5973,8179 5973,8180 5956,8199C5946,8210 5935,8219 5931,8218C5902,8215 5870,8223 5853,8240C5835,8256 5830,8257 5821,8246C5808,8230 5767,8237 5777,8253C5781,8259 5778,8260 5769,8254C5747,8240 5679,8240 5687,8254C5692,8262 5690,8262 5679,8254C5671,8248 5647,8243 5625,8244C5587,8245 5585,8246 5587,8275C5593,8343 5591,8511 5584,8521C5580,8528 5581,8530 5586,8527C5592,8524 5595,8548 5593,8589L5591,8656L5629,8657C5743,8662 5813,8777 5806,8951C5804,9022 5801,9031 5766,9079C5745,9107 5724,9130 5719,9130C5714,9130 5701,9138 5691,9147C5673,9162 5657,9167 5609,9172C5594,9174 5593,9199 5594,9410L5595,9645L5640,9647C5762,9654 5922,9654 5927,9648C5929,9643 5936,9640 5941,9640C5947,9640 5948,9646 5944,9653C5938,9662 5940,9662 5951,9654C5959,9648 5979,9643 5995,9644L6025,9645L6024,9772C6023,9871 6020,9904 6007,9924L5990,9949L5758,9947C5630,9946 5519,9941 5511,9936C5501,9930 5499,9931 5504,9938C5512,9951 5498,9955 5487,9944C5480,9937 5326,9938 5215,9946C5122,9953 4211,9958 4205,9952ZM2927,9636C2934,9629 2945,9259 2941,9156L2940,9127L2813,9136C2623,9149 2542,9147 2375,9128C2189,9107 2144,9106 2137,9123C2134,9131 2134,9168 2136,9206C2139,9244 2143,9347 2145,9435C2147,9523 2149,9602 2149,9611C2150,9624 2166,9627 2243,9628C2595,9632 2861,9638 2866,9643C2873,9650 2918,9645 2927,9636ZM3823,9641C3827,9640 3828,9629 3824,9615C3813,9571 3813,9347 3824,9300C3833,9264 3836,9197 3831,9147C3830,9143 3791,9139 3743,9140C3661,9140 3108,9131 3092,9129C3088,9128 3081,9129 3075,9130C3070,9131 3058,9133 3050,9134C3038,9135 3035,9156 3033,9250C3032,9313 3029,9428 3027,9506L3023,9647L3419,9644C3637,9643 3818,9641 3823,9641ZM4430,9639C4526,9638 4619,9640 4636,9644L4667,9651L4670,9573C4675,9426 4673,9170 4668,9164C4660,9156 4564,9152 4218,9145L3922,9139L3923,9244C3925,9331 3928,9350 3940,9350C3953,9350 3953,9351 3940,9360C3928,9367 3925,9388 3927,9452C3927,9498 3929,9558 3929,9587C3930,9649 3921,9646 4120,9643C4194,9641 4334,9640 4430,9639ZM5478,9635C5483,9631 5485,9208 5481,9179C5480,9173 5429,9172 4967,9165L4769,9162L4776,9349C4782,9527 4787,9643 4789,9647C4791,9651 5474,9639 5478,9635ZM1821,9627L2047,9625L2043,9520C2040,9462 2038,9399 2036,9380C2035,9361 2038,9339 2043,9333C2048,9326 2049,9320 2044,9320C2039,9320 2035,9272 2035,9213L2034,9106L1997,9098C1951,9089 1867,9029 1852,8995C1837,8963 1837,8920 1851,8883C1857,8868 1863,8842 1866,8826C1868,8810 1876,8790 1885,8780C1893,8771 1900,8756 1900,8747C1900,8738 1909,8726 1919,8720C1930,8715 1941,8701 1945,8691C1948,8680 1969,8663 1990,8653C2029,8635 2029,8635 2030,8575C2030,8542 2031,8467 2032,8407C2034,8348 2032,8300 2028,8300C2024,8300 2025,8288 2029,8273C2043,8223 2032,8215 1955,8216C1917,8217 1882,8215 1877,8213C1868,8208 1390,8209 1361,8215C1325,8222 1321,8228 1326,8278C1333,8364 1340,8633 1339,8780C1338,9010 1339,9551 1341,9598L1343,9641L1469,9635C1538,9632 1697,9628 1821,9627ZM3725,8667L3825,8665L3827,8635C3837,8462 3841,8317 3835,8303C3830,8293 3826,8274 3825,8260C3820,8202 3841,8205 3447,8207C3248,8207 3071,8209 3053,8209L3022,8210L3026,8423C3031,8653 3033,8668 3054,8651C3061,8645 3069,8642 3071,8644C3073,8646 3107,8651 3145,8654C3225,8661 3334,8672 3337,8674C3338,8675 3532,8672 3725,8667ZM4196,8667C4199,8664 4214,8665 4230,8670C4245,8674 4348,8678 4458,8677L4658,8677L4656,8219L4631,8221L4595,8221C4571,8217 3947,8220 3943,8224C3941,8226 3937,8315 3934,8421C3931,8528 3928,8626 3927,8640C3925,8664 3927,8665 4010,8670C4109,8676 4188,8675 4196,8667ZM5310,8670C5313,8669 5339,8669 5368,8670C5397,8671 5434,8669 5450,8665L5479,8659L5476,8454C5474,8342 5470,8247 5467,8244C5457,8234 5410,8232 5410,8242C5410,8247 5404,8248 5398,8243C5380,8233 5110,8233 5110,8244C5110,8249 5103,8247 5095,8240C5083,8230 5080,8230 5080,8240C5080,8250 5077,8250 5065,8240C5057,8233 5050,8232 5050,8237C5050,8248 5021,8248 5002,8236C4996,8232 4990,8233 4990,8238C4990,8248 4954,8247 4944,8237C4932,8225 4918,8229 4926,8243C4932,8252 4931,8252 4919,8244C4911,8237 4894,8233 4880,8234C4866,8235 4843,8233 4828,8229C4810,8224 4800,8225 4800,8232C4800,8239 4796,8239 4787,8232C4755,8205 4751,8233 4755,8435C4757,8545 4759,8642 4760,8651C4760,8664 4779,8666 4899,8663C4975,8662 5042,8660 5046,8659C5051,8658 5062,8660 5070,8663C5078,8666 5096,8670 5110,8672C5135,8675 5301,8673 5310,8670ZM2868,8646C2886,8644 2903,8647 2906,8652C2909,8657 2918,8656 2926,8649C2933,8643 2937,8633 2934,8628C2930,8622 2926,8530 2924,8423C2923,8316 2918,8225 2915,8222C2911,8218 2883,8214 2852,8212C2733,8207 2194,8205 2166,8210L2137,8215L2135,8395C2134,8494 2130,8585 2126,8597C2117,8626 2133,8634 2210,8637C2373,8642 2533,8650 2537,8654C2541,8658 2819,8652 2868,8646ZM4647,8141C4656,8140 4658,8069 4655,7858L4652,7575L4621,7569C4589,7562 4512,7503 4511,7484C4510,7479 4501,7464 4490,7452C4473,7434 4445,7373 4436,7330C4432,7314 4451,7220 4464,7185C4468,7174 4476,7153 4482,7138C4488,7123 4500,7102 4509,7091C4525,7071 4561,7024 4571,7009C4574,7004 4599,6999 4626,6998C4654,6996 4677,6991 4678,6985C4679,6980 4682,6896 4685,6800C4688,6704 4692,6595 4694,6557C4696,6515 4693,6486 4685,6480C4666,6464 4003,6446 3979,6461C3965,6469 3962,6542 3955,7145C3952,7387 3948,7628 3945,7680C3927,8114 3927,8117 3946,8124C3955,8128 4103,8133 4274,8136C4445,8139 4586,8143 4587,8144C4589,8146 4600,8146 4612,8144C4625,8143 4640,8141 4647,8141ZM5464,8030C5465,7968 5462,7916 5459,7915C5456,7913 5455,7887 5457,7858C5459,7829 5462,7731 5465,7640C5468,7549 5473,7414 5475,7340C5478,7266 5481,7046 5483,6852C5485,6575 5483,6496 5473,6488C5464,6481 5460,6481 5460,6490C5460,6500 5457,6500 5445,6490C5434,6481 5430,6481 5430,6489C5430,6496 5425,6498 5418,6494C5400,6483 5370,6482 5370,6492C5370,6497 5360,6496 5349,6489C5333,6481 5329,6481 5335,6490C5341,6499 5337,6499 5321,6491C5309,6484 5262,6478 5215,6477C5169,6475 5128,6471 5124,6467C5120,6464 5113,6463 5107,6467C5101,6470 5069,6472 5036,6470C4908,6464 4838,6465 4833,6473C4831,6477 4824,6478 4819,6474C4801,6463 4779,6490 4790,6510C4795,6519 4797,6529 4795,6532C4793,6534 4788,6592 4785,6660C4782,6729 4777,6835 4775,6895L4770,7006L4812,7017C4864,7032 4918,7079 4953,7142C4980,7189 4982,7220 4965,7312C4962,7328 4958,7351 4956,7365C4954,7378 4945,7403 4936,7421C4927,7438 4922,7456 4925,7460C4928,7464 4908,7490 4882,7517C4836,7565 4787,7596 4763,7591C4756,7590 4750,7597 4749,7607C4745,7687 4750,8122 4755,8131C4759,8136 4768,8139 4776,8136C4784,8133 4799,8134 4809,8138C4820,8142 4972,8144 5146,8143L5464,8142L5464,8030ZM3841,8063C3837,7987 3838,7915 3845,7580C3848,7407 3853,7119 3855,6940C3858,6761 3861,6582 3862,6543C3863,6503 3861,6468 3858,6464C3850,6457 3069,6458 3062,6465C3059,6468 3055,6532 3054,6607C3052,6683 3048,6808 3046,6885C3042,7019 3028,7622 3028,7705C3028,7727 3028,7826 3029,7926L3030,8106L3193,8107C3416,8109 3814,8121 3819,8126C3832,8138 3842,8106 3841,8063ZM1731,8097C1800,8095 1862,8090 1868,8086C1875,8082 1880,8082 1880,8087C1880,8091 1913,8096 1953,8097L2026,8100L2026,8012C2026,7964 2030,7899 2034,7866C2038,7833 2038,7810 2033,7813C2028,7816 2024,7810 2024,7800C2024,7790 2028,7784 2032,7786C2036,7789 2039,7490 2037,7123L2035,6454L1357,6458L1354,6751C1352,6913 1348,7101 1346,7170C1331,7547 1329,7645 1326,7858C1324,8077 1325,8092 1342,8099C1359,8105 1448,8105 1731,8097ZM2912,8000C2914,7939 2911,7890 2906,7890C2901,7890 2902,7884 2908,7878C2914,7870 2921,7772 2924,7645C2937,7177 2942,6989 2943,6823C2944,6728 2947,6650 2950,6650C2954,6650 2955,6515 2951,6465C2950,6452 2161,6444 2159,6456C2158,6461 2156,6544 2155,6640C2153,6736 2149,6934 2145,7080C2142,7226 2138,7514 2137,7720L2135,8095L2502,8095C2703,8095 2872,8098 2876,8103C2880,8107 2889,8110 2896,8110C2905,8110 2910,8081 2912,8000ZM5481,6311C5484,6070 5486,6024 5490,6015C5493,6010 5494,5969 5493,5925C5491,5823 5491,5772 5492,5515C5492,5319 5487,5170 5475,5075C5472,5053 5469,5022 5469,5007C5468,4992 5464,4977 5460,4975C5456,4972 5455,4958 5457,4943C5459,4927 5463,4899 5465,4880C5467,4861 5471,4831 5474,4813C5479,4775 5457,4751 5420,4754C5406,4755 5389,4752 5383,4747C5376,4742 5370,4741 5370,4746C5370,4756 4981,4758 4965,4749C4960,4745 4917,4743 4871,4744L4787,4745L4784,4820C4777,4981 4777,5091 4784,5230C4789,5310 4793,5454 4794,5551C4796,5648 4799,5731 4801,5736C4803,5741 4805,5777 4804,5815C4803,5854 4800,5991 4798,6120L4794,6355L4899,6356C5059,6359 5442,6379 5448,6385C5450,6387 5458,6386 5466,6383C5476,6379 5480,6359 5481,6311ZM1461,6345C1496,6342 1531,6339 1538,6340L1563,6340C1569,6341 1680,6339 1809,6338L2043,6335L2047,6035C2053,5616 2052,4728 2046,4722C2043,4719 1946,4716 1830,4714C1714,4712 1614,4708 1609,4705C1604,4701 1600,4703 1600,4708C1600,4713 1590,4716 1578,4714C1565,4713 1555,4711 1555,4710C1555,4709 1545,4707 1533,4706C1520,4704 1510,4708 1510,4713C1510,4719 1505,4719 1498,4712C1491,4707 1476,4706 1465,4710C1454,4714 1431,4714 1413,4709C1395,4705 1378,4706 1375,4710C1373,4714 1368,4886 1365,5091C1362,5297 1358,5501 1356,5545C1350,5654 1349,6045 1353,6208C1355,6308 1360,6344 1370,6350C1378,6355 1387,6357 1391,6354C1395,6352 1426,6348 1461,6345ZM3857,6307C3857,6284 3860,6158 3864,6028C3869,5795 3869,5790 3849,5790C3789,5790 3696,5711 3644,5617C3621,5574 3619,5560 3623,5502C3628,5425 3657,5354 3701,5310C3736,5275 3803,5240 3835,5240C3859,5240 3857,5278 3848,4846L3845,4736L3793,4736C3764,4735 3740,4739 3740,4744C3740,4748 3734,4748 3728,4743C3721,4738 3704,4735 3690,4737C3648,4743 3517,4743 3478,4738C3457,4735 3440,4737 3440,4742C3440,4747 3435,4748 3428,4744C3419,4738 3123,4735 3070,4740C3067,4740 3064,4850 3063,4985C3061,5250 3058,5236 3113,5232C3123,5231 3128,5235 3125,5240C3122,5246 3127,5254 3138,5258C3184,5275 3266,5367 3276,5411C3288,5460 3280,5567 3262,5608C3234,5671 3125,5780 3091,5780C3085,5780 3079,5783 3079,5788C3078,5792 3076,5806 3073,5820C3071,5834 3067,5956 3064,6091L3060,6337L3342,6338C3601,6339 3820,6346 3828,6355C3841,6368 3856,6343 3857,6307ZM4175,6349C4241,6348 4386,6350 4497,6354L4699,6361L4706,6334C4715,6297 4715,5497 4705,5245C4701,5130 4696,4970 4695,4890L4692,4745L4649,4745C4625,4744 4599,4741 4593,4737C4586,4732 4580,4733 4580,4738C4580,4743 4570,4746 4558,4744C4545,4743 4535,4741 4535,4739C4535,4728 3977,4719 3960,4730C3948,4737 3944,4932 3955,4949C3960,4958 3959,4961 3952,4956C3944,4951 3942,4991 3944,5097L3947,5244L3992,5256C4050,5271 4079,5299 4121,5380C4152,5439 4155,5452 4153,5527C4152,5590 4148,5613 4133,5628C4123,5639 4102,5666 4086,5689C4056,5730 3994,5780 3972,5780C3963,5780 3961,5840 3963,6023C3965,6156 3964,6279 3960,6296C3949,6343 3962,6357 4012,6353C4036,6352 4109,6350 4175,6349ZM2966,6197C2966,6119 2967,6010 2969,5954C2971,5899 2970,5848 2966,5842C2962,5835 2963,5830 2968,5830C2974,5830 2976,5821 2973,5810C2970,5798 2960,5790 2951,5791C2932,5794 2880,5780 2865,5768C2777,5698 2740,5642 2740,5583C2740,5538 2770,5446 2812,5364C2843,5302 2863,5276 2894,5256C2916,5242 2942,5230 2951,5230C2965,5230 2967,5220 2965,5158C2963,5118 2959,5051 2954,5010C2950,4969 2946,4897 2944,4850C2943,4803 2942,4761 2941,4755C2940,4743 2870,4741 2870,4754C2870,4759 2864,4758 2858,4753C2851,4748 2829,4745 2810,4746C2747,4749 2625,4752 2620,4750C2601,4743 2540,4746 2540,4753C2540,4759 2535,4758 2528,4753C2521,4748 2482,4743 2441,4741C2400,4740 2363,4737 2358,4734C2354,4731 2350,4734 2350,4740C2350,4746 2345,4748 2338,4744C2331,4740 2312,4735 2295,4734C2279,4732 2244,4728 2219,4725C2178,4720 2172,4722 2167,4740C2164,4751 2165,4762 2169,4764C2173,4767 2175,4806 2173,4852C2168,5017 2162,5122 2157,5127C2154,5129 2155,5144 2160,5158C2164,5173 2163,5196 2158,5209C2153,5224 2153,5236 2158,5239C2163,5242 2165,5279 2163,5320C2156,5427 2155,5652 2159,5970C2162,6121 2161,6265 2157,6290L2151,6335L2223,6333C2485,6326 2864,6330 2874,6341C2876,6343 2899,6344 2923,6342L2968,6338L2966,6197ZM1926,4617C1937,4607 1952,4609 1945,4619C1942,4625 1951,4625 1970,4620C1991,4614 2000,4615 2000,4623C2000,4631 2003,4631 2011,4623C2017,4617 2029,4614 2036,4617C2044,4620 2053,4615 2056,4606C2067,4576 2072,4111 2070,3114L2070,3033L1733,3035L1395,3037L1394,3271C1393,3509 1383,3807 1375,3869C1370,3905 1357,4490 1359,4550C1360,4569 1365,4589 1371,4596C1377,4604 1437,4608 1563,4609C1787,4611 1867,4614 1874,4621C1882,4628 1918,4626 1926,4617ZM3340,4617C3442,4619 3600,4621 3692,4623L3859,4626L3866,4585C3877,4521 3884,4170 3892,3315L3895,3045L3510,3045C3298,3044 3118,3046 3109,3048C3098,3050 3092,3062 3092,3083C3092,3101 3089,3198 3085,3300C3079,3459 3078,3518 3080,3583C3080,3589 3078,3683 3075,3790C3067,4024 3064,4514 3068,4575C3072,4622 3085,4631 3130,4620C3144,4616 3238,4615 3340,4617ZM4596,4617C4599,4615 4617,4616 4638,4621C4694,4633 4698,4624 4693,4502C4687,4351 4687,4289 4694,4175C4703,4021 4716,3623 4723,3260C4725,3169 4730,3085 4734,3073C4741,3052 4738,3050 4708,3049C4612,3046 4515,3042 4515,3040C4515,3035 4016,3036 4007,3042C3995,3049 3994,3114 3985,3810C3982,4055 3978,4282 3975,4315C3972,4348 3968,4431 3966,4500L3961,4625L4276,4624C4449,4623 4593,4620 4596,4617ZM5066,4620C5214,4620 5353,4621 5375,4623C5397,4625 5419,4624 5425,4621C5430,4618 5445,4616 5459,4616C5482,4615 5483,4612 5487,4525C5491,4424 5498,4243 5505,4070C5507,4007 5512,3885 5516,3800C5524,3593 5527,3140 5519,3140C5516,3140 5514,3127 5515,3110C5516,3094 5514,3076 5511,3071C5507,3065 5437,3060 5346,3058C5259,3056 5187,3053 5185,3050C5180,3042 4846,3045 4833,3053C4826,3057 4821,3080 4820,3103C4820,3182 4811,3455 4805,3565C4801,3626 4798,3720 4797,3775C4795,3830 4791,3881 4787,3888C4782,3895 4784,3900 4790,3900C4796,3900 4798,3905 4794,3912C4784,3928 4779,4632 4789,4625C4794,4622 4919,4620 5066,4620ZM2952,4585C2953,4569 2955,4488 2956,4405C2957,4323 2961,4179 2964,4085C2976,3807 2976,3710 2965,3710C2960,3710 2961,3706 2968,3702C2978,3695 2981,3619 2983,3364L2985,3035L2960,3037C2879,3042 2837,3041 2660,3036C2361,3027 2360,3027 2353,3033C2350,3037 2341,3035 2333,3029C2326,3023 2320,3021 2320,3026C2320,3031 2289,3035 2252,3034L2184,3033L2182,3369C2181,3554 2178,3791 2174,3895C2169,4055 2166,4455 2169,4580L2170,4616L2560,4615L2950,4615L2952,4585ZM5424,2958C5419,2951 5421,2950 5430,2955C5437,2959 5459,2963 5479,2964L5515,2966L5518,2860C5535,2152 5534,1740 5514,1708C5509,1700 5496,1557 5497,1525C5497,1514 5501,1473 5504,1433C5511,1365 5510,1361 5488,1349C5466,1337 5367,1333 5210,1339C5174,1340 5087,1338 5015,1334C4879,1327 4846,1326 4818,1329C4803,1330 4802,1341 4806,1428C4815,1620 4820,1779 4825,2029C4828,2168 4832,2285 4834,2289C4836,2292 4836,2437 4835,2612C4832,2911 4833,2928 4850,2933C4860,2936 4873,2933 4879,2927C4886,2920 4890,2920 4890,2926C4890,2932 4940,2936 5020,2935C5091,2935 5150,2938 5150,2941C5150,2948 5149,2948 5293,2953C5358,2955 5413,2960 5417,2964C5427,2974 5432,2971 5424,2958ZM4740,2930C4749,2836 4755,2596 4749,2584C4746,2579 4745,2553 4746,2525C4750,2440 4752,2295 4750,2290C4749,2287 4747,2177 4745,2045C4741,1782 4728,1392 4721,1329C4720,1326 4703,1323 4683,1323C4195,1318 3982,1318 3974,1322C3969,1326 3966,1361 3967,1402C3969,1442 3972,1626 3974,1810C3977,1994 3982,2231 3986,2335C3989,2440 3993,2615 3994,2725L3995,2925L4273,2926C4426,2927 4552,2929 4555,2931C4561,2937 4740,2936 4740,2930ZM1798,2915C1949,2913 2074,2910 2076,2907C2079,2904 2083,2720 2085,2497C2088,2274 2090,2088 2091,2083C2092,2079 2091,2073 2090,2070C2089,2067 2087,1896 2085,1690C2084,1484 2082,1313 2081,1310C2081,1307 1982,1304 1862,1303C1743,1302 1602,1300 1550,1298C1497,1297 1449,1299 1442,1304C1435,1308 1430,1306 1430,1299C1430,1289 1428,1288 1418,1299C1408,1308 1405,1375 1404,1558C1404,1694 1399,1913 1395,2045C1388,2266 1386,2530 1390,2805C1391,2875 1395,2917 1403,2922C1409,2926 1439,2927 1470,2924C1500,2921 1648,2918 1798,2915ZM3889,2853C3895,2655 3895,1827 3888,1765C3884,1727 3880,1612 3878,1511L3874,1328L3555,1328C3379,1329 3205,1329 3169,1329L3103,1330L3100,1508C3099,1605 3099,1809 3100,1960C3103,2356 3103,2470 3099,2698C3097,2810 3098,2904 3102,2906C3109,2911 3238,2911 3358,2907C3397,2906 3430,2907 3430,2910C3430,2913 3501,2915 3588,2915C3674,2915 3754,2918 3764,2921C3775,2924 3807,2928 3835,2929L3886,2931L3889,2853ZM2997,2907C3004,2902 3007,2894 3004,2889C2997,2877 2998,2685 3005,2430C3014,2143 3013,2115 2996,1720C2993,1657 2988,1565 2985,1515C2981,1466 2978,1405 2977,1380L2975,1335L2675,1334C2382,1333 2280,1328 2211,1310C2192,1305 2174,1303 2172,1305C2167,1310 2169,1378 2176,1460C2179,1490 2182,1583 2184,1666C2185,1749 2189,1821 2193,1826C2196,1832 2199,1856 2200,1881C2200,1949 2199,1960 2192,1960C2188,1960 2184,1968 2184,1978C2183,1987 2181,2015 2180,2040C2178,2065 2180,2166 2185,2265C2195,2486 2198,2786 2190,2856L2184,2907L2539,2905C2735,2904 2906,2906 2920,2910C2953,2920 2982,2919 2997,2907Z" style="fill-rule:nonzero;"/>
                <path d="M5063,7826C5013,7784 5009,7700 5057,7700C5065,7700 5076,7714 5082,7730C5092,7759 5126,7788 5137,7776C5140,7773 5145,7750 5148,7725C5153,7679 5152,7677 5095,7620C5046,7570 5038,7558 5044,7536C5047,7522 5056,7510 5063,7510C5069,7510 5135,7508 5208,7507C5280,7505 5340,7508 5340,7512C5340,7516 5347,7520 5355,7520C5376,7520 5374,7557 5351,7569C5341,7575 5289,7578 5236,7577C5183,7575 5140,7576 5140,7578C5140,7580 5151,7591 5164,7601C5204,7633 5223,7685 5215,7746C5207,7814 5186,7840 5134,7847C5101,7851 5089,7848 5063,7826Z" style="fill-rule:nonzero;"/>
                <path d="M3820,6499C3820,6494 3825,6492 3830,6495C3836,6498 3840,6503 3840,6506C3840,6508 3836,6510 3830,6510C3825,6510 3820,6505 3820,6499Z" style="fill-rule:nonzero;"/>
                <path d="M3303,6185C3267,6170 3250,6129 3270,6105C3280,6093 3286,6094 3313,6111C3354,6136 3377,6135 3385,6109C3394,6083 3370,6056 3319,6033C3243,6000 3260,5963 3352,5961C3390,5961 3417,5956 3422,5948C3438,5923 3442,5889 3430,5875C3413,5854 3384,5856 3333,5881C3286,5904 3260,5901 3260,5873C3260,5847 3270,5836 3312,5817C3377,5786 3464,5802 3490,5849C3519,5904 3490,5999 3439,6015C3420,6021 3419,6023 3436,6041C3446,6052 3453,6077 3454,6104C3456,6187 3389,6223 3303,6185Z" style="fill-rule:nonzero;"/>
                <path d="M4190,6166C4185,6152 4178,6099 4175,6047C4167,5933 4172,5927 4260,5932L4321,5935L4318,5863C4315,5779 4326,5760 4364,5778C4391,5790 4406,5849 4395,5900C4390,5923 4394,5935 4414,5955C4443,5984 4439,6010 4404,6010C4383,6010 4380,6015 4380,6046C4380,6091 4365,6120 4340,6120C4314,6120 4308,6106 4308,6049C4308,6001 4307,6000 4276,6000C4241,6000 4243,5993 4251,6123C4253,6157 4249,6174 4239,6181C4215,6196 4200,6191 4190,6166Z" style="fill-rule:nonzero;"/>
                <path d="M6141,9197C6107,9136 6076,9106 6038,9091C6016,9083 6010,9074 6010,9052C6010,9003 6055,8981 6082,9018C6089,9027 6107,9043 6122,9052C6136,9062 6152,9080 6156,9092C6162,9108 6167,9085 6176,9013C6183,8956 6191,8906 6195,8900C6203,8888 6247,8887 6254,8899C6263,8914 6263,8947 6250,9080C6243,9151 6232,9215 6224,9228C6200,9265 6175,9255 6141,9197Z" style="fill-rule:nonzero;"/>
            </g>
        </g>
        <g id="Bm1" serif:id="Bm">
        </g>
    </g>
</svg>
