<?xml version="1.0" encoding="UTF-8" standalone="no"?>
<!DOCTYPE svg PUBLIC "-//W3C//DTD SVG 1.1//EN" "http://www.w3.org/Graphics/SVG/1.1/DTD/svg11.dtd">
<svg width="100%" height="100%" viewBox="0 0 963 1280" version="1.1" xmlns="http://www.w3.org/2000/svg" xmlns:xlink="http://www.w3.org/1999/xlink" xml:space="preserve" xmlns:serif="http://www.serif.com/" style="fill-rule:evenodd;clip-rule:evenodd;stroke-linejoin:round;stroke-miterlimit:2;">
    <g transform="matrix(1.15599,0,0,1.15599,497.935,554.161)">
        <g id="Eb" transform="matrix(1,0,0,1,-336.5,-512.5)">
            <g transform="matrix(0.1,0,0,-0.1,0,1025)">
                <g transform="matrix(1,0,0,1,0,-100)">
                    <path d="M3127,9969C3042,9954 3007,9943 2969,9918C2942,9901 2920,9884 2920,9882C2920,9879 2925,9848 2931,9813C2940,9763 2939,9721 2926,9612C2902,9406 2900,9359 2911,9315C2917,9293 2925,9229 2929,9172C2934,9115 2942,9064 2948,9058C2956,9050 2969,9053 2994,9068C3040,9095 3138,9120 3229,9127C3295,9133 3306,9136 3336,9167C3368,9199 3373,9228 3346,9231C3340,9232 3324,9234 3310,9235C3296,9236 3245,9227 3195,9214C3146,9201 3089,9190 3068,9190L3032,9190L3024,9278C3020,9326 3016,9390 3016,9420L3015,9475L3060,9483C3085,9488 3132,9498 3165,9506C3198,9514 3241,9521 3260,9522C3327,9525 3369,9597 3317,9621C3299,9629 3270,9624 3180,9597C3117,9578 3052,9560 3037,9556L3009,9549L3013,9685C3017,9829 3021,9842 3067,9847C3094,9849 3159,9859 3279,9879C3343,9889 3374,9917 3361,9953C3346,9993 3289,9997 3127,9969Z" style="fill-rule:nonzero;"/>
                </g>
                <g transform="matrix(1,0,0,1,0,-100)">
                    <path d="M3501,9923C3490,9901 3477,9304 3486,9193C3495,9084 3496,9083 3562,9099C3625,9115 3648,9134 3704,9220C3758,9302 3774,9349 3768,9412C3758,9506 3696,9549 3619,9515C3597,9505 3572,9487 3564,9476C3551,9457 3550,9480 3554,9680C3556,9813 3555,9912 3549,9922C3537,9945 3513,9945 3501,9923ZM3690,9408C3690,9364 3662,9269 3642,9244C3632,9233 3612,9215 3596,9205L3567,9186L3572,9253C3580,9345 3630,9440 3672,9440C3686,9440 3690,9432 3690,9408Z" style="fill-rule:nonzero;"/>
                </g>
                <path d="M2009,9373C1985,9335 1952,9277 1935,9244L1904,9183L1825,9276C1767,9345 1739,9370 1722,9370C1679,9370 1687,9342 1757,9253C1853,9131 1868,9107 1862,9090C1860,9082 1828,9031 1792,8977C1730,8884 1728,8879 1744,8861C1766,8837 1798,8845 1813,8879C1819,8893 1836,8921 1851,8941C1866,8960 1884,8988 1891,9003C1898,9018 1907,9030 1911,9030C1915,9030 1939,9000 1964,8963C2017,8884 2045,8850 2057,8850C2062,8850 2074,8860 2084,8871C2101,8892 2101,8893 2081,8919C2070,8933 2036,8982 2006,9027L1952,9108L1992,9202C2014,9253 2048,9321 2067,9352C2104,9411 2105,9440 2071,9440C2058,9440 2038,9418 2009,9373Z" style="fill-rule:nonzero;"/>
                <path d="M1258,9363C1222,9311 1207,9288 1189,9253C1182,9240 1174,9230 1171,9230C1168,9231 1139,9267 1106,9311C1061,9373 1043,9390 1026,9388C989,9383 997,9355 1065,9255L1132,9158L1099,9097C1081,9063 1054,9016 1037,8994C1006,8949 1005,8924 1033,8906C1055,8893 1073,8913 1125,9013C1145,9050 1165,9080 1170,9080C1175,9080 1187,9066 1196,9049C1218,9005 1300,8886 1313,8878C1325,8871 1360,8896 1360,8912C1360,8918 1343,8947 1322,8978C1272,9052 1250,9087 1228,9130C1210,9164 1210,9166 1232,9205C1244,9227 1268,9265 1285,9290C1337,9363 1343,9379 1329,9396C1309,9420 1292,9412 1258,9363Z" style="fill-rule:nonzero;"/>
                <path d="M1276,8693C1272,8689 1219,8685 1157,8683C1023,8680 986,8675 969,8654C951,8632 956,8439 977,8350C982,8331 985,8304 984,8290C983,8276 985,8261 989,8255C992,8250 996,8232 997,8215C998,8199 1000,8162 1002,8133L1005,8082L1140,8087C1214,8089 1284,8093 1295,8095C1306,8097 1325,8099 1338,8099C1351,8100 1359,8104 1356,8109C1353,8113 1355,8132 1360,8150C1375,8203 1363,8209 1247,8205C1191,8203 1135,8199 1123,8196C1104,8192 1099,8196 1094,8218C1091,8233 1086,8252 1083,8260C1072,8291 1072,8321 1083,8325C1090,8328 1113,8331 1135,8334C1202,8341 1210,8347 1210,8395C1210,8418 1204,8442 1198,8447C1191,8453 1156,8457 1120,8456L1055,8454L1056,8487C1058,8540 1069,8545 1190,8545C1250,8545 1301,8548 1305,8551C1308,8555 1313,8568 1316,8581C1332,8647 1331,8655 1308,8678C1294,8690 1280,8697 1276,8693Z" style="fill-rule:nonzero;"/>
                <path d="M1951,8626C1939,8614 1930,8601 1930,8597C1930,8589 1882,8481 1869,8460C1864,8452 1857,8438 1854,8430C1851,8422 1845,8408 1840,8400C1806,8345 1700,8123 1700,8110C1700,8088 1746,8046 1760,8055C1766,8059 1783,8088 1796,8119C1810,8151 1827,8177 1833,8178C1840,8179 1872,8182 1905,8185C1990,8192 2052,8200 2061,8205C2069,8210 2095,8158 2121,8085C2138,8038 2140,8035 2175,8034C2203,8034 2218,8040 2236,8058L2259,8084L2229,8139C2213,8170 2200,8205 2200,8217C2200,8239 2144,8342 2128,8348C2124,8350 2120,8357 2120,8363C2120,8377 2062,8498 2039,8531C2029,8545 2019,8576 2016,8601C2014,8625 2011,8645 2011,8645C1998,8653 1967,8643 1951,8626ZM2005,8364C2022,8328 2028,8304 2022,8298C2017,8293 1987,8287 1956,8284C1912,8281 1900,8284 1900,8295C1900,8303 1904,8310 1909,8310C1914,8310 1921,8324 1925,8340C1929,8357 1936,8370 1941,8370C1946,8370 1949,8373 1948,8378C1946,8390 1961,8420 1970,8420C1975,8420 1991,8395 2005,8364Z" style="fill-rule:nonzero;"/>
                <path d="M2717,8615C2701,8601 2684,8593 2678,8596C2671,8601 2669,8598 2673,8588C2676,8579 2674,8568 2669,8563C2657,8551 2655,8451 2664,8360C2669,8319 2673,8269 2675,8250C2677,8231 2681,8194 2683,8167C2688,8128 2685,8118 2669,8110C2659,8104 2650,8094 2650,8088C2650,8082 2653,8080 2656,8083C2660,8086 2671,8079 2681,8066C2697,8045 2707,8043 2783,8042C2865,8042 2970,8066 2994,8090C3000,8096 3011,8100 3020,8100C3029,8100 3045,8109 3055,8120C3065,8131 3077,8140 3082,8140C3091,8140 3128,8177 3164,8220C3193,8256 3191,8344 3161,8403C3148,8429 3133,8450 3128,8450C3124,8450 3120,8456 3120,8463C3120,8494 3003,8577 2922,8603C2893,8613 2845,8621 2815,8622C2785,8623 2760,8627 2760,8632C2760,8646 2746,8640 2717,8615ZM2855,8495C2888,8491 2938,8478 2966,8465C3016,8442 3054,8405 3044,8389C3042,8385 3044,8379 3050,8375C3055,8372 3060,8351 3060,8330C3060,8300 3052,8283 3023,8250C2989,8212 2908,8164 2886,8169C2882,8170 2873,8167 2866,8162C2852,8150 2780,8139 2779,8148C2778,8152 2776,8175 2774,8200C2772,8225 2769,8272 2766,8305C2762,8361 2758,8485 2759,8503C2760,8508 2768,8509 2778,8506C2787,8504 2822,8498 2855,8495Z" style="fill-rule:nonzero;"/>
                <path d="M3250,8619C3250,8614 3255,8612 3260,8615C3266,8618 3270,8623 3270,8626C3270,8628 3266,8630 3260,8630C3255,8630 3250,8625 3250,8619Z" style="fill-rule:nonzero;"/>
                <path d="M4295,8622C4292,8619 4295,8611 4301,8604C4312,8590 4318,8517 4326,8295C4333,8089 4334,8080 4350,8070C4358,8065 4375,8060 4388,8060C4419,8060 4430,8094 4430,8191L4430,8270L4463,8271C4480,8272 4504,8274 4515,8275C4576,8283 4617,8283 4629,8276C4638,8270 4640,8250 4634,8191C4624,8090 4626,8061 4646,8039C4666,8016 4699,8018 4728,8043C4750,8063 4757,8099 4743,8114C4738,8118 4734,8200 4734,8295C4733,8390 4730,8481 4726,8496C4715,8544 4688,8588 4661,8601C4647,8609 4633,8616 4630,8617C4627,8619 4623,8572 4623,8513C4620,8367 4621,8370 4591,8369C4402,8361 4413,8353 4416,8482L4418,8587L4386,8603C4352,8620 4304,8630 4295,8622Z" style="fill-rule:nonzero;"/>
                <path d="M3590,8589C3529,8560 3458,8491 3439,8445C3424,8408 3421,8330 3434,8312C3439,8304 3445,8291 3446,8282C3452,8244 3457,8229 3468,8218C3475,8211 3480,8200 3480,8192C3480,8162 3544,8098 3602,8071C3650,8048 3672,8043 3723,8045C3758,8047 3803,8055 3824,8064C3845,8073 3863,8080 3864,8080C3864,8080 3865,8064 3866,8045C3866,8025 3871,8005 3877,7999C3888,7988 3946,7995 3970,8010C3985,8019 3986,8086 3971,8105C3966,8110 3963,8149 3963,8190C3963,8271 3942,8335 3911,8345C3883,8354 3735,8350 3735,8340C3735,8338 3700,8334 3654,8331C3638,8330 3633,8323 3633,8305C3633,8291 3636,8277 3641,8274C3646,8271 3650,8260 3650,8250C3650,8233 3656,8231 3698,8236C3836,8249 3849,8244 3805,8191C3762,8141 3654,8122 3591,8154C3537,8182 3513,8328 3549,8410C3579,8478 3621,8509 3696,8517C3735,8521 3741,8518 3777,8481C3803,8454 3827,8439 3848,8436C3879,8433 3880,8434 3880,8469C3880,8500 3872,8515 3829,8558C3801,8587 3773,8610 3767,8611C3679,8618 3641,8613 3590,8589Z" style="fill-rule:nonzero;"/>
                <path d="M5496,8602C5492,8599 5419,8595 5333,8593C5246,8592 5170,8588 5162,8585C5153,8582 5151,8573 5156,8558C5160,8545 5164,8488 5166,8430C5169,8322 5179,8198 5186,8191C5188,8189 5185,8181 5179,8173C5173,8166 5172,8160 5177,8160C5182,8160 5187,8132 5188,8098C5189,8065 5191,8036 5193,8034C5199,8027 5476,8028 5510,8035C5561,8045 5587,8066 5574,8088C5555,8119 5502,8128 5383,8123C5272,8118 5270,8118 5270,8140C5270,8152 5265,8171 5259,8182C5240,8217 5268,8233 5347,8231C5439,8230 5446,8235 5430,8299L5418,8350L5353,8348C5318,8347 5287,8343 5284,8338C5272,8319 5255,8345 5253,8388C5251,8414 5249,8444 5248,8455C5245,8474 5250,8475 5368,8471C5455,8469 5494,8471 5505,8480C5513,8487 5520,8489 5520,8485C5520,8481 5526,8483 5534,8489C5546,8499 5546,8517 5534,8576C5530,8598 5507,8614 5496,8602Z" style="fill-rule:nonzero;"/>
                <path d="M4149,7905C4132,7891 2265,7870 2242,7884C2235,7888 2230,7887 2230,7881C2230,7875 2224,7872 2218,7875C2193,7883 1616,7894 1210,7894L795,7895L796,7805C797,7669 806,7623 833,7617C845,7614 913,7611 984,7611C1055,7610 1116,7608 1118,7605C1121,7602 1126,7563 1128,7517C1135,7403 1134,6531 1127,6445C1123,6407 1118,6339 1114,6295C1110,6251 1107,6209 1107,6201C1107,6191 1093,6189 1046,6194C850,6213 857,6213 837,6185C822,6164 821,6156 831,6144C854,6116 909,6098 983,6096C1024,6094 1062,6090 1069,6086C1075,6082 1080,6084 1080,6091C1080,6099 1083,6100 1093,6091C1101,6085 1109,6083 1112,6086C1115,6089 1118,6029 1118,5953C1118,5877 1122,5633 1125,5410C1132,5012 1133,4791 1130,4577L1128,4470L982,4474C838,4478 834,4478 805,4454L775,4430L801,4404C826,4379 831,4378 936,4380C1083,4382 1091,4381 1105,4370C1111,4365 1120,4363 1123,4366C1134,4377 1142,4300 1136,4247C1111,4031 1099,3240 1115,2898C1121,2770 1120,2760 1103,2759C1093,2759 1027,2757 955,2754C884,2752 821,2745 816,2740C804,2728 824,2665 847,2638C860,2623 865,2623 898,2637C935,2653 1132,2661 1146,2647C1154,2639 1158,2466 1164,1731C1169,1176 1166,1099 1142,1114C1124,1125 905,1129 869,1120C823,1107 817,1099 829,1067C842,1032 879,1026 1040,1032C1172,1036 1180,1030 1174,913C1172,864 1168,812 1165,795C1157,758 1158,422 1165,409C1168,404 1194,401 1223,403L1275,405L1276,665C1276,808 1278,930 1279,935C1281,941 1282,961 1283,980L1285,1015L1335,1013C1363,1012 1509,1009 1660,1007L1935,1002L1942,954C1945,927 1949,822 1949,720C1950,618 1952,510 1953,480L1955,425L1998,426C2021,427 2043,430 2047,434C2051,438 2055,567 2055,721L2055,1001L2175,995C2385,984 2654,987 2824,1003C2840,1005 2842,984 2846,760C2849,625 2851,501 2852,485L2854,455L2952,485L2944,540C2940,570 2936,685 2935,795L2933,996L3139,996C3252,996 3425,998 3522,1000C3619,1003 3702,1002 3706,998C3712,991 3719,805 3721,538L3722,441L3765,443L3808,444L3809,505C3809,538 3810,665 3811,787L3812,1009L4004,1007C4109,1006 4274,1007 4370,1010C4466,1013 4549,1013 4553,1009C4557,1006 4563,871 4566,709C4571,404 4571,400 4611,436C4619,444 4631,450 4637,450C4648,450 4646,927 4636,977C4630,1004 4644,1009 4725,1009C4824,1009 5251,1026 5288,1031C5324,1037 5325,1032 5326,897C5327,825 5329,707 5331,635L5335,505L5371,504C5391,504 5415,500 5424,497C5440,491 5441,508 5439,758C5438,906 5440,1032 5444,1039C5450,1047 5473,1049 5533,1043C5674,1030 5730,1040 5730,1078C5730,1104 5681,1152 5662,1145C5646,1139 5532,1129 5460,1127L5425,1126L5425,1805C5425,2179 5427,2524 5429,2573L5432,2660L5576,2656C5678,2653 5721,2655 5728,2663C5733,2670 5733,2697 5728,2727C5720,2773 5716,2779 5689,2785C5652,2793 5599,2799 5491,2805C5445,2808 5405,2812 5403,2814C5401,2816 5397,2918 5395,3041C5392,3164 5389,3295 5387,3332L5384,3400L5419,3406C5477,3417 5576,3504 5593,3559C5616,3634 5623,3754 5606,3809C5582,3892 5519,3950 5439,3965L5403,3972L5402,4048C5402,4090 5401,4183 5400,4255C5398,4401 5398,4401 5474,4391C5497,4388 5547,4386 5587,4385C5642,4385 5663,4389 5678,4403C5698,4421 5698,4423 5682,4456L5665,4491L5580,4485C5533,4481 5472,4477 5444,4476L5393,4475L5390,4585C5378,5066 5394,6076 5414,6109C5417,6113 5452,6114 5492,6111C5532,6108 5604,6106 5652,6106C5723,6105 5742,6109 5759,6124C5778,6142 5779,6145 5765,6160C5756,6170 5731,6180 5709,6184C5687,6187 5667,6196 5665,6203C5661,6212 5625,6214 5527,6212L5395,6209L5395,7598L5458,7605C5543,7614 5782,7609 5797,7597C5821,7579 5828,7602 5829,7705C5831,7814 5819,7885 5797,7892C5791,7895 5765,7895 5740,7894C5574,7885 5095,7883 5014,7891C4923,7900 4156,7913 4149,7905ZM2975,7608C2978,7605 2998,7606 3020,7610C3042,7614 3061,7615 3064,7613C3066,7610 3200,7608 3360,7608L3652,7607L3645,7566C3633,7504 3632,7405 3642,7310C3651,7225 3651,7201 3646,6979C3645,6913 3649,6842 3655,6816C3662,6791 3664,6768 3661,6765C3655,6758 3648,6730 3649,6710C3649,6702 3651,6598 3654,6480C3656,6350 3654,6247 3648,6220L3638,6175L3258,6177C3049,6178 2876,6181 2873,6184C2866,6191 2869,6580 2876,6591C2879,6596 2894,6600 2911,6600C2965,6600 3055,6715 3089,6830C3109,6895 3105,6981 3081,7020C3070,7039 3060,7062 3060,7070C3059,7090 3004,7149 2983,7153C2973,7154 2961,7158 2955,7161C2950,7165 2929,7170 2910,7174L2875,7180L2873,7328C2872,7409 2870,7502 2867,7535C2865,7568 2864,7600 2866,7605C2870,7615 2965,7618 2975,7608ZM1825,7596L1905,7593L1902,7014C1900,6696 1898,6424 1896,6410C1895,6396 1898,6379 1903,6373C1909,6364 1909,6360 1902,6360C1896,6360 1893,6354 1896,6346C1904,6326 1906,6210 1899,6198C1893,6189 1286,6185 1235,6194C1224,6196 1216,6205 1216,6214C1217,6223 1221,6292 1225,6368C1232,6511 1232,6551 1230,7185C1229,7400 1231,7582 1235,7591C1240,7605 1268,7607 1493,7603C1632,7601 1781,7598 1825,7596ZM2780,7545C2783,7512 2786,7415 2785,7330L2785,7176L2755,7169C2739,7166 2712,7156 2697,7147C2664,7130 2596,7043 2573,6991C2553,6942 2561,6856 2594,6785C2621,6726 2714,6626 2756,6610C2780,6601 2780,6599 2776,6503C2774,6449 2772,6354 2771,6293L2770,6180L2390,6180C2042,6181 2010,6182 2002,6198C1986,6233 2000,7571 2017,7590C2020,7593 2164,7596 2338,7598C2512,7600 2660,7602 2665,7604C2671,7606 2698,7607 2725,7606L2775,7605L2780,7545ZM4485,7496C4485,7438 4487,7390 4490,7390C4498,7390 4494,7294 4486,7281C4482,7275 4484,7270 4490,7270C4496,7270 4498,7265 4495,7260C4488,7249 4484,7069 4476,6515L4472,6195L4116,6195C3920,6195 3760,6197 3760,6200C3739,6408 3734,7567 3753,7597C3759,7607 3844,7609 4123,7606L4485,7602L4485,7496ZM5177,7600C5272,7600 5279,7599 5285,7579C5293,7555 5293,7405 5284,6700C5278,6170 5279,6200 5265,6199C5253,6198 5160,6198 4845,6200C4713,6200 4596,6199 4586,6198C4563,6195 4564,6135 4575,6740C4580,7072 4586,7285 4589,7285C4590,7285 4592,7348 4594,7425C4596,7502 4598,7575 4599,7587L4600,7610L4838,7605C4968,7603 5121,7601 5177,7600ZM4466,6111C4474,6110 4476,6061 4473,5938C4466,5673 4466,5664 4485,5195C4488,5124 4493,4998 4495,4915C4497,4833 4502,4699 4505,4618L4510,4470L4468,4469C4444,4469 4407,4467 4385,4466C4311,4460 3787,4459 3782,4465C3779,4467 3775,4640 3774,4847C3769,5307 3761,5712 3755,5800C3747,5895 3747,6090 3754,6097C3757,6100 3871,6105 4007,6107C4143,6109 4255,6111 4256,6113C4258,6115 4428,6113 4466,6111ZM5130,6107C5171,6105 5217,6107 5232,6111C5267,6120 5279,6105 5274,6060C5266,6004 5267,5601 5274,5415C5290,5023 5293,4851 5288,4606L5285,4478L5085,4472C4887,4467 4609,4468 4603,4473C4602,4475 4598,4552 4595,4646C4592,4739 4587,4844 4584,4880C4574,5027 4567,5338 4566,5710L4565,6105L4610,6110C4651,6115 4947,6113 5130,6107ZM3660,6066C3660,6055 3663,5872 3666,5660C3668,5448 3672,5129 3674,4950C3676,4771 3679,4594 3680,4555C3681,4517 3681,4480 3681,4474C3680,4465 3578,4463 3293,4467C3080,4469 2904,4473 2902,4475C2892,4485 2883,4818 2875,5547L2868,6079L2977,6078C3103,6077 3623,6091 3628,6096C3639,6105 3660,6085 3660,6066ZM1692,6077C1880,6075 1889,6074 1892,6055C1899,6021 1903,5675 1902,5185C1902,4594 1899,4460 1885,4459C1870,4458 1810,4461 1775,4466C1730,4471 1321,4471 1279,4465L1243,4460L1244,4688C1244,4900 1235,5224 1224,5419C1217,5542 1216,6065 1222,6076C1226,6081 1288,6084 1362,6082C1435,6081 1584,6078 1692,6077ZM2480,6070C2582,6071 2685,6073 2709,6076C2760,6082 2772,6071 2760,6029C2755,6014 2754,6000 2756,5997C2759,5995 2763,5903 2766,5794C2768,5684 2773,5532 2775,5455C2785,5130 2792,4862 2793,4667L2796,4460L2655,4461C2578,4462 2416,4462 2295,4461C2092,4461 2023,4463 2015,4472C2014,4474 2009,4669 2005,4905C2002,5142 1996,5423 1994,5530C1991,5637 1989,5730 1989,5735C1988,5761 1989,5957 1990,5975C1990,5986 1991,6011 1991,6030C1991,6049 1993,6067 1995,6070C1997,6073 2065,6074 2147,6072C2228,6071 2378,6070 2480,6070ZM5286,4215C5288,4121 5291,4024 5293,3998C5297,3952 5297,3952 5256,3934C5135,3880 5071,3723 5115,3590C5132,3540 5205,3461 5266,3429L5295,3414L5293,3309C5292,3252 5288,3189 5285,3170C5264,3063 5261,2959 5274,2868C5283,2811 5282,2810 5254,2799C5234,2790 5126,2786 4908,2785L4591,2783L4590,2859C4587,3028 4590,3252 4597,3370C4601,3439 4604,3689 4604,3926C4604,4226 4607,4357 4614,4358C4620,4358 4708,4361 4810,4364C5142,4374 5190,4376 5195,4382C5198,4384 5219,4386 5242,4386L5283,4385L5286,4215ZM1629,4354C1774,4352 1896,4347 1899,4344C1908,4335 1909,4304 1911,3527C1912,3045 1910,2786 1903,2779C1897,2773 1765,2767 1574,2763L1255,2757L1255,3036C1254,3189 1251,3412 1246,3530C1239,3720 1237,4176 1243,4316L1245,4368L1305,4363C1338,4361 1484,4357 1629,4354ZM4527,4207C4530,3952 4529,3645 4524,3530C4522,3472 4518,3333 4516,3220C4513,3107 4509,3006 4506,2995C4504,2984 4507,2969 4513,2963C4519,2955 4519,2950 4513,2950C4502,2950 4502,2921 4513,2903C4517,2897 4516,2889 4511,2886C4502,2880 4504,2843 4515,2813C4525,2784 4488,2777 4302,2773C3947,2765 3835,2765 3800,2770C3759,2776 3762,2749 3759,3080L3757,3305L3781,3310C3832,3321 3870,3353 3923,3428C3983,3513 4007,3590 4005,3695C4004,3748 3978,3817 3952,3833C3945,3838 3924,3854 3906,3870C3885,3889 3859,3900 3829,3904C3805,3906 3782,3909 3779,3909C3776,3910 3774,4010 3774,4133L3775,4355L4052,4355C4204,4355 4331,4357 4333,4360C4336,4363 4380,4366 4432,4367L4525,4369L4527,4207ZM2807,4149C2814,3579 2814,3383 2808,3255C2801,3131 2790,2893 2787,2818L2786,2791L2596,2792C2444,2793 2146,2785 2043,2776C2029,2775 2026,2782 2027,2805C2033,2872 2033,2919 2026,2995C2013,3157 2010,3283 2019,3294C2025,3300 2027,3315 2025,3325C2019,3363 2006,3525 2008,3550C2009,3564 2012,3748 2014,3960L2019,4345L2127,4343C2186,4341 2325,4340 2435,4340C2545,4341 2654,4341 2677,4341C2700,4340 2729,4344 2741,4348C2753,4353 2772,4356 2784,4355C2805,4353 2805,4349 2807,4149ZM3674,4322C3679,4287 3683,4082 3681,3957C3680,3912 3676,3898 3663,3893C3629,3881 3560,3829 3560,3816C3560,3808 3553,3797 3545,3790C3537,3784 3517,3743 3501,3701C3472,3625 3471,3622 3485,3559C3502,3475 3544,3414 3617,3364L3675,3325L3673,3195C3670,3002 3669,2863 3671,2853C3672,2849 3672,2832 3671,2815L3670,2785L2905,2785L2904,2865C2903,2909 2902,3098 2902,3285L2902,3775C2902,3858 2901,4018 2899,4133C2897,4247 2897,4340 2900,4341C2903,4342 3046,4343 3218,4345C3390,4346 3532,4349 3535,4352C3537,4354 3568,4356 3604,4357L3669,4358L3674,4322ZM3669,2665C3691,2643 3699,2458 3705,1835C3711,1364 3715,1159 3722,1130C3725,1117 3675,1115 3342,1115C3131,1115 2954,1118 2949,1121C2934,1130 2932,1154 2925,1366C2922,1476 2917,1626 2915,1700C2912,1774 2908,2022 2905,2251L2900,2667L3140,2666C3272,2666 3408,2667 3442,2670C3542,2678 3659,2675 3669,2665ZM4314,2671L4512,2670L4506,2543C4497,2373 4497,2345 4503,2278C4509,2225 4507,2220 4490,2220C4479,2220 4470,2216 4470,2210C4470,2205 4464,2200 4457,2200C4423,2200 4328,2078 4312,2015C4289,1923 4288,1872 4311,1821C4322,1794 4340,1764 4351,1754C4361,1745 4370,1732 4370,1726C4370,1719 4383,1706 4400,1697C4416,1687 4437,1672 4446,1663C4455,1654 4478,1644 4497,1641L4531,1635L4535,1490C4538,1410 4541,1296 4543,1235L4546,1125L4516,1124C4177,1107 3860,1101 3832,1111C3812,1118 3814,1053 3806,1769C3803,2073 3798,2326 3795,2330C3791,2336 3784,2468 3778,2640C3777,2674 3783,2676 3975,2673C4052,2672 4204,2671 4314,2671ZM1440,2657C1525,2660 1667,2662 1755,2663L1915,2665L1917,2640C1918,2626 1921,2557 1924,2485C1927,2414 1933,2294 1936,2220C1944,2032 1946,1920 1940,1920C1937,1920 1935,1739 1935,1517L1934,1115L1280,1115L1280,1310C1280,1417 1278,1575 1275,1660C1267,1920 1259,2112 1255,2180C1252,2238 1250,2609 1252,2652C1253,2664 1258,2667 1269,2661C1278,2656 1355,2654 1440,2657ZM2797,2534C2807,2142 2810,2030 2815,1885C2818,1797 2822,1588 2823,1422L2825,1118L2610,1113C2361,1108 2059,1108 2053,1114C2050,1116 2047,1259 2044,1432C2042,1604 2038,1779 2035,1820C2033,1861 2028,2062 2024,2267C2019,2540 2020,2643 2028,2653C2038,2664 2108,2666 2417,2665L2794,2663L2797,2534ZM5286,2657C5289,2655 5293,2570 5295,2469C5297,2368 5302,2254 5304,2215C5320,1998 5332,1143 5320,1135C5307,1127 4805,1114 4700,1119C4646,1121 4638,1131 4635,1201C4631,1287 4619,1554 4616,1610C4614,1649 4626,1680 4643,1680C4646,1680 4674,1696 4706,1715C4784,1762 4815,1805 4836,1896C4851,1961 4852,1979 4841,2032C4834,2065 4823,2102 4817,2113C4793,2154 4745,2190 4691,2206C4582,2238 4591,2213 4590,2456L4589,2669L4935,2666C5125,2664 5283,2660 5286,2657Z" style="fill-rule:nonzero;"/>
                <path d="M3262,7461C3255,7457 3234,7430 3217,7403C3199,7376 3171,7332 3153,7305C3126,7265 3123,7255 3133,7239C3151,7209 3171,7220 3215,7284L3255,7342L3262,7230C3266,7168 3274,7112 3281,7104C3294,7088 3315,7085 3305,7099C3302,7105 3309,7114 3320,7120C3335,7128 3338,7135 3331,7148C3326,7158 3320,7227 3317,7303C3312,7455 3301,7486 3262,7461Z" style="fill-rule:nonzero;"/>
                <path d="M4083,4196C4048,4161 4039,4145 4042,4123C4046,4084 4076,4081 4097,4118C4107,4135 4127,4156 4142,4164C4169,4180 4169,4180 4185,4151C4193,4134 4200,4115 4200,4107C4200,4081 4159,4010 4119,3968C4062,3908 4069,3884 4147,3878C4256,3868 4322,3873 4334,3892C4342,3906 4340,3913 4325,3925C4309,3937 4290,3939 4237,3934L4168,3928L4203,3976C4241,4030 4262,4085 4256,4115C4244,4173 4235,4192 4208,4215C4164,4252 4135,4247 4083,4196Z" style="fill-rule:nonzero;"/>
                <path d="M4921,2537C4911,2524 4888,2434 4871,2341C4856,2262 4870,2248 4960,2252L5005,2255L5010,2185C5014,2127 5018,2115 5034,2112C5062,2106 5071,2128 5068,2200C5065,2258 5067,2265 5084,2265C5111,2265 5127,2294 5111,2314C5103,2323 5089,2330 5079,2330C5062,2330 5060,2338 5060,2414C5060,2490 5058,2499 5040,2505C5006,2516 5000,2502 5000,2409L5000,2320L4965,2320C4933,2320 4930,2322 4930,2349C4930,2366 4935,2382 4941,2385C4946,2389 4949,2397 4947,2403C4945,2410 4949,2429 4957,2447C4964,2465 4970,2491 4970,2504C4970,2535 4938,2556 4921,2537Z" style="fill-rule:nonzero;"/>
                <path d="M5805,4261C5747,4244 5698,4182 5721,4154C5737,4134 5757,4137 5773,4160C5781,4171 5802,4185 5819,4190C5846,4198 5852,4196 5866,4175C5889,4140 5873,4100 5827,4076C5764,4043 5785,3996 5852,4019C5881,4029 5887,4028 5908,4007C5931,3984 5931,3982 5916,3947C5902,3913 5898,3910 5861,3910C5839,3910 5809,3915 5795,3922C5764,3936 5745,3922 5754,3892C5762,3868 5776,3862 5838,3854C5929,3844 6001,3921 5978,4006C5974,4023 5959,4042 5945,4050C5919,4064 5912,4084 5930,4095C5949,4107 5941,4174 5915,4213C5901,4233 5888,4250 5887,4250C5886,4250 5871,4254 5855,4258C5838,4263 5816,4264 5805,4261Z" style="fill-rule:nonzero;"/>
            </g>
        </g>
        <g id="Eb1" serif:id="Eb">
        </g>
    </g>
</svg>
