<?xml version="1.0" encoding="iso-8859-1"?>
<!-- Generator: Adobe Illustrator 16.0.0, SVG Export Plug-In . SVG Version: 6.00 Build 0)  -->
<!DOCTYPE svg PUBLIC "-//W3C//DTD SVG 1.1//EN" "http://www.w3.org/Graphics/SVG/1.1/DTD/svg11.dtd">
<svg version="1.1" xmlns="http://www.w3.org/2000/svg" xmlns:xlink="http://www.w3.org/1999/xlink" x="0px" y="0px"
	 width="177.327px" height="234.886px" viewBox="0 0 177.327 234.886" style="enable-background:new 0 0 177.327 234.886;"
	 xml:space="preserve">
<g id="Fm">
	<g id="Fm_1_">
		<path style="fill:none;" d="M0-6.863c59.103,0,118.205,0,177.327,0c0,80.565,0,161.138,0,241.749c-59.097,0-118.212,0-177.327,0
			C0,154.316,0,73.73,0-6.863z M29.815,107.272c0,0.558-0.001,0.795,0,1.033c0.017,3.27-0.012,6.541,0.062,9.81
			c0.183,8.029,0.453,16.056,0.602,24.086c0.05,2.658-0.179,5.322-0.239,7.986c-0.019,0.842-0.387,1.166-1.187,1.094
			c-0.362-0.033-0.724-0.063-1.085-0.096c-1.246-0.107-2.492-0.303-3.737-0.299c-1.248,0.002-2.482,0.229-3.28,1.467
			c0.924,1.008,2.04,1.363,3.302,1.288c0.804-0.046,1.603-0.227,2.406-0.257c0.798-0.031,1.619-0.045,2.396,0.107
			c1.326,0.262,1.422,0.428,1.407,1.797c-0.041,3.995-0.131,7.99-0.149,11.986c-0.037,8.234-0.041,16.468-0.058,24.701
			c-0.003,1.807,0,3.612,0,5.595c-2.716,0.143-5.437,0.285-8.201,0.431c-0.198,1.205,0.791,1.992,1.154,3.099
			c2.636-0.616,5.229-1.199,7.959-0.737c0.041,0.239,0.094,0.431,0.102,0.624c0.174,4.718,0.334,9.438,0.521,14.157
			c0.071,1.81,0.166,3.617,0.314,5.421c0.065,0.795,0.733,1.272,1.418,1.166c0.702-0.111,1.136-0.742,1.037-1.522
			c-0.044-0.359-0.148-0.714-0.156-1.072c-0.129-5.649-0.252-11.299-0.362-16.949c-0.013-0.672,0.07-1.347,0.103-1.934
			c6.1-0.156,12.086-0.31,18.123-0.464c0.054,0.433,0.121,0.745,0.128,1.06c0.058,2.62,0.083,5.242,0.16,7.862
			c0.104,3.511,0.234,7.02,0.377,10.528c0.038,0.922,0.579,1.47,1.278,1.409c0.702-0.061,1.175-0.721,1.156-1.527
			c-0.126-5.085-0.247-10.167-0.354-15.252c-0.028-1.321-0.004-2.645-0.004-4.028c7.178,0,14.107,0,21.14,0
			c0.031,0.422,0.073,0.814,0.086,1.208c0.177,5.487,0.346,10.973,0.529,16.46c0.036,1.079,0.593,1.841,1.294,1.85
			c0.757,0.009,1.175-0.687,1.157-1.901c-0.077-5.53-0.152-11.059-0.222-16.589c-0.004-0.344,0.047-0.687,0.081-1.122
			c7.127,0.41,14.132-0.637,21.175,0.031c0.05,0.361,0.099,0.594,0.11,0.828c0.158,3.103,0.336,6.205,0.461,9.311
			c0.107,2.66,0.151,5.323,0.232,7.986c0.022,0.746,0.739,1.546,1.369,1.562c0.651,0.018,1.174-0.517,1.151-1.266
			c-0.151-4.962-0.316-9.924-0.487-14.885c-0.043-1.23-0.126-2.458-0.197-3.812c6.815,0.154,13.451-0.335,20.11,0.258
			c0.019,0.379,0.04,0.575,0.036,0.771c-0.061,3.309-0.176,6.617-0.172,9.926c0.003,2.582,0.144,5.164,0.244,7.745
			c0.029,0.767,0.72,1.459,1.35,1.432c0.656-0.027,1.025-0.575,1.015-1.517c-0.003-0.243-0.032-0.483-0.039-0.726
			c-0.139-5.487-0.278-10.973-0.409-16.46c-0.01-0.353,0.043-0.705,0.072-1.136c6.337-0.664,12.614,0.008,18.943-0.277
			c0.27,5.914,0.532,11.666,0.789,17.315c1.829,1.354,2.786,0.464,2.763-1.446c-0.057-4.396,0.129-8.796,0.241-13.194
			c0.022-0.867,0.157-1.732,0.232-2.522c2.726,0,5.284,0,7.975,0c-0.053-0.644-0.13-1.194-0.138-1.748
			c-0.016-1.031-0.541-1.532-1.542-1.606c-1.406-0.105-2.811-0.215-4.216-0.332c-1.026-0.086-2.052-0.188-3.091-0.285
			c0-1.008,0.03-1.808-0.006-2.606c-0.135-2.981-0.184-5.973-0.465-8.941c-0.401-4.242-0.051-8.47-0.001-12.704
			c0.062-5.285,0.056-10.571,0.076-15.857c0.005-1.071,0.001-2.144,0.001-3.293c0.6,0,1.041-0.027,1.479,0.006
			c1.206,0.091,2.408,0.234,3.616,0.308c1.105,0.066,2.167-0.089,3.082-0.974c-0.35-0.588-0.694-1.166-1.042-1.749
			c-2.453-0.257-4.883,0.625-7.462,0.121c0-0.675,0.004-1.272-0.001-1.871c-0.023-2.584-0.017-5.168-0.079-7.751
			c-0.238-9.727-0.393-19.454,0.124-29.177c0.096-1.798,0.332-3.589,0.513-5.464c0.633,0.07,1.108,0.124,1.583,0.175
			c1.481,0.16,2.962,0.403,4.447,0.454c1.245,0.042,2.481-0.187,3.612-1.342c-0.991-0.433-1.83-1.023-2.732-1.146
			c-1.625-0.221-3.287-0.163-4.935-0.22c-0.904-0.032-1.809-0.061-2.748-0.092c0-2.875,0.021-5.536-0.016-8.197
			c-0.008-0.608,0.384-0.701,0.773-0.91c1.489-0.796,3.066-1.477,4.429-2.454c3.907-2.802,4.846-7.108,2.549-11.332
			c-1.736-3.192-4.232-5.468-7.894-6.164c0-2.968,0-5.894,0-8.928c3.926-0.434,7.859-0.311,11.913-0.05
			c0.065-2.635,0.172-5.187-0.551-7.767c-0.525,0-0.964-0.003-1.402,0.001c-6.741,0.064-13.482,0.191-20.224,0.174
			c-4.922-0.013-9.846-0.335-14.767-0.305c-8.03,0.049-16.061,0.279-24.091,0.422c-12.47,0.222-24.94,0.439-37.41,0.646
			c-0.967,0.016-1.935-0.076-2.902-0.086c-10.657-0.112-21.313-0.219-31.969-0.324c-1.196-0.012-2.391-0.002-3.529-0.002
			c0,2.258,0.02,4.345-0.009,6.432c-0.013,0.902,0.532,1.23,1.262,1.291c1.162,0.097,2.332,0.098,3.498,0.137
			c1.085,0.037,2.171,0.066,3.256,0.104c0.513,0.018,0.807,0.22,0.825,0.804c0.07,2.299,0.165,4.598,0.271,6.895
			c0.029,0.608-0.169,0.895-0.786,1.131c-1.044,0.4-2.084,0.895-3.002,1.529c-4.521,3.125-5.966,8.79-3.518,13.598
			c1.295,2.543,3.352,4.307,5.845,5.605c0.628,0.327,1.267,0.634,1.933,0.966c-0.855,1.451-1.034,2.9-0.955,4.422
			c0.044,0.842-0.013,1.696-0.103,2.538c-0.123,1.161-0.418,1.384-1.592,1.185c-1.151-0.195-2.281-0.514-3.434-0.693
			c-0.538-0.084-1.179-0.119-1.642,0.101c-0.446,0.213-0.836,0.739-1.018,1.216c-0.072,0.19,0.431,0.688,0.758,0.925
			c1.228,0.886,2.665,0.799,4.08,0.789C27.692,107.267,28.688,107.272,29.815,107.272z M66.321,20.243
			c-0.852,0.064-1.46,0.415-1.67,1.216c-0.207,0.786,0.102,1.437,0.718,1.921c0.753,0.593,1.116,1.352,1.116,2.299
			c-0.001,0.684-0.004,1.367-0.006,2.05c-0.003,1.006-0.083,2.019,0.01,3.016c0.15,1.617,1.718,2.258,3.046,1.274
			c0.224-0.167,0.434-0.508,0.448-0.778c0.085-1.689,0.202-3.384,0.138-5.071c-0.084-2.206,0.029-2.376,2.306-2.189
			c0.443,0.037,0.886,0.117,1.326,0.1c0.519-0.02,1.046-0.077,1.549-0.203c0.7-0.176,1.054-0.697,1.15-1.399
			c0.102-0.739-0.229-1.276-0.873-1.566c-0.468-0.211-0.992-0.391-1.498-0.413c-1.315-0.057-2.634-0.02-3.965-0.02
			c-0.103-0.523-0.185-0.871-0.239-1.223c-0.227-1.481,0.04-1.83,1.531-1.882c1.168-0.041,2.344,0.054,3.505-0.046
			c0.99-0.085,1.976-0.32,2.937-0.585c0.259-0.071,0.558-0.47,0.604-0.757c0.177-1.088-1.027-2.379-2.116-2.22
			c-1.908,0.278-3.774,0.036-5.653-0.227c-1.636-0.229-3.267-0.428-4.918,0.025c-0.814,0.224-0.923,0.82-1.016,1.445
			c-0.09,0.601-0.393,1.25,0.355,1.733C66.353,17.55,66.609,18.753,66.321,20.243z M78.073,20.568
			c-0.116,0.64-0.269,1.224-0.323,1.816c-0.29,3.171,0.81,6.123,1.542,9.125c0.069,0.286,0.811,0.515,1.266,0.574
			c0.494,0.063,0.959-0.175,0.978-0.811c0.022-0.764,0.037-1.529,0.053-2.294c0.025-1.283-0.121-2.593,0.536-3.782
			c0.497-0.898,1.561-1.369,2.583-1.154c0.943,0.199,1.081,1.007,1.231,1.749c0.102,0.507,0.066,1.043,0.09,1.566
			c0.052,1.126,0.008,2.266,0.177,3.374c0.229,1.507,0.868,1.728,2.187,1.012c0.623-0.338,0.535-0.805,0.487-1.332
			c-0.165-1.831,0.119-3.588,0.793-5.276c0.53-0.075,0.968-0.19,1.404-0.19c1.301,0.001,1.72,0.659,1.323,1.89
			c-0.533,1.656-0.68,3.337,0.175,4.929c0.239,0.443,0.718,0.944,1.169,1.042c0.684,0.148,1.807-0.793,1.99-1.421
			c0.5-1.7,0.55-3.413,0.132-5.135c-0.663-2.736-2.491-4.565-4.891-4.627c-1.089-0.028-2.192,0.367-3.343,0.581
			c-2.063-2.535-4.511-1.457-6.944-0.469C80.121,20.745,79.313,20.353,78.073,20.568z M104.304,43.188
			c0.269-2.472-1.386-4.434-3.866-4.486c-3.17-0.066-5.699,1.286-7.52,3.881c-0.749,1.068-0.969,2.31-0.717,3.588
			c0.719,3.651,2.963,6.014,6.39,7.266c1.517,0.554,3.071,0.587,4.563-0.254c0.34-0.192,0.801-0.169,1.174-0.239
			c0.113,0.817,0.204,1.477,0.314,2.263c0.943-0.108,1.76-0.203,2.592-0.298c-0.07-1.269-0.082-2.395-0.207-3.507
			c-0.162-1.44-0.431-2.868-0.621-4.305c-0.086-0.65-0.416-1.034-1.041-1.156c-0.552-0.108-1.117-0.292-1.662-0.249
			c-1.838,0.148-3.669,0.383-5.654,0.601c0.152,0.843,0.283,1.568,0.414,2.299c1.694,0.373,3.291-0.883,4.943-0.09
			c-0.176,1.354-0.976,2.218-2.195,2.467c-1.286,0.263-2.631,0.25-3.952,0.32c-0.206,0.011-0.483-0.118-0.626-0.275
			c-2.91-3.221-1.75-8.235,1.764-9.723c1.812-0.767,2.46-0.616,3.805,0.821C102.75,42.697,103.297,43.313,104.304,43.188z
			 M71.736,52.975c0.577,0.266,1.032,0.524,1.519,0.693c4.122,1.436,10.002-1.096,11.818-5.077c0.839-1.84,0.699-3.656-0.43-5.289
			c-0.604-0.873-1.413-1.67-2.284-2.278c-2.151-1.502-4.622-2.241-7.192-2.685c-1.614-0.279-2.509,0.105-3.185,1.604
			c-0.276,0.611-0.469,1.306-0.499,1.971c-0.045,1,0.048,2.013,0.151,3.013C71.901,47.56,72.684,50.174,71.736,52.975z
			 M35.154,37.929c-1.921-1.095-6.861-1.032-9.773,0.071c-0.474,5.123,0.662,10.117,1.448,15.196c0.564,0,1.004,0.014,1.443-0.002
			c2.095-0.078,4.189-0.224,6.284-0.221c0.94,0.001,1.353-0.451,1.495-1.219c0.105-0.568,0.021-1.17,0.021-1.995
			c-2.542,0.125-4.921,0.24-7.311,0.356c-0.252-1.19-0.473-2.23-0.729-3.439c1.002-0.128,1.831-0.205,2.649-0.346
			c1.196-0.207,1.427-0.579,1.237-1.854c-0.141-0.95-0.489-1.187-1.634-1.11c-0.789,0.053-1.579,0.11-2.491,0.173
			c0-0.974,0-1.781,0-2.759c2.281,0,4.398,0,6.635,0C34.675,39.808,34.909,38.888,35.154,37.929z M60.082,53.734
			c-0.039-0.342-0.049-0.622-0.104-0.893c-0.438-2.161-1.382-4.118-2.446-6.027c-1.469-2.636-3.157-5.169-3.783-8.199
			c-0.132-0.641-0.575-0.599-0.978-0.232c-0.202,0.184-0.339,0.452-0.468,0.701c-2.16,4.189-4.322,8.377-6.462,12.576
			c-0.619,1.214-0.227,1.893,1.218,2.239c0.737-2.65,1.314-3.217,4.042-3.738c1.265-0.242,2.552-0.399,3.837-0.498
			c0.279-0.021,0.727,0.31,0.862,0.591c0.452,0.942,0.817,1.929,1.18,2.911c0.52,1.404,0.852,1.563,2.224,0.982
			C59.461,54.039,59.71,53.91,60.082,53.734z M125.368,38.468c-0.537,1.318-0.301,2.562-0.236,3.805
			c0.036,0.712-0.01,1.444-0.148,2.142c-0.05,0.253-0.465,0.595-0.736,0.617c-1.325,0.107-2.658,0.106-3.985,0.17
			c-0.701,0.034-1.067-0.234-1.069-0.961c-0.002-1.25-0.046-2.5-0.025-3.749c0.028-1.687-1.232-2.595-2.934-2.057
			c-0.012,0.109-0.057,0.232-0.032,0.341c0.688,3.258,0.792,6.562,0.797,9.876c0.002,1.208,0.11,2.417,0.154,3.627
			c0.021,0.617,0.387,0.828,0.933,0.883c0.921,0.094,1.354-0.209,1.407-1.155c0.055-0.963-0.033-1.934-0.004-2.9
			c0.041-1.26,0.141-1.358,1.39-1.492c1.394-0.15,2.791-0.268,4.242-0.405c0.628,1.071,0.412,2.226,0.238,3.379
			c-0.157,1.042-0.3,2.075,0.276,3.063c0.354,0.606,0.812,0.723,1.426,0.481c0.789-0.311,0.993-0.81,0.937-2.002
			c-0.076-1.603-0.119-3.208-0.132-4.812c-0.013-1.572,0.123-3.15,0.022-4.714C127.777,40.896,127.154,39.394,125.368,38.468z
			 M141.699,41.701c1.493,0.107,2.809,0.291,4.121,0.272c1.345-0.019,2.687-0.235,4.029-0.365c0.121-1.308,0.004-2.302-0.523-2.89
			c-3.377,0.087-6.491,0.168-9.638,0.25c0.114,5.096,0.235,10.029,1.08,14.902c1.684,0,3.242-0.006,4.8,0.002
			c0.726,0.004,1.456,0.101,2.175,0.038c1.244-0.109,2.394-0.476,3.384-1.774c-1.043-0.313-1.895-0.717-2.776-0.795
			c-1.112-0.099-2.253,0.015-3.371,0.128c-2.633,0.266-2.825,0.111-2.778-2.552c0.001-0.07,0.069-0.139,0.179-0.345
			c0.671-0.05,1.422-0.149,2.176-0.155c2.768-0.022,2.769-0.01,2.008-2.717c-0.019-0.065-0.098-0.114-0.185-0.21
			c-1.34-0.043-2.743,0.55-4.008-0.045C142.146,44.185,141.938,43.031,141.699,41.701z M15.84,84.686
			c0.304-0.453,0.61-0.722,0.676-1.041c0.187-0.902,0.397-1.828,0.378-2.739c-0.047-2.337-0.302-4.673-0.286-7.008
			c0.006-0.852-0.343-1.289-0.858-1.771c-0.375-0.353-0.629-0.296-0.995,0.087c-0.973,1.018-2.037,1.946-3.015,2.959
			c-0.749,0.776-1.489,1.581-2.103,2.463c-0.374,0.536-0.579,1.241-0.096,1.925c1.041-0.056,1.772-0.578,2.371-1.321
			c0.38-0.471,0.679-1.017,1.104-1.438c0.449-0.444,1.005-0.78,1.706-1.307C14.879,78.708,13.651,81.735,15.84,84.686z"/>
		<path style="fill-rule:evenodd;clip-rule:evenodd;" d="M29.815,107.272c-1.127,0-2.123-0.006-3.119,0.001
			c-1.415,0.011-2.852,0.098-4.08-0.789c-0.328-0.237-0.831-0.735-0.758-0.925c0.182-0.477,0.572-1.003,1.018-1.216
			c0.462-0.22,1.104-0.185,1.642-0.101c1.152,0.18,2.283,0.499,3.434,0.693c1.174,0.2,1.469-0.023,1.592-1.185
			c0.089-0.841,0.146-1.696,0.103-2.538c-0.079-1.522,0.1-2.972,0.955-4.422c-0.666-0.332-1.305-0.639-1.933-0.966
			c-2.494-1.298-4.55-3.062-5.845-5.605c-2.448-4.808-1.003-10.473,3.518-13.598c0.918-0.634,1.958-1.128,3.002-1.529
			c0.617-0.236,0.814-0.523,0.786-1.131c-0.106-2.297-0.202-4.596-0.271-6.895c-0.018-0.584-0.312-0.786-0.825-0.804
			c-1.085-0.038-2.171-0.067-3.256-0.104c-1.167-0.039-2.336-0.04-3.498-0.137c-0.73-0.061-1.275-0.389-1.262-1.291
			c0.029-2.086,0.009-4.173,0.009-6.432c1.138,0,2.333-0.01,3.529,0.002c10.656,0.105,21.312,0.212,31.969,0.324
			c0.968,0.01,1.935,0.103,2.902,0.086c12.47-0.207,24.94-0.424,37.41-0.646c8.03-0.143,16.061-0.373,24.091-0.422
			c4.921-0.03,9.845,0.292,14.767,0.305c6.741,0.017,13.482-0.109,20.224-0.174c0.438-0.004,0.877-0.001,1.402-0.001
			c0.723,2.58,0.616,5.131,0.551,7.767c-4.054-0.261-7.987-0.383-11.913,0.05c0,3.034,0,5.96,0,8.928
			c3.661,0.695,6.157,2.972,7.894,6.164c2.297,4.223,1.358,8.529-2.549,11.332c-1.362,0.977-2.939,1.658-4.429,2.454
			c-0.39,0.208-0.781,0.301-0.773,0.91c0.036,2.661,0.016,5.321,0.016,8.197c0.939,0.031,1.844,0.061,2.748,0.092
			c1.647,0.057,3.31-0.001,4.935,0.22c0.902,0.124,1.741,0.713,2.732,1.146c-1.131,1.155-2.367,1.384-3.612,1.342
			c-1.485-0.051-2.966-0.294-4.447-0.454c-0.475-0.051-0.95-0.105-1.583-0.175c-0.181,1.875-0.417,3.666-0.513,5.464
			c-0.517,9.723-0.362,19.45-0.124,29.177c0.062,2.583,0.056,5.167,0.079,7.751c0.005,0.599,0.001,1.196,0.001,1.871
			c2.579,0.504,5.009-0.378,7.462-0.121c0.348,0.583,0.692,1.161,1.042,1.749c-0.915,0.885-1.977,1.04-3.082,0.974
			c-1.208-0.073-2.41-0.217-3.616-0.308c-0.438-0.033-0.88-0.006-1.479-0.006c0,1.149,0.004,2.222-0.001,3.293
			c-0.021,5.286-0.015,10.572-0.076,15.857c-0.05,4.234-0.4,8.462,0.001,12.704c0.281,2.969,0.33,5.96,0.465,8.941
			c0.036,0.799,0.006,1.599,0.006,2.606c1.039,0.097,2.064,0.199,3.091,0.285c1.405,0.117,2.81,0.227,4.216,0.332
			c1.001,0.074,1.526,0.575,1.542,1.606c0.008,0.554,0.085,1.104,0.138,1.748c-2.69,0-5.249,0-7.975,0
			c-0.075,0.79-0.21,1.655-0.232,2.522c-0.112,4.398-0.298,8.799-0.241,13.194c0.023,1.91-0.934,2.8-2.763,1.446
			c-0.257-5.649-0.52-11.401-0.789-17.315c-6.329,0.285-12.606-0.387-18.943,0.277c-0.029,0.431-0.082,0.783-0.072,1.136
			c0.131,5.487,0.271,10.973,0.409,16.46c0.007,0.242,0.036,0.482,0.039,0.726c0.011,0.941-0.358,1.489-1.015,1.517
			c-0.63,0.027-1.32-0.665-1.35-1.432c-0.101-2.581-0.241-5.163-0.244-7.745c-0.004-3.309,0.111-6.617,0.172-9.926
			c0.004-0.195-0.018-0.392-0.036-0.771c-6.659-0.593-13.295-0.104-20.11-0.258c0.071,1.354,0.154,2.582,0.197,3.812
			c0.171,4.961,0.336,9.923,0.487,14.885c0.022,0.749-0.5,1.283-1.151,1.266c-0.63-0.017-1.347-0.816-1.369-1.562
			c-0.081-2.663-0.125-5.326-0.232-7.986c-0.125-3.105-0.303-6.208-0.461-9.311c-0.012-0.234-0.061-0.467-0.11-0.828
			c-7.043-0.668-14.048,0.379-21.175-0.031c-0.033,0.436-0.084,0.778-0.081,1.122c0.07,5.53,0.145,11.059,0.222,16.589
			c0.018,1.215-0.4,1.91-1.157,1.901c-0.701-0.009-1.259-0.771-1.294-1.85c-0.184-5.487-0.352-10.973-0.529-16.46
			c-0.013-0.394-0.055-0.786-0.086-1.208c-7.033,0-13.962,0-21.14,0c0,1.384-0.023,2.707,0.004,4.028
			c0.107,5.085,0.228,10.167,0.354,15.252c0.02,0.807-0.454,1.467-1.156,1.527c-0.699,0.061-1.24-0.487-1.278-1.409
			c-0.143-3.509-0.273-7.018-0.377-10.528c-0.077-2.62-0.102-5.242-0.16-7.862c-0.007-0.314-0.074-0.627-0.128-1.06
			c-6.037,0.154-12.023,0.308-18.123,0.464c-0.033,0.587-0.115,1.262-0.103,1.934c0.109,5.65,0.232,11.3,0.362,16.949
			c0.008,0.358,0.112,0.713,0.156,1.072c0.099,0.78-0.335,1.411-1.037,1.522c-0.685,0.106-1.353-0.371-1.418-1.166
			c-0.148-1.804-0.244-3.611-0.314-5.421c-0.186-4.719-0.346-9.439-0.521-14.157c-0.007-0.193-0.061-0.385-0.102-0.624
			c-2.731-0.462-5.323,0.121-7.959,0.737c-0.364-1.106-1.353-1.894-1.154-3.099c2.765-0.146,5.485-0.288,8.201-0.431
			c0-1.982-0.003-3.788,0-5.595c0.017-8.233,0.021-16.467,0.058-24.701c0.018-3.996,0.108-7.991,0.149-11.986
			c0.015-1.369-0.081-1.535-1.407-1.797c-0.777-0.152-1.598-0.139-2.396-0.107c-0.804,0.03-1.602,0.211-2.406,0.257
			c-1.262,0.075-2.377-0.28-3.302-1.288c0.798-1.237,2.032-1.465,3.28-1.467c1.245-0.004,2.491,0.191,3.737,0.299
			c0.362,0.032,0.724,0.062,1.085,0.096c0.8,0.072,1.168-0.252,1.187-1.094c0.06-2.664,0.289-5.328,0.239-7.986
			c-0.149-8.03-0.419-16.057-0.602-24.086c-0.074-3.269-0.045-6.54-0.062-9.81C29.814,108.068,29.815,107.83,29.815,107.272z
			 M99.764,150.844c0.121-14.727-0.159-29.305-0.946-43.939c-7.124,0.179-14.125,0.355-21.099,0.531
			c-0.552,3,0.253,40.598,0.91,43.408C85.704,150.844,92.788,150.844,99.764,150.844z M74.472,107.548
			c-0.307-0.025-0.461-0.051-0.616-0.048c-3.146,0.052-6.29,0.119-9.436,0.158c-3.104,0.039-6.21,0.012-9.313,0.092
			c-1.404,0.036-1.554,0.174-1.556,1.577c-0.004,3.102,0.106,6.204,0.166,9.307c0.177,9.036,0.357,18.071,0.522,27.107
			c0.033,1.771,0.005,3.542,0.005,5.28c1.139,0.316,20.368,0.225,21.713-0.11C75.463,136.49,74.968,122.034,74.472,107.548z
			 M122.62,196.645c0.911-4.787,0.837-40.97-0.031-43.268c-6.771,0.104-13.516,0.205-20.321,0.311c0,7.19,0,14.366,0,21.542
			c0,7.208,0,14.415,0,21.696C109.145,197.568,115.853,196.693,122.62,196.645z M122.458,150.328
			c-0.534-14.726-1.063-29.307-1.602-44.117c-6.367,0.141-12.831,0.283-19.423,0.429c0.386,14.798,0.771,29.494,1.156,44.284
			C109.278,151.364,115.78,150.929,122.458,150.328z M125.019,150.766c6.229-0.197,12.301-0.391,18.483-0.586
			c0.822-14.824-0.769-29.413-0.82-43.933c-6.423,0-12.688,0-19.07,0C123.134,121.142,124.125,135.787,125.019,150.766z
			 M124.933,196.618c1.538-0.077,2.822-0.189,4.105-0.197c3.147-0.016,6.297,0.052,9.444,0.012c1.365-0.018,2.729-0.218,4.092-0.34
			c0.943-0.085,1.329-0.668,1.318-1.551c-0.006-0.439-0.004-0.908-0.146-1.313c-0.835-2.381-0.463-4.787-0.18-7.185
			c0.406-3.443,0.936-6.869,0.825-10.361c-0.231-7.299-0.383-14.602-0.574-21.901c-0.007-0.271-0.076-0.54-0.139-0.952
			c-6.24-0.215-12.383,0.897-18.428,0.647C125.145,167.928,125.039,182.197,124.933,196.618z M99.607,196.819
			c0.871-3.884,0.827-40.494-0.063-43.036c-6.981,0.182-13.978,0.363-20.97,0.547c0,3.32,0,6.518,0,9.763
			c4.063,0.416,6.167,2.902,7.081,6.605c0.421,1.708,0.437,3.459,0.05,5.166c-0.837,3.709-2.662,6.568-6.72,7.362
			c-0.069,0.014-0.124,0.098-0.207,0.167c0.1,4.446,0.199,8.908,0.299,13.426C85.95,196.819,92.781,196.819,99.607,196.819z
			 M32.437,107.752c-0.238,14.49,1.027,28.882,1.106,43.438c6.028-0.48,11.939,0.585,17.885-0.284
			c-0.264-14.554,0.42-28.956-0.797-43.457C44.524,108.082,38.523,106.97,32.437,107.752z M54.454,154.267
			c-0.051,0.265-0.095,0.379-0.092,0.491c0.076,2.782,0.209,5.562,0.22,8.345c0.007,1.851-0.144,1.457,1.322,2.081
			c1.864,0.794,3.647,1.727,5.096,3.185c2.284,2.297,2.867,5.004,1.74,8.007c-1.217,3.243-3.608,5.373-6.766,6.688
			c-0.441,0.185-0.896,0.338-1.42,0.531c0.294,4.513,0.586,8.994,0.873,13.415c6.718-0.173,13.514-0.349,20.433-0.527
			c0.204-4.165,0.411-8.395,0.618-12.634c-0.56-0.077-0.877-0.12-1.195-0.164c-6.863-0.937-8.76-6.865-7.407-11.761
			c0.734-2.653,2.587-4.521,4.823-6.004c1.167-0.772,2.409-1.434,3.486-2.067c0-3.303,0-6.507,0-9.771
			C68.845,154.903,61.641,154.288,54.454,154.267z M51.423,154.278c-5.937-0.112-11.755-0.223-17.67-0.333
			c-0.107,1.317-0.297,2.638-0.308,3.959c-0.036,4.275-0.073,8.553,0.012,12.828c0.171,8.672,0.421,17.343,0.645,26.014
			c0.006,0.229,0.063,0.458,0.111,0.791c5.961,0.185,11.858-0.093,17.804-0.321c0-4.562,0-8.944,0-13.3
			c-5.349-1.347-8.036-4.565-8.196-9.694c-0.07-2.238,0.373-4.328,1.687-6.186c1.498-2.117,3.672-3.05,6.208-3.414
			C51.82,161.164,52.076,157.792,51.423,154.278z M74.887,66.046c-1.194,0-2.117-0.012-3.04,0.002
			c-4.68,0.071-9.36,0.125-14.039,0.239c-1.345,0.033-2.686,0.244-4.005,0.371c0,3.04,0,5.846,0,8.707c7.114,0,14.146,0,21.083,0
			C74.887,72.151,74.887,69.104,74.887,66.046z M77.376,104.804c7.044,0,13.995,0,20.972,0c0.847-3.089,0.838-6.087,0.191-9.183
			c-7.121,0.558-14.16-0.493-21.163,0.356C77.376,98.946,77.376,101.796,77.376,104.804z M53.545,104.644
			c7.087,0.403,14.104,0.302,21.189-0.057c0-3.043,0-5.926,0-8.865c-7.11,0-14.136,0-21.189,0
			C53.545,98.702,53.545,101.589,53.545,104.644z M98.359,65.885c-6.902,0-13.929,0-21.033,0c-0.266,3.141-0.102,6.129,0.284,9.187
			c6.97-0.181,13.835-0.359,20.749-0.539C98.359,71.574,98.359,68.805,98.359,65.885z M101,74.544c6.76,0,13.509,0,20.358,0
			c0.047-2.907,0.376-5.906-0.281-8.728c-2.899,0-5.641,0.027-8.379-0.007c-2.905-0.036-5.813-0.261-8.713-0.161
			c-2.833,0.098-2.761-0.331-2.964,2.912C100.902,70.487,101,72.428,101,74.544z M32.429,74.973
			c1.675,0.661,17.204,1.053,18.646,0.565c0-2.997,0-5.999,0-9.152c-6.152-0.116-12.219-0.23-18.375-0.346
			C32.605,69.157,32.517,72.085,32.429,74.973z M143.213,65.742c-6.364,0-12.516,0-18.862,0c-0.118,2.904-0.236,5.818-0.358,8.857
			c6.413,0,12.652,0,18.9,0C143.925,71.667,142.978,68.816,143.213,65.742z M101.617,104.319c6.604,0,13.016,0,19.521,0
			c0-3.008,0-5.775,0-8.684c-6.612-0.053-13.234-0.279-19.956,0.292C101.334,98.863,101.479,101.666,101.617,104.319z
			 M123.838,104.263c6.452-1.003,12.761-0.229,19.048-0.22c0.116-3.159,0.227-6.149,0.34-9.252
			c-6.622,0.725-13.037,1.074-19.613,0.589C123.842,98.385,123.191,101.267,123.838,104.263z M32.257,104.604
			c6.322,0.319,12.553,0.332,18.685-0.024c0-3.027,0-5.911,0-8.888c-6.16-0.408-12.131,0.525-18.189,0.236
			C32.586,98.838,32.426,101.638,32.257,104.604z"/>
		<path style="fill-rule:evenodd;clip-rule:evenodd;" d="M74.321,16.243c0.289-1.49,0.032-2.693-1.215-3.499
			c-0.748-0.483-0.445-1.132-0.355-1.733c0.093-0.625,0.201-1.221,1.016-1.445c1.651-0.453,3.283-0.254,4.918-0.025
			c1.879,0.263,3.745,0.505,5.653,0.227c1.089-0.159,2.293,1.132,2.116,2.22c-0.046,0.287-0.345,0.686-0.604,0.757
			c-0.961,0.265-1.947,0.5-2.937,0.585c-1.161,0.101-2.337,0.005-3.505,0.046c-1.491,0.052-1.758,0.401-1.531,1.882
			c0.054,0.352,0.136,0.7,0.239,1.223c1.331,0,2.65-0.038,3.965,0.02c0.506,0.022,1.029,0.202,1.498,0.413
			c0.644,0.29,0.974,0.827,0.873,1.566c-0.097,0.702-0.451,1.223-1.15,1.399c-0.503,0.126-1.03,0.183-1.549,0.203
			c-0.44,0.017-0.883-0.063-1.326-0.1c-2.276-0.188-2.39-0.017-2.306,2.189c0.064,1.687-0.052,3.382-0.138,5.071
			c-0.014,0.271-0.224,0.611-0.448,0.778c-1.329,0.984-2.896,0.343-3.046-1.274c-0.093-0.997-0.013-2.01-0.01-3.016
			c0.002-0.683,0.005-1.366,0.006-2.05c0-0.947-0.363-1.706-1.116-2.299c-0.616-0.484-0.924-1.136-0.718-1.921
			C72.861,16.658,73.469,16.308,74.321,16.243z"/>
		<path style="fill-rule:evenodd;clip-rule:evenodd;" d="M86.073,16.568c1.24-0.215,2.048,0.177,2.615,1.165
			c2.433-0.987,4.88-2.066,6.945,0.469c1.15-0.214,2.254-0.608,3.343-0.581c2.399,0.062,4.228,1.892,4.891,4.627
			c0.418,1.722,0.368,3.436-0.132,5.135c-0.184,0.628-1.307,1.569-1.99,1.421c-0.451-0.098-0.93-0.599-1.169-1.042
			c-0.854-1.592-0.708-3.273-0.175-4.929c0.396-1.231-0.022-1.889-1.323-1.89c-0.437,0-0.874,0.115-1.404,0.19
			c-0.675,1.688-0.958,3.445-0.794,5.276c0.049,0.527,0.137,0.994-0.486,1.332c-1.318,0.716-1.957,0.496-2.187-1.012
			c-0.169-1.108-0.124-2.248-0.177-3.374c-0.024-0.523,0.012-1.06-0.09-1.566c-0.151-0.742-0.289-1.55-1.232-1.749
			c-1.021-0.215-2.086,0.256-2.582,1.154c-0.657,1.189-0.511,2.499-0.537,3.782c-0.016,0.765-0.031,1.53-0.053,2.294
			c-0.019,0.635-0.484,0.874-0.978,0.811c-0.455-0.059-1.197-0.288-1.266-0.574c-0.732-3.002-1.832-5.954-1.542-9.125
			C85.804,17.792,85.957,17.208,86.073,16.568z"/>
		<path style="fill-rule:evenodd;clip-rule:evenodd;" d="M104.304,43.188c-1.007,0.126-1.554-0.49-2.103-1.076
			c-1.345-1.437-1.992-1.587-3.805-0.821c-3.514,1.487-4.674,6.502-1.764,9.723c0.143,0.157,0.42,0.286,0.626,0.275
			c1.321-0.071,2.666-0.057,3.952-0.32c1.22-0.249,2.02-1.112,2.195-2.467c-1.652-0.793-3.249,0.463-4.943,0.09
			c-0.131-0.73-0.262-1.456-0.414-2.299c1.985-0.218,3.816-0.453,5.654-0.601c0.545-0.044,1.11,0.141,1.662,0.249
			c0.625,0.122,0.955,0.506,1.041,1.156c0.19,1.438,0.459,2.865,0.621,4.305c0.125,1.113,0.137,2.239,0.207,3.507
			c-0.832,0.096-1.648,0.19-2.592,0.298c-0.11-0.787-0.201-1.446-0.314-2.263c-0.373,0.07-0.834,0.047-1.174,0.239
			c-1.492,0.841-3.047,0.808-4.563,0.254c-3.427-1.252-5.671-3.615-6.39-7.266c-0.252-1.278-0.032-2.52,0.717-3.588
			c1.82-2.595,4.35-3.947,7.52-3.881C102.918,38.754,104.572,40.716,104.304,43.188z"/>
		<path style="fill-rule:evenodd;clip-rule:evenodd;" d="M71.736,52.975c0.948-2.801,0.166-5.416-0.102-8.047
			c-0.103-1-0.196-2.013-0.151-3.013c0.03-0.666,0.223-1.36,0.499-1.971c0.676-1.5,1.571-1.883,3.185-1.604
			c2.57,0.444,5.041,1.183,7.192,2.685c0.871,0.608,1.681,1.405,2.284,2.278c1.128,1.633,1.269,3.448,0.43,5.289
			c-1.816,3.981-7.696,6.513-11.818,5.077C72.768,53.499,72.312,53.241,71.736,52.975z M74.737,51.296
			c2.522-0.163,4.758-0.79,6.685-2.348c1.787-1.447,1.77-4.545-0.441-5.896c-2.062-1.26-4.359-1.5-6.794-1.651
			C73.835,44.782,74.461,47.984,74.737,51.296z"/>
		<path style="fill-rule:evenodd;clip-rule:evenodd;" d="M35.154,37.929c-0.245,0.959-0.479,1.879-0.727,2.852
			c-2.236,0-4.354,0-6.635,0c0,0.978,0,1.785,0,2.759c0.913-0.063,1.702-0.12,2.491-0.173c1.145-0.077,1.493,0.16,1.634,1.11
			c0.189,1.276-0.041,1.647-1.237,1.854c-0.818,0.141-1.646,0.217-2.649,0.346c0.256,1.209,0.477,2.25,0.729,3.439
			c2.389-0.116,4.769-0.232,7.311-0.356c0,0.824,0.085,1.427-0.021,1.995c-0.142,0.768-0.554,1.22-1.495,1.219
			c-2.095-0.002-4.189,0.143-6.284,0.221c-0.439,0.017-0.879,0.002-1.443,0.002C26.042,48.116,24.907,43.123,25.38,38
			C28.293,36.896,33.233,36.833,35.154,37.929z"/>
		<path style="fill-rule:evenodd;clip-rule:evenodd;" d="M60.082,53.734c-0.371,0.176-0.621,0.305-0.878,0.414
			c-1.372,0.582-1.704,0.422-2.224-0.982c-0.363-0.982-0.728-1.969-1.18-2.911c-0.135-0.282-0.583-0.612-0.862-0.591
			c-1.285,0.098-2.572,0.256-3.837,0.498c-2.728,0.521-3.305,1.088-4.042,3.738c-1.445-0.346-1.837-1.024-1.218-2.239
			c2.14-4.199,4.303-8.387,6.462-12.576c0.128-0.25,0.266-0.518,0.468-0.701c0.403-0.367,0.846-0.409,0.978,0.232
			c0.626,3.03,2.314,5.563,3.783,8.199c1.064,1.909,2.007,3.866,2.446,6.027C60.033,53.112,60.043,53.392,60.082,53.734z
			 M50.583,47.654c1.385,0.103,2.553,0.173,3.738-0.341c-0.532-1.181-0.344-2.683-1.924-3.083
			C51.78,45.394,51.225,46.442,50.583,47.654z"/>
		<path style="fill-rule:evenodd;clip-rule:evenodd;" d="M125.368,38.468c1.786,0.926,2.409,2.429,2.52,4.137
			c0.101,1.564-0.035,3.143-0.022,4.714c0.013,1.604,0.056,3.209,0.132,4.812c0.057,1.192-0.147,1.691-0.937,2.002
			c-0.614,0.242-1.072,0.125-1.426-0.481c-0.576-0.988-0.434-2.021-0.276-3.063c0.174-1.153,0.39-2.308-0.238-3.379
			c-1.451,0.137-2.849,0.255-4.242,0.405c-1.249,0.134-1.349,0.232-1.39,1.492c-0.029,0.966,0.059,1.937,0.004,2.9
			c-0.054,0.946-0.486,1.249-1.407,1.155c-0.546-0.055-0.911-0.266-0.933-0.883c-0.044-1.209-0.152-2.418-0.154-3.627
			c-0.005-3.315-0.108-6.618-0.797-9.876c-0.024-0.109,0.021-0.232,0.032-0.341c1.701-0.538,2.962,0.37,2.934,2.057
			c-0.021,1.249,0.023,2.499,0.025,3.749c0.002,0.728,0.368,0.996,1.069,0.961c1.327-0.064,2.66-0.063,3.985-0.17
			c0.271-0.022,0.687-0.363,0.736-0.617c0.139-0.697,0.185-1.429,0.148-2.142C125.067,41.03,124.831,39.786,125.368,38.468z"/>
		<path style="fill-rule:evenodd;clip-rule:evenodd;" d="M141.699,41.701c0.239,1.33,0.446,2.484,0.672,3.743
			c1.265,0.595,2.668,0.002,4.008,0.045c0.087,0.096,0.166,0.145,0.185,0.21c0.761,2.707,0.76,2.695-2.008,2.717
			c-0.754,0.006-1.505,0.105-2.176,0.155c-0.109,0.206-0.178,0.275-0.179,0.345c-0.047,2.663,0.146,2.817,2.778,2.552
			c1.118-0.113,2.259-0.228,3.371-0.128c0.882,0.079,1.733,0.482,2.776,0.795c-0.99,1.298-2.14,1.666-3.384,1.774
			c-0.719,0.063-1.449-0.034-2.175-0.038c-1.558-0.008-3.116-0.002-4.8-0.002c-0.845-4.873-0.966-9.806-1.08-14.902
			c3.146-0.082,6.261-0.162,9.638-0.25c0.527,0.587,0.645,1.582,0.523,2.89c-1.343,0.13-2.685,0.346-4.029,0.365
			C144.508,41.992,143.192,41.809,141.699,41.701z"/>
		<path style="fill-rule:evenodd;clip-rule:evenodd;" d="M15.84,84.686c-2.189-2.951-0.961-5.978-1.118-9.19
			c-0.7,0.527-1.257,0.862-1.706,1.307c-0.426,0.42-0.725,0.966-1.104,1.438c-0.599,0.743-1.331,1.265-2.371,1.321
			c-0.483-0.684-0.277-1.39,0.096-1.925c0.614-0.882,1.354-1.687,2.103-2.463c0.978-1.013,2.042-1.942,3.015-2.959
			c0.366-0.383,0.62-0.439,0.995-0.087c0.515,0.482,0.865,0.919,0.858,1.771c-0.017,2.335,0.238,4.671,0.286,7.008
			c0.019,0.911-0.191,1.836-0.378,2.739C16.45,83.964,16.145,84.233,15.84,84.686z"/>
		<path style="fill-rule:evenodd;clip-rule:evenodd;fill:none;" d="M99.764,150.844c-6.976,0-14.06,0-21.135,0
			c-0.657-2.811-1.462-40.408-0.91-43.408c6.973-0.176,13.975-0.352,21.099-0.531C99.604,121.539,99.885,136.117,99.764,150.844z"/>
		<path style="fill-rule:evenodd;clip-rule:evenodd;fill:none;" d="M74.472,107.548c0.497,14.486,0.992,28.942,1.485,43.363
			c-1.345,0.335-20.574,0.427-21.713,0.11c0-1.738,0.028-3.51-0.005-5.28c-0.165-9.036-0.346-18.071-0.522-27.107
			c-0.06-3.103-0.17-6.205-0.166-9.307c0.002-1.402,0.152-1.541,1.556-1.577c3.103-0.08,6.208-0.053,9.313-0.092
			c3.146-0.04,6.29-0.106,9.436-0.158C74.01,107.498,74.165,107.523,74.472,107.548z"/>
		<path style="fill-rule:evenodd;clip-rule:evenodd;fill:none;" d="M122.62,196.645c-6.768,0.049-13.476,0.924-20.353,0.281
			c0-7.281,0-14.488,0-21.696c0-7.176,0-14.352,0-21.542c6.806-0.105,13.551-0.207,20.321-0.311
			C123.457,155.675,123.531,191.857,122.62,196.645z"/>
		<path style="fill-rule:evenodd;clip-rule:evenodd;fill:none;" d="M122.458,150.328c-6.678,0.601-13.18,1.036-19.868,0.596
			c-0.386-14.79-0.771-29.486-1.156-44.284c6.592-0.146,13.056-0.288,19.423-0.429C121.395,121.021,121.924,135.603,122.458,150.328
			z"/>
		<path style="fill-rule:evenodd;clip-rule:evenodd;fill:none;" d="M125.019,150.766c-0.894-14.979-1.885-29.624-1.407-44.519
			c6.382,0,12.647,0,19.07,0c0.052,14.52,1.643,29.109,0.82,43.933C137.319,150.375,131.247,150.568,125.019,150.766z"/>
		<path style="fill-rule:evenodd;clip-rule:evenodd;fill:none;" d="M124.933,196.618c0.106-14.421,0.212-28.69,0.318-43.142
			c6.045,0.25,12.188-0.862,18.428-0.647c0.062,0.412,0.132,0.681,0.139,0.952c0.191,7.3,0.343,14.603,0.574,21.901
			c0.11,3.492-0.419,6.918-0.825,10.361c-0.283,2.397-0.655,4.804,0.18,7.185c0.143,0.405,0.141,0.874,0.146,1.313
			c0.011,0.883-0.375,1.466-1.318,1.551c-1.363,0.122-2.727,0.322-4.092,0.34c-3.147,0.04-6.297-0.027-9.444-0.012
			C127.755,196.429,126.471,196.541,124.933,196.618z"/>
		<path style="fill-rule:evenodd;clip-rule:evenodd;fill:none;" d="M99.607,196.819c-6.826,0-13.658,0-20.53,0
			c-0.101-4.518-0.2-8.979-0.299-13.426c0.083-0.069,0.138-0.153,0.207-0.167c4.059-0.794,5.883-3.653,6.72-7.362
			c0.387-1.707,0.371-3.458-0.05-5.166c-0.914-3.703-3.018-6.189-7.081-6.605c0-3.245,0-6.442,0-9.763
			c6.992-0.184,13.989-0.365,20.97-0.547C100.435,156.325,100.479,192.936,99.607,196.819z"/>
		<path style="fill-rule:evenodd;clip-rule:evenodd;fill:none;" d="M32.437,107.752c6.086-0.782,12.087,0.33,18.195-0.303
			c1.217,14.5,0.533,28.903,0.797,43.457c-5.946,0.869-11.857-0.196-17.885,0.284C33.463,136.634,32.199,122.242,32.437,107.752z"/>
		<path style="fill-rule:evenodd;clip-rule:evenodd;fill:none;" d="M54.454,154.267c7.187,0.021,14.391,0.637,21.73-0.186
			c0,3.264,0,6.468,0,9.771c-1.077,0.634-2.319,1.295-3.486,2.067c-2.236,1.483-4.089,3.351-4.823,6.004
			c-1.353,4.896,0.544,10.824,7.407,11.761c0.318,0.044,0.635,0.087,1.195,0.164c-0.207,4.239-0.414,8.469-0.618,12.634
			c-6.918,0.179-13.715,0.354-20.433,0.527c-0.287-4.421-0.579-8.902-0.873-13.415c0.524-0.193,0.979-0.347,1.42-0.531
			c3.158-1.314,5.549-3.444,6.766-6.688c1.126-3.003,0.544-5.71-1.74-8.007c-1.449-1.458-3.232-2.391-5.096-3.185
			c-1.465-0.624-1.315-0.23-1.322-2.081c-0.01-2.782-0.144-5.562-0.22-8.345C54.359,154.646,54.403,154.531,54.454,154.267z
			 M65.459,164.012c-0.041,0.586-0.081,1.022-0.099,1.46c-0.018,0.442-0.045,0.89-0.014,1.329c0.086,1.186,0.565,1.542,2.008,1.384
			c0.078-1.438,0.158-2.906,0.24-4.416c0.485-0.115,0.914-0.206,1.337-0.319c0.829-0.222,0.936-0.437,0.594-1.176
			c-0.184-0.397-0.379-0.788-0.581-1.206c-0.418-0.028-0.848-0.055-1.437-0.092c0-0.697,0.021-1.332-0.007-1.964
			c-0.02-0.438-0.019-0.915-0.194-1.299c-0.121-0.262-0.515-0.51-0.812-0.542c-0.17-0.019-0.509,0.38-0.562,0.635
			c-0.114,0.546-0.078,1.122-0.132,1.683c-0.052,0.54-0.141,1.076-0.225,1.701c-0.552-0.096-0.932-0.162-1.32-0.229
			c-0.407-1.845,0.831-3.929-1.025-5.626c-0.294,0.524-0.578,0.913-0.743,1.345c-0.731,1.917-0.636,3.873-0.198,5.833
			c0.176,0.786,0.535,1.298,1.48,1.228C64.274,163.704,64.792,163.896,65.459,164.012z"/>
		<path style="fill-rule:evenodd;clip-rule:evenodd;fill:none;" d="M51.423,154.278c0.652,3.514,0.397,6.886,0.293,10.344
			c-2.536,0.364-4.71,1.297-6.208,3.414c-1.314,1.857-1.757,3.947-1.687,6.186c0.16,5.129,2.848,8.348,8.196,9.694
			c0,4.355,0,8.738,0,13.3c-5.946,0.229-11.843,0.506-17.804,0.321c-0.048-0.333-0.105-0.562-0.111-0.791
			c-0.223-8.671-0.473-17.342-0.645-26.014c-0.084-4.275-0.048-8.553-0.012-12.828c0.011-1.321,0.2-2.642,0.308-3.959
			C39.668,154.056,45.487,154.166,51.423,154.278z M37.184,163.579c0.562,1.072,1.566,0.816,2.465,0.869
			c1.11,0.065,1.3,0.312,1.147,1.457c-0.144,1.083-0.516,1.417-1.495,1.188c-0.579-0.137-1.108-0.47-1.679-0.657
			c-0.503-0.163-1.053-0.507-1.543,0.103c0.138,1.294,0.751,2.227,2.033,2.56c1.744,0.451,3.281-0.025,4.526-1.306
			c1.518-1.562,0.041-2.855-0.38-3.945c0.692-0.946,1.482-1.656,1.794-2.535c0.527-1.484-0.491-3.216-2.106-4.057
			c-1.534-0.8-3.415-0.55-4.446,0.619c-0.163,0.185-0.32,0.496-0.284,0.715c0.112,0.658,1.312,1.309,1.962,1.091
			c0.791-0.266,1.569-0.57,2.327-0.85c0.856,1.196,0.776,1.858-0.369,2.502c-0.658,0.37-1.413,0.567-2.126,0.838
			C38.258,162.456,37.486,162.715,37.184,163.579z"/>
		<path style="fill-rule:evenodd;clip-rule:evenodd;fill:none;" d="M74.887,66.046c0,3.058,0,6.105,0,9.319
			c-6.937,0-13.969,0-21.083,0c0-2.861,0-5.667,0-8.707c1.319-0.127,2.66-0.338,4.005-0.371c4.679-0.114,9.359-0.168,14.039-0.239
			C72.77,66.034,73.693,66.046,74.887,66.046z"/>
		<path style="fill-rule:evenodd;clip-rule:evenodd;fill:none;" d="M77.376,104.804c0-3.007,0-5.858,0-8.827
			c7.003-0.849,14.042,0.202,21.163-0.356c0.646,3.096,0.655,6.094-0.191,9.183C91.371,104.804,84.42,104.804,77.376,104.804z"/>
		<path style="fill-rule:evenodd;clip-rule:evenodd;fill:none;" d="M53.545,104.644c0-3.055,0-5.942,0-8.921
			c7.053,0,14.079,0,21.189,0c0,2.938,0,5.822,0,8.865C67.648,104.946,60.632,105.047,53.545,104.644z"/>
		<path style="fill-rule:evenodd;clip-rule:evenodd;fill:none;" d="M98.359,65.885c0,2.92,0,5.689,0,8.647
			c-6.914,0.18-13.779,0.358-20.749,0.539c-0.385-3.058-0.55-6.046-0.284-9.187C84.431,65.885,91.457,65.885,98.359,65.885z"/>
		<path style="fill-rule:evenodd;clip-rule:evenodd;fill:none;" d="M101,74.544c0-2.116-0.098-4.057,0.021-5.984
			c0.203-3.242,0.131-2.813,2.964-2.912c2.899-0.1,5.808,0.125,8.713,0.161c2.738,0.034,5.479,0.007,8.379,0.007
			c0.657,2.821,0.328,5.821,0.281,8.728C114.509,74.544,107.76,74.544,101,74.544z"/>
		<path style="fill-rule:evenodd;clip-rule:evenodd;fill:none;" d="M32.429,74.973c0.087-2.888,0.176-5.816,0.271-8.933
			c6.156,0.116,12.224,0.23,18.375,0.346c0,3.153,0,6.155,0,9.152C49.633,76.026,34.104,75.634,32.429,74.973z"/>
		<path style="fill-rule:evenodd;clip-rule:evenodd;fill:none;" d="M143.213,65.742c-0.235,3.074,0.712,5.924-0.32,8.857
			c-6.248,0-12.487,0-18.9,0c0.122-3.04,0.24-5.953,0.358-8.857C130.697,65.742,136.849,65.742,143.213,65.742z"/>
		<path style="fill-rule:evenodd;clip-rule:evenodd;fill:none;" d="M101.617,104.319c-0.138-2.653-0.283-5.456-0.435-8.391
			c6.722-0.572,13.344-0.345,19.956-0.292c0,2.908,0,5.676,0,8.684C114.633,104.319,108.221,104.319,101.617,104.319z"/>
		<path style="fill-rule:evenodd;clip-rule:evenodd;fill:none;" d="M123.838,104.263c-0.646-2.996,0.004-5.877-0.226-8.883
			c6.576,0.485,12.991,0.136,19.613-0.589c-0.113,3.103-0.224,6.093-0.34,9.252C136.599,104.034,130.29,103.259,123.838,104.263z"/>
		<path style="fill-rule:evenodd;clip-rule:evenodd;fill:none;" d="M32.257,104.604c0.169-2.966,0.329-5.766,0.496-8.676
			c6.059,0.289,12.029-0.644,18.189-0.236c0,2.977,0,5.861,0,8.888C44.81,104.937,38.579,104.923,32.257,104.604z"/>
		<path style="fill-rule:evenodd;clip-rule:evenodd;fill:none;" d="M74.737,51.296c-0.276-3.312-0.902-6.515-0.55-9.895
			c2.435,0.152,4.733,0.392,6.794,1.651c2.21,1.351,2.228,4.449,0.441,5.896C79.495,50.507,77.259,51.133,74.737,51.296z"/>
		<path style="fill-rule:evenodd;clip-rule:evenodd;fill:none;" d="M50.583,47.654c0.642-1.212,1.197-2.261,1.813-3.424
			c1.58,0.4,1.392,1.901,1.924,3.083C53.136,47.828,51.968,47.757,50.583,47.654z"/>
		<path style="fill-rule:evenodd;clip-rule:evenodd;" d="M65.459,164.012c-0.667-0.115-1.186-0.308-1.686-0.271
			c-0.946,0.07-1.305-0.441-1.48-1.228c-0.438-1.96-0.534-3.916,0.198-5.833c0.165-0.432,0.449-0.82,0.743-1.345
			c1.855,1.697,0.618,3.781,1.025,5.626c0.388,0.066,0.768,0.133,1.32,0.229c0.084-0.625,0.173-1.161,0.225-1.701
			c0.054-0.561,0.018-1.137,0.132-1.683c0.053-0.255,0.392-0.653,0.562-0.635c0.296,0.032,0.691,0.28,0.812,0.542
			c0.175,0.384,0.174,0.86,0.194,1.299c0.028,0.632,0.007,1.267,0.007,1.964c0.589,0.037,1.018,0.063,1.437,0.092
			c0.202,0.418,0.397,0.809,0.581,1.206c0.342,0.739,0.235,0.954-0.594,1.176c-0.423,0.113-0.852,0.204-1.337,0.319
			c-0.082,1.51-0.162,2.979-0.24,4.416c-1.443,0.158-1.922-0.198-2.008-1.384c-0.031-0.439-0.004-0.887,0.014-1.329
			C65.378,165.034,65.419,164.598,65.459,164.012z"/>
		<path style="fill-rule:evenodd;clip-rule:evenodd;" d="M37.184,163.579c0.302-0.864,1.074-1.123,1.827-1.409
			c0.713-0.271,1.468-0.468,2.126-0.838c1.145-0.644,1.225-1.306,0.369-2.502c-0.758,0.279-1.536,0.584-2.327,0.85
			c-0.649,0.218-1.85-0.433-1.962-1.091c-0.036-0.219,0.121-0.53,0.284-0.715c1.031-1.169,2.912-1.419,4.446-0.619
			c1.615,0.841,2.633,2.572,2.106,4.057c-0.312,0.879-1.102,1.589-1.794,2.535c0.421,1.09,1.898,2.384,0.38,3.945
			c-1.245,1.28-2.782,1.757-4.526,1.306c-1.282-0.333-1.896-1.266-2.033-2.56c0.491-0.609,1.04-0.266,1.543-0.103
			c0.57,0.188,1.1,0.521,1.679,0.657c0.979,0.229,1.351-0.104,1.495-1.188c0.153-1.146-0.037-1.392-1.147-1.457
			C38.75,164.396,37.746,164.651,37.184,163.579z"/>
	</g>
</g>
<g id="Layer_1">
</g>
</svg>
