<?xml version="1.0" encoding="iso-8859-1"?>
<!-- Generator: Adobe Illustrator 16.0.0, SVG Export Plug-In . SVG Version: 6.00 Build 0)  -->
<!DOCTYPE svg PUBLIC "-//W3C//DTD SVG 1.1//EN" "http://www.w3.org/Graphics/SVG/1.1/DTD/svg11.dtd">
<svg version="1.1" xmlns="http://www.w3.org/2000/svg" xmlns:xlink="http://www.w3.org/1999/xlink" x="0px" y="0px"
	 width="177.771px" height="235.5px" viewBox="0 0 177.771 235.5" style="enable-background:new 0 0 177.771 235.5;"
	 xml:space="preserve">
<g id="Em">
	<g id="Em_1_">
		<path style="fill:none;" d="M177.771,235.5c-59.258,0-118.514,0-177.771,0C0,154.711,0,73.92,0-6.87c59.256,0,118.513,0,177.771,0
			C177.771,73.92,177.771,154.71,177.771,235.5z M22.533,104.856c0.552,1.202,1.479,1.821,2.737,1.912
			c0.845,0.062,1.7-0.021,2.547,0.02c0.828,0.041,1.653,0.157,2.504,0.242c0.037,0.394,0.074,0.63,0.078,0.866
			c0.123,7.039,0.305,14.077,0.344,21.116c0.034,6.351-0.082,12.702-0.151,19.053c-0.012,1.116-0.118,2.23-0.193,3.561
			c-1.917-0.176-3.675-0.387-5.438-0.478c-0.786-0.041-1.611,0.063-2.364,0.284c-0.393,0.117-0.668,0.631-0.997,0.965
			c0.363,0.336,0.691,0.905,1.095,0.965c1.142,0.166,2.317,0.2,3.474,0.146c1.493-0.068,2.98-0.275,4.576,0.306
			c0.047,0.837,0.169,1.716,0.136,2.59c-0.132,3.395-0.433,6.785-0.455,10.18c-0.064,10.158-0.027,20.315-0.034,30.475
			c0,0.305-0.064,0.608-0.103,0.957c-2.705,0.118-5.318,0.232-7.988,0.35c0,0.334-0.031,0.574,0.005,0.804
			c0.255,1.661,0.945,2.092,2.553,1.845c1.583-0.245,3.185-0.376,4.784-0.485c0.619-0.043,0.997,0.249,1.022,1.021
			c0.116,3.679,0.3,7.355,0.462,11.032c0.054,1.231,0.117,2.464,0.176,3.722c1.88-0.49,2.458-1.177,2.439-2.823
			c-0.009-0.85-0.047-1.698-0.102-2.546c-0.22-3.434-0.144-6.853,0.431-10.377c6.014,0.109,11.961-0.684,18.054-0.211
			c0,0.516,0.004,0.951-0.001,1.389c-0.053,4.366-0.083,8.734-0.186,13.101c-0.019,0.774,0.237,1.119,0.935,1.256
			c0.382,0.075,0.759,0.176,1.263,0.295c0.632-5.504-0.325-10.922,0.299-16.163c7.201,0,14.269,0,21.292,0
			c0.098,0.273,0.173,0.386,0.172,0.497c-0.025,3.639-0.056,7.277-0.09,10.915c-0.005,0.605-0.128,1.229-0.017,1.812
			c0.07,0.367,0.413,0.808,0.749,0.959c0.224,0.1,0.788-0.163,0.959-0.424c0.394-0.593,0.864-1.269,0.906-1.937
			c0.147-2.371,0.163-4.754,0.163-7.132c0-1.636-0.206-3.282,0.445-4.794c7.137,0,14.161,0,21.096,0
			c-0.098,3.028-0.163,5.978-0.301,8.922c-0.079,1.693-0.249,3.383-0.429,5.067c-0.104,0.979,0.103,1.317,1.096,1.474
			c1.503,0.236,1.814-0.016,1.847-1.502c0.006-0.242,0.006-0.486,0.002-0.729c-0.03-3.195-0.106-6.393-0.07-9.589
			c0.014-1.225,0.287-2.447,0.448-3.719c6.776,0,13.346,0,19.811,0c0.17,1.375,0.229,2.591,0.485,3.766
			c0.352,1.615,0.308,3.189,0.016,4.804c-0.217,1.184-0.341,2.398-0.363,3.603c-0.019,0.996,0.455,1.839,1.414,2.528
			c0.271-0.673,0.538-1.252,0.736-1.854c0.826-2.507,0.407-5.036,0.146-7.568c-0.181-1.748-0.341-3.508,0.171-5.296
			c6.385,0.181,12.684-0.291,19.046,0.288c0,1.345-0.031,2.554,0.007,3.761c0.1,3.107,0.62,6.205,0.117,9.325
			c-0.094,0.588-0.068,1.221,0.033,1.81c0.122,0.705,0.67,0.952,1.356,0.938c0.709-0.015,0.704-0.561,0.751-1.029
			c0.103-1.004,0.263-2.015,0.227-3.018c-0.08-2.222-0.306-4.438-0.398-6.661c-0.073-1.806,0.08-3.604,0.477-5.254
			c3.366,0,6.578,0,9.799,0c-0.344-2.866-0.043-2.654-2.646-3.295c-1.005-0.247-2.083-0.189-3.129-0.263
			c-0.846-0.06-1.699-0.053-2.535-0.172c-1.281-0.185-1.285-0.221-1.275-1.521c0.054-6.635,0.097-13.271,0.175-19.905
			c0.074-6.433,0.184-12.865,0.286-19.298c0.018-0.993,0.082-1.987,0.13-3.09c1.194,0.156,2.226,0.344,3.264,0.413
			c1.125,0.073,2.274,0.164,3.382,0.013c1.339-0.183,1.43-0.652,0.76-1.788c-0.443-0.75-0.999-0.963-1.799-0.837
			c-0.679,0.105-1.361,0.194-2.045,0.24c-1.35,0.091-2.711,0.451-4.129-0.103c-0.154-14.832-0.578-29.654,0.561-44.666
			c1.188,0.093,2.218,0.201,3.25,0.248c1.604,0.072,3.21,0.159,4.813,0.124c0.673-0.015,1.256-0.433,1.613-1.155
			c-1.719-1.265-3.579-1.517-5.567-1.41c-1.511,0.081-3.029,0.016-4.629,0.016c0-1.007-0.003-1.972,0.001-2.937
			c0.051-11.087,0.099-22.173,0.153-33.26c0.003-0.589,0.064-1.179,0.105-1.902c3.832,0,7.539,0,11.278,0
			c0.099-0.278,0.247-0.499,0.244-0.718c-0.03-1.813-0.046-3.629-0.15-5.439c-0.088-1.51-0.3-1.338-1.575-1.346
			c-7.12-0.046-14.241-0.11-21.36-0.106c-11.047,0.006-22.093,0.028-33.139,0.108c-7.524,0.054-15.049,0.311-22.574,0.312
			c-14.447,0.002-28.894-0.106-43.34-0.183c-3.966-0.021-7.931-0.09-11.896-0.133c-0.995-0.011-1.989-0.001-3.219-0.001
			c0.138,2.255,0.242,4.301,0.399,6.343c0.06,0.783,0.554,1.24,1.354,1.271c0.807,0.031,1.615,0.021,2.423,0.022
			c1.522,0.003,3.044,0.001,4.717,0.001c0.648,13.033,1.281,25.843-0.767,38.651c-0.636,0-1.081,0.046-1.513-0.009
			c-1-0.126-1.993-0.317-2.993-0.452C24.169,103.823,23.229,103.888,22.533,104.856z M67.994,20.586
			c0-0.411-0.005-0.689,0.001-0.966c0.042-1.919,0.042-1.939,1.947-1.94c2.224-0.001,4.448,0.057,6.672,0.053
			c1-0.001,1.306-0.482,0.92-1.391c-0.434-1.023-1.067-1.785-2.343-1.689c-0.519,0.04-1.048-0.064-1.572-0.065
			c-2.66-0.008-5.321-0.003-7.894-0.003c-1.592,4.781-1.768,14.116,0.132,16.949c1.316-0.112,2.552-0.26,3.791-0.312
			c1.252-0.052,2.508,0.012,3.762-0.018c0.643-0.015,1.289-0.094,1.924-0.2c0.749-0.124,1.272-0.542,1.333-1.346
			c0.063-0.83-0.343-1.386-1.127-1.653c-0.227-0.078-0.466-0.154-0.702-0.166c-1.693-0.081-3.387-0.135-5.081-0.219
			c-0.58-0.029-1.158-0.117-1.718-0.175c0.079-1.176,0.146-2.165,0.221-3.275c0.805,0,1.529,0.044,2.246-0.009
			c1.486-0.111,2.971-0.25,4.45-0.43c0.494-0.06,1.096-0.116,1.125-0.851c0.027-0.72-0.077-1.437-0.788-1.77
			c-0.492-0.231-1.079-0.347-1.627-0.357c-1.292-0.026-2.587,0.069-3.88,0.059C69.201,20.808,68.618,20.669,67.994,20.586z
			 M97.733,32.624c0.462-0.669,0.95-1.214,1.254-1.847c1.267-2.639,0.521-6.629-1.569-8.681c-1.857-1.82-4.387-1.787-6.182,0.082
			c-0.876,0.91-1.113,0.91-2.073,0.005c-0.353-0.333-0.716-0.655-1.065-0.993c-0.674-0.652-1.472-0.805-2.355-0.588
			c-0.43,0.105-0.852,0.247-1.274,0.384c-0.939,0.307-1.817,0.53-2.732-0.213c-0.59-0.48-0.994-0.202-1.108,0.597
			c-0.062,0.44-0.119,0.883-0.155,1.325c-0.185,2.277-0.101,4.534,0.733,6.689c0.444,1.147,1.121,2.125,2.601,2.341
			c0.084-0.489,0.193-0.914,0.225-1.345c0.091-1.29,0.071-2.593,0.255-3.868c0.111-0.769,0.391-1.581,0.825-2.216
			c0.587-0.859,1.404-0.827,1.963,0.051c0.469,0.735,0.791,1.583,1.065,2.418c0.376,1.145,0.619,2.334,0.98,3.485
			c0.092,0.294,0.37,0.671,0.637,0.746c1.189,0.333,2.195-0.45,2.25-1.671c0.018-0.404,0-0.812,0.051-1.212
			c0.209-1.662,0.703-3.147,2.366-3.963c0.65-0.319,1.136-0.211,1.385,0.42c0.274,0.7,0.52,1.443,0.587,2.185
			c0.098,1.083,0.001,2.183,0.033,3.274C96.459,30.979,96.67,31.873,97.733,32.624z M105.353,42.83
			c0.094-2.246-0.981-3.762-3.019-4.293c-2.473-0.646-4.645,0.15-6.604,1.567c-1.763,1.276-2.888,3.01-2.65,5.273
			c0.292,2.772,1.546,5.123,3.79,6.798c2.217,1.652,4.641,2.429,7.325,0.991c0.33-0.176,0.71-0.255,1.133-0.402
			c0.157,0.856,0.284,1.555,0.429,2.352c0.872-0.066,1.686-0.127,2.447-0.185c-0.156-2.165-0.275-4.134-0.453-6.098
			c-0.062-0.678-0.302-1.339-0.396-2.016c-0.117-0.839-0.659-1.115-1.401-1.215c-2.376-0.322-4.623,0.248-6.853,0.87
			c0.09,2.064,0.432,2.355,2.267,2.005c0.938-0.18,1.876-0.45,2.835,0.086c-0.165,1.199-0.83,1.944-1.877,2.354
			c-1.576,0.617-3.175,0.531-4.742-0.015c-0.342-0.118-0.713-0.435-0.867-0.758c-1.262-2.623-1.094-5.172,0.599-7.558
			c1.536-2.167,4.425-2.316,5.847-0.543C103.654,42.659,104.355,43.151,105.353,42.83z M72.592,53.274
			c0.318,0.137,0.529,0.251,0.754,0.322c3.565,1.109,10.114-1.013,12.332-4.011c0.663-0.896,1.023-1.906,1.017-3.045
			c-0.013-2.387-1.376-3.993-3.129-5.324c-2.256-1.712-4.851-2.692-7.611-3.266c-1.515-0.315-2.268-0.03-2.977,1.342
			c-0.308,0.596-0.572,1.292-0.584,1.947c-0.033,1.73,0.021,3.468,0.154,5.193C72.722,48.681,73.153,50.918,72.592,53.274z
			 M27.247,52.878c3.207-0.022,6.307,0.101,9.326-0.722c0-0.872,0-1.659,0-2.429c-2.382,0-4.673,0-7.04,0
			c-0.203-0.572-0.468-1.161-0.621-1.779c-0.403-1.638-0.224-1.848,1.436-1.887c0.443-0.01,0.9,0.01,1.323-0.095
			c0.281-0.07,0.632-0.281,0.745-0.525c0.677-1.452-0.068-2.547-1.684-2.545c-0.753,0-1.505,0-2.337,0c0-0.851,0-1.598,0-2.581
			c2.272,0,4.509,0,6.719,0c0.231-1.114,0.418-2.014,0.6-2.892c-1.837-1.341-6.898-1.132-9.735,0.402
			C25.662,42.828,27.001,47.728,27.247,52.878z M47.741,53.881c0.124-0.029,0.248-0.057,0.372-0.084
			c0.241-0.755,0.467-1.514,0.725-2.263c0.389-1.132,0.838-1.449,2.015-1.539c1.167-0.09,2.332-0.198,3.494-0.328
			c2.305-0.257,2.287-0.26,2.982,2.022c0.209,0.687,0.461,1.388,0.845,1.985c0.453,0.704,1.487,0.836,2.178,0.431
			c0.771-0.452,0.535-1.141,0.303-1.709c-1.005-2.458-1.633-5.075-3.12-7.333c-0.666-1.01-1.314-2.048-1.817-3.144
			c-0.479-1.046-0.754-2.185-1.13-3.279c-0.097-0.284-0.232-0.556-0.46-1.095c-0.558,0.518-1.105,0.82-1.344,1.281
			c-1.693,3.26-3.333,6.548-4.967,9.839c-0.605,1.218-1.149,2.468-1.735,3.733C46.687,52.939,47.214,53.41,47.741,53.881z
			 M141.549,54.132c2.688,0,5.19,0.037,7.691-0.024c0.658-0.016,1.36-0.23,1.946-0.539c0.888-0.465,0.894-1.356-0.013-1.748
			c-0.71-0.307-1.553-0.431-2.334-0.422c-1.37,0.016-2.736,0.189-4.104,0.307c-0.567,0.049-1.013-0.026-1.224-0.676
			c-0.249-0.768-0.68-1.521-0.122-2.294c0.124-0.173,0.496-0.227,0.755-0.23c0.686-0.009,1.373,0.039,2.06,0.064
			c1.63,0.059,1.906-0.246,1.697-1.863c-0.144-1.108-0.375-1.272-1.458-1.168c-1.103,0.105-2.22,0.23-3.199-0.103
			c-0.111-1.305-0.208-2.424-0.306-3.583c0.795,0,1.359-0.029,1.919,0.006c1.208,0.076,2.419,0.295,3.622,0.257
			c2.369-0.074,2.746-0.619,2.232-2.867c-0.033-0.148-0.128-0.284-0.263-0.573c-3.181,0.101-6.391,0.202-9.845,0.312
			C140.922,44.087,141.226,48.954,141.549,54.132z M126.353,47.137c-0.066,1.295-0.124,2.368-0.177,3.44
			c-0.038,0.805-0.164,1.622-0.078,2.414c0.116,1.073,0.737,1.508,1.602,1.312c0.956-0.216,1.501-1.118,1.266-2.026
			c-0.132-0.505-0.268-1.027-0.269-1.543c-0.005-1.896,0.093-3.793,0.06-5.688c-0.022-1.244-0.066-2.518-0.353-3.719
			c-0.289-1.225-1.024-2.243-2.587-2.683c0,2.124,0,4.113,0,6.167c-1.578,0.107-2.979,0.254-4.384,0.283
			c-1.35,0.027-1.458-0.124-1.468-1.437c-0.01-1.294,0.013-2.589-0.003-3.882c-0.005-0.262-0.031-0.668-0.188-0.758
			c-0.738-0.42-1.432-1.034-2.4-0.936c-0.026,0.207-0.061,0.323-0.056,0.438c0.147,3.188,0.291,6.375,0.454,9.562
			c0.072,1.412,0.172,2.823,0.283,4.232c0.038,0.455,0.15,0.886,0.77,0.893c0.545,0.004,1.1,0.026,1.255-0.648
			c0.152-0.662,0.302-1.335,0.333-2.008c0.029-0.6-0.099-1.208-0.17-1.811c-0.065-0.573,0.108-0.928,0.745-0.995
			C122.701,47.564,124.41,47.359,126.353,47.137z"/>
		<path style="fill-rule:evenodd;clip-rule:evenodd;" d="M22.533,104.856c0.697-0.968,1.636-1.033,2.628-0.898
			c1,0.135,1.993,0.326,2.993,0.452c0.433,0.055,0.877,0.009,1.513,0.009c2.047-12.809,1.415-25.618,0.767-38.651
			c-1.672,0-3.195,0.002-4.717-0.001c-0.808-0.001-1.616,0.009-2.423-0.022c-0.801-0.031-1.295-0.488-1.354-1.271
			c-0.157-2.042-0.261-4.088-0.399-6.343c1.229,0,2.224-0.009,3.219,0.001c3.965,0.042,7.931,0.112,11.896,0.133
			c14.447,0.076,28.894,0.185,43.34,0.183c7.525-0.001,15.049-0.258,22.574-0.312c11.046-0.08,22.092-0.102,33.139-0.108
			c7.119-0.004,14.24,0.061,21.36,0.106c1.275,0.008,1.487-0.165,1.575,1.346c0.104,1.81,0.12,3.625,0.15,5.439
			c0.003,0.219-0.146,0.44-0.244,0.718c-3.739,0-7.446,0-11.278,0c-0.041,0.723-0.103,1.312-0.105,1.902
			c-0.055,11.086-0.103,22.173-0.153,33.26c-0.004,0.964-0.001,1.929-0.001,2.937c1.6,0,3.118,0.065,4.629-0.016
			c1.988-0.107,3.849,0.145,5.567,1.41c-0.357,0.722-0.94,1.14-1.613,1.155c-1.604,0.036-3.209-0.051-4.813-0.124
			c-1.032-0.047-2.062-0.155-3.25-0.248c-1.139,15.012-0.715,29.834-0.561,44.666c1.418,0.554,2.779,0.193,4.129,0.103
			c0.684-0.046,1.366-0.135,2.045-0.24c0.8-0.126,1.355,0.087,1.799,0.837c0.67,1.136,0.579,1.605-0.76,1.788
			c-1.107,0.151-2.257,0.061-3.382-0.013c-1.038-0.069-2.069-0.257-3.264-0.413c-0.048,1.103-0.112,2.097-0.13,3.09
			c-0.103,6.433-0.212,12.865-0.286,19.298c-0.078,6.635-0.121,13.271-0.175,19.905c-0.01,1.3-0.006,1.336,1.275,1.521
			c0.836,0.119,1.689,0.112,2.535,0.172c1.046,0.073,2.124,0.016,3.129,0.263c2.604,0.641,2.303,0.429,2.646,3.295
			c-3.221,0-6.433,0-9.799,0c-0.396,1.649-0.55,3.448-0.477,5.254c0.093,2.223,0.318,4.439,0.398,6.661
			c0.036,1.003-0.124,2.014-0.227,3.018c-0.047,0.469-0.042,1.015-0.751,1.029c-0.687,0.015-1.234-0.232-1.356-0.938
			c-0.102-0.589-0.127-1.222-0.033-1.81c0.503-3.12-0.018-6.218-0.117-9.325c-0.038-1.207-0.007-2.416-0.007-3.761
			c-6.362-0.579-12.661-0.107-19.046-0.288c-0.512,1.788-0.352,3.548-0.171,5.296c0.262,2.532,0.681,5.062-0.146,7.568
			c-0.198,0.603-0.466,1.182-0.736,1.854c-0.959-0.689-1.433-1.532-1.414-2.528c0.022-1.204,0.146-2.419,0.363-3.603
			c0.292-1.614,0.336-3.188-0.016-4.804c-0.257-1.175-0.315-2.391-0.485-3.766c-6.465,0-13.034,0-19.811,0
			c-0.161,1.271-0.435,2.494-0.448,3.719c-0.036,3.196,0.04,6.394,0.07,9.589c0.004,0.243,0.004,0.487-0.002,0.729
			c-0.032,1.486-0.344,1.738-1.847,1.502c-0.993-0.156-1.2-0.494-1.096-1.474c0.18-1.685,0.35-3.374,0.429-5.067
			c0.138-2.944,0.203-5.894,0.301-8.922c-6.936,0-13.959,0-21.096,0c-0.651,1.512-0.445,3.158-0.445,4.794
			c0,2.378-0.015,4.761-0.163,7.132c-0.042,0.668-0.512,1.344-0.906,1.937c-0.172,0.261-0.736,0.523-0.959,0.424
			c-0.336-0.151-0.679-0.592-0.749-0.959c-0.111-0.582,0.012-1.206,0.017-1.812c0.035-3.638,0.065-7.276,0.09-10.915
			c0.001-0.111-0.075-0.224-0.172-0.497c-7.023,0-14.09,0-21.292,0c-0.624,5.241,0.333,10.659-0.299,16.163
			c-0.504-0.119-0.881-0.22-1.263-0.295c-0.698-0.137-0.954-0.481-0.935-1.256c0.103-4.366,0.132-8.734,0.186-13.101
			c0.005-0.438,0.001-0.873,0.001-1.389c-6.093-0.473-12.04,0.32-18.054,0.211c-0.575,3.524-0.65,6.943-0.431,10.377
			c0.055,0.848,0.092,1.696,0.102,2.546c0.019,1.646-0.559,2.333-2.439,2.823c-0.06-1.258-0.122-2.49-0.176-3.722
			c-0.163-3.677-0.346-7.354-0.462-11.032c-0.025-0.771-0.403-1.063-1.022-1.021c-1.599,0.109-3.202,0.24-4.784,0.485
			c-1.608,0.247-2.298-0.184-2.553-1.845c-0.036-0.229-0.005-0.47-0.005-0.804c2.67-0.117,5.283-0.231,7.988-0.35
			c0.039-0.349,0.102-0.652,0.103-0.957c0.007-10.159-0.03-20.316,0.034-30.475c0.022-3.395,0.323-6.785,0.455-10.18
			c0.034-0.874-0.088-1.753-0.136-2.59c-1.596-0.581-3.083-0.374-4.576-0.306c-1.156,0.054-2.332,0.02-3.474-0.146
			c-0.404-0.06-0.732-0.629-1.095-0.965c0.329-0.334,0.604-0.848,0.997-0.965c0.753-0.221,1.578-0.325,2.364-0.284
			c1.763,0.091,3.522,0.302,5.438,0.478c0.075-1.33,0.181-2.444,0.193-3.561c0.069-6.351,0.185-12.702,0.151-19.053
			c-0.039-7.039-0.221-14.077-0.344-21.116c-0.004-0.236-0.041-0.472-0.078-0.866c-0.851-0.085-1.676-0.201-2.504-0.242
			c-0.847-0.042-1.703,0.042-2.547-0.02C24.011,106.677,23.084,106.058,22.533,104.856z M78.683,154.45c0,0.776,0.001,1.459,0,2.141
			c-0.005,2.736,0.566,5.483-0.199,8.204c-0.062,0.218,0.039,0.479,0.053,0.721c0.128,2.342,0.35,4.681,0.364,7.022
			c0.041,6.549-0.006,13.098-0.017,19.645c-0.003,1.644,0,3.286,0,5.021c7.247,0.661,14.261-0.494,21.383,0.291
			c0.257-14.521,0.812-28.835,0.224-43.338C93.212,154.254,86.036,154.352,78.683,154.45z M54.22,197.533
			c7.308-0.184,14.517-0.365,21.88-0.551c0.208-4.74,0.544-9.461,0.594-14.186c0.084-7.97-0.016-15.941-0.031-23.912
			c-0.002-1.172,0.019-2.346,0.069-3.518c0.035-0.807-0.314-1.094-1.094-1.014c-1.086,0.11-2.176,0.25-3.265,0.253
			c-5.095,0.016-10.191-0.011-15.288-0.022c-0.678-0.002-1.356,0-2.111,0c-0.038,0.504-0.093,0.897-0.092,1.291
			c0.001,6.393,0.042,12.785,0.007,19.177c-0.031,5.539-0.115,11.077-0.242,16.616C54.603,193.637,54.366,195.602,54.22,197.533z
			 M123.015,197.43c0.698-14.521,0.641-28.931,0.474-43.568c-6.917,0.112-13.727,0.225-20.578,0.336
			c-0.172,14.397-0.343,28.776-0.516,43.278C109.375,198.214,116.135,197.287,123.015,197.43z M100.42,151.408
			c0.125-0.959,0.374-1.913,0.354-2.861c-0.104-4.77-0.305-9.535-0.416-14.304c-0.207-8.813-0.374-17.627-0.561-26.441
			c-0.008-0.349-0.052-0.698-0.082-1.095c-7.274,0.174-14.455,0.348-21.825,0.525c0.087,8.083,0.173,16.065,0.258,24
			c4.668,1.151,6.91,3.519,7.108,7.276c0.113,2.162-0.253,4.188-1.484,6.002c-1.19,1.754-2.876,2.773-5.007,3.192
			c0,1.245,0,2.439,0,3.706C85.925,151.408,93.031,151.408,100.42,151.408z M103.029,151.488c6.793,0.439,13.351,0.302,19.924-0.545
			c0.033-0.398,0.083-0.676,0.073-0.95c-0.205-6.143-0.465-12.283-0.618-18.427c-0.205-8.167-0.326-16.336-0.488-24.505
			c-0.006-0.27-0.047-0.539-0.085-0.94c-6.626,0.149-13.19,0.065-19.675,0.556C102.451,121.671,102.738,136.496,103.029,151.488z
			 M144.209,150.964c0.105-1.851,0.294-3.534,0.283-5.218c-0.043-6.187-0.131-12.373-0.244-18.558
			c-0.114-6.183-0.283-12.366-0.423-18.549c-0.019-0.789-0.002-1.58-0.002-2.418c-0.268-0.029-0.463-0.068-0.657-0.069
			c-4.732-0.026-9.465-0.075-14.196-0.051c-1.244,0.006-2.485,0.291-3.733,0.361c-0.871,0.049-1.053,0.489-1.053,1.253
			c0.002,5.621-0.148,11.245-0.007,16.862c0.187,7.394,0.591,14.782,0.913,22.173c0.063,1.48,0.182,2.959,0.274,4.433
			C131.67,152.041,137.819,150.569,144.209,150.964z M77.614,65.689c0.819,13.024,0.606,25.931,0.049,38.861
			c7.377,0,14.557,0,21.819,0c0.963-12.896-0.425-25.691-0.037-38.604C92.197,65.251,85.016,65.879,77.614,65.689z M125.287,153.98
			c0.832,14.588-0.516,28.955-0.184,43.38c1.576-0.087,3.057-0.227,4.539-0.238c3.436-0.027,6.872,0.041,10.308,0.004
			c1.531-0.017,3.023-0.345,4.474-1.006c-0.428-2.329-0.551-4.611-0.229-6.91c0.6-4.286,0.955-8.583,0.82-12.923
			c-0.227-7.312-0.361-14.627-0.54-21.939c-0.007-0.27-0.066-0.538-0.107-0.838C137.994,152.908,131.747,154.191,125.287,153.98z
			 M75.417,65.717c-6.995,0.204-13.847,0.403-20.762,0.605c-0.827,12.693-0.39,25.336-0.52,38.004
			c7.181,0.631,14.188,0.615,21.273-0.015c0.039-0.643,0.099-1.203,0.103-1.763c0.028-4.446,0.001-8.892,0.076-13.337
			c0.073-4.325,0.241-8.647,0.379-12.971C76.076,72.764,75.876,69.307,75.417,65.717z M33.765,197.602
			c2,0.578,16.71,0.521,18.775-0.086c-0.109-14.246-0.217-28.547-0.328-43.052c-6.357-0.164-12.474-0.321-18.654-0.481
			C32.816,168.665,34.538,183.146,33.765,197.602z M122.244,65.926c-6.545-0.079-12.852-0.146-19.16-0.242
			c-0.904-0.014-1.08,0.465-1.097,1.212c-0.06,2.75-0.235,5.5-0.197,8.248c0.111,8.373,0.29,16.745,0.474,25.117
			c0.028,1.355,0.207,2.709,0.32,4.113c6.498-0.188,12.88,0.3,19.364-0.231C121.709,91.353,122.741,78.717,122.244,65.926z
			 M144.278,66.189c-0.716-0.065-1.516-0.186-2.315-0.201c-2.18-0.042-4.36-0.021-6.539-0.056c-3.07-0.051-6.142-0.109-9.21-0.212
			c-0.823-0.028-1.154,0.194-1.174,1.067c-0.092,4.04-0.263,8.077-0.365,12.116c-0.078,3.152-0.096,6.306-0.144,9.458
			c-0.077,5.051-0.16,10.103-0.231,15.154c-0.002,0.182,0.101,0.366,0.168,0.594c6.56-0.618,13.101,0.416,19.811-0.334
			C144.278,91.275,144.278,78.838,144.278,66.189z M52.098,66.339c-0.212-0.08-0.287-0.131-0.362-0.132
			c-5.863-0.09-11.725-0.174-17.587-0.27c-0.532-0.009-0.845,0.165-0.921,0.716c-0.055,0.398-0.179,0.787-0.218,1.186
			c-0.417,4.233-0.471,8.474-0.267,12.719c0.153,3.19,0.404,6.379,0.441,9.571c0.045,3.916-0.075,7.833-0.152,11.75
			c-0.014,0.71-0.161,1.418-0.243,2.103c2.474,0.958,16.71,0.657,19.01,0.204C51.897,91.586,51.997,78.983,52.098,66.339z
			 M74.736,107.449c-6.971,0-13.744,0-20.551,0c0,6.054,0,11.906,0,17.756c3.902,1.089,6.283,3.654,7.523,7.342
			c1.497,4.448-0.876,8.508-4.961,9.271c-0.697,0.131-1.371,0.389-2.029,0.58c0,3.07,0,6.012,0,8.939
			c1.945,0.414,19.889,0.34,21.442-0.078c0-1.07,0-2.142,0-3.172c-0.147-0.08-0.214-0.133-0.289-0.152
			c-0.155-0.04-0.315-0.071-0.475-0.09c-2.209-0.248-3.853-1.393-4.984-3.258c-1.746-2.883-1.951-5.965-0.863-9.096
			c0.879-2.533,2.689-4.075,5.423-4.4c0.307-0.037,0.614-0.076,0.937-0.116c-0.106-1.783-0.258-3.476-0.297-5.17
			c-0.09-3.839-0.142-7.68-0.176-11.521C75.414,111.949,75.513,109.605,74.736,107.449z M32.621,107.104
			c0.371,14.923,0.737,29.612,1.107,44.45c5.986,0,12.026,0,18.079,0c0-2.959,0-5.893,0-8.799c-5.355-1.737-7.344-4.516-7.125-9.945
			c0.076-1.863,0.702-3.553,1.866-5.025c1.396-1.77,3.334-2.441,5.532-2.603c-0.281-6.009,0.116-11.947-0.489-17.735
			C45.271,107.333,39.066,107.221,32.621,107.104z"/>
		<path style="fill-rule:evenodd;clip-rule:evenodd;" d="M73.994,17.586c0.625,0.083,1.208,0.221,1.792,0.225
			c1.293,0.011,2.588-0.085,3.88-0.059c0.548,0.011,1.135,0.126,1.627,0.357c0.711,0.333,0.815,1.05,0.788,1.77
			c-0.028,0.735-0.63,0.791-1.125,0.851c-1.479,0.18-2.964,0.319-4.45,0.43c-0.717,0.053-1.441,0.009-2.246,0.009
			c-0.075,1.111-0.142,2.1-0.221,3.275c0.56,0.059,1.138,0.146,1.718,0.175c1.693,0.083,3.388,0.138,5.081,0.219
			c0.236,0.012,0.476,0.088,0.702,0.166c0.785,0.267,1.19,0.823,1.127,1.653c-0.061,0.804-0.584,1.222-1.333,1.346
			c-0.636,0.105-1.282,0.185-1.924,0.2c-1.253,0.03-2.51-0.034-3.762,0.018c-1.239,0.052-2.475,0.2-3.791,0.312
			c-1.9-2.833-1.725-12.167-0.132-16.949c2.573,0,5.234-0.004,7.894,0.003c0.524,0.001,1.053,0.105,1.572,0.065
			c1.276-0.096,1.909,0.666,2.343,1.689c0.386,0.909,0.08,1.39-0.92,1.391c-2.224,0.003-4.448-0.055-6.672-0.053
			c-1.905,0.001-1.905,0.021-1.947,1.94C73.988,16.897,73.994,17.175,73.994,17.586z"/>
		<path style="fill-rule:evenodd;clip-rule:evenodd;" d="M103.733,29.624c-1.063-0.751-1.274-1.645-1.304-2.594
			c-0.032-1.092,0.064-2.191-0.033-3.274c-0.067-0.742-0.312-1.485-0.587-2.185c-0.249-0.631-0.734-0.739-1.385-0.42
			c-1.663,0.816-2.157,2.301-2.366,3.963c-0.051,0.4-0.033,0.808-0.051,1.212c-0.055,1.221-1.061,2.005-2.25,1.671
			c-0.267-0.075-0.544-0.452-0.637-0.746c-0.36-1.151-0.604-2.34-0.979-3.485c-0.274-0.835-0.597-1.683-1.065-2.418
			c-0.56-0.877-1.376-0.91-1.963-0.051c-0.435,0.635-0.714,1.448-0.825,2.216c-0.184,1.275-0.164,2.579-0.255,3.868
			c-0.031,0.431-0.141,0.856-0.225,1.345c-1.48-0.217-2.157-1.194-2.601-2.341c-0.834-2.155-0.918-4.412-0.733-6.689
			c0.036-0.442,0.093-0.885,0.155-1.325c0.114-0.799,0.518-1.078,1.108-0.597c0.915,0.743,1.793,0.52,2.732,0.213
			c0.422-0.138,0.844-0.279,1.274-0.384c0.884-0.217,1.682-0.064,2.355,0.588c0.349,0.337,0.712,0.659,1.065,0.993
			c0.959,0.905,1.196,0.905,2.072-0.005c1.795-1.869,4.324-1.902,6.182-0.082c2.09,2.051,2.836,6.042,1.569,8.681
			C104.684,28.41,104.195,28.955,103.733,29.624z"/>
		<path style="fill-rule:evenodd;clip-rule:evenodd;" d="M105.353,42.83c-0.997,0.321-1.698-0.17-2.192-0.787
			c-1.422-1.773-4.311-1.623-5.847,0.543c-1.692,2.386-1.86,4.935-0.599,7.558c0.154,0.323,0.525,0.64,0.867,0.758
			c1.567,0.546,3.166,0.632,4.742,0.015c1.047-0.41,1.712-1.155,1.877-2.354c-0.959-0.536-1.896-0.267-2.835-0.086
			c-1.835,0.35-2.177,0.059-2.267-2.005c2.229-0.622,4.477-1.191,6.853-0.87c0.742,0.1,1.284,0.376,1.401,1.215
			c0.095,0.677,0.335,1.338,0.396,2.016c0.178,1.964,0.297,3.933,0.453,6.098c-0.762,0.058-1.575,0.119-2.447,0.185
			c-0.145-0.797-0.271-1.495-0.429-2.352c-0.423,0.147-0.803,0.226-1.133,0.402c-2.685,1.438-5.108,0.661-7.325-0.991
			c-2.244-1.675-3.498-4.025-3.79-6.798c-0.237-2.263,0.888-3.997,2.65-5.273c1.96-1.417,4.132-2.213,6.604-1.567
			C104.371,39.068,105.446,40.583,105.353,42.83z"/>
		<path style="fill-rule:evenodd;clip-rule:evenodd;" d="M72.592,53.274c0.562-2.356,0.13-4.594-0.044-6.841
			c-0.133-1.726-0.187-3.463-0.154-5.193c0.012-0.655,0.277-1.352,0.584-1.947c0.708-1.372,1.461-1.657,2.977-1.342
			c2.76,0.574,5.354,1.553,7.611,3.266c1.753,1.331,3.116,2.937,3.129,5.324c0.006,1.139-0.354,2.148-1.017,3.045
			c-2.218,2.998-8.767,5.12-12.332,4.011C73.121,53.526,72.91,53.412,72.592,53.274z M74.637,41.314
			c0.223,3.37,0.435,6.565,0.655,9.886c2.191-0.299,4.208-0.671,6.036-1.787c2.299-1.405,2.728-5.264-0.284-6.862
			C79.134,41.538,77.086,41.331,74.637,41.314z"/>
		<path style="fill-rule:evenodd;clip-rule:evenodd;" d="M27.247,52.878c-0.246-5.151-1.585-10.05-1.269-15.052
			c2.837-1.535,7.898-1.743,9.735-0.402c-0.182,0.877-0.369,1.778-0.6,2.892c-2.21,0-4.447,0-6.719,0c0,0.983,0,1.73,0,2.581
			c0.832,0,1.584,0,2.337,0c1.616-0.002,2.361,1.093,1.684,2.545c-0.113,0.244-0.464,0.456-0.745,0.525
			c-0.423,0.104-0.88,0.084-1.323,0.095c-1.66,0.039-1.838,0.249-1.436,1.887c0.152,0.618,0.418,1.207,0.621,1.779
			c2.367,0,4.658,0,7.04,0c0,0.77,0,1.557,0,2.429C33.554,52.979,30.454,52.856,27.247,52.878z"/>
		<path style="fill-rule:evenodd;clip-rule:evenodd;" d="M47.741,53.881c-0.527-0.471-1.055-0.942-1.661-1.484
			c0.586-1.265,1.13-2.515,1.735-3.733c1.634-3.291,3.274-6.579,4.967-9.839c0.239-0.461,0.786-0.763,1.344-1.281
			c0.229,0.54,0.363,0.811,0.46,1.095c0.375,1.094,0.65,2.233,1.13,3.279c0.503,1.096,1.152,2.134,1.817,3.144
			c1.487,2.258,2.115,4.875,3.12,7.333c0.232,0.568,0.468,1.258-0.303,1.709c-0.691,0.405-1.725,0.272-2.178-0.431
			c-0.384-0.597-0.636-1.298-0.845-1.985c-0.695-2.283-0.677-2.28-2.982-2.022c-1.162,0.13-2.327,0.238-3.494,0.328
			c-1.176,0.09-1.626,0.407-2.015,1.539c-0.257,0.749-0.484,1.508-0.725,2.263C47.989,53.824,47.865,53.852,47.741,53.881z
			 M51.339,47.498c1.199,0,2.081,0.054,2.952-0.021c0.453-0.039,1.037-0.236,0.841-0.901c-0.202-0.687-0.487-1.357-0.808-1.999
			c-0.301-0.599-1.012-0.802-1.26-0.38C52.484,45.185,51.995,46.226,51.339,47.498z"/>
		<path style="fill-rule:evenodd;clip-rule:evenodd;" d="M141.549,54.132c-0.323-5.178-0.627-10.045-0.944-15.145
			c3.454-0.109,6.664-0.211,9.845-0.312c0.135,0.29,0.229,0.425,0.263,0.573c0.514,2.248,0.137,2.792-2.232,2.867
			c-1.203,0.038-2.414-0.182-3.622-0.257c-0.56-0.035-1.124-0.006-1.919-0.006c0.098,1.159,0.194,2.278,0.306,3.583
			c0.979,0.333,2.097,0.208,3.199,0.103c1.083-0.104,1.314,0.06,1.458,1.168c0.209,1.617-0.067,1.922-1.697,1.863
			c-0.687-0.026-1.374-0.074-2.06-0.064c-0.259,0.003-0.631,0.058-0.755,0.23c-0.558,0.773-0.127,1.527,0.122,2.294
			c0.211,0.65,0.656,0.725,1.224,0.676c1.368-0.118,2.734-0.292,4.104-0.307c0.781-0.008,1.624,0.116,2.334,0.422
			c0.906,0.392,0.9,1.283,0.013,1.748c-0.586,0.308-1.288,0.522-1.946,0.539C146.739,54.169,144.236,54.132,141.549,54.132z"/>
		<path style="fill-rule:evenodd;clip-rule:evenodd;" d="M126.353,47.137c-1.942,0.222-3.651,0.428-5.365,0.608
			c-0.637,0.067-0.811,0.422-0.745,0.995c0.071,0.603,0.199,1.211,0.17,1.811c-0.031,0.673-0.181,1.347-0.333,2.008
			c-0.155,0.674-0.71,0.653-1.255,0.648c-0.619-0.006-0.731-0.438-0.77-0.893c-0.111-1.409-0.211-2.82-0.283-4.232
			c-0.163-3.187-0.307-6.375-0.454-9.562c-0.005-0.115,0.029-0.232,0.056-0.438c0.969-0.098,1.662,0.515,2.4,0.936
			c0.157,0.09,0.184,0.496,0.188,0.758c0.016,1.293-0.007,2.588,0.003,3.882c0.01,1.312,0.118,1.463,1.468,1.437
			c1.405-0.029,2.806-0.176,4.384-0.283c0-2.055,0-4.044,0-6.167c1.562,0.439,2.298,1.458,2.587,2.683
			c0.286,1.201,0.33,2.475,0.353,3.719c0.033,1.896-0.064,3.792-0.06,5.688c0.001,0.516,0.137,1.038,0.269,1.543
			c0.235,0.908-0.31,1.81-1.266,2.026c-0.864,0.196-1.485-0.239-1.602-1.312c-0.086-0.792,0.04-1.609,0.078-2.414
			C126.229,49.504,126.286,48.432,126.353,47.137z"/>
		<path style="fill-rule:evenodd;clip-rule:evenodd;fill:none;" d="M78.683,154.45c7.354-0.099,14.529-0.196,21.807-0.294
			c0.589,14.503,0.033,28.817-0.224,43.338c-7.122-0.785-14.137,0.37-21.383-0.291c0-1.734-0.002-3.377,0-5.021
			c0.011-6.547,0.058-13.096,0.017-19.645c-0.014-2.342-0.235-4.681-0.364-7.022c-0.014-0.242-0.115-0.503-0.053-0.721
			c0.766-2.721,0.194-5.468,0.199-8.204C78.684,155.909,78.683,155.227,78.683,154.45z"/>
		<path style="fill-rule:evenodd;clip-rule:evenodd;fill:none;" d="M54.22,197.533c0.146-1.932,0.383-3.896,0.427-5.865
			c0.126-5.539,0.211-11.077,0.242-16.616c0.036-6.392-0.005-12.784-0.007-19.177c0-0.394,0.054-0.787,0.092-1.291
			c0.755,0,1.433-0.002,2.111,0c5.096,0.012,10.192,0.038,15.288,0.022c1.088-0.003,2.178-0.143,3.265-0.253
			c0.78-0.08,1.129,0.207,1.094,1.014c-0.05,1.172-0.071,2.346-0.069,3.518c0.015,7.971,0.115,15.942,0.031,23.912
			c-0.05,4.725-0.386,9.445-0.594,14.186C68.736,197.168,61.528,197.35,54.22,197.533z"/>
		<path style="fill-rule:evenodd;clip-rule:evenodd;fill:none;" d="M123.015,197.43c-6.88-0.143-13.64,0.784-20.62,0.046
			c0.173-14.502,0.344-28.881,0.516-43.278c6.852-0.111,13.661-0.224,20.578-0.336C123.655,168.499,123.713,182.908,123.015,197.43z
			"/>
		<path style="fill-rule:evenodd;clip-rule:evenodd;fill:none;" d="M100.42,151.408c-7.389,0-14.495,0-21.654,0
			c0-1.267,0-2.461,0-3.706c2.131-0.419,3.816-1.438,5.007-3.192c1.231-1.814,1.598-3.84,1.484-6.002
			c-0.198-3.758-2.44-6.125-7.108-7.276c-0.085-7.935-0.171-15.917-0.258-24c7.37-0.177,14.55-0.351,21.825-0.525
			c0.03,0.397,0.074,0.746,0.082,1.095c0.187,8.813,0.354,17.627,0.561,26.441c0.111,4.769,0.312,9.534,0.416,14.304
			C100.794,149.495,100.545,150.449,100.42,151.408z"/>
		<path style="fill-rule:evenodd;clip-rule:evenodd;fill:none;" d="M103.029,151.488c-0.291-14.992-0.578-29.817-0.869-44.812
			c6.484-0.491,13.049-0.407,19.675-0.556c0.038,0.401,0.079,0.671,0.085,0.94c0.162,8.168,0.283,16.338,0.488,24.505
			c0.153,6.144,0.413,12.284,0.618,18.427c0.01,0.274-0.04,0.552-0.073,0.95C116.38,151.79,109.822,151.928,103.029,151.488z"/>
		<path style="fill-rule:evenodd;clip-rule:evenodd;fill:none;" d="M144.209,150.964c-6.39-0.395-12.539,1.077-18.845,0.22
			c-0.093-1.474-0.211-2.952-0.274-4.433c-0.322-7.391-0.727-14.779-0.913-22.173c-0.142-5.617,0.009-11.241,0.007-16.862
			c0-0.765,0.182-1.205,1.053-1.253c1.248-0.07,2.489-0.354,3.733-0.361c4.731-0.024,9.464,0.025,14.196,0.051
			c0.194,0.001,0.39,0.04,0.657,0.069c0,0.838-0.017,1.629,0.002,2.418c0.14,6.183,0.309,12.366,0.423,18.549
			c0.113,6.185,0.201,12.371,0.244,18.558C144.503,147.43,144.314,149.113,144.209,150.964z"/>
		<path style="fill-rule:evenodd;clip-rule:evenodd;fill:none;" d="M77.614,65.689c7.402,0.19,14.583-0.438,21.831,0.258
			c-0.388,12.912,1,25.708,0.037,38.604c-7.262,0-14.442,0-21.819,0C78.221,91.621,78.434,78.714,77.614,65.689z"/>
		<path style="fill-rule:evenodd;clip-rule:evenodd;fill:none;" d="M125.287,153.98c6.46,0.211,12.707-1.072,19.081-0.471
			c0.041,0.3,0.101,0.568,0.107,0.838c0.179,7.312,0.313,14.627,0.54,21.939c0.135,4.34-0.221,8.637-0.82,12.923
			c-0.322,2.299-0.199,4.581,0.229,6.91c-1.45,0.661-2.942,0.989-4.474,1.006c-3.436,0.037-6.872-0.031-10.308-0.004
			c-1.482,0.012-2.963,0.151-4.539,0.238C124.771,182.936,126.119,168.568,125.287,153.98z"/>
		<path style="fill-rule:evenodd;clip-rule:evenodd;fill:none;" d="M75.417,65.717c0.459,3.59,0.66,7.047,0.549,10.524
			c-0.138,4.324-0.306,8.646-0.379,12.971c-0.075,4.445-0.048,8.891-0.076,13.337c-0.004,0.56-0.063,1.12-0.103,1.763
			c-7.085,0.63-14.093,0.646-21.273,0.015c0.13-12.668-0.307-25.311,0.52-38.004C61.57,66.12,68.422,65.92,75.417,65.717z"/>
		<path style="fill-rule:evenodd;clip-rule:evenodd;fill:none;" d="M33.765,197.602c0.773-14.455-0.949-28.937-0.207-43.619
			c6.18,0.16,12.297,0.317,18.654,0.481c0.111,14.505,0.219,28.806,0.328,43.052C50.475,198.123,35.764,198.18,33.765,197.602z"/>
		<path style="fill-rule:evenodd;clip-rule:evenodd;fill:none;" d="M122.244,65.926c0.497,12.791-0.535,25.427-0.296,38.217
			c-6.484,0.532-12.866,0.043-19.364,0.231c-0.113-1.404-0.292-2.757-0.32-4.113c-0.184-8.372-0.362-16.744-0.474-25.117
			c-0.038-2.748,0.138-5.499,0.197-8.248c0.017-0.748,0.192-1.226,1.097-1.212C109.393,65.78,115.699,65.847,122.244,65.926z"/>
		<path style="fill-rule:evenodd;clip-rule:evenodd;fill:none;" d="M144.278,66.189c0,12.649,0,25.085,0,37.585
			c-6.71,0.75-13.251-0.284-19.811,0.334c-0.067-0.229-0.17-0.413-0.168-0.594c0.071-5.051,0.154-10.103,0.231-15.154
			c0.048-3.153,0.065-6.307,0.144-9.458c0.103-4.04,0.273-8.077,0.365-12.116c0.02-0.873,0.351-1.095,1.174-1.067
			c3.068,0.104,6.14,0.161,9.21,0.212c2.179,0.036,4.359,0.015,6.539,0.056C142.763,66.004,143.562,66.125,144.278,66.189z"/>
		<path style="fill-rule:evenodd;clip-rule:evenodd;fill:none;" d="M52.098,66.339c-0.101,12.644-0.2,25.247-0.3,37.846
			c-2.3,0.454-16.537,0.754-19.01-0.204c0.083-0.685,0.229-1.393,0.243-2.103c0.077-3.917,0.197-7.834,0.152-11.75
			c-0.037-3.191-0.288-6.38-0.441-9.571c-0.204-4.245-0.151-8.486,0.267-12.719c0.04-0.398,0.164-0.788,0.218-1.186
			c0.076-0.551,0.39-0.725,0.921-0.716c5.862,0.096,11.725,0.18,17.587,0.27C51.811,66.208,51.885,66.259,52.098,66.339z"/>
		<path style="fill-rule:evenodd;clip-rule:evenodd;fill:none;" d="M74.736,107.449c0.777,2.157,0.678,4.5,0.699,6.836
			c0.035,3.84,0.086,7.682,0.176,11.521c0.04,1.694,0.191,3.387,0.297,5.17c-0.323,0.04-0.63,0.079-0.937,0.116
			c-2.734,0.325-4.544,1.867-5.423,4.4c-1.087,3.131-0.882,6.213,0.863,9.096c1.131,1.865,2.774,3.01,4.984,3.258
			c0.16,0.019,0.32,0.05,0.475,0.09c0.075,0.02,0.142,0.072,0.289,0.152c0,1.03,0,2.102,0,3.172
			c-1.553,0.418-19.497,0.492-21.442,0.078c0-2.928,0-5.869,0-8.939c0.658-0.191,1.332-0.449,2.029-0.58
			c4.085-0.764,6.458-4.823,4.961-9.271c-1.24-3.688-3.621-6.253-7.523-7.342c0-5.851,0-11.702,0-17.756
			C60.992,107.449,67.765,107.449,74.736,107.449z M66.93,125.146c-0.177,1.579-0.063,1.726,1.386,1.792
			c0.241,0.01,0.527-0.037,0.714,0.074c0.418,0.251,1.043,0.54,1.106,0.898c0.067,0.383-0.335,0.94-0.673,1.283
			c-0.496,0.502-1.135,0.377-1.657-0.018c-0.642-0.486-1.229-1.043-1.85-1.556c-0.321-0.265-0.666-0.501-1.046-0.784
			c-0.526,1.748,0.041,3.154,1.41,3.792c1.601,0.746,3.929,0.325,5.17-0.934c0.822-0.833,0.95-2.006,0.283-2.971
			c-0.317-0.458-0.705-0.866-1.067-1.304c0.905-1.074,1.258-2.223,0.682-3.51c-0.678-1.514-1.897-2.412-3.493-2.699
			c-1.869-0.339-3.149,0.792-3.268,2.775c1.021,0.379,1.755-0.314,2.576-0.689c0.609-0.278,1.232-0.452,1.781,0.121
			c0.529,0.553,0.658,1.223,0.324,1.896c-0.207,0.42-0.509,0.846-0.88,1.119C67.992,124.756,67.436,124.915,66.93,125.146z"/>
		<path style="fill-rule:evenodd;clip-rule:evenodd;fill:none;" d="M32.621,107.104c6.445,0.116,12.65,0.229,18.97,0.343
			c0.605,5.788,0.208,11.727,0.489,17.735c-2.197,0.161-4.135,0.833-5.532,2.603c-1.165,1.473-1.791,3.162-1.866,5.025
			c-0.219,5.43,1.77,8.208,7.125,9.945c0,2.906,0,5.84,0,8.799c-6.053,0-12.093,0-18.079,0
			C33.358,136.717,32.992,122.027,32.621,107.104z M41.812,125.36c0.571-0.812,1.008-1.342,1.343-1.932
			c0.335-0.593,0.667-1.22,0.822-1.874c0.209-0.887,0.485-1.859,0.315-2.712c-0.425-2.132-2.253-3.042-4.236-2.303
			c-2.083,0.778-3.069,2.929-2.113,5.06c0.478-0.512,0.934-0.93,1.303-1.412c0.415-0.543,0.717-1.172,1.136-1.711
			c0.291-0.375,0.661-0.765,1.226-0.352c0.5,0.366,0.859,0.814,0.52,1.433c-0.521,0.949-1.051,1.902-1.687,2.776
			c-0.592,0.812-1.363,1.494-1.983,2.29c-0.502,0.645-1.065,1.298-1.073,2.245c2.608,0.714,5.156,0.651,7.708,0.207
			c0.117-1.174-0.078-1.448-1.128-1.566C43.339,125.44,42.706,125.42,41.812,125.36z"/>
		<path style="fill-rule:evenodd;clip-rule:evenodd;fill:none;" d="M74.637,41.314c2.449,0.017,4.497,0.224,6.407,1.237
			c3.011,1.598,2.583,5.457,0.284,6.862C79.5,50.529,77.482,50.9,75.292,51.2C75.071,47.879,74.86,44.684,74.637,41.314z"/>
		<path style="fill-rule:evenodd;clip-rule:evenodd;fill:none;" d="M51.339,47.498c0.656-1.271,1.145-2.313,1.725-3.301
			c0.248-0.422,0.959-0.219,1.26,0.38c0.321,0.641,0.606,1.312,0.808,1.999c0.195,0.665-0.388,0.862-0.841,0.901
			C53.42,47.552,52.538,47.498,51.339,47.498z"/>
		<path style="fill-rule:evenodd;clip-rule:evenodd;" d="M66.93,125.146c0.506-0.23,1.062-0.39,1.498-0.712
			c0.371-0.273,0.673-0.699,0.88-1.119c0.334-0.674,0.206-1.344-0.324-1.896c-0.548-0.573-1.172-0.399-1.781-0.121
			c-0.821,0.375-1.554,1.068-2.576,0.689c0.118-1.983,1.398-3.114,3.268-2.775c1.595,0.287,2.815,1.186,3.493,2.699
			c0.576,1.287,0.223,2.436-0.682,3.51c0.362,0.438,0.75,0.846,1.067,1.304c0.667,0.965,0.539,2.138-0.283,2.971
			c-1.241,1.259-3.569,1.68-5.17,0.934c-1.369-0.638-1.936-2.044-1.41-3.792c0.38,0.283,0.725,0.52,1.046,0.784
			c0.621,0.513,1.208,1.069,1.85,1.556c0.522,0.395,1.161,0.52,1.657,0.018c0.338-0.343,0.74-0.9,0.673-1.283
			c-0.063-0.358-0.688-0.647-1.106-0.898c-0.187-0.111-0.473-0.064-0.714-0.074C66.866,126.871,66.752,126.725,66.93,125.146z"/>
		<path style="fill-rule:evenodd;clip-rule:evenodd;" d="M41.812,125.36c0.893,0.06,1.526,0.08,2.154,0.149
			c1.05,0.118,1.245,0.393,1.128,1.566c-2.553,0.444-5.101,0.507-7.708-0.207c0.007-0.947,0.571-1.601,1.073-2.245
			c0.62-0.796,1.392-1.478,1.983-2.29c0.635-0.874,1.166-1.827,1.687-2.776c0.339-0.619-0.019-1.067-0.52-1.433
			c-0.565-0.413-0.935-0.022-1.226,0.352c-0.419,0.539-0.721,1.168-1.136,1.711c-0.37,0.482-0.825,0.9-1.303,1.412
			c-0.956-2.131,0.03-4.282,2.113-5.06c1.983-0.739,3.811,0.17,4.236,2.303c0.17,0.853-0.106,1.825-0.315,2.712
			c-0.155,0.654-0.487,1.281-0.822,1.874C42.821,124.019,42.384,124.549,41.812,125.36z"/>
	</g>
</g>
<g id="Layer_1">
</g>
</svg>
