<?xml version="1.0" encoding="UTF-8" standalone="no"?>
<!DOCTYPE svg PUBLIC "-//W3C//DTD SVG 1.1//EN" "http://www.w3.org/Graphics/SVG/1.1/DTD/svg11.dtd">
<svg width="100%" height="100%" viewBox="0 0 963 1280" version="1.1" xmlns="http://www.w3.org/2000/svg" xmlns:xlink="http://www.w3.org/1999/xlink" xml:space="preserve" xmlns:serif="http://www.serif.com/" style="fill-rule:evenodd;clip-rule:evenodd;stroke-linejoin:round;stroke-miterlimit:2;">
    <g transform="matrix(1.17074,0,0,1.17074,499.112,565.135)">
        <g id="Bm-Eb" transform="matrix(1,0,0,1,-338.5,-621)">
            <g transform="matrix(0.1,0,0,-0.1,0,1242)">
                <g transform="matrix(1,0,0,1,0,-200)">
                    <path d="M3650,11101C3644,11089 3639,10972 3638,10803C3638,10650 3636,10480 3636,10425C3635,10332 3636,10325 3655,10322C3666,10321 3683,10325 3693,10332C3709,10344 3711,10375 3716,10712C3719,10965 3718,11086 3710,11100C3696,11125 3664,11126 3650,11101Z" style="fill-rule:nonzero;"/>
                </g>
                <g transform="matrix(1,0,0,1,0,-200)">
                    <path d="M4402,11077L4381,11055L4401,10933C4426,10775 4448,10507 4438,10479C4423,10440 4446,10427 4517,10433C4595,10439 4634,10461 4686,10530C4726,10584 4769,10687 4768,10724C4765,10783 4608,10800 4552,10747C4521,10717 4505,10712 4514,10735C4517,10744 4510,10799 4499,10858C4487,10917 4477,10991 4476,11023C4473,11101 4444,11122 4402,11077ZM4690,10692C4690,10657 4637,10569 4596,10535C4572,10516 4550,10500 4547,10500C4537,10500 4527,10588 4534,10615C4543,10650 4593,10698 4626,10703C4684,10711 4690,10710 4690,10692Z" style="fill-rule:nonzero;"/>
                </g>
                <g transform="matrix(1,0,0,1,0,-200)">
                    <path d="M4215,11063C4128,11055 3966,11029 3950,11020C3924,11006 3900,10949 3911,10929C3916,10919 3920,10881 3920,10843C3920,10806 3925,10757 3930,10735C3935,10713 3943,10633 3946,10558C3953,10425 3954,10421 3980,10402C4003,10384 4014,10383 4066,10390C4188,10408 4270,10439 4270,10468C4270,10475 4274,10478 4280,10475C4285,10472 4300,10478 4312,10490C4330,10506 4332,10514 4324,10528C4307,10554 4246,10553 4140,10526C4088,10512 4045,10502 4043,10503C4039,10508 4020,10684 4024,10687C4025,10689 4078,10698 4141,10707C4286,10728 4321,10754 4265,10798C4244,10815 4234,10816 4202,10809C4138,10793 4127,10790 4085,10785C4063,10782 4038,10777 4028,10774C4010,10769 4004,10789 3995,10876C3992,10910 3995,10931 4003,10937C4022,10952 4140,10976 4232,10984C4301,10989 4310,10994 4310,11025C4310,11047 4283,11072 4263,11068C4259,11067 4237,11065 4215,11063Z" style="fill-rule:nonzero;"/>
                </g>
                <g transform="matrix(1,0,0,1,0,-200)">
                    <path d="M2557,11025C2519,11012 2487,11000 2485,10998C2468,10977 2465,10928 2471,10737C2480,10471 2486,10402 2506,10373C2520,10351 2560,10341 2560,10359C2560,10364 2590,10368 2628,10367C2685,10365 2700,10369 2732,10391C2805,10441 2863,10541 2862,10615C2861,10705 2821,10750 2742,10750C2719,10750 2718,10752 2732,10763C2754,10779 2780,10861 2780,10910C2780,10942 2773,10958 2744,10990C2690,11049 2652,11057 2557,11025ZM2691,10928C2691,10915 2693,10897 2695,10886C2701,10856 2685,10829 2617,10756L2553,10688L2553,10791C2553,10848 2552,10901 2549,10909C2543,10930 2588,10950 2643,10950C2685,10950 2690,10948 2691,10928ZM2736,10654C2789,10640 2796,10569 2749,10515C2731,10495 2704,10472 2689,10464C2655,10447 2586,10446 2573,10463C2567,10469 2562,10509 2561,10550C2560,10591 2557,10632 2554,10641C2550,10655 2559,10657 2610,10658C2644,10658 2674,10661 2678,10664C2681,10668 2690,10668 2698,10665C2706,10662 2723,10657 2736,10654Z" style="fill-rule:nonzero;"/>
                </g>
                <g transform="matrix(1,0,0,1,0,-200)">
                    <path d="M3049,10741C3035,10736 3014,10727 3002,10721C2984,10711 2977,10712 2964,10725C2924,10765 2908,10725 2915,10603C2920,10513 2935,10401 2943,10393C2945,10391 2961,10395 2979,10401L3012,10413L3006,10479C3002,10515 2997,10557 2994,10572C2987,10608 3002,10634 3044,10654C3115,10688 3125,10672 3122,10529C3120,10415 3130,10391 3173,10411C3199,10423 3200,10426 3200,10508C3200,10584 3203,10597 3226,10627C3242,10648 3260,10660 3275,10660C3296,10660 3299,10654 3306,10598C3310,10563 3313,10515 3311,10490C3310,10463 3314,10437 3323,10425C3337,10407 3341,10407 3364,10419C3388,10432 3390,10438 3390,10499C3389,10584 3358,10699 3330,10722C3298,10748 3247,10745 3213,10716L3186,10692L3159,10721C3131,10751 3101,10756 3049,10741Z" style="fill-rule:nonzero;"/>
                </g>
                <path d="M1220,10385C1176,10322 1135,10270 1130,10270C1125,10270 1096,10308 1065,10355C1026,10413 1002,10440 989,10440C947,10440 953,10414 1024,10306C1090,10203 1091,10216 1011,10089C935,9967 920,9916 963,9922C977,9924 996,9943 1015,9973C1032,9999 1063,10050 1086,10084L1127,10148L1171,10091C1230,10015 1256,9976 1281,9929C1299,9894 1303,9890 1317,9902C1326,9909 1335,9914 1337,9912C1339,9911 1347,9913 1356,9918C1368,9925 1365,9935 1335,9986C1316,10018 1291,10052 1280,10062C1269,10071 1260,10082 1260,10087C1260,10091 1240,10118 1215,10147C1190,10175 1170,10202 1170,10206C1170,10210 1185,10231 1203,10254C1259,10322 1350,10459 1350,10474C1350,10487 1330,10500 1310,10500C1305,10500 1265,10448 1220,10385Z" style="fill-rule:nonzero;"/>
                <path d="M2039,10373C2003,10325 1966,10272 1956,10256L1938,10228L1912,10266C1898,10288 1874,10320 1858,10338C1842,10357 1818,10389 1804,10411C1785,10441 1773,10450 1757,10448C1711,10442 1724,10400 1809,10281C1888,10172 1900,10147 1881,10136C1876,10133 1869,10118 1865,10103C1859,10076 1799,9971 1773,9939C1759,9923 1755,9880 1767,9880C1771,9880 1788,9885 1806,9892C1838,9903 1888,9976 1924,10064L1940,10103L1973,10062C1991,10039 2014,10003 2025,9983C2095,9849 2116,9830 2164,9857C2183,9868 2183,9868 2164,9896C2137,9938 2123,9961 2107,9995C2099,10012 2068,10059 2037,10100C1986,10169 1983,10177 1996,10195C2083,10320 2145,10419 2145,10435C2145,10448 2137,10456 2124,10458C2108,10460 2089,10441 2039,10373Z" style="fill-rule:nonzero;"/>
                <path d="M1247,9743C1243,9740 1192,9736 1133,9735C1009,9733 956,9724 938,9703C924,9686 920,9568 931,9505C935,9483 941,9440 945,9410C948,9380 953,9346 955,9335C959,9307 969,9238 975,9189C978,9166 983,9143 986,9138C989,9133 1017,9132 1048,9135C1080,9139 1149,9143 1202,9144C1317,9147 1337,9158 1337,9220C1337,9260 1337,9260 1296,9261C1273,9262 1233,9261 1205,9260C1178,9259 1135,9258 1111,9257C1079,9255 1066,9259 1064,9270C1048,9342 1044,9371 1049,9375C1053,9377 1079,9382 1106,9385C1164,9393 1189,9415 1182,9458C1177,9497 1145,9513 1082,9508L1030,9504L1030,9541C1030,9567 1036,9582 1048,9589C1057,9594 1112,9597 1169,9596L1273,9594L1285,9624C1292,9641 1296,9658 1293,9663C1291,9667 1294,9678 1301,9686C1311,9699 1309,9705 1285,9726C1253,9753 1255,9752 1247,9743Z" style="fill-rule:nonzero;"/>
                <path d="M1931,9664C1914,9645 1902,9625 1905,9619C1909,9614 1904,9607 1896,9604C1887,9601 1882,9594 1885,9590C1891,9580 1842,9478 1826,9468C1820,9464 1819,9460 1824,9460C1828,9460 1825,9449 1816,9435C1807,9422 1800,9404 1800,9397C1800,9389 1791,9375 1780,9365C1769,9355 1763,9344 1765,9340C1768,9336 1761,9321 1750,9307C1733,9286 1709,9236 1708,9220C1708,9217 1699,9203 1689,9188L1669,9161L1699,9131C1716,9114 1733,9100 1738,9100C1749,9100 1774,9152 1779,9183C1779,9187 1788,9199 1798,9210C1811,9225 1836,9231 1905,9237C2034,9247 2065,9247 2063,9233C2062,9227 2067,9216 2075,9210C2083,9203 2090,9190 2090,9180C2090,9170 2097,9157 2105,9150C2113,9143 2117,9133 2114,9128C2106,9115 2139,9080 2159,9080C2168,9080 2189,9089 2207,9100C2244,9122 2243,9130 2206,9209C2192,9239 2183,9268 2186,9272C2189,9277 2181,9295 2168,9313C2154,9331 2121,9390 2093,9445C2066,9500 2031,9567 2017,9593C2003,9619 1994,9648 1997,9656C2002,9670 1984,9700 1970,9700C1966,9700 1948,9684 1931,9664ZM1987,9427C1991,9415 1995,9399 1996,9391C1998,9383 2004,9374 2010,9370C2032,9356 1987,9335 1934,9334C1883,9333 1882,9333 1890,9356C1895,9369 1911,9397 1925,9419C1952,9462 1974,9465 1987,9427Z" style="fill-rule:nonzero;"/>
                <path d="M2720,9675C2713,9667 2699,9660 2688,9660C2678,9660 2671,9656 2675,9651C2678,9646 2672,9639 2663,9636C2647,9631 2645,9617 2647,9503C2649,9348 2662,9205 2674,9192C2678,9189 2671,9177 2660,9165L2640,9143L2664,9119C2686,9096 2696,9094 2772,9096C2818,9097 2865,9100 2878,9103C2946,9120 3001,9146 3076,9194C3116,9220 3170,9294 3175,9329C3194,9484 2986,9669 2791,9672C2768,9672 2750,9676 2750,9681C2750,9695 2734,9692 2720,9675ZM2897,9536C2943,9528 3007,9486 3025,9450C3034,9434 3038,9420 3034,9420C3030,9420 3032,9414 3038,9408C3062,9378 3048,9337 2998,9289C2971,9263 2943,9243 2936,9246C2929,9249 2916,9242 2906,9231C2892,9216 2883,9213 2865,9220C2849,9226 2838,9225 2831,9216C2818,9201 2773,9198 2764,9211C2759,9220 2757,9247 2745,9442L2739,9550L2802,9545C2837,9543 2880,9538 2897,9536Z" style="fill-rule:nonzero;"/>
                <path d="M4283,9666C4293,9639 4302,9563 4305,9465C4307,9410 4309,9365 4310,9365C4311,9365 4313,9316 4315,9255C4316,9195 4318,9137 4319,9127C4320,9112 4327,9109 4362,9112C4401,9115 4405,9117 4406,9145C4411,9227 4421,9305 4428,9311C4432,9315 4476,9320 4525,9323L4616,9329L4614,9212C4614,9148 4615,9089 4618,9083C4620,9075 4639,9070 4660,9070C4719,9070 4749,9115 4722,9164C4719,9168 4717,9258 4716,9364C4715,9570 4713,9578 4657,9638C4628,9668 4601,9682 4615,9660C4619,9654 4618,9644 4612,9637C4607,9630 4603,9580 4604,9525L4605,9425L4575,9422C4409,9410 4412,9410 4405,9428C4401,9437 4399,9488 4399,9540C4400,9634 4400,9636 4373,9651C4332,9675 4276,9684 4283,9666Z" style="fill-rule:nonzero;"/>
                <path d="M3606,9647C3533,9613 3526,9608 3475,9552L3425,9498L3424,9421C3424,9363 3429,9333 3446,9293C3459,9264 3467,9240 3464,9240C3461,9240 3480,9217 3507,9189C3594,9096 3701,9066 3800,9107C3808,9110 3818,9114 3822,9114C3825,9115 3832,9118 3836,9123C3850,9136 3857,9130 3856,9108C3853,9065 3871,9040 3904,9040C3969,9040 3996,9084 3966,9142C3957,9159 3952,9200 3952,9260C3953,9343 3951,9353 3929,9373C3908,9392 3895,9395 3815,9395C3766,9395 3704,9391 3677,9387C3630,9379 3629,9378 3631,9342C3634,9302 3655,9269 3673,9275C3694,9283 3744,9291 3781,9294C3810,9295 3816,9292 3815,9278C3813,9248 3762,9204 3717,9194C3666,9182 3571,9198 3559,9220C3524,9288 3514,9385 3537,9444C3556,9493 3607,9550 3631,9550C3641,9550 3651,9554 3654,9558C3657,9562 3678,9565 3701,9564C3738,9563 3749,9557 3776,9524C3796,9501 3817,9486 3829,9487C3841,9487 3856,9488 3864,9489C3897,9491 3863,9575 3808,9627C3779,9654 3766,9659 3711,9662C3663,9665 3637,9661 3606,9647Z" style="fill-rule:nonzero;"/>
                <path d="M5476,9653C5472,9649 5400,9645 5317,9645C5233,9644 5158,9640 5151,9636C5141,9629 5140,9604 5145,9521C5149,9463 5154,9381 5156,9340C5163,9184 5169,9110 5174,9093C5179,9077 5195,9075 5332,9075C5416,9076 5492,9080 5500,9085C5508,9090 5521,9095 5529,9097C5537,9098 5549,9105 5557,9112C5568,9124 5566,9130 5544,9151C5520,9174 5512,9175 5390,9175C5319,9175 5260,9177 5257,9180C5246,9191 5242,9255 5252,9267C5259,9276 5289,9280 5340,9280C5382,9280 5419,9282 5422,9285C5425,9288 5422,9314 5416,9343L5404,9395L5324,9394L5243,9393L5241,9429C5240,9449 5238,9479 5237,9495C5235,9523 5237,9525 5265,9523C5387,9514 5518,9522 5521,9539C5526,9564 5525,9602 5518,9606C5513,9609 5512,9616 5516,9621C5522,9631 5503,9660 5490,9660C5487,9660 5480,9657 5476,9653Z" style="fill-rule:nonzero;"/>
                <path d="M774,8948C767,8937 768,8783 776,8725C778,8703 785,8681 791,8675C796,8670 854,8664 918,8663C1082,8659 1100,8656 1101,8622C1101,8607 1103,8519 1105,8425C1108,8332 1110,8239 1110,8220C1110,8127 1099,7617 1095,7555C1093,7517 1089,7451 1087,7409C1085,7367 1081,7328 1078,7324C1076,7319 1074,7298 1075,7278C1075,7248 1071,7240 1053,7236C1041,7232 1026,7232 1018,7235C999,7241 944,7250 880,7256C830,7262 823,7260 800,7236L776,7209L810,7180C829,7163 850,7152 857,7155C864,7157 872,7156 874,7151C879,7144 916,7140 1022,7137C1047,7136 1072,7132 1075,7128C1091,7113 1101,5620 1086,5620C1081,5620 1083,5613 1090,5605C1100,5593 1100,5590 1089,5590C1080,5590 1079,5587 1086,5582C1091,5578 1096,5565 1096,5554C1096,5532 1094,5532 955,5537C878,5540 813,5544 812,5545C810,5547 795,5537 779,5523C704,5455 780,5427 993,5444C1019,5446 1043,5444 1046,5439C1048,5435 1057,5433 1064,5436C1071,5439 1082,5434 1089,5426C1104,5408 1109,5296 1097,5255C1092,5239 1086,5104 1085,4955C1083,4807 1079,4656 1075,4620C1063,4514 1070,3864 1084,3842C1088,3835 1085,3828 1078,3825C1066,3820 912,3812 811,3811C764,3810 766,3814 783,3744C785,3738 792,3723 801,3710C814,3689 818,3689 870,3699C900,3706 968,3712 1020,3713L1115,3715L1118,3390C1121,3107 1120,2316 1118,2222L1117,2189L965,2194C816,2199 812,2199 791,2176C769,2153 769,2153 789,2129C808,2106 813,2105 947,2104C1145,2103 1134,2111 1126,1981C1122,1923 1117,1784 1115,1673L1112,1470L1165,1470C1195,1470 1221,1475 1227,1483C1232,1489 1235,1538 1234,1590C1231,1726 1231,1818 1233,1957C1235,2082 1237,2087 1273,2081C1278,2080 1388,2077 1518,2075C1648,2072 1755,2070 1755,2070C1755,2069 1787,2068 1825,2066C1864,2064 1900,2062 1905,2061C1916,2060 1918,1981 1907,1964C1904,1958 1904,1950 1908,1946C1912,1942 1915,1840 1916,1719C1917,1598 1919,1498 1921,1496C1936,1484 1988,1484 2005,1496C2024,1510 2025,1522 2025,1783L2025,2055L2815,2055L2815,1792C2815,1647 2818,1526 2821,1524C2824,1522 2847,1524 2871,1528L2915,1536L2913,1590C2912,1620 2910,1737 2907,1850L2903,2055L3164,2055C3307,2055 3483,2057 3555,2060L3685,2065L3689,1995C3691,1957 3693,1829 3694,1713L3695,1500L3736,1500C3769,1500 3779,1504 3783,1520C3794,1562 3796,1967 3786,2033L3782,2060L4023,2061C4156,2062 4322,2063 4392,2064C4537,2065 4521,2078 4526,1963C4528,1931 4530,1896 4530,1885C4532,1856 4532,1691 4532,1573C4531,1512 4535,1470 4541,1470C4553,1470 4602,1501 4612,1514C4618,1523 4616,1759 4608,1983C4606,2046 4608,2060 4620,2060C4660,2060 4965,2071 5045,2076C5180,2084 5264,2086 5278,2082C5285,2079 5290,2064 5290,2046C5287,1908 5298,1578 5306,1571C5311,1566 5338,1560 5367,1556C5413,1550 5418,1551 5414,1567C5412,1577 5409,1698 5407,1837C5404,2018 5407,2090 5415,2094C5421,2096 5448,2096 5476,2094C5635,2081 5644,2081 5672,2098C5705,2117 5706,2125 5681,2166C5663,2196 5659,2198 5613,2194C5508,2185 5424,2183 5409,2191C5396,2198 5394,2261 5393,2741C5392,3039 5396,3294 5401,3306C5406,3320 5405,3332 5400,3335C5395,3338 5394,3351 5399,3363C5403,3375 5404,3396 5401,3409C5397,3423 5397,3457 5400,3484C5403,3512 5405,3572 5405,3617C5405,3687 5408,3700 5422,3704C5432,3706 5442,3705 5444,3701C5446,3698 5506,3695 5577,3695L5705,3695L5706,3720C5708,3745 5693,3799 5680,3813C5671,3823 5636,3831 5570,3836C5540,3838 5486,3843 5450,3847C5414,3851 5383,3853 5380,3852C5377,3852 5374,3935 5374,4038C5373,4198 5365,4421 5358,4447C5356,4456 5371,4732 5376,4770C5377,4784 5379,4883 5379,4990C5378,5329 5380,5433 5385,5438C5390,5444 5418,5443 5550,5436C5618,5432 5638,5434 5652,5447C5677,5469 5674,5492 5645,5520C5623,5541 5615,5542 5563,5536C5501,5528 5378,5528 5371,5536C5363,5543 5366,6491 5374,6785C5385,7163 5383,7143 5404,7146C5414,7147 5424,7151 5427,7154C5430,7156 5443,7155 5455,7150C5476,7142 5598,7136 5676,7139C5693,7139 5719,7150 5734,7161C5760,7181 5760,7183 5744,7201C5735,7212 5715,7220 5701,7220C5686,7220 5666,7226 5655,7234C5641,7244 5601,7248 5520,7248C5457,7248 5398,7249 5389,7249C5375,7250 5374,7275 5377,7468C5378,7587 5380,7697 5380,7712C5380,7734 5386,7741 5408,7746C5458,7757 5563,7799 5596,7822C5626,7842 5638,7858 5641,7882C5641,7886 5650,7913 5661,7942C5690,8022 5684,8097 5645,8136C5637,8144 5634,8158 5637,8167C5642,8179 5639,8182 5627,8177C5618,8174 5606,8178 5598,8188C5587,8201 5587,8203 5600,8195C5613,8187 5613,8189 5601,8203C5594,8212 5584,8217 5579,8214C5574,8211 5560,8220 5548,8233C5527,8256 5520,8257 5450,8253L5375,8249L5375,8447L5376,8645L5455,8651C5551,8658 5734,8655 5772,8646C5787,8643 5801,8644 5805,8649C5817,8669 5812,8865 5798,8905L5785,8944L5684,8944C5628,8943 5579,8941 5574,8938C5560,8931 4992,8938 4840,8947C4689,8956 4299,8955 3925,8945C3592,8937 1797,8935 1595,8943C1308,8955 780,8958 774,8948ZM1598,8644C1739,8641 1863,8639 1873,8639C1883,8639 1890,8631 1891,8617C1893,8569 1892,8420 1885,8125C1878,7770 1876,7464 1880,7337C1881,7289 1880,7246 1876,7243C1873,7239 1787,7236 1686,7235C1586,7234 1499,7231 1494,7229C1483,7223 1423,7225 1283,7235L1181,7243L1186,7289C1189,7314 1193,7445 1195,7579C1198,7713 1202,7825 1204,7828C1207,7830 1205,7843 1200,7856C1195,7869 1194,7881 1198,7884C1202,7886 1204,7915 1203,7947C1200,8015 1200,8511 1203,8585C1206,8656 1211,8660 1281,8655C1314,8652 1457,8648 1598,8644ZM2766,8539C2769,8482 2773,8430 2775,8423C2777,8417 2774,8409 2767,8406C2760,8402 2759,8398 2765,8395C2771,8392 2775,8344 2774,8279C2773,8157 2773,8156 2710,8145C2692,8142 2653,8125 2624,8107C2583,8083 2566,8065 2553,8033C2543,8009 2532,7990 2528,7990C2519,7990 2525,7932 2538,7899C2543,7885 2546,7863 2543,7849C2540,7832 2549,7808 2574,7772C2593,7743 2606,7720 2602,7720C2578,7720 2646,7691 2696,7680L2757,7667L2753,7481C2751,7379 2749,7279 2749,7259L2749,7223L2369,7226C2160,7227 1986,7230 1984,7233C1975,7241 1975,8025 1984,8340L1991,8635L2113,8638C2180,8640 2347,8643 2484,8646C2621,8648 2736,8652 2738,8655C2752,8669 2761,8635 2766,8539ZM3446,8650L3648,8649L3636,8602C3624,8554 3623,8437 3634,8340C3638,8310 3643,8259 3646,8228L3652,8170L3603,8169C3577,8169 3499,8166 3430,8162C3280,8155 2873,8154 2866,8161C2863,8163 2859,8270 2856,8397C2853,8524 2850,8632 2849,8636C2848,8641 2848,8648 2849,8651C2849,8654 2939,8656 3048,8654C3156,8652 3336,8650 3446,8650ZM4467,8637C4473,8631 4475,8211 4469,8206C4467,8204 4364,8200 4240,8196C4116,8192 3986,8186 3950,8182C3914,8177 3851,8174 3810,8174L3735,8175L3735,8395C3735,8516 3738,8622 3742,8631C3749,8646 3784,8648 4105,8645C4301,8644 4463,8640 4467,8637ZM5259,8635C5268,8625 5271,8506 5267,8307C5265,8252 5261,8237 5247,8228C5236,8222 5103,8217 4922,8214C4753,8212 4604,8209 4590,8207C4562,8205 4563,8179 4575,8450C4579,8546 4583,8631 4583,8638C4583,8649 4646,8650 4918,8646C5102,8643 5255,8638 5259,8635ZM5261,7718C5261,7694 5261,7626 5260,7565C5259,7505 5257,7406 5257,7347L5255,7238L5080,7241C4733,7245 4684,7245 4625,7239C4592,7236 4560,7235 4553,7237C4545,7240 4543,7264 4546,7313C4548,7353 4551,7462 4553,7556L4555,7727L4655,7727C4710,7727 4796,7731 4845,7735C4977,7745 5116,7755 5193,7758L5260,7760L5261,7718ZM4454,7477L4455,7232L4145,7231C3975,7230 3824,7228 3810,7227C3761,7221 3752,7234 3745,7322C3742,7368 3738,7475 3737,7560L3735,7715L3845,7718C3906,7719 3969,7721 3985,7723C4002,7724 4114,7724 4234,7724L4454,7722L4454,7477ZM3640,7660C3644,7597 3643,7303 3638,7255L3634,7216L3250,7218C3039,7220 2862,7224 2858,7227C2853,7230 2850,7337 2852,7467L2855,7702L2995,7697C3072,7694 3158,7695 3185,7699C3213,7702 3325,7705 3436,7705L3637,7705L3640,7660ZM4457,7075C4458,7037 4461,6998 4463,6988C4466,6978 4464,6970 4460,6970C4455,6970 4453,6954 4454,6935C4456,6915 4454,6898 4451,6895C4447,6893 4445,6837 4446,6771L4447,6650L4400,6621C4340,6584 4260,6491 4260,6458C4260,6444 4254,6428 4247,6422C4239,6415 4233,6384 4232,6343C4230,6306 4227,6274 4225,6272C4209,6256 4357,6090 4386,6090C4394,6090 4412,6083 4425,6074C4438,6065 4453,6061 4458,6064C4473,6073 4478,6035 4480,5890C4480,5816 4483,5704 4485,5643C4488,5581 4486,5529 4482,5529C4444,5522 4404,5519 4270,5515C4056,5508 3781,5506 3775,5511C3767,5520 3755,6185 3760,6350C3762,6407 3751,6752 3745,6830C3736,6944 3735,7118 3742,7126C3755,7138 3900,7145 4170,7145L4455,7145L4457,7075ZM5252,7079C5247,6941 5248,6530 5254,6430C5270,6186 5277,5687 5266,5610C5264,5596 5262,5573 5261,5558L5260,5531L5163,5530C5109,5529 5049,5527 5030,5525C4980,5520 4589,5517 4584,5522C4578,5529 4570,5678 4566,5878L4562,6060L4598,6060C4623,6060 4644,6068 4661,6084C4704,6124 4760,6196 4760,6212C4760,6219 4766,6232 4773,6239C4781,6247 4785,6281 4784,6338C4784,6410 4779,6432 4760,6465C4710,6550 4624,6630 4568,6644C4538,6651 4539,6645 4539,6820L4539,7004L4540,7139L4573,7143C4590,7145 4751,7146 4930,7145L5255,7143L5252,7079ZM1733,7118C1808,7118 1870,7115 1871,7111C1875,7087 1880,6844 1880,6745C1879,6679 1879,6612 1879,6595C1879,6535 1877,5801 1876,5663C1875,5576 1871,5520 1865,5519C1849,5517 1823,5518 1690,5526C1545,5534 1378,5537 1367,5532C1363,5530 1325,5528 1282,5527L1205,5525L1208,5580C1217,5730 1212,6046 1194,6412C1187,6573 1182,7101 1188,7118C1192,7128 1234,7130 1394,7125C1504,7121 1657,7118 1733,7118ZM3647,7018C3648,6956 3651,6727 3655,6510C3658,6293 3661,6014 3662,5890C3662,5766 3667,5657 3671,5648C3677,5638 3676,5629 3670,5625C3660,5619 3662,5571 3674,5552C3677,5546 3674,5535 3666,5528C3656,5517 3620,5515 3514,5516C3437,5517 3266,5519 3132,5521C2984,5523 2886,5528 2883,5534C2879,5540 2875,5600 2874,5670C2872,5739 2868,5863 2865,5945C2852,6253 2851,7108 2863,7113C2870,7115 2924,7118 2984,7118C3043,7118 3094,7120 3095,7122C3097,7124 3222,7126 3373,7128L3647,7130L3647,7018ZM2235,7109C2307,7108 2449,7110 2553,7112L2740,7116L2741,7050C2742,6911 2749,6636 2755,6430C2759,6312 2763,6136 2765,6040C2767,5944 2770,5787 2772,5692L2775,5519L2406,5516C2203,5515 2027,5515 2014,5518L1991,5522L1991,5719C1990,5827 1987,6007 1984,6120C1978,6350 1971,7102 1975,7110C1977,7113 2007,7114 2042,7113C2076,7112 2164,7110 2235,7109ZM1355,5415C1399,5412 1536,5408 1660,5406L1885,5402L1887,5219C1887,5118 1889,4989 1891,4933C1893,4877 1892,4828 1889,4825C1885,4822 1885,4805 1887,4787C1892,4757 1894,4585 1890,4585C1889,4585 1887,4555 1887,4517C1886,4480 1889,4450 1893,4450C1898,4450 1898,4445 1894,4439C1890,4432 1886,4292 1885,4126L1883,3825L1799,3822C1726,3820 1330,3818 1245,3820L1215,3820L1213,4193C1206,5218 1206,5396 1212,5411C1216,5422 1227,5426 1247,5424C1262,5422 1311,5418 1355,5415ZM2970,5420C2970,5415 2966,5410 2960,5410C2955,5410 2950,5415 2950,5420C2950,5426 2955,5430 2960,5430C2966,5430 2970,5426 2970,5420ZM5256,5417C5274,5399 5278,4215 5260,4215C5259,4215 5257,4193 5255,4167C5253,4141 5246,4112 5240,4105C5233,4097 5232,4090 5237,4090C5247,4090 5248,4054 5238,4044C5234,4041 5235,4028 5240,4015C5245,4001 5245,3989 5237,3981C5229,3973 5229,3970 5237,3970C5244,3970 5249,3962 5249,3953C5249,3943 5250,3924 5251,3910C5254,3861 5250,3850 5221,3836C5205,3827 5191,3823 5188,3825C5184,3829 4921,3829 4646,3826L4567,3825L4567,4015C4567,4120 4570,4286 4574,4385C4579,4484 4583,4753 4584,4983C4585,5253 4589,5400 4595,5400C4601,5401 4639,5403 4680,5406C4721,5408 4808,5412 4873,5414C4938,5416 4993,5419 4995,5421C5002,5429 5249,5425 5256,5417ZM4500,5384C4515,5298 4491,3856 4473,3827C4471,3823 4434,3819 4392,3819C4349,3819 4191,3818 4040,3816C3889,3814 3761,3814 3755,3816C3749,3819 3745,3910 3745,4063L3745,4305L3790,4316C3836,4327 3967,4417 3984,4448C3989,4457 3996,4467 4000,4470C4013,4480 4022,4517 4027,4585C4029,4624 4032,4657 4033,4660C4035,4672 4016,4746 4010,4750C4007,4753 3993,4771 3979,4791C3941,4847 3838,4937 3800,4947L3765,4956L3766,5031C3767,5072 3768,5125 3769,5150C3770,5175 3770,5242 3768,5299L3765,5403L4097,5404C4279,5405 4431,5408 4435,5412C4439,5415 4454,5417 4468,5416C4489,5413 4496,5406 4500,5384ZM2166,5394C2378,5383 2736,5390 2771,5404C2785,5410 2787,5389 2786,5195C2785,5075 2789,4980 2794,4980C2798,4980 2797,4973 2790,4965C2780,4953 2780,4950 2791,4950C2800,4950 2801,4947 2793,4939C2786,4932 2785,4917 2789,4901C2800,4862 2791,4275 2780,4275C2779,4275 2777,4223 2774,4160C2772,4097 2768,4016 2765,3980C2762,3944 2760,3898 2759,3878L2759,3841L2537,3841C2342,3842 2152,3837 2040,3828L2005,3825L2007,3880C2008,3910 2009,3946 2011,3960C2012,3974 2009,4017 2005,4055C1998,4118 1995,4297 2001,4375C2002,4392 1999,4432 1995,4465C1983,4558 1988,4863 2005,5023C2006,5038 2003,5050 1998,5050C1993,5050 1992,5055 1996,5062C2005,5076 2004,5355 1995,5370C1987,5382 2008,5412 2020,5405C2024,5403 2090,5397 2166,5394ZM3661,5401C3665,5345 3669,5256 3669,5183L3669,5078C3669,5071 3670,5043 3672,5016C3675,4968 3675,4967 3635,4950C3590,4930 3517,4861 3493,4815C3484,4799 3471,4754 3464,4716C3452,4656 3452,4638 3466,4586C3482,4522 3528,4431 3564,4392C3576,4380 3600,4360 3618,4348C3656,4325 3673,4291 3658,4273C3651,4264 3651,4260 3659,4260C3666,4260 3668,4255 3664,4248C3660,4242 3655,4155 3653,4056C3651,3956 3648,3864 3647,3850L3645,3826L3515,3829C3291,3835 3148,3836 3145,3830C3143,3827 3084,3825 3013,3826L2885,3827L2884,3911C2878,4269 2878,4642 2885,4730C2889,4788 2893,4846 2894,4860C2895,4874 2890,4919 2884,4960C2878,5001 2874,5044 2876,5055C2884,5095 2884,5225 2877,5238C2872,5244 2873,5250 2879,5250C2885,5250 2886,5261 2882,5278C2875,5303 2875,5314 2879,5375C2880,5394 2887,5395 3088,5395C3202,5395 3347,5397 3410,5400C3576,5407 3660,5408 3661,5401ZM1895,3611C1895,3550 1899,3500 1903,3500C1908,3500 1908,3495 1905,3490C1902,3484 1900,3443 1901,3397C1905,3278 1902,2382 1898,2270L1895,2175L1850,2177C1825,2178 1678,2181 1523,2183L1240,2187L1235,2521C1232,2705 1228,2902 1226,2960C1221,3085 1208,3608 1209,3630C1210,3638 1210,3659 1210,3677C1211,3717 1187,3714 1580,3719L1895,3722L1895,3611ZM2765,3700C2767,3692 2772,3575 2775,3440C2778,3305 2783,3130 2785,3050C2787,2970 2792,2772 2795,2610C2798,2448 2802,2287 2804,2252C2805,2217 2801,2186 2795,2182C2790,2178 2613,2175 2403,2175L2021,2175L2015,2530C2011,2725 2007,2959 2005,3050C2002,3201 1999,3508 2000,3655L2000,3716L2380,3715C2709,3715 2761,3713 2765,3700ZM3665,3685C3677,3618 3688,3089 3689,2600C3690,2470 3691,2349 3693,2246L3695,2167L3555,2169C3279,2173 2905,2181 2903,2183C2901,2186 2892,2518 2885,2915C2881,3141 2879,3420 2880,3666L2880,3718L3660,3716L3665,3685ZM4472,3711C4486,3710 4488,3699 4483,3623C4474,3477 4480,3067 4494,2820C4497,2779 4501,2644 4505,2520C4508,2396 4512,2270 4514,2238C4517,2186 4515,2181 4494,2177C4459,2171 4330,2167 4050,2166L3796,2165L3793,2240C3792,2281 3789,2549 3786,2835C3783,3121 3778,3393 3775,3440C3767,3545 3762,3703 3767,3712C3769,3716 4357,3716 4472,3711ZM4937,3706L5264,3703L5266,3534C5267,3441 5271,3318 5275,3260C5279,3202 5283,3116 5284,3069C5286,3022 5290,2978 5294,2972C5298,2965 5296,2960 5290,2960C5284,2960 5282,2955 5286,2948C5294,2935 5301,2264 5293,2215L5288,2185L5177,2184C5115,2183 4984,2179 4885,2175C4670,2166 4612,2171 4606,2203C4603,2215 4598,2308 4595,2410C4592,2512 4587,2645 4585,2705C4574,2983 4569,3195 4567,3434C4564,3644 4566,3695 4578,3706C4585,3714 4596,3718 4600,3715C4605,3712 4757,3708 4937,3706Z" style="fill-rule:nonzero;"/>
                <path d="M4862,6977C4838,6952 4820,6903 4827,6883C4835,6860 4862,6869 4895,6906C4938,6953 4954,6944 4947,6878C4942,6840 4931,6817 4893,6769C4806,6660 4800,6649 4810,6630C4824,6604 4843,6599 4979,6589C5099,6580 5103,6580 5121,6602C5159,6645 5137,6657 5008,6665C4954,6669 4910,6675 4910,6679C4910,6682 4924,6700 4940,6718C5012,6797 5037,6925 4991,6974C4958,7009 4893,7010 4862,6977Z" style="fill-rule:nonzero;"/>
                <path d="M4174,5302C4138,5298 4103,5266 4098,5230C4094,5201 4127,5189 4144,5212C4150,5221 4170,5227 4190,5226C4218,5225 4226,5221 4228,5204C4230,5188 4218,5173 4181,5145C4107,5091 4118,5049 4204,5052C4244,5053 4280,5028 4280,4999C4280,4977 4221,4940 4185,4940C4166,4940 4147,4951 4125,4976C4067,5040 4023,5001 4078,4934C4136,4864 4186,4854 4264,4898C4332,4935 4354,4968 4346,5015C4339,5050 4298,5102 4268,5113C4258,5116 4261,5124 4278,5142C4308,5174 4306,5214 4273,5260C4244,5300 4227,5307 4174,5302Z" style="fill-rule:nonzero;"/>
                <path d="M6017,8323C6015,8318 6010,8302 6006,8286C6000,8260 5953,8200 5858,8096C5837,8073 5834,8062 5841,8048C5862,8010 5899,8033 5978,8134C5990,8150 6002,8161 6004,8159C6006,8157 6010,8101 6014,8035C6022,7899 6031,7878 6076,7899C6102,7911 6103,7912 6096,7983C6092,8023 6087,8111 6084,8179C6080,8280 6075,8306 6062,8317C6043,8331 6023,8334 6017,8323Z" style="fill-rule:nonzero;"/>
                <path d="M998,3653C1005,3650 1014,3651 1017,3654C1021,3657 1015,3660 1004,3659C993,3659 990,3656 998,3653Z" style="fill-rule:nonzero;"/>
            </g>
        </g>
        <g id="Bm-Eb1" serif:id="Bm-Eb">
        </g>
    </g>
</svg>
