<?xml version="1.0" encoding="iso-8859-1"?>
<!-- Generator: Adobe Illustrator 16.0.0, SVG Export Plug-In . SVG Version: 6.00 Build 0)  -->
<!DOCTYPE svg PUBLIC "-//W3C//DTD SVG 1.1//EN" "http://www.w3.org/Graphics/SVG/1.1/DTD/svg11.dtd">
<svg version="1.1" xmlns="http://www.w3.org/2000/svg" xmlns:xlink="http://www.w3.org/1999/xlink" x="0px" y="0px"
	 width="175.663px" height="298.864px" viewBox="0 0 175.663 298.864" style="enable-background:new 0 0 175.663 298.864;"
	 xml:space="preserve">
<g id="Gm">
	<g id="Gm_1_">
		<path style="fill:none;" d="M0,0c58.549,0,117.098,0,175.663,0c0,100.05,0,200.106,0,300.198c-58.544,0-117.104,0-175.663,0
			C0,200.14,0,100.073,0,0z M151.323,186.565c-0.095-0.699-0.14-1.252-0.249-1.79c-0.273-1.341-0.445-1.526-1.771-1.642
			c-1.272-0.109-2.553-0.124-3.829-0.193c-0.757-0.041-1.513-0.102-2.268-0.166c-0.688-0.059-0.929-0.43-0.888-1.127
			c0.095-1.594,0.188-3.195,0.161-4.791c-0.035-2.069-0.189-4.138-0.295-6.262c0.146-0.055,0.329-0.119,0.51-0.191
			c1.621-0.655,3.369-1.107,4.836-2.013c2.711-1.673,3.714-4.308,3.252-7.433c-0.452-3.061-2.162-5.46-4.292-7.586
			c-0.284-0.283-0.75-0.425-1.158-0.533c-0.983-0.262-1.982-0.465-2.964-0.689c0-3.828,0-7.49,0-11.156
			c1.35-0.391,2.595-0.178,3.867-0.012c0.967,0.125,1.972,0.012,2.952-0.081c0.229-0.021,0.552-0.353,0.614-0.597
			c0.203-0.788-0.681-1.881-1.496-1.831c-1.396,0.084-2.784,0.269-4.178,0.372c-0.657,0.049-1.32,0.008-1.963,0.008
			c-0.917-8.279-0.73-37.486,0.279-43.241c0.396-0.033,0.827-0.125,1.249-0.096c1.514,0.108,3.023,0.27,4.536,0.388
			c1.308,0.103,2.516-0.07,3.323-1.266c-1.669-1.643-3.554-1.997-5.697-1.445c-0.883,0.227-1.81,0.359-2.72,0.377
			c-1.354,0.028-1.674-0.399-1.588-1.742c0.104-1.634,0.247-3.27,0.263-4.906c0.04-4.196,0.011-8.393,0.033-12.588
			c0.004-0.755,0.267-1.53,0.161-2.26c-0.617-4.261-0.443-8.537-0.358-12.812c0.018-0.908,0.118-1.814,0.183-2.759
			c3.754,0,7.412,0,11.153,0c0.218-2.536,0.293-5.06-0.778-7.515c-2.096,0.141-4.124,0.39-6.153,0.389
			c-4.836-0.003-9.673-0.159-14.51-0.189c-6.354-0.04-12.71-0.029-19.064-0.021c-3.555,0.004-7.109,0.045-10.664,0.071
			c-0.279,0.002-0.559,0.012-0.835,0.038c-2.023,0.187-4.042,0.471-6.069,0.543c-2.153,0.077-4.315-0.119-6.471-0.068
			c-4.517,0.106-9.029,0.349-13.546,0.438c-6.713,0.133-13.429,0.291-20.143,0.243c-10.555-0.076-21.109-0.315-31.664-0.481
			c-0.869-0.014-1.737-0.001-2.726-0.001c0,1.676-0.141,3.162,0.029,4.611c0.358,3.062,0.236,2.873,3.242,2.973
			c1.436,0.047,2.877-0.048,4.312,0.013c1.245,0.053,1.261,0.11,1.278,1.31c0.063,4.398,0.061,8.797,0.179,13.194
			c0.179,6.685-0.119,13.35-0.655,20.008c-0.079,0.977-0.239,1.948-0.369,2.98c-0.408-0.042-0.682-0.051-0.949-0.101
			c-1.413-0.267-2.821-0.555-4.235-0.813c-0.679-0.124-1.646,0.464-1.822,1.169c-0.194,0.781,0.39,1.146,0.977,1.438
			c0.245,0.123,0.523,0.219,0.794,0.241c1.112,0.092,2.228,0.137,3.34,0.225c0.816,0.065,1.629,0.17,2.517,0.265
			c0,0.61-0.003,1.044,0,1.479c0.026,2.799,0.034,5.599,0.085,8.397c0.152,8.353,0.355,16.706,0.463,25.059
			c0.032,2.544-0.18,5.092-0.287,7.787c-0.811-0.055-1.474-0.113-2.138-0.14c-1.395-0.056-2.792-0.146-4.186-0.12
			c-0.899,0.018-1.704,0.371-2.212,1.281c0.212,0.199,0.38,0.492,0.609,0.551c0.951,0.24,1.916,0.541,2.883,0.573
			c1.271,0.042,2.548-0.164,3.825-0.231c0.818-0.043,1.383,0.289,1.502,1.176c0.128,0.947,0.443,1.905,0.37,2.835
			c-0.192,2.417-0.552,4.822-0.852,7.295c-0.106,0.026-0.254,0.088-0.405,0.099c-2.292,0.162-3.967,1.377-5.274,3.156
			c-1.688,2.3-2.489,4.922-2.451,7.753c0.044,3.243,1.371,5.798,4.375,7.296c1,0.498,2.008,0.992,3.046,1.4
			c0.665,0.263,0.874,0.641,0.887,1.346c0.038,2.076,0.188,4.15,0.25,6.228c0.042,1.419,0.008,2.841,0.008,4.21
			c-2.715,0.668-5.42-0.01-8.149,0.931c0.445,0.941,0.827,1.746,1.203,2.542c1.397-0.266,2.681-0.54,3.976-0.746
			c1.35-0.215,2.67-0.045,4.166,0.408c0.062,13.137,0.125,26.205,0.179,39.274c0.001,0.269-0.089,0.538-0.158,0.93
			c-1.425-0.103-2.812-0.21-4.201-0.3c-1.286-0.082-2.563-0.059-3.75,0.543c-0.813,0.412-0.937,0.975-0.262,1.567
			c0.335,0.295,0.83,0.493,1.277,0.556c0.542,0.074,1.115-0.01,1.668-0.08c1.228-0.155,2.447-0.418,3.678-0.504
			c1.838-0.127,2.68,0.822,2.472,2.64c-0.014,0.119-0.041,0.237-0.062,0.354c-0.806,4.425-1.012,8.893-0.923,13.377
			c0.115,5.795,0.271,11.59,0.384,17.387c0.053,2.717-0.001,5.436,0.086,8.15c0.032,0.98-0.362,1.286-1.233,1.284
			c-0.838-0.002-1.675,0.019-2.513,0.031c-1.379,0.021-2.757,0.041-4.415,0.065c0.49,1.248,0.858,2.185,1.239,3.154
			c1.044-0.295,1.961-0.557,2.88-0.814c1.102-0.309,2.199-0.332,3.307,0c0.523,0.156,0.812,0.42,0.843,0.997
			c0.06,1.116,0.19,2.229,0.255,3.346c0.179,3.113,0.333,6.228,0.516,9.341c0.029,0.491,0.157,0.978,0.266,1.625
			c0.796-0.52,1.42-0.927,2.083-1.359c0-0.438,0.009-0.877-0.001-1.315c-0.071-2.917-0.178-5.835-0.206-8.752
			c-0.013-1.38,0.113-2.762,0.493-3.945c5.922-0.204,11.658-0.401,17.437-0.601c0,5.184,0,10.12,0,15.18
			c0.691,0.123,1.41,0.252,2.244,0.4c0.538-5.264-0.47-10.427,0.348-15.461c6.916,0,13.797,0,20.795,0
			c-0.102,4.096-0.192,8.004-0.301,11.912c-0.02,0.696-0.088,1.381,0.914,1.706c0.47-0.584,1.042-1.152,1.44-1.823
			c0.949-1.6,0.863-3.367,0.652-5.132c-0.235-1.98-0.614-3.953-0.13-5.954c0.164-0.68,0.465-1.032,1.223-0.967
			c0.874,0.076,1.757,0.092,2.635,0.084c5.117-0.046,10.233-0.108,15.35-0.156c0.501-0.005,1.002,0.05,1.444,0.073
			c-0.06,2.557-0.066,4.951-0.187,7.34c-0.094,1.863-0.29,3.724-0.521,5.576c-0.075,0.6-0.138,1.105,0.386,1.504
			c0.668,0.507,1.388,0.516,2.154,0.24c0.697-0.25,0.517-0.827,0.511-1.314c-0.038-3.078-0.146-6.156-0.128-9.233
			c0.009-1.449,0.245-2.898,0.376-4.323c6.503,0,12.797,0,19.012,0c0.238,1.909,0.451,3.688,0.685,5.466
			c0.262,1.986-0.275,3.89-0.558,5.822c-0.212,1.447,0.17,2.147,1.483,2.748c0.262-0.614,0.586-1.208,0.772-1.843
			c0.566-1.927,0.303-3.884,0.127-5.834c-0.19-2.107-0.369-4.215,0.127-6.421c5.935,0,11.83,0,17.8,0
			c0.565,4.938,0.638,9.756,0.358,14.58c0.576,0.346,1.103,0.662,1.79,1.075c0.184-0.66,0.411-1.141,0.437-1.631
			c0.078-1.513,0.12-3.028,0.102-4.542c-0.032-2.592-0.262-5.189-0.14-7.771c0.098-2.049,0.272-1.988,2.342-1.838
			c2.421,0.177,4.851,0.287,7.318-0.168c-0.014-0.312-0.015-0.545-0.036-0.775c-0.145-1.557-0.434-1.944-1.982-2.201
			c-1.179-0.194-2.382-0.262-3.577-0.319c-1.065-0.052-2.137-0.011-3.163-0.011c-0.666-3.297-0.649-39.98,0.025-42.348
			c0.951,0.145,1.92,0.348,2.899,0.426c0.985,0.077,2.001,0.148,2.964-0.012c0.476-0.08,1.182-0.66,1.219-1.066
			c0.069-0.74-0.525-1.312-1.322-1.464c-0.425-0.081-0.874-0.11-1.305-0.075c-0.716,0.057-1.424,0.215-2.141,0.272
			c-0.979,0.079-1.962,0.105-3.074,0.161c0-0.65,0.005-1.121,0-1.592c-0.043-3.639-0.082-7.277-0.131-10.916
			c-0.118-8.837-0.227-17.674,0.284-26.504c0.023-0.416,0.104-0.828,0.164-1.283C146.318,186.565,148.774,186.565,151.323,186.565z
			 M72.183,25.27c0.095-2.025,0.312-4.052,0.236-6.067c-0.04-1.072-0.443-2.203-0.959-3.159c-0.336-0.624-1.151-1.354-1.781-1.383
			c-1.571-0.072-3.171,0.158-4.736,0.409c-0.86,0.138-1.399,1.957-0.872,2.667c0.451,0.608,1.089,0.768,1.814,0.618
			c0.78-0.162,1.555-0.384,2.344-0.475c0.925-0.107,1.306,0.431,0.833,1.237c-0.285,0.486-0.771,0.962-1.278,1.189
			c-1.99,0.891-4.037,0.867-6.041,0.019c-0.362-0.153-0.758-0.524-0.888-0.885c-0.763-2.105-0.806-5.716,1.433-7.965
			c1.776-1.785,4.013-1.933,6.019-0.428c0.5,0.375,1.07,0.725,1.662,0.894c0.875,0.25,1.163-0.043,1.175-0.95
			c0.021-1.565-0.757-2.675-2.076-3.39C66.639,6.287,62.669,5.943,60,8.768c-2.491,2.637-3.385,5.799-3.128,9.355
			c0.156,2.156,1.182,3.784,2.993,4.91c1.977,1.228,4.156,1.6,6.443,1.317c0.929-0.115,1.843-0.352,2.758-0.532
			C69.553,25.545,69.99,25.778,72.183,25.27z M83.284,15.024c-1.284-1.133-2.804-0.965-4.297-0.59
			c-1.075,0.27-1.991,0.48-2.959-0.409c-0.668-0.614-1.167-0.312-1.435,0.605c-0.057,0.191-0.121,0.382-0.152,0.578
			c-0.39,2.425-0.445,4.864,0.063,7.265c0.226,1.063,0.708,2.1,1.242,3.055c0.185,0.329,0.873,0.475,1.339,0.491
			c0.148,0.005,0.436-0.67,0.463-1.048c0.108-1.553,0.065-3.119,0.234-4.664c0.088-0.801,0.358-1.664,0.802-2.328
			c0.75-1.124,2.175-1.039,3.006,0.02c0.68,0.866,0.862,1.877,0.877,2.926c0.012,0.837-0.071,1.675-0.094,2.513
			c-0.018,0.661,0.842,1.619,1.561,1.703c0.819,0.096,1.146-0.522,1.31-1.137c0.171-0.645,0.23-1.336,0.224-2.006
			c-0.013-1.157-0.129-2.312-0.175-3.468c-0.025-0.627,0.139-1.143,0.78-1.478c1.483-0.773,2.536-0.415,3.12,1.162
			c0.165,0.445,0.287,0.917,0.352,1.387c0.225,1.62,0.464,3.24,0.601,4.868c0.073,0.873,0.505,1.185,1.286,1.209
			c0.312,0.01,0.626,0.001,0.896,0.001c1.602-3.329,0.757-8.274-1.771-10.669c-1.328-1.259-2.889-1.688-4.638-1.13
			C85.054,14.159,84.242,14.603,83.284,15.024z M72.259,30.305c-1.455,0.291-2.317,1.299-2.407,2.706
			c-0.105,1.654,0.012,3.329,0.116,4.989c0.117,1.858,0.683,3.701,0.068,5.571c-0.389,1.184,0.126,1.931,1.371,2.003
			c2.132,0.125,4.228-0.125,6.262-0.762c1.491-0.467,2.9-1.113,4.058-2.216c1.713-1.632,2.175-3.73,1.25-5.898
			c-1.394-3.27-5.953-6.393-9.215-6.04C73.279,30.711,72.761,30.431,72.259,30.305z M101.549,44.66
			c0.06,0.528,0.032,0.985,0.181,1.376c0.109,0.289,0.456,0.698,0.685,0.689c0.623-0.023,1.259-0.188,1.848-0.408
			c0.17-0.063,0.302-0.512,0.277-0.768c-0.178-1.859-0.459-3.709-0.59-5.57c-0.101-1.442-0.785-2.364-2.273-2.518
			c-0.823-0.085-1.673,0.007-2.503,0.088c-0.794,0.078-1.575,0.276-2.367,0.365c-1.343,0.15-1.453,0.349-1.171,1.636
			c0.179,0.815,0.601,1.062,1.349,0.935c0.628-0.107,1.25-0.267,1.882-0.339c0.483-0.055,0.979-0.011,1.503-0.011
			c-0.034,1.358-0.688,2.205-1.812,2.517c-0.981,0.273-2.044,0.245-3.063,0.4c-1.271,0.194-1.958-0.503-2.369-1.544
			c-0.963-2.436-0.727-4.768,0.739-6.953c1.393-2.074,4.456-2.425,5.88-0.296c0.42,0.629,1.007,1.155,1.965,1
			c0.212-1.362-0.121-2.587-1.224-3.406c-0.85-0.631-1.881-1.021-2.847-1.489c-0.151-0.073-0.394-0.034-0.567,0.028
			c-1.163,0.412-2.358,0.763-3.472,1.287c-3.085,1.45-4.235,3.687-3.436,7.527C91.008,43.258,96.207,47.229,101.549,44.66z
			 M53.794,41.646c0.716,1.16,1.396,2.38,2.198,3.514c0.428,0.604,1.087,0.973,1.88,0.491c0.82-0.498,1.032-1.023,0.549-2.015
			c-0.979-2.008-2.016-3.991-3.095-5.947c-1.16-2.104-2.293-4.207-2.816-6.584c-0.068-0.308-0.365-0.686-0.648-0.799
			c-0.461-0.184-0.777,0.111-1.007,0.578c-2.049,4.155-4.137,8.292-6.182,12.449c-0.597,1.212-0.21,1.871,1.365,2.325
			c0.197-0.533,0.468-1.064,0.584-1.627c0.255-1.232,0.968-1.84,2.214-1.931C50.462,41.979,52.084,41.804,53.794,41.646z
			 M27.234,38.564c1.062-0.161,1.922-0.318,2.789-0.415c0.776-0.086,0.994-0.56,0.983-1.239c-0.014-0.83-0.547-1.235-1.263-1.371
			c-0.849-0.161-1.719-0.216-2.601-0.32c-0.045-0.243-0.091-0.474-0.13-0.707c-0.214-1.266-0.088-1.491,1.175-1.665
			c0.907-0.125,1.829-0.153,2.746-0.186c0.826-0.029,1.653-0.006,2.618-0.006c0.121-1.099,0.226-2.049,0.348-3.164
			c-2.443,0-4.665-0.26-6.797,0.064c-2.847,0.433-2.603,0.572-2.46,2.85c0.22,3.5,0.762,6.979,1.176,10.465
			c0.078,0.656,0.198,1.307,0.312,2.042c2.937-0.167,5.753-0.327,8.606-0.489c0.098-0.856,0.178-1.556,0.26-2.274
			c-2.307-0.676-4.585,0.001-6.987-0.192C27.756,40.856,27.505,39.755,27.234,38.564z M121.607,38.949
			c0.032,0.464,0.104,0.934,0.09,1.401c-0.04,1.316-0.075,2.635-0.19,3.946c-0.083,0.939,0.451,1.308,1.203,1.486
			s1.252-0.018,1.516-0.892c0.157-0.519,0.19-0.936,0.102-1.455c-0.167-0.979-0.283-1.975-0.304-2.967
			c-0.033-1.596,0.123-3.201,0.018-4.791c-0.075-1.134-0.347-2.284-0.722-3.36c-0.272-0.783-0.789-1.53-1.88-1.81
			c0,1.749,0.027,3.382-0.01,5.013c-0.027,1.209-0.082,1.288-1.31,1.354c-1.307,0.07-2.621,0.016-3.987,0.016
			c-0.594-1.907-0.327-3.803-0.101-5.707c-0.97-0.354-1.883-0.688-2.805-1.024c0.261,4.887,0.515,9.65,0.777,14.584
			c0.707-0.036,1.268-0.064,1.977-0.101c0.105-1.257,0.309-2.403,0.271-3.541c-0.047-1.449-0.072-1.583,1.346-1.789
			C118.852,39.134,120.123,39.079,121.607,38.949z M146.198,44.375c-1.019-1.27-2.192-1.702-3.681-1.505
			c-1.444,0.191-2.906,0.251-4.362,0.369c-0.082-0.599-0.106-0.994-0.192-1.374c-0.289-1.286-0.098-1.6,1.236-1.789
			c0.548-0.078,1.112-0.053,1.669-0.062c0.546-0.009,1.093-0.002,1.865-0.002c-0.263-1.014-0.492-1.9-0.711-2.741
			c-1.52-0.073-2.865,0.497-4.131-0.058c-0.142-1.199-0.271-2.295-0.415-3.514c0.987,0,1.856-0.002,2.726,0
			c1.237,0.003,2.479,0.084,3.71-0.005c1.354-0.099,1.524-0.401,1.302-1.774c-0.044-0.273-0.128-0.542-0.212-0.807
			c-0.173-0.542-0.51-0.687-1.099-0.63c-2.02,0.194-4.045,0.327-6.07,0.451c-0.781,0.048-1.567,0.008-2.415,0.008
			c0.226,4.902,0.338,9.665,1.114,14.449C139.792,44.949,143.062,46.159,146.198,44.375z M16.307,160.88
			c0.324-3.693,0.67-7.271,0.931-10.854c0.068-0.93-0.127-1.879-0.195-2.736c-0.697-0.27-1.041-0.172-1.394,0.315
			c-0.63,0.869-1.377,1.651-2.062,2.481c-0.735,0.892-1.511,1.756-2.163,2.705c-0.563,0.819-0.599,1.761-0.262,2.729
			c1.145-0.045,1.593-0.799,2.045-1.562c0.431-0.728,0.772-1.561,1.661-1.721c0,2.715,0,5.375,0,8.096
			C15.222,160.468,15.7,160.649,16.307,160.88z"/>
		<path style="fill-rule:evenodd;clip-rule:evenodd;" d="M151.323,186.565c-2.549,0-5.005,0-7.605,0
			c-0.06,0.455-0.141,0.867-0.164,1.283c-0.511,8.83-0.402,17.667-0.284,26.504c0.049,3.639,0.088,7.277,0.131,10.916
			c0.005,0.471,0,0.941,0,1.592c1.112-0.056,2.096-0.082,3.074-0.161c0.717-0.058,1.425-0.216,2.141-0.272
			c0.431-0.035,0.88-0.006,1.305,0.075c0.797,0.152,1.392,0.724,1.322,1.464c-0.037,0.406-0.743,0.986-1.219,1.066
			c-0.963,0.16-1.979,0.089-2.964,0.012c-0.979-0.078-1.948-0.281-2.899-0.426c-0.675,2.367-0.691,39.051-0.025,42.348
			c1.026,0,2.098-0.041,3.163,0.011c1.195,0.058,2.398,0.125,3.577,0.319c1.549,0.257,1.838,0.645,1.982,2.201
			c0.021,0.23,0.022,0.463,0.036,0.775c-2.468,0.455-4.897,0.345-7.318,0.168c-2.069-0.15-2.244-0.211-2.342,1.838
			c-0.122,2.582,0.107,5.18,0.14,7.771c0.019,1.514-0.023,3.029-0.102,4.542c-0.025,0.49-0.253,0.971-0.437,1.631
			c-0.688-0.413-1.214-0.729-1.79-1.075c0.279-4.824,0.207-9.643-0.358-14.58c-5.97,0-11.865,0-17.8,0
			c-0.496,2.206-0.317,4.313-0.127,6.421c0.176,1.95,0.439,3.907-0.127,5.834c-0.187,0.635-0.511,1.229-0.772,1.843
			c-1.313-0.601-1.695-1.301-1.483-2.748c0.282-1.933,0.819-3.836,0.558-5.822c-0.233-1.777-0.446-3.557-0.685-5.466
			c-6.215,0-12.509,0-19.012,0c-0.131,1.425-0.367,2.874-0.376,4.323c-0.018,3.077,0.09,6.155,0.128,9.233
			c0.006,0.487,0.187,1.064-0.511,1.314c-0.767,0.275-1.486,0.267-2.154-0.24c-0.523-0.398-0.461-0.904-0.386-1.504
			c0.231-1.853,0.428-3.713,0.521-5.576c0.12-2.389,0.127-4.783,0.187-7.34c-0.442-0.023-0.943-0.078-1.444-0.073
			c-5.116,0.048-10.232,0.11-15.35,0.156c-0.878,0.008-1.761-0.008-2.635-0.084c-0.758-0.065-1.059,0.287-1.223,0.967
			c-0.484,2.001-0.105,3.974,0.13,5.954c0.211,1.765,0.297,3.532-0.652,5.132c-0.398,0.671-0.971,1.239-1.44,1.823
			c-1.002-0.325-0.934-1.01-0.914-1.706c0.108-3.908,0.199-7.816,0.301-11.912c-6.998,0-13.88,0-20.795,0
			c-0.818,5.034,0.19,10.197-0.348,15.461c-0.834-0.148-1.553-0.277-2.244-0.4c0-5.06,0-9.996,0-15.18
			c-5.779,0.199-11.515,0.396-17.437,0.601c-0.379,1.184-0.506,2.565-0.493,3.945c0.028,2.917,0.135,5.835,0.206,8.752
			c0.011,0.438,0.001,0.877,0.001,1.315c-0.663,0.433-1.288,0.84-2.083,1.359c-0.109-0.647-0.237-1.134-0.266-1.625
			c-0.183-3.113-0.337-6.228-0.516-9.341c-0.064-1.116-0.195-2.229-0.255-3.346c-0.031-0.577-0.32-0.841-0.843-0.997
			c-1.108-0.332-2.205-0.309-3.307,0c-0.918,0.258-1.835,0.52-2.88,0.814c-0.381-0.97-0.749-1.906-1.239-3.154
			c1.657-0.024,3.036-0.045,4.415-0.065c0.838-0.013,1.675-0.033,2.513-0.031c0.871,0.002,1.265-0.304,1.233-1.284
			c-0.087-2.715-0.033-5.434-0.086-8.15c-0.112-5.797-0.269-11.592-0.384-17.387c-0.089-4.484,0.117-8.952,0.923-13.377
			c0.021-0.117,0.048-0.235,0.062-0.354c0.208-1.817-0.634-2.767-2.472-2.64c-1.231,0.086-2.45,0.349-3.678,0.504
			c-0.553,0.07-1.125,0.154-1.668,0.08c-0.447-0.062-0.942-0.261-1.277-0.556c-0.675-0.593-0.551-1.155,0.262-1.567
			c1.187-0.602,2.464-0.625,3.75-0.543c1.388,0.09,2.775,0.197,4.201,0.3c0.069-0.392,0.159-0.661,0.158-0.93
			c-0.055-13.069-0.117-26.138-0.179-39.274c-1.495-0.453-2.816-0.623-4.166-0.408c-1.294,0.206-2.578,0.48-3.976,0.746
			c-0.376-0.796-0.757-1.601-1.203-2.542c2.729-0.94,5.434-0.263,8.149-0.931c0-1.369,0.034-2.791-0.008-4.21
			c-0.061-2.077-0.211-4.151-0.25-6.228c-0.013-0.705-0.222-1.083-0.887-1.346c-1.039-0.408-2.046-0.902-3.046-1.4
			c-3.005-1.498-4.332-4.053-4.375-7.296c-0.038-2.831,0.762-5.453,2.451-7.753c1.307-1.779,2.982-2.994,5.274-3.156
			c0.151-0.011,0.298-0.072,0.405-0.099c0.3-2.473,0.66-4.878,0.852-7.295c0.073-0.93-0.242-1.888-0.37-2.835
			c-0.12-0.887-0.685-1.219-1.502-1.176c-1.276,0.067-2.554,0.273-3.825,0.231c-0.968-0.032-1.932-0.333-2.883-0.573
			c-0.229-0.059-0.397-0.352-0.609-0.551c0.508-0.91,1.312-1.264,2.212-1.281c1.394-0.025,2.791,0.064,4.186,0.12
			c0.664,0.026,1.327,0.085,2.138,0.14c0.106-2.694,0.319-5.242,0.287-7.787c-0.107-8.354-0.311-16.706-0.463-25.059
			c-0.051-2.799-0.059-5.598-0.085-8.397c-0.004-0.435,0-0.869,0-1.479c-0.888-0.095-1.701-0.2-2.517-0.265
			c-1.112-0.088-2.228-0.133-3.34-0.225c-0.271-0.022-0.549-0.119-0.794-0.241c-0.587-0.293-1.171-0.658-0.977-1.438
			c0.175-0.705,1.143-1.293,1.822-1.169c1.414,0.258,2.822,0.546,4.235,0.813c0.267,0.05,0.542,0.059,0.949,0.101
			c0.13-1.033,0.29-2.003,0.369-2.98c0.536-6.659,0.834-13.324,0.655-20.008c-0.118-4.396-0.116-8.796-0.179-13.194
			c-0.017-1.2-0.033-1.257-1.278-1.31c-1.435-0.062-2.875,0.034-4.312-0.013c-3.006-0.1-2.884,0.089-3.242-2.973
			c-0.169-1.45-0.029-2.936-0.029-4.611c0.989,0,1.857-0.012,2.726,0.001c10.555,0.167,21.108,0.406,31.664,0.481
			c6.714,0.048,13.43-0.11,20.143-0.243c4.517-0.09,9.029-0.333,13.546-0.438c2.155-0.051,4.317,0.145,6.471,0.068
			c2.027-0.072,4.046-0.356,6.069-0.543c0.276-0.026,0.556-0.035,0.835-0.038c3.555-0.026,7.109-0.067,10.664-0.071
			c6.354-0.008,12.71-0.019,19.064,0.021c4.837,0.031,9.674,0.187,14.51,0.189c2.029,0.001,4.058-0.249,6.153-0.389
			c1.071,2.455,0.996,4.979,0.778,7.515c-3.741,0-7.399,0-11.153,0c-0.064,0.945-0.165,1.851-0.183,2.759
			c-0.085,4.275-0.259,8.552,0.358,12.812c0.105,0.73-0.157,1.505-0.161,2.26c-0.022,4.196,0.007,8.393-0.033,12.588
			c-0.016,1.636-0.159,3.271-0.263,4.906c-0.086,1.343,0.234,1.77,1.588,1.742c0.91-0.019,1.837-0.15,2.72-0.377
			c2.144-0.551,4.028-0.198,5.697,1.445c-0.808,1.196-2.016,1.369-3.323,1.266c-1.513-0.119-3.022-0.28-4.536-0.388
			c-0.422-0.03-0.853,0.062-1.249,0.096c-1.01,5.754-1.196,34.962-0.279,43.241c0.643,0,1.306,0.041,1.963-0.008
			c1.394-0.104,2.782-0.288,4.178-0.372c0.815-0.05,1.699,1.043,1.496,1.831c-0.062,0.244-0.385,0.575-0.614,0.597
			c-0.98,0.093-1.985,0.206-2.952,0.081c-1.272-0.166-2.518-0.379-3.867,0.012c0,3.666,0,7.328,0,11.156
			c0.981,0.225,1.98,0.428,2.964,0.689c0.408,0.108,0.874,0.25,1.158,0.533c2.13,2.126,3.84,4.525,4.292,7.586
			c0.462,3.125-0.541,5.76-3.252,7.433c-1.467,0.905-3.215,1.357-4.836,2.013c-0.181,0.072-0.363,0.137-0.51,0.191
			c0.105,2.124,0.26,4.192,0.295,6.262c0.027,1.596-0.066,3.197-0.161,4.791c-0.041,0.697,0.2,1.068,0.888,1.127
			c0.755,0.064,1.511,0.125,2.268,0.166c1.276,0.069,2.557,0.084,3.829,0.193c1.325,0.115,1.497,0.301,1.771,1.642
			C151.184,185.313,151.229,185.866,151.323,186.565z M75.242,97.367c0.332,14.224,0.659,28.186,0.988,42.238
			c7.108,0,14.116,0,21.152,0c-0.3-14.354-0.598-28.588-0.899-42.991C89.365,96.866,82.467,97.11,75.242,97.367z M52.083,97.72
			c0.306,14.258,0.607,28.297,0.909,42.348c3.793,0.362,18.97-0.071,20.805-0.642c0.245-13.941-0.802-27.883-1.102-41.986
			C65.815,97.534,59.081,97.625,52.083,97.72z M98.7,227.479c0.595-3.574-0.525-37.943-1.362-40.678
			c-6.729-0.385-13.491,0.453-20.339,0.096c-0.616,13.648,0.492,27.109,0.792,40.561C79.914,227.85,97.545,227.847,98.7,227.479z
			 M54.461,227.908c6.931,1.005,13.876-0.441,20.928-0.018c-0.306-13.77-0.82-27.348-1.385-40.873
			c-6.943,0.087-13.672,0.17-20.575,0.256C53.776,200.917,54.116,214.325,54.461,227.908z M101.236,230.542
			c0.268,14.013-0.485,27.773-0.229,41.77c6.667-0.144,13.151-0.282,19.684-0.422c0.236-14.033,0.833-27.875-0.017-41.844
			C114.167,230.212,107.79,230.375,101.236,230.542z M118.036,95.906c-6.464,0.18-12.753,0.354-19.147,0.531
			c0.331,14.452,0.659,28.763,0.989,43.184c6.479,0.374,12.792-0.075,19.212-0.286C118.955,124.815,117.169,110.486,118.036,95.906z
			 M138.562,95.789c-1.662,0-3.177,0.002-4.691,0c-3.116-0.004-6.234-0.074-9.348,0.014c-1.525,0.043-3.043,0.38-4.616,0.591
			c0.084,14.44,0.547,28.639,1.34,42.967c6.12,0.145,12.101-0.389,18.13-0.613C139.91,124.321,138.518,110.096,138.562,95.789z
			 M72.963,94.616c-0.039-12.58,1.04-24.941-0.073-37.397c-6.856,0.177-13.623,0.351-20.465,0.528
			c-0.267,12.426-0.66,24.703,0.031,37.087c1.369,0,2.604,0.021,3.838-0.004c3.99-0.081,7.983-0.126,11.969-0.303
			c1.115-0.05,2.2-0.214,3.308,0.072C71.968,94.703,72.415,94.616,72.963,94.616z M75.292,94.535c7.009,0,13.771,0,20.575,0
			c1.076-12.641-0.264-25.099-0.025-37.677c-6.997,0.095-13.78,0.187-20.55,0.278C75.292,69.488,75.292,81.934,75.292,94.535z
			 M100.256,186.647c0.358,13.703,0.714,27.303,1.071,40.994c6.414,0.462,12.701-0.147,19.19-0.297
			c-0.559-13.646-1.111-27.162-1.665-40.697C112.655,186.647,106.408,186.647,100.256,186.647z M31.303,97.802
			c0.432,14.152,0.861,28.223,1.292,42.355c5.701,0,11.392,0,17.204,0c0.884-14.112,0.242-28.309-0.047-42.413
			c-3.128-0.093-6.111-0.177-9.094-0.271C37.628,97.378,34.596,97.165,31.303,97.802z M122.59,271.73
			c4.054-0.08,7.922-0.138,11.789-0.242c1.835-0.05,3.667-0.211,5.502-0.272c0.696-0.023,1.097-0.342,1.095-0.982
			c-0.004-0.906-0.055-1.826-0.231-2.712c-0.204-1.026-0.321-2.009-0.167-3.07c0.328-2.251,0.58-4.518,0.74-6.786
			c0.422-5.951,0.163-11.9-0.103-17.85c-0.111-2.508-0.042-5.024-0.117-7.535c-0.025-0.82-0.193-1.648-0.397-2.447
			c-0.17-0.663-0.627-0.83-1.374-0.766c-3.979,0.34-7.962,0.615-11.947,0.854c-1.465,0.088-2.939,0.014-4.555,0.014
			C123.603,244.035,122.68,257.876,122.59,271.73z M140.964,226.866c0.413-13.557-0.852-26.849-1.105-40.236
			c-6.239,0-12.364,0-18.612,0c-0.027,13.617,0.727,27.11,1.638,40.828C128.937,227.26,134.87,227.065,140.964,226.866z
			 M78.311,250.254c4.741,1.132,7.193,3.952,7.439,8.688c0.11,2.128-0.322,4.132-1.507,5.935c-1.361,2.071-3.369,3.074-5.768,3.344
			c-0.075,1.361-0.144,2.609-0.21,3.827c6.973,0,13.74,0,20.568,0c0.145-13.927,0.607-27.767-0.033-41.595
			c-7.049,0.184-13.979,0.364-21.048,0.549C77.938,237.392,78.122,243.761,78.311,250.254z M32.63,187.581
			c0.497,13.556,0.995,27.145,1.498,40.864c5.816-0.778,11.583-0.364,17.422-0.022c0.029-0.459,0.069-0.807,0.069-1.154
			c0.005-6.594,0.071-13.189-0.015-19.783c-0.074-5.75-0.311-11.5-0.5-17.248c-0.034-1.02-0.19-2.036-0.292-3.078
			C44.725,187.3,38.789,187.438,32.63,187.581z M117.766,57.026c-0.336-0.046-0.492-0.085-0.648-0.085
			c-5.878-0.004-11.757-0.01-17.635-0.002c-1.05,0.001-1.165,0.13-1.166,1.319c-0.006,11.195-0.085,22.391,0.609,33.573
			c0.049,0.787,0.152,1.57,0.232,2.378c6.23-0.47,12.385,0.218,18.611-0.491C117.597,81.445,118.621,69.276,117.766,57.026z
			 M138.59,56.804c-0.286-0.041-0.44-0.082-0.595-0.082c-5.395-0.007-10.789,0.002-16.184-0.028
			c-0.775-0.004-1.084,0.267-1.098,1.024c-0.033,1.839-0.125,3.677-0.148,5.515c-0.124,9.396-0.234,18.791-0.347,28.187
			c-0.009,0.745-0.001,1.49-0.001,2.219c6.263-0.121,12.361-0.238,18.6-0.358C138.966,80.992,139.354,68.902,138.59,56.804z
			 M31.509,94.548c6.095,0.874,12.131,0.179,18.333-0.056c0-12.31,0-24.483,0-36.812c-6.021,0-12.039,0-18.243,0
			c0,4.038-0.02,8.103,0.005,12.167c0.025,4.117,0.145,8.233,0.13,12.35C31.72,86.266,31.591,90.335,31.509,94.548z M34.015,231.04
			c-0.806,13.936,0.879,27.854,0.252,41.729c0.242,0.095,0.312,0.146,0.382,0.146c4.678-0.021,9.357-0.019,14.034-0.088
			c1.215-0.018,2.427-0.257,3.592-0.389c0-1.076,0-1.975,0-2.896c-2.92-0.08-4.912-1.528-6.276-3.899
			c-1.413-2.455-1.744-5.111-1.255-7.881c0.386-2.193,1.579-3.816,3.535-4.86c1.056-0.563,2.132-1.093,3.227-1.577
			c0.628-0.278,0.918-0.622,0.852-1.356c-0.135-1.472-0.22-2.952-0.239-4.431c-0.05-3.837-0.045-7.676-0.083-11.514
			c-0.009-0.942-0.098-1.885-0.158-2.984C45.86,231.04,39.998,231.04,34.015,231.04z M75.535,268.764
			c-2.201-0.292-4.124-1.05-5.487-2.875c-1.324-1.772-1.846-3.777-1.835-5.954c0.012-2.178,0.603-4.174,1.864-5.961
			c1.456-2.061,3.549-2.981,6.093-3.209c-0.244-6.693-0.485-13.26-0.72-19.672c-7.104,0-13.947,0-20.715,0
			c-0.086,0.251-0.11,0.289-0.11,0.326c-0.019,6.191-0.031,12.384-0.061,18.575c-0.003,0.615,0.211,0.868,0.829,1.071
			c1.318,0.434,2.668,0.889,3.854,1.592c4.148,2.457,5.262,7.308,2.719,11.416c-1.497,2.418-3.729,3.894-6.312,4.928
			c-0.341,0.137-0.79,0.363-0.897,0.656c-0.341,0.932-0.52,1.916-0.16,2.938c0.428,0,0.822,0.021,1.213-0.004
			c3.509-0.221,7.014-0.539,10.526-0.648c2.592-0.082,5.192,0.1,7.789,0.176c1.051,0.031,1.291-0.111,1.396-1.14
			C75.594,270.271,75.535,269.551,75.535,268.764z M99.403,172.423c0.098,4.026,0.188,7.814,0.284,11.777
			c6.494,0.424,12.916-0.229,19.364-0.364c0.251-4.073,0.462-7.962,0.011-11.843C112.437,172.138,105.976,172.28,99.403,172.423z
			 M96.757,142.046c-6.768,0.986-13.481,0.695-20.317,0.764c-0.287,3.769,0.031,7.443,0.059,11.117
			c7.054-0.166,13.946-0.328,20.979-0.492C97.258,149.622,98.062,145.825,96.757,142.046z M76.909,184.029
			c6.856,0,13.537,0,20.379,0c0-3.87,0-7.677,0-11.668c-6.805,0.258-13.607,0.515-20.379,0.771
			C76.909,176.897,76.909,180.462,76.909,184.029z M73.903,183.704c0.112-3.621,0.217-6.986,0.325-10.473
			c-7.062,0.263-13.949-0.523-20.99,0.031c0.15,3.725,0.967,7.342,0.28,11.188C60.397,184.198,67.118,183.952,73.903,183.704z
			 M53.184,153.45c6.959,0.166,13.929,0.334,21.072,0.506c-0.235-3.807,0.111-7.564-0.217-11.469
			c-7.04,1.232-13.904,0.529-20.855,0.604C53.184,146.625,53.184,149.962,53.184,153.45z M139.667,170.999
			c-6.256,0.314-12.299,0.619-18.364,0.924c0,4.065,0,7.958,0,11.889c5.292-0.174,10.479-0.328,15.662-0.533
			c0.776-0.03,1.543-0.301,2.159-0.429C139.306,178.899,139.479,175.089,139.667,170.999z M119.591,142
			c-6.704,0.13-13.268,0.257-19.928,0.387c0.09,3.671,0.179,7.282,0.265,10.788c6.601-0.109,13.116-0.219,19.663-0.328
			C119.591,149.267,119.591,145.762,119.591,142z M50.539,173.291c-5.985,0.241-11.895,0.479-17.732,0.716c0,3.605,0,7.26,0,11.007
			c5.925,0.185,11.847,0.114,17.738-0.302C51.098,181.279,51.095,175.868,50.539,173.291z M32.143,153.813
			c6.232-0.129,12.244-0.253,18.34-0.379c0-3.479,0-6.883,0-10.446c-5.99,0-11.848,0-17.744,0
			C31.815,146.464,32.688,150.079,32.143,153.813z M139.689,152.146c-0.103-3.699-0.201-7.25-0.302-10.924
			c-6.155,0.317-12.11,0.625-17.939,0.925c0,3.709,0,7.318,0,11.063C127.587,152.558,133.515,151.782,139.689,152.146z"/>
		<path style="fill-rule:evenodd;clip-rule:evenodd;" d="M82.183,20.27c-2.192,0.508-2.63,0.275-3.116-1.453
			c-0.915,0.18-1.829,0.417-2.758,0.532c-2.287,0.283-4.467-0.089-6.443-1.317c-1.812-1.125-2.837-2.753-2.993-4.91
			C66.615,9.567,67.509,6.405,70,3.768c2.669-2.825,6.639-2.481,9.066-1.166c1.319,0.715,2.097,1.824,2.076,3.39
			c-0.012,0.907-0.3,1.2-1.175,0.95c-0.592-0.169-1.162-0.519-1.662-0.894c-2.006-1.504-4.242-1.356-6.019,0.428
			c-2.238,2.249-2.195,5.86-1.433,7.965c0.13,0.361,0.525,0.731,0.888,0.885c2.004,0.848,4.051,0.872,6.041-0.019
			c0.508-0.228,0.993-0.704,1.278-1.189c0.473-0.806,0.092-1.344-0.833-1.237c-0.789,0.091-1.563,0.313-2.344,0.475
			c-0.726,0.15-1.363-0.01-1.814-0.618c-0.527-0.71,0.012-2.529,0.872-2.667c1.565-0.251,3.165-0.481,4.736-0.409
			c0.63,0.029,1.445,0.759,1.781,1.383c0.516,0.956,0.919,2.086,0.959,3.159C82.495,16.218,82.277,18.245,82.183,20.27z"/>
		<path style="fill-rule:evenodd;clip-rule:evenodd;" d="M93.284,10.024c0.958-0.421,1.77-0.866,2.635-1.142
			c1.749-0.558,3.31-0.129,4.638,1.13c2.527,2.395,3.372,7.34,1.771,10.669c-0.27,0-0.583,0.008-0.896-0.001
			c-0.781-0.024-1.213-0.336-1.286-1.209c-0.137-1.628-0.376-3.249-0.601-4.868c-0.064-0.47-0.187-0.942-0.352-1.387
			c-0.584-1.577-1.637-1.935-3.12-1.162c-0.642,0.335-0.806,0.85-0.78,1.478c0.046,1.156,0.162,2.311,0.175,3.468
			c0.007,0.67-0.053,1.362-0.224,2.006c-0.163,0.615-0.49,1.233-1.31,1.137c-0.719-0.084-1.578-1.042-1.561-1.703
			c0.022-0.838,0.105-1.676,0.094-2.513c-0.015-1.049-0.197-2.061-0.877-2.926c-0.831-1.059-2.256-1.143-3.006-0.02
			c-0.443,0.664-0.714,1.526-0.802,2.328c-0.169,1.544-0.126,3.111-0.234,4.664c-0.027,0.378-0.314,1.053-0.463,1.048
			c-0.466-0.016-1.154-0.162-1.339-0.491c-0.534-0.955-1.017-1.992-1.242-3.055c-0.509-2.401-0.453-4.84-0.063-7.265
			c0.031-0.196,0.096-0.387,0.152-0.578c0.268-0.918,0.767-1.219,1.435-0.605c0.968,0.889,1.884,0.678,2.959,0.409
			C90.48,9.06,92,8.892,93.284,10.024z"/>
		<path style="fill-rule:evenodd;clip-rule:evenodd;" d="M72.259,30.305c0.502,0.126,1.021,0.407,1.503,0.354
			c3.262-0.353,7.821,2.77,9.215,6.04c0.925,2.168,0.463,4.266-1.25,5.898c-1.157,1.103-2.566,1.749-4.058,2.216
			c-2.034,0.637-4.13,0.886-6.262,0.762c-1.245-0.073-1.76-0.819-1.371-2.003c0.614-1.871,0.049-3.713-0.068-5.571
			c-0.104-1.661-0.222-3.335-0.116-4.989C69.941,31.604,70.804,30.596,72.259,30.305z M73.008,43.028
			c2.311-0.348,4.465-0.854,6.138-2.484c1.522-1.482,1.402-3.854-0.255-5.166c-1.871-1.479-4.108-1.724-6.438-1.845
			C71.894,36.813,72.489,39.854,73.008,43.028z"/>
		<path style="fill-rule:evenodd;clip-rule:evenodd;" d="M101.549,44.66c-5.342,2.569-10.541-1.402-11.386-5.455
			c-0.8-3.84,0.351-6.077,3.436-7.527c1.113-0.523,2.309-0.875,3.472-1.287c0.174-0.062,0.416-0.101,0.567-0.028
			c0.966,0.468,1.997,0.857,2.847,1.489c1.103,0.819,1.436,2.043,1.224,3.406c-0.958,0.155-1.545-0.371-1.965-1
			c-1.424-2.129-4.487-1.778-5.88,0.296c-1.466,2.185-1.702,4.518-0.739,6.953c0.411,1.041,1.098,1.739,2.369,1.544
			c1.02-0.156,2.082-0.127,3.063-0.4c1.123-0.312,1.777-1.159,1.812-2.517c-0.524,0-1.02-0.044-1.503,0.011
			c-0.632,0.073-1.254,0.232-1.882,0.339c-0.748,0.127-1.17-0.12-1.349-0.935c-0.282-1.287-0.172-1.486,1.171-1.636
			c0.792-0.088,1.573-0.287,2.367-0.365c0.83-0.081,1.68-0.173,2.503-0.088c1.488,0.154,2.173,1.076,2.273,2.518
			c0.131,1.861,0.412,3.711,0.59,5.57c0.024,0.256-0.107,0.705-0.277,0.768c-0.589,0.22-1.225,0.385-1.848,0.408
			c-0.229,0.009-0.575-0.4-0.685-0.689C101.581,45.646,101.608,45.188,101.549,44.66z"/>
		<path style="fill-rule:evenodd;clip-rule:evenodd;" d="M53.794,41.646c-1.71,0.159-3.333,0.333-4.958,0.453
			c-1.247,0.091-1.959,0.699-2.214,1.931c-0.116,0.563-0.388,1.094-0.584,1.627c-1.575-0.454-1.961-1.112-1.365-2.325
			c2.045-4.157,4.133-8.294,6.182-12.449c0.23-0.467,0.546-0.762,1.007-0.578c0.284,0.113,0.581,0.491,0.648,0.799
			c0.523,2.378,1.656,4.48,2.816,6.584c1.079,1.957,2.115,3.939,3.095,5.947c0.483,0.992,0.271,1.517-0.549,2.015
			c-0.793,0.482-1.452,0.113-1.88-0.491C55.191,44.025,54.511,42.806,53.794,41.646z M52.825,39.491
			c0.045-0.108,0.09-0.216,0.135-0.325c-0.661-0.941-0.124-2.591-1.92-3.009c-0.572,1.144-1.119,2.238-1.666,3.332
			c0.079,0.1,0.158,0.201,0.236,0.301C50.682,39.69,51.754,39.59,52.825,39.491z"/>
		<path style="fill-rule:evenodd;clip-rule:evenodd;" d="M27.234,38.564c0.271,1.191,0.522,2.292,0.773,3.393
			c2.401,0.193,4.68-0.484,6.987,0.192c-0.082,0.718-0.162,1.418-0.26,2.274c-2.854,0.162-5.669,0.322-8.606,0.489
			c-0.113-0.735-0.233-1.386-0.312-2.042c-0.415-3.487-0.957-6.966-1.176-10.465c-0.143-2.278-0.387-2.417,2.46-2.85
			c2.132-0.324,4.354-0.064,6.797-0.064c-0.123,1.115-0.227,2.065-0.348,3.164c-0.964,0-1.792-0.023-2.618,0.006
			c-0.917,0.033-1.839,0.061-2.746,0.186c-1.263,0.174-1.389,0.399-1.175,1.665c0.039,0.233,0.085,0.464,0.13,0.707
			c0.882,0.104,1.752,0.16,2.601,0.32c0.716,0.136,1.249,0.542,1.263,1.371c0.011,0.68-0.207,1.153-0.983,1.239
			C29.156,38.246,28.296,38.403,27.234,38.564z"/>
		<path style="fill-rule:evenodd;clip-rule:evenodd;" d="M121.607,38.949c-1.484,0.13-2.756,0.186-4.009,0.367
			c-1.418,0.205-1.393,0.34-1.346,1.789c0.037,1.138-0.166,2.284-0.271,3.541c-0.709,0.036-1.27,0.065-1.977,0.101
			c-0.263-4.934-0.517-9.697-0.777-14.584c0.922,0.336,1.835,0.67,2.805,1.024c-0.227,1.903-0.493,3.8,0.101,5.707
			c1.366,0,2.681,0.054,3.987-0.016c1.228-0.066,1.282-0.145,1.31-1.354c0.037-1.631,0.01-3.264,0.01-5.013
			c1.091,0.28,1.607,1.027,1.88,1.81c0.375,1.076,0.646,2.226,0.722,3.36c0.105,1.589-0.051,3.194-0.018,4.791
			c0.021,0.992,0.137,1.988,0.304,2.967c0.089,0.519,0.056,0.936-0.102,1.455c-0.264,0.874-0.764,1.07-1.516,0.892
			s-1.286-0.547-1.203-1.486c0.115-1.311,0.15-2.63,0.19-3.946C121.711,39.883,121.64,39.413,121.607,38.949z"/>
		<path style="fill-rule:evenodd;clip-rule:evenodd;" d="M146.198,44.375c-3.136,1.784-6.406,0.574-9.666,1.015
			c-0.776-4.784-0.889-9.547-1.114-14.449c0.848,0,1.634,0.04,2.415-0.008c2.025-0.124,4.051-0.256,6.07-0.451
			c0.589-0.057,0.926,0.088,1.099,0.63c0.084,0.265,0.168,0.534,0.212,0.807c0.223,1.373,0.053,1.676-1.302,1.774
			c-1.23,0.09-2.473,0.009-3.71,0.005c-0.869-0.002-1.738,0-2.726,0c0.144,1.219,0.273,2.314,0.415,3.514
			c1.266,0.555,2.611-0.015,4.131,0.058c0.219,0.841,0.448,1.727,0.711,2.741c-0.772,0-1.319-0.007-1.865,0.002
			c-0.557,0.009-1.121-0.015-1.669,0.062c-1.334,0.189-1.525,0.503-1.236,1.789c0.086,0.38,0.11,0.775,0.192,1.374
			c1.456-0.118,2.918-0.178,4.362-0.369C144.006,42.673,145.18,43.105,146.198,44.375z"/>
		<path style="fill-rule:evenodd;clip-rule:evenodd;" d="M16.307,160.88c-0.606-0.23-1.085-0.412-1.438-0.547
			c0-2.721,0-5.381,0-8.096c-0.889,0.16-1.23,0.993-1.661,1.721c-0.452,0.764-0.9,1.518-2.045,1.562
			c-0.337-0.968-0.301-1.909,0.262-2.729c0.652-0.949,1.428-1.813,2.163-2.705c0.685-0.83,1.433-1.612,2.062-2.481
			c0.353-0.487,0.697-0.585,1.394-0.315c0.068,0.857,0.263,1.807,0.195,2.736C16.977,153.609,16.631,157.187,16.307,160.88z"/>
		<path style="fill-rule:evenodd;clip-rule:evenodd;fill:none;" d="M75.242,97.367c7.225-0.256,14.123-0.501,21.241-0.753
			c0.302,14.403,0.6,28.638,0.899,42.991c-7.036,0-14.044,0-21.152,0C75.901,125.553,75.574,111.59,75.242,97.367z"/>
		<path style="fill-rule:evenodd;clip-rule:evenodd;fill:none;" d="M52.083,97.72c6.998-0.095,13.732-0.186,20.612-0.279
			c0.3,14.103,1.347,28.044,1.102,41.986c-1.835,0.57-17.012,1.004-20.805,0.642C52.69,126.017,52.389,111.978,52.083,97.72z"/>
		<path style="fill-rule:evenodd;clip-rule:evenodd;fill:none;" d="M98.7,227.479c-1.155,0.367-18.786,0.37-20.909-0.021
			c-0.3-13.451-1.408-26.912-0.792-40.561c6.848,0.357,13.61-0.48,20.339-0.096C98.175,189.536,99.295,223.905,98.7,227.479z"/>
		<path style="fill-rule:evenodd;clip-rule:evenodd;fill:none;" d="M54.461,227.908c-0.345-13.583-0.685-26.991-1.032-40.635
			c6.903-0.086,13.631-0.169,20.575-0.256c0.564,13.525,1.079,27.104,1.385,40.873C68.337,227.467,61.392,228.913,54.461,227.908z"
			/>
		<path style="fill-rule:evenodd;clip-rule:evenodd;fill:none;" d="M101.236,230.542c6.554-0.167,12.931-0.33,19.438-0.496
			c0.85,13.969,0.253,27.811,0.017,41.844c-6.532,0.14-13.017,0.278-19.684,0.422C100.751,258.315,101.504,244.555,101.236,230.542z
			"/>
		<path style="fill-rule:evenodd;clip-rule:evenodd;fill:none;" d="M118.036,95.906c-0.867,14.58,0.919,28.909,1.054,43.429
			c-6.42,0.211-12.732,0.66-19.212,0.286c-0.33-14.421-0.658-28.732-0.989-43.184C105.283,96.26,111.572,96.086,118.036,95.906z"/>
		<path style="fill-rule:evenodd;clip-rule:evenodd;fill:none;" d="M138.562,95.789c-0.045,14.307,1.348,28.532,0.814,42.958
			c-6.029,0.225-12.01,0.758-18.13,0.613c-0.793-14.328-1.256-28.527-1.34-42.967c1.573-0.211,3.091-0.548,4.616-0.591
			c3.113-0.088,6.231-0.018,9.348-0.014C135.386,95.791,136.9,95.789,138.562,95.789z"/>
		<path style="fill-rule:evenodd;clip-rule:evenodd;fill:none;" d="M72.963,94.616c-0.548,0-0.995,0.086-1.393-0.017
			c-1.107-0.287-2.192-0.122-3.308-0.072c-3.985,0.177-7.979,0.222-11.969,0.303c-1.234,0.025-2.469,0.004-3.838,0.004
			c-0.691-12.384-0.298-24.661-0.031-37.087c6.842-0.177,13.608-0.351,20.465-0.528C74.003,69.675,72.924,82.036,72.963,94.616z"/>
		<path style="fill-rule:evenodd;clip-rule:evenodd;fill:none;" d="M75.292,94.535c0-12.601,0-25.046,0-37.399
			c6.77-0.091,13.553-0.183,20.55-0.278c-0.238,12.578,1.102,25.037,0.025,37.677C89.062,94.535,82.301,94.535,75.292,94.535z"/>
		<path style="fill-rule:evenodd;clip-rule:evenodd;fill:none;" d="M100.256,186.647c6.152,0,12.399,0,18.597,0
			c0.554,13.535,1.106,27.051,1.665,40.697c-6.489,0.149-12.776,0.759-19.19,0.297C100.97,213.95,100.614,200.351,100.256,186.647z"
			/>
		<path style="fill-rule:evenodd;clip-rule:evenodd;fill:none;" d="M31.303,97.802c3.292-0.637,6.325-0.424,9.355-0.328
			c2.983,0.094,5.966,0.178,9.094,0.271c0.289,14.104,0.931,28.301,0.047,42.413c-5.812,0-11.503,0-17.204,0
			C32.164,126.025,31.735,111.954,31.303,97.802z"/>
		<path style="fill-rule:evenodd;clip-rule:evenodd;fill:none;" d="M122.59,271.73c0.09-13.854,1.013-27.695,0.234-41.796
			c1.615,0,3.09,0.074,4.555-0.014c3.985-0.238,7.969-0.514,11.947-0.854c0.747-0.064,1.204,0.103,1.374,0.766
			c0.204,0.799,0.372,1.627,0.397,2.447c0.075,2.511,0.006,5.027,0.117,7.535c0.266,5.949,0.524,11.898,0.103,17.85
			c-0.16,2.269-0.412,4.535-0.74,6.786c-0.154,1.062-0.037,2.044,0.167,3.07c0.177,0.886,0.228,1.806,0.231,2.712
			c0.002,0.641-0.398,0.959-1.095,0.982c-1.835,0.062-3.667,0.223-5.502,0.272C130.512,271.593,126.644,271.65,122.59,271.73z"/>
		<path style="fill-rule:evenodd;clip-rule:evenodd;fill:none;" d="M140.964,226.866c-6.094,0.199-12.027,0.394-18.08,0.592
			c-0.911-13.718-1.665-27.211-1.638-40.828c6.248,0,12.373,0,18.612,0C140.112,200.018,141.377,213.31,140.964,226.866z"/>
		<path style="fill-rule:evenodd;clip-rule:evenodd;fill:none;" d="M78.311,250.254c-0.188-6.493-0.373-12.862-0.558-19.253
			c7.069-0.185,13.999-0.365,21.048-0.549c0.641,13.828,0.178,27.668,0.033,41.595c-6.828,0-13.596,0-20.568,0
			c0.066-1.218,0.135-2.466,0.21-3.827c2.398-0.27,4.406-1.272,5.768-3.344c1.185-1.803,1.617-3.807,1.507-5.935
			C85.504,254.206,83.052,251.386,78.311,250.254z"/>
		<path style="fill-rule:evenodd;clip-rule:evenodd;fill:none;" d="M32.63,187.581c6.159-0.143,12.095-0.281,18.183-0.422
			c0.102,1.042,0.258,2.059,0.292,3.078c0.189,5.748,0.426,11.498,0.5,17.248c0.085,6.594,0.02,13.189,0.015,19.783
			c0,0.348-0.041,0.695-0.069,1.154c-5.839-0.342-11.606-0.756-17.422,0.022C33.625,214.726,33.127,201.137,32.63,187.581z"/>
		<path style="fill-rule:evenodd;clip-rule:evenodd;fill:none;" d="M117.766,57.026c0.855,12.25-0.169,24.419,0.004,36.691
			c-6.227,0.709-12.381,0.021-18.611,0.491c-0.08-0.808-0.184-1.592-0.232-2.378c-0.694-11.182-0.615-22.378-0.609-33.573
			c0.001-1.188,0.116-1.317,1.166-1.319c5.878-0.008,11.757-0.002,17.635,0.002C117.273,56.941,117.43,56.98,117.766,57.026z"/>
		<path style="fill-rule:evenodd;clip-rule:evenodd;fill:none;" d="M138.59,56.804c0.765,12.098,0.376,24.188,0.228,36.477
			c-6.238,0.12-12.337,0.237-18.6,0.358c0-0.729-0.008-1.474,0.001-2.219c0.112-9.396,0.223-18.792,0.347-28.187
			c0.023-1.838,0.115-3.676,0.148-5.515c0.014-0.757,0.322-1.028,1.098-1.024c5.395,0.031,10.789,0.021,16.184,0.028
			C138.149,56.722,138.304,56.763,138.59,56.804z"/>
		<path style="fill-rule:evenodd;clip-rule:evenodd;fill:none;" d="M31.509,94.548c0.082-4.213,0.211-8.282,0.225-12.351
			c0.015-4.117-0.104-8.233-0.13-12.35c-0.025-4.064-0.005-8.129-0.005-12.167c6.204,0,12.221,0,18.243,0
			c0,12.329,0,24.503,0,36.812C43.641,94.727,37.604,95.422,31.509,94.548z"/>
		<path style="fill-rule:evenodd;clip-rule:evenodd;fill:none;" d="M34.015,231.04c5.983,0,11.845,0,17.862,0
			c0.061,1.1,0.149,2.042,0.158,2.984c0.038,3.838,0.033,7.677,0.083,11.514c0.02,1.479,0.104,2.959,0.239,4.431
			c0.067,0.734-0.223,1.078-0.852,1.356c-1.094,0.484-2.171,1.014-3.227,1.577c-1.956,1.044-3.148,2.667-3.535,4.86
			c-0.489,2.77-0.158,5.426,1.255,7.881c1.364,2.371,3.356,3.819,6.276,3.899c0,0.921,0,1.819,0,2.896
			c-1.165,0.132-2.376,0.371-3.592,0.389c-4.677,0.069-9.356,0.067-14.034,0.088c-0.07,0-0.14-0.051-0.382-0.146
			C34.895,258.895,33.209,244.976,34.015,231.04z M38.782,252.802c2.123,0,4.292,0,6.596,0c-0.072-0.326-0.037-0.746-0.218-0.883
			c-0.742-0.562-1.549-1.037-2.334-1.545c1.614-2.653,2.169-5.297,1.546-7.688c-0.304-1.168-0.858-2.22-2.167-2.446
			c-1.426-0.247-2.591,0.363-3.418,1.516c-0.8,1.113-0.477,2.139,0.862,2.818c0.634-0.926,1.034-2.193,2.602-2.154
			c0.089,1.812-0.416,3.451-1.234,4.953c-0.813,1.494-1.832,2.875-2.753,4.294C38.402,251.971,38.563,252.324,38.782,252.802z"/>
		<path style="fill-rule:evenodd;clip-rule:evenodd;fill:none;" d="M75.535,268.764c0,0.787,0.059,1.508-0.014,2.215
			c-0.105,1.028-0.346,1.171-1.396,1.14c-2.597-0.076-5.197-0.258-7.789-0.176c-3.513,0.109-7.018,0.428-10.526,0.648
			c-0.391,0.025-0.785,0.004-1.213,0.004c-0.36-1.021-0.181-2.006,0.16-2.938c0.107-0.293,0.556-0.52,0.897-0.656
			c2.583-1.034,4.814-2.51,6.312-4.928c2.543-4.108,1.43-8.959-2.719-11.416c-1.186-0.703-2.535-1.158-3.854-1.592
			c-0.618-0.203-0.832-0.456-0.829-1.071c0.03-6.191,0.042-12.384,0.061-18.575c0-0.037,0.024-0.075,0.11-0.326
			c6.768,0,13.612,0,20.715,0c0.234,6.412,0.476,12.979,0.72,19.672c-2.544,0.228-4.637,1.148-6.093,3.209
			c-1.262,1.787-1.853,3.783-1.864,5.961c-0.011,2.177,0.511,4.182,1.835,5.954C71.411,267.714,73.334,268.472,75.535,268.764z
			 M69.396,247.216c0.377-0.424,0.678-0.742,0.957-1.08c0.756-0.914,0.825-1.98,0.208-2.997c-0.998-1.642-3.491-2.784-5.379-2.466
			c-0.976,0.165-1.583,0.746-1.77,1.693c-0.205,1.045,0.014,1.544,0.85,2.102c0.581-0.459,1.083-0.989,1.694-1.311
			c1.205-0.631,2.599-0.27,2.918,0.65c0.312,0.896-0.427,1.985-1.667,2.402c-0.55,0.184-1.123,0.297-1.718,0.451
			c0.061,0.52,0.11,0.947,0.157,1.348c0.958,0.44,1.871,0.859,2.779,1.276c-0.788,1.73-1.602,2.171-2.723,1.599
			c-0.352-0.18-0.627-0.516-0.985-0.67c-0.458-0.197-0.965-0.283-1.549-0.443c0.229,1.79,1.016,2.747,2.354,3.088
			c1.457,0.373,3.276-0.248,4.177-1.472C70.779,249.919,70.304,248.532,69.396,247.216z"/>
		<path style="fill-rule:evenodd;clip-rule:evenodd;fill:none;" d="M99.403,172.423c6.572-0.143,13.033-0.285,19.659-0.43
			c0.451,3.881,0.24,7.77-0.011,11.843c-6.448,0.135-12.87,0.788-19.364,0.364C99.592,180.237,99.501,176.449,99.403,172.423z"/>
		<path style="fill-rule:evenodd;clip-rule:evenodd;fill:none;" d="M96.757,142.046c1.305,3.779,0.501,7.576,0.721,11.389
			c-7.033,0.164-13.926,0.326-20.979,0.492c-0.027-3.674-0.346-7.349-0.059-11.117C83.275,142.741,89.989,143.032,96.757,142.046z"
			/>
		<path style="fill-rule:evenodd;clip-rule:evenodd;fill:none;" d="M76.909,184.029c0-3.567,0-7.132,0-10.896
			c6.771-0.257,13.574-0.514,20.379-0.771c0,3.991,0,7.798,0,11.668C90.446,184.029,83.766,184.029,76.909,184.029z"/>
		<path style="fill-rule:evenodd;clip-rule:evenodd;fill:none;" d="M73.903,183.704c-6.785,0.248-13.506,0.494-20.385,0.746
			c0.687-3.846-0.129-7.463-0.28-11.188c7.041-0.555,13.927,0.231,20.99-0.031C74.12,176.718,74.016,180.083,73.903,183.704z"/>
		<path style="fill-rule:evenodd;clip-rule:evenodd;fill:none;" d="M53.184,153.45c0-3.488,0-6.825,0-10.358
			c6.951-0.075,13.815,0.628,20.855-0.604c0.328,3.904-0.019,7.662,0.217,11.469C67.112,153.784,60.143,153.616,53.184,153.45z"/>
		<path style="fill-rule:evenodd;clip-rule:evenodd;fill:none;" d="M139.667,170.999c-0.188,4.09-0.361,7.9-0.543,11.851
			c-0.616,0.128-1.383,0.398-2.159,0.429c-5.184,0.205-10.37,0.359-15.662,0.533c0-3.931,0-7.823,0-11.889
			C127.368,171.618,133.411,171.313,139.667,170.999z"/>
		<path style="fill-rule:evenodd;clip-rule:evenodd;fill:none;" d="M119.591,142c0,3.762,0,7.267,0,10.847
			c-6.547,0.109-13.062,0.219-19.663,0.328c-0.086-3.506-0.175-7.117-0.265-10.788C106.323,142.257,112.887,142.13,119.591,142z"/>
		<path style="fill-rule:evenodd;clip-rule:evenodd;fill:none;" d="M50.539,173.291c0.556,2.577,0.559,7.988,0.005,11.421
			c-5.891,0.416-11.812,0.486-17.738,0.302c0-3.747,0-7.401,0-11.007C38.644,173.771,44.554,173.532,50.539,173.291z"/>
		<path style="fill-rule:evenodd;clip-rule:evenodd;fill:none;" d="M32.143,153.813c0.545-3.734-0.327-7.35,0.596-10.825
			c5.896,0,11.754,0,17.744,0c0,3.563,0,6.967,0,10.446C44.386,153.561,38.375,153.685,32.143,153.813z"/>
		<path style="fill-rule:evenodd;clip-rule:evenodd;fill:none;" d="M139.689,152.146c-6.175-0.364-12.103,0.411-18.241,1.064
			c0-3.745,0-7.354,0-11.063c5.829-0.3,11.784-0.607,17.939-0.925C139.488,144.896,139.587,148.447,139.689,152.146z"/>
		<path style="fill-rule:evenodd;clip-rule:evenodd;fill:none;" d="M73.008,43.028c-0.519-3.173-1.114-6.215-0.556-9.494
			c2.33,0.121,4.567,0.366,6.438,1.845c1.657,1.311,1.777,3.683,0.255,5.166C77.473,42.174,75.318,42.68,73.008,43.028z"/>
		<path style="fill-rule:evenodd;clip-rule:evenodd;fill:none;" d="M52.825,39.491c-1.071,0.1-2.143,0.199-3.214,0.299
			c-0.079-0.1-0.158-0.201-0.236-0.301c0.546-1.094,1.093-2.188,1.666-3.332c1.796,0.417,1.259,2.068,1.92,3.009
			C52.915,39.274,52.87,39.383,52.825,39.491z"/>
		<path style="fill-rule:evenodd;clip-rule:evenodd;" d="M38.782,252.802c-0.218-0.478-0.38-0.831-0.519-1.136
			c0.921-1.419,1.939-2.8,2.753-4.294c0.818-1.502,1.323-3.141,1.234-4.953c-1.568-0.039-1.967,1.229-2.602,2.154
			c-1.339-0.68-1.662-1.705-0.862-2.818c0.828-1.152,1.992-1.763,3.418-1.516c1.309,0.227,1.863,1.278,2.167,2.446
			c0.623,2.392,0.067,5.035-1.546,7.688c0.786,0.508,1.593,0.982,2.334,1.545c0.181,0.137,0.146,0.557,0.218,0.883
			C43.074,252.802,40.905,252.802,38.782,252.802z"/>
		<path style="fill-rule:evenodd;clip-rule:evenodd;" d="M69.396,247.216c0.908,1.316,1.384,2.703,0.304,4.171
			c-0.9,1.224-2.72,1.845-4.177,1.472c-1.338-0.341-2.125-1.298-2.354-3.088c0.584,0.16,1.091,0.246,1.549,0.443
			c0.358,0.154,0.634,0.49,0.985,0.67c1.121,0.572,1.935,0.132,2.723-1.599c-0.908-0.417-1.821-0.836-2.779-1.276
			c-0.047-0.4-0.097-0.828-0.157-1.348c0.595-0.154,1.168-0.268,1.718-0.451c1.24-0.417,1.979-1.506,1.667-2.402
			c-0.319-0.92-1.713-1.281-2.918-0.65c-0.611,0.321-1.113,0.852-1.694,1.311c-0.836-0.558-1.055-1.057-0.85-2.102
			c0.187-0.947,0.794-1.528,1.77-1.693c1.888-0.318,4.381,0.824,5.379,2.466c0.617,1.017,0.548,2.083-0.208,2.997
			C70.073,246.474,69.772,246.792,69.396,247.216z"/>
	</g>
</g>
<g id="Layer_1">
</g>
</svg>
