<?xml version="1.0" encoding="UTF-8" standalone="no"?>
<!DOCTYPE svg PUBLIC "-//W3C//DTD SVG 1.1//EN" "http://www.w3.org/Graphics/SVG/1.1/DTD/svg11.dtd">
<svg width="100%" height="100%" viewBox="0 0 233 330" version="1.1" xmlns="http://www.w3.org/2000/svg" xmlns:xlink="http://www.w3.org/1999/xlink" xml:space="preserve" xmlns:serif="http://www.serif.com/" style="fill-rule:evenodd;clip-rule:evenodd;stroke-linejoin:round;stroke-miterlimit:2;">
    <g id="iYiTDo">
        <path d="M192.46,308.68L40.54,308.68L40.54,11.32L192.46,11.32L192.46,308.68ZM162.51,110.82L171.16,110.82C171.78,110.82 173.07,109.7 172.95,109.14C172.75,108.22 171.97,108.39 171.31,108.39C169.13,108.36 166.95,108.34 164.77,108.31C164.03,108.3 163.28,108.25 162.46,108.21C162.54,106.81 162.69,105.55 162.68,104.29C162.64,100.79 162.5,97.29 162.46,93.79C162.43,90.45 162.49,87.11 162.51,83.77L162.51,76.71C164.85,76.71 167.07,76.64 169.29,76.73C171.14,76.81 172.07,76.15 172.1,74.36C172.14,72.26 172.1,70.15 172.1,68.03C171.71,67.98 171.52,67.93 171.33,67.93C166.97,67.93 162.61,67.93 158.25,67.96C155.32,67.98 152.39,68.11 149.46,68.08C145.32,68.03 141.18,67.83 137.03,67.77C133.76,67.73 130.5,67.86 127.23,67.82C122.83,67.76 118.44,67.56 114.04,67.52C109.87,67.48 105.69,67.64 101.52,67.61C95.92,67.57 90.32,67.36 84.72,67.36C79.58,67.36 74.44,67.6 69.3,67.68C64.45,67.76 59.6,67.74 54.74,67.83C54.23,67.83 53.42,68.18 53.29,68.55C53.01,69.34 53.06,70.26 53.04,71.12C53.02,72.05 53.17,72.99 53.09,73.91C52.95,75.47 53.45,76.06 55.06,76.1C57.07,76.15 59.09,76.26 60.98,76.34L60.98,81.83C60.98,82.93 61.04,84.04 61.02,85.14C60.98,87.54 60.92,89.94 60.86,92.34C60.82,93.88 60.8,95.43 60.73,96.97C60.64,98.93 60.5,100.89 60.41,102.86C60.33,104.58 60.32,106.31 60.22,108.03C60.19,108.64 59.91,109.09 59.14,109.13C57.91,109.19 56.69,109.38 55.46,109.49C54.77,109.55 54.05,109.56 53.94,110.47C53.82,111.45 54.57,111.77 55.27,111.84C56.53,111.97 57.81,111.98 59.07,111.9C59.86,111.85 60.18,112.06 60.19,112.84C60.2,114.46 60.16,116.09 60.29,117.7C60.5,120.26 60.93,122.8 61.07,125.36C61.24,128.51 61.21,131.67 61.26,134.83C61.27,135.55 61.22,136.26 61.24,136.98C61.31,139.05 61.42,141.12 61.48,143.2C61.53,145.25 61.54,147.3 61.56,149.35C61.56,149.96 61.73,150.72 60.82,150.81C59.56,150.94 58.29,151.01 57.02,151.05C55.62,151.09 54.22,151.05 52.76,151.05C53.32,152.88 53.45,152.91 61.55,153.15L61.55,159.62C61.55,161.56 61.56,163.5 61.53,165.44C61.53,165.7 61.36,166.13 61.17,166.2C60.31,166.48 59.41,166.87 58.55,166.82C57.39,166.75 56.52,167.18 55.97,168.01C55.14,169.25 54.33,170.58 53.88,171.98C53.19,174.15 55.48,176.9 57.76,176.9L61.31,176.9L61.31,192.12C59.67,191.95 58.16,191.76 56.64,191.64C56.02,191.59 55.37,191.61 54.76,191.72C54.54,191.76 54.39,192.16 54.2,192.39C54.41,192.54 54.61,192.78 54.84,192.83C56.18,193.09 57.53,193.31 58.88,193.53C59.68,193.67 60.49,193.79 61.39,193.94C61.39,195.57 61.4,197.07 61.39,198.58C61.37,200.18 61.24,201.77 61.3,203.37C61.39,205.9 61.7,208.43 61.73,210.96C61.78,214.72 61.65,218.49 61.63,222.25C61.61,224.98 61.66,227.7 61.61,230.43C61.61,230.76 61.16,231.34 60.9,231.35C59.65,231.4 58.38,231.24 57.13,231.28C56.63,231.3 55.91,231.51 55.69,231.87C55.24,232.59 55.97,232.9 56.52,233.14C56.8,233.26 57.13,233.3 57.44,233.33C58.81,233.44 60.19,233.53 61.64,233.63L61.64,242.63C61.64,244.17 61.48,245.71 61.59,247.23C61.66,248.17 62.26,249.08 62.33,250.03C62.51,252.21 62.51,254.4 62.58,256.58C62.69,260.19 62.83,263.81 62.9,267.43C62.95,269.73 62.9,272.03 62.9,274.46C62.35,274.46 61.92,274.43 61.49,274.46C60.46,274.54 59.43,274.61 58.41,274.77C58.14,274.81 57.91,275.18 57.67,275.4C57.9,275.6 58.1,275.89 58.36,275.97C58.85,276.11 59.37,276.17 59.88,276.18C60.84,276.21 61.8,276.18 62.7,276.18C62.7,277.64 62.66,278.9 62.7,280.17C62.77,282.21 62.9,284.25 62.99,286.29C63.11,288.91 63.18,291.54 63.35,294.16C63.37,294.52 63.8,294.85 64.05,295.2C64.29,294.88 64.72,294.58 64.75,294.24C64.84,293.14 64.77,292.03 64.8,290.92C64.87,287.98 64.96,285.04 65.05,282.1C65.09,280.77 65.34,279.41 65.16,278.1C64.93,276.38 65.32,276.27 66.89,276.38C69.82,276.58 72.75,276.64 75.69,276.7C77.68,276.75 79.68,276.7 81.92,276.7C81.77,277.94 81.5,278.98 81.54,280.02C81.63,282.62 81.9,285.21 82,287.81C82.07,289.63 81.96,291.45 81.98,293.27C81.98,293.88 81.94,294.71 82.85,294.69C83.64,294.66 84.09,294.14 84.06,293.25C84,291.23 83.98,289.21 83.97,287.18C83.96,283.76 83.97,280.34 83.97,276.6L101.69,276.6C101.56,277.62 101.33,278.65 101.33,279.67C101.33,281.89 101.45,284.11 101.55,286.34C101.67,288.82 101.81,291.31 102,293.78C102.03,294.11 102.44,294.41 102.67,294.73C102.88,294.4 103.24,294.08 103.28,293.73C103.42,292.51 103.44,291.28 103.53,290.06C103.67,288.32 103.96,286.58 103.96,284.83C103.96,282.46 103.72,280.08 103.64,277.71C103.59,276.09 103.64,276.11 105.31,276.14C105.82,276.15 106.33,275.97 106.84,275.95C109.73,275.86 112.62,275.76 115.5,275.72C118.24,275.68 120.98,275.72 124.03,275.72C124.03,278.55 123.97,281.28 124.05,284.01C124.13,286.74 124.34,289.47 124.55,292.19C124.58,292.51 125.03,293.03 125.3,293.04C125.61,293.05 126.14,292.66 126.23,292.34C126.44,291.54 126.51,290.7 126.54,289.87C126.6,288.32 126.62,286.77 126.61,285.22C126.61,283.87 126.58,282.51 126.48,281.16C126.35,279.41 126.13,277.67 125.91,275.63L143.83,275.63C143.93,277.25 144.08,279.1 144.15,280.96C144.24,283.25 144.25,285.55 144.32,287.84C144.36,289.15 144.41,290.46 144.55,291.76C144.59,292.13 144.93,292.46 145.13,292.81C145.47,292.6 146.05,292.43 146.12,292.16C146.3,291.38 146.32,290.56 146.31,289.75C146.29,286.28 146.24,282.82 146.21,279.35C146.2,278.02 146.21,276.7 146.21,275.31L162.8,275.31C162.83,275.63 162.86,275.83 162.86,276.03C162.83,279.73 162.38,283.45 163.2,287.11C163.33,287.7 163.86,288.53 164.33,288.63C165.16,288.81 165.2,287.92 165.22,287.28C165.25,285.86 165.28,284.44 165.28,283.02C165.28,281.74 165.28,280.46 165.21,279.18C165.14,277.92 164.97,276.67 164.83,275.29L168.3,275.29C169.12,275.29 169.88,274.91 169.79,274.11C169.73,273.61 169,273.09 168.46,272.79C168.1,272.59 167.53,272.74 167.05,272.74L164.7,272.74C164.7,270.05 164.69,267.47 164.7,264.9C164.72,261.84 164.85,258.77 164.75,255.72C164.64,252.25 164.29,248.79 164.11,245.33C163.99,243.08 163.97,240.82 163.94,238.56C163.91,236.66 163.94,234.77 163.94,233.01C165.92,232.83 167.57,232.75 169.21,232.5C169.6,232.44 169.92,231.83 170.26,231.48C169.91,231.16 169.59,230.62 169.2,230.57C168.35,230.46 167.47,230.57 166.61,230.65C164.31,230.86 163.64,230.26 163.77,228.03C163.87,226.28 164.05,224.53 164.05,222.78C164.03,217.61 163.92,212.44 163.88,207.27C163.85,203.85 163.88,200.43 163.9,197.01C163.9,195.52 163.97,194.03 164.01,192.39C165.82,192.5 167.39,192.54 168.95,192.69C170.34,192.82 171.07,192.54 171.13,191.7C171.18,190.92 170.42,190.43 169.1,190.4C168.78,190.4 168.46,190.4 168.14,190.39C166.81,190.3 165.47,190.2 164.22,190.11C164.01,184.7 163.81,179.44 163.61,174.2C165.12,174.03 166.43,173.98 167.69,173.71C169.3,173.36 170.57,172.69 171.02,170.77C171.48,168.83 170.89,167.07 170.56,165.28C170.41,164.46 169.6,164.06 168.58,164.12C166.89,164.23 165.18,164.15 163.5,164.15C163.33,159.92 163.17,155.95 163,151.93L164.74,151.93C166.62,151.92 168.49,151.94 170.37,151.87C171.23,151.84 171.93,150.84 171.7,149.86C171.61,149.5 170.85,149.09 170.38,149.07C169.4,149.02 168.41,149.25 167.42,149.28C166,149.32 164.58,149.29 163.13,149.29C163.05,147.63 162.93,146.21 162.92,144.79C162.89,141.85 162.96,138.9 162.92,135.96C162.89,133.58 162.39,131.15 162.76,128.85C163.22,126 162.71,123.22 162.84,120.42C162.88,119.55 162.86,118.68 162.82,117.8C162.71,115.38 162.58,112.96 162.47,110.78L162.51,110.82ZM101.67,33.57C101.13,36.38 100.87,36.87 99.21,38.09C97.78,39.14 95.83,39.06 94.77,37.67C93.5,35.99 92.62,34.11 93.55,31.9C93.83,31.24 94.05,30.56 94.34,29.91C95.29,27.75 96.66,25.93 98.96,25.15C99.81,24.86 100.82,25.05 101.75,24.98C102.12,24.95 102.48,24.79 102.84,24.69C102.63,24.34 102.52,23.84 102.21,23.66C100.55,22.69 98.76,23.01 97.19,23.69C93.52,25.27 91.89,28.56 90.79,32.15C90.55,32.93 90.33,33.83 90.49,34.59C91,37.06 91.92,39.37 94.57,40.31C96.04,40.83 97.58,41.45 99.13,40.49C100.02,39.94 100.91,39.38 101.91,38.75C102.02,39.37 102.19,39.91 102.2,40.45C102.21,41.51 102.85,41.7 103.7,41.7C104.62,41.7 104.71,41.08 104.64,40.39C104.59,39.92 104.56,39.43 104.4,38.99C103.7,37.11 103.5,35.22 104.09,33.33C104.5,33.15 105.03,33.07 105.23,32.77C105.42,32.5 105.35,31.68 105.23,31.64C104.64,31.45 103.97,31.31 103.37,31.4C101.35,31.7 99.33,32.08 97.33,32.48C96.88,32.57 96.47,32.86 96.04,33.06C96.5,33.36 96.94,33.7 97.42,33.95C97.6,34.05 97.89,33.95 98.13,33.94C99.3,33.83 100.47,33.72 101.68,33.6L101.67,33.57ZM97.52,58.92C97.45,58.92 97.37,58.92 97.3,58.93C97.38,60.08 97.41,61.24 97.54,62.38C97.67,63.54 98.22,64.47 99.43,64.73C101.52,65.2 103.54,64.59 105.4,63.84C106.98,63.2 108.37,62.26 109.36,60.54C110.75,58.11 110.09,54.22 107.55,52.98C104.71,51.59 101.7,50.79 98.54,50.57C97.43,50.49 96.97,51.01 97.06,52.14C97.24,54.4 97.37,56.66 97.52,58.92ZM125.34,60.45C124.85,60.91 124.57,61.39 124.23,61.44C123.22,61.6 122.16,61.75 121.15,61.61C119.28,61.36 117.69,59.36 117.82,57.67C117.95,56.04 120,54.05 121.74,54.11C122.95,54.15 124.14,54.54 125.34,54.73C125.65,54.78 125.99,54.69 126.32,54.66C126.27,54.25 126.36,53.69 126.13,53.46C125.66,53 125.04,52.67 124.44,52.36C121.65,50.96 118.39,51.67 116.87,54.21C115.89,55.85 115.2,57.62 115.76,59.73C116.19,61.35 116.85,62.51 118.38,63.27C119.84,63.99 121.27,64.33 122.87,63.91C123.51,63.74 124.19,63.69 124.83,63.59C125.07,64.23 125.16,64.87 125.52,65.3C125.84,65.68 126.46,66.03 126.92,65.99C127.56,65.93 127.86,65.37 127.71,64.64C127.57,63.94 127.6,63.21 127.41,62.53C127.04,61.18 127.1,60.12 128.65,59.54C128.93,59.44 129.19,58.62 129.06,58.29C128.91,57.91 128.34,57.52 127.92,57.47C126.83,57.34 125.71,57.38 124.61,57.4C123.34,57.43 122.07,57.46 120.82,57.63C120.48,57.68 119.92,58.32 119.98,58.57C120.07,58.95 120.56,59.4 120.97,59.51C122.26,59.87 123.58,60.08 125.34,60.43L125.34,60.45ZM139.9,58.74C140.54,58.77 140.94,58.77 141.33,58.82C141.76,58.87 142.19,58.98 142.62,59.05C144.81,59.37 144.87,59.43 144.84,61.63C144.84,61.79 144.77,61.95 144.8,62.1C145.04,63.34 144.19,65.02 146.37,65.44C147.32,65.62 147.96,65.48 148.04,64.49C148.11,63.62 148.13,62.72 148,61.86C147.5,58.53 146.93,55.22 146.39,51.9C146.37,51.78 146.37,51.62 146.29,51.56C145.91,51.25 145.51,50.97 145.12,50.68C144.9,51.05 144.52,51.41 144.5,51.78C144.43,53.08 144.44,54.38 144.5,55.68C144.55,56.53 144.27,56.83 143.42,56.76C142.47,56.68 141.51,56.64 140.56,56.7C139.69,56.75 139.48,56.31 139.41,55.58C139.28,54.23 139.17,52.87 138.88,51.55C138.79,51.13 138.18,50.83 137.8,50.47C137.51,50.8 137.1,51.1 136.96,51.48C136.78,51.99 136.76,52.58 136.76,53.13C136.76,55.76 136.74,58.39 136.8,61.02C136.82,61.95 137.05,62.87 137.16,63.59C137.91,63.84 138.38,64 138.86,64.15C139.65,64.41 140.21,64.17 140.33,63.33C140.4,62.83 140.32,62.3 140.27,61.79C140.17,60.82 140.04,59.85 139.9,58.73L139.9,58.74ZM61.27,56.05C60.49,54.57 61.02,53.4 62.64,53.07C63.42,52.91 64.21,52.81 64.96,52.56C65.47,52.39 66.02,52.11 66.34,51.7C66.58,51.4 66.58,50.8 66.49,50.38C66.45,50.18 65.92,49.97 65.62,49.98C63.68,50.05 61.74,50.13 59.81,50.3C58.75,50.39 57.69,51.13 57.7,52.06C57.72,53.98 57.57,55.93 58.21,57.85C58.67,59.22 58.89,60.73 58.9,62.18C58.9,63.55 59.22,64.14 60.6,64.1C62.43,64.04 64.27,64.01 66.1,63.87C66.66,63.83 67.42,63.62 67.68,63.23C67.98,62.77 67.96,61.98 67.79,61.41C67.71,61.15 66.95,60.95 66.51,60.97C64.94,61.04 63.38,61.21 61.86,61.34C61.58,60.06 61.36,59.05 61.12,57.92C62.16,57.92 63,57.97 63.82,57.91C64.95,57.82 66.1,57.7 67.2,57.44C67.51,57.37 67.7,56.75 67.94,56.38C67.58,56.17 67.22,55.79 66.86,55.79C65.04,55.82 63.22,55.95 61.28,56.05L61.27,56.05ZM86.54,65.52C86.86,65.16 87.13,64.9 87.34,64.61C88.02,63.68 87.69,62.82 87.16,61.96C86.65,61.13 85.96,60.36 86.35,59.23C86.41,59.05 86.08,58.71 85.88,58.49C85.45,58.01 84.88,57.62 84.58,57.08C83.51,55.13 82.57,53.12 81.5,51.17C81.31,50.83 80.78,50.6 80.36,50.48C80.19,50.43 79.76,50.73 79.67,50.96C78.17,54.84 76.69,58.73 75.22,62.62C74.82,63.69 75.45,64.08 76.33,64.46C77.3,64.88 77.42,64.14 77.72,63.64C77.94,63.27 78.05,62.83 78.23,62.43C79.14,60.51 79.8,60.27 81.96,60.55C83.22,60.71 83.8,61.34 84.21,62.42C84.52,63.23 84.98,63.99 85.45,64.72C85.63,65.01 86.03,65.16 86.52,65.52L86.54,65.52ZM159.51,53.76C160.3,53.8 160.88,53.83 161.47,53.86C162.74,53.92 164.02,54 165.29,54.01C166.01,54.01 166.84,54 166.97,53.05C167.07,52.28 165.85,50.87 165.15,50.92C162.97,51.09 160.8,51.3 158.63,51.56C157.67,51.67 157.11,52.3 157.16,53.28C157.27,55.68 157.37,58.09 157.61,60.48C157.72,61.66 158.06,62.83 158.4,63.97C158.74,65.11 159.68,65.54 160.81,65.3C161.54,65.15 162.3,65.12 163.05,65.05C164.12,64.96 165.21,64.98 166.24,64.75C166.61,64.67 166.84,63.97 167.14,63.56C166.69,63.27 166.24,62.75 165.79,62.74C164.06,62.71 162.32,62.85 160.44,62.93C160.25,61.96 160.07,61.07 159.87,60.05C161.27,60.05 162.4,60.06 163.54,60.05C165.02,60.03 165.24,59.76 165.02,57.96C163.86,57.94 162.64,57.96 161.43,57.87C160.9,57.83 159.99,57.68 159.92,57.41C159.65,56.3 159.63,55.12 159.5,53.76L159.51,53.76ZM115.4,32.35C114.72,32 113.98,31.56 113.19,31.22C112.13,30.77 111.1,30.95 110.1,31.52C109.87,31.66 109.48,31.66 109.21,31.58C108.27,31.3 107.74,31.65 107.81,32.58C108.01,35.15 108.28,37.72 108.58,40.28C108.69,41.21 109.53,41.24 110.17,41.05C110.48,40.96 110.71,40.33 110.81,39.91C110.9,39.55 110.71,39.12 110.72,38.73C110.77,37.04 110.75,35.33 110.97,33.66C111.02,33.26 111.81,32.73 112.32,32.65C113.03,32.54 113.43,33.11 113.47,33.87C113.55,35.37 113.72,36.87 113.72,38.38C113.72,39.27 114.1,39.57 114.89,39.68C115.78,39.8 115.89,39.22 115.94,38.59C115.98,38.12 115.96,37.64 115.97,37.17C116.02,35.61 116.31,34.15 117.71,33.18C118.39,32.71 118.92,32.78 119.09,33.7C119.4,35.41 119.74,37.12 119.96,38.84C120.07,39.7 120.33,40.03 121.24,39.9C122.06,39.78 122.43,39.34 122.3,38.62C121.95,36.76 121.62,34.88 121.05,33.09C120.63,31.78 119.35,30.98 118.43,31.23C117.36,31.52 116.34,32 115.39,32.36L115.4,32.35ZM130.57,32.64C129.08,32.64 127.54,32.6 126.01,32.67C125.66,32.69 125.05,33.06 125.03,33.3C124.97,34.02 125.52,34.14 126.17,34.12C127.54,34.07 128.91,34.11 130.34,34.11L130.34,35.39C130.37,37.17 130.31,38.97 130.5,40.74C130.55,41.2 131.32,41.9 131.79,41.93C132.46,41.98 132.75,41.3 132.67,40.54C132.55,39.43 132.6,38.31 132.44,37.21C132.2,35.54 132.25,34.19 134.33,33.74C135.22,33.55 135.32,32.62 134.56,32.12C134.11,31.83 133.42,31.92 132.78,31.83C132.78,31.83 132.72,31.7 132.74,31.59C133.11,29.5 133.55,27.43 133.84,25.33C133.92,24.74 133.63,24.07 133.41,23.48C133.36,23.34 132.86,23.32 132.57,23.33C130.12,23.4 127.68,23.48 125.23,23.6C124.78,23.62 124.33,23.86 123.89,23.99C124.16,24.51 124.31,25.23 124.73,25.48C125.26,25.8 126.02,25.81 126.69,25.83C128.26,25.87 129.84,25.84 131.45,25.84C131.16,28.11 130.88,30.21 130.57,32.63L130.57,32.64ZM181.06,164.67C181.21,166.59 181.34,168.41 181.49,170.22C181.57,171.27 182.35,171.2 183.07,171.15C183.89,171.09 183.81,170.48 183.77,169.91C183.68,168.6 183.57,167.29 183.53,165.98C183.49,164.71 183.68,163.4 183.45,162.17C183.33,161.53 182.56,160.94 181.94,160.54C181.74,160.41 180.97,160.88 180.68,161.25C179.71,162.45 178.8,163.72 177.93,165C177.71,165.33 177.68,165.79 177.57,166.17C179.42,167.06 179.99,165.35 181.06,164.67Z" style="fill:white;fill-opacity:0;fill-rule:nonzero;"/>
        <path d="M162.51,110.82C162.62,113.01 162.76,115.42 162.86,117.84C162.9,118.71 162.92,119.59 162.88,120.46C162.75,123.27 163.27,126.04 162.8,128.89C162.43,131.19 162.92,133.62 162.96,136C163,138.94 162.94,141.89 162.96,144.83C162.97,146.25 163.09,147.67 163.17,149.33C164.62,149.33 166.04,149.36 167.46,149.32C168.45,149.29 169.44,149.05 170.42,149.11C170.89,149.14 171.65,149.54 171.74,149.9C171.98,150.88 171.27,151.88 170.41,151.91C168.54,151.98 166.66,151.96 164.78,151.97L163.04,151.97C163.2,155.99 163.36,159.96 163.54,164.19C165.22,164.19 166.92,164.27 168.62,164.16C169.64,164.09 170.45,164.5 170.6,165.32C170.93,167.12 171.52,168.87 171.06,170.81C170.61,172.73 169.33,173.4 167.73,173.75C166.47,174.02 165.15,174.07 163.65,174.24C163.85,179.47 164.05,184.74 164.26,190.15C165.51,190.24 166.85,190.34 168.18,190.43C168.5,190.45 168.82,190.43 169.14,190.44C170.46,190.47 171.22,190.96 171.17,191.74C171.11,192.58 170.38,192.86 168.99,192.73C167.43,192.58 165.87,192.53 164.05,192.43C164.01,194.07 163.95,195.56 163.94,197.05C163.92,200.47 163.89,203.89 163.92,207.31C163.96,212.48 164.07,217.65 164.09,222.82C164.09,224.57 163.92,226.32 163.81,228.07C163.68,230.3 164.34,230.9 166.65,230.69C167.51,230.61 168.39,230.5 169.24,230.61C169.62,230.66 169.95,231.2 170.3,231.52C169.95,231.88 169.64,232.48 169.25,232.54C167.62,232.79 165.96,232.88 163.98,233.05C163.98,234.81 163.96,236.7 163.98,238.6C164.01,240.86 164.03,243.11 164.15,245.37C164.33,248.84 164.68,252.29 164.79,255.76C164.89,258.82 164.75,261.88 164.74,264.94C164.73,267.52 164.74,270.09 164.74,272.78L167.09,272.78C167.57,272.78 168.13,272.62 168.5,272.83C169.04,273.13 169.77,273.66 169.83,274.15C169.92,274.95 169.16,275.33 168.34,275.33L164.87,275.33C165.01,276.72 165.18,277.97 165.25,279.22C165.32,280.5 165.32,281.78 165.32,283.06C165.32,284.48 165.3,285.9 165.26,287.32C165.24,287.96 165.2,288.84 164.37,288.67C163.89,288.57 163.37,287.74 163.24,287.15C162.41,283.49 162.87,279.77 162.9,276.07C162.9,275.87 162.87,275.67 162.84,275.35L146.25,275.35C146.25,276.74 146.24,278.06 146.25,279.39C146.28,282.86 146.33,286.32 146.35,289.79C146.35,290.6 146.34,291.42 146.16,292.2C146.1,292.48 145.52,292.64 145.17,292.85C144.97,292.5 144.63,292.17 144.59,291.8C144.46,290.5 144.4,289.19 144.36,287.88C144.29,285.59 144.28,283.29 144.19,281C144.12,279.14 143.97,277.29 143.87,275.67L125.95,275.67C126.16,277.71 126.38,279.45 126.52,281.2C126.62,282.55 126.65,283.9 126.65,285.26C126.65,286.81 126.64,288.36 126.58,289.91C126.55,290.74 126.48,291.58 126.27,292.38C126.19,292.69 125.66,293.09 125.34,293.08C125.07,293.07 124.62,292.55 124.59,292.23C124.37,289.51 124.17,286.78 124.09,284.05C124.01,281.32 124.07,278.59 124.07,275.76C121.01,275.76 118.28,275.73 115.54,275.76C112.65,275.8 109.76,275.9 106.88,275.99C106.37,276.01 105.86,276.19 105.35,276.18C103.68,276.15 103.63,276.13 103.68,277.75C103.75,280.12 104,282.5 104,284.87C104,286.61 103.71,288.35 103.57,290.1C103.47,291.32 103.46,292.55 103.32,293.77C103.28,294.12 102.92,294.44 102.71,294.77C102.48,294.45 102.07,294.15 102.04,293.82C101.84,291.34 101.7,288.86 101.59,286.38C101.48,284.16 101.38,281.94 101.37,279.71C101.37,278.69 101.6,277.66 101.73,276.64L84.01,276.64L84.01,287.22C84.01,289.24 84.04,291.27 84.1,293.29C84.13,294.18 83.68,294.71 82.89,294.73C81.98,294.76 82.03,293.93 82.02,293.31C82,291.49 82.11,289.67 82.04,287.85C81.94,285.25 81.67,282.66 81.58,280.06C81.55,279.03 81.81,277.99 81.96,276.74C79.71,276.74 77.72,276.78 75.73,276.74C72.8,276.67 69.86,276.62 66.93,276.42C65.36,276.31 64.97,276.42 65.2,278.14C65.38,279.44 65.13,280.8 65.09,282.14C65,285.08 64.91,288.02 64.84,290.96C64.81,292.07 64.88,293.18 64.79,294.28C64.76,294.62 64.34,294.92 64.09,295.24C63.85,294.89 63.42,294.56 63.39,294.2C63.22,291.58 63.15,288.95 63.03,286.33C62.94,284.29 62.81,282.25 62.74,280.21C62.7,278.95 62.74,277.68 62.74,276.22C61.83,276.22 60.87,276.24 59.92,276.22C59.41,276.2 58.89,276.15 58.4,276.01C58.14,275.93 57.94,275.64 57.71,275.44C57.96,275.22 58.18,274.85 58.45,274.81C59.47,274.65 60.5,274.58 61.53,274.5C61.95,274.47 62.38,274.5 62.94,274.5C62.94,272.06 62.98,269.76 62.94,267.47C62.86,263.85 62.73,260.24 62.62,256.62C62.55,254.43 62.54,252.24 62.37,250.07C62.29,249.12 61.69,248.22 61.63,247.27C61.52,245.74 61.67,244.2 61.68,242.67C61.69,239.7 61.68,236.72 61.68,233.67C60.22,233.57 58.85,233.48 57.48,233.37C57.17,233.35 56.84,233.31 56.56,233.18C56.02,232.94 55.28,232.64 55.73,231.91C55.96,231.54 56.67,231.33 57.17,231.32C58.43,231.28 59.69,231.44 60.94,231.39C61.2,231.38 61.65,230.79 61.65,230.47C61.7,227.75 61.65,225.02 61.67,222.29C61.69,218.53 61.82,214.76 61.77,211C61.74,208.47 61.43,205.94 61.34,203.41C61.28,201.82 61.41,200.22 61.43,198.62C61.45,197.12 61.43,195.62 61.43,193.98C60.53,193.83 59.72,193.71 58.92,193.57C57.57,193.34 56.22,193.13 54.88,192.87C54.65,192.82 54.45,192.58 54.24,192.43C54.42,192.19 54.58,191.79 54.8,191.76C55.41,191.65 56.06,191.63 56.68,191.68C58.2,191.8 59.71,191.99 61.35,192.16L61.35,176.94L57.8,176.94C55.52,176.94 53.23,174.19 53.92,172.02C54.37,170.61 55.18,169.29 56.01,168.05C56.56,167.22 57.43,166.8 58.59,166.86C59.45,166.91 60.36,166.52 61.21,166.24C61.4,166.18 61.56,165.75 61.57,165.48C61.6,163.54 61.59,161.6 61.59,159.66L61.59,153.19C53.49,152.95 53.35,152.92 52.8,151.09C54.27,151.09 55.67,151.12 57.06,151.09C58.33,151.05 59.6,150.99 60.86,150.85C61.76,150.75 61.6,150 61.6,149.39C61.58,147.34 61.57,145.29 61.52,143.24C61.47,141.17 61.35,139.09 61.28,137.02C61.26,136.3 61.31,135.59 61.3,134.87C61.25,131.71 61.28,128.55 61.11,125.4C60.97,122.84 60.53,120.3 60.33,117.74C60.2,116.13 60.24,114.5 60.23,112.88C60.23,112.1 59.9,111.89 59.11,111.94C57.85,112.02 56.57,112.01 55.31,111.88C54.62,111.81 53.87,111.48 53.98,110.51C54.09,109.59 54.81,109.59 55.5,109.53C56.73,109.42 57.95,109.24 59.18,109.17C59.95,109.13 60.22,108.67 60.26,108.07C60.36,106.35 60.37,104.62 60.45,102.9C60.54,100.94 60.68,98.98 60.77,97.01C60.84,95.47 60.86,93.92 60.9,92.38C60.96,89.98 61.02,87.58 61.06,85.18C61.08,84.08 61.03,82.97 61.02,81.87L61.02,76.38C59.13,76.3 57.11,76.19 55.1,76.14C53.49,76.1 52.99,75.51 53.13,73.95C53.22,73.03 53.06,72.09 53.08,71.16C53.1,70.29 53.05,69.38 53.33,68.59C53.46,68.22 54.27,67.88 54.78,67.87C59.63,67.78 64.48,67.8 69.34,67.72C74.48,67.64 79.62,67.41 84.76,67.4C90.36,67.4 95.96,67.61 101.56,67.65C105.73,67.68 109.91,67.53 114.08,67.56C118.48,67.6 122.87,67.8 127.27,67.86C130.54,67.9 133.8,67.77 137.07,67.81C141.21,67.87 145.35,68.07 149.5,68.12C152.43,68.16 155.36,68.02 158.29,68C162.65,67.97 167.01,67.97 171.37,67.97C171.56,67.97 171.76,68.02 172.14,68.07C172.14,70.19 172.17,72.29 172.14,74.4C172.11,76.19 171.18,76.85 169.33,76.77C167.11,76.67 164.89,76.75 162.55,76.75L162.55,83.81C162.54,87.15 162.47,90.49 162.5,93.83C162.53,97.33 162.68,100.83 162.72,104.33C162.73,105.59 162.58,106.85 162.5,108.25C163.32,108.29 164.07,108.34 164.81,108.35C166.99,108.39 169.17,108.41 171.35,108.43C172.01,108.43 172.79,108.26 172.99,109.18C173.11,109.74 171.82,110.86 171.2,110.86C168.42,110.85 165.65,110.86 162.55,110.86L162.51,110.82ZM103.47,232.84C104.55,246.64 103.46,260.22 103.71,273.79C105.47,273.67 107.15,273.48 108.84,273.44C111.95,273.38 115.06,273.44 118.17,273.39C119.86,273.37 121.55,273.19 123.24,273.21C124.08,273.22 124.27,272.92 124.25,272.18C124.2,270.33 124.26,268.47 124.17,266.62C124.02,263.77 123.74,260.93 123.57,258.08C123.43,255.88 123.35,253.68 123.28,251.47C123.24,249.85 123.37,248.23 123.24,246.62C123.13,245.23 122.62,243.89 123.23,242.46C123.43,241.98 123.16,241.3 123.13,240.72C123.1,240.14 123.1,239.56 123.07,238.99C122.97,237.1 122.91,235.2 122.71,233.32C122.68,233.03 122.05,232.57 121.7,232.58C119.32,232.61 116.94,232.8 114.57,232.84C111,232.89 107.44,232.85 103.47,232.85L103.47,232.84ZM121.18,149.44C120.98,142.74 120.71,136.31 120.62,129.87C120.52,123.45 120.6,117.03 120.6,110.67C120.21,110.59 120.13,110.55 120.06,110.56C114.8,110.72 109.55,110.9 104.29,111.05C102.25,111.11 101.97,111.4 101.99,113.18C102.03,116.02 101.99,118.86 101.99,121.7C101.99,122.51 102.03,123.31 102.06,124.12C102.13,126.11 102.2,128.1 102.26,130.1C102.32,132.13 102.38,134.15 102.44,136.18C102.55,140.34 102.66,144.5 102.76,148.65C102.78,149.4 102.95,149.73 103.89,149.65C105.95,149.47 108.03,149.47 110.1,149.46C113.72,149.43 117.34,149.46 121.18,149.46L121.18,149.44ZM141.43,110.58C139.88,110.58 138.59,110.6 137.29,110.58C132.95,110.52 128.6,110.47 124.26,110.37C123.35,110.35 122.91,110.56 123.08,111.57C123.2,112.27 123.22,112.99 123.22,113.71C123.17,119.9 123.11,126.09 123.04,132.27C123.04,133.1 122.89,133.92 122.93,134.74C123.12,138.55 123.36,142.37 123.56,146.18C123.61,147.13 123.56,148.08 123.56,149.17L141.44,149.17C142.09,136.26 141.21,123.46 141.43,110.58ZM125.84,232.57C126.42,237.06 126.25,241.28 125.96,245.53C125.7,249.32 125.72,253.14 125.75,256.94C125.77,259.93 126.05,262.92 126.13,265.91C126.2,268.35 126.14,270.8 126.14,273.4C131.93,273.21 137.56,273.02 143.17,272.84C143.17,271.41 143.18,270.1 143.17,268.79C143.1,263.26 143.24,257.71 142.86,252.2C142.58,248.04 142.93,243.93 143,239.8C143.04,237.4 143,235 143,232.57L125.84,232.57ZM99.24,111.21L84.31,111.21C82.903,111.21 82.153,111.877 82.06,113.21C82.06,113.33 82,113.44 82,113.56C81.95,116.02 81.9,118.47 81.85,120.93C81.83,121.78 81.8,122.63 81.82,123.48C81.88,125.84 81.96,128.2 82.03,130.55C82.08,132.14 82.11,133.72 82.17,135.31C82.26,137.6 82.43,139.9 82.46,142.19C82.49,144.36 82.4,146.53 82.31,148.69C82.27,149.61 82.64,149.81 83.51,149.81C85.98,149.81 88.45,149.99 90.92,149.98C93.94,149.98 96.95,149.87 100.11,149.8C99.82,136.88 99.54,124.12 99.25,111.19L99.24,111.21ZM101.44,230.21C102.22,217.88 100.58,205.72 100.56,193.45L99.09,193.45C97.29,193.49 95.49,193.58 93.69,193.57C92.08,193.57 90.47,193.4 88.85,193.39C87.28,193.38 85.71,193.4 84.16,193.55C83.62,193.6 82.91,193.93 82.65,194.36C82.36,194.84 82.47,195.58 82.47,196.21C82.47,199.11 82.51,202 82.52,204.9C82.52,207.31 82.52,209.71 82.49,212.12C82.47,213.78 82.34,215.44 82.38,217.1C82.44,219.06 82.67,221.02 82.76,222.98C82.87,225.38 82.91,227.78 82.98,230.22L101.45,230.22L101.44,230.21ZM122.4,230.15C122.44,229.34 122.53,228.63 122.49,227.94C122.41,226.63 122.21,225.33 122.15,224.02C121.96,220 121.82,215.98 121.65,211.97C121.6,210.86 121.46,209.76 121.44,208.65C121.33,203.63 121.25,198.6 121.13,193.58C121.13,193.32 120.91,192.86 120.77,192.85C119.28,192.72 117.79,192.59 116.3,192.62C114.91,192.64 113.52,192.92 112.13,192.96C109.2,193.06 106.27,193.07 103.32,193.12C103.25,193.76 103.17,194.11 103.17,194.46C103.23,197.92 103.31,201.38 103.38,204.84C103.43,207.31 103.42,209.78 103.51,212.24C103.59,214.42 103.85,216.6 103.89,218.77C103.95,222.52 103.91,226.27 103.91,230.14L122.42,230.14L122.4,230.15ZM162.73,272.81C162.73,268.79 162.85,265.05 162.7,261.31C162.5,256.42 162.05,251.54 161.79,246.65C161.62,243.39 161.59,240.12 161.52,236.86C161.49,235.47 161.52,234.08 161.52,232.64C159.71,232.55 157.99,232.4 156.28,232.4C153.02,232.4 149.75,232.5 146.49,232.47C145.8,232.47 145.69,232.59 145.69,233.22C145.66,236.58 145.6,239.94 145.51,243.3C145.46,245.33 145.29,247.35 145.24,249.38C145.22,250.13 145.45,250.88 145.45,251.63C145.44,257.7 145.45,263.76 146.06,269.81C146.16,270.75 146.2,271.69 146.28,272.82L162.74,272.82L162.73,272.81ZM125.62,229.93L143.11,229.93C143.15,229.31 143.27,228.68 143.22,228.06C143.01,225.5 142.65,222.94 142.53,220.37C142.35,216.67 142.35,212.97 142.23,209.27C142.14,206.62 142.07,203.96 141.82,201.32C141.58,198.68 141.19,196.06 141.62,193.41C141.68,193.01 141.59,192.59 141.57,192.18C139.28,192.18 137.12,192.1 134.96,192.2C131.73,192.34 128.51,192.69 125.27,192.77C124.06,192.8 123.75,193.14 123.81,194.26C123.95,196.88 124,199.5 124.09,202.12C124.17,204.55 124.21,206.97 124.36,209.4C124.6,213.51 124.91,217.62 125.17,221.73C125.34,224.42 125.46,227.1 125.61,229.94L125.62,229.93ZM101.37,232.83C98.66,232.83 96.15,232.85 93.64,232.83C90.91,232.8 88.18,232.74 85.45,232.66C83.15,232.59 82.61,233.09 82.83,234.97C83.03,236.62 83.11,238.28 83.16,239.94C83.23,242.15 83.19,244.35 83.27,246.56C83.28,246.87 83.62,247.34 83.92,247.45C87.6,248.85 90.48,251.01 89.5,255.69C88.83,258.91 87.25,261.37 84.16,262.77C83.83,262.92 83.55,263.51 83.52,263.92C83.46,264.66 83.63,265.42 83.66,266.18C83.77,268.91 83.86,271.63 83.95,274.3C89.96,274.17 95.79,274.05 101.82,273.92C101.67,260.13 101.51,246.57 101.36,232.84L101.37,232.83ZM159.82,110.41C154.71,110.41 149.7,110.44 144.69,110.39C143.61,110.38 143.42,110.81 143.48,111.74C143.62,113.87 143.72,116 143.79,118.14C143.87,120.59 143.89,123.05 143.93,125.51C143.99,128.85 144.08,132.19 144.1,135.54C144.12,137.95 144.04,140.37 144.03,142.78C144.02,144.93 144.03,147.08 144.03,149.19L160.35,149.19C160.17,136.28 159.99,123.44 159.81,110.43L159.82,110.41ZM63.11,112.09C63.39,125.03 63.67,137.77 63.96,150.6C65.42,150.5 66.81,150.36 68.2,150.31C71.78,150.17 75.37,150.05 78.95,149.94C79.89,149.91 80.11,149.49 80.08,148.58C80.01,146.41 80.1,144.23 80.08,142.06C80.06,139.82 80.02,137.58 79.94,135.34C79.88,133.53 79.72,131.72 79.66,129.91C79.55,126.71 79.46,123.5 79.42,120.3C79.4,118.71 79.5,117.12 79.52,115.53C79.54,114.16 79.52,112.79 79.52,111.44C74.05,111.66 68.61,111.88 63.12,112.11L63.11,112.09ZM64,233.31C64.34,247.09 64.68,260.73 65.02,274.61L81.92,274.61C81.81,272.9 81.72,271.51 81.64,270.12C81.52,267.97 81.43,265.82 81.26,263.67C81.23,263.33 80.91,262.9 80.6,262.72C79.24,261.92 77.73,261.35 76.48,260.42C75.32,259.56 74.71,258.23 75.1,256.71C75.51,255.14 75.89,253.55 76.53,252.07C77.2,250.52 78.12,248.99 79.76,248.3C80.9,247.82 80.85,247.05 80.84,246.12C80.84,243.94 80.88,241.75 80.89,239.57C80.9,237.43 80.89,235.29 80.89,233.3L63.99,233.3L64,233.31ZM144.39,192.45C144.31,193.4 144.23,194.14 144.19,194.89C144.12,196.15 143.97,197.42 144.04,198.68C144.16,200.68 144.54,202.67 144.61,204.68C144.79,209.84 144.83,215.01 145.01,220.17C145.13,223.44 145.4,226.71 145.61,230.05L146.3,230.05C148.92,230.05 151.53,230.03 154.15,230.06C156.21,230.08 158.26,230.2 160.32,230.2C160.57,230.2 161.02,229.77 161.03,229.52C161.14,227 161.23,224.47 161.21,221.95C161.21,220.68 160.88,219.42 160.87,218.15C160.84,213.92 160.89,209.68 160.9,205.45L160.9,192.45L144.39,192.45ZM64.01,230.93C64.94,230.93 65.64,230.95 66.35,230.93C70.85,230.79 75.34,230.62 79.84,230.51C80.58,230.49 80.81,230.27 80.78,229.53C80.69,227.08 80.68,224.63 80.59,222.18C80.47,218.98 80.24,215.78 80.17,212.58C80.12,210.07 80.26,207.56 80.26,205.05C80.26,203.15 80.16,201.24 80.13,199.34C80.11,197.58 80.13,195.82 80.13,194L64,194L64,230.92L64.01,230.93ZM82.17,108.28C84.72,108.28 87.07,108.25 89.41,108.28C92.32,108.32 95.23,108.38 98.14,108.51C99.25,108.56 99.75,108.15 99.76,107.06C99.8,104.87 99.86,102.67 99.9,100.48C99.93,98.61 99.92,96.73 99.98,94.86C100.05,92.67 100.24,90.49 100.28,88.3C100.32,86.4 100.2,84.5 100.19,82.6C100.17,80.63 100.19,78.66 100.19,76.65C93.66,76.51 87.31,76.37 80.75,76.23C81.78,86.9 82.42,97.53 82.17,108.27L82.17,108.28ZM141.19,108.19C141.19,107.28 141.18,106.4 141.19,105.51C141.25,101.1 141.34,96.68 141.38,92.27C141.4,90.11 141.32,87.94 141.34,85.78C141.36,83.97 141.45,82.17 141.52,80.36C141.57,79.06 141.63,77.76 141.7,76.23L123.59,76.23C123.4,86.91 123.21,97.41 123.01,108.19L141.19,108.19ZM120.48,108.18C120.66,97.55 120.85,86.98 121.03,76.47C119.32,76.35 117.77,76.13 116.23,76.16C111.84,76.26 107.46,76.48 103.07,76.61C102.24,76.63 102.02,77.03 102.08,77.72C102.28,79.87 102.48,82.03 102.72,84.18C103.01,86.77 103.26,89.35 102.8,91.96C102.6,93.12 102.6,94.32 102.59,95.5C102.57,98.19 102.61,100.88 102.62,103.57L102.62,108.19L120.48,108.19L120.48,108.18ZM80.08,108.4C79.93,97.46 79.79,86.88 79.65,76.23L62.39,76.23C63.92,87.25 63.55,98.08 63.18,108.92C68.81,108.75 74.38,108.58 80.08,108.4ZM143.95,76.47C143.8,87.04 143.65,97.59 143.5,108.16L159.85,108.16L159.85,76.47L143.95,76.47ZM103.25,190.78L109.4,190.78C112.83,190.76 116.25,190.69 119.68,190.72C121.4,190.73 121.43,190.7 121.44,189C121.44,186 121.54,182.99 121.63,179.99C121.68,178.45 121.8,176.92 121.89,175.31C121.38,175.28 120.99,175.24 120.6,175.25C118.37,175.31 116.14,175.37 113.91,175.45C111.01,175.55 108.11,175.64 105.21,175.77C103.26,175.86 103.28,175.89 103.28,177.92C103.28,180.45 103.26,182.98 103.25,185.51L103.25,190.79L103.25,190.78ZM100.74,191.4L100.74,176.18C100.6,176.13 100.57,176.1 100.53,176.1C94.76,176.26 88.99,176.41 83.23,176.61C82.98,176.61 82.55,177.14 82.54,177.43C82.46,180.38 82.45,183.34 82.43,186.29C82.42,188.02 82.43,189.74 82.43,191.39L100.74,191.39L100.74,191.4ZM161.18,190.21C160.97,184.79 160.78,179.59 160.58,174.38C154.88,174.51 149.36,174.63 143.78,174.75C143.83,175.59 143.9,176.34 143.91,177.08C143.97,180.84 143.98,184.6 144.08,188.36C144.12,190.12 144.44,190.27 146.22,190.23C148.79,190.16 151.35,190.2 153.92,190.2L161.18,190.2L161.18,190.21ZM124.45,175.29C124.3,180.28 124.15,185.36 124,190.47C129.93,190.29 135.69,190.11 141.47,189.93C141.33,184.93 141.2,179.89 141.06,174.91C135.47,175.04 130.07,175.16 124.45,175.29ZM63.84,191.94C66.08,191.94 68.28,191.97 70.48,191.94C73.31,191.89 76.14,191.71 78.97,191.75C80.14,191.77 80.3,191.34 80.25,190.36C80.18,189.03 80.22,187.69 80.21,186.36L80.21,176.7L63.82,176.7L63.82,191.95L63.84,191.94ZM122.08,164.91C121.8,160.6 121.51,156.33 121.24,152.15L102.9,152.15L102.9,164.91L122.08,164.91ZM82.52,165.58C83.85,165.58 85.07,165.61 86.3,165.58C90.68,165.47 95.06,165.33 99.44,165.22C100.36,165.2 100.53,164.76 100.48,163.92C100.34,161.16 100.28,158.4 100.2,155.64C100.17,154.52 100.2,153.4 100.2,152.42L82.52,152.42L82.52,165.58ZM124.63,165.06C130.29,164.69 135.76,164.32 141.17,163.97C141.31,159.89 141.45,155.89 141.6,151.72L123.63,151.72C123.96,156.19 124.29,160.51 124.63,165.06ZM80.18,152.58C77.97,152.58 75.95,152.54 73.94,152.58C70.8,152.66 67.65,152.78 64.51,152.94C64.26,152.95 63.82,153.38 63.82,153.62C63.81,155.41 63.9,157.21 63.93,159C63.96,160.87 64.01,162.75 63.93,164.62C63.87,166.04 64.16,166.43 65.59,166.31C66.94,166.2 68.28,166 69.63,165.96C72.77,165.85 75.91,165.8 79.04,165.76C79.94,165.75 80.31,165.47 80.22,164.47C80.1,163.13 80.17,161.77 80.17,160.42L80.17,152.56L80.18,152.58ZM144.23,151.77C144.03,155.95 143.84,159.99 143.65,164.05L160.42,164.05L160.42,151.77L144.23,151.77Z" style="fill-rule:nonzero;"/>
        <path d="M101.67,33.57C100.46,33.69 99.29,33.8 98.12,33.91C97.88,33.93 97.6,34.02 97.41,33.92C96.93,33.67 96.49,33.33 96.03,33.03C96.46,32.83 96.87,32.54 97.32,32.45C99.33,32.05 101.34,31.67 103.36,31.37C103.96,31.28 104.63,31.42 105.22,31.61C105.35,31.65 105.41,32.47 105.22,32.74C105.01,33.04 104.49,33.12 104.08,33.3C103.49,35.19 103.69,37.08 104.39,38.96C104.55,39.4 104.59,39.89 104.63,40.36C104.7,41.05 104.61,41.67 103.69,41.67C102.84,41.67 102.2,41.48 102.19,40.42C102.19,39.88 102.01,39.35 101.9,38.72C100.9,39.35 100.01,39.91 99.12,40.46C97.56,41.43 96.02,40.8 94.56,40.28C91.91,39.34 90.99,37.03 90.48,34.56C90.32,33.8 90.54,32.9 90.78,32.12C91.88,28.53 93.51,25.24 97.18,23.66C98.75,22.98 100.55,22.66 102.2,23.63C102.51,23.81 102.62,24.31 102.83,24.66C102.47,24.76 102.11,24.92 101.74,24.95C100.81,25.03 99.8,24.83 98.95,25.12C96.65,25.91 95.28,27.72 94.33,29.88C94.04,30.53 93.82,31.21 93.54,31.87C92.6,34.08 93.48,35.96 94.76,37.64C95.81,39.03 97.77,39.11 99.2,38.06C100.86,36.84 101.12,36.36 101.66,33.54L101.67,33.57Z" style="fill-rule:nonzero;"/>
        <path d="M97.52,58.92C97.37,56.66 97.23,54.4 97.06,52.14C96.97,51.02 97.43,50.5 98.54,50.57C101.7,50.79 104.7,51.59 107.55,52.98C110.09,54.23 110.75,58.12 109.36,60.54C108.37,62.26 106.98,63.21 105.4,63.84C103.54,64.59 101.52,65.19 99.43,64.73C98.22,64.46 97.67,63.54 97.54,62.38C97.41,61.23 97.38,60.08 97.3,58.93C97.37,58.93 97.45,58.93 97.52,58.92ZM99.41,52.32C99.68,54.02 99.9,55.23 100.04,56.44C100.24,58.09 100.41,59.75 100.54,61.41C100.59,62.09 100.82,62.56 101.54,62.33C103,61.87 104.5,61.46 105.85,60.76C108.4,59.42 107.66,56.24 106,55.27C104.01,54.11 101.78,53.36 99.4,52.32L99.41,52.32Z" style="fill-rule:nonzero;"/>
        <path d="M125.34,60.45C123.58,60.09 122.26,59.88 120.97,59.53C120.56,59.42 120.08,58.97 119.98,58.59C119.92,58.34 120.48,57.7 120.82,57.65C122.07,57.47 123.34,57.45 124.61,57.42C125.71,57.39 126.83,57.36 127.92,57.49C128.35,57.54 128.92,57.93 129.06,58.31C129.19,58.64 128.92,59.46 128.65,59.56C127.09,60.14 127.04,61.2 127.41,62.55C127.59,63.23 127.56,63.97 127.71,64.66C127.86,65.39 127.56,65.96 126.92,66.01C126.47,66.05 125.84,65.69 125.52,65.32C125.16,64.89 125.07,64.25 124.83,63.61C124.19,63.71 123.51,63.76 122.87,63.93C121.27,64.35 119.84,64.01 118.38,63.29C116.85,62.53 116.19,61.37 115.76,59.75C115.19,57.63 115.88,55.87 116.87,54.23C118.4,51.69 121.65,50.98 124.44,52.38C125.04,52.68 125.66,53.01 126.13,53.48C126.36,53.71 126.27,54.27 126.32,54.68C125.99,54.71 125.66,54.8 125.34,54.75C124.14,54.56 122.94,54.17 121.74,54.13C120.01,54.08 117.95,56.07 117.82,57.69C117.69,59.38 119.28,61.38 121.15,61.63C122.15,61.77 123.21,61.62 124.23,61.46C124.57,61.41 124.84,60.93 125.34,60.47L125.34,60.45Z" style="fill-rule:nonzero;"/>
        <path d="M139.9,58.74C140.04,59.86 140.17,60.83 140.27,61.8C140.32,62.31 140.41,62.84 140.33,63.34C140.21,64.18 139.65,64.42 138.86,64.16C138.38,64 137.9,63.85 137.16,63.6C137.05,62.88 136.82,61.96 136.8,61.03C136.74,58.4 136.75,55.77 136.76,53.14C136.76,52.59 136.78,52 136.96,51.49C137.1,51.1 137.51,50.81 137.8,50.48C138.17,50.84 138.79,51.14 138.88,51.56C139.16,52.88 139.27,54.24 139.41,55.59C139.48,56.33 139.69,56.77 140.56,56.71C141.51,56.65 142.47,56.69 143.42,56.77C144.27,56.84 144.55,56.54 144.5,55.69C144.43,54.39 144.42,53.09 144.5,51.79C144.52,51.41 144.91,51.05 145.12,50.69C145.51,50.98 145.91,51.26 146.29,51.57C146.36,51.63 146.37,51.79 146.39,51.91C146.94,55.23 147.5,58.55 148,61.87C148.13,62.73 148.11,63.63 148.04,64.5C147.96,65.5 147.32,65.64 146.37,65.45C144.19,65.03 145.04,63.34 144.8,62.11C144.77,61.96 144.84,61.79 144.84,61.64C144.87,59.43 144.82,59.38 142.62,59.06C142.19,59 141.76,58.89 141.33,58.83C140.94,58.78 140.54,58.79 139.9,58.75L139.9,58.74Z" style="fill-rule:nonzero;"/>
        <path d="M61.27,56.05C63.21,55.95 65.03,55.82 66.85,55.79C67.21,55.79 67.57,56.17 67.93,56.38C67.69,56.75 67.5,57.37 67.19,57.44C66.09,57.7 64.95,57.82 63.81,57.91C62.99,57.98 62.15,57.92 61.11,57.92C61.35,59.05 61.57,60.06 61.85,61.34C63.38,61.21 64.94,61.04 66.5,60.97C66.94,60.95 67.71,61.15 67.78,61.41C67.95,61.97 67.97,62.77 67.67,63.23C67.41,63.63 66.65,63.83 66.09,63.87C64.26,64.01 62.43,64.05 60.59,64.1C59.21,64.14 58.89,63.56 58.89,62.18C58.89,60.73 58.66,59.22 58.2,57.85C57.56,55.93 57.71,53.98 57.69,52.06C57.68,51.12 58.74,50.39 59.8,50.3C61.73,50.13 63.67,50.05 65.61,49.98C65.91,49.97 66.44,50.19 66.48,50.38C66.57,50.8 66.57,51.4 66.33,51.7C66.01,52.1 65.46,52.39 64.95,52.56C64.2,52.81 63.4,52.91 62.63,53.07C61,53.4 60.48,54.56 61.26,56.05L61.27,56.05Z" style="fill-rule:nonzero;"/>
        <path d="M86.54,65.52C86.05,65.16 85.65,65.01 85.47,64.72C85,63.99 84.54,63.23 84.23,62.42C83.81,61.34 83.23,60.71 81.98,60.55C79.82,60.27 79.15,60.51 78.25,62.43C78.06,62.83 77.96,63.27 77.74,63.64C77.44,64.14 77.31,64.88 76.35,64.46C75.47,64.08 74.84,63.69 75.24,62.62C76.71,58.73 78.18,54.84 79.69,50.96C79.78,50.73 80.2,50.43 80.38,50.48C80.8,50.6 81.33,50.83 81.52,51.17C82.59,53.12 83.54,55.13 84.6,57.08C84.9,57.62 85.48,58.01 85.9,58.49C86.1,58.71 86.43,59.06 86.37,59.23C85.98,60.36 86.68,61.13 87.18,61.96C87.71,62.82 88.04,63.68 87.36,64.61C87.15,64.9 86.88,65.16 86.56,65.52L86.54,65.52ZM82.04,58.55C81.58,57.47 81.18,56.5 80.68,55.3C80.26,56.53 79.89,57.6 79.46,58.86C80.5,58.73 81.23,58.64 82.04,58.54L82.04,58.55Z" style="fill-rule:nonzero;"/>
        <path d="M159.51,53.76C159.64,55.12 159.66,56.3 159.93,57.41C160,57.68 160.9,57.83 161.44,57.87C162.65,57.96 163.86,57.94 165.03,57.96C165.26,59.76 165.03,60.03 163.55,60.05C162.41,60.06 161.27,60.05 159.88,60.05C160.08,61.07 160.25,61.96 160.45,62.93C162.33,62.85 164.06,62.71 165.8,62.74C166.25,62.74 166.7,63.27 167.15,63.56C166.85,63.97 166.62,64.67 166.25,64.75C165.22,64.98 164.13,64.96 163.06,65.05C162.31,65.11 161.55,65.15 160.82,65.3C159.69,65.54 158.75,65.11 158.41,63.97C158.07,62.83 157.73,61.66 157.62,60.48C157.39,58.09 157.28,55.68 157.17,53.28C157.12,52.3 157.69,51.67 158.64,51.56C160.81,51.31 162.98,51.09 165.16,50.92C165.86,50.87 167.08,52.28 166.98,53.05C166.86,54 166.02,54.02 165.3,54.01C164.03,54 162.75,53.92 161.48,53.86C160.89,53.83 160.31,53.8 159.52,53.76L159.51,53.76Z" style="fill-rule:nonzero;"/>
        <path d="M115.4,32.35C116.34,31.99 117.36,31.51 118.44,31.22C119.36,30.97 120.64,31.77 121.06,33.08C121.64,34.87 121.96,36.75 122.31,38.61C122.45,39.33 122.08,39.77 121.25,39.89C120.33,40.03 120.08,39.69 119.97,38.83C119.75,37.11 119.41,35.4 119.1,33.69C118.94,32.77 118.41,32.7 117.72,33.17C116.32,34.13 116.03,35.6 115.98,37.16C115.96,37.63 115.99,38.11 115.95,38.58C115.89,39.21 115.79,39.79 114.9,39.67C114.11,39.56 113.73,39.27 113.73,38.37C113.73,36.87 113.56,35.37 113.48,33.86C113.44,33.1 113.04,32.53 112.33,32.64C111.82,32.72 111.03,33.25 110.98,33.65C110.77,35.33 110.78,37.03 110.73,38.72C110.72,39.11 110.91,39.54 110.82,39.9C110.72,40.32 110.49,40.95 110.18,41.04C109.55,41.23 108.71,41.2 108.59,40.27C108.28,37.71 108.02,35.14 107.82,32.57C107.75,31.65 108.28,31.29 109.22,31.57C109.49,31.65 109.87,31.65 110.11,31.51C111.11,30.93 112.13,30.75 113.2,31.21C113.99,31.55 114.73,31.99 115.41,32.34L115.4,32.35Z" style="fill-rule:nonzero;"/>
        <path d="M130.57,32.64C130.88,30.22 131.16,28.12 131.45,25.85C129.84,25.85 128.27,25.88 126.69,25.84C126.02,25.82 125.26,25.81 124.73,25.49C124.3,25.23 124.16,24.51 123.89,24C124.34,23.86 124.78,23.63 125.23,23.61C127.67,23.49 130.12,23.41 132.57,23.34C132.86,23.34 133.35,23.35 133.41,23.49C133.64,24.08 133.93,24.75 133.84,25.34C133.55,27.44 133.11,29.51 132.74,31.6C132.72,31.71 132.77,31.83 132.78,31.84C133.41,31.93 134.11,31.84 134.56,32.13C135.33,32.63 135.22,33.56 134.33,33.75C132.24,34.21 132.2,35.55 132.44,37.22C132.6,38.32 132.55,39.44 132.67,40.55C132.75,41.31 132.47,41.99 131.79,41.94C131.31,41.91 130.55,41.21 130.5,40.75C130.32,38.98 130.37,37.19 130.34,35.4L130.34,34.12C128.91,34.12 127.54,34.09 126.17,34.13C125.52,34.15 124.97,34.03 125.03,33.31C125.05,33.06 125.66,32.69 126.01,32.68C127.54,32.61 129.08,32.65 130.57,32.65L130.57,32.64Z" style="fill-rule:nonzero;"/>
        <path d="M181.06,164.67C179.99,165.34 179.41,167.05 177.57,166.17C177.68,165.79 177.71,165.33 177.93,165C178.81,163.72 179.71,162.45 180.68,161.25C180.98,160.88 181.75,160.41 181.94,160.54C182.56,160.94 183.33,161.54 183.45,162.17C183.69,163.4 183.49,164.71 183.53,165.98C183.57,167.29 183.68,168.6 183.77,169.91C183.81,170.48 183.88,171.09 183.07,171.15C182.35,171.2 181.57,171.27 181.49,170.22C181.35,168.41 181.21,166.59 181.06,164.67Z" style="fill-rule:nonzero;"/>
        <path d="M92.11,239.41C91.53,239.57 91.08,239.73 90.62,239.79C90.56,239.79 90.29,239.19 90.37,239.1C90.71,238.75 91.1,238.36 91.55,238.21C92.98,237.71 93.87,238.32 94.03,239.84C94.1,240.47 94.09,241.11 94.12,241.74C96.12,242.52 96.9,244.05 95.97,245.57C95.6,246.17 94.92,246.83 94.28,246.96C92.91,247.23 91.48,247.22 90.07,247.2C89.77,247.2 89.32,246.73 89.21,246.39C89.12,246.11 89.36,245.58 89.62,245.4C89.82,245.26 90.27,245.53 90.62,245.54C91.67,245.58 92.73,245.69 93.75,245.54C94.08,245.49 94.62,244.61 94.51,244.33C94.35,243.91 93.71,243.65 93.23,243.39C93.05,243.29 92.76,243.42 92.52,243.39C91.71,243.25 91.35,242.87 91.91,242.08C92.55,241.18 92.55,240.28 92.09,239.41L92.11,239.41Z" style="fill-rule:nonzero;"/>
    </g>
</svg>
