<?xml version="1.0" encoding="iso-8859-1"?>
<!-- Generator: Adobe Illustrator 16.0.0, SVG Export Plug-In . SVG Version: 6.00 Build 0)  -->
<!DOCTYPE svg PUBLIC "-//W3C//DTD SVG 1.1//EN" "http://www.w3.org/Graphics/SVG/1.1/DTD/svg11.dtd">
<svg version="1.1" xmlns="http://www.w3.org/2000/svg" xmlns:xlink="http://www.w3.org/1999/xlink" x="0px" y="0px"
	 width="175.68px" height="235.173px" viewBox="0 0 175.68 235.173" style="enable-background:new 0 0 175.68 235.173;"
	 xml:space="preserve">
<g id="E">
	<g id="E_1_">
		<path style="fill:none;" d="M175.68,235.173c-58.561,0-117.12,0-175.68,0C0,155.333,0,75.494,0-4.346c58.56,0,117.119,0,175.68,0
			C175.68,75.493,175.68,155.333,175.68,235.173z M147.479,150.793c-0.213-15.141-0.689-30.031,0.58-45
			c0.445,0,0.799-0.017,1.15,0.002c1.914,0.109,3.826,0.255,5.741,0.329c1.077,0.042,2.102-0.204,2.973-0.929
			c-0.447-0.956-1.246-1.367-2.112-1.515c-1.095-0.187-2.218-0.235-3.331-0.265c-1.397-0.038-2.798,0.021-4.196,0.002
			c-0.676-0.008-1.062-0.229-1.029-1.087c0.118-2.996,0.177-5.996,0.175-8.994c-0.003-7.839-0.05-15.677-0.078-23.516
			c-0.005-1.389,0-2.778,0-4.217c4.126-0.406,8.006-0.625,11.928,0.149c0.107-1.129,0.314-2.162,0.276-3.185
			c-0.049-1.3-0.244-2.603-0.477-3.886c-0.145-0.8-0.69-1.122-1.575-1.075c-3.951,0.21-7.909,0.297-11.858,0.535
			c-4.761,0.285-9.504,0.108-14.257-0.171c-3.986-0.234-7.983-0.382-11.977-0.401c-3.753-0.017-7.507,0.195-11.26,0.287
			c-2.278,0.056-4.557,0.061-6.835,0.112c-7.951,0.177-15.901,0.446-23.854,0.522c-6.636,0.064-13.273-0.081-19.91-0.155
			c-7.636-0.085-15.271-0.192-22.908-0.292c-4.557-0.06-9.113-0.129-13.669-0.179c-1.199-0.013-1.25,0.032-1.239,1.188
			c0.012,1.278,0.06,2.558,0.146,3.833c0.185,2.765,0.25,2.812,3.118,2.839c0.16,0.001,0.32,0,0.48,0
			c1.439,0,2.878,0.022,4.316-0.011c0.723-0.017,0.974,0.271,0.998,0.984c0.137,4.154,0.379,8.306,0.454,12.46
			c0.144,7.958-0.065,15.905-0.926,23.826c-0.134,1.235-0.354,1.456-1.572,1.332c-0.238-0.024-0.471-0.089-0.708-0.124
			c-1.605-0.229-3.21-0.456-4.849-0.688c-0.039,0.883-1.105,1.477-0.197,2.137c0.559,0.406,1.271,0.607,1.926,0.87
			c0.176,0.07,0.396,0.032,0.596,0.039c1.238,0.042,2.481,0.023,3.711,0.14c1.497,0.142,1.544,0.28,1.558,1.794
			c0.046,5.036,0.132,10.07,0.165,15.106c0.052,8.073,0.073,16.146,0.105,24.221c0.005,1.111,0.001,2.223,0.001,3.53
			c-1.208,0-2.271,0.042-3.328-0.015c-0.794-0.042-1.58-0.244-2.374-0.316c-1.502-0.137-2.839,0.175-3.893,1.642
			c0.513,0.285,0.923,0.658,1.386,0.741c1.011,0.182,2.047,0.268,3.076,0.297c1.657,0.045,3.317,0.012,5.079,0.012
			c0.279,14.704-0.929,29.34-0.312,44.138c-2.813,0.146-5.51,0.285-8.332,0.433c0.078,0.427,0.099,0.903,0.255,1.329
			c0.593,1.615,0.875,1.759,2.562,1.428c0.979-0.192,1.949-0.429,2.933-0.586c1.98-0.316,2.48-0.059,2.751,1.92
			c0.221,1.608,0.058,3.267,0.143,4.898c0.158,3.059,0.372,6.114,0.562,9.164c1.292-0.002,2.39-0.875,2.424-1.95
			c0.055-1.754,0.061-3.511,0.034-5.267c-0.045-2.876-0.061-5.746,0.471-8.623c6.077-0.177,12.118-0.352,18.185-0.527
			c0,5.428,0,10.607,0,15.806c0.295,0.098,0.592,0.198,0.891,0.291c1.311,0.408,1.456,0.319,1.457-1.075
			c0.003-3.439-0.022-6.878-0.032-10.317c-0.005-1.502-0.001-3.005-0.001-4.619c7.396,0.085,14.616-0.191,22.023,0.306
			c0,3.379,0.021,6.686-0.017,9.991c-0.008,0.708-0.259,1.411-0.338,2.123c-0.082,0.731,0.137,1.487,0.879,1.631
			c0.369,0.072,0.976-0.421,1.285-0.809c1.178-1.479,1.161-3.251,1.091-5.026c-0.072-1.836-0.169-3.675-0.134-5.51
			c0.019-0.969,0.294-1.932,0.446-2.852c7.294,0,14.392,0,21.567,0c-0.323,4.517-1.148,8.95-0.352,13.284
			c-0.521,0.375-0.926,0.667-1.332,0.959c0.008,0.136,0.016,0.271,0.022,0.406c0.695,0.327,1.36,0.783,2.093,0.954
			c1.229,0.287,1.755-0.247,1.729-1.49c-0.066-3.076-0.174-6.153-0.154-9.229c0.01-1.651,0.247-3.301,0.387-5.01
			c6.955,0,13.687,0,20.533,0c-0.078,0.679-0.155,1.146-0.18,1.616c-0.02,0.382-0.077,0.809,0.059,1.144
			c0.591,1.461,0.626,2.952,0.406,4.479c-0.188,1.305-0.428,2.607-0.512,3.92c-0.093,1.443,0.16,2.813,1.628,3.735
			c0.408-1.271,0.841-2.533,0.883-3.808c0.076-2.311-0.109-4.629-0.13-6.944c-0.012-1.338,0.085-2.677,0.135-4.045
			c6.516,0,12.812,0,19.168,0c0.154,2.583,0.384,5.086,0.432,7.592c0.05,2.541-0.08,5.086-0.133,7.7
			c1.177,0.757,1.177,0.757,2.397,0.548c0.019-1.661,0.082-3.367,0.047-5.072c-0.052-2.557-0.229-5.111-0.237-7.667
			c-0.003-1.04,0.297-2.082,0.447-3.046c3.483,0,6.742,0,9.998,0c0.127-2.61-0.499-3.336-2.964-3.479
			c-0.239-0.014-0.48-0.012-0.72-0.029c-2.023-0.142-4.046-0.286-6.181-0.438c0.235-14.479,0.082-28.812,0.763-43.292
			c0.646,0,1.188-0.006,1.73,0.001c1.519,0.017,3.041,0.116,4.555,0.036c1.356-0.072,1.746-1.055,1.027-2.186
			c-0.415-0.652-0.986-0.392-1.504-0.354C151.769,150.428,149.704,150.61,147.479,150.793z M85.815,20.455
			c0.579-2.161,0.143-2.774-1.856-2.786c-0.914-0.006-1.828,0.138-2.742,0.202c-0.697,0.049-1.395,0.08-2.22,0.125
			c0-0.97-0.018-1.762,0.005-2.554c0.02-0.702,0.338-1.114,1.115-1.082c1.396,0.058,2.792,0.119,4.189,0.117
			c1.67-0.003,3.342-0.032,5.008-0.127c0.787-0.045,1.02-0.465,0.838-1.233c-0.236-0.993-1.016-1.474-1.9-1.596
			c-1.771-0.245-3.561-0.379-5.348-0.489c-1.711-0.105-3.435-0.049-5.138-0.212c-0.749-0.071-1.082,0.125-1.361,0.762
			c-0.822,1.872-1.127,3.817-0.92,5.841c0.195,1.905,0.452,3.803,0.625,5.709c0.128,1.418,0.167,2.844,0.247,4.29
			c1.54,0.555,3.138,0.459,4.729,0.479c2.271,0.028,4.542,0.104,6.812,0.108c0.333,0.001,0.766-0.198,0.981-0.451
			c0.771-0.903,0.787-1.345-0.057-2.142c-0.532-0.502-1.214-1.049-1.893-1.15c-1.402-0.209-2.847-0.17-4.273-0.165
			c-1.091,0.004-2.182,0.113-3.37,0.181c0-0.974,0.028-1.729-0.008-2.48c-0.03-0.609,0.241-0.893,0.816-0.941
			c0.954-0.08,1.907-0.163,2.862-0.23C83.901,20.565,84.848,20.514,85.815,20.455z M107.82,54.703
			c-0.109-1.842-0.139-3.554-0.337-5.246c-0.122-1.046-0.397-2.105-0.798-3.079c-0.315-0.767-0.988-1.191-1.955-0.934
			c-0.568,0.151-1.191,0.081-1.787,0.143c-1.451,0.152-2.93,0.186-4.328,0.848c0.134,0.75,0.257,1.445,0.376,2.119
			c1.665,0.586,3.261-1.079,4.878-0.067c-0.469,1.564-1.156,2.312-2.592,2.581c-0.971,0.181-1.977,0.189-2.969,0.226
			c-1.205,0.045-1.94-0.634-2.295-1.712c-0.248-0.752-0.381-1.543-0.555-2.32c-0.623-2.786,1.51-5.983,4.321-6.42
			c1.093-0.17,2.093-0.091,2.826,1.011c0.53,0.796,1.396,1.233,2.432,1.222c-0.171-2.498-1.443-4.084-3.733-4.533
			c-2.562-0.502-4.706,0.494-6.57,2.145c-1.906,1.688-2.547,3.803-1.837,6.28c0.721,2.515,2.13,4.542,4.353,5.948
			c1.924,1.216,3.955,0.955,6.005,0.355c0.583-0.17,1.198-0.231,1.817-0.346C105.141,55.303,105.619,55.573,107.82,54.703z
			 M71.669,52.647c0.351,0.212,0.608,0.396,0.89,0.528c0.287,0.134,0.589,0.262,0.897,0.317c4.492,0.807,8.279-0.553,11.359-3.849
			c0.86-0.92,1.238-2.129,1.107-3.441c-0.192-1.924-1.276-3.333-2.673-4.523c-2.368-2.016-5.109-3.222-8.208-3.603
			c-1.976-0.243-2.468,0.038-3.183,1.904c-0.057,0.147-0.079,0.309-0.123,0.462c-0.496,1.735-0.294,3.48-0.076,5.227
			C71.946,47.954,72.575,50.236,71.669,52.647z M27.118,46.204c1.13-0.178,1.963-0.266,2.774-0.448
			c0.971-0.218,1.179-0.552,1.028-1.518c-0.066-0.419-0.213-0.825-0.342-1.307c-1.279,0-2.465,0-3.676,0
			c-0.034-0.291-0.05-0.485-0.08-0.677c-0.29-1.836-0.222-1.912,1.703-2c1.234-0.056,2.475-0.063,3.699-0.208
			c1.469-0.174,2.077-1.017,1.996-2.752c-0.946-0.196-1.94-0.553-2.942-0.577c-1.71-0.04-3.424,0.134-5.138,0.209
			c-1.33,0.058-2.019,0.667-1.899,1.989c0.414,4.589,0.907,9.172,1.383,13.889c3.294-0.229,6.419,0.322,9.365-0.969
			c0-0.71,0-1.34,0-2.118c-2.453,0-4.862,0-7.416,0C27.421,48.551,27.272,47.396,27.118,46.204z M46.544,53.853
			c0.408-1.019,0.714-1.831,1.059-2.625c0.288-0.664,0.754-1.03,1.542-1.127c1.581-0.194,3.146-0.513,4.715-0.799
			c1.146-0.209,1.508-0.053,1.898,1.056c0.29,0.825,0.432,1.701,0.722,2.525c0.525,1.493,1.526,1.719,2.742,0.716
			c0.612-0.505,0.567-1.018,0.316-1.694c-1.51-4.062-3.578-7.837-5.811-11.535c-0.262-0.434-0.269-1.022-0.39-1.54
			c-0.082-0.351-0.041-0.868-0.259-1.022c-0.463-0.327-0.764,0.093-1.028,0.481c-3.006,4.41-4.949,9.365-7.423,14.206
			C45.279,52.957,45.867,53.373,46.544,53.853z M143.602,45.649c-0.104-0.731-0.157-1.245-0.252-1.751
			c-0.39-2.077-0.163-2.276,1.969-2.072c1.385,0.132,2.789,0.194,4.178,0.125c1.587-0.078,1.949-0.625,1.715-2.161
			c-0.047-0.305-0.066-0.613-0.115-1.083c-3.431,0.121-6.798,0.239-10.335,0.363c0.374,5.05,0.734,9.92,1.103,14.897
			c2.572,0,4.967,0.048,7.357-0.021c1.139-0.033,2.246-0.354,3.221-1.114c-0.784-1.11-1.846-1.501-3.049-1.476
			c-1.515,0.032-3.025,0.206-4.54,0.234c-1.126,0.021-1.982-1.657-1.329-2.598c0.19-0.274,0.638-0.477,0.987-0.513
			c0.832-0.086,1.676-0.056,2.515-0.067c0.463-0.006,0.926-0.001,1.48-0.001c-0.031-0.474-0.031-0.786-0.076-1.092
			c-0.289-1.983-0.604-2.186-2.57-1.849C145.126,45.596,144.37,45.592,143.602,45.649z M118.096,52.935
			c2.151,0.211,2.15,0.211,2.135-1.696c-0.005-0.679-0.051-1.361,0.005-2.036c0.047-0.575,0.215-1.14,0.354-1.836
			c1.938,0.55,3.805-0.74,5.73,0.331c-0.064,1.203-0.147,2.392-0.185,3.583c-0.022,0.713-0.031,1.437,0.072,2.139
			c0.04,0.275,0.357,0.639,0.627,0.73c1.341,0.456,2.545-0.623,2.284-1.996c-0.03-0.156-0.104-0.305-0.121-0.461
			c-0.143-1.215-0.36-2.43-0.393-3.648c-0.053-1.994,0.113-3.996,0.004-5.985c-0.087-1.601-0.902-2.836-2.773-3.537
			c0,2.253,0,4.334,0,6.527c-2.067-0.542-3.955,0.544-5.771-0.313c-0.031-0.079-0.086-0.151-0.086-0.223
			c-0.001-1.278,0.012-2.557,0.009-3.834c-0.004-1.744-0.686-2.411-2.651-2.479C117.589,43.1,117.841,47.989,118.096,52.935z"/>
		<path style="fill-rule:evenodd;clip-rule:evenodd;" d="M147.479,150.793c2.226-0.183,4.29-0.365,6.357-0.513
			c0.518-0.037,1.089-0.298,1.504,0.354c0.719,1.131,0.329,2.113-1.027,2.186c-1.514,0.08-3.036-0.02-4.555-0.036
			c-0.543-0.007-1.085-0.001-1.73-0.001c-0.681,14.48-0.527,28.812-0.763,43.292c2.135,0.152,4.157,0.297,6.181,0.438
			c0.239,0.018,0.48,0.016,0.72,0.029c2.465,0.144,3.091,0.869,2.964,3.479c-3.256,0-6.515,0-9.998,0
			c-0.15,0.964-0.45,2.006-0.447,3.046c0.008,2.556,0.186,5.11,0.237,7.667c0.035,1.705-0.028,3.411-0.047,5.072
			c-1.221,0.209-1.221,0.209-2.397-0.548c0.053-2.614,0.183-5.159,0.133-7.7c-0.048-2.506-0.277-5.009-0.432-7.592
			c-6.355,0-12.652,0-19.168,0c-0.05,1.368-0.146,2.707-0.135,4.045c0.021,2.315,0.206,4.634,0.13,6.944
			c-0.042,1.274-0.475,2.537-0.883,3.808c-1.468-0.922-1.721-2.292-1.628-3.735c0.084-1.312,0.324-2.615,0.512-3.92
			c0.22-1.526,0.185-3.018-0.406-4.479c-0.136-0.335-0.078-0.762-0.059-1.144c0.024-0.47,0.102-0.938,0.18-1.616
			c-6.847,0-13.578,0-20.533,0c-0.14,1.709-0.377,3.358-0.387,5.01c-0.02,3.076,0.088,6.153,0.154,9.229
			c0.026,1.243-0.5,1.777-1.729,1.49c-0.732-0.171-1.397-0.627-2.093-0.954c-0.007-0.136-0.015-0.271-0.022-0.406
			c0.406-0.292,0.812-0.584,1.332-0.959c-0.797-4.334,0.028-8.768,0.352-13.284c-7.176,0-14.273,0-21.567,0
			c-0.152,0.92-0.428,1.883-0.446,2.852c-0.035,1.835,0.062,3.674,0.134,5.51c0.07,1.775,0.087,3.548-1.091,5.026
			c-0.31,0.388-0.916,0.881-1.285,0.809c-0.742-0.144-0.96-0.899-0.879-1.631c0.079-0.712,0.33-1.415,0.338-2.123
			c0.038-3.306,0.017-6.612,0.017-9.991c-7.407-0.497-14.627-0.221-22.023-0.306c0,1.614-0.004,3.117,0.001,4.619
			c0.01,3.439,0.035,6.878,0.032,10.317c-0.001,1.395-0.146,1.483-1.457,1.075c-0.299-0.093-0.595-0.193-0.891-0.291
			c0-5.198,0-10.378,0-15.806c-6.066,0.176-12.107,0.351-18.185,0.527c-0.531,2.877-0.516,5.747-0.471,8.623
			c0.027,1.756,0.021,3.513-0.034,5.267c-0.034,1.075-1.131,1.948-2.424,1.95c-0.19-3.05-0.404-6.105-0.562-9.164
			c-0.084-1.632,0.079-3.29-0.143-4.898c-0.271-1.979-0.771-2.236-2.751-1.92c-0.983,0.157-1.954,0.394-2.933,0.586
			c-1.687,0.331-1.968,0.188-2.562-1.428c-0.156-0.426-0.177-0.902-0.255-1.329c2.822-0.147,5.519-0.287,8.332-0.433
			c-0.618-14.798,0.59-29.434,0.312-44.138c-1.762,0-3.422,0.033-5.079-0.012c-1.029-0.029-2.064-0.115-3.076-0.297
			c-0.462-0.083-0.873-0.456-1.386-0.741c1.054-1.467,2.391-1.778,3.893-1.642c0.794,0.072,1.58,0.274,2.374,0.316
			c1.057,0.057,2.119,0.015,3.328,0.015c0-1.308,0.004-2.419-0.001-3.53c-0.033-8.074-0.054-16.147-0.105-24.221
			c-0.032-5.036-0.118-10.07-0.165-15.106c-0.014-1.514-0.061-1.652-1.558-1.794c-1.23-0.117-2.474-0.098-3.711-0.14
			c-0.2-0.007-0.42,0.031-0.596-0.039c-0.655-0.263-1.367-0.464-1.926-0.87c-0.908-0.66,0.158-1.253,0.197-2.137
			c1.639,0.232,3.244,0.458,4.849,0.688c0.237,0.034,0.47,0.099,0.708,0.124c1.218,0.124,1.438-0.097,1.572-1.332
			c0.86-7.921,1.07-15.869,0.926-23.826c-0.075-4.154-0.317-8.306-0.454-12.46c-0.023-0.712-0.275-1-0.998-0.984
			c-1.438,0.033-2.877,0.01-4.316,0.011c-0.16,0-0.32,0.001-0.48,0c-2.867-0.028-2.933-0.075-3.118-2.839
			c-0.085-1.275-0.133-2.554-0.146-3.833c-0.011-1.157,0.04-1.202,1.239-1.188c4.557,0.05,9.113,0.119,13.669,0.179
			c7.636,0.099,15.272,0.207,22.908,0.292c6.637,0.074,13.274,0.219,19.91,0.155c7.953-0.076,15.903-0.345,23.854-0.522
			c2.278-0.051,4.557-0.056,6.835-0.112c3.753-0.091,7.507-0.304,11.26-0.287c3.993,0.019,7.99,0.167,11.977,0.401
			c4.753,0.28,9.496,0.457,14.257,0.171c3.949-0.237,7.907-0.324,11.858-0.535c0.885-0.047,1.431,0.274,1.575,1.075
			c0.232,1.284,0.428,2.586,0.477,3.886c0.038,1.023-0.169,2.056-0.276,3.185c-3.922-0.774-7.802-0.555-11.928-0.149
			c0,1.439-0.005,2.829,0,4.217c0.028,7.838,0.075,15.677,0.078,23.516c0.002,2.998-0.057,5.998-0.175,8.994
			c-0.033,0.858,0.354,1.079,1.029,1.087c1.398,0.019,2.799-0.041,4.196-0.002c1.113,0.03,2.236,0.078,3.331,0.265
			c0.866,0.148,1.665,0.56,2.112,1.515c-0.871,0.725-1.896,0.971-2.973,0.929c-1.915-0.074-3.827-0.22-5.741-0.329
			c-0.352-0.02-0.705-0.002-1.15-0.002C146.789,120.762,147.266,135.652,147.479,150.793z M99.822,197.143
			c0-0.474-0.003-0.903,0.002-1.334c0.021-2.359-0.009-4.721,0.081-7.078c0.308-8.066,0.815-16.131,0.44-24.209
			c-0.159-3.42-0.441-6.835-0.677-10.404c-7.346,0.144-14.474,0.283-21.726,0.424c0,1.1,0.002,2.169,0,3.239
			c-0.006,2.115-0.018,4.23-0.019,6.347c0,0.463-0.044,0.945,0.066,1.387c0.411,1.646,0.511,3.3,0.376,4.99
			c-0.17,2.149-0.386,4.308-0.352,6.459c0.104,6.595,0.318,13.189,0.495,19.783c0.004,0.147,0.074,0.293,0.101,0.396
			C85.658,197.143,92.644,197.143,99.822,197.143z M75.013,197.004c1.333-14.328,0.654-28.497,0.822-42.51
			c-7.523,0-14.878,0-22.365,0c0.279,14.503,0.547,28.853-0.248,43.293C60.57,196.722,67.719,196.932,75.013,197.004z
			 M122.965,196.979c0.251-14.51,1.076-28.897,0.256-43.283c-6.993,0.152-13.832,0.301-20.58,0.447
			c-0.207,14.367-0.416,28.722-0.623,43.101C109.043,197.835,115.893,197.271,122.965,196.979z M144.942,150.387
			c0-2.014,0.036-3.93-0.007-5.844c-0.153-6.753-0.354-13.505-0.497-20.259c-0.104-4.913-0.151-9.829-0.216-14.743
			c-0.016-1.223-0.002-2.446-0.002-3.541c-1.683,0-3.195,0.017-4.707-0.003c-3.677-0.048-7.354-0.159-11.029-0.149
			c-1.453,0.004-2.905,0.262-4.373,0.406c-0.414,15.008,0.926,29.792,1.025,44.672C131.74,151.656,138.168,150.728,144.942,150.387z
			 M103.053,151.449c6.689,0.04,13.227,0.131,19.86-0.501c0-0.629,0.013-1.181-0.002-1.731c-0.069-2.636-0.128-5.272-0.225-7.908
			c-0.2-5.431-0.474-10.86-0.62-16.293c-0.144-5.31-0.168-10.623-0.239-15.935c-0.014-0.982-0.002-1.965-0.002-3.146
			c-6.663,0.119-13.227,0.235-19.856,0.353C102.119,121.42,102.141,136.358,103.053,151.449z M53.243,66.108
			c-0.485,12.756-0.595,25.368-0.228,38.01c7.189,0.967,14.28,0.053,21.351,0.274c0.71-8.826,0.862-36.468,0.181-38.697
			C67.526,65.832,60.464,65.969,53.243,66.108z M125.392,154.222c0.038,7.217,0.184,14.323,0.083,21.427
			c-0.1,7.099-0.444,14.194-0.689,21.536c0.866,0,1.555,0.125,2.179-0.021c2.811-0.659,5.635-0.426,8.462-0.248
			c2.517,0.157,5.032,0.28,7.479-0.521c1.668-0.546,1.663-0.56,1.598-2.258c-0.073-1.912-0.269-3.828-0.193-5.734
			c0.208-5.226,0.639-10.444,0.773-15.671c0.11-4.271-0.067-8.548-0.142-12.822c-0.037-2.146-0.13-4.289-0.196-6.404
			C142.469,153.035,128.109,153.6,125.392,154.222z M99.268,106.472c-7.433,0.198-14.679,0.391-21.84,0.582
			c0,7.898,0,15.627,0,23.375c2.428,0.289,4.266,1.295,5.657,3.082c1.856,2.385,2.555,5.125,2.31,8.089
			c-0.304,3.671-2.497,6.302-5.784,7.087c-0.496,0.118-1.01,0.164-1.525,0.244c0,0.789,0,1.516,0,2.311
			c7.459,0.236,14.822,0.318,22.256-0.036C99.333,136.271,100.156,121.48,99.268,106.472z M50.816,197.486
			c0.11-1.979,0.275-3.808,0.298-5.637c0.046-3.677,0.031-7.354,0.009-11.031c-0.02-3.476-0.097-6.952-0.119-10.428
			c-0.021-3.354-0.004-6.71-0.004-10.064c0-1.864,0-3.729,0-5.699c-6.292-0.777-12.515-0.274-18.883-0.682
			c0,0.979,0.005,1.808,0,2.637c-0.043,5.871-0.162,11.744-0.115,17.615c0.054,6.831,0.255,13.661,0.386,20.491
			c0.019,0.988,0.002,1.977,0.002,3.09C38.479,198.261,44.562,197.704,50.816,197.486z M124.18,103.576c6.696,0,13.347,0,20.046,0
			c0.545-12.638,0.492-25.192,0.225-37.9c-6.611,0-13.062,0-19.577,0C124.643,78.281,124.412,90.886,124.18,103.576z M31.64,65.7
			c-0.079,2.634-0.209,5.06-0.212,7.487c-0.006,4.677,0.068,9.355,0.09,14.033c0.016,3.555,0.057,7.111-0.022,10.664
			c-0.046,2.059-0.309,4.114-0.486,6.316c6.516,0.394,12.988,0.217,19.535-0.08c0-2.925,0.011-5.679-0.002-8.433
			c-0.02-4.197-0.091-8.395-0.078-12.591c0.016-5.235,0.099-10.471,0.141-15.707c0.003-0.421-0.089-0.842-0.149-1.379
			C44.158,65.907,37.981,65.805,31.64,65.7z M74.907,131.002c-0.22-7.877-0.442-15.813-0.667-23.893c-1.361,0-2.791,0-4.22,0
			c-5.195,0.002-10.391,0.021-15.586-0.005c-1.166-0.006-1.348,0.011-1.387,1.214c-0.103,3.192-0.17,6.387-0.184,9.581
			c-0.007,1.703,0.125,3.405,0.198,5.204c0.551,0,1.025-0.016,1.497,0.003c3.392,0.133,5.974,2.179,6.95,5.435
			c0.532,1.773,0.562,3.559,0.134,5.326c-0.791,3.271-2.418,5.913-5.81,7.048c-0.735,0.246-1.52,0.342-2.278,0.506
			c0,3.371,0,6.676,0,10.113c7.297,0.396,14.493-0.217,21.711-0.346c0-0.648,0-1.148,0-1.668c-0.391-0.045-0.707-0.08-1.021-0.117
			c-2.811-0.333-4.698-1.881-5.732-4.465c-1.219-3.044-1.092-6.094,0.216-9.077c0.331-0.755,0.739-1.627,1.374-2.067
			C71.593,132.756,73.244,131.946,74.907,131.002z M99.364,100.119c-0.792-0.121-1.345-0.199-1.894-0.291
			c-2.132-0.354-3.76-1.46-4.939-3.267c-2.959-4.533-1.177-14.106,6.466-14.607c0.754-5.443-1.013-10.868-0.04-16.446
			c-0.612,0-1.043,0-1.475,0c-5,0-10,0-14.999,0c-1.56,0-3.12,0.002-4.68-0.002c-0.589-0.002-0.953,0.085-0.918,0.868
			c0.166,3.792,0.372,7.586,0.363,11.378c-0.02,8.157-0.163,16.313-0.254,24.47c-0.007,0.628-0.001,1.257-0.001,2.022
			c7.328,0,14.51,0,21.896,0C99.039,102.939,99.196,101.577,99.364,100.119z M50.587,141.567c-0.179-0.058-0.473-0.162-0.772-0.246
			c-2.601-0.73-4.408-2.348-5.376-4.867c-0.725-1.888-0.965-3.865-0.937-5.875c0.005-0.337,0.123-0.714,0.304-0.998
			c0.6-0.943,1.227-1.87,1.889-2.771c1.125-1.53,2.51-2.675,4.502-2.859c0.181-0.017,0.353-0.139,0.54-0.215
			c-0.287-5.541,0.151-11.051-0.544-16.597c-0.618,0-1.129-0.004-1.641,0c-1.557,0.013-3.115,0.054-4.672,0.039
			c-3.834-0.039-7.668-0.119-11.502-0.148c-1.083-0.008-1.167,0.121-1.186,1.174c-0.154,8.554,0.097,17.099,0.565,25.64
			c0.308,5.624,0.631,11.251,0.233,16.886c-0.015,0.219,0.054,0.442,0.091,0.724c6.161,0,12.256,0,18.506,0
			C50.587,148.119,50.587,144.896,50.587,141.567z M101.468,81.898c0.689,0,1.287,0.099,1.839-0.018
			c1.756-0.373,3.132,0.206,4.249,1.531c0.334,0.396,0.651,0.812,0.922,1.252c1.55,2.513,1.663,5.269,1.368,8.101
			c-0.119,1.144-0.68,1.987-1.488,2.765c-1.71,1.646-3.557,3.082-5.683,4.157c-0.275,0.139-0.631,0.46-0.646,0.716
			c-0.07,1.137-0.03,2.282-0.03,3.47c6.722,0.153,13.283,0.486,19.792-0.035c0.155-12.743,0.311-25.349,0.468-38.143
			c-6.967,0-13.699,0-20.588,0C101.316,70.993,101.531,76.373,101.468,81.898z"/>
		<path style="fill-rule:evenodd;clip-rule:evenodd;" d="M89.815,20.455c-0.968,0.06-1.914,0.111-2.86,0.178
			c-0.955,0.068-1.908,0.151-2.862,0.23c-0.575,0.048-0.846,0.332-0.816,0.941c0.037,0.751,0.008,1.506,0.008,2.48
			c1.188-0.068,2.279-0.176,3.37-0.181c1.427-0.005,2.871-0.045,4.273,0.165c0.679,0.101,1.361,0.648,1.893,1.15
			c0.844,0.797,0.828,1.239,0.057,2.142c-0.215,0.252-0.647,0.452-0.98,0.451c-2.271-0.004-4.542-0.08-6.812-0.108
			c-1.59-0.02-3.189,0.075-4.729-0.479c-0.08-1.446-0.118-2.872-0.247-4.29c-0.173-1.906-0.431-3.805-0.625-5.709
			c-0.207-2.024,0.098-3.97,0.92-5.841c0.28-0.637,0.612-0.833,1.361-0.762c1.704,0.163,3.427,0.107,5.138,0.212
			c1.787,0.11,3.576,0.244,5.347,0.489c0.885,0.122,1.664,0.603,1.9,1.596c0.182,0.768-0.051,1.188-0.838,1.233
			c-1.666,0.096-3.338,0.125-5.008,0.127c-1.396,0.002-2.793-0.059-4.189-0.117c-0.777-0.032-1.095,0.379-1.115,1.082
			c-0.022,0.792-0.005,1.584-0.005,2.554c0.825-0.046,1.523-0.076,2.22-0.125c0.915-0.064,1.829-0.208,2.742-0.202
			C89.958,17.681,90.395,18.294,89.815,20.455z"/>
		<path style="fill-rule:evenodd;clip-rule:evenodd;" d="M107.82,54.703c-2.201,0.87-2.68,0.6-2.748-1.78
			c-0.619,0.115-1.234,0.176-1.817,0.346c-2.05,0.599-4.081,0.861-6.005-0.355c-2.223-1.406-3.632-3.433-4.353-5.948
			c-0.71-2.477-0.069-4.592,1.837-6.28c1.864-1.651,4.008-2.647,6.57-2.145c2.29,0.449,3.562,2.035,3.733,4.533
			c-1.036,0.012-1.901-0.425-2.432-1.222c-0.733-1.102-1.733-1.181-2.826-1.011c-2.812,0.438-4.944,3.635-4.321,6.42
			c0.174,0.776,0.307,1.567,0.555,2.32c0.354,1.079,1.09,1.757,2.295,1.712c0.992-0.037,1.998-0.045,2.969-0.226
			c1.436-0.269,2.123-1.017,2.592-2.581c-1.617-1.012-3.213,0.653-4.878,0.067c-0.119-0.673-0.242-1.368-0.376-2.119
			c1.398-0.662,2.877-0.696,4.328-0.848c0.596-0.062,1.219,0.008,1.787-0.143c0.967-0.258,1.64,0.167,1.955,0.934
			c0.4,0.974,0.676,2.033,0.798,3.079C107.682,51.149,107.711,52.861,107.82,54.703z"/>
		<path style="fill-rule:evenodd;clip-rule:evenodd;" d="M71.669,52.647c0.905-2.412,0.276-4.693-0.009-6.979
			c-0.218-1.747-0.42-3.491,0.076-5.227c0.044-0.153,0.066-0.314,0.123-0.462c0.715-1.866,1.207-2.147,3.183-1.904
			c3.098,0.381,5.839,1.587,8.208,3.603c1.397,1.19,2.481,2.6,2.673,4.523c0.131,1.312-0.247,2.521-1.107,3.441
			c-3.08,3.296-6.867,4.656-11.359,3.849c-0.309-0.055-0.611-0.183-0.897-0.317C72.278,53.043,72.021,52.859,71.669,52.647z
			 M73.936,41.029c-0.003,3.699-0.273,7.032,0.79,10.252c1.903-0.04,4.892-1.218,6.316-2.455c2.47-2.144,2.001-5.442-1.083-6.534
			C78.114,41.64,76.101,41.465,73.936,41.029z"/>
		<path style="fill-rule:evenodd;clip-rule:evenodd;" d="M27.118,46.204c0.154,1.192,0.303,2.347,0.454,3.514
			c2.554,0,4.963,0,7.416,0c0,0.778,0,1.408,0,2.118c-2.946,1.292-6.071,0.74-9.365,0.969c-0.476-4.717-0.969-9.3-1.383-13.889
			c-0.119-1.321,0.57-1.931,1.899-1.989c1.713-0.075,3.428-0.25,5.138-0.209c1.002,0.023,1.997,0.38,2.942,0.577
			c0.081,1.735-0.527,2.579-1.996,2.752c-1.224,0.145-2.465,0.152-3.699,0.208c-1.924,0.087-1.993,0.164-1.703,2
			c0.03,0.192,0.046,0.386,0.08,0.677c1.211,0,2.397,0,3.676,0c0.129,0.482,0.276,0.888,0.342,1.307
			c0.151,0.966-0.058,1.3-1.028,1.518C29.081,45.938,28.249,46.026,27.118,46.204z"/>
		<path style="fill-rule:evenodd;clip-rule:evenodd;" d="M46.544,53.853c-0.677-0.479-1.266-0.896-1.917-1.357
			c2.474-4.841,4.417-9.796,7.423-14.206c0.265-0.388,0.565-0.809,1.028-0.481c0.218,0.154,0.177,0.671,0.259,1.022
			c0.121,0.518,0.127,1.106,0.39,1.54c2.233,3.697,4.301,7.472,5.811,11.535c0.251,0.676,0.296,1.188-0.316,1.694
			c-1.215,1.003-2.216,0.777-2.742-0.716c-0.29-0.824-0.433-1.7-0.722-2.525c-0.39-1.109-0.752-1.266-1.898-1.056
			c-1.568,0.286-3.134,0.604-4.715,0.799c-0.788,0.097-1.253,0.463-1.542,1.127C47.258,52.022,46.953,52.833,46.544,53.853z
			 M53.979,47.066c-0.877-2.829-0.877-2.829-1.859-3.377c-0.623,1.226-1.797,2.199-1.651,3.896
			C51.666,47.177,52.919,47.866,53.979,47.066z"/>
		<path style="fill-rule:evenodd;clip-rule:evenodd;" d="M143.602,45.649c0.769-0.057,1.524-0.054,2.258-0.179
			c1.967-0.336,2.281-0.134,2.57,1.849c0.045,0.306,0.045,0.618,0.076,1.092c-0.555,0-1.018-0.005-1.48,0.001
			c-0.839,0.011-1.683-0.019-2.515,0.067c-0.35,0.036-0.797,0.239-0.987,0.513c-0.653,0.941,0.203,2.619,1.329,2.598
			c1.515-0.029,3.025-0.202,4.54-0.234c1.203-0.025,2.265,0.366,3.049,1.476c-0.975,0.761-2.082,1.081-3.221,1.114
			c-2.391,0.069-4.785,0.021-7.357,0.021c-0.368-4.977-0.729-9.847-1.103-14.897c3.537-0.125,6.904-0.243,10.335-0.363
			c0.049,0.471,0.068,0.779,0.115,1.083c0.234,1.536-0.128,2.083-1.715,2.161c-1.389,0.068-2.793,0.007-4.178-0.125
			c-2.132-0.204-2.358-0.004-1.969,2.072C143.444,44.404,143.498,44.918,143.602,45.649z"/>
		<path style="fill-rule:evenodd;clip-rule:evenodd;" d="M118.096,52.935c-0.255-4.946-0.507-9.834-0.759-14.735
			c1.966,0.068,2.647,0.735,2.651,2.479c0.003,1.278-0.01,2.556-0.009,3.834c0,0.072,0.055,0.145,0.086,0.223
			c1.815,0.857,3.703-0.229,5.771,0.313c0-2.192,0-4.274,0-6.527c1.871,0.7,2.687,1.936,2.773,3.537
			c0.109,1.989-0.057,3.991-0.004,5.985c0.032,1.218,0.25,2.433,0.393,3.648c0.018,0.156,0.091,0.305,0.121,0.461
			c0.261,1.374-0.943,2.452-2.284,1.996c-0.27-0.091-0.587-0.455-0.627-0.73c-0.104-0.702-0.095-1.425-0.072-2.139
			c0.037-1.191,0.12-2.38,0.185-3.583c-1.926-1.071-3.792,0.22-5.73-0.331c-0.14,0.696-0.308,1.261-0.354,1.836
			c-0.056,0.674-0.01,1.357-0.005,2.036C120.246,53.146,120.247,53.146,118.096,52.935z"/>
		<path style="fill-rule:evenodd;clip-rule:evenodd;fill:none;" d="M99.822,197.143c-7.179,0-14.165,0-21.211,0
			c-0.027-0.104-0.097-0.249-0.101-0.396c-0.176-6.594-0.39-13.188-0.495-19.783c-0.034-2.151,0.182-4.31,0.352-6.459
			c0.134-1.69,0.035-3.344-0.376-4.99c-0.11-0.441-0.066-0.924-0.066-1.387c0.001-2.116,0.013-4.231,0.019-6.347
			c0.002-1.07,0-2.14,0-3.239c7.251-0.141,14.38-0.28,21.726-0.424c0.235,3.569,0.518,6.984,0.677,10.404
			c0.375,8.078-0.133,16.143-0.44,24.209c-0.09,2.357-0.06,4.719-0.081,7.078C99.819,196.239,99.822,196.669,99.822,197.143z"/>
		<path style="fill-rule:evenodd;clip-rule:evenodd;fill:none;" d="M75.013,197.004c-7.294-0.072-14.443-0.282-21.791,0.783
			c0.794-14.44,0.527-28.79,0.248-43.293c7.486,0,14.842,0,22.365,0C75.667,168.507,76.346,182.676,75.013,197.004z"/>
		<path style="fill-rule:evenodd;clip-rule:evenodd;fill:none;" d="M122.965,196.979c-7.072,0.293-13.922,0.856-20.947,0.265
			c0.207-14.379,0.416-28.733,0.623-43.101c6.748-0.146,13.587-0.295,20.58-0.447C124.041,168.081,123.216,182.469,122.965,196.979z
			"/>
		<path style="fill-rule:evenodd;clip-rule:evenodd;fill:none;" d="M144.942,150.387c-6.774,0.341-13.202,1.27-19.806,0.541
			c-0.1-14.881-1.439-29.664-1.025-44.672c1.468-0.144,2.92-0.402,4.373-0.406c3.676-0.01,7.353,0.101,11.029,0.149
			c1.512,0.02,3.024,0.003,4.707,0.003c0,1.094-0.014,2.317,0.002,3.541c0.064,4.914,0.111,9.83,0.216,14.743
			c0.144,6.754,0.344,13.506,0.497,20.259C144.979,146.457,144.942,148.373,144.942,150.387z"/>
		<path style="fill-rule:evenodd;clip-rule:evenodd;fill:none;" d="M103.053,151.449c-0.912-15.091-0.934-30.029-1.084-45.162
			c6.63-0.118,13.193-0.234,19.856-0.353c0,1.181-0.012,2.164,0.002,3.146c0.071,5.312,0.096,10.625,0.239,15.935
			c0.146,5.433,0.42,10.862,0.62,16.293c0.097,2.636,0.155,5.272,0.225,7.908c0.015,0.551,0.002,1.103,0.002,1.731
			C116.279,151.58,109.742,151.489,103.053,151.449z"/>
		<path style="fill-rule:evenodd;clip-rule:evenodd;fill:none;" d="M53.243,66.108c7.221-0.14,14.283-0.277,21.304-0.413
			c0.681,2.229,0.529,29.872-0.181,38.697c-7.071-0.221-14.162,0.693-21.351-0.274C52.648,91.476,52.758,78.865,53.243,66.108z"/>
		<path style="fill-rule:evenodd;clip-rule:evenodd;fill:none;" d="M125.392,154.222c2.718-0.622,17.077-1.187,19.353-0.718
			c0.066,2.115,0.159,4.259,0.196,6.404c0.074,4.274,0.252,8.552,0.142,12.822c-0.135,5.227-0.565,10.445-0.773,15.671
			c-0.075,1.906,0.12,3.822,0.193,5.734c0.065,1.698,0.07,1.712-1.598,2.258c-2.446,0.802-4.962,0.679-7.479,0.521
			c-2.827-0.178-5.651-0.411-8.462,0.248c-0.624,0.146-1.312,0.021-2.179,0.021c0.245-7.342,0.59-14.438,0.689-21.536
			C125.575,168.545,125.43,161.438,125.392,154.222z"/>
		<path style="fill-rule:evenodd;clip-rule:evenodd;fill:none;" d="M99.268,106.472c0.889,15.008,0.065,29.798,1.074,44.734
			c-7.434,0.354-14.796,0.272-22.256,0.036c0-0.795,0-1.521,0-2.311c0.515-0.08,1.029-0.126,1.525-0.244
			c3.287-0.785,5.479-3.416,5.784-7.087c0.246-2.964-0.453-5.704-2.31-8.089c-1.392-1.787-3.229-2.793-5.657-3.082
			c0-7.748,0-15.478,0-23.375C84.589,106.863,91.835,106.67,99.268,106.472z M87.007,131.084c-0.934,1.324-0.672,2.358-0.019,3.34
			c0.73,1.096,1.703,1.803,3.112,1.57c0.941-0.155,1.674-0.645,1.835-1.631c0.152-0.936,0.149-1.896,0.231-2.846
			c0.114-1.301,0.055-2.659,0.426-3.885c0.318-1.053,0.143-1.819-0.525-2.501c-1.107-1.13-2.525-1.515-4.067-1.276
			c-1.327,0.205-1.883,1.256-1.376,2.703c0.907-0.357,1.81-0.713,2.625-1.033c0.261,0.229,0.443,0.441,0.672,0.58
			c0.825,0.498,0.953,1.047,0.273,1.717c-0.326,0.322-0.781,0.559-1.22,0.711c-1.576,0.549-1.583,0.529-1.227,2.125
			c0.729,0.263,1.455,0.479,2.141,0.785c0.607,0.27,0.697,0.87,0.577,1.434c-0.052,0.243-0.359,0.486-0.609,0.621
			c-0.597,0.318-0.843-0.219-1.154-0.558C88.17,132.363,87.644,131.783,87.007,131.084z"/>
		<path style="fill-rule:evenodd;clip-rule:evenodd;fill:none;" d="M50.816,197.486c-6.254,0.218-12.338,0.774-18.426,0.292
			c0-1.113,0.017-2.102-0.002-3.09c-0.131-6.83-0.332-13.66-0.386-20.491c-0.047-5.871,0.072-11.744,0.115-17.615
			c0.006-0.829,0-1.657,0-2.637c6.369,0.407,12.591-0.096,18.883,0.682c0,1.971,0,3.835,0,5.699c0,3.354-0.017,6.71,0.004,10.064
			c0.022,3.476,0.099,6.952,0.119,10.428c0.021,3.677,0.037,7.354-0.009,11.031C51.092,193.679,50.926,195.507,50.816,197.486z"/>
		<path style="fill-rule:evenodd;clip-rule:evenodd;fill:none;" d="M124.18,103.576c0.232-12.689,0.463-25.295,0.693-37.9
			c6.516,0,12.966,0,19.577,0c0.268,12.708,0.32,25.262-0.225,37.9C137.526,103.576,130.876,103.576,124.18,103.576z"/>
		<path style="fill-rule:evenodd;clip-rule:evenodd;fill:none;" d="M31.64,65.7c6.341,0.104,12.518,0.207,18.815,0.311
			c0.061,0.537,0.153,0.958,0.149,1.379c-0.042,5.236-0.125,10.471-0.141,15.707c-0.013,4.197,0.058,8.395,0.078,12.591
			c0.013,2.754,0.002,5.508,0.002,8.433c-6.547,0.297-13.019,0.474-19.535,0.08c0.177-2.203,0.44-4.257,0.486-6.316
			c0.08-3.553,0.038-7.109,0.022-10.664c-0.021-4.678-0.096-9.355-0.09-14.033C31.431,70.76,31.561,68.334,31.64,65.7z"/>
		<path style="fill-rule:evenodd;clip-rule:evenodd;fill:none;" d="M74.907,131.002c-1.663,0.944-3.313,1.754-4.806,2.791
			c-0.635,0.44-1.043,1.312-1.374,2.067c-1.309,2.983-1.435,6.033-0.216,9.077c1.034,2.584,2.922,4.132,5.732,4.465
			c0.315,0.037,0.63,0.072,1.021,0.117c0,0.52,0,1.02,0,1.668c-7.219,0.129-14.414,0.741-21.711,0.346c0-3.438,0-6.742,0-10.113
			c0.758-0.164,1.543-0.26,2.278-0.506c3.392-1.135,5.019-3.777,5.81-7.048c0.428-1.768,0.398-3.553-0.134-5.326
			c-0.976-3.256-3.558-5.302-6.95-5.435c-0.472-0.019-0.946-0.003-1.497-0.003c-0.073-1.799-0.205-3.501-0.198-5.204
			c0.014-3.194,0.081-6.388,0.184-9.581c0.039-1.203,0.222-1.221,1.387-1.214c5.195,0.026,10.391,0.007,15.586,0.005
			c1.43,0,2.859,0,4.22,0C74.465,115.189,74.687,123.125,74.907,131.002z"/>
		<path style="fill-rule:evenodd;clip-rule:evenodd;fill:none;" d="M99.364,100.119c-0.168,1.458-0.325,2.821-0.476,4.126
			c-7.386,0-14.568,0-21.896,0c0-0.765-0.006-1.394,0.001-2.022c0.091-8.157,0.235-16.313,0.254-24.47
			c0.009-3.792-0.197-7.587-0.363-11.378c-0.035-0.783,0.33-0.87,0.918-0.868c1.56,0.005,3.12,0.002,4.68,0.002
			c5,0,9.999,0,14.999,0c0.432,0,0.862,0,1.475,0c-0.973,5.579,0.794,11.003,0.04,16.446c-7.643,0.5-9.425,10.074-6.466,14.607
			c1.18,1.807,2.808,2.913,4.939,3.267C98.02,99.919,98.572,99.998,99.364,100.119z M90.182,74.101
			c-0.689-0.501-1.152-0.436-1.714,0.141c-0.631,0.648-1.453,1.11-2.178,1.671c-0.631,0.488-1.291,0.953-1.85,1.514
			c-0.765,0.768-0.966,1.702-0.497,2.837c1.753-0.212,2.538-2.033,4.141-2.493c0,1.403-0.062,2.754,0.017,4.098
			c0.081,1.374,0.683,1.98,2.128,2.292C91.387,80.808,90.564,77.468,90.182,74.101z"/>
		<path style="fill-rule:evenodd;clip-rule:evenodd;fill:none;" d="M50.587,141.567c0,3.329,0,6.552,0,9.887
			c-6.25,0-12.345,0-18.506,0c-0.038-0.281-0.106-0.505-0.091-0.724c0.398-5.635,0.075-11.262-0.233-16.886
			c-0.468-8.541-0.719-17.086-0.565-25.64c0.019-1.053,0.103-1.182,1.186-1.174c3.834,0.029,7.668,0.109,11.502,0.148
			c1.557,0.016,3.115-0.025,4.672-0.039c0.512-0.004,1.023,0,1.641,0c0.696,5.545,0.258,11.056,0.544,16.597
			c-0.187,0.076-0.358,0.198-0.54,0.215c-1.992,0.185-3.377,1.329-4.502,2.859c-0.662,0.9-1.29,1.827-1.889,2.771
			c-0.181,0.284-0.299,0.661-0.304,0.998c-0.029,2.01,0.212,3.987,0.937,5.875c0.968,2.52,2.775,4.137,5.376,4.867
			C50.114,141.405,50.408,141.51,50.587,141.567z M40.688,124.701c0.197-0.492,0.343-0.859,0.492-1.225
			c0.691-1.691,0.967-3.449,0.813-5.269c-0.168-1.993-1.429-3.114-3.414-3.02c-1.396,0.066-2.535,0.683-3.374,1.789
			c-0.734,0.968-0.943,2.047-0.546,3.186c1.21,0.309,1.807-1.62,3.046-0.549c0.449-1.969,0.5-2.007,2.079-1.555
			c0.363,3.234-0.354,5.971-3.533,7.541c0.427,1.374,0.915,1.817,2.219,1.789c1.786-0.037,3.569-0.177,5.388-0.274
			c0.689-1.417,0.643-1.53-0.939-1.923C42.231,125.02,41.531,124.885,40.688,124.701z"/>
		<path style="fill-rule:evenodd;clip-rule:evenodd;fill:none;" d="M101.468,81.898c0.063-5.526-0.151-10.906,0.202-16.204
			c6.889,0,13.621,0,20.588,0c-0.157,12.794-0.312,25.4-0.468,38.143c-6.509,0.521-13.07,0.188-19.792,0.035
			c0-1.188-0.04-2.333,0.03-3.47c0.016-0.256,0.371-0.577,0.646-0.716c2.126-1.075,3.973-2.511,5.683-4.157
			c0.809-0.778,1.369-1.621,1.488-2.765c0.295-2.832,0.182-5.588-1.368-8.101c-0.271-0.44-0.588-0.856-0.922-1.252
			c-1.117-1.325-2.493-1.903-4.249-1.531C102.755,81.997,102.157,81.898,101.468,81.898z"/>
		<path style="fill-rule:evenodd;clip-rule:evenodd;fill:none;" d="M73.936,41.029c2.165,0.436,4.178,0.61,6.022,1.263
			c3.085,1.092,3.553,4.39,1.083,6.534c-1.424,1.237-4.413,2.416-6.316,2.455C73.662,48.061,73.933,44.729,73.936,41.029z"/>
		<path style="fill-rule:evenodd;clip-rule:evenodd;fill:none;" d="M53.979,47.066c-1.059,0.799-2.313,0.11-3.51,0.518
			c-0.146-1.696,1.028-2.67,1.651-3.896C53.102,44.237,53.102,44.237,53.979,47.066z"/>
		<path style="fill-rule:evenodd;clip-rule:evenodd;" d="M87.007,131.084c0.637,0.699,1.164,1.279,1.694,1.856
			c0.311,0.339,0.557,0.876,1.154,0.558c0.25-0.135,0.558-0.378,0.609-0.621c0.12-0.563,0.03-1.164-0.577-1.434
			c-0.686-0.307-1.412-0.522-2.141-0.785c-0.355-1.596-0.349-1.576,1.227-2.125c0.439-0.152,0.894-0.389,1.22-0.711
			c0.68-0.67,0.552-1.219-0.273-1.717c-0.229-0.139-0.411-0.352-0.672-0.58c-0.815,0.32-1.718,0.676-2.625,1.033
			c-0.507-1.447,0.049-2.498,1.376-2.703c1.542-0.238,2.96,0.146,4.067,1.276c0.668,0.682,0.844,1.448,0.525,2.501
			c-0.371,1.226-0.312,2.584-0.426,3.885c-0.082,0.949-0.079,1.91-0.231,2.846c-0.161,0.986-0.894,1.476-1.835,1.631
			c-1.409,0.232-2.381-0.475-3.112-1.57C86.335,133.442,86.073,132.408,87.007,131.084z"/>
		<path style="fill-rule:evenodd;clip-rule:evenodd;" d="M90.182,74.101c0.383,3.367,1.205,6.707,0.047,10.061
			c-1.445-0.312-2.047-0.919-2.128-2.292c-0.079-1.344-0.017-2.695-0.017-4.098c-1.603,0.46-2.388,2.281-4.141,2.493
			c-0.469-1.135-0.268-2.07,0.497-2.837c0.56-0.562,1.219-1.026,1.85-1.514c0.725-0.561,1.546-1.022,2.178-1.671
			C89.029,73.666,89.492,73.6,90.182,74.101z"/>
		<path style="fill-rule:evenodd;clip-rule:evenodd;" d="M40.688,124.701c0.842,0.184,1.542,0.318,2.233,0.49
			c1.582,0.393,1.628,0.506,0.939,1.923c-1.819,0.098-3.603,0.237-5.388,0.274c-1.305,0.028-1.792-0.415-2.219-1.789
			c3.178-1.57,3.896-4.307,3.533-7.541c-1.579-0.452-1.629-0.414-2.079,1.555c-1.24-1.071-1.836,0.857-3.046,0.549
			c-0.397-1.139-0.188-2.218,0.546-3.186c0.838-1.105,1.978-1.722,3.374-1.789c1.985-0.095,3.245,1.026,3.414,3.02
			c0.154,1.82-0.123,3.578-0.813,5.269C41.031,123.842,40.886,124.209,40.688,124.701z"/>
	</g>
</g>
<g id="Layer_1">
</g>
</svg>
