<?xml version="1.0" encoding="UTF-8" standalone="no"?>
<!DOCTYPE svg PUBLIC "-//W3C//DTD SVG 1.1//EN" "http://www.w3.org/Graphics/SVG/1.1/DTD/svg11.dtd">
<svg width="100%" height="100%" viewBox="0 0 218 330" version="1.1" xmlns="http://www.w3.org/2000/svg" xmlns:xlink="http://www.w3.org/1999/xlink" xml:space="preserve" xmlns:serif="http://www.serif.com/" style="fill-rule:evenodd;clip-rule:evenodd;stroke-linejoin:round;stroke-miterlimit:2;">
    <g id="_2R1VBa">
        <path d="M57.37,97.23C55.37,97.23 53.38,97.14 51.4,97.26C49.56,97.37 49.46,96.22 49.5,95C49.53,94.11 49.43,93.21 49.45,92.32C49.47,91.41 49.45,90.47 49.7,89.63C49.8,89.29 50.59,88.97 51.07,88.96C55.01,88.91 58.95,88.99 62.88,88.94C65.69,88.91 68.5,88.71 71.31,88.65C74.24,88.59 77.17,88.59 80.11,88.59C85.67,88.59 91.23,88.59 96.79,88.64C99.95,88.67 103.1,88.84 106.26,88.85C108.47,88.85 110.68,88.64 112.89,88.66C116.41,88.68 119.94,88.84 123.46,88.9C126.09,88.94 128.72,88.91 131.35,88.94C133.94,88.97 136.52,89.05 139.11,89.06C142.57,89.08 146.02,89.01 149.48,89.05C152.49,89.08 155.49,89.26 158.5,89.29C159.9,89.3 161.31,89.08 162.71,89.04C164.59,88.99 166.46,89.03 168.51,89.03C168.51,91.31 168.53,93.37 168.51,95.44C168.48,97.26 167.57,97.95 165.76,97.88C163.53,97.79 161.3,97.86 158.89,97.86L158.89,129.6L167.29,129.6C167.73,129.6 168.18,129.5 168.6,129.58C169.22,129.71 169.58,130.07 169.17,130.75C168.68,131.55 168.23,132.04 167.03,131.93C164.47,131.71 161.87,131.86 159.13,131.86C159.23,134.05 158.45,136.38 159.19,138.8C159.48,139.75 159.26,140.85 159.31,141.88C159.35,142.9 159.47,143.93 159.48,144.95C159.49,146.02 159.39,147.1 159.38,148.17C159.35,150.17 159.36,152.18 159.34,154.18C159.33,156.61 159.3,159.05 159.3,161.48L159.3,170.29C161.89,170.29 164.14,170.34 166.4,170.26C167.16,170.23 167.92,170.06 168.18,170.93C168.46,171.88 167.7,172.99 166.79,173.03C164.92,173.1 163.04,173.08 161.16,173.09L159.47,173.09C159.84,185.81 160.21,198.47 160.58,211.25C161.87,211.35 163.16,211.46 164.46,211.55C164.82,211.58 165.18,211.55 165.54,211.56C166.87,211.59 167.63,212.07 167.58,212.85C167.53,213.69 166.8,213.98 165.41,213.84C163.85,213.69 162.29,213.64 160.47,213.54C160.43,215.18 160.37,216.67 160.36,218.16C160.34,221.58 160.31,225 160.34,228.42C160.38,233.59 160.49,238.76 160.51,243.93C160.51,245.68 160.34,247.43 160.23,249.18C160.1,251.4 160.78,252.02 163.06,251.8C163.92,251.72 164.8,251.61 165.65,251.71C166.04,251.76 166.36,252.3 166.71,252.61C166.36,252.97 166.05,253.58 165.66,253.64C164.03,253.89 162.37,253.98 160.39,254.16L160.39,259.81C160.39,261.4 160.39,262.99 160.37,264.58C160.37,264.78 160.39,265.03 160.28,265.16C159.9,265.61 159.46,266.02 159.05,266.45C158.81,265.92 158.41,265.4 158.37,264.86C158.19,262.56 158.09,260.26 158.01,257.96C157.96,256.57 158.01,255.18 158.01,253.68C156.81,253.68 155.8,253.69 154.78,253.68C151.24,253.63 147.7,253.58 144.16,253.53C143.66,253.53 143.14,253.43 142.68,253.55C142.44,253.61 142.15,254.06 142.14,254.35C142.05,257 142.01,259.66 141.95,262.31C141.92,263.42 141.94,264.53 141.82,265.63C141.76,266.21 141.47,266.77 141.28,267.34C140.78,267.09 140.28,266.84 140.07,266.74C140.07,265.64 140.06,264.85 140.07,264.06C140.11,261.65 140.17,259.24 140.2,256.82C140.2,256.46 140.12,256.11 140.06,255.75C139.7,253.66 139.7,253.67 137.61,253.66C132.99,253.64 128.37,253.61 123.75,253.6C123.25,253.6 122.76,253.72 122.43,253.77C122.55,257.11 122.74,260.36 122.74,263.61C122.74,265.1 122.39,266.6 122.15,268.09C122.11,268.31 121.64,268.67 121.56,268.63C120.98,268.31 120.14,268 119.96,267.48C119.67,266.65 119.79,265.67 119.78,264.75C119.77,263.77 119.86,262.78 119.8,261.8C119.65,259.51 119.45,257.22 119.26,254.94C119.18,253.99 118.84,253.68 117.72,253.75C114.35,253.94 110.97,253.9 107.59,253.92C105.17,253.94 102.75,253.92 100.15,253.92C100.15,256.16 100.09,258.25 100.16,260.35C100.25,263.18 100.49,266 100.55,268.82C100.56,269.31 99.87,270.28 99.76,270.24C99.02,270 98.17,269.85 98.15,268.67C98.06,263.89 97.87,259.12 97.72,254.34C97.72,254.27 97.65,254.2 97.68,254.26C94.7,254.14 91.8,253.97 88.89,253.91C86.01,253.84 83.14,253.82 80.26,253.87C78.72,253.9 79.32,255.29 79.32,255.97C79.33,258.97 79.72,261.97 79.63,264.96C79.59,266.28 79.49,267.58 79.6,268.91C79.63,269.31 78.92,269.77 78.55,270.2C78.24,269.87 77.71,269.56 77.67,269.2C77.48,267.42 77.39,265.63 77.32,263.85C77.22,261.45 77.12,259.05 77.09,256.65C77.08,255.91 77.26,255.16 77.35,254.43L60.56,254.43C60.56,256.41 60.54,258.36 60.56,260.31C60.6,263.47 60.68,266.64 59.84,269.72C59.76,270.02 59.19,270.49 59.05,270.43C58.68,270.27 58.18,269.87 58.16,269.54C58.06,267.65 58.08,265.76 58.07,263.87L58.07,254.76C56.6,254.66 55.22,254.58 53.84,254.48C53.53,254.46 53.2,254.4 52.92,254.28C52.36,254.04 51.66,253.71 52.13,253C52.37,252.64 53.08,252.46 53.59,252.45C54.85,252.41 56.11,252.56 57.37,252.5C57.62,252.49 58.05,251.89 58.05,251.55C58.11,248.9 58.07,246.26 58.09,243.61C58.12,239.77 58.23,235.92 58.19,232.08C58.16,229.63 57.86,227.18 57.77,224.72C57.71,223.05 57.83,221.37 57.83,219.7C57.83,218.31 57.83,216.92 57.73,215.54C57.71,215.3 57.24,214.94 56.93,214.89C55.08,214.56 53.21,214.33 51.36,214.02C51.1,213.98 50.87,213.69 50.63,213.52C50.83,213.29 51,212.9 51.23,212.86C51.85,212.76 52.49,212.76 53.12,212.81C54.61,212.93 56.09,213.11 57.83,213.3L57.83,174.27C56.89,174.31 55.86,174.43 54.85,174.39C53.79,174.35 52.71,174.24 51.67,174.01C50.74,173.8 49.46,174.03 49.24,172.3C49.91,172.25 50.58,172.16 51.24,172.14C53.15,172.1 55.06,172.1 56.96,172.06C57.94,172.04 58.04,171.36 58.04,170.59C58.04,168.35 58.08,166.1 58.03,163.86C57.98,161.98 57.81,160.1 57.71,158.22C57.68,157.63 57.71,157.03 57.71,156.44C57.66,153.16 57.69,149.88 57.52,146.61C57.37,143.65 56.96,140.71 56.72,137.76C56.62,136.54 56.65,135.31 56.65,134.09C56.65,133.16 56.24,133.01 55.36,133.1C54.18,133.21 52.98,133.14 51.8,133.03C51.09,132.96 50.34,132.66 50.38,131.72C50.43,130.74 51.21,130.71 51.95,130.65C53.14,130.55 54.32,130.36 55.51,130.31C56.32,130.28 56.64,129.85 56.68,129.16C56.76,127.44 56.78,125.71 56.86,123.99C56.95,122.03 57.1,120.06 57.19,118.1C57.26,116.64 57.3,115.17 57.34,113.7C57.4,111.18 57.47,108.66 57.51,106.15C57.53,105.09 57.45,104.02 57.44,102.96C57.43,101.19 57.44,99.42 57.44,97.27L57.37,97.23ZM117.61,173.27L99.11,173.27C99.34,186.37 99.58,199.25 99.8,211.85C102.24,211.85 104.51,211.84 106.79,211.85C110.06,211.87 113.33,211.93 116.61,211.95C117.36,211.95 117.9,211.68 117.82,210.75C117.72,209.52 117.57,208.28 117.63,207.05C117.8,203.64 118.18,200.24 118.26,196.83C118.37,192.21 118.36,187.58 118.24,182.96C118.16,179.7 117.82,176.45 117.61,173.27ZM97.33,212.52C97.07,199.29 96.81,186.34 96.55,173.54L78.93,173.54L78.93,212.52L97.33,212.52ZM95.79,132.33L80.69,132.33C79.283,132.33 78.53,132.997 78.43,134.33C78.43,134.45 78.37,134.56 78.36,134.68C78.31,137.14 78.26,139.59 78.21,142.05C78.19,142.9 78.16,143.75 78.18,144.6C78.24,146.96 78.32,149.32 78.39,151.68C78.44,153.26 78.47,154.85 78.53,156.43C78.62,158.72 78.79,161.02 78.82,163.31C78.85,165.56 78.75,167.81 78.69,170.06C78.67,170.76 78.98,170.93 79.63,170.93C84.81,170.93 89.98,170.93 95.16,170.96C96.19,170.96 96.67,170.65 96.57,169.51C96.38,167.18 96.27,164.84 96.19,162.5C96.07,158.93 96.01,155.35 95.93,151.77C95.87,149.25 95.78,146.73 95.75,144.21C95.72,141.96 95.77,139.7 95.78,137.45L95.78,132.31L95.79,132.33ZM97.82,251.32C98.59,238.99 96.96,226.83 96.94,214.56L95.47,214.56C93.67,214.6 91.87,214.69 90.07,214.68C88.46,214.68 86.84,214.51 85.23,214.5C83.66,214.49 82.09,214.51 80.54,214.66C80,214.71 79.29,215.04 79.03,215.47C78.74,215.95 78.85,216.69 78.85,217.32C78.85,220.22 78.89,223.11 78.9,226.01C78.9,228.42 78.9,230.82 78.87,233.23C78.85,234.89 78.72,236.55 78.77,238.21C78.83,240.17 79.08,242.13 79.14,244.09C79.21,246.49 79.16,248.89 79.16,251.33L97.84,251.33L97.82,251.32ZM99.45,214.35C99.45,216.01 99.4,217.48 99.45,218.95C99.61,223.33 99.82,227.7 100,232.08C100.02,232.59 99.86,233.11 99.89,233.62C100,235.64 100.22,237.66 100.25,239.68C100.31,243.5 100.27,247.33 100.27,251.26L118.74,251.26C118.8,250.54 118.92,249.96 118.9,249.37C118.78,246.15 118.65,242.93 118.46,239.71C118.27,236.5 117.9,233.3 117.79,230.08C117.61,224.98 117.57,219.88 117.52,214.77C117.52,214.07 117.32,213.86 116.64,213.89C114.9,213.97 113.16,214.01 111.42,214.01C110.01,214.01 108.6,213.86 107.19,213.91C104.71,213.99 102.24,214.17 99.45,214.33L99.45,214.35ZM139.59,251.13C138.97,238.48 138.36,225.89 137.75,213.31C135.66,213.31 133.5,213.23 131.34,213.33C128.11,213.47 124.88,213.82 121.65,213.89C120.42,213.92 120.14,214.28 120.2,215.39C120.34,217.97 120.37,220.55 120.48,223.13C120.6,225.87 120.73,228.61 120.91,231.35C121.03,233.22 121.3,235.07 121.38,236.94C121.6,241.63 121.76,246.32 121.94,251.13L139.59,251.13ZM116.83,131.56C111.4,131.76 106.15,131.93 100.9,132.15C98.63,132.25 98.36,132.57 98.38,134.3C98.42,137.14 98.38,139.98 98.38,142.81C98.38,143.61 98.43,144.42 98.45,145.22C98.52,147.21 98.59,149.2 98.65,151.19C98.71,153.18 98.78,155.16 98.83,157.15C98.94,161.31 99.03,165.47 99.16,169.63C99.18,170.12 99,170.81 99.94,170.79C105.59,170.67 111.25,170.57 116.9,170.46C117.09,170.46 117.27,170.39 117.5,170.35C117.52,170.02 117.57,169.74 117.56,169.47C117.41,165.81 117.24,162.15 117.12,158.48C117.09,157.55 116.89,157.14 115.83,156.94C112.27,156.25 109.86,153.46 111.16,149.51C111.44,148.65 111.85,147.82 112.03,146.94C112.42,145.01 113.61,143.66 115.33,143.08C116.84,142.57 117.11,141.79 116.83,140.46C116.78,140.23 116.83,139.99 116.83,139.75L116.83,131.55L116.83,131.56ZM119.52,131.61C119.52,132.84 119.54,133.98 119.52,135.12C119.48,137.27 119.52,139.43 119.3,141.56C119.19,142.73 119.78,143.09 120.59,143.53C122.68,144.66 124.12,146.41 124.25,148.78C124.44,152.34 123.85,155.51 120.05,156.98C119.77,157.09 119.51,157.69 119.52,158.05C119.64,161.95 119.81,165.85 119.98,169.75C119.98,169.9 120.07,170.04 120.15,170.29L137.84,170.29C138.5,157.36 137.63,144.53 137.82,131.6L119.54,131.6L119.52,131.61ZM76.59,173.54C75.57,173.6 74.82,173.66 74.07,173.68C69.77,173.8 65.48,173.93 61.18,174.01C60.3,174.03 60.04,174.39 60.21,175.19C60.26,175.42 60.33,175.65 60.33,175.89C60.37,180.03 60.41,184.16 60.42,188.3C60.42,188.96 60.24,189.62 60.25,190.28C60.28,192.13 60.4,193.97 60.44,195.82C60.46,196.91 60.41,198.01 60.37,199.1C60.28,201.5 60.13,203.89 60.09,206.29C60.06,208.25 60.2,210.21 60.18,212.17C60.18,212.82 60.36,213.04 60.96,213.04C62.89,213.04 64.83,213.11 66.76,213.08C69.71,213.04 72.67,212.89 75.62,212.89C76.39,212.89 76.65,212.62 76.66,211.97C76.7,209.65 76.76,207.32 76.75,205C76.74,202.68 76.6,200.36 76.6,198.03C76.6,195.43 76.72,192.83 76.72,190.22C76.72,187.25 76.63,184.27 76.6,181.3C76.58,178.77 76.6,176.25 76.6,173.56L76.59,173.54ZM140.05,131.49C140.22,144.52 140.39,157.43 140.55,170.29L156.73,170.29C156.55,157.36 156.37,144.49 156.19,131.49L140.04,131.49L140.05,131.49ZM60.34,171.7C62.73,171.55 65.07,171.37 67.41,171.27C70.04,171.16 72.68,171.12 75.31,171.04C75.94,171.02 76.49,170.91 76.48,170.06C76.44,167.17 76.44,164.28 76.39,161.4C76.37,160.26 76.2,159.12 76.16,157.97C76.14,157.47 76.33,156.96 76.31,156.46C76.24,154.65 76.1,152.84 76.04,151.02C75.93,147.82 75.84,144.61 75.8,141.41C75.78,139.82 75.88,138.23 75.9,136.64C75.92,135.27 75.9,133.9 75.9,132.54C70.41,132.77 64.95,132.99 59.5,133.22C59.78,146.13 60.06,158.84 60.34,171.7ZM141.96,251.09C142.1,251.13 142.29,251.21 142.48,251.21C145.37,251.24 148.26,251.26 151.15,251.28C152.97,251.3 154.79,251.35 156.61,251.32C156.89,251.32 157.39,250.93 157.4,250.71C157.5,248.07 157.58,245.42 157.57,242.78C157.57,241.63 157.25,240.49 157.25,239.34C157.23,235.03 157.29,230.71 157.31,226.4C157.32,222.17 157.31,217.94 157.31,213.57L140.5,213.57C140.63,217.32 140.73,220.93 140.87,224.53C140.98,227.39 141.19,230.25 141.29,233.11C141.44,237.27 141.52,241.44 141.66,245.6C141.72,247.41 141.86,249.22 141.97,251.09L141.96,251.09ZM60.38,215.08L60.38,252.02C62.04,252.02 63.54,252.06 65.05,252.02C68.79,251.91 72.53,251.74 76.27,251.64C76.95,251.62 77.19,251.41 77.17,250.73C77.09,248.24 77.07,245.75 76.98,243.26C76.86,240.1 76.62,236.94 76.56,233.78C76.49,230.35 76.56,226.93 76.57,223.5L76.57,215.09L60.38,215.09L60.38,215.08ZM119.82,172.83C121.92,185.8 120.56,198.72 120.41,211.81C123.5,211.55 126.37,211.21 129.25,211.09C132.11,210.97 134.97,211.06 137.84,211.06C137.82,210.9 137.77,210.7 137.77,210.51C137.75,207.66 137.77,204.8 137.68,201.95C137.67,201.44 137.38,200.63 137.01,200.48C133.65,199.09 131.62,196.84 131.94,193.02C132.07,191.49 132.01,189.79 132.7,188.51C133.65,186.74 135.02,185.11 137.08,184.31C137.35,184.21 137.58,183.66 137.61,183.31C137.72,181.79 137.77,180.26 137.79,178.74C137.82,176.82 137.79,174.9 137.79,172.82L119.83,172.82L119.82,172.83ZM77.14,97.36C78.17,108.11 78.81,118.73 78.56,129.4C81.1,129.4 83.44,129.37 85.78,129.4C88.69,129.44 91.6,129.5 94.51,129.63C95.61,129.68 96.13,129.3 96.15,128.19C96.18,125.99 96.25,123.8 96.29,121.61C96.32,119.73 96.3,117.86 96.37,115.98C96.44,113.8 96.64,111.62 96.68,109.43C96.72,107.53 96.6,105.63 96.58,103.73C96.56,101.76 96.58,99.79 96.58,97.77C90.07,97.63 83.71,97.49 77.15,97.35L77.14,97.36ZM137.58,129.34C137.58,128.43 137.57,127.55 137.58,126.67C137.65,122.18 137.74,117.69 137.81,113.19C137.84,111.22 137.84,109.24 137.86,107.27C137.88,105.31 137.91,103.36 137.92,101.4L137.92,97.35L119.97,97.35C119.78,108.09 119.59,118.6 119.4,129.34L137.58,129.34ZM99.07,129.3L116.86,129.3C117.04,118.68 117.23,108.12 117.41,97.61C115.84,97.48 114.41,97.24 112.99,97.27C108.44,97.38 103.9,97.6 99.35,97.74C98.62,97.76 98.41,98.15 98.46,98.71C98.61,100.43 98.85,102.15 99,103.87C99.17,105.87 99.41,107.88 99.4,109.89C99.4,112.65 99.13,115.4 99.08,118.16C99.02,121.87 99.07,125.59 99.07,129.32L99.07,129.3ZM76.34,129.52L76.34,127.59C76.36,124.1 76.42,120.62 76.38,117.13C76.34,113.83 76.15,110.53 76.11,107.23C76.07,104.2 76.16,101.18 76.14,98.15C76.14,97.89 75.68,97.43 75.42,97.42C72.19,97.32 68.97,97.23 65.74,97.24C63.48,97.25 61.22,97.43 59.05,97.53C59.33,102.97 59.72,108.38 59.87,113.81C60.01,119.23 59.9,124.67 59.9,130.04C65.27,129.87 70.81,129.7 76.36,129.53L76.34,129.52ZM140.63,172.88C140.55,174.59 140.48,176.12 140.41,177.65C140.35,179.02 140.28,180.39 140.25,181.76C140.23,182.63 139.96,183.79 140.4,184.29C140.91,184.86 142.08,184.85 142.97,185.09C144.67,185.55 147.34,188.58 147.06,190.56C146.77,192.62 146.2,194.51 145.25,196.32C144.37,197.98 143.1,199.31 141.36,200.02C140.51,200.36 140.33,200.77 140.36,201.58C140.44,203.67 140.44,205.77 140.46,207.86C140.47,208.94 140.46,210.03 140.46,211.3L157.41,211.3C157.16,198.44 156.92,185.78 156.67,172.88L140.63,172.88ZM156.22,97.58L140.44,97.58C139.86,108.14 140.28,118.73 139.79,129.28L156.21,129.28L156.21,97.58L156.22,97.58Z" style="fill-rule:nonzero;"/>
        <path d="M93.91,80.11C93.76,77.85 93.63,75.59 93.44,73.33C93.34,72.13 93.79,71.63 94.97,71.71C98.09,71.91 101.05,72.74 103.87,74.08C106.44,75.3 107.16,79.22 105.68,81.7C104.02,84.49 101.53,85.34 98.64,85.69C97.72,85.8 96.77,86 95.88,85.86C94.56,85.65 94.01,84.59 93.9,83.34C93.8,82.27 93.77,81.2 93.71,80.12C93.78,80.12 93.84,80.12 93.91,80.11ZM95.78,73.43C96.05,75.11 96.27,76.28 96.42,77.45C96.63,79.14 96.8,80.84 96.93,82.54C96.98,83.24 97.24,83.67 97.94,83.44C99.4,82.97 100.9,82.56 102.25,81.86C104.32,80.79 104.5,77.55 102.49,76.41C100.45,75.26 98.2,74.48 95.78,73.42L95.78,73.43Z" style="fill-rule:nonzero;"/>
        <path d="M121.65,81.55C120.04,81.22 118.75,81.01 117.51,80.66C117.06,80.53 116.7,80.06 116.3,79.75C116.7,79.36 117.06,78.71 117.51,78.64C118.68,78.47 119.89,78.54 121.08,78.54C122.15,78.54 123.22,78.48 124.27,78.6C124.7,78.65 125.29,79.01 125.44,79.38C125.58,79.71 125.34,80.55 125.07,80.64C123.46,81.24 123.42,82.34 123.81,83.73C123.99,84.37 123.93,85.07 124.08,85.73C124.26,86.53 123.89,87.08 123.23,87.16C122.82,87.21 122.21,86.83 121.92,86.46C121.57,86.02 121.47,85.38 121.23,84.72C120.65,84.81 120.02,84.86 119.42,85.02C117.75,85.45 116.23,85.14 114.7,84.36C113.22,83.6 112.6,82.45 112.16,80.89C111.57,78.82 112.27,77.09 113.17,75.45C114.57,72.9 117.9,72.08 120.71,73.4C121.28,73.67 121.89,73.95 122.34,74.38C122.63,74.66 122.64,75.21 122.78,75.64C122.4,75.71 122.01,75.87 121.65,75.82C120.48,75.65 119.33,75.25 118.16,75.22C116.36,75.17 114.27,77.22 114.23,78.87C114.18,80.77 115.94,82.67 117.98,82.79C118.84,82.84 119.74,82.75 120.58,82.56C120.94,82.48 121.21,81.99 121.65,81.55Z" style="fill-rule:nonzero;"/>
        <path d="M136.29,79.79C136.42,80.94 136.54,81.91 136.64,82.88C136.69,83.35 136.78,83.83 136.75,84.3C136.7,85.21 136.03,85.59 135.19,85.26C134.76,85.09 134.3,84.98 133.6,84.77C133.49,84.16 133.22,83.37 133.2,82.56C133.13,79.77 133.14,76.98 133.14,74.19C133.14,73.64 133.17,73.05 133.37,72.54C133.51,72.17 134.06,71.6 134.23,71.66C134.65,71.81 135.17,72.23 135.26,72.63C135.53,73.95 135.67,75.31 135.78,76.66C135.85,77.47 136.1,77.88 137.02,77.83C138.24,77.75 139.47,77.81 140.87,77.81C140.83,77.15 140.77,76.54 140.78,75.92C140.78,74.78 140.78,73.63 140.89,72.49C140.95,71.84 141.43,71.57 142,71.98C142.32,72.21 142.68,72.6 142.74,72.96C143.34,76.35 143.89,79.75 144.41,83.16C144.52,83.9 144.49,84.68 144.44,85.43C144.37,86.58 143.77,86.76 142.7,86.54C140.59,86.1 141.45,84.46 141.19,83.28C141.15,83.1 141.24,82.89 141.24,82.69C141.24,80.53 141.17,80.46 139.06,80.18C138.21,80.07 137.35,79.94 136.29,79.79Z" style="fill-rule:nonzero;"/>
        <path d="M57.64,77.17C59.56,77.07 61.38,76.93 63.2,76.91C63.57,76.91 63.95,77.35 64.32,77.59C64.08,77.92 63.89,78.48 63.59,78.55C62.53,78.8 61.43,78.94 60.34,79.03C59.47,79.1 58.6,79.04 57.5,79.04C57.74,80.16 57.95,81.17 58.23,82.45C59.75,82.33 61.31,82.16 62.87,82.09C63.32,82.07 64.08,82.25 64.16,82.51C64.34,83.07 64.35,83.84 64.08,84.34C63.87,84.72 63.14,84.95 62.63,84.99C60.68,85.13 58.73,85.19 56.77,85.24C55.75,85.27 55.3,84.64 55.23,83.68C55.12,82.11 55.08,80.47 54.6,79C53.96,77.07 54.13,75.13 54.12,73.21C54.12,72.61 55.31,71.61 56.07,71.48C58.05,71.14 60.09,71.16 62.11,71.1C62.39,71.1 62.88,71.36 62.93,71.58C63.03,71.96 63,72.56 62.76,72.79C62.33,73.21 61.72,73.49 61.14,73.7C60.47,73.94 59.75,74.04 59.05,74.18C57.42,74.52 56.9,75.64 57.64,77.17Z" style="fill-rule:nonzero;"/>
        <path d="M77.55,81.55C76.38,81.63 75.14,81.54 74.83,83.13C74.72,83.7 74.4,84.25 74.11,84.76C73.82,85.26 73.68,85.99 72.71,85.57C71.83,85.18 71.2,84.8 71.61,83.73C73.08,79.84 74.55,75.95 76.06,72.07C76.15,71.84 76.58,71.54 76.75,71.59C77.17,71.72 77.69,71.94 77.88,72.28C78.99,74.3 79.98,76.37 81.08,78.4C81.32,78.84 81.81,79.15 82.16,79.54C82.39,79.79 82.79,80.16 82.72,80.35C82.34,81.49 83.06,82.24 83.54,83.08C84,83.89 84.47,84.71 83.76,85.61C83.55,85.88 83.28,86.33 83.05,86.32C82.64,86.31 82.09,86.12 81.86,85.81C81.36,85.15 80.97,84.4 80.64,83.64C79.91,81.93 79.4,81.55 77.55,81.54L77.55,81.55ZM75.8,80.01C76.92,79.86 77.63,79.76 78.41,79.65C77.94,78.55 77.53,77.59 77.04,76.45C76.62,77.64 76.26,78.69 75.79,80.01L75.8,80.01Z" style="fill-rule:nonzero;"/>
        <path d="M94.63,56.67C94.45,57.87 94.38,59.04 94.07,60.14C93.65,61.63 92.85,62.85 91.27,63.47C89.32,64.23 87.38,65.06 85.27,64.7C84.36,64.55 83.11,64.45 82.81,63.23C82.64,62.55 82.72,61.8 82.76,61.09C82.93,58.08 83.19,55.08 83.31,52.06C83.37,50.56 83.9,49.63 85.33,49.24C86.16,49.01 87.01,48.75 87.86,48.71C90.71,48.57 93.59,50.85 94.16,53.64C94.37,54.65 94.48,55.67 94.64,56.66L94.63,56.67ZM85.6,56.06C85.35,57.84 85.12,59.65 84.85,61.44C84.63,62.95 85,63.41 86.52,63.04C87.9,62.71 89.23,62.16 90.53,61.59C91.02,61.37 91.57,60.87 91.72,60.38C92.12,59.03 92.54,57.62 92.52,56.24C92.5,54.9 92.24,53.37 91.52,52.3C90.43,50.66 88.68,50.14 86.6,50.61C85.43,50.87 85.2,51.3 85.34,52.36C85.5,53.57 85.51,54.8 85.59,56.07L85.6,56.06Z" style="fill-rule:nonzero;"/>
        <path d="M155.92,75.14C156.02,76.2 156.1,77.35 156.25,78.49C156.28,78.68 156.59,78.93 156.81,78.97C157.23,79.04 157.68,78.95 158.11,78.97C159.21,79.02 160.32,79.09 161.37,79.15C161.69,80.79 161.38,81.2 160.01,81.21L156.22,81.21C156.43,82.14 156.57,82.94 156.82,83.7C156.88,83.87 157.32,84.02 157.59,84.01C159.13,83.98 160.68,83.83 162.22,83.86C162.65,83.86 163.36,84.3 163.43,84.63C163.5,85 163.04,85.78 162.7,85.86C161.67,86.1 160.58,86.08 159.51,86.17C158.72,86.24 157.92,86.28 157.15,86.43C156.09,86.64 155.11,86.2 154.8,85.15C154.47,84 154.14,82.83 154.02,81.65C153.78,79.26 153.67,76.85 153.55,74.45C153.49,73.4 154.1,72.78 155.09,72.66C157.22,72.41 159.36,72.21 161.5,72.05C162.25,71.99 163.42,73.29 163.36,74.14C163.29,75.1 162.44,75.13 161.72,75.13C159.85,75.15 157.99,75.13 155.94,75.13L155.92,75.14Z" style="fill-rule:nonzero;"/>
        <path d="M124.64,62.48C126.03,62.62 127.36,62.73 128.68,62.92C129.04,62.97 129.6,63.26 129.65,63.51C129.71,63.83 129.43,64.44 129.13,64.56C128.53,64.82 127.82,65 127.18,64.93C125.5,64.74 123.83,64.43 122.16,64.09C121.75,64.01 121.39,63.65 121.01,63.42C121.25,63.07 121.41,62.61 121.73,62.4C124.89,60.31 125.55,56.9 126.41,53.61C126.64,52.72 126.3,51.88 125.27,51.7C124.35,51.54 124.01,52.3 123.68,52.99C123.41,53.56 123.18,54.16 122.88,54.71C122.79,54.88 122.51,55 122.3,55.01C122.19,55.01 121.99,54.77 121.96,54.61C121.68,52.95 123.18,50.68 124.79,50.28C126.83,49.77 128.5,51.01 128.3,53.19C128.05,55.83 127.16,58.33 125.69,60.59C125.33,61.14 125.04,61.74 124.64,62.48Z" style="fill-rule:nonzero;"/>
        <path d="M109.45,61.27C108.48,61.99 107.68,62.8 106.72,63.27C104.84,64.18 103.07,63.16 102.95,61.07C102.85,59.34 102.99,57.59 103.13,55.85C103.17,55.3 103.42,54.49 104.23,54.83C104.54,54.96 104.71,55.69 104.75,56.17C104.9,57.79 104.93,59.42 105.08,61.04C105.15,61.8 105.6,61.81 106.16,61.41C107.61,60.37 108.25,58.84 108.71,57.2C108.82,56.82 108.74,56.33 108.95,56.05C109.22,55.69 109.67,55.41 110.1,55.27C110.21,55.23 110.65,55.82 110.73,56.17C110.85,56.66 110.72,57.21 110.81,57.72C111.06,59.03 111.39,60.33 111.64,61.64C111.72,62.09 111.78,62.66 111.58,63.01C111.4,63.33 110.84,63.57 110.44,63.59C110.2,63.6 109.82,63.17 109.71,62.86C109.53,62.35 109.52,61.78 109.45,61.28L109.45,61.27Z" style="fill-rule:nonzero;"/>
        <path d="M94.95,61.58C96.24,61.9 97.35,62.2 98.47,62.43C99.23,62.59 99.7,62.16 99.89,61.47C100.08,60.78 99.79,60.35 99.1,60.12C98.58,59.94 98.08,59.67 97.59,59.41C95.77,58.45 95.46,57.24 96.89,55.75C97.52,55.1 98.55,54.78 99.46,54.48C99.79,54.37 100.37,54.69 100.68,54.98C100.87,55.16 100.87,55.7 100.75,56C100.7,56.14 100.18,56.13 99.88,56.16C99.33,56.22 98.7,56.1 98.23,56.33C97.43,56.72 97.51,57.44 98.32,57.81C98.93,58.09 99.56,58.34 100.18,58.61C101.56,59.22 101.91,59.94 101.49,61.37C100.87,63.48 99.4,64.66 97.2,64.07C96.85,63.98 96.51,63.88 96.15,63.83C94.23,63.57 93.97,63.01 94.95,61.57L94.95,61.58Z" style="fill-rule:nonzero;"/>
        <path d="M115.72,53.74C117,53.77 118.53,55.31 118.46,56.53C118.45,56.73 118.29,57.04 118.14,57.08C117.99,57.13 117.72,56.94 117.57,56.79C117.22,56.43 116.99,55.92 116.58,55.68C115.73,55.17 115.23,55.87 114.84,56.46C114.35,57.22 115.04,57.41 115.55,57.61C117.93,58.52 118.54,60.26 118.01,61.83C117.81,62.43 117.25,63.05 116.69,63.37C115.46,64.06 114.19,63.56 113.04,63.01C112.72,62.86 112.64,62.17 112.45,61.73C112.88,61.7 113.32,61.61 113.74,61.64C114.16,61.68 114.66,62.04 114.96,61.9C115.55,61.63 116.19,61.2 116.47,60.67C116.58,60.46 115.88,59.71 115.45,59.33C114.98,58.92 114.35,58.69 113.84,58.31C113,57.68 112.62,56.87 113.06,55.8C113.58,54.56 114.63,53.71 115.7,53.74L115.72,53.74Z" style="fill-rule:nonzero;"/>
        <path d="M127.85,142.83C126.55,141.61 127.52,139.89 127.04,138.36C126.38,138.9 125.78,139.46 125.11,139.92C124.88,140.08 124.48,139.99 124.15,140.02C124.19,139.69 124.12,139.28 124.29,139.04C125.16,137.82 126.08,136.64 127,135.45C127.45,134.87 128.16,134.93 128.4,135.66C128.61,136.31 128.62,137.05 128.6,137.74C128.56,139.42 128.45,141.1 128.37,142.79C128.19,142.81 128.02,142.82 127.84,142.84L127.85,142.83Z" style="fill-rule:nonzero;"/>
        <path d="M151.59,178.98C151.83,179.69 152.04,180.41 152.31,181.1C152.87,182.51 152.22,183.93 150.73,184.46C149.25,184.99 147.23,184.08 146.89,182.72C146.84,182.51 146.87,182.13 146.98,182.08C147.19,181.98 147.52,181.99 147.73,182.1C148,182.24 148.17,182.64 148.44,182.71C149.01,182.86 149.64,182.98 150.2,182.88C150.45,182.84 150.75,182.23 150.75,181.88C150.75,181.62 150.34,181.32 150.07,181.1C149.66,180.77 149.21,180.49 148.78,180.19C149.05,179.89 149.41,179.63 149.58,179.28C149.77,178.89 149.81,178.42 149.91,177.99C149.52,177.92 149.14,177.85 148.75,177.8C148.19,177.72 147.32,178.67 147.12,177.48C146.94,176.4 147.99,176.39 148.69,176.28C150.57,175.98 151.83,177.06 151.59,178.99L151.59,178.98Z" style="fill-rule:nonzero;"/>
    </g>
</svg>
