<?xml version="1.0" encoding="iso-8859-1"?>
<!-- Generator: Adobe Illustrator 16.0.0, SVG Export Plug-In . SVG Version: 6.00 Build 0)  -->
<!DOCTYPE svg PUBLIC "-//W3C//DTD SVG 1.1//EN" "http://www.w3.org/Graphics/SVG/1.1/DTD/svg11.dtd">
<svg version="1.1" xmlns="http://www.w3.org/2000/svg" xmlns:xlink="http://www.w3.org/1999/xlink" x="0px" y="0px"
	 width="176.305px" height="235.5px" viewBox="0 0 176.305 235.5" style="enable-background:new 0 0 176.305 235.5;"
	 xml:space="preserve">
<g id="H7">
	<g id="H7_1_">
		<path style="fill:none;" d="M176.305,235.5c-58.768,0-117.536,0-176.304,0C0,155.377,0,75.253,0-4.87
			c58.768,0,117.535,0,176.303,0C176.303,75.253,176.303,155.377,176.305,235.5z M146.854,105.668
			c0.791,0.051,1.342,0.089,1.893,0.124c1.957,0.123,3.91,0.296,5.867,0.347c0.973,0.026,1.859-0.354,2.643-1.366
			c-0.818-0.366-1.504-0.881-2.236-0.96c-2.182-0.238-4.383-0.313-6.576-0.433c-0.654-0.036-1.311-0.005-1.881-0.005
			c0-12.702,0-25.167,0-37.699c3.967-0.301,7.943-0.713,11.885,0.144c0.432-1.476,0.49-5.279,0.139-6.689
			c-0.352-1.42-0.352-1.402-1.863-1.396c-5.857,0.026-11.715,0.064-17.57,0.052c-5.898-0.012-11.799-0.141-17.697-0.109
			c-9.027,0.049-18.057,0.175-27.084,0.301c-7.943,0.11-15.885,0.338-23.828,0.386c-8.505,0.051-17.013-0.021-25.52-0.09
			c-8.426-0.068-16.852-0.198-25.277-0.301c-0.38-0.004-0.759,0-1.32,0c0.125,2.359,0.235,4.514,0.357,6.668
			c0.039,0.688,0.352,1.113,1.115,1.113c1.277,0,2.559,0.1,3.83,0.023c1.335-0.08,2.631-0.045,3.888,0.388
			c0.036,0.173,0.08,0.289,0.082,0.406c0.097,7.583,0.262,15.167,0.255,22.751c-0.003,3.645-0.301,7.291-0.526,10.933
			c-0.085,1.381-0.343,2.752-0.544,4.3c-1.407-0.247-2.655-0.5-3.914-0.672c-0.788-0.107-1.593-0.129-2.39-0.118
			c-0.638,0.008-1.111,0.419-1.129,1.03c-0.011,0.339,0.3,0.823,0.606,1.009c0.603,0.364,1.284,0.673,1.971,0.803
			c0.735,0.14,1.516,0.051,2.276,0.054c1.028,0.004,2.055,0.001,3.309,0.001c-0.043,14.929,0.477,29.635-0.118,44.428
			c-0.547,0.036-0.942,0.11-1.328,0.081c-1.359-0.103-2.714-0.254-4.072-0.361c-1.517-0.121-2.837,0.243-3.903,1.744
			c0.749,0.301,1.385,0.756,2.04,0.785c1.831,0.079,3.668-0.019,5.503-0.043c1.934-0.025,2.223-0.168,2.451,2.248
			c0.019,0.199,0.026,0.405-0.002,0.602c-0.147,1.029-0.394,2.054-0.448,3.088c-0.203,3.925-0.489,7.854-0.478,11.781
			c0.021,7.381,0.241,14.762,0.344,22.144c0.02,1.43-0.116,2.86-0.182,4.32c-2.89,0.443-5.769-0.166-8.659,0.661
			c0.503,0.966,0.956,1.838,1.46,2.809c2.444-0.646,4.881-1.305,7.398-0.71c0.221,5.273,0.438,10.467,0.667,15.924
			c0.958-0.598,1.741-1.089,2.392-1.495c0-2.337-0.021-4.501,0.006-6.664c0.027-2.126,0.049-4.253,0.175-6.375
			c0.097-1.636,0.202-1.66,1.778-1.594c0.36,0.017,0.723,0.013,1.083,0.008c4.814-0.066,9.627-0.136,14.441-0.195
			c0.464-0.006,0.93,0.053,1.436,0.083c0,5.194,0,10.243,0,15.405c0.703,0.188,1.364,0.364,2.142,0.571
			c0.701-5.502-0.526-10.848,0.381-16.172c7.26,0,14.493,0,21.857,0c0,1.588,0.028,3.105-0.007,4.62
			c-0.048,2.046-0.213,4.09-0.196,6.134c0.009,1.205-0.003,2.468,0.748,3.65c1.351-1.027,2.191-2.288,2.281-3.877
			c0.088-1.554-0.023-3.122-0.112-4.678c-0.112-1.947-0.389-3.896,0.277-5.863c7.283,0.528,14.523-0.492,21.804,0.252
			c-0.038,0.491-0.075,0.847-0.092,1.204c-0.161,3.322-0.347,6.644-0.458,9.968c-0.034,1.018,0.293,2.103-0.992,2.624
			c-0.045,0.017-0.046,0.143-0.082,0.269c0.736,1.001,1.681,1.506,2.984,1.227c0.545-0.117,0.857-0.337,0.816-0.957
			c-0.047-0.68-0.023-1.365-0.025-2.046c-0.005-3.368-0.028-6.737,0.002-10.105c0.008-0.818,0.199-1.638,0.312-2.499
			c6.893,0.183,13.652-0.354,20.381,0.311c0.105,1.603,0.133,3.088,0.316,4.556c0.209,1.655,0.09,3.27-0.162,4.907
			c-0.156,1.02-0.164,2.073-0.129,3.108c0.025,0.723,0.34,1.376,1.041,1.838c0.992-1.293,1.623-2.679,1.588-4.248
			c-0.045-2.08-0.201-4.16-0.373-6.236c-0.115-1.408-0.154-2.788,0.318-4.015c6.408,0,12.723,0,18.996,0
			c0.582,2.952,0.742,8.906,0.379,11.801c-0.074,0.593-0.072,1.203-0.047,1.802c0.059,1.397,0.812,2.099,2.445,2.179
			c0.062-1.189,0.203-2.382,0.17-3.572c-0.055-2.004-0.289-4.003-0.32-6.007c-0.025-1.637,0.053-3.287,0.246-4.912
			c0.154-1.29,0.264-1.309,1.537-1.29c2.205,0.032,4.41,0.132,6.615,0.159c2.219,0.029,2.488-0.343,1.736-2.425
			c-0.121-0.341-0.523-0.691-0.875-0.812c-0.594-0.206-1.248-0.279-1.883-0.327c-2.229-0.17-4.461-0.306-6.682-0.452
			c-0.049-7.33-0.221-14.533-0.111-21.732c0.109-7.197,0.498-14.392,0.77-21.735c0.455,0,1.006-0.038,1.553,0.007
			c1.314,0.113,2.623,0.316,3.939,0.384c0.904,0.046,1.742-0.229,2.297-1.04c-0.158-0.462-0.311-0.9-0.469-1.364
			c-1.891-0.573-3.793-0.032-5.701,0.064c-0.689,0.034-1.385,0.005-2.041,0.005c-0.119-1.597-0.219-2.985-0.318-4.346
			c0.127-0.072,0.189-0.12,0.26-0.145c0.15-0.053,0.305-0.104,0.461-0.135c2.738-0.531,4.443-2.285,5.475-4.752
			c1.275-3.052,1.299-6.176,0.209-9.277c-0.957-2.721-2.723-4.693-5.59-5.51c-0.258-0.073-0.518-0.139-0.928-0.247
			C146.512,119.396,146.68,112.63,146.854,105.668z M82.277,23.46c0.067,0.413,0.101,0.566,0.116,0.723
			c0.233,2.27,0.373,4.555,0.727,6.806c0.265,1.69,0.148,1.307,1.855,1.62c0.558,0.102,0.934-0.104,1.019-0.723
			c0.055-0.395,0.221-0.784,0.219-1.176c-0.012-2.561-0.044-5.121-0.095-7.681c-0.053-2.681-0.125-5.362-0.211-8.042
			c-0.025-0.797-0.046-1.609-0.21-2.384c-0.2-0.954-0.95-1.392-1.898-1.211c-0.462,0.088-0.907,0.268-1.453,0.435
			c0,2.91,0,5.779,0,8.598c-1.82,0.094-3.521,0.181-5.36,0.275c-0.058-1.711-0.056-3.274-0.181-4.828
			c-0.096-1.188-0.228-2.401-0.57-3.535c-0.361-1.201-1.424-1.427-2.333-0.543c-0.496,0.481-0.936,1.136-1.117,1.79
			c-0.217,0.787-0.217,1.663-0.164,2.492c0.27,4.241,0.573,8.479,0.9,12.717c0.072,0.953,0.202,1.918,0.456,2.836
			c0.245,0.885,1.109,1.336,1.976,1.224c0.897-0.115,1.439-0.606,1.581-1.548c0.083-0.55,0.098-1.122,0.05-1.676
			c-0.131-1.541-0.31-3.077-0.473-4.651C78.887,24.456,80.526,23.975,82.277,23.46z M95.629,24.204
			c-0.264,0.893-0.549,1.603-0.676,2.341c-0.236,1.37-0.476,2.754-0.514,4.137c-0.014,0.531,0.395,1.33,0.84,1.557
			c0.748,0.384,1.637,0.038,2.147-0.628c0.474-0.617,0.845-1.372,1.043-2.124c0.354-1.351,0.544-2.746,0.808-4.122
			c0.133-0.686,0.43-1.133,1.252-1.167c0.953-0.041,1.909-0.197,2.852-0.375c0.936-0.177,1.418-1.023,0.95-1.855
			c-0.305-0.542-0.886-1.035-1.46-1.292c-0.739-0.332-1.594-0.408-2.574-0.634c0.215-0.945,0.402-1.874,0.643-2.788
			c0.254-0.965,0.646-1.901,0.824-2.878c0.291-1.603-0.586-2.583-2.178-2.62c-3.048-0.07-6.094-0.153-9.141-0.239
			c-0.549-0.015-1.094-0.079-1.607-0.117c-0.89,2.016-0.474,2.943,1.51,3.474c0.499,0.134,1.021,0.216,1.536,0.25
			c1.751,0.118,3.504,0.203,5.438,0.312c-0.42,1.488-0.861,2.854-1.178,4.249c-0.176,0.773-0.563,0.945-1.271,0.889
			c-1.078-0.084-2.166-0.167-3.242-0.113c-0.498,0.024-1.205,0.238-1.422,0.602c-0.355,0.6-0.174,1.45,0.416,1.848
			c0.735,0.496,1.607,0.852,2.471,1.083C93.848,24.193,94.669,24.135,95.629,24.204z M97.82,46.076
			c-0.025,0.433-0.047,0.592-0.043,0.749c0.032,1.664,0.328,1.903,1.908,1.553c0.352-0.078,0.703-0.166,1.061-0.209
			c0.842-0.101,1.672-0.129,2.383,0.581c-0.105,0.185-0.186,0.366-0.301,0.517c-1.735,2.26-4.672,2.271-6.801,1.664
			c-0.199-0.057-0.377-0.288-0.507-0.478c-1.581-2.312-1.271-6.476,0.626-8.558c1.554-1.707,3.551-1.857,5.296-0.399
			c0.276,0.232,0.524,0.512,0.83,0.692c0.585,0.344,1.203,0.633,1.854,0.969c0.37-1.264,0.041-2.116-0.681-2.854
			c-0.392-0.4-0.845-0.752-1.182-1.194c-0.456-0.598-1.03-0.812-1.752-0.869c-2.634-0.208-4.741,0.919-6.642,2.573
			c-2.525,2.2-2.744,2.914-1.842,6.126c1.098,3.917,4.574,7.417,9.678,6.456c0.816-0.153,1.607-0.431,2.41-0.652
			c0.412,0.689-0.275,1.86,0.773,2.093c0.859,0.191,1.867,0.138,2.494-0.9c-0.976-1.885-1.046-3.947-0.877-6.044
			c0.094-1.175-0.121-1.58-1.21-2.049c-0.501-0.216-1.084-0.41-1.612-0.371C101.742,45.617,99.806,45.863,97.82,46.076z
			 M84.857,46.915c0.052-1.687-0.546-2.987-1.457-4.137c-2.392-3.022-5.721-4.258-9.392-4.74c-1.915-0.251-3.218,0.713-3.402,2.663
			c-0.156,1.657-0.059,3.35,0.056,5.017c0.153,2.22,0.766,4.425,0.003,6.658c-0.07,0.205,0.314,0.775,0.579,0.849
			c1.029,0.288,2.14,0.746,3.136,0.592c2.979-0.458,5.851-1.361,8.289-3.25C83.909,49.607,84.851,48.435,84.857,46.915z
			 M25.947,40.385c1.735,0,3.445,0.021,5.155-0.015c0.427-0.009,1.024-0.061,1.246-0.334c1.004-1.233,0.771-2.633-0.536-3.696
			c-1.344,0.591-2.763,0.565-4.207,0.302c-0.47-0.086-0.958-0.085-1.439-0.094c-2.098-0.042-2.883,0.618-3.214,2.707
			c-0.056,0.354-0.097,0.727-0.053,1.079c0.521,4.189,1.059,8.376,1.594,12.582c3.151-0.183,6.146-0.358,9.297-0.542
			c0.054-0.905,0.107-1.796,0.159-2.661c-2.469,0-4.809,0-7.333,0c-0.171-1.046-0.365-2.232-0.579-3.548
			c0.665,0,1.103,0.035,1.533-0.01c0.436-0.045,0.871-0.143,1.293-0.266c0.689-0.202,1.152-0.533,0.833-1.394
			c-0.159-0.428-0.15-0.917-0.234-1.495c-0.643-0.052-1.313-0.123-1.985-0.158C25.796,42.753,25.465,42.303,25.947,40.385z
			 M45.21,53.682c0.113-0.202,0.197-0.298,0.225-0.408c0.502-1.979,1.773-3.05,3.795-3.3c1.348-0.167,2.682-0.438,4.032-0.581
			c0.254-0.026,0.67,0.267,0.804,0.522c0.557,1.059,1.102,2.134,1.514,3.253c0.219,0.598,0.477,0.84,1.101,0.823
			c1.71-0.048,2.188-0.731,1.658-2.407c-0.253-0.8-0.625-1.603-0.661-2.416c-0.029-0.665-0.274-1.092-0.615-1.593
			c-1.076-1.588-2.21-3.154-3.097-4.848c-0.676-1.292-0.987-2.771-1.507-4.15c-0.128-0.338-0.393-0.679-0.69-0.872
			c-0.114-0.073-0.554,0.214-0.742,0.428c-0.446,0.509-0.907,1.032-1.227,1.622c-1.853,3.411-3.688,6.833-5.475,10.278
			c-0.302,0.582-0.414,1.289-0.492,1.953C43.721,52.925,44.211,53.483,45.21,53.682z M119.447,47.746
			c0.729-0.14,1.271-0.28,1.822-0.343c0.949-0.109,1.91-0.275,2.857-0.227c1.188,0.06,1.525,0.559,1.396,1.701
			c-0.049,0.437-0.184,0.869-0.189,1.304c-0.014,0.99-0.066,1.998,0.1,2.964c0.066,0.378,0.637,0.891,1.035,0.948
			c1.131,0.163,2.059-1.248,1.838-2.378c-0.264-1.356-0.42-2.746-0.469-4.127c-0.061-1.76,0.121-3.53,0.033-5.288
			c-0.088-1.729-0.877-3.129-2.623-4.062c-0.076,0.608-0.18,1.105-0.189,1.604c-0.023,1.079,0.074,2.165-0.01,3.237
			c-0.127,1.653-0.172,1.677-1.854,1.796c-1.297,0.091-2.617,0.309-4.119-0.292c0-1.371-0.047-2.769,0.012-4.163
			c0.078-1.846,0.113-1.846-1.727-2.178c-0.252-0.045-0.51-0.067-0.863-0.112c0.238,4.975,0.471,9.843,0.709,14.8
			c0.666,0,1.188,0.065,1.68-0.029c0.219-0.043,0.529-0.4,0.537-0.623C119.471,50.768,119.447,49.255,119.447,47.746z M142.74,45.34
			c-0.098-0.844-0.113-1.529-0.27-2.18c-0.361-1.538-0.098-1.884,1.496-1.786c0.279,0.017,0.555,0.086,0.834,0.115
			c1.23,0.13,2.465,0.36,3.697,0.358c2.326-0.004,2.258-0.848,1.883-2.914c-0.098-0.539-0.484-0.676-1.09-0.621
			c-1.869,0.171-3.75,0.239-5.625,0.325c-1.143,0.053-2.285,0.063-3.486,0.094c0.271,5.095,0.178,10.021,1.141,14.847
			c2.34,0.092,4.58,0.233,6.822,0.25c1.424,0.011,2.74-0.391,3.725-1.71c-1.414-0.709-2.836-0.835-4.273-0.809
			c-1.469,0.028-2.938,0.129-4.363,0.197c-0.16-0.449-0.268-0.708-0.344-0.975c-0.498-1.742-0.174-2.159,1.598-2.19
			c1.09-0.021,2.18-0.12,3.312-0.187c-0.127-0.765-0.203-1.279-0.299-1.788c-0.238-1.273-0.279-1.218-1.584-1.053
			C144.865,45.446,143.789,45.34,142.74,45.34z"/>
		<path style="fill-rule:evenodd;clip-rule:evenodd;" d="M146.854,105.668c-0.174,6.961-0.342,13.727-0.514,20.532
			c0.41,0.108,0.67,0.174,0.928,0.247c2.867,0.816,4.633,2.789,5.59,5.51c1.09,3.102,1.066,6.226-0.209,9.277
			c-1.031,2.467-2.736,4.221-5.475,4.752c-0.156,0.03-0.311,0.082-0.461,0.135c-0.07,0.024-0.133,0.072-0.26,0.145
			c0.1,1.36,0.199,2.749,0.318,4.346c0.656,0,1.352,0.029,2.041-0.005c1.908-0.097,3.811-0.638,5.701-0.064
			c0.158,0.464,0.311,0.902,0.469,1.364c-0.555,0.811-1.393,1.086-2.297,1.04c-1.316-0.067-2.625-0.271-3.939-0.384
			c-0.547-0.045-1.098-0.007-1.553-0.007c-0.271,7.344-0.66,14.538-0.77,21.735c-0.109,7.199,0.062,14.402,0.111,21.732
			c2.221,0.146,4.453,0.282,6.682,0.452c0.635,0.048,1.289,0.121,1.883,0.327c0.352,0.12,0.754,0.471,0.875,0.812
			c0.752,2.082,0.482,2.454-1.736,2.425c-2.205-0.027-4.41-0.127-6.615-0.159c-1.273-0.019-1.383,0-1.537,1.29
			c-0.193,1.625-0.271,3.275-0.246,4.912c0.031,2.004,0.266,4.003,0.32,6.007c0.033,1.19-0.107,2.383-0.17,3.572
			c-1.633-0.08-2.387-0.781-2.445-2.179c-0.025-0.599-0.027-1.209,0.047-1.802c0.363-2.895,0.203-8.849-0.379-11.801
			c-6.273,0-12.588,0-18.996,0c-0.473,1.227-0.434,2.606-0.318,4.015c0.172,2.076,0.328,4.156,0.373,6.236
			c0.035,1.569-0.596,2.955-1.588,4.248c-0.701-0.462-1.016-1.115-1.041-1.838c-0.035-1.035-0.027-2.089,0.129-3.108
			c0.252-1.638,0.371-3.252,0.162-4.907c-0.184-1.468-0.211-2.953-0.316-4.556c-6.729-0.665-13.488-0.128-20.381-0.311
			c-0.113,0.861-0.305,1.681-0.312,2.499c-0.03,3.368-0.007,6.737-0.002,10.105c0.002,0.681-0.021,1.366,0.025,2.046
			c0.041,0.62-0.271,0.84-0.816,0.957c-1.304,0.279-2.248-0.226-2.984-1.227c0.036-0.126,0.037-0.252,0.082-0.269
			c1.285-0.521,0.958-1.606,0.992-2.624c0.111-3.324,0.297-6.646,0.458-9.968c0.017-0.357,0.054-0.713,0.092-1.204
			c-7.28-0.744-14.521,0.276-21.804-0.252c-0.667,1.968-0.39,3.916-0.277,5.863c0.089,1.556,0.201,3.124,0.112,4.678
			c-0.09,1.589-0.93,2.85-2.281,3.877c-0.751-1.183-0.739-2.445-0.748-3.65c-0.017-2.044,0.148-4.088,0.196-6.134
			c0.035-1.515,0.007-3.032,0.007-4.62c-7.364,0-14.597,0-21.857,0c-0.907,5.324,0.32,10.67-0.381,16.172
			c-0.778-0.207-1.438-0.384-2.142-0.571c0-5.162,0-10.211,0-15.405c-0.505-0.03-0.971-0.089-1.436-0.083
			c-4.814,0.06-9.627,0.129-14.441,0.195c-0.36,0.005-0.723,0.009-1.083-0.008c-1.577-0.066-1.681-0.042-1.778,1.594
			c-0.126,2.122-0.147,4.249-0.175,6.375c-0.027,2.163-0.006,4.327-0.006,6.664c-0.651,0.406-1.434,0.897-2.392,1.495
			c-0.229-5.457-0.446-10.65-0.667-15.924c-2.517-0.595-4.954,0.063-7.398,0.71c-0.504-0.971-0.958-1.843-1.46-2.809
			c2.891-0.827,5.769-0.218,8.659-0.661c0.065-1.46,0.202-2.891,0.182-4.32c-0.103-7.382-0.323-14.763-0.344-22.144
			c-0.012-3.928,0.275-7.856,0.478-11.781c0.054-1.034,0.301-2.059,0.448-3.088c0.028-0.196,0.021-0.402,0.002-0.602
			c-0.228-2.416-0.518-2.273-2.451-2.248c-1.835,0.024-3.673,0.122-5.503,0.043c-0.655-0.029-1.291-0.484-2.04-0.785
			c1.066-1.501,2.386-1.865,3.903-1.744c1.358,0.107,2.713,0.259,4.072,0.361c0.386,0.029,0.781-0.045,1.328-0.081
			c0.595-14.793,0.074-29.499,0.118-44.428c-1.253,0-2.281,0.003-3.309-0.001c-0.76-0.003-1.541,0.085-2.276-0.054
			c-0.687-0.13-1.368-0.439-1.971-0.803c-0.307-0.186-0.617-0.67-0.606-1.009c0.018-0.611,0.491-1.022,1.129-1.03
			c0.797-0.012,1.603,0.01,2.39,0.118c1.259,0.172,2.507,0.426,3.914,0.672c0.201-1.548,0.459-2.918,0.544-4.3
			c0.225-3.642,0.523-7.288,0.526-10.933c0.007-7.584-0.158-15.167-0.255-22.751c-0.001-0.117-0.045-0.233-0.082-0.406
			c-1.257-0.433-2.553-0.468-3.888-0.388c-1.271,0.077-2.553-0.023-3.83-0.023c-0.763,0-1.076-0.425-1.115-1.113
			c-0.122-2.154-0.232-4.309-0.357-6.668c0.562,0,0.94-0.004,1.32,0c8.425,0.103,16.851,0.232,25.277,0.301
			c8.507,0.068,17.014,0.141,25.52,0.09c7.943-0.047,15.885-0.275,23.828-0.386c9.027-0.126,18.057-0.252,27.084-0.301
			c5.898-0.032,11.799,0.097,17.697,0.109c5.855,0.013,11.713-0.026,17.57-0.052c1.512-0.007,1.512-0.024,1.863,1.396
			c0.352,1.41,0.293,5.213-0.139,6.689c-3.941-0.856-7.918-0.444-11.885-0.144c0,12.532,0,24.997,0,37.699
			c0.57,0,1.227-0.031,1.881,0.005c2.193,0.119,4.395,0.194,6.576,0.433c0.732,0.079,1.418,0.595,2.236,0.96
			c-0.783,1.012-1.67,1.392-2.643,1.366c-1.957-0.051-3.91-0.224-5.867-0.347C148.195,105.757,147.645,105.72,146.854,105.668z
			 M98.674,196.922c0.162-6.119,0.368-12.125,0.467-18.133c0.092-5.494,0.116-10.99,0.078-16.485
			c-0.02-2.794-0.242-5.587-0.375-8.418c-7.472,0.179-14.785,0.353-22.115,0.527c0.101,2.585,0.276,5.103,0.281,7.623
			c0.013,5.894-0.088,11.789-0.082,17.685c0.004,4.089,0.08,8.18,0.182,12.268c0.041,1.633,0.237,3.262,0.366,4.934
			C84.601,196.922,91.607,196.922,98.674,196.922z M52.403,154.254c0,14.493,0,28.798,0,43.288
			c7.183-1.41,14.363-0.622,21.547-0.854c0.949-14.256,1.258-28.382,0.29-42.434C66.905,154.254,59.739,154.254,52.403,154.254z
			 M122.309,153.586c-0.43,0-0.742-0.012-1.055,0.002c-1.723,0.07-3.443,0.189-5.166,0.211c-3.852,0.048-7.703,0.035-11.554,0.076
			c-1.056,0.012-2.11,0.127-3.2,0.196c0.694,14.486-0.725,28.781-0.064,43.2c6.999-0.086,13.867-0.17,20.766-0.255
			C122.289,182.453,123.074,168.115,122.309,153.586z M52.439,151.111c7.302,1.01,14.494-0.424,21.92,0.234
			c-0.33-14.835-0.656-29.49-0.984-44.197c-0.654,0-1.21-0.012-1.766,0.002c-1.963,0.051-3.925,0.155-5.889,0.156
			c-3.208,0.002-6.417-0.095-9.625-0.081c-1.42,0.007-2.838,0.188-4.253,0.289c-0.656,7.704,0.057,15.181,0.212,22.635
			c2.622,0.849,3.399,1.23,4.344,2.136c2.688,2.572,3.334,5.756,2.635,9.266c-0.594,2.977-2.197,5.216-5.151,6.293
			c-1.562,0.569-1.572,0.551-1.534,2.201C52.358,150.358,52.401,150.672,52.439,151.111z M144.062,153.395
			c-2.584-0.454-17.82,0.191-19.836,0.807c0.963,14.133,0.166,28.289-0.508,42.48c0.402,0.024,0.596,0.045,0.793,0.049
			c3.568,0.073,7.137,0.18,10.705,0.203c2.201,0.015,4.414,0.032,6.596-0.195c1.971-0.208,2.389-1.018,2.1-2.99
			c-0.219-1.501-0.553-3.021-0.494-4.52c0.197-5.207,0.67-10.405,0.797-15.612c0.115-4.729-0.098-9.464-0.148-14.196
			C144.043,157.42,144.062,155.421,144.062,153.395z M31.062,197.279c6.237,0.898,12.36-0.327,18.496-0.046
			c0.926-14.402,0.112-28.622,0.03-42.896c-0.579-0.06-1.089-0.146-1.601-0.157c-5.412-0.121-10.826-0.211-16.237-0.361
			c-0.95-0.025-1.074,0.492-1.076,1.186c-0.011,4.973-0.064,9.945-0.001,14.918c0.078,6.173,0.273,12.344,0.38,18.518
			C31.103,191.322,31.062,194.207,31.062,197.279z M98.996,147.862c-0.16,0-0.283-0.019-0.4,0.003
			c-3.056,0.532-5.46-0.547-7.062-3.148c-0.947-1.537-1.426-3.211-1.553-4.996c-0.336-4.74,1.707-8.783,6.15-10.462
			c0.85-0.321,1.715-0.606,2.684-0.948c-0.555-7.239,0.064-14.495-0.575-21.782c-7.342,0.176-14.568,0.348-21.791,0.521
			c-0.813,14.815,0.064,29.372,0.497,43.994c0.504,0.03,0.857,0.066,1.208,0.07c3.609,0.035,7.218,0.08,10.828,0.094
			c3.008,0.01,6.017-0.002,9.024-0.038c1.208-0.015,1.335-0.214,1.184-1.352C99.105,149.196,99.064,148.57,98.996,147.862z
			 M101.656,146.938c0,0.988-0.005,1.906,0.002,2.824c0.01,1.293,0.078,1.404,1.339,1.41c4.606,0.02,9.216,0.043,13.821-0.006
			c1.711-0.018,3.42-0.229,5.23-0.358c-0.186-14.957-1.578-29.778-1.098-44.69c-0.891,0-1.637-0.001-2.383,0
			c-4.172,0.012-8.344-0.029-12.512,0.061c-1.775,0.038-3.545,0.346-5.383,0.54c0.236,7.347,0.467,14.459,0.699,21.636
			c2.32,0.32,4.339,1.161,5.785,3.083c1.441,1.914,1.997,4.096,1.896,6.435C108.898,141.557,107.027,145.916,101.656,146.938z
			 M120.916,103.956c0-0.624-0.004-1.058,0.002-1.492c0.051-4.091,0.1-8.181,0.156-12.272c0.096-7.338,0.205-14.677,0.289-22.017
			c0.01-0.817-0.109-1.635-0.164-2.401c-6.926,0-13.675,0-20.471,0c-0.592,12.79-0.299,25.488,0.258,38.181
			C107.633,103.956,114.227,103.956,120.916,103.956z M143.686,103.631c0.096-12.716,0.223-25.178,0.004-37.782
			c-6.551-0.372-12.949-0.116-19.436-0.2c-0.566,12.781-0.709,25.424-0.85,37.982C130.254,103.631,136.902,103.631,143.686,103.631z
			 M75.874,104.462c7.381,0,14.606,0,21.839,0c0.76-5.304,0.641-10.6,0.574-15.891c-0.084-6.777-0.232-13.553-0.349-20.329
			c-0.013-0.751-0.001-1.502-0.001-2.37c-7.375-0.547-14.685-0.041-22.032-0.211c0.147,5.801,0.29,11.43,0.434,17.07
			c5.157,0.951,7.316,5.04,7.321,8.879c0.003,2.055-0.51,3.958-1.8,5.606c-1.44,1.84-3.404,2.708-5.707,3.011
			C76.064,101.589,75.978,102.897,75.874,104.462z M49.642,66.267c-6.172-0.114-12.143-0.216-18.114-0.346
			c-0.79-0.017-1.113,0.409-1.177,1.062c-0.163,1.673-0.374,3.352-0.377,5.029c-0.009,4.29,0.075,8.579,0.14,12.869
			c0.075,4.931,0.2,9.861,0.238,14.792c0.012,1.465-0.195,2.932-0.307,4.47c6.464,0.651,12.844,0.202,19.23-0.035
			C49.398,91.402,49.52,78.859,49.642,66.267z M143.426,106.007c-0.67,0-1.104,0.002-1.535,0c-1.965-0.015-3.932-0.061-5.895-0.04
			c-3.887,0.042-7.771,0.129-11.656,0.176c-0.711,0.009-1,0.285-1.01,1.003c-0.029,1.803-0.17,3.605-0.162,5.407
			c0.021,4.45,0.033,8.902,0.17,13.349c0.193,6.411,0.494,12.817,0.746,19.227c0.074,1.872,0.141,3.743,0.215,5.698
			c6.51,0.618,12.922-0.141,19.521-0.346c0.076-1.202,0.148-2.324,0.225-3.523c-0.562-0.047-0.912-0.074-1.264-0.107
			c-3.873-0.367-6.77-2.854-7.648-6.576c-0.432-1.826-0.438-3.674,0.02-5.48c1.037-4.095,3.344-7.049,7.623-8.127
			c0.256-0.064,0.512-0.129,0.65-0.163C143.426,119.667,143.426,112.938,143.426,106.007z M51.669,104.094
			c7.428,0.812,14.572,0.194,21.818,0.29c0-1.334,0-2.473,0-3.611c-5.809-1.345-7.062-5.315-7.18-8.915
			c-0.072-2.19,0.538-4.278,1.805-6.123c1.452-2.113,3.474-3.233,6.092-3.285c-0.098-5.511-0.193-10.865-0.289-16.278
			c-7.363-0.562-14.58-0.034-21.988,0.281C51.842,79.05,51.756,91.506,51.669,104.094z M49.64,130.229
			c-0.148-7.725-0.295-15.367-0.443-23.057c-0.811,0-1.403-0.016-1.995,0.004c-1.041,0.035-2.084,0.15-3.124,0.128
			c-4.128-0.089-8.255-0.226-12.384-0.323c-0.58-0.014-1.162,0.09-1.943,0.157c0.435,14.861,0.866,29.593,1.298,44.33
			c2.112-0.16,4.069-0.438,6.025-0.429c3.125,0.017,6.249,0.234,9.373,0.347c0.94,0.034,1.883,0.006,2.818,0.006
			c0.046-0.342,0.069-0.499,0.088-0.655c0.165-1.402-0.125-2.262-1.667-3.005c-6.173-2.97-7.054-11.918-1.733-16.149
			c0.601-0.479,1.2-0.878,2.041-0.887C48.522,130.689,49.047,130.407,49.64,130.229z"/>
		<path style="fill-rule:evenodd;clip-rule:evenodd;" d="M82.277,18.46c-1.751,0.515-3.39,0.996-5.166,1.517
			c0.164,1.574,0.342,3.11,0.473,4.651c0.048,0.554,0.032,1.126-0.05,1.676c-0.142,0.942-0.684,1.433-1.581,1.548
			c-0.867,0.112-1.731-0.338-1.976-1.224c-0.253-0.917-0.383-1.883-0.456-2.836c-0.327-4.237-0.63-8.476-0.9-12.717
			c-0.053-0.829-0.053-1.705,0.164-2.492c0.181-0.654,0.621-1.309,1.117-1.79c0.909-0.884,1.972-0.658,2.333,0.543
			c0.342,1.134,0.474,2.347,0.57,3.535c0.125,1.553,0.123,3.117,0.181,4.828c1.838-0.094,3.54-0.182,5.36-0.275
			c0-2.819,0-5.688,0-8.598c0.545-0.167,0.991-0.347,1.453-0.435c0.949-0.181,1.698,0.257,1.898,1.211
			c0.164,0.774,0.185,1.586,0.21,2.384c0.085,2.68,0.158,5.361,0.211,8.042c0.051,2.56,0.083,5.121,0.095,7.681
			c0.002,0.392-0.165,0.782-0.219,1.176c-0.085,0.618-0.46,0.825-1.019,0.723c-1.707-0.313-1.59,0.07-1.855-1.62
			c-0.354-2.251-0.493-4.536-0.727-6.806C82.377,19.026,82.344,18.873,82.277,18.46z"/>
		<path style="fill-rule:evenodd;clip-rule:evenodd;" d="M95.629,19.204c-0.96-0.068-1.781-0.011-2.533-0.212
			c-0.863-0.231-1.735-0.586-2.471-1.083c-0.59-0.397-0.771-1.248-0.416-1.848c0.217-0.364,0.924-0.578,1.422-0.602
			c1.076-0.054,2.164,0.028,3.242,0.113c0.708,0.056,1.096-0.116,1.271-0.889c0.316-1.395,0.758-2.761,1.178-4.249
			c-1.935-0.108-3.688-0.194-5.438-0.312c-0.516-0.034-1.037-0.116-1.536-0.25c-1.984-0.531-2.4-1.458-1.51-3.474
			c0.514,0.039,1.059,0.102,1.607,0.117c3.047,0.086,6.093,0.169,9.141,0.239c1.592,0.037,2.469,1.017,2.178,2.62
			c-0.178,0.978-0.57,1.913-0.824,2.878c-0.24,0.914-0.428,1.843-0.643,2.788c0.98,0.227,1.835,0.302,2.574,0.634
			c0.574,0.257,1.155,0.75,1.46,1.292c0.468,0.832-0.015,1.678-0.95,1.855c-0.942,0.178-1.898,0.335-2.852,0.375
			c-0.822,0.035-1.119,0.481-1.252,1.167c-0.264,1.375-0.453,2.771-0.808,4.122c-0.198,0.752-0.569,1.507-1.043,2.124
			c-0.511,0.666-1.399,1.012-2.147,0.628c-0.445-0.228-0.854-1.026-0.84-1.557c0.038-1.383,0.277-2.767,0.514-4.137
			C95.08,20.807,95.365,20.096,95.629,19.204z"/>
		<path style="fill-rule:evenodd;clip-rule:evenodd;" d="M97.82,46.076c1.985-0.213,3.922-0.459,5.865-0.604
			c0.528-0.04,1.111,0.155,1.612,0.371c1.089,0.469,1.304,0.874,1.21,2.049c-0.169,2.098-0.099,4.159,0.877,6.044
			c-0.627,1.039-1.635,1.091-2.494,0.9c-1.049-0.233-0.361-1.404-0.773-2.093c-0.803,0.221-1.594,0.499-2.41,0.652
			c-5.104,0.961-8.58-2.54-9.678-6.456c-0.902-3.213-0.684-3.927,1.842-6.126c1.9-1.654,4.008-2.781,6.642-2.573
			c0.722,0.057,1.296,0.271,1.752,0.869c0.337,0.441,0.79,0.793,1.182,1.194c0.722,0.738,1.051,1.589,0.681,2.854
			c-0.651-0.336-1.27-0.625-1.854-0.969c-0.306-0.181-0.554-0.46-0.83-0.692c-1.745-1.458-3.742-1.307-5.296,0.399
			c-1.896,2.082-2.207,6.246-0.626,8.558c0.13,0.189,0.308,0.42,0.507,0.478c2.129,0.608,5.065,0.597,6.801-1.664
			c0.115-0.151,0.195-0.332,0.301-0.517c-0.711-0.709-1.541-0.682-2.383-0.581c-0.357,0.044-0.709,0.131-1.061,0.209
			c-1.58,0.35-1.876,0.111-1.908-1.553C97.773,46.668,97.795,46.509,97.82,46.076z"/>
		<path style="fill-rule:evenodd;clip-rule:evenodd;" d="M84.857,46.915c-0.006,1.52-0.949,2.692-2.188,3.652
			c-2.438,1.889-5.309,2.792-8.289,3.25c-0.996,0.154-2.107-0.304-3.136-0.592c-0.265-0.074-0.649-0.644-0.579-0.849
			c0.763-2.233,0.149-4.438-0.003-6.658c-0.115-1.667-0.212-3.36-0.056-5.017c0.184-1.95,1.487-2.914,3.402-2.663
			c3.67,0.481,7,1.717,9.392,4.74C84.311,43.928,84.91,45.229,84.857,46.915z M72.878,41.279c0.043,0.823,0.065,1.459,0.11,2.093
			c0.156,2.193,0.322,4.386,0.479,6.579c0.046,0.631,0.234,1.107,1.002,1.024c2.189-0.236,4.237-0.847,5.891-2.383
			c1.825-1.694,1.717-4.212-0.308-5.684C77.949,41.38,75.521,41.092,72.878,41.279z"/>
		<path style="fill-rule:evenodd;clip-rule:evenodd;" d="M25.947,40.385c-0.482,1.918-0.151,2.369,1.529,2.457
			c0.672,0.036,1.342,0.106,1.985,0.158c0.084,0.579,0.075,1.067,0.234,1.495c0.32,0.861-0.143,1.192-0.833,1.394
			c-0.422,0.123-0.857,0.22-1.293,0.266c-0.43,0.045-0.868,0.01-1.533,0.01c0.214,1.316,0.408,2.502,0.579,3.548
			c2.524,0,4.865,0,7.333,0c-0.051,0.865-0.104,1.756-0.159,2.661c-3.152,0.184-6.146,0.358-9.297,0.542
			c-0.535-4.206-1.073-8.393-1.594-12.582c-0.043-0.353-0.003-0.725,0.053-1.079c0.331-2.089,1.116-2.749,3.214-2.707
			c0.48,0.009,0.969,0.008,1.439,0.094c1.444,0.263,2.863,0.289,4.207-0.302c1.307,1.062,1.54,2.462,0.536,3.696
			c-0.222,0.273-0.819,0.326-1.246,0.334C29.392,40.405,27.682,40.385,25.947,40.385z"/>
		<path style="fill-rule:evenodd;clip-rule:evenodd;" d="M45.21,53.682c-0.999-0.199-1.489-0.756-1.377-1.695
			c0.079-0.664,0.19-1.371,0.492-1.953c1.787-3.445,3.622-6.867,5.475-10.278c0.32-0.59,0.781-1.112,1.227-1.622
			c0.188-0.214,0.627-0.501,0.742-0.428c0.297,0.193,0.562,0.533,0.69,0.872c0.52,1.379,0.832,2.858,1.507,4.15
			c0.886,1.693,2.021,3.259,3.097,4.848c0.34,0.501,0.586,0.929,0.615,1.593c0.036,0.813,0.408,1.616,0.661,2.416
			c0.529,1.676,0.052,2.359-1.658,2.407c-0.624,0.017-0.881-0.225-1.101-0.823c-0.412-1.12-0.957-2.195-1.514-3.253
			c-0.134-0.255-0.55-0.549-0.804-0.522c-1.35,0.143-2.684,0.415-4.032,0.581c-2.021,0.25-3.293,1.321-3.795,3.3
			C45.407,53.384,45.323,53.48,45.21,53.682z M53.09,47.119c-0.623-1.379-1.082-2.397-1.559-3.452
			c-1.729,0.882-1.825,2.487-2.447,3.985C50.415,47.476,51.597,47.318,53.09,47.119z"/>
		<path style="fill-rule:evenodd;clip-rule:evenodd;" d="M119.447,47.746c0,1.509,0.023,3.021-0.023,4.531
			c-0.008,0.223-0.318,0.58-0.537,0.623c-0.492,0.094-1.014,0.029-1.68,0.029c-0.238-4.957-0.471-9.825-0.709-14.8
			c0.354,0.045,0.611,0.067,0.863,0.112c1.84,0.333,1.805,0.333,1.727,2.178c-0.059,1.394-0.012,2.792-0.012,4.163
			c1.502,0.6,2.822,0.383,4.119,0.292c1.682-0.119,1.727-0.143,1.854-1.796c0.084-1.073-0.014-2.158,0.01-3.237
			c0.01-0.499,0.113-0.996,0.189-1.604c1.746,0.933,2.535,2.333,2.623,4.062c0.088,1.758-0.094,3.528-0.033,5.288
			c0.049,1.381,0.205,2.771,0.469,4.127c0.221,1.13-0.707,2.541-1.838,2.378c-0.398-0.057-0.969-0.57-1.035-0.948
			c-0.166-0.966-0.113-1.974-0.1-2.964c0.006-0.435,0.141-0.867,0.189-1.304c0.129-1.142-0.209-1.641-1.396-1.701
			c-0.947-0.048-1.908,0.118-2.857,0.227C120.719,47.466,120.176,47.606,119.447,47.746z"/>
		<path style="fill-rule:evenodd;clip-rule:evenodd;" d="M142.74,45.34c1.049,0,2.125,0.106,3.174-0.026
			c1.305-0.165,1.346-0.22,1.584,1.053c0.096,0.509,0.172,1.023,0.299,1.788c-1.133,0.066-2.223,0.166-3.312,0.187
			c-1.771,0.032-2.096,0.449-1.598,2.19c0.076,0.268,0.184,0.526,0.344,0.975c1.426-0.068,2.895-0.169,4.363-0.197
			c1.438-0.027,2.859,0.1,4.273,0.809c-0.984,1.319-2.301,1.721-3.725,1.71c-2.242-0.018-4.482-0.158-6.822-0.25
			c-0.963-4.826-0.869-9.752-1.141-14.847c1.201-0.031,2.344-0.041,3.486-0.094c1.875-0.085,3.756-0.154,5.625-0.325
			c0.605-0.055,0.992,0.082,1.09,0.621c0.375,2.066,0.443,2.91-1.883,2.914c-1.232,0.002-2.467-0.228-3.697-0.358
			c-0.279-0.029-0.555-0.098-0.834-0.115c-1.594-0.098-1.857,0.248-1.496,1.786C142.627,43.812,142.643,44.496,142.74,45.34z"/>
		<path style="fill-rule:evenodd;clip-rule:evenodd;fill:none;" d="M98.674,196.922c-7.066,0-14.073,0-21.199,0
			c-0.129-1.672-0.325-3.301-0.366-4.934c-0.102-4.088-0.178-8.179-0.182-12.268c-0.006-5.896,0.095-11.791,0.082-17.685
			c-0.005-2.521-0.18-5.038-0.281-7.623c7.331-0.175,14.644-0.349,22.115-0.527c0.133,2.831,0.355,5.624,0.375,8.418
			c0.038,5.495,0.014,10.991-0.078,16.485C99.042,184.797,98.836,190.803,98.674,196.922z"/>
		<path style="fill-rule:evenodd;clip-rule:evenodd;fill:none;" d="M52.403,154.254c7.336,0,14.502,0,21.836,0
			c0.968,14.052,0.659,28.178-0.29,42.434c-7.184,0.232-14.364-0.556-21.547,0.854C52.403,183.052,52.403,168.747,52.403,154.254z"
			/>
		<path style="fill-rule:evenodd;clip-rule:evenodd;fill:none;" d="M122.309,153.586c0.766,14.529-0.02,28.867-0.273,43.431
			c-6.898,0.085-13.767,0.169-20.766,0.255c-0.66-14.419,0.759-28.714,0.064-43.2c1.09-0.069,2.145-0.185,3.2-0.196
			c3.851-0.041,7.702-0.028,11.554-0.076c1.723-0.021,3.443-0.141,5.166-0.211C121.566,153.574,121.879,153.586,122.309,153.586z"/>
		<path style="fill-rule:evenodd;clip-rule:evenodd;fill:none;" d="M52.439,151.111c-0.038-0.439-0.082-0.753-0.089-1.066
			c-0.038-1.65-0.028-1.632,1.534-2.201c2.955-1.077,4.558-3.316,5.151-6.293c0.7-3.51,0.053-6.693-2.635-9.266
			c-0.945-0.905-1.723-1.287-4.344-2.136c-0.156-7.454-0.869-14.931-0.212-22.635c1.415-0.101,2.833-0.282,4.253-0.289
			c3.208-0.015,6.416,0.083,9.625,0.081c1.963-0.001,3.926-0.105,5.889-0.156c0.556-0.014,1.111-0.002,1.766-0.002
			c0.328,14.707,0.654,29.362,0.984,44.197C66.934,150.688,59.742,152.121,52.439,151.111z"/>
		<path style="fill-rule:evenodd;clip-rule:evenodd;fill:none;" d="M144.062,153.395c0,2.026-0.02,4.025,0.004,6.025
			c0.051,4.732,0.264,9.468,0.148,14.196c-0.127,5.207-0.6,10.405-0.797,15.612c-0.059,1.498,0.275,3.019,0.494,4.52
			c0.289,1.973-0.129,2.782-2.1,2.99c-2.182,0.228-4.395,0.21-6.596,0.195c-3.568-0.023-7.137-0.13-10.705-0.203
			c-0.197-0.004-0.391-0.024-0.793-0.049c0.674-14.191,1.471-28.348,0.508-42.48C126.242,153.586,141.479,152.94,144.062,153.395z"
			/>
		<path style="fill-rule:evenodd;clip-rule:evenodd;fill:none;" d="M31.062,197.279c0-3.072,0.041-5.957-0.009-8.84
			c-0.106-6.174-0.302-12.345-0.38-18.518c-0.063-4.973-0.01-9.945,0.001-14.918c0.002-0.693,0.126-1.211,1.076-1.186
			c5.411,0.15,10.825,0.24,16.237,0.361c0.511,0.012,1.021,0.098,1.601,0.157c0.082,14.274,0.896,28.494-0.03,42.896
			C43.422,196.952,37.298,198.178,31.062,197.279z"/>
		<path style="fill-rule:evenodd;clip-rule:evenodd;fill:none;" d="M98.996,147.862c0.068,0.708,0.109,1.334,0.193,1.955
			c0.151,1.138,0.024,1.337-1.184,1.352c-3.008,0.036-6.017,0.048-9.024,0.038c-3.609-0.014-7.218-0.059-10.828-0.094
			c-0.352-0.004-0.704-0.04-1.208-0.07c-0.432-14.622-1.31-29.179-0.497-43.994c7.222-0.172,14.449-0.344,21.791-0.521
			c0.64,7.287,0.021,14.542,0.575,21.782c-0.969,0.342-1.834,0.627-2.684,0.948c-4.443,1.679-6.486,5.722-6.15,10.462
			c0.127,1.785,0.605,3.459,1.553,4.996c1.603,2.602,4.007,3.681,7.062,3.148C98.713,147.844,98.836,147.862,98.996,147.862z
			 M82.052,126.228c0.72-0.435,1.27-0.709,1.752-1.071c0.413-0.311,0.749-0.725,1.123-1.086c0.47-0.455,0.928-0.346,1.385,0.033
			c0.626,0.52,0.729,1.197,0.112,1.893c-0.579,0.654-1.242,1.268-1.97,1.744c-0.773,0.506-0.775,0.992-0.336,1.639
			c2.256-0.039,2.832,0.237,3.534,1.695c-0.195,0.273-0.383,0.582-0.614,0.854c-0.96,1.131-1.587,1.18-2.738,0.257
			c-0.437-0.352-0.869-0.719-1.349-1.004c-0.714-0.424-1.47-0.617-2.253-0.025c0.255,1.642,1.004,2.84,2.698,3.303
			c2.038,0.557,5.041-0.539,6.198-2.289c0.729-1.104,0.638-2.283-0.298-3.295c-0.343-0.372-0.752-0.684-1.157-1.045
			c0.172-0.275,0.327-0.506,0.466-0.745c0.916-1.583,0.611-3.056-0.886-4.095c-1.094-0.762-2.336-1.057-3.653-0.895
			c-1.604,0.196-2.392,1.219-2.242,2.835C81.854,125.246,81.933,125.557,82.052,126.228z"/>
		<path style="fill-rule:evenodd;clip-rule:evenodd;fill:none;" d="M101.656,146.938c5.371-1.021,7.242-5.381,7.398-9.065
			c0.101-2.339-0.455-4.521-1.896-6.435c-1.446-1.922-3.465-2.763-5.785-3.083c-0.232-7.177-0.463-14.29-0.699-21.636
			c1.838-0.193,3.607-0.502,5.383-0.54c4.168-0.089,8.34-0.049,12.512-0.061c0.746-0.002,1.492,0,2.383,0
			c-0.48,14.912,0.912,29.733,1.098,44.69c-1.811,0.13-3.52,0.341-5.23,0.358c-4.605,0.049-9.215,0.025-13.821,0.006
			c-1.261-0.006-1.329-0.117-1.339-1.41C101.651,148.844,101.656,147.926,101.656,146.938z"/>
		<path style="fill-rule:evenodd;clip-rule:evenodd;fill:none;" d="M120.916,103.956c-6.689,0-13.283,0-19.93,0
			c-0.557-12.693-0.85-25.391-0.258-38.181c6.796,0,13.545,0,20.471,0c0.055,0.766,0.174,1.584,0.164,2.401
			c-0.084,7.339-0.193,14.678-0.289,22.017c-0.057,4.091-0.105,8.181-0.156,12.272C120.912,102.897,120.916,103.332,120.916,103.956
			z"/>
		<path style="fill-rule:evenodd;clip-rule:evenodd;fill:none;" d="M143.686,103.631c-6.783,0-13.432,0-20.281,0
			c0.141-12.558,0.283-25.201,0.85-37.982c6.486,0.084,12.885-0.172,19.436,0.2C143.908,78.453,143.781,90.915,143.686,103.631z"/>
		<path style="fill-rule:evenodd;clip-rule:evenodd;fill:none;" d="M75.874,104.462c0.104-1.565,0.19-2.874,0.279-4.234
			c2.303-0.303,4.266-1.171,5.707-3.011c1.291-1.649,1.803-3.552,1.8-5.606c-0.005-3.839-2.165-7.929-7.321-8.879
			c-0.144-5.64-0.287-11.269-0.434-17.07c7.347,0.17,14.657-0.336,22.032,0.211c0,0.868-0.012,1.619,0.001,2.37
			c0.116,6.776,0.265,13.552,0.349,20.329c0.066,5.291,0.186,10.586-0.574,15.891C90.48,104.462,83.255,104.462,75.874,104.462z"/>
		<path style="fill-rule:evenodd;clip-rule:evenodd;fill:none;" d="M49.642,66.267c-0.123,12.593-0.244,25.135-0.368,37.842
			c-6.386,0.236-12.766,0.686-19.23,0.035c0.112-1.539,0.319-3.005,0.307-4.47c-0.038-4.931-0.163-9.861-0.238-14.792
			c-0.065-4.29-0.148-8.579-0.14-12.869c0.003-1.677,0.214-3.356,0.377-5.029c0.064-0.653,0.388-1.08,1.177-1.062
			C37.499,66.05,43.47,66.153,49.642,66.267z"/>
		<path style="fill-rule:evenodd;clip-rule:evenodd;fill:none;" d="M143.426,106.007c0,6.932,0,13.66,0,20.498
			c-0.139,0.034-0.395,0.099-0.65,0.163c-4.279,1.078-6.586,4.032-7.623,8.127c-0.457,1.807-0.451,3.654-0.02,5.48
			c0.879,3.723,3.775,6.209,7.648,6.576c0.352,0.033,0.701,0.061,1.264,0.107c-0.076,1.199-0.148,2.321-0.225,3.523
			c-6.6,0.205-13.012,0.964-19.521,0.346c-0.074-1.955-0.141-3.826-0.215-5.698c-0.252-6.409-0.553-12.815-0.746-19.227
			c-0.137-4.447-0.148-8.899-0.17-13.349c-0.008-1.802,0.133-3.604,0.162-5.407c0.01-0.718,0.299-0.994,1.01-1.003
			c3.885-0.047,7.77-0.134,11.656-0.176c1.963-0.021,3.93,0.025,5.895,0.04C142.322,106.009,142.756,106.007,143.426,106.007z
			 M128.35,120.305c-0.684,1.421-1.934,7.326-1.922,8.708c0.006,0.777,0.494,0.956,1.082,0.986c0.826,0.043,1.658,0.011,2.566,0.011
			c-0.006,1.922-0.527,3.775,0.404,5.477c0.559,0,1.07,0,1.592,0c0.967-1.773-0.178-3.664,0.348-5.511c0.82,0,1.572,0,2.354,0
			c0.186-1.194-0.557-1.587-1.389-1.833c-0.83-0.245-1.205-0.648-0.971-1.564c0.137-0.533,0.191-1.129,0.102-1.666
			c-0.07-0.416-0.424-0.785-0.65-1.176c-0.383,0.297-0.947,0.52-1.107,0.906c-0.279,0.688-0.338,1.47-0.447,2.219
			c-0.184,1.249-0.316,1.352-1.73,1.094c0.131-0.535,0.297-1.061,0.389-1.6c0.219-1.297,0.48-2.595,0.57-3.902
			C129.598,121.615,129.305,120.8,128.35,120.305z"/>
		<path style="fill-rule:evenodd;clip-rule:evenodd;fill:none;" d="M51.669,104.094c0.086-12.588,0.173-25.044,0.259-37.64
			c7.408-0.315,14.625-0.843,21.988-0.281c0.096,5.413,0.191,10.768,0.289,16.278c-2.618,0.052-4.64,1.171-6.092,3.285
			c-1.268,1.844-1.877,3.932-1.805,6.123c0.118,3.599,1.371,7.57,7.18,8.915c0,1.138,0,2.276,0,3.611
			C66.242,104.288,59.097,104.906,51.669,104.094z M62.546,88.288c1.601-0.727,2.072-1.605,1.644-3.381
			c-0.504-2.091-0.692-4.16-0.183-6.279c0.137-0.57,0.092-1.198,0.054-1.793c-0.05-0.774-1.183-1.295-1.79-0.828
			c-1.357,1.046-2.722,2.085-4.029,3.192c-0.98,0.83-1.61,1.863-1.304,3.316c0.306-0.016,0.646,0.069,0.827-0.064
			c0.721-0.531,1.417-1.104,2.074-1.714c0.471-0.437,0.759-1.123,1.673-1.055c0,0.824,0.011,1.573-0.002,2.321
			c-0.026,1.438-0.111,2.875-0.083,4.312C61.441,87.137,61.801,87.853,62.546,88.288z"/>
		<path style="fill-rule:evenodd;clip-rule:evenodd;fill:none;" d="M49.64,130.229c-0.592,0.179-1.118,0.461-1.646,0.467
			c-0.84,0.009-1.44,0.408-2.041,0.887c-5.321,4.231-4.44,13.18,1.733,16.149c1.543,0.743,1.832,1.603,1.667,3.005
			c-0.019,0.156-0.042,0.313-0.088,0.655c-0.935,0-1.878,0.028-2.818-0.006c-3.125-0.112-6.248-0.33-9.373-0.347
			c-1.956-0.01-3.913,0.269-6.025,0.429c-0.432-14.737-0.863-29.469-1.298-44.33c0.781-0.067,1.363-0.171,1.943-0.157
			c4.129,0.097,8.256,0.233,12.384,0.323c1.04,0.022,2.083-0.094,3.124-0.128c0.591-0.02,1.184-0.004,1.995-0.004
			C49.345,114.861,49.492,122.504,49.64,130.229z M38.392,131.252c1.536-1.483,1.644-3.355,1.953-5.164
			c0.231-1.35-0.834-2.875-2.182-3.094c-2.681-0.434-5.694,2.578-5.254,5.438c0.455-0.153,0.971-0.194,1.299-0.464
			c0.549-0.45,0.982-1.042,1.456-1.582c0.493-0.562,0.905-1.236,1.899-1.238c0.732,3.508-1.73,5.31-3.847,7.252
			c1.719,2.1,6.879,2.305,9.416,0.377C41.942,131.253,40.095,131.846,38.392,131.252z"/>
		<path style="fill-rule:evenodd;clip-rule:evenodd;fill:none;" d="M72.878,41.279c2.643-0.188,5.071,0.101,7.174,1.628
			c2.025,1.472,2.133,3.99,0.308,5.684c-1.654,1.537-3.702,2.147-5.891,2.383c-0.768,0.083-0.957-0.393-1.002-1.024
			c-0.157-2.193-0.323-4.386-0.479-6.579C72.944,42.738,72.921,42.103,72.878,41.279z"/>
		<path style="fill-rule:evenodd;clip-rule:evenodd;fill:none;" d="M53.09,47.119c-1.494,0.199-2.676,0.356-4.006,0.534
			c0.623-1.498,0.718-3.104,2.447-3.985C52.008,44.722,52.467,45.74,53.09,47.119z"/>
		<path style="fill-rule:evenodd;clip-rule:evenodd;" d="M82.052,126.228c-0.12-0.671-0.198-0.981-0.227-1.297
			c-0.149-1.616,0.639-2.639,2.242-2.835c1.317-0.162,2.559,0.133,3.653,0.895c1.497,1.039,1.801,2.512,0.886,4.095
			c-0.139,0.239-0.293,0.47-0.466,0.745c0.404,0.361,0.814,0.673,1.157,1.045c0.936,1.012,1.027,2.191,0.298,3.295
			c-1.157,1.75-4.161,2.846-6.198,2.289c-1.694-0.463-2.443-1.661-2.698-3.303c0.783-0.592,1.539-0.398,2.253,0.025
			c0.48,0.285,0.912,0.652,1.349,1.004c1.15,0.923,1.777,0.874,2.738-0.257c0.231-0.272,0.419-0.581,0.614-0.854
			c-0.702-1.458-1.278-1.734-3.534-1.695c-0.439-0.646-0.438-1.133,0.336-1.639c0.728-0.477,1.391-1.09,1.97-1.744
			c0.617-0.695,0.514-1.373-0.112-1.893c-0.457-0.379-0.915-0.488-1.385-0.033c-0.375,0.361-0.71,0.775-1.123,1.086
			C83.322,125.519,82.772,125.793,82.052,126.228z"/>
		<path style="fill-rule:evenodd;clip-rule:evenodd;" d="M128.35,120.305c0.955,0.495,1.248,1.311,1.189,2.148
			c-0.09,1.308-0.352,2.605-0.57,3.902c-0.092,0.539-0.258,1.064-0.389,1.6c1.414,0.258,1.547,0.155,1.73-1.094
			c0.109-0.749,0.168-1.531,0.447-2.219c0.16-0.387,0.725-0.609,1.107-0.906c0.227,0.391,0.58,0.76,0.65,1.176
			c0.09,0.537,0.035,1.133-0.102,1.666c-0.234,0.916,0.141,1.319,0.971,1.564c0.832,0.246,1.574,0.639,1.389,1.833
			c-0.781,0-1.533,0-2.354,0c-0.525,1.847,0.619,3.737-0.348,5.511c-0.521,0-1.033,0-1.592,0c-0.932-1.701-0.41-3.555-0.404-5.477
			c-0.908,0-1.74,0.032-2.566-0.011c-0.588-0.03-1.076-0.209-1.082-0.986C126.416,127.631,127.666,121.726,128.35,120.305z"/>
		<path style="fill-rule:evenodd;clip-rule:evenodd;" d="M62.546,88.288c-0.745-0.436-1.105-1.151-1.121-1.973
			c-0.028-1.437,0.058-2.874,0.083-4.312c0.013-0.749,0.002-1.498,0.002-2.321c-0.914-0.068-1.202,0.618-1.673,1.055
			c-0.657,0.61-1.353,1.183-2.074,1.714c-0.181,0.133-0.521,0.048-0.827,0.064c-0.306-1.453,0.324-2.486,1.304-3.316
			c1.308-1.107,2.672-2.146,4.029-3.192c0.607-0.468,1.74,0.053,1.79,0.828c0.039,0.596,0.083,1.223-0.054,1.793
			c-0.509,2.119-0.321,4.188,0.183,6.279C64.619,86.683,64.147,87.562,62.546,88.288z"/>
		<path style="fill-rule:evenodd;clip-rule:evenodd;" d="M38.392,131.252c1.703,0.594,3.55,0.001,4.741,1.525
			c-2.537,1.928-7.697,1.723-9.416-0.377c2.116-1.942,4.579-3.744,3.847-7.252c-0.995,0.002-1.407,0.676-1.899,1.238
			c-0.473,0.54-0.907,1.132-1.456,1.582c-0.328,0.27-0.844,0.311-1.299,0.464c-0.44-2.86,2.573-5.872,5.254-5.438
			c1.347,0.219,2.413,1.744,2.182,3.094C40.036,127.896,39.928,129.769,38.392,131.252z"/>
	</g>
</g>
<g id="Layer_1">
</g>
</svg>
