<?xml version="1.0" encoding="utf-8"?>
<!-- Generator: Adobe Illustrator 16.0.0, SVG Export Plug-In . SVG Version: 6.00 Build 0)  -->
<!DOCTYPE svg PUBLIC "-//W3C//DTD SVG 1.1//EN" "http://www.w3.org/Graphics/SVG/1.1/DTD/svg11.dtd">
<svg version="1.1" id="Layer_2" xmlns="http://www.w3.org/2000/svg" xmlns:xlink="http://www.w3.org/1999/xlink" x="0px" y="0px"
	 width="176.486px" height="231.75px" viewBox="0 0 176.486 231.75" enable-background="new 0 0 176.486 231.75"
	 xml:space="preserve">
<g id="Layer_3">
	<g id="F-bar_1_">
		<g>
			<path d="M143.789,150.696c1.451-0.071,2.758-0.127,4.062-0.208c0.518-0.032,1.025-0.146,1.545-0.179
				c1.854-0.119,2.117,0.082,2.689,2.118c-0.521,0.185-1.051,0.515-1.594,0.529c-1.148,0.038-2.307-0.104-3.461-0.142
				c-0.978-0.026-1.957-0.006-2.91-0.006c-0.381,2.672-0.359,40.771,0.021,42.877c1.362,0.07,2.753,0.125,4.14,0.221
				c1.035,0.068,2.071,0.15,3.098,0.299c1.228,0.174,1.455,0.396,1.693,1.621c0.108,0.562,0.082,1.152,0.12,1.771
				c-3.312,0-6.452,0-9.702,0c-0.412,1.777-0.521,3.639-0.475,5.51c0.076,2.916,0.179,5.832,0.256,8.748
				c0.012,0.433-0.052,0.861-0.079,1.268c-1.604,0.473-2.378-0.119-2.358-1.589c0.047-3.593,0.068-7.188,0.035-10.78
				c-0.011-1.062-0.24-2.121-0.388-3.338c-6.307,0-12.522,0-18.959,0c-0.069,1.159-0.251,2.424-0.196,3.68
				c0.075,1.713,0.361,3.416,0.502,5.127c0.176,2.145-0.229,4.131-1.752,5.856c-0.771-0.479-1.093-1.19-1.02-2.011
				c0.109-1.27,0.425-2.521,0.496-3.784c0.07-1.3,0.025-2.614-0.102-3.909c-0.131-1.345-0.459-2.666-0.623-4.009
				c-0.068-0.582-0.278-0.89-0.854-0.935c-0.357-0.026-0.716-0.063-1.073-0.069c-4.635-0.076-9.269-0.147-13.903-0.22
				c-1.078-0.018-2.16,0.006-3.235-0.03c-0.617-0.021-0.858,0.25-0.897,0.838c-0.143,2.108-0.39,4.216-0.438,6.323
				c-0.062,2.595,0.033,5.189,0.056,7.787c0.002,0.191-0.049,0.39-0.08,0.617c-1.126,0.389-2.13,0.271-3.007-0.537
				c-0.468-0.434-0.59-0.893,0.081-1.233c0.474-0.241,0.601-0.591,0.513-1.078c-0.533-2.995-0.065-5.978,0.149-8.961
				c0.08-1.108,0.112-2.224,0.176-3.479c-7.229,0-14.329,0-21.543,0c-0.467,1.25-0.63,2.658-0.537,4.098
				c0.083,1.275,0.239,2.55,0.327,3.824c0.137,1.996-0.119,3.912-1.334,5.588c-0.252,0.351-0.555,0.662-0.816,0.972
				c-0.957-0.356-1.125-1.06-1.105-1.871c0.072-3.394,0.144-6.784,0.209-10.178c0.014-0.718,0.002-1.437,0.002-2.253
				c-7.32,0-14.609,0-22.021,0c-0.412,5.225,0.373,10.492-0.28,15.768c-0.379,0-0.655,0.036-0.92-0.009
				c-0.465-0.08-0.922-0.207-1.322-0.302c0.073-2.62,0.205-5.161,0.203-7.7c-0.001-2.511-0.137-5.021-0.215-7.608
				c-6.08-0.873-12.094,0.403-18.271-0.015c-0.208,1.317-0.562,2.562-0.572,3.812c-0.026,3.155,0.114,6.312,0.158,9.469
				c0.021,1.567-0.94,2.401-2.59,2.365c-0.226-5.097-0.448-10.188-0.675-15.345c-2.619-0.742-5.057-0.104-7.703,0.47
				c-0.38-0.938-0.771-1.896-1.235-3.039c3.114-0.115,5.926-0.218,8.791-0.322c0-1.864,0.053-3.606-0.01-5.346
				c-0.155-4.233-0.505-8.466-0.509-12.697c-0.004-4.071,0.355-8.146,0.505-12.219c0.103-2.836,0.104-5.677,0.174-8.515
				c0.029-1.199,0.07-2.399,0.19-3.592c0.085-0.841-0.313-1.222-1.037-1.291c-0.95-0.093-1.909-0.116-2.864-0.116
				c-1.119,0-2.237,0.09-3.356,0.084c-1.255-0.01-2.334-0.627-2.34-1.271c-0.006-0.614,1.088-1.346,2.32-1.324
				c1.673,0.023,3.343,0.225,5.016,0.326c0.544,0.035,1.092,0.007,1.786,0.007c0.099-2.791,0.269-5.417,0.271-8.043
				c0.006-5.835-0.067-11.67-0.119-17.506c-0.052-5.717-0.135-11.434-0.154-17.148c-0.003-0.895-0.259-1.368-1.169-1.404
				c-1.517-0.06-3.032-0.099-4.546-0.186c-1.222-0.07-2.275-0.435-2.657-1.809c0.845-1.15,1.983-1.188,3.229-0.938
				c1.129,0.229,2.261,0.455,3.399,0.592c0.768,0.093,1.254-0.21,1.312-1.131c0.146-2.431,0.402-4.855,0.551-7.287
				c0.018-0.284-0.312-0.734-0.592-0.865c-1.011-0.471-2.062-0.849-3.106-1.239c-0.597-0.223-1.217-0.382-1.813-0.605
				c-3.146-1.173-4.303-4.108-4.122-6.76c0.222-3.28,1.75-6.021,3.913-8.421c0.236-0.264,0.742-0.386,1.13-0.397
				c1.513-0.044,3.026-0.018,4.701-0.018c0.053-0.658,0.169-1.398,0.158-2.137c-0.037-2.836-0.135-5.673-0.157-8.509
				c-0.006-0.646-0.229-0.999-0.828-1.091c-0.743-0.114-1.492-0.238-2.24-0.247c-1.56-0.02-3.118,0.043-4.677,0.052
				c-0.819,0.005-1.379-0.307-1.428-1.236c-0.106-2.064-0.236-4.127-0.372-6.415c1.967,0,3.712-0.019,5.458,0.003
				c6.678,0.083,13.354,0.183,20.029,0.269c6.638,0.085,13.273,0.215,19.91,0.229c7.635,0.016,15.271-0.031,22.905-0.131
				c8.232-0.108,16.468-0.325,24.7-0.461c4.438-0.073,8.879-0.137,13.312-0.097c6.837,0.061,13.673,0.251,20.509,0.316
				c3.638,0.034,7.273-0.085,10.912-0.129c0.438-0.005,0.897-0.047,1.312,0.064c0.28,0.077,0.676,0.355,0.725,0.602
				c0.47,2.365,0.482,4.745,0.151,7.226c-3.969-0.419-7.854-1.009-11.746,0.212c0,3.601,0,7.138,0,10.75
				c0.182,0.025,0.369,0.083,0.553,0.073c3.29-0.179,6.062,1.559,7.191,5.465c0.773,2.676,0.688,5.39-0.479,7.97
				c-1.211,2.678-3.219,4.222-6.285,4.098c-0.198-0.008-0.396,0.002-0.599,0.01c-0.034,0.001-0.069,0.038-0.276,0.158
				c0,2.867,0,5.834,0,8.883c3.369,0.182,6.934-0.458,10.271,1.301c-1.238,1.446-2.691,1.766-4.325,1.56
				c-1.269-0.16-2.53-0.352-3.802-0.483c-0.579-0.06-1.171-0.01-1.777-0.01C142.496,121.092,143.533,135.748,143.789,150.696z
				 M71.686,151.166c0-1.404,0.016-2.757-0.003-4.106c-0.044-3.156-0.029-6.313-0.175-9.468c-0.393-8.422-0.873-16.838-0.743-25.276
				c0.019-1.223-0.239-2.462-0.472-3.674c-0.243-1.287-0.297-1.268-1.574-1.142c-0.558,0.055-1.116,0.085-1.677,0.086
				c-5.475,0.015-10.948,0.021-16.425,0.031c-0.457,0-0.913,0-1.339,0c-0.889,14.679,0.501,29.105,0.446,43.53
				C52.334,151.635,65.81,151.647,71.686,151.166z M98.826,154.17c0.103,1.671,0.279,3.177,0.268,4.683
				c-0.059,5.754-0.2,11.508-0.266,17.264c-0.067,6.436-0.104,12.869-0.119,19.305c-0.002,1.398,0.063,1.447,1.509,1.432
				c6.231-0.084,12.467-0.194,18.698-0.311c0.262-0.004,0.519-0.113,0.816-0.188c-0.283-14.151,0.833-28.242-0.021-42.521
				C112.736,153.944,105.847,154.058,98.826,154.17z M120.596,106.643c-0.771,14.792,0.636,29.433,1.078,44.088
				c6.553,1.094,12.885-0.293,19.343-0.211c0.188-14.813-0.558-29.44-0.871-44.167C133.584,106.75,127.152,106.007,120.596,106.643z
				 M27.934,151.187c6.368,0,12.569,0,18.812,0c0.115-14.636,0.788-29.191-0.625-43.755c-1.129,0.057-2.163,0.173-3.192,0.148
				c-3.914-0.096-7.827-0.259-11.741-0.349c-1.226-0.028-2.452,0.093-3.719,0.148c-0.049,0.301-0.101,0.491-0.104,0.682
				c-0.081,4.115-0.284,8.232-0.2,12.344c0.117,5.791,0.493,11.576,0.671,17.367c0.114,3.71,0.071,7.427,0.099,11.141
				C27.938,149.658,27.934,150.406,27.934,151.187z M140.802,195.915c0-1.877-0.086-3.553,0.018-5.217
				c0.228-3.623,0.798-7.24,0.784-10.859c-0.029-8.713-0.314-17.425-0.502-26.138c-0.005-0.187-0.074-0.371-0.133-0.646
				c-6.45,0.328-12.854,0.656-19.365,0.99c0.841,14.146-0.076,28.27-0.26,42.37c4.971,0,9.802,0.037,14.632-0.021
				C137.52,196.376,139.061,196.097,140.802,195.915z M73.744,107.425c-0.802,14.622,0.322,29.081,0.528,43.723
				c7.524,0.094,14.854,0.184,22.279,0.271c-0.188-4.293,0.101-8.516-0.229-12.471c-1.675-0.64-3.057-1.263-4.496-1.689
				c-1.313-0.39-2.078-1.27-2.649-2.397c-1.478-2.906-1.716-5.959-0.911-9.082c0.968-3.773,3.184-6.29,7.227-6.853
				c0.147-0.021,0.293-0.047,0.457-0.073c0-2.541-0.005-5.008,0.002-7.476c0.002-1.439-0.041-2.867-0.767-4.316
				C88.103,107.182,81,107.303,73.744,107.425z M119.394,150.735c-0.53-14.866-1.058-29.583-1.584-44.381
				c-6.608,0.163-13.094,0.322-19.562,0.481c-0.463,4.181-0.062,8.092,0.263,11.992c0.608,0.101,1.082,0.185,1.554,0.252
				c2.469,0.354,4.354,1.651,5.518,3.8c2.121,3.916,2.025,7.893-0.166,11.762c-1.271,2.248-3.229,3.613-5.83,3.924
				c-0.67,0.08-0.883,0.353-0.854,0.998c0.094,2.195,0.17,4.393,0.213,6.589c0.033,1.668,0.008,3.336,0.008,5.043
				C105.922,151.78,112.638,151.428,119.394,150.735z M96.289,196.64c0.063-0.642,0.16-1.228,0.172-1.812
				c0.041-1.877,0.062-3.758,0.07-5.637c0.012-3.559-0.101-7.118,0.035-10.672c0.294-7.635,0.208-15.262-0.13-22.891
				c-0.024-0.543-0.134-1.08-0.2-1.588c-7.367,0.141-14.613,0.277-21.936,0.418c0.156,7.066,0.312,13.997,0.469,20.898
				c1.158,0.386,2.399,0.689,3.553,1.201c4.395,1.939,6.498,6.672,5.045,11.25c-1.025,3.232-3.225,5.334-6.388,6.479
				c-0.591,0.216-1.21,0.45-1.699,0.828c-0.666,0.513-0.566,1.086,0.234,1.291c0.797,0.204,1.648,0.256,2.479,0.259
				c5.631,0.008,11.266-0.018,16.896-0.025C95.323,196.638,95.754,196.64,96.289,196.64z M49.785,154.378
				c0.113,1.625,0.291,3.016,0.274,4.403c-0.009,0.694,0.203,0.929,0.784,1.229c1.655,0.86,3.351,1.707,4.845,2.81
				c1.999,1.479,3.023,3.58,2.96,6.119c-0.108,4.248-3.686,9.283-7.693,10.731c-0.745,0.271-0.959,0.599-0.959,1.354
				c-0.002,3.156-0.04,6.314-0.129,9.472c-0.057,2.021-0.226,4.039-0.348,6.101c6.957-0.152,13.83-0.305,20.703-0.455
				c-0.25-0.312-0.523-0.459-0.814-0.514c-1.521-0.289-2.549-1.257-3.377-2.477c-2.197-3.229-2.753-6.771-1.763-10.515
				c0.799-3.021,2.616-5.159,5.729-6.03c0.535-0.149,1.046-0.391,1.579-0.551c0.575-0.176,0.853-0.512,0.838-1.133
				c-0.027-1.479,0-2.959-0.029-4.438c-0.104-4.991-0.228-9.983-0.339-14.978c-0.009-0.42-0.001-0.838-0.001-1.135
				C64.545,154.378,57.245,154.378,49.785,154.378z M28.418,196.884c6.252,0,12.503,0,18.89,0c0-5.672,0-11.125,0-16.615
				c-1.789-0.354-3.312-0.982-4.577-2.17c-2.222-2.078-3.251-4.717-3.5-7.662c-0.357-4.244,1.327-9.779,7.434-10.742
				c0.109-0.018,0.213-0.071,0.29-0.1c0-1.729,0-3.422,0-5.121c-0.376-0.037-0.611-0.078-0.85-0.086
				c-5.513-0.162-11.026-0.33-16.54-0.474c-1.604-0.041-1.681,0.043-1.7,1.683c-0.038,3.438-0.104,6.871-0.044,10.307
				c0.064,3.719,0.296,7.432,0.385,11.146c0.109,4.553,0.155,9.107,0.21,13.66C28.44,192.745,28.418,194.78,28.418,196.884z
				 M95.318,66.068c-0.733,0-1.208-0.001-1.682,0c-2.955,0.009-5.91,0.05-8.864,0.019c-3.393-0.037-6.781-0.135-10.171-0.215
				c-1.042-0.024-1.385,0.317-1.348,1.306c0.066,1.673,0.092,3.347,0.147,5.021c0.063,1.859,0.146,3.717,0.225,5.664
				c7.391,0.1,14.584,0.197,21.691,0.294C95.318,74.047,95.318,70.153,95.318,66.068z M71.297,78.016
				c-0.032-4.165,0.059-8.018-0.354-11.834c-7.229,0.149-14.319,0.295-21.438,0.442c-0.098,3.916-0.188,7.658-0.281,11.392
				C56.622,78.016,63.884,78.016,71.297,78.016z M97.795,77.948c7.136,0,13.951,0,20.802,0c0-3.791,0-7.641,0-11.672
				c-6.856,0-13.583,0-20.562,0C97.957,70.087,97.879,73.902,97.795,77.948z M46.798,78.061c-0.323-3.877,0.736-7.64-0.075-11.589
				c-6.379-0.087-12.675-0.173-19.047-0.26c-0.513,3.964-0.207,7.896-0.3,11.849C33.913,78.061,40.262,78.061,46.798,78.061z
				 M121.49,66.152c-0.162,4.075-0.32,8.077-0.478,12.016c6.715-0.323,13.188-0.634,19.776-0.951
				c0.104-2.197,0.289-4.385,0.273-6.572c-0.009-1.22-0.357-2.438-0.544-3.657c-0.114-0.744-0.536-0.925-1.265-0.887
				c-1.951,0.102-3.909,0.168-5.864,0.158c-3.556-0.02-7.106-0.107-10.66-0.161C122.344,66.092,121.955,66.131,121.49,66.152z
				 M61.717,94.636c-0.052,0.668-0.755,0.448-1.315,0.466c-3.074,0.098-6.148,0.17-9.222,0.272
				c-0.708,0.023-1.414,0.127-2.093,0.192c0,3.099,0,6.105,0,9.104c3.036,0.345,15.635,0.474,18.495,0.186
				c1.128-0.113,2.253-0.256,3.229-0.368c0-3.236,0-6.253,0-9.335c-0.412-0.022-0.681-0.047-0.949-0.049
				c-1.838-0.013-3.678,0.02-5.514-0.049C63.503,95.022,62.665,94.793,61.717,94.636z M73.228,104.842c7.424,0,14.713,0,22.021,0
				c0.656-2.964,0.854-5.948,0.438-8.903c-7.458-0.289-14.808-0.573-22.146-0.857C73.437,98.385,73.336,101.485,73.228,104.842z
				 M118.3,95.989c-6.847,0-13.566,0-20.315,0c0.127,2.91,0.252,5.767,0.373,8.531c6.775,0,13.34,0,19.942,0
				C118.3,101.63,118.3,98.926,118.3,95.989z M46.515,95.526c-6.484-0.541-12.731,0.99-19.053,0.822
				c-0.077,1.511-0.147,2.823-0.215,4.136c-0.063,1.3-0.126,2.6-0.188,3.877c3.907,0.585,17.204,0.533,19.454-0.063
				C46.515,101.451,46.515,98.588,46.515,95.526z M140.396,104.252c0.149-3.104,0.292-5.961,0.445-9.069
				c-6.854,0.388-13.49,0.764-20.229,1.146c0,2.751,0,5.362,0,7.923C127.233,104.252,133.766,104.252,140.396,104.252z"/>
			<path d="M72.645,10.507c0.417,2.628,0.827,5.217,1.251,7.888c3.285-0.902,6.333-0.829,8.062,3.12
				c0.281-0.479,0.51-0.817,0.688-1.177c0.848-1.685,2.113-2.377,3.941-1.958c1.277,0.292,2.511,0.784,3.766,1.177
				c0.439,0.138,0.891,0.249,1.215,0.339c0.482,2.392,0.977,4.705,1.406,7.029c0.193,1.059,0.146,2.114-0.75,3.229
				c-0.6-0.703-1.148-1.348-1.705-2.001c-3.48,1.547-4.622,1.067-8.02-3.485c-0.517,1.773-1.611,2.981-3.25,3.686
				c-1.739,0.75-3.303,0.438-4.744-0.986c-0.053,0.376-0.08,0.575-0.108,0.772c-0.185,1.258-0.779,1.561-1.775,0.8
				c-0.409-0.313-0.75-0.828-0.916-1.32c-0.212-0.63-0.32-1.335-0.293-2.001c0.149-3.467-0.408-6.857-0.948-10.258
				c-0.178-1.116-0.22-2.282-0.111-3.406C70.481,10.596,71.012,10.303,72.645,10.507z M77.696,20.234
				c-1.803-0.02-3.279,1.01-3.283,2.29c-0.004,1.303,1.457,2.815,2.764,2.859c1.229,0.041,2.305-1.272,2.317-2.838
				C79.508,21.186,78.777,20.246,77.696,20.234z M89.662,23.67c-0.274-0.572-0.408-1.388-0.861-1.659
				c-0.688-0.412-1.6-0.567-2.426-0.607c-1.328-0.063-1.871,0.954-1.238,2.14c0.531,1,1.373,1.604,2.479,1.776
				C88.768,25.5,89.537,24.828,89.662,23.67z"/>
			<path d="M101.762,43.256c-1.241,0.164-2.057-0.403-2.854-0.998c-2.213-1.654-4.479-1.3-5.937,1.08
				c-1.474,2.406-1.464,4.929-0.082,7.389c0.222,0.395,0.753,0.813,1.181,0.858c1.215,0.129,2.469,0.214,3.674,0.052
				c1.629-0.219,2.563-1.453,2.504-3.174c-1.531,0.208-3.047,0.414-4.652,0.633c-0.241-0.809-0.458-1.532-0.702-2.352
				c1.722-0.288,3.244-0.57,4.774-0.786c0.549-0.077,1.125-0.06,1.675,0.024c1.803,0.275,2.142,0.582,2.345,2.413
				c0.246,2.22,0.389,4.452,0.586,6.812c-0.811,0.112-1.611,0.223-2.566,0.355c-0.104-0.807-0.189-1.499-0.278-2.193
				c-0.069-0.006-0.159-0.042-0.22-0.014c-3.812,1.765-7.812,0.607-10.36-3.003c-1.379-1.954-2.056-4.09-1.312-6.434
				c0.276-0.876,0.91-1.651,1.442-2.431c0.217-0.318,0.618-0.503,0.896-0.787c1.881-1.906,4.24-1.986,6.682-1.757
				c0.195,0.018,0.465,0,0.57,0.117c0.81,0.872,1.642,1.731,2.341,2.687C101.732,42.106,101.666,42.708,101.762,43.256z"/>
			<path d="M67.769,52.838c0.729-0.421,0.818-0.959,0.719-1.795c-0.345-2.848-0.521-5.717-0.751-8.579
				c-0.12-1.501,0.128-2.848,1.568-3.711c0.256-0.154,0.404-0.486,0.604-0.736c0.023,0.11,0.047,0.219,0.07,0.329
				c0.521,0.12,1.043,0.343,1.563,0.341c4.607-0.012,9.217,3.15,10.691,7.345c0.281,0.798,0.265,1.5-0.114,2.274
				c-1.528,3.132-4.188,4.799-7.441,5.447c-1.727,0.343-3.562,0.198-5.344,0.143c-0.557-0.017-1.102-0.457-1.65-0.703
				C67.712,53.075,67.741,52.956,67.769,52.838z M71.263,51.958c2.64-0.475,4.958-1.36,6.677-3.338
				c0.518-0.594,0.906-1.438,1.018-2.217c0.274-1.898-0.955-3.484-3.129-4.027c-1.677-0.418-3.409-0.619-5.147-0.922
				C69.897,44.984,70.097,48.423,71.263,51.958z"/>
			<path d="M55,17.57c1.051-0.117,1.921-0.236,2.796-0.305c0.763-0.059,1.527-0.1,2.289-0.083c2.181,0.048,3.031,1.06,2.754,3.399
				c-1.555,0.155-3.144,0.324-4.733,0.47c-2.826,0.259-2.798,0.253-2.834,3.107c-0.021,1.521-0.125,3.042-0.249,4.56
				c-0.036,0.436-0.271,0.857-0.438,1.354c-1.608-0.564-2.357-1.725-2.585-3.15c-0.236-1.499-0.299-3.035-0.319-4.557
				c-0.03-2.08,0.125-4.164,0.061-6.242c-0.052-1.684-0.31-3.361-0.492-5.204c3.122-0.437,6.366-0.966,9.631-1.317
				c1.72-0.185,2.655,0.707,3.025,2.385c0.149,0.67-0.032,1.087-0.732,1.183c-1.301,0.178-2.605,0.321-3.906,0.5
				c-1.13,0.155-2.257,0.342-3.387,0.512c-0.657,0.099-0.932,0.46-0.887,1.136C55.035,15.99,55,16.668,55,17.57z"/>
			<path d="M31.277,50.135c-0.191,0.896-0.354,1.658-0.565,2.644c-3.013,0.146-6.024,0.292-9.104,0.442
				c-0.214-1.627-0.369-3.087-0.604-4.535c-0.521-3.232-1.09-6.456-0.858-9.754c0.065-0.968,0.646-1.584,1.604-1.65
				c1.555-0.106,3.105-0.211,4.659-0.299c1.298-0.073,2.542,0.1,3.693,0.909c-0.179,0.845-0.354,1.686-0.546,2.602
				c-2.371-0.02-4.688-0.3-7.051,0.396c0.042,0.845,0.083,1.662,0.125,2.484c1.375,0,2.597,0,3.908,0
				c0.093,0.27,0.251,0.589,0.312,0.926c0.264,1.453,0.039,1.743-1.457,1.935c-0.744,0.096-1.489,0.175-2.246,0.263
				c-0.345,1.429,0.326,2.547,0.634,3.637C26.295,50.135,28.676,50.135,31.277,50.135z"/>
			<path d="M49.619,38.083c0.547,3.882,2.6,6.871,4.304,10.017c0.686,1.261,1.311,2.558,1.891,3.87
				c0.493,1.117,0.132,1.933-0.943,2.402c-1.009,0.44-1.44,0.212-2.031-1.13c-0.336-0.766-0.639-1.546-0.929-2.331
				c-0.253-0.687-0.659-0.999-1.439-0.911c-1.824,0.206-3.668,0.261-5.478,0.551c-0.495,0.08-0.992,0.713-1.307,1.208
				c-0.462,0.725-0.76,1.554-1.118,2.318c-1.57-0.458-2.003-1.166-1.22-2.365c2.201-3.373,3.433-7.193,5.206-10.76
				c0.396-0.801,1.007-1.522,1.626-2.178C48.49,38.445,49.043,38.346,49.619,38.083z M46.222,47.735
				c0.508,0.128,0.847,0.249,1.194,0.294c0.92,0.121,2.12-0.374,2.396-1.019c0.373-0.871,0.028-1.635-0.483-2.331
				c-0.503-0.686-1.146-0.653-1.575,0.106C47.233,45.713,46.77,46.674,46.222,47.735z"/>
			<path d="M139.748,49.396c0.146,0.881,0.287,1.77,0.453,2.797c0.709-0.061,1.332-0.142,1.955-0.162
				c1.514-0.05,3.029-0.137,4.539-0.073c0.631,0.026,1.247,0.396,1.909,0.624c-0.508,1.528-1.625,1.889-2.858,1.95
				c-1.231,0.06-2.475-0.021-3.713-0.028c-1.271-0.008-2.545-0.002-3.941-0.002c-0.301-5.057-0.987-10.059-0.791-15.139
				c0.254-0.051,0.402-0.104,0.556-0.108c2.873-0.091,5.747-0.154,8.619-0.28c0.784-0.034,1.069,0.287,1.147,1.001
				c0.201,1.863,0.035,2.208-1.812,2.344c-1.578,0.116-3.178-0.04-4.77-0.084c-0.394-0.011-0.783-0.057-1.226-0.091
				c-0.646,1.376,0.126,2.599,0.15,4.035c1.005-0.103,1.896-0.204,2.795-0.284c1.544-0.138,1.553-0.134,1.834,1.388
				c0.084,0.461,0.104,0.934,0.16,1.425C143.129,49.438,141.328,48.317,139.748,49.396z"/>
			<path d="M114.398,53.32c-0.271-4.964-0.537-9.852-0.812-14.911c0.744,0.22,1.488,0.348,2.136,0.67
				c0.312,0.156,0.584,0.663,0.627,1.039c0.095,0.828,0.028,1.674,0.033,2.512c0.004,0.559-0.029,1.122,0.021,1.676
				c0.116,1.221,0.266,1.357,1.456,1.285c1.418-0.086,2.833-0.22,4.427-0.347c0-2.181,0-4.165,0-6.208
				c1.623,0.5,2.879,2.247,2.971,4.113c0.062,1.232,0.011,2.477-0.09,3.708c-0.16,1.998-0.297,3.99,0.27,5.944
				c0.177,0.609-0.009,0.999-0.466,1.343c-0.521,0.393-1.077,0.814-1.735,0.468c-0.273-0.144-0.529-0.589-0.544-0.908
				c-0.062-1.356-0.019-2.715-0.032-4.074c-0.021-1.741-0.701-2.369-2.453-2.271c-0.354,0.02-0.709,0.107-1.062,0.174
				c-2.214,0.421-2.458,0.719-2.472,3.01c-0.004,0.6,0.012,1.199-0.016,1.798c-0.045,1.118-0.271,1.299-1.406,1.148
				C115.014,53.459,114.783,53.398,114.398,53.32z"/>
			<path d="M120.41,22.485c-2.555,1.187-5.219,0.501-7.727,0.997c-0.419,1.709,0.652,3.064,2.544,3.178
				c1.724,0.103,3.245-0.417,4.55-1.602c0.301,0.51,0.564,0.958,0.833,1.413c-0.019,0.073-0.024,0.163-0.063,0.235
				c-0.541,1.008-0.6,2.32-1.94,2.813c-1.825,0.671-3.638,0.859-5.435-0.014c-2.237-1.089-3.362-3-3.43-5.406
				c-0.062-2.463,0.836-4.601,3.045-5.937c2.487-1.505,5.504-0.508,6.689,2.145C119.785,20.994,120.071,21.693,120.41,22.485z
				 M116.635,20.926c-0.553-0.927-1.273-1.193-2.09-0.851c-0.252,0.106-0.354,0.557-0.528,0.851
				C115.033,20.926,115.834,20.926,116.635,20.926z"/>
			<path d="M6.525,85.824c-0.983,0.917-1.796,1.556-2.453,2.328c-0.526,0.619-0.996,0.529-1.554,0.197
				c-0.604-0.358-0.668-0.842-0.251-1.389c0.959-1.26,1.844-2.59,2.916-3.747c0.804-0.868,1.94-1.199,3.313-0.973
				c0.448,3.083,0.916,6.175,1.327,9.273c0.065,0.486-0.125,1.007-0.202,1.552c-1.125-0.107-1.645-0.792-1.883-1.661
				c-0.251-0.915-0.331-1.876-0.527-2.808C7.037,87.763,6.805,86.94,6.525,85.824z"/>
			<path d="M101.599,18.614c0.588,0.242,1.093,0.292,1.3,0.565c0.574,0.758,1.254,0.65,2.043,0.551
				c1.161-0.145,2.275,0.063,3.312,0.901c-0.221,0.816-0.446,1.649-0.731,2.696c-0.479-0.329-0.889-0.487-1.108-0.785
				c-0.381-0.52-0.85-0.592-1.332-0.344c-0.57,0.293-1.369,0.479-1.287,1.371c0.086,0.925,0.271,1.841,0.373,2.765
				c0.095,0.822,0.137,1.649,0.201,2.516c-1.262,0.056-1.855-0.58-2.289-1.396c-0.92-1.743-1.11-3.642-0.998-5.565
				C101.143,20.859,101.399,19.838,101.599,18.614z"/>
			<path d="M99.636,20.805c-1.003,0-2.011,0-3.001,0c-0.627,0.931-0.559,1.853-0.408,2.772c0.162,1.003,0.366,1.999,0.553,2.997
				c0.146,0.782,0.027,1.504-0.391,2.13c-1.239,0.083-1.805-0.656-1.989-1.604c-0.397-2.028-0.696-4.076-0.962-6.125
				c-0.036-0.277,0.281-0.702,0.551-0.9c1.151-0.847,2.438-1.359,3.901-1.303C99.199,18.821,99.629,19.293,99.636,20.805z"/>
			<path d="M115.185,12.828c0.841-1.356,1.545-2.716,2.466-3.909c0.879-1.139,1.902-1.167,3.118-0.375
				C120.423,12.198,117.869,14.318,115.185,12.828z"/>
			<path d="M82.512,124.859c0.689-0.158,1.406-0.25,2.068-0.492c0.74-0.271,1.115-0.018,1.387,0.643
				c0.279,0.691,0.599,1.369,0.906,2.067c-0.269,0.856-0.86,0.987-1.729,0.935c-2.188-0.131-4.382-0.146-6.574-0.176
				c-0.873-0.011-1.265-0.309-0.945-1.13c0.411-1.056,1.031-2.048,1.679-2.985c0.767-1.111,1.729-2.09,2.477-3.215
				c0.633-0.953,0.627-2.02-0.025-3.047c-0.959,0.045-1.53,0.645-2.098,1.268c-0.48,0.531-0.949,1.086-1.492,1.549
				c-0.309,0.263-0.756,0.359-1.147,0.535c-1.145-3.615,2.938-6.896,5.702-6.041c1.238,0.383,1.876,1.06,2.015,2.373
				c0.253,2.381-0.61,4.461-1.789,6.447c-0.214,0.361-0.438,0.717-0.657,1.076C82.362,124.729,82.437,124.795,82.512,124.859z"/>
			<path d="M93.181,177.896c-0.429,1.115-1.159,1.5-2.269,1.523c0.058,0.821,0.104,1.562,0.155,2.303
				c0.039,0.56,0.12,1.113,0.114,1.668c-0.009,0.789-0.577,1.191-1.238,1.123c-0.394-0.043-0.932-0.508-1.056-0.896
				c-0.2-0.623-0.124-1.339-0.142-2.015c-0.018-0.675-0.004-1.349-0.004-2.088c-0.972-0.207-1.926-0.462-2.896-0.604
				c-0.774-0.112-1.146-0.543-1.206-1.251c-0.072-0.83-0.09-1.667-0.095-2.501c-0.007-1.467,0.03-2.932,0.019-4.396
				c-0.005-0.498,0.611-1.309,1.204-1.438c0.687-0.153,1.042,0.331,1.083,0.837c0.124,1.539,0.145,3.088,0.167,4.633
				c0.007,0.396-0.071,0.81-0.208,1.176c-0.331,0.896,0.301,1.041,0.891,1.179c0.494,0.11,0.854-0.039,0.893-0.649
				c0.042-0.677,0.052-1.378,0.245-2.017c0.176-0.576,0.518-1.138,0.907-1.599c0.172-0.198,0.731-0.284,0.974-0.153
				c0.239,0.129,0.433,0.599,0.416,0.903c-0.035,0.63-0.228,1.25-0.354,1.873c-0.259,1.261-0.146,1.392,1.09,1.724
				C92.332,177.354,92.742,177.664,93.181,177.896z"/>
			<path d="M35.318,164.403c2.269,2.218,1.742,4.464,0.427,5.925c-1.379,1.532-2.663,1.453-4.913-0.245
				c-1.234-0.934-1.461-1.919-0.629-3.326c0.647,0.621,1.252,1.229,1.892,1.805c0.389,0.353,0.698,1.014,1.378,0.66
				c0.69-0.355,1.02-1,0.973-1.785c-0.091-1.498-1.321-2.467-2.799-2.217c-0.229,0.039-0.45,0.133-0.673,0.199
				c-0.44-1.197-0.318-1.516,0.749-1.938c0.442-0.179,0.906-0.306,1.352-0.479c1.312-0.517,1.588-1.16,0.937-2.416
				c-0.267-0.512-0.726-0.921-1.096-1.375c-1.076,0.369-1.508,1.592-2.658,1.655c-0.108-1.612,0.623-3.045,1.771-3.555
				c1.121-0.5,2.337-0.14,3.463,0.942C36.82,159.534,37.517,162.026,35.318,164.403z"/>
		</g>
	</g>
</g>
</svg>
