<?xml version="1.0" encoding="iso-8859-1"?>
<!-- Generator: Adobe Illustrator 16.0.0, SVG Export Plug-In . SVG Version: 6.00 Build 0)  -->
<!DOCTYPE svg PUBLIC "-//W3C//DTD SVG 1.1//EN" "http://www.w3.org/Graphics/SVG/1.1/DTD/svg11.dtd">
<svg version="1.1" xmlns="http://www.w3.org/2000/svg" xmlns:xlink="http://www.w3.org/1999/xlink" x="0px" y="0px"
	 width="175.66px" height="232.613px" viewBox="0 0 175.66 232.613" style="enable-background:new 0 0 175.66 232.613;"
	 xml:space="preserve">
<g id="G7">
	<g id="G7_1_">
		<path style="fill:none;" d="M0-6.863c58.547,0,117.094,0,175.66,0c0,79.809,0,159.625,0,239.477c-58.541,0-117.101,0-175.66,0
			C0,152.8,0,72.971,0-6.863z M147.083,152.586c0.449-0.098,0.608-0.172,0.758-0.157c1.303,0.125,2.602,0.331,3.906,0.38
			c0.976,0.037,1.967-0.066,2.935-0.219c0.562-0.089,0.738-0.553,0.522-1.113c-0.339-0.883-1.156-1.425-2.091-1.346
			c-1.274,0.109-2.545,0.262-3.82,0.35c-0.736,0.05-1.479,0.009-2.185,0.009c-1.01-15.08-0.884-29.911,0.475-44.881
			c0.875,0,1.663-0.034,2.448,0.007c1.631,0.086,3.258,0.272,4.889,0.299c1.018,0.017,1.78-0.548,2.258-1.534
			c-1.932-1.071-3.942-1.387-6.06-1.218c-1.456,0.116-2.923,0.309-4.207-0.176c0-2.479-0.004-4.833,0.008-7.186
			c0.001-0.188,0.104-0.377,0.165-0.584c0.215-0.038,0.411-0.062,0.602-0.109c1.582-0.387,3.182-0.718,4.733-1.204
			c0.509-0.159,1.125-0.643,1.289-1.118c0.737-2.144,1.416-4.316,1.956-6.517c0.78-3.181,0.144-5.83-2.729-7.464
			c-0.729-0.414-1.351-0.983-1.515-1.908c0.326-0.27,0.631-0.522,1.111-0.92c-0.741,0.153-1.396,0.484-1.612,0.3
			c-1.181-1-2.607-1.313-4.029-1.646c0-2.925,0.003-5.795-0.002-8.664c0-0.56,0.299-0.792,0.82-0.799
			c2.716-0.038,5.432-0.098,8.148-0.094c0.893,0.001,1.785,0.169,2.7,0.263c0.681-2.75,0.471-5.36-0.296-7.947
			c-3.118,0.105-6.152,0.319-9.185,0.286c-5.834-0.065-11.667-0.392-17.501-0.39c-8.274,0.003-16.548,0.208-24.821,0.321
			c-7.915,0.107-15.83,0.207-23.745,0.304c-1.039,0.013-2.078-0.046-3.116-0.019c-8.11,0.218-16.22,0.525-24.333,0.645
			c-4.192,0.062-8.388-0.267-12.584-0.307c-7.438-0.071-14.877-0.056-22.315-0.076c-0.588-0.001-1.175,0-1.805,0
			c-0.042,0.264-0.095,0.455-0.098,0.646c-0.019,1.399-0.18,2.818-0.006,4.194c0.352,2.783,0.267,2.778,2.996,2.926
			c1.392,0.075,2.795-0.111,4.193-0.103c1.76,0.01,1.983,0.226,2.044,1.966c0.181,5.113,0.454,10.227,0.463,15.341
			c0.01,5.153-0.188,10.311-0.429,15.459c-0.078,1.654-0.599,3.285-0.884,4.932c-0.154,0.892-0.72,1.066-1.479,0.94
			c-0.59-0.098-1.167-0.275-1.759-0.353c-1.024-0.134-2.053-0.282-3.083-0.3c-0.568-0.01-1.091,0.313-1.185,0.98
			c-0.089,0.631,0.214,1.084,0.771,1.353c0.285,0.137,0.591,0.271,0.899,0.307c1.068,0.123,2.141,0.209,3.213,0.296
			c1.1,0.09,2.202,0.164,3.311,0.245c0.023,0.382,0.047,0.618,0.05,0.854c0.087,7.116,0.212,14.231,0.246,21.348
			c0.032,6.754-0.017,13.508-0.066,20.263c-0.014,1.892-0.074,1.903-2.012,1.837c-1.517-0.052-3.034-0.217-4.548-0.189
			c-1.042,0.019-2.15,0.079-2.957,0.951c0.499,0.875,1.201,1.391,2.135,1.463c0.907,0.072,1.824,0.043,2.736,0.029
			c1.352-0.019,2.704-0.103,4.054-0.078c0.585,0.012,1.116,0.312,1.082,1.031c-0.085,1.78-0.202,3.559-0.302,5.272
			c-4.585,1.169-6.926,3.88-7.487,8.592c-0.271,2.273,0.128,4.466,1.162,6.511c1.198,2.368,3.148,3.857,5.642,4.5
			c0.18,6.139,0.355,12.146,0.535,18.293c-2.992,0.166-5.803,0.322-8.612,0.479c0.093,1.602,0.526,2.463,1.53,3.2
			c2.262-1.101,4.582-1.521,7.062-0.755c0.253,5.229,0.502,10.361,0.751,15.487c1.703,0.007,2.657-0.912,2.622-2.441
			c-0.067-2.957-0.21-5.914-0.203-8.87c0.003-1.531,0.261-3.061,0.406-4.611c6.304,0.42,12.395-0.578,18.586-0.023
			c-0.426,5.206,0.433,10.283-0.404,15.354c0.477,0.136,0.931,0.262,1.384,0.395c1.079,0.314,1.287,0.193,1.294-0.93
			c0.022-3.519,0.014-7.037,0.017-10.557c0.001-1.389,0-2.777,0-4.262c7.568-0.381,15.012-0.292,22.554,0.001
			c-0.083,4.759-0.607,9.386,0.27,14.087c1.314-0.949,2.071-2.104,2.434-3.554c0.472-1.886,0.025-3.733-0.169-5.593
			c-0.195-1.873-0.269-3.729,0.763-5.482c5.242,0.791,10.428,0.197,15.617,0.07c1.82-0.045,3.646,0.078,5.598,0.129
			c-0.042,0.8-0.081,1.428-0.106,2.055c-0.125,3.112-0.305,6.224-0.338,9.336c-0.011,1.077,0.205,2.109-0.921,2.771
			c-0.04,0.023-0.021,0.147-0.046,0.382c0.437,0.275,0.898,0.664,1.43,0.886c1.339,0.559,2.396-0.229,2.356-1.653
			c-0.086-3.236-0.198-6.473-0.188-9.709c0.004-1.412,0.283-2.823,0.443-4.282c0.426,0,0.66-0.003,0.896,0.001
			c3.797,0.052,7.594,0.109,11.391,0.156c2.359,0.029,4.719,0.065,7.078,0.05c0.688-0.005,1.091,0.2,1.104,0.908
			c0.034,1.71,0.072,3.419,0.062,5.129c-0.014,2.069-0.15,4.143-0.086,6.209c0.031,0.96,0.395,1.921,1.563,2.52
			c0.289-1.028,0.729-1.931,0.763-2.847c0.075-2.105,0.01-4.221-0.105-6.326c-0.107-1.952-0.258-3.886,0.5-5.603
			c6.251,0,12.352,0,18.584,0c-0.33,5.137,0.925,10.1-0.198,15.079c0.726,0.366,1.387,0.699,2.162,1.09
			c0.183-0.578,0.42-1.019,0.446-1.472c0.087-1.509,0.163-3.024,0.122-4.534c-0.062-2.275-0.27-4.546-0.333-6.82
			c-0.033-1.195,0.237-2.361,0.754-3.332c3.218,0.094,6.318,0.184,9.397,0.273c0.469-2.493-0.325-3.549-2.636-3.637
			c-1.159-0.045-2.321-0.016-3.477-0.093c-1.056-0.069-2.104-0.236-3.129-0.356C147.083,181.381,147.083,167.002,147.083,152.586z
			 M82.767,24.848c-0.504,0.542-0.862,1.086-1.358,1.433c-1.549,1.081-3.271,1.33-5.133,0.991c-1.523-0.277-2.501-1.106-3.112-2.493
			c-1.706-3.866,0.979-9.145,5.118-10.029c1.252-0.268,2.413-0.253,3.534,0.568c0.586,0.43,1.367,0.681,2.096,0.813
			c1.472,0.265,2.626-1.038,2.118-2.447c-0.236-0.657-0.782-1.334-1.373-1.71c-2.763-1.757-7.581-1.529-10.205,0.438
			c-2.534,1.9-4.304,4.373-5.209,7.42c-1.375,4.629,1.026,9.788,5.293,11.383c2.467,0.922,4.866,0.511,7.217-0.472
			c0.543-0.227,1.073-0.483,1.686-0.76c0.066,1.323,0.447,2.38,1.48,3.105c0.963,0.676,1.812,0.426,2.083-0.719
			c0.151-0.642,0.112-1.351,0.048-2.018c-0.19-1.982-0.396-3.964-0.678-5.935c-0.163-1.132-0.442-2.254-0.76-3.355
			c-0.129-0.449-0.479-0.787-1.09-0.737c-2.03,0.166-4.067,0.248-6.095,0.439c-0.933,0.088-1.85,0.354-2.752,0.534
			c-0.045,0.424-0.08,0.7-0.102,0.976c-0.122,1.56,0.304,2.058,1.861,2.061c0.755,0.001,1.511-0.109,2.266-0.174
			C80.697,24.075,81.693,23.991,82.767,24.848z M96.32,24.626c0,0.112,0.037,0.351-0.006,0.574c-0.374,1.957-0.764,3.91-1.146,5.865
			c-0.196,1.008-0.123,1.979,0.381,2.901c0.322,0.59,0.711,0.74,1.368,0.462c1.383-0.586,1.772-1.779,1.935-3.074
			c0.158-1.267,0.096-2.564,0.293-3.822c0.169-1.085,0.383-2.248,0.935-3.159c0.328-0.54,1.36-0.637,2.057-0.973
			c0.532-0.257,1.121-0.488,1.534-0.887c0.896-0.866,0.615-1.932-0.549-2.328c-0.597-0.203-1.205-0.374-1.991-0.615
			c0.275-0.94,0.597-1.868,0.813-2.819c0.3-1.312,0.57-2.634,0.757-3.965c0.114-0.812-0.247-1.389-1.177-1.461
			c-1.429-0.111-2.866-0.426-4.28-0.34c-2.667,0.163-5.321,0.533-7.978,0.85c-0.977,0.117-1.354,0.887-0.931,1.758
			c0.206,0.424,0.404,0.852,0.696,1.47c1.646-0.148,3.387-0.314,5.13-0.457c1.163-0.095,2.328-0.446,3.706-0.062
			c-0.253,1.696-0.483,3.306-0.736,4.913c-0.14,0.887-0.678,1.322-1.584,1.264c-0.995-0.065-1.994-0.109-2.984-0.223
			c-0.699-0.08-1.039,0.294-1.275,0.839c-0.369,0.852-0.008,1.783,1.082,2.201C93.579,24.003,94.877,24.24,96.32,24.626z
			 M71.905,53.446c4.285,0.51,8.346-0.275,11.857-3.147c1.001-0.818,1.689-1.907,1.932-3.222c0.459-2.503-0.679-4.329-2.526-5.813
			c-1.932-1.55-4.193-2.403-6.555-3.07c-1.623-0.458-3.141-0.671-4.637,0.395c-0.435,0.31-0.72,0.554-0.718,1.099
			c0.006,1.197-0.079,2.397-0.013,3.589C71.429,46.576,71.669,49.873,71.905,53.446z M103.968,47.971
			c-0.742,1.848-1.971,2.773-3.521,3.183c-2.162,0.572-4.063-0.482-4.656-2.507c-0.637-2.173-0.352-4.261,0.779-6.234
			c1.168-2.038,4.148-3.251,6.044-0.754c0.51,0.672,1.21,1.157,2.141,1.109c0.261-1.927-0.818-3.77-2.676-4.257
			c-3.237-0.85-5.859,0.423-8.107,2.658c-1.107,1.101-1.57,2.441-1.36,4.039c0.305,2.323,1.348,4.252,3.003,5.847
			c2.813,2.709,5.539,3.103,9.151,1.41c0.026-0.012,0.071,0.016,0.205,0.049c0.04,0.7,0.082,1.435,0.131,2.282
			c0.399,0,0.748,0.015,1.096-0.003c1.545-0.081,1.741-0.27,1.582-1.791c-0.198-1.905-0.478-3.801-0.692-5.704
			c-0.171-1.511-0.218-1.546-1.712-1.888c-2.345-0.537-4.561,0.391-7.12,0.403c0.236,1.035,0.43,1.878,0.592,2.589
			C100.646,48.25,102.188,48.121,103.968,47.971z M25.694,40.732c0.397-0.135,0.688-0.306,0.988-0.325
			c1.391-0.09,2.786-0.21,4.176-0.184c2.042,0.038,2.041,0.087,2.371-1.898c0.02-0.118,0.052-0.235,0.062-0.354
			c0.09-1.018-0.726-1.65-1.736-1.435c-0.734,0.156-1.494,0.232-2.245,0.254c-0.957,0.028-1.935-0.158-2.871-0.023
			c-0.918,0.133-1.819,0.498-2.683,0.868c-0.482,0.207-0.678,0.63-0.602,1.276c0.344,2.892,0.566,5.798,0.887,8.693
			c0.187,1.688,0.476,3.364,0.721,5.056c2.09,0,4.046,0.037,6-0.018c0.826-0.023,1.679-0.14,2.462-0.394
			c0.919-0.297,1.464-1.442,1.098-2.24c-0.358-0.78-1.15-0.705-1.857-0.615c-0.989,0.125-1.97,0.317-2.96,0.438
			c-2.42,0.295-3.636-1.118-3.08-3.604c1.155-0.183,2.326-0.369,3.517-0.559c0-0.89,0-1.71,0-2.703c-1.359,0-2.641,0-4.024,0
			C25.85,42.281,25.779,41.579,25.694,40.732z M150.414,38.158c-3.093,0.119-6.08,0.235-9.068,0.347
			c-0.551,0.021-0.874,0.148-0.825,0.846c0.245,3.506,0.423,7.016,0.657,10.523c0.082,1.221,0.261,2.437,0.399,3.694
			c2.341,0,4.577,0.08,6.804-0.033c1.133-0.057,2.258-0.43,3.366-0.731c0.248-0.067,0.567-0.424,0.575-0.658
			c0.008-0.226-0.298-0.576-0.545-0.675c-0.582-0.234-1.207-0.469-1.822-0.491c-1.234-0.044-2.474,0.065-3.711,0.09
			c-0.946,0.019-1.893,0.003-2.716,0.003c-0.254-0.837-0.456-1.503-0.685-2.259c0.767-0.716,1.771-0.635,2.758-0.633
			c0.82,0.001,1.686,0.159,2.32-0.528c-0.127-0.903-0.245-1.753-0.375-2.681c-1.524,0.069-2.978,0.135-4.48,0.203
			c-0.079-1.262-0.149-2.4-0.227-3.659c2.696-0.479,5.499,0.561,8.179-0.58C150.818,40.016,150.634,39.166,150.414,38.158z
			 M52.592,37.833c-0.696-0.271-1.025-0.05-1.289,0.457c-0.498,0.955-1.075,1.869-1.564,2.828
			c-1.878,3.686-3.735,7.382-5.601,11.075c0.6,0.572,1.094,1.042,1.794,1.709c0.271-2.523,1.716-3.66,3.768-4.027
			c1.597-0.286,3.232-0.355,4.852-0.521c0.268,0.681,0.425,1.266,0.716,1.775c0.471,0.824,0.968,1.649,1.572,2.376
			c0.453,0.544,1.137,0.605,1.719,0.118c0.532-0.445,0.937-0.908,0.514-1.737c-1.665-3.264-3.232-6.578-4.91-9.835
			C53.454,40.673,52.039,39.603,52.592,37.833z M126.045,37.975c-0.639,2.175-0.186,4.308-0.354,6.558c-1.91,0-3.76,0-5.765,0
			c0-1.915,0-3.889,0-5.884c-1.023-0.324-1.837-1.124-2.968-0.746c-0.016,0.172-0.043,0.29-0.035,0.406
			c0.195,2.74,0.428,5.479,0.583,8.221c0.113,2.026,0.048,4.067,0.679,6.021c1.766,0.416,1.989,0.253,2.044-1.474
			c0.009-0.28,0.014-0.561-0.002-0.84c-0.05-0.898-0.109-1.796-0.174-2.835c2.021-0.203,3.942-0.396,6.062-0.609
			c0,1.24,0.014,2.306-0.005,3.371c-0.014,0.838-0.093,1.676-0.087,2.514c0.001,0.288,0.123,0.791,0.274,0.825
			c0.67,0.15,1.604,0.464,1.999,0.153c0.465-0.367,0.823-1.454,0.613-1.985c-0.591-1.494-0.485-2.97-0.42-4.482
			c0.061-1.396,0.189-2.799,0.115-4.189C128.502,41.056,128.119,39.18,126.045,37.975z M16.688,163.587
			c0.086-0.108,0.226-0.215,0.269-0.352c0.268-0.856,0.938-1.884,0.682-2.548c-0.609-1.572-1.764-2.865-3.632-3.109
			c-0.362-0.048-0.864-0.006-1.107,0.213c-0.707,0.632-1.397,1.316-1.94,2.089c-0.612,0.87-0.451,1.256,0.587,2.005
			c0.615-0.578,1.255-1.166,1.88-1.77c0.638-0.617,1.11-0.619,1.648,0.088c0.662,0.867,0.715,1.801,0.249,2.724
			c-0.684,0.062-1.344-0.028-1.847,0.21c-0.517,0.246-1.129,0.756-1.249,1.258c-0.167,0.703,0.659,0.723,1.167,0.891
			c0.038,0.012,0.074,0.031,0.112,0.043c0.596,0.184,1.116,0.423,1.152,1.178c0.047,0.979,0.043,2.035-0.723,2.65
			c-0.275,0.223-1.188-0.306-1.789-0.545c-0.289-0.115-0.511-0.387-0.793-0.527c-0.41-0.206-0.847-0.359-1.272-0.535
			c-0.093,0.062-0.187,0.123-0.279,0.186c0.163,0.576,0.235,1.201,0.506,1.721c0.823,1.579,3.561,2.575,5.253,1.965
			c0.173-0.062,0.33-0.205,0.461-0.342C17.994,169.036,18.277,165.955,16.688,163.587z"/>
		<path style="fill-rule:evenodd;clip-rule:evenodd;" d="M147.083,152.586c0,14.416,0,28.795,0,43.375
			c1.024,0.12,2.073,0.287,3.129,0.356c1.155,0.077,2.317,0.048,3.477,0.093c2.311,0.088,3.104,1.144,2.636,3.637
			c-3.079-0.09-6.18-0.18-9.397-0.273c-0.517,0.971-0.787,2.137-0.754,3.332c0.063,2.274,0.271,4.545,0.333,6.82
			c0.041,1.51-0.035,3.025-0.122,4.534c-0.026,0.453-0.264,0.894-0.446,1.472c-0.775-0.391-1.437-0.724-2.162-1.09
			c1.123-4.979-0.132-9.942,0.198-15.079c-6.232,0-12.333,0-18.584,0c-0.758,1.717-0.607,3.65-0.5,5.603
			c0.115,2.105,0.181,4.221,0.105,6.326c-0.033,0.916-0.474,1.818-0.763,2.847c-1.169-0.599-1.532-1.56-1.563-2.52
			c-0.064-2.066,0.072-4.14,0.086-6.209c0.011-1.71-0.027-3.419-0.062-5.129c-0.014-0.708-0.417-0.913-1.104-0.908
			c-2.359,0.016-4.719-0.021-7.078-0.05c-3.797-0.047-7.594-0.104-11.391-0.156c-0.235-0.004-0.47-0.001-0.896-0.001
			c-0.16,1.459-0.439,2.87-0.443,4.282c-0.011,3.236,0.102,6.473,0.188,9.709c0.039,1.425-1.018,2.212-2.356,1.653
			c-0.531-0.222-0.993-0.61-1.43-0.886c0.025-0.234,0.006-0.358,0.046-0.382c1.126-0.661,0.91-1.693,0.921-2.771
			c0.033-3.112,0.213-6.224,0.338-9.336c0.025-0.627,0.064-1.255,0.106-2.055c-1.952-0.051-3.777-0.174-5.598-0.129
			c-5.189,0.127-10.375,0.721-15.617-0.07c-1.031,1.754-0.958,3.609-0.763,5.482c0.194,1.859,0.641,3.707,0.169,5.593
			c-0.362,1.45-1.119,2.604-2.434,3.554c-0.877-4.701-0.353-9.328-0.27-14.087c-7.542-0.293-14.986-0.382-22.554-0.001
			c0,1.484,0.001,2.873,0,4.262c-0.003,3.52,0.005,7.038-0.017,10.557c-0.007,1.123-0.216,1.244-1.294,0.93
			c-0.453-0.133-0.907-0.259-1.384-0.395c0.837-5.07-0.022-10.147,0.404-15.354c-6.191-0.555-12.282,0.443-18.586,0.023
			c-0.145,1.551-0.403,3.08-0.406,4.611c-0.007,2.956,0.135,5.913,0.203,8.87c0.035,1.529-0.919,2.448-2.622,2.441
			c-0.249-5.126-0.498-10.259-0.751-15.487c-2.481-0.766-4.801-0.346-7.062,0.755c-1.004-0.737-1.438-1.599-1.53-3.2
			c2.809-0.156,5.62-0.312,8.612-0.479c-0.18-6.147-0.355-12.154-0.535-18.293c-2.494-0.643-4.443-2.132-5.642-4.5
			c-1.034-2.045-1.433-4.237-1.162-6.511c0.562-4.712,2.902-7.423,7.487-8.592c0.1-1.714,0.217-3.492,0.302-5.272
			c0.034-0.719-0.497-1.02-1.082-1.031c-1.35-0.024-2.702,0.06-4.054,0.078c-0.912,0.014-1.829,0.043-2.736-0.029
			c-0.934-0.072-1.636-0.588-2.135-1.463c0.806-0.872,1.915-0.933,2.957-0.951c1.515-0.027,3.031,0.138,4.548,0.189
			c1.938,0.066,1.998,0.055,2.012-1.837c0.05-6.755,0.098-13.509,0.066-20.263c-0.033-7.116-0.159-14.231-0.246-21.348
			c-0.003-0.236-0.027-0.472-0.05-0.854c-1.109-0.082-2.21-0.155-3.311-0.245c-1.072-0.087-2.145-0.173-3.213-0.296
			c-0.308-0.036-0.614-0.17-0.899-0.307c-0.557-0.269-0.859-0.722-0.771-1.353c0.094-0.667,0.617-0.99,1.185-0.98
			c1.029,0.018,2.059,0.166,3.083,0.3c0.592,0.078,1.169,0.255,1.759,0.353c0.759,0.126,1.325-0.048,1.479-0.94
			c0.285-1.647,0.806-3.278,0.884-4.932c0.241-5.149,0.439-10.306,0.429-15.459c-0.01-5.114-0.282-10.228-0.463-15.341
			c-0.062-1.74-0.285-1.956-2.044-1.966c-1.398-0.008-2.802,0.178-4.193,0.103c-2.729-0.148-2.645-0.144-2.996-2.926
			c-0.174-1.376-0.012-2.795,0.006-4.194c0.002-0.191,0.056-0.382,0.098-0.646c0.629,0,1.217-0.001,1.805,0
			c7.438,0.021,14.877,0.005,22.315,0.076c4.196,0.04,8.392,0.369,12.584,0.307c8.112-0.119,16.222-0.427,24.333-0.645
			c1.038-0.028,2.077,0.031,3.116,0.019c7.915-0.097,15.83-0.197,23.745-0.304c8.273-0.112,16.547-0.318,24.821-0.321
			c5.834-0.002,11.667,0.325,17.501,0.39c3.032,0.034,6.066-0.181,9.185-0.286c0.767,2.587,0.977,5.197,0.296,7.947
			c-0.915-0.094-1.808-0.262-2.7-0.263c-2.717-0.003-5.433,0.057-8.148,0.094c-0.521,0.007-0.82,0.239-0.82,0.799
			c0.005,2.869,0.002,5.739,0.002,8.664c1.422,0.332,2.849,0.646,4.029,1.646c0.217,0.184,0.871-0.147,1.612-0.3
			c-0.48,0.397-0.785,0.65-1.111,0.92c0.164,0.924,0.786,1.494,1.515,1.908c2.872,1.634,3.509,4.283,2.729,7.464
			c-0.54,2.201-1.219,4.374-1.956,6.517c-0.164,0.475-0.78,0.959-1.289,1.118c-1.552,0.486-3.151,0.816-4.733,1.204
			c-0.19,0.047-0.387,0.071-0.602,0.109c-0.061,0.208-0.164,0.396-0.165,0.584c-0.012,2.354-0.008,4.707-0.008,7.186
			c1.284,0.484,2.751,0.292,4.207,0.176c2.117-0.169,4.128,0.146,6.06,1.218c-0.478,0.986-1.24,1.551-2.258,1.534
			c-1.631-0.027-3.258-0.213-4.889-0.299c-0.785-0.042-1.573-0.007-2.448-0.007c-1.358,14.97-1.484,29.801-0.475,44.881
			c0.705,0,1.448,0.041,2.185-0.009c1.275-0.088,2.546-0.24,3.82-0.35c0.935-0.079,1.752,0.463,2.091,1.346
			c0.216,0.561,0.039,1.024-0.522,1.113c-0.968,0.152-1.959,0.256-2.935,0.219c-1.305-0.049-2.604-0.255-3.906-0.38
			C147.691,152.414,147.532,152.488,147.083,152.586z M77.013,107.033c-0.091,14.754-0.001,29.404,1.043,44.094
			c7.277,0,14.455,0,21.769,0c0-0.512,0.005-0.941-0.001-1.37c-0.056-4.277-0.117-8.556-0.172-12.833
			c-0.104-8.196-0.202-16.393-0.314-24.59c-0.021-1.514-0.006-3.037-0.174-4.538c-0.133-1.192-0.37-1.304-1.584-1.294
			c-2.438,0.018-4.876,0.045-7.313,0.105c-3.956,0.096-7.912,0.221-11.869,0.337C77.966,106.957,77.535,106.999,77.013,107.033z
			 M52.949,154.141c0,14.497,0,28.821,0,43.077c7.233-0.19,14.51-0.384,21.807-0.575c1.362-6.912,1.495-38.209,0.212-42.497
			c-3.669,0.097-7.291,0.267-10.914,0.267C60.429,154.412,56.803,154.242,52.949,154.141z M99.785,196.952
			c-0.094-14.316,0.464-28.634,0.091-43.1c-7.44,0.2-14.719,0.396-21.903,0.589c0,14.18,0,28.262,0,42.511
			C85.257,196.952,92.348,196.952,99.785,196.952z M122.861,153.397c-6.86,0.681-13.703-0.061-20.408,0.71
			c-0.172,14.312-0.342,28.512-0.514,42.834c7.018,0.414,13.828,0.189,20.618-0.064C123.38,193.965,123.654,156.385,122.861,153.397
			z M101.609,106.52c0.299,14.886,0.597,29.72,0.894,44.512c1.92,0.534,16.463,0.286,20.268-0.337
			c-0.385-14.949-0.771-29.929-1.157-44.959C114.888,106.111,108.281,105.522,101.609,106.52z M144.185,150.348
			c0.025-0.347,0.066-0.616,0.062-0.885c-0.098-7.596-0.214-15.189-0.298-22.785c-0.067-6.154-0.104-12.31-0.134-18.464
			c-0.004-0.783,0.11-1.565,0.183-2.514c-6.714,0.099-13.282-0.291-19.919,0.269c-0.54,15.081,0.291,29.978,1.346,44.964
			C131.799,151.297,137.95,150.514,144.185,150.348z M74.207,104.277c0-0.523-0.009-0.915,0.002-1.306
			c0.081-2.954,0.113-5.911,0.262-8.861c0.404-8.062,0.672-16.125,0.146-24.19c-0.095-1.457-0.384-2.901-0.578-4.318
			c-7.164,0.208-14.174,0.41-21.264,0.615c-0.042,0.463-0.117,0.973-0.13,1.484c-0.166,6.587-0.368,13.174-0.466,19.763
			c-0.076,5.114-0.021,10.23-0.021,15.345c0,1.367,0.008,1.363,1.399,1.448c1.076,0.066,2.152,0.214,3.227,0.205
			c3.954-0.034,7.907-0.127,11.861-0.18C70.438,104.258,72.231,104.277,74.207,104.277z M75.104,151.119
			c0.073-14.719-0.842-29.306-1.157-43.996c-7.285,0.089-14.458,0.177-21.833,0.267c0.092,6.636,0.183,13.208,0.273,19.736
			c5.462,1.112,7.913,3.582,8.471,8.507c0.221,1.951-0.229,3.822-1.167,5.545c-1.48,2.72-3.908,4.089-6.868,4.541
			c0,1.885,0,3.63,0,5.436C60.223,152.133,67.554,150.976,75.104,151.119z M76.659,65.748c0.944,12.935,0.104,25.75,0.376,38.459
			c0.177,0.115,0.211,0.156,0.244,0.156c6.918,0.014,13.835,0.02,20.753,0.044c0.642,0.002,0.833-0.307,0.854-0.876
			c0.079-2.034,0.238-4.067,0.244-6.101c0.008-2.395-0.312-4.807-0.12-7.182c0.189-2.326,0.105-4.622,0.026-6.934
			c-0.136-3.994-0.29-7.988-0.346-11.983c-0.025-1.905,0.158-3.813,0.252-5.815C91.505,65.628,84.172,65.162,76.659,65.748z
			 M124.957,196.913c6.373-0.676,12.709,0.297,18.74-0.78c0.114-2.29,0.163-4.437,0.347-6.572c0.13-1.506,0.509-2.99,0.661-4.496
			c0.521-5.148,0.172-10.297-0.032-15.448c-0.203-5.107-0.296-10.22-0.435-15.331c-0.011-0.387-0.002-0.775-0.002-1.393
			c-6.312,0.25-12.502,0.494-18.568,0.732C125.431,168.081,125.194,182.41,124.957,196.913z M101.783,103.788
			c6.652,0.385,13.213,0.211,19.859-0.221c-0.038-12.759,1.013-25.364,0.224-37.965c-1.123,0-2.192,0.008-3.261-0.001
			c-5.157-0.046-10.314-0.104-15.473-0.141c-1.744-0.013-1.895,0.161-1.896,1.938c-0.003,4.439-0.04,8.879,0.005,13.318
			c0.067,6.556,0.185,13.111,0.303,19.667C101.565,101.49,101.697,102.598,101.783,103.788z M30.923,66.04
			c-0.67,12.652,0.256,25.349-0.468,38.092c6.568,0.761,12.974,0.162,19.473-0.02c0-0.541,0.002-0.933,0-1.326
			c-0.032-4.355-0.111-8.711-0.085-13.066c0.042-6.997,0.158-13.993,0.226-20.99c0.008-0.862-0.089-1.726-0.143-2.69
			C43.596,66.04,37.375,66.04,30.923,66.04z M31.333,159.301c0.234,0.035,0.466,0.087,0.701,0.102
			c4.91,0.317,8.032,3.943,8.114,8.685c0.083,4.813-2.761,9.004-7.144,10.378c-0.486,0.152-0.984,0.265-1.44,0.385
			c0,6.305,0,12.523,0,18.732c1.524,0.381,16.674,0.108,18.728-0.347c0.466-14.229-0.022-28.479-0.083-42.954
			c-6.241-0.111-12.485-0.224-18.875-0.338C31.333,155.748,31.333,157.455,31.333,159.301z M30.39,107.289
			c-0.025,0.531-0.068,0.96-0.063,1.389c0.027,2.237,0.048,4.474,0.104,6.71c0.121,4.792,0.277,9.584,0.391,14.377
			c0.147,6.189,0.27,12.379,0.395,18.568c0.021,1.021,0.003,2.042,0.003,3.102c6.256,0,12.348,0,18.581,0c0-1.774,0-3.594,0-5.446
			c-3.536-0.134-6.072-1.776-7.396-5.101c-1.109-2.786-1.068-5.614-0.048-8.42c0.69-1.897,1.817-3.52,3.634-4.442
			c1.176-0.597,2.518-0.868,3.971-1.347c-0.02-6.355,0.081-12.926-0.543-19.614C43.057,107.81,36.761,106.585,30.39,107.289z
			 M124.008,103.542c6.684-0.049,13.137-0.095,19.68-0.143c0.049-2.784,0.768-5.376-0.029-7.942
			c-3.625-0.444-6.032-2.341-7.279-5.597c-1.258-3.286-1.101-6.586,0.436-9.761c1.305-2.695,3.467-4.325,6.435-4.849
			c0.302-0.053,0.604-0.097,0.954-0.153c-0.418-3.218,0.589-6.441-0.622-9.708c-6.183,0-12.391,0-18.735,0
			C124.564,78.152,124.285,90.886,124.008,103.542z"/>
		<path style="fill-rule:evenodd;clip-rule:evenodd;" d="M82.767,20.848c-1.073-0.857-2.069-0.773-3.066-0.687
			c-0.755,0.065-1.511,0.176-2.266,0.174c-1.558-0.003-1.983-0.501-1.861-2.061c0.021-0.276,0.057-0.552,0.102-0.976
			c0.902-0.18,1.819-0.446,2.752-0.534c2.027-0.191,4.064-0.273,6.095-0.439c0.61-0.05,0.961,0.289,1.09,0.737
			c0.317,1.101,0.597,2.223,0.76,3.355c0.282,1.97,0.487,3.953,0.678,5.935c0.064,0.667,0.104,1.376-0.048,2.018
			c-0.271,1.145-1.12,1.395-2.083,0.719c-1.033-0.725-1.414-1.782-1.48-3.105c-0.612,0.277-1.143,0.533-1.686,0.76
			c-2.351,0.983-4.75,1.394-7.217,0.472c-4.267-1.595-6.668-6.754-5.293-11.383c0.905-3.048,2.675-5.52,5.209-7.42
			c2.624-1.967,7.442-2.195,10.205-0.438c0.591,0.376,1.137,1.053,1.373,1.71c0.508,1.409-0.646,2.712-2.118,2.447
			c-0.729-0.132-1.51-0.383-2.096-0.813c-1.121-0.822-2.282-0.836-3.534-0.568c-4.14,0.885-6.824,6.163-5.118,10.029
			c0.611,1.387,1.589,2.216,3.112,2.493c1.861,0.338,3.584,0.089,5.133-0.991C81.904,21.935,82.263,21.39,82.767,20.848z"/>
		<path style="fill-rule:evenodd;clip-rule:evenodd;" d="M96.32,20.626c-1.443-0.386-2.741-0.623-3.95-1.087
			c-1.09-0.418-1.451-1.35-1.082-2.201c0.236-0.545,0.576-0.919,1.275-0.839c0.99,0.114,1.989,0.158,2.984,0.223
			c0.906,0.059,1.444-0.376,1.584-1.264c0.253-1.606,0.483-3.216,0.736-4.913c-1.378-0.385-2.543-0.034-3.706,0.062
			c-1.743,0.143-3.483,0.309-5.13,0.457c-0.292-0.618-0.49-1.046-0.696-1.47c-0.423-0.872-0.046-1.642,0.931-1.758
			c2.656-0.317,5.311-0.688,7.978-0.85c1.414-0.086,2.852,0.229,4.28,0.34c0.93,0.072,1.291,0.649,1.177,1.461
			c-0.187,1.331-0.457,2.654-0.757,3.965c-0.217,0.951-0.538,1.879-0.813,2.819c0.786,0.241,1.395,0.412,1.991,0.615
			c1.164,0.396,1.445,1.461,0.549,2.328c-0.413,0.399-1.002,0.63-1.534,0.887c-0.696,0.336-1.729,0.433-2.057,0.973
			c-0.552,0.911-0.766,2.073-0.935,3.159c-0.197,1.258-0.135,2.555-0.293,3.822c-0.162,1.295-0.552,2.488-1.935,3.074
			c-0.657,0.278-1.046,0.128-1.368-0.462c-0.504-0.922-0.577-1.893-0.381-2.901c0.382-1.955,0.771-3.909,1.146-5.865
			C96.357,20.977,96.32,20.738,96.32,20.626z"/>
		<path style="fill-rule:evenodd;clip-rule:evenodd;" d="M71.905,53.446c-0.236-3.573-0.477-6.87-0.659-10.169
			c-0.066-1.192,0.019-2.393,0.013-3.589c-0.002-0.545,0.283-0.789,0.718-1.099c1.496-1.066,3.014-0.853,4.637-0.395
			c2.361,0.667,4.623,1.521,6.555,3.07c1.848,1.484,2.985,3.31,2.526,5.813c-0.242,1.315-0.931,2.404-1.932,3.222
			C80.251,53.17,76.19,53.956,71.905,53.446z M74.152,50.664c0.314,0.082,0.537,0.166,0.767,0.193
			c0.236,0.028,0.479,0.012,0.718-0.005c2.536-0.178,4.461-1.593,6.313-3.144c0.169-0.141,0.267-0.393,0.345-0.613
			c0.524-1.468,0.188-2.857-1.031-3.89c-2.229-1.887-4.902-2.271-7.825-2.296C73.683,44.243,73.917,47.447,74.152,50.664z"/>
		<path style="fill-rule:evenodd;clip-rule:evenodd;" d="M103.968,47.971c-1.78,0.149-3.321,0.279-5.121,0.431
			c-0.162-0.711-0.355-1.555-0.592-2.589c2.56-0.012,4.775-0.939,7.12-0.403c1.494,0.342,1.541,0.377,1.712,1.888
			c0.215,1.903,0.494,3.799,0.692,5.704c0.159,1.521-0.037,1.71-1.582,1.791c-0.348,0.018-0.696,0.003-1.096,0.003
			c-0.049-0.847-0.091-1.583-0.131-2.282c-0.134-0.034-0.179-0.062-0.205-0.049c-3.612,1.693-6.338,1.3-9.151-1.41
			c-1.655-1.594-2.698-3.524-3.003-5.847c-0.21-1.598,0.253-2.938,1.36-4.039c2.248-2.235,4.87-3.508,8.107-2.658
			c1.857,0.488,2.937,2.331,2.676,4.257c-0.931,0.048-1.631-0.437-2.141-1.109c-1.896-2.497-4.876-1.284-6.044,0.754
			c-1.131,1.973-1.416,4.061-0.779,6.234c0.593,2.025,2.494,3.079,4.656,2.507C101.997,50.744,103.226,49.819,103.968,47.971z"/>
		<path style="fill-rule:evenodd;clip-rule:evenodd;" d="M25.694,40.732c0.085,0.847,0.156,1.549,0.225,2.235
			c1.384,0,2.666,0,4.024,0c0,0.993,0,1.813,0,2.703c-1.191,0.189-2.362,0.375-3.517,0.559c-0.557,2.487,0.659,3.9,3.08,3.604
			c0.99-0.121,1.971-0.313,2.96-0.438c0.707-0.089,1.499-0.165,1.857,0.615c0.367,0.798-0.179,1.943-1.098,2.24
			c-0.783,0.254-1.636,0.37-2.462,0.394c-1.954,0.054-3.909,0.018-6,0.018c-0.245-1.692-0.534-3.368-0.721-5.056
			c-0.321-2.895-0.543-5.801-0.887-8.693c-0.077-0.646,0.12-1.07,0.602-1.276c0.863-0.37,1.764-0.735,2.683-0.868
			c0.936-0.135,1.914,0.051,2.871,0.023c0.751-0.022,1.511-0.098,2.245-0.254c1.01-0.215,1.826,0.417,1.736,1.435
			c-0.01,0.119-0.042,0.235-0.062,0.354c-0.33,1.985-0.329,1.936-2.371,1.898c-1.391-0.026-2.786,0.094-4.176,0.184
			C26.382,40.427,26.091,40.597,25.694,40.732z"/>
		<path style="fill-rule:evenodd;clip-rule:evenodd;" d="M150.414,38.158c0.22,1.007,0.404,1.857,0.604,2.779
			c-2.68,1.141-5.482,0.102-8.179,0.58c0.077,1.259,0.147,2.397,0.227,3.659c1.503-0.068,2.956-0.134,4.48-0.203
			c0.13,0.928,0.248,1.778,0.375,2.681c-0.635,0.687-1.5,0.53-2.32,0.528c-0.987-0.002-1.991-0.083-2.758,0.633
			c0.229,0.755,0.431,1.421,0.685,2.259c0.823,0,1.77,0.015,2.716-0.003c1.237-0.024,2.477-0.134,3.711-0.09
			c0.615,0.022,1.24,0.257,1.822,0.491c0.247,0.099,0.553,0.449,0.545,0.675c-0.008,0.234-0.327,0.591-0.575,0.658
			c-1.108,0.301-2.233,0.674-3.366,0.731c-2.227,0.113-4.463,0.033-6.804,0.033c-0.139-1.258-0.317-2.473-0.399-3.694
			c-0.234-3.507-0.412-7.017-0.657-10.523c-0.049-0.698,0.274-0.825,0.825-0.846C144.334,38.394,147.321,38.277,150.414,38.158z"/>
		<path style="fill-rule:evenodd;clip-rule:evenodd;" d="M52.592,37.833c-0.553,1.77,0.862,2.84,1.572,4.217
			c1.678,3.257,3.245,6.571,4.91,9.835c0.423,0.829,0.018,1.292-0.514,1.737c-0.582,0.487-1.266,0.426-1.719-0.118
			c-0.604-0.727-1.101-1.552-1.572-2.376c-0.291-0.509-0.448-1.094-0.716-1.775c-1.62,0.166-3.255,0.236-4.852,0.521
			c-2.052,0.367-3.497,1.504-3.768,4.027c-0.7-0.667-1.194-1.138-1.794-1.709c1.865-3.693,3.722-7.39,5.601-11.075
			c0.489-0.959,1.066-1.873,1.564-2.828C51.567,37.783,51.896,37.561,52.592,37.833z M51.595,43.351
			c-0.853,1.418-1.942,2.517-1.878,4.28c1.225-0.123,2.354-0.236,3.539-0.354C53.357,45.729,52.549,44.616,51.595,43.351z"/>
		<path style="fill-rule:evenodd;clip-rule:evenodd;" d="M126.045,37.975c2.074,1.205,2.457,3.082,2.561,5.025
			c0.074,1.391-0.055,2.793-0.115,4.189c-0.065,1.512-0.171,2.989,0.42,4.482c0.21,0.531-0.148,1.618-0.613,1.985
			c-0.395,0.311-1.329-0.003-1.999-0.153c-0.151-0.034-0.273-0.537-0.274-0.825c-0.006-0.838,0.073-1.676,0.087-2.514
			c0.019-1.065,0.005-2.13,0.005-3.371c-2.119,0.213-4.041,0.406-6.062,0.609c0.064,1.039,0.124,1.937,0.174,2.835
			c0.016,0.279,0.011,0.56,0.002,0.84c-0.055,1.728-0.278,1.89-2.044,1.474c-0.631-1.955-0.565-3.996-0.679-6.021
			c-0.155-2.743-0.388-5.481-0.583-8.221c-0.008-0.116,0.02-0.234,0.035-0.406c1.131-0.378,1.944,0.421,2.968,0.746
			c0,1.996,0,3.97,0,5.884c2.005,0,3.854,0,5.765,0C125.859,42.282,125.406,40.149,126.045,37.975z"/>
		<path style="fill-rule:evenodd;clip-rule:evenodd;" d="M16.688,163.587c1.589,2.368,1.306,5.449-0.664,7.491
			c-0.132,0.137-0.288,0.28-0.461,0.342c-1.693,0.61-4.43-0.386-5.253-1.965c-0.271-0.52-0.343-1.145-0.506-1.721
			c0.093-0.062,0.186-0.123,0.279-0.186c0.425,0.176,0.862,0.329,1.272,0.535c0.282,0.141,0.505,0.412,0.793,0.527
			c0.601,0.239,1.513,0.768,1.789,0.545c0.766-0.615,0.77-1.672,0.723-2.65c-0.036-0.755-0.556-0.994-1.152-1.178
			c-0.038-0.012-0.074-0.031-0.112-0.043c-0.508-0.168-1.335-0.188-1.167-0.891c0.12-0.502,0.732-1.012,1.249-1.258
			c0.502-0.238,1.163-0.147,1.847-0.21c0.466-0.923,0.413-1.856-0.249-2.724c-0.539-0.707-1.011-0.705-1.648-0.088
			c-0.625,0.604-1.265,1.191-1.88,1.77c-1.039-0.749-1.199-1.135-0.587-2.005c0.543-0.772,1.233-1.457,1.94-2.089
			c0.243-0.219,0.746-0.261,1.107-0.213c1.868,0.244,3.023,1.537,3.632,3.109c0.257,0.664-0.414,1.691-0.682,2.548
			C16.914,163.372,16.774,163.479,16.688,163.587z"/>
		<path style="fill-rule:evenodd;clip-rule:evenodd;fill:none;" d="M77.013,107.033c0.522-0.034,0.953-0.076,1.384-0.089
			c3.957-0.117,7.913-0.241,11.869-0.337c2.438-0.06,4.876-0.087,7.313-0.105c1.214-0.009,1.451,0.103,1.584,1.294
			c0.168,1.5,0.153,3.024,0.174,4.538c0.112,8.197,0.21,16.394,0.314,24.59c0.055,4.277,0.116,8.556,0.172,12.833
			c0.006,0.429,0.001,0.858,0.001,1.37c-7.313,0-14.491,0-21.769,0C77.012,136.438,76.922,121.787,77.013,107.033z"/>
		<path style="fill-rule:evenodd;clip-rule:evenodd;fill:none;" d="M52.949,154.141c3.854,0.102,7.479,0.271,11.104,0.271
			c3.623,0,7.245-0.17,10.914-0.267c1.283,4.288,1.15,35.585-0.212,42.497c-7.297,0.191-14.574,0.385-21.807,0.575
			C52.949,182.962,52.949,168.638,52.949,154.141z"/>
		<path style="fill-rule:evenodd;clip-rule:evenodd;fill:none;" d="M99.785,196.952c-7.438,0-14.528,0-21.812,0
			c0-14.249,0-28.331,0-42.511c7.185-0.193,14.463-0.389,21.903-0.589C100.249,168.318,99.691,182.636,99.785,196.952z"/>
		<path style="fill-rule:evenodd;clip-rule:evenodd;fill:none;" d="M122.861,153.397c0.793,2.987,0.519,40.567-0.304,43.479
			c-6.79,0.254-13.601,0.479-20.618,0.064c0.172-14.322,0.342-28.521,0.514-42.834C109.158,153.337,116.001,154.078,122.861,153.397
			z"/>
		<path style="fill-rule:evenodd;clip-rule:evenodd;fill:none;" d="M101.609,106.52c6.672-0.998,13.278-0.409,20.004-0.784
			c0.387,15.03,0.772,30.01,1.157,44.959c-3.805,0.623-18.348,0.871-20.268,0.337C102.206,136.24,101.908,121.406,101.609,106.52z"
			/>
		<path style="fill-rule:evenodd;clip-rule:evenodd;fill:none;" d="M144.185,150.348c-6.234,0.166-12.386,0.949-18.76,0.584
			c-1.055-14.986-1.886-29.883-1.346-44.964c6.637-0.559,13.205-0.169,19.919-0.269c-0.072,0.949-0.187,1.731-0.183,2.514
			c0.03,6.155,0.066,12.31,0.134,18.464c0.084,7.596,0.2,15.189,0.298,22.785C144.251,149.731,144.21,150.001,144.185,150.348z"/>
		<path style="fill-rule:evenodd;clip-rule:evenodd;fill:none;" d="M74.207,104.277c-1.976,0-3.769-0.02-5.562,0.004
			c-3.954,0.053-7.907,0.146-11.861,0.18c-1.075,0.009-2.151-0.138-3.227-0.205c-1.391-0.085-1.399-0.081-1.399-1.448
			c-0.001-5.115-0.056-10.231,0.021-15.345c0.099-6.588,0.301-13.175,0.466-19.763c0.013-0.511,0.088-1.021,0.13-1.484
			c7.09-0.205,14.1-0.408,21.264-0.615c0.194,1.417,0.483,2.862,0.578,4.318c0.525,8.065,0.258,16.128-0.146,24.19
			c-0.148,2.951-0.181,5.907-0.262,8.861C74.198,103.363,74.207,103.754,74.207,104.277z"/>
		<path style="fill-rule:evenodd;clip-rule:evenodd;fill:none;" d="M75.104,151.119c-7.55-0.144-14.88,1.014-22.282,0.035
			c0-1.806,0-3.551,0-5.436c2.96-0.452,5.388-1.821,6.868-4.541c0.938-1.723,1.388-3.594,1.167-5.545
			c-0.559-4.925-3.009-7.395-8.471-8.507c-0.09-6.528-0.181-13.1-0.273-19.736c7.375-0.09,14.548-0.178,21.833-0.267
			C74.262,121.813,75.177,136.4,75.104,151.119z"/>
		<path style="fill-rule:evenodd;clip-rule:evenodd;fill:none;" d="M76.659,65.748c7.513-0.586,14.846-0.12,22.284-0.231
			c-0.094,2.002-0.277,3.911-0.252,5.815c0.056,3.995,0.21,7.989,0.346,11.983c0.079,2.312,0.163,4.607-0.026,6.934
			c-0.192,2.375,0.128,4.787,0.12,7.182c-0.006,2.034-0.165,4.067-0.244,6.101c-0.021,0.569-0.213,0.878-0.854,0.876
			c-6.918-0.024-13.835-0.03-20.753-0.044c-0.033,0-0.067-0.041-0.244-0.156C76.764,91.498,77.604,78.683,76.659,65.748z"/>
		<path style="fill-rule:evenodd;clip-rule:evenodd;fill:none;" d="M124.957,196.913c0.237-14.503,0.474-28.832,0.711-43.288
			c6.066-0.238,12.256-0.482,18.568-0.732c0,0.617-0.009,1.006,0.002,1.393c0.139,5.111,0.231,10.224,0.435,15.331
			c0.204,5.151,0.553,10.3,0.032,15.448c-0.152,1.506-0.531,2.99-0.661,4.496c-0.184,2.136-0.232,4.282-0.347,6.572
			C137.666,197.21,131.33,196.237,124.957,196.913z"/>
		<path style="fill-rule:evenodd;clip-rule:evenodd;fill:none;" d="M101.783,103.788c-0.086-1.19-0.218-2.297-0.238-3.406
			c-0.118-6.555-0.235-13.111-0.303-19.667c-0.045-4.439-0.008-8.879-0.005-13.318c0.001-1.777,0.151-1.95,1.896-1.938
			c5.158,0.037,10.315,0.095,15.473,0.141c1.068,0.009,2.138,0.001,3.261,0.001c0.789,12.601-0.262,25.206-0.224,37.965
			C114.996,103.999,108.436,104.173,101.783,103.788z"/>
		<path style="fill-rule:evenodd;clip-rule:evenodd;fill:none;" d="M30.923,66.04c6.451,0,12.673,0,19.003,0
			c0.054,0.964,0.151,1.828,0.143,2.69c-0.068,6.997-0.185,13.993-0.226,20.99c-0.026,4.355,0.054,8.711,0.085,13.066
			c0.002,0.393,0,0.786,0,1.326c-6.5,0.182-12.905,0.78-19.473,0.02C31.18,91.388,30.253,78.692,30.923,66.04z"/>
		<path style="fill-rule:evenodd;clip-rule:evenodd;fill:none;" d="M31.333,159.301c0-1.846,0-3.553,0-5.357
			c6.39,0.114,12.634,0.227,18.875,0.338c0.061,14.475,0.549,28.725,0.083,42.954c-2.054,0.455-17.204,0.728-18.728,0.347
			c0-6.209,0-12.428,0-18.732c0.456-0.12,0.954-0.232,1.44-0.385c4.383-1.374,7.227-5.564,7.144-10.378
			c-0.082-4.741-3.204-8.367-8.114-8.685C31.799,159.388,31.567,159.336,31.333,159.301z"/>
		<path style="fill-rule:evenodd;clip-rule:evenodd;fill:none;" d="M30.39,107.289c6.371-0.704,12.667,0.521,19.03-0.224
			c0.624,6.688,0.523,13.259,0.543,19.614c-1.453,0.479-2.795,0.75-3.971,1.347c-1.817,0.923-2.944,2.545-3.634,4.442
			c-1.021,2.806-1.062,5.634,0.048,8.42c1.323,3.324,3.86,4.967,7.396,5.101c0,1.853,0,3.672,0,5.446c-6.233,0-12.325,0-18.581,0
			c0-1.06,0.018-2.08-0.003-3.102c-0.125-6.189-0.248-12.379-0.395-18.568c-0.114-4.793-0.271-9.585-0.391-14.377
			c-0.056-2.236-0.078-4.474-0.104-6.71C30.322,108.249,30.365,107.82,30.39,107.289z M38.309,128.109
			c0.205-0.416,0.379-0.681,0.471-0.972c0.418-1.323,0.957-2.63,1.176-3.987c0.208-1.287-0.326-2.961-1.302-3.35
			c-1.7-0.676-4.082-0.252-5.311,1.104c-0.798,0.881-0.876,1.663-0.259,2.863c1.568-0.125,2.483-1.933,4.234-1.705
			c0.347,1.084,0.331,2.162-0.22,3.132c-0.469,0.826-1.106,1.558-1.686,2.319c-0.546,0.718-1.114,1.42-1.565,1.992
			c0.335,1.068,0.963,1.188,1.744,1.154c0.673-0.029,1.361,0.184,2.028,0.123c0.933-0.087,1.873-0.262,2.765-0.543
			c0.3-0.096,0.681-0.675,0.626-0.955c-0.062-0.313-0.536-0.635-0.9-0.78C39.6,128.301,39.028,128.258,38.309,128.109z"/>
		<path style="fill-rule:evenodd;clip-rule:evenodd;fill:none;" d="M124.008,103.542c0.277-12.656,0.557-25.39,0.838-38.153
			c6.345,0,12.553,0,18.735,0c1.211,3.267,0.204,6.49,0.622,9.708c-0.35,0.056-0.652,0.1-0.954,0.153
			c-2.968,0.524-5.13,2.153-6.435,4.849c-1.536,3.175-1.693,6.475-0.436,9.761c1.247,3.256,3.654,5.153,7.279,5.597
			c0.797,2.565,0.078,5.158,0.029,7.942C137.145,103.447,130.691,103.493,124.008,103.542z M133.355,68.308
			c-1.271,1.367-2.392,2.543-3.477,3.75c-0.584,0.649-1.181,1.309-1.629,2.049c-0.275,0.454-0.282,1.071-0.407,1.605
			c1.463,0.508,2.272-0.11,3.004-0.998c0.506-0.614,1.062-1.187,1.754-1.953c0.552,2.925-0.638,5.54,0.1,8.148
			c0.563,0,1.032,0,1.64,0c0.057-3.997,1.336-7.897,0.467-11.954C134.282,68.722,133.744,68.481,133.355,68.308z"/>
		<path style="fill-rule:evenodd;clip-rule:evenodd;fill:none;" d="M74.152,50.664c-0.235-3.217-0.47-6.421-0.714-9.755
			c2.923,0.026,5.597,0.409,7.825,2.296c1.219,1.033,1.556,2.422,1.031,3.89c-0.078,0.22-0.176,0.472-0.345,0.613
			c-1.853,1.55-3.777,2.966-6.313,3.144c-0.238,0.017-0.481,0.033-0.718,0.005C74.689,50.83,74.467,50.746,74.152,50.664z"/>
		<path style="fill-rule:evenodd;clip-rule:evenodd;fill:none;" d="M51.595,43.351c0.954,1.266,1.762,2.378,1.661,3.926
			c-1.184,0.119-2.313,0.232-3.539,0.354C49.653,45.867,50.743,44.769,51.595,43.351z"/>
		<path style="fill-rule:evenodd;clip-rule:evenodd;" d="M38.309,128.109c0.719,0.148,1.291,0.191,1.799,0.396
			c0.364,0.146,0.838,0.467,0.9,0.78c0.055,0.28-0.326,0.859-0.626,0.955c-0.892,0.281-1.832,0.456-2.765,0.543
			c-0.667,0.061-1.355-0.152-2.028-0.123c-0.781,0.033-1.409-0.086-1.744-1.154c0.451-0.572,1.019-1.274,1.565-1.992
			c0.58-0.762,1.217-1.493,1.686-2.319c0.551-0.97,0.567-2.048,0.22-3.132c-1.75-0.228-2.666,1.58-4.234,1.705
			c-0.617-1.2-0.539-1.982,0.259-2.863c1.229-1.355,3.611-1.779,5.311-1.104c0.977,0.389,1.51,2.062,1.302,3.35
			c-0.219,1.357-0.757,2.664-1.176,3.987C38.688,127.429,38.513,127.693,38.309,128.109z"/>
		<path style="fill-rule:evenodd;clip-rule:evenodd;" d="M133.355,68.308c0.389,0.174,0.927,0.414,1.451,0.648
			c0.869,4.056-0.41,7.957-0.467,11.954c-0.607,0-1.076,0-1.64,0c-0.737-2.609,0.452-5.223-0.1-8.148
			c-0.692,0.767-1.248,1.339-1.754,1.953c-0.731,0.888-1.541,1.506-3.004,0.998c0.125-0.534,0.132-1.151,0.407-1.605
			c0.448-0.741,1.045-1.4,1.629-2.049C130.964,70.851,132.084,69.674,133.355,68.308z"/>
	</g>
</g>
<g id="Layer_1">
</g>
</svg>
