<?xml version="1.0" encoding="iso-8859-1"?>
<!-- Generator: Adobe Illustrator 16.0.0, SVG Export Plug-In . SVG Version: 6.00 Build 0)  -->
<!DOCTYPE svg PUBLIC "-//W3C//DTD SVG 1.1//EN" "http://www.w3.org/Graphics/SVG/1.1/DTD/svg11.dtd">
<svg version="1.1" xmlns="http://www.w3.org/2000/svg" xmlns:xlink="http://www.w3.org/1999/xlink" x="0px" y="0px"
	 width="176.487px" height="231.75px" viewBox="0 0 176.487 231.75" style="enable-background:new 0 0 176.487 231.75;"
	 xml:space="preserve">
<g id="F">
	<g id="F_1_">
		<path style="fill:none;" d="M0,231.75C0,151.544,0,71.337,0-8.87c58.829,0,117.657,0,176.487,0c0,80.207,0,160.413,0,240.62
			C117.657,231.75,58.829,231.75,0,231.75z M21.459,107.057c0.43,14.803,0.938,29.324,0.279,44.026
			c-0.729,0-1.358,0.042-1.979-0.009c-1.319-0.107-2.633-0.305-3.953-0.389c-1.281-0.083-2.47,0.146-3.209,1.428
			c0.849,0.859,1.845,1.318,3.029,1.287c1.042-0.027,2.081-0.144,3.123-0.177c0.986-0.032,1.974-0.007,2.971-0.007
			c0.589,1.916,0.572,3.805,0.489,5.685c-0.114,2.604-0.367,5.203-0.458,7.808c-0.087,2.488-0.074,4.982-0.053,7.473
			c0.058,6.91,0.145,13.818,0.217,20.727c0.008,0.748,0.001,1.496,0.001,2.259c-2.892,0.106-5.679,0.21-8.696,0.321
			c0.495,1.211,0.895,2.19,1.328,3.249c1.027-0.246,1.944-0.535,2.885-0.675c1.058-0.156,2.15-0.328,3.201-0.223
			c1.392,0.139,1.392,0.251,1.465,1.666c0.207,4.052,0.4,8.103,0.609,12.153c0.036,0.7,0.127,1.397,0.195,2.118
			c1.67-0.458,2.408-1.368,2.403-2.835c-0.012-3.655-0.027-7.312-0.039-10.968c-0.003-0.746,0-1.49,0-2.078
			c1.709,0,3.193,0.048,4.672-0.011c2.327-0.094,4.65-0.282,6.977-0.389c2.4-0.112,4.794-0.065,7.314,0.487
			c-0.743,5.036,0.49,10.049-0.557,15.122c0.848,0.228,1.594,0.43,2.472,0.667c0.542-5.441-0.121-10.732,0.236-16.08
			c7.436,0,14.759,0,22.202,0c-0.082,1.609-0.187,3.048-0.223,4.488c-0.062,2.48-0.141,4.965-0.089,7.445
			c0.02,0.98,0.403,1.937,1.381,2.529c1.48-1.631,1.777-3.544,1.724-5.547c-0.053-2.006-0.246-4.01-0.227-6.014
			c0.01-1.048,0.343-2.093,0.544-3.223c7.285,0.676,14.383-0.257,21.457,0.358c0.04,4.269-1.001,8.366-0.324,12.514
			c0.044,0.268-0.185,0.72-0.423,0.865c-0.706,0.434-0.645,0.811-0.094,1.303c0.986,0.88,2.065,0.954,3.293,0.18
			c-0.273-5.021-0.704-10.064,0.299-15.097c6.779,0,13.463,0,20.097,0c0.166,1.416,0.239,2.738,0.493,4.026
			c0.351,1.777,0.152,3.499-0.145,5.253c-0.18,1.057-0.181,2.157-0.147,3.234c0.034,1.074,0.646,1.842,1.564,2.38
			c0.774-1.075,1.107-1.904,1.078-3.406c-0.047-2.286-0.193-4.571-0.317-6.855c-0.083-1.56-0.151-3.112,0.358-4.505
			c6.349,0,12.598,0,18.744,0c0.142,0.244,0.21,0.309,0.216,0.379c0.339,4.442,0.807,8.881,0.365,13.346
			c-0.174,1.768-0.06,1.907,1.7,2.355c0.176,0.045,0.364,0.037,0.595,0.057c0.041-0.271,0.1-0.467,0.096-0.66
			c-0.042-2.846-0.035-5.694-0.155-8.537c-0.097-2.287-0.033-4.547,0.381-6.744c3.368,0,6.644,0,9.918,0
			c0.026-2.34-0.729-3.282-2.96-3.577c-0.829-0.111-1.68-0.06-2.52-0.084c-1-0.029-2.007-0.003-2.999-0.102
			c-1.062-0.108-1.196-0.305-1.19-1.384c0.01-1.888,0.071-3.775,0.059-5.662c-0.027-4.377-0.159-8.752-0.12-13.127
			c0.068-7.39,0.235-14.779,0.363-22.168c0.006-0.314,0.047-0.628,0.088-1.146c1.282,0.162,2.496,0.322,3.712,0.471
			c1.606,0.193,3.198,0.299,4.572-0.952c-0.375-0.622-0.722-1.199-1.085-1.802c-2.505-0.122-4.995,0.938-7.571,0.109
			c-0.452-14.754-0.986-29.467,0.541-44.283c0.773,0.047,1.443,0.08,2.114,0.127c1.755,0.123,3.511,0.334,5.266,0.346
			c1.052,0.007,2.029-0.424,2.627-1.545c-3.42-1.892-7.164-0.996-10.624-1.351c0-3.19,0-6.26,0-9.275
			c4.682-1.324,6.311-2.188,8.796-4.76c1.24-1.283,2.292-2.725,2.556-4.544c0.413-2.849-0.736-4.995-3.62-6.409
			c-1.68-0.822-3.512-1.337-5.287-1.955c-0.854-0.298-1.739-0.511-2.415-0.707c0-3.541,0-6.881,0-10.359c4.022,0,7.851,0,11.754,0
			c0.954-2.443,0.318-4.97-0.111-7.531c-0.307-0.015-0.505-0.034-0.701-0.033c-4.577,0.028-9.154,0.137-13.729,0.068
			c-6.706-0.101-13.409-0.417-20.114-0.471c-5.497-0.045-10.995,0.159-16.494,0.252c-8.15,0.138-16.302,0.329-24.453,0.399
			c-6.709,0.057-13.419-0.023-20.128-0.055c-5.341-0.025-10.682-0.075-16.023-0.104c-9-0.048-17.999-0.091-26.999-0.13
			c-0.388-0.001-0.775,0.047-1.168,0.074c-0.33,2.129-0.324,4.146,0.117,6.174c0.207,0.948,0.654,1.358,1.631,1.322
			c1.283-0.048,2.568-0.006,3.853-0.005c1.064,0.001,2.129,0,3.273,0c0.493,13.025,1.231,25.844-0.824,38.709
			c-0.573-0.03-1.007-0.023-1.432-0.078c-1.27-0.166-2.532-0.425-3.806-0.513c-1.068-0.073-2.213,0.681-2.236,1.294
			c-0.021,0.562,1.121,1.462,2.1,1.551c0.958,0.086,1.927,0.035,2.887,0.106C19.42,106.783,20.397,106.932,21.459,107.057z
			 M83.387,11.242c-0.285-1.262-1.088-1.887-2.146-2.192c-0.61-0.177-1.264-0.311-1.893-0.293c-2.044,0.058-4.086,0.188-6.128,0.304
			C71.709,9.147,70.2,9.254,68.55,9.36c-0.35,6.763,0.451,13.394,1.152,20.033c0.871,0.125,1.617,0.261,2.37,0.334
			c1.436,0.14,1.833-0.151,1.901-1.603c0.059-1.279-0.057-2.565-0.077-3.849c-0.016-1.029-0.003-2.059-0.003-3.178
			c0.492-0.029,0.935,0.001,1.351-0.091c0.97-0.212,1.967-0.387,2.877-0.761c0.755-0.31,1.289-0.956,1.27-1.883
			c-0.019-0.915-0.556-1.478-1.299-1.882c-1.072-0.583-2.225-0.603-3.398-0.424c-0.415,0.063-0.829,0.137-1.301,0.216
			c-0.211-1.192-0.397-2.242-0.604-3.411c0.542-0.03,0.974-0.074,1.406-0.074c1.808,0.003,3.617,0.073,5.422,0.016
			C81.033,12.758,82.417,12.497,83.387,11.242z M98.42,53.081c0,0.372-0.008,0.835,0.002,1.297c0.014,0.587,0.24,0.883,0.904,0.766
			c0.699-0.124,1.415-0.153,2.217-0.232c-0.064-0.611-0.127-1.121-0.174-1.633c-0.158-1.713-0.465-3.432-0.408-5.138
			c0.032-0.972-0.211-1.608-0.974-1.957c-0.741-0.339-1.604-0.657-2.392-0.609c-1.901,0.115-3.789,0.449-5.649,0.69
			c-0.017,2.25,0.361,2.59,2.259,2.273c0.435-0.072,0.87-0.205,1.305-0.205c0.561,0,1.121,0.104,1.695,0.165
			c-0.232,1.176-0.641,1.763-1.587,2.176c-0.618,0.27-1.284,0.458-1.948,0.591c-2.645,0.528-4.066-0.374-4.643-2.972
			c-0.904-4.081,1.078-7.07,4.877-7.356c0.76-0.058,1.297,0.059,1.797,0.646c0.672,0.789,1.369,1.593,2.533,1.625
			c1.129-2.136-0.312-4.541-2.927-4.801c-3.352-0.333-6.12,0.897-8.393,3.338c-0.948,1.018-1.302,2.22-1.023,3.555
			c0.228,1.092,0.443,2.232,0.935,3.215c1.636,3.268,4.116,5.458,7.993,5.357C95.982,53.842,97.132,53.378,98.42,53.081z
			 M66.932,37.814c-0.347,0.309-0.678,0.749-1.12,0.967c-0.881,0.437-1.217,1.119-1.165,2.035c0.105,1.878,0.259,3.753,0.347,5.632
			c0.076,1.63,0.226,3.275,0.092,4.892c-0.145,1.747-0.266,1.745,1.464,2.299c0.152,0.048,0.3,0.115,0.456,0.149
			c3.932,0.862,9.079-1.311,11.184-4.784c1.092-1.8,1.343-3.7,0.107-5.548c-0.532-0.796-1.126-1.614-1.871-2.193
			c-2.298-1.789-4.856-3.005-7.847-3.113C68.049,38.132,67.525,37.94,66.932,37.814z M20.148,40.3
			c0.953-0.073,1.906-0.203,2.859-0.204c0.995-0.001,1.991,0.165,2.986,0.162c0.255-0.001,0.637-0.31,0.741-0.565
			c0.28-0.697,0.441-1.441,0.633-2.108c-0.529-1.061-1.356-1.217-2.405-1.109c-1.514,0.154-3.049,0.094-4.563,0.244
			c-1.092,0.108-2.165,0.409-3.259,0.625c-0.11,5.433,0.905,10.529,1.681,15.577c2.389-0.104,4.627-0.222,6.866-0.296
			c2.666-0.088,2.685-0.091,2.474-2.825c-0.005-0.063-0.089-0.121-0.292-0.38c-1.726,0.091-3.607,0.11-5.466,0.321
			c-0.992,0.113-1.509-0.188-1.789-1.078c-0.06-0.19-0.148-0.372-0.21-0.561c-0.351-1.063-0.164-1.446,0.88-1.812
			c0.715-0.251,1.446-0.47,2.14-0.771c0.265-0.115,0.651-0.437,0.632-0.631c-0.063-0.661-0.203-1.346-0.494-1.932
			c-0.083-0.165-0.789-0.06-1.202-0.013C20.722,43.127,19.207,42.038,20.148,40.3z M48.375,49.397
			c0.217,0.567,0.429,1.163,0.67,1.748c0.334,0.813,0.623,1.656,1.054,2.417c0.49,0.864,0.895,0.882,2.038,0.368
			c0.709-0.319,1.005-0.689,0.759-1.578c-0.663-2.387-1.858-4.506-2.986-6.678c-1.125-2.164-2.119-4.396-3.097-6.631
			c-0.232-0.531-0.29-1.034-1.004-1.157c-0.838-0.144-1,0.437-1.271,0.972c-2.058,4.037-4.112,8.075-6.191,12.1
			c-0.762,1.476-0.544,2.025,1.136,2.58c0.031-0.025,0.076-0.043,0.092-0.075c0.054-0.107,0.119-0.214,0.144-0.329
			c0.431-1.979,1.683-3.031,3.668-3.241C45.015,49.721,46.645,49.568,48.375,49.397z M137.451,51.726
			c-0.104-0.512-0.179-0.82-0.229-1.132c-0.313-1.941-0.123-2.126,1.883-2.065c0.939,0.029,1.882-0.047,2.897-0.077
			c0-0.453,0.007-0.688-0.001-0.921c-0.062-1.854-0.446-2.189-2.221-1.864c-0.907,0.166-1.801,0.374-2.684-0.013
			c-0.111-1.267-0.22-2.485-0.331-3.757c2.74-0.5,5.565,0.866,8.124-0.493c0-0.679,0.03-1.244-0.008-1.803
			c-0.052-0.742-0.472-1.004-1.222-0.958c-1.96,0.122-3.925,0.178-5.887,0.274c-1.03,0.05-2.058,0.128-3.309,0.209
			c0.301,5.033,0.595,9.932,0.885,14.798c2.15,0.121,4.267,0.284,6.386,0.346c1.599,0.047,3.095-0.335,4.349-1.511
			c-1.038-1.292-2.439-1.29-3.849-1.239C140.646,51.576,139.054,51.656,137.451,51.726z M114.075,47.693
			c1.86-0.187,3.712-0.373,5.82-0.584c-0.068,1.284-0.171,2.384-0.173,3.485c-0.002,1.023,0.017,2.062,0.191,3.065
			c0.117,0.673,0.731,0.924,1.415,0.765c0.909-0.211,1.465-1.269,1.202-2.176c-0.144-0.497-0.312-1.015-0.311-1.522
			c0.006-1.598,0.12-3.196,0.13-4.795c0.007-1.235,0.066-2.5-0.166-3.699c-0.285-1.477-1.15-2.659-2.704-3.473
			c-0.234,2.211,0.498,4.366-0.472,6.352c-1.808,0-3.518,0-5.373,0c0-2.068,0-4.057,0-6.138c-1.011-0.336-1.919-0.638-2.834-0.943
			c0.276,5.215,0.542,10.199,0.816,15.376c0.824-0.158,1.456-0.279,2.112-0.405C113.848,51.197,113.957,49.523,114.075,47.693z
			 M160.095,82.492c0.081,0.052,0.164,0.104,0.245,0.156c0,3.296,0,6.593,0,9.956c1.525-0.308,1.886-1.41,2.143-2.558
			c0.493-2.197,0.184-4.395-0.092-6.581c-0.184-1.45-0.497-2.882-0.774-4.458c-2.355,0.753-4.304,1.779-5.558,3.773
			c-0.319,0.508-0.422,1.2-0.461,1.817c-0.022,0.34,0.229,0.934,0.469,0.998c0.339,0.09,0.869-0.103,1.155-0.357
			c0.567-0.499,0.995-1.15,1.535-1.685C159.158,83.155,159.646,82.842,160.095,82.492z"/>
		<path style="fill-rule:evenodd;clip-rule:evenodd;" d="M21.459,107.057c-1.062-0.125-2.04-0.274-3.022-0.347
			c-0.96-0.071-1.929-0.02-2.887-0.106c-0.979-0.089-2.12-0.989-2.1-1.551c0.022-0.613,1.168-1.367,2.236-1.294
			c1.274,0.088,2.536,0.348,3.806,0.513c0.425,0.055,0.859,0.048,1.432,0.078c2.056-12.865,1.317-25.684,0.824-38.709
			c-1.145,0-2.209,0.001-3.273,0c-1.285-0.001-2.57-0.043-3.853,0.005c-0.977,0.037-1.425-0.374-1.631-1.322
			c-0.441-2.028-0.447-4.045-0.117-6.174c0.393-0.026,0.781-0.075,1.168-0.074c9,0.04,17.999,0.082,26.999,0.13
			c5.341,0.029,10.682,0.079,16.023,0.104c6.709,0.032,13.419,0.112,20.128,0.055c8.151-0.07,16.303-0.261,24.453-0.399
			c5.499-0.094,10.997-0.298,16.494-0.252c6.705,0.054,13.408,0.371,20.114,0.471c4.575,0.069,9.152-0.041,13.729-0.068
			c0.196-0.001,0.395,0.018,0.701,0.033c0.43,2.561,1.065,5.088,0.111,7.531c-3.903,0-7.731,0-11.754,0c0,3.478,0,6.819,0,10.359
			c0.676,0.196,1.561,0.409,2.415,0.707c1.775,0.618,3.607,1.133,5.287,1.955c2.884,1.414,4.033,3.561,3.62,6.409
			c-0.264,1.819-1.315,3.261-2.556,4.544c-2.485,2.572-4.114,3.436-8.796,4.76c0,3.015,0,6.085,0,9.275
			c3.46,0.354,7.204-0.541,10.624,1.351c-0.598,1.122-1.575,1.553-2.627,1.545c-1.755-0.012-3.511-0.224-5.266-0.346
			c-0.671-0.047-1.341-0.081-2.114-0.127c-1.527,14.816-0.993,29.529-0.541,44.283c2.576,0.829,5.066-0.231,7.571-0.109
			c0.363,0.603,0.71,1.18,1.085,1.802c-1.374,1.251-2.966,1.146-4.572,0.952c-1.216-0.148-2.43-0.309-3.712-0.471
			c-0.041,0.519-0.082,0.832-0.088,1.146c-0.128,7.389-0.295,14.778-0.363,22.168c-0.039,4.375,0.093,8.75,0.12,13.127
			c0.013,1.887-0.049,3.774-0.059,5.662c-0.006,1.079,0.129,1.275,1.19,1.384c0.992,0.099,1.999,0.072,2.999,0.102
			c0.84,0.024,1.69-0.027,2.52,0.084c2.231,0.295,2.986,1.237,2.96,3.577c-3.274,0-6.55,0-9.918,0
			c-0.414,2.197-0.478,4.457-0.381,6.744c0.12,2.843,0.113,5.691,0.155,8.537c0.004,0.193-0.055,0.389-0.096,0.66
			c-0.23-0.02-0.419-0.012-0.595-0.057c-1.76-0.448-1.874-0.588-1.7-2.355c0.441-4.465-0.026-8.903-0.365-13.346
			c-0.006-0.07-0.074-0.135-0.216-0.379c-6.146,0-12.396,0-18.744,0c-0.51,1.393-0.441,2.945-0.358,4.505
			c0.124,2.284,0.271,4.569,0.317,6.855c0.029,1.502-0.304,2.331-1.078,3.406c-0.919-0.538-1.53-1.306-1.564-2.38
			c-0.033-1.077-0.032-2.178,0.147-3.234c0.297-1.754,0.495-3.476,0.145-5.253c-0.254-1.288-0.327-2.61-0.493-4.026
			c-6.634,0-13.317,0-20.097,0c-1.003,5.032-0.572,10.075-0.299,15.097c-1.228,0.774-2.307,0.7-3.293-0.18
			c-0.551-0.492-0.612-0.869,0.094-1.303c0.238-0.146,0.467-0.598,0.423-0.865c-0.677-4.147,0.364-8.245,0.324-12.514
			c-7.073-0.615-14.171,0.317-21.457-0.358c-0.201,1.13-0.534,2.175-0.544,3.223c-0.019,2.004,0.173,4.008,0.227,6.014
			c0.053,2.003-0.244,3.916-1.724,5.547c-0.979-0.593-1.361-1.549-1.381-2.529c-0.052-2.48,0.027-4.965,0.089-7.445
			c0.036-1.44,0.141-2.879,0.223-4.488c-7.443,0-14.766,0-22.202,0c-0.356,5.348,0.306,10.639-0.236,16.08
			c-0.877-0.237-1.624-0.439-2.472-0.667c1.047-5.073-0.186-10.086,0.557-15.122c-2.52-0.553-4.914-0.6-7.314-0.487
			c-2.327,0.106-4.65,0.295-6.977,0.389c-1.479,0.059-2.963,0.011-4.672,0.011c0,0.588-0.002,1.332,0,2.078
			c0.012,3.655,0.027,7.312,0.039,10.968c0.005,1.467-0.733,2.377-2.403,2.835c-0.068-0.721-0.159-1.418-0.195-2.118
			c-0.209-4.051-0.403-8.102-0.609-12.153c-0.073-1.415-0.073-1.527-1.465-1.666c-1.051-0.105-2.144,0.066-3.201,0.223
			c-0.941,0.14-1.858,0.429-2.885,0.675c-0.433-1.059-0.833-2.038-1.328-3.249c3.017-0.111,5.805-0.215,8.696-0.321
			c0-0.763,0.007-1.511-0.001-2.259c-0.072-6.908-0.159-13.816-0.217-20.727c-0.021-2.49-0.034-4.984,0.053-7.473
			c0.091-2.604,0.344-5.203,0.458-7.808c0.083-1.88,0.1-3.769-0.489-5.685c-0.997,0-1.985-0.025-2.971,0.007
			c-1.042,0.033-2.081,0.149-3.123,0.177c-1.184,0.031-2.18-0.428-3.029-1.287c0.739-1.281,1.928-1.511,3.209-1.428
			c1.32,0.084,2.634,0.281,3.953,0.389c0.621,0.051,1.25,0.009,1.979,0.009C22.397,136.381,21.89,121.859,21.459,107.057z
			 M68.576,151.289c-0.369-14.793-0.733-29.373-1.096-43.848c-7.302,0-14.428,0-21.791,0c0.32,14.68,0.637,29.191,0.956,43.834
			C53.941,151.823,61.147,150.752,68.576,151.289z M116.733,196.808c0.095-14.373,0.188-28.558,0.283-42.993
			c-7.232,0.122-14.233,0.238-21.3,0.357c0,0.737-0.002,1.294,0.001,1.849c0.026,4.775,0.108,9.549,0.071,14.322
			c-0.056,7.144-0.208,14.287-0.285,21.432c-0.02,1.711,0.097,3.424,0.156,5.33C102.713,197.005,109.605,196.909,116.733,196.808z
			 M137.716,106.441c-6.731,0-13.382,0-20.192,0c-0.483,14.807,0.716,29.5,1.108,44.309c6.552,1.08,12.984-0.199,19.622-0.272
			c0.032-4.743,0.156-9.319,0.067-13.891c-0.104-5.338-0.466-10.671-0.584-16.011C137.635,115.922,137.716,111.263,137.716,106.441z
			 M70.209,65.781c0.24,12.973,0.488,25.803-0.258,38.793c7.445,0,14.765,0,22.182,0c0.203-3.052,0.49-6.127,0.592-9.209
			c0.128-3.838,0.55-7.703-0.544-11.488c-0.056-0.189-0.065-0.398-0.063-0.597c0.039-4.175,0.09-8.351,0.126-12.525
			c0.014-1.634,0.002-3.269,0.002-4.973C84.938,65.781,77.648,65.781,70.209,65.781z M67.754,104.489
			c0.01-13.002,1.052-25.861-0.043-38.684c-7.065,0.108-14.001,0.216-21.035,0.323C45.7,78.8,45.824,91.465,46.129,104.236
			C53.33,104.929,60.461,104.711,67.754,104.489z M137.992,196.22c-0.03-0.636-0.047-1.112-0.076-1.588
			c-0.18-2.904,0.279-5.753,0.698-8.612c0.783-5.354,0.461-10.73,0.202-16.104c-0.247-5.13-0.458-10.261-0.685-15.391
			c-0.018-0.424-0.04-0.848-0.066-1.377c-6.535,0.324-12.929,0.641-19.45,0.965c1.071,14.111,0.111,28.201-0.26,42.372
			C124.995,196.695,131.435,196.835,137.992,196.22z M43.372,107.334c-2.789,0-5.475,0.031-8.161-0.009
			c-3.212-0.047-6.422-0.181-9.633-0.223c-1.394-0.018-1.375,0.044-1.455,1.377c-0.356,6.029,0.136,12.042,0.295,18.062
			c0.185,7.023,0.297,14.048,0.433,21.072c0.021,1.107,0.003,2.216,0.003,3.326c6.222,0.1,12.337,0.197,18.507,0.295
			C44.211,136.704,43.689,122.06,43.372,107.334z M25.099,153.768c-0.084,1.029-0.236,1.982-0.226,2.933
			c0.068,6.46,0.083,12.921,0.285,19.377c0.201,6.416,0.617,12.826,0.194,19.248c-0.035,0.543-0.004,1.088-0.004,1.637
			c6.348,0.656,12.539-0.066,18.829,0.054c0.06-1.93,0.169-3.69,0.16-5.45c-0.033-6.141-0.099-12.279-0.17-18.419
			c-0.069-6.059-0.159-12.118-0.246-18.177c-0.003-0.226-0.065-0.449-0.109-0.733C37.545,154.079,31.349,153.924,25.099,153.768z
			 M93.178,142.629c-1.303-0.562-2.728-1.098-4.079-1.776c-2.62-1.315-4.379-3.349-4.891-6.315
			c-0.476-2.756-0.206-5.438,0.905-8.012c0.954-2.209,2.396-4.01,4.671-4.953c0.944-0.391,1.981-0.556,2.879-0.797
			c0-4.578,0-9.138,0-13.942c-7.498,0.141-14.818,0.279-22.207,0.418c-0.641,14.659,0.527,29.159,0.514,43.734
			c7.592,0.253,15.031,0.443,22.528-0.003C93.388,148.098,93.283,145.385,93.178,142.629z M93.209,154.068
			c-7.451,0.113-14.732,0.225-21.937,0.333c0,3.519,0,7.071,0,10.597c2.443,0.858,4.682,1.722,6.621,3.201
			c1.688,1.286,2.846,2.923,3.348,4.994c1.027,4.241-1.166,9.303-5.098,11.383c-1.45,0.769-3.111,1.14-4.678,1.693
			c0.069,3.361,0.143,6.874,0.216,10.415c7.299,0,14.343,0,21.511,0C93.453,182.455,94.082,168.314,93.209,154.068z M95.202,106.623
			c-0.085,0.386-0.18,0.651-0.196,0.92c-0.253,4.145,0.178,8.257,0.574,12.372c0.057,0.59,0.332,0.799,0.879,0.93
			c2.953,0.71,5.385,2.28,7.207,4.698c2.433,3.227,3.021,7.196,0.388,10.803c-2.167,2.97-4.696,5.452-8.251,6.567
			c0,1.419-0.031,2.777,0.01,4.133c0.042,1.383,0.156,2.764,0.242,4.209c6.932,0.439,13.6,0.076,20.379-0.506
			c0-0.492,0.011-0.886-0.002-1.279c-0.066-2.006-0.125-4.01-0.215-6.015c-0.18-4.05-0.434-8.097-0.552-12.148
			c-0.192-6.579-0.308-13.158-0.438-19.738c-0.033-1.674-0.005-3.35-0.005-5.27C108.516,106.407,101.875,106.514,95.202,106.623z
			 M24.462,65.998c-0.513,12.711,0.893,25.309-0.569,38.013c6.581,0.859,13,0.381,19.571,0.229
			c0.131-12.715,0.261-25.294,0.391-37.955C37.402,65.739,31.037,65.73,24.462,65.998z M115.331,93.419
			c-0.854-0.44-1.688-0.835-2.488-1.289c-2.712-1.536-3.922-4.32-3.249-7.368c0.793-3.583,2.805-6.236,6.043-7.942
			c0-3.624,0-7.22,0-10.916c-6.935-0.069-13.768-0.408-20.598-0.195c-0.619,13.039-0.464,25.901,0.266,38.785
			c0.321,0,0.518,0.005,0.713-0.001c2.408-0.077,4.815-0.212,7.223-0.216c3.052-0.005,6.103,0.124,9.152,0.136
			c0.98,0.003,1.961-0.184,2.938-0.284C115.331,100.473,115.331,96.99,115.331,93.419z M68.283,196.222
			c0.356-3.259,0.756-6.636,0.412-10.057c-0.069-0.688-0.5-0.821-1.042-0.925c-1.898-0.358-3.442-1.335-4.589-2.86
			c-2.536-3.374-3.184-7.128-1.917-11.146c0.954-3.026,3.058-4.918,6.137-5.708c0.459-0.117,0.932-0.181,1.375-0.263
			c0.586-6.554,0.485-9.526-0.438-11.253c-7.004,0.94-14.093,0.476-21.393,0.262c-0.037,14.303-0.072,28.485-0.107,42.482
			C53.825,196.58,60.993,196.402,68.283,196.222z M138.097,65.921c-6.539,0-12.977,0-19.526,0
			c-0.122,3.387-0.244,6.817-0.371,10.329c6.637-0.697,13.15-2.3,19.897-0.792C138.097,72.257,138.097,69.19,138.097,65.921z
			 M137.904,104.06c0-3.107,0-5.978,0-8.906c-1.095,0.12-2.197,0.294-3.309,0.353c-4.306,0.225-8.567-0.285-12.827-0.838
			c-1.284-0.167-2.579-0.25-3.821-0.368c-0.123,3.41-0.239,6.603-0.353,9.759C124.382,104.06,131.022,104.06,137.904,104.06z"/>
		<path style="fill-rule:evenodd;clip-rule:evenodd;" d="M84.387,10.242c-0.971,1.255-2.354,1.517-3.77,1.562
			c-1.805,0.057-3.614-0.012-5.422-0.016c-0.432,0-0.864,0.043-1.406,0.074c0.207,1.169,0.393,2.219,0.604,3.411
			c0.473-0.079,0.886-0.153,1.301-0.216c1.173-0.179,2.326-0.159,3.398,0.424c0.743,0.404,1.28,0.967,1.299,1.882
			c0.019,0.928-0.515,1.574-1.27,1.883c-0.91,0.374-1.907,0.548-2.877,0.761c-0.416,0.092-0.859,0.062-1.351,0.091
			c0,1.119-0.013,2.148,0.003,3.178c0.02,1.284,0.136,2.57,0.077,3.849c-0.067,1.452-0.465,1.742-1.901,1.603
			c-0.753-0.073-1.5-0.209-2.37-0.334c-0.701-6.639-1.501-13.27-1.152-20.033c1.649-0.106,3.159-0.213,4.67-0.299
			c2.042-0.116,4.084-0.246,6.128-0.304c0.629-0.018,1.282,0.116,1.893,0.293C83.299,8.355,84.102,8.979,84.387,10.242z"/>
		<path style="fill-rule:evenodd;clip-rule:evenodd;" d="M98.42,53.081c-1.288,0.297-2.438,0.761-3.601,0.792
			c-3.877,0.101-6.357-2.089-7.993-5.357c-0.492-0.983-0.707-2.123-0.935-3.215c-0.278-1.334,0.076-2.537,1.023-3.555
			c2.272-2.441,5.041-3.671,8.393-3.338c2.614,0.26,4.056,2.666,2.927,4.801c-1.164-0.032-1.861-0.837-2.533-1.625
			c-0.5-0.587-1.037-0.704-1.797-0.646c-3.799,0.286-5.781,3.275-4.877,7.356c0.576,2.599,1.998,3.5,4.643,2.972
			c0.664-0.133,1.33-0.321,1.948-0.591c0.946-0.413,1.354-1,1.587-2.176c-0.574-0.061-1.135-0.165-1.695-0.165
			c-0.435,0-0.87,0.132-1.305,0.205c-1.897,0.317-2.275-0.023-2.259-2.273c1.86-0.241,3.748-0.575,5.649-0.69
			c0.787-0.047,1.65,0.27,2.392,0.609c0.763,0.349,1.006,0.984,0.974,1.957c-0.057,1.707,0.25,3.425,0.408,5.138
			c0.047,0.512,0.109,1.022,0.174,1.633c-0.802,0.079-1.518,0.108-2.217,0.232c-0.664,0.117-0.891-0.179-0.904-0.766
			C98.412,53.916,98.42,53.453,98.42,53.081z"/>
		<path style="fill-rule:evenodd;clip-rule:evenodd;" d="M66.932,37.814c0.593,0.126,1.117,0.317,1.647,0.336
			c2.991,0.108,5.549,1.325,7.847,3.113c0.745,0.579,1.338,1.397,1.871,2.193c1.235,1.848,0.985,3.748-0.107,5.548
			c-2.105,3.473-7.252,5.646-11.184,4.784c-0.156-0.034-0.304-0.101-0.456-0.149c-1.73-0.554-1.609-0.552-1.464-2.299
			c0.134-1.617-0.016-3.262-0.092-4.892c-0.088-1.879-0.241-3.754-0.347-5.632c-0.052-0.917,0.284-1.599,1.165-2.035
			C66.254,38.563,66.585,38.124,66.932,37.814z M68.053,51.131c0.611-0.101,1.05-0.146,1.475-0.25
			c1.674-0.41,3.376-0.771,4.743-1.927c1.847-1.564,2.012-4.233,0.245-5.687c-2.011-1.653-4.424-2.078-7.006-2.014
			C67.084,44.645,67.559,47.844,68.053,51.131z"/>
		<path style="fill-rule:evenodd;clip-rule:evenodd;" d="M20.148,40.3c-0.942,1.738,0.574,2.828,2.212,2.643
			c0.413-0.047,1.119-0.152,1.202,0.013c0.291,0.586,0.43,1.271,0.494,1.932c0.019,0.194-0.368,0.516-0.632,0.631
			c-0.694,0.301-1.424,0.52-2.14,0.771c-1.044,0.367-1.231,0.75-0.88,1.812c0.062,0.189,0.151,0.371,0.21,0.561
			c0.28,0.89,0.797,1.19,1.789,1.078c1.859-0.211,3.74-0.229,5.466-0.321c0.202,0.259,0.287,0.317,0.292,0.38
			c0.211,2.734,0.192,2.737-2.474,2.825c-2.239,0.074-4.477,0.192-6.866,0.296c-0.776-5.048-1.791-10.144-1.681-15.577
			c1.094-0.217,2.167-0.517,3.259-0.625c1.514-0.149,3.05-0.09,4.563-0.244c1.049-0.107,1.876,0.049,2.405,1.109
			c-0.191,0.667-0.353,1.411-0.633,2.108c-0.104,0.256-0.485,0.564-0.741,0.565c-0.995,0.002-1.991-0.163-2.986-0.162
			C22.054,40.097,21.102,40.227,20.148,40.3z"/>
		<path style="fill-rule:evenodd;clip-rule:evenodd;" d="M48.375,49.397c-1.73,0.171-3.36,0.324-4.988,0.495
			c-1.986,0.209-3.238,1.262-3.668,3.241c-0.025,0.115-0.09,0.222-0.144,0.329c-0.016,0.032-0.061,0.05-0.092,0.075
			c-1.68-0.555-1.898-1.104-1.136-2.58c2.08-4.025,4.134-8.063,6.191-12.1c0.272-0.535,0.434-1.116,1.271-0.972
			c0.714,0.123,0.771,0.626,1.004,1.157c0.978,2.235,1.973,4.468,3.097,6.631c1.128,2.171,2.323,4.291,2.986,6.678
			c0.246,0.889-0.05,1.259-0.759,1.578c-1.144,0.514-1.548,0.496-2.038-0.368c-0.431-0.76-0.719-1.604-1.054-2.417
			C48.804,50.56,48.591,49.964,48.375,49.397z M45.097,43.741c-0.628,1.215-1.192,2.303-1.795,3.47
			c1.44,0.245,2.648,0.494,3.871-0.26C46.548,45.858,46.811,44.278,45.097,43.741z"/>
		<path style="fill-rule:evenodd;clip-rule:evenodd;" d="M137.451,51.726c1.603-0.07,3.194-0.15,4.785-0.206
			c1.409-0.051,2.811-0.053,3.849,1.239c-1.254,1.175-2.75,1.558-4.349,1.511c-2.119-0.062-4.235-0.225-6.386-0.346
			c-0.29-4.866-0.584-9.765-0.885-14.798c1.251-0.081,2.278-0.159,3.309-0.209c1.962-0.096,3.927-0.152,5.887-0.274
			c0.75-0.046,1.17,0.216,1.222,0.958c0.038,0.559,0.008,1.124,0.008,1.803c-2.559,1.359-5.384-0.007-8.124,0.493
			c0.111,1.272,0.22,2.49,0.331,3.757c0.883,0.386,1.776,0.178,2.684,0.013c1.774-0.326,2.158,0.01,2.221,1.864
			c0.008,0.234,0.001,0.468,0.001,0.921c-1.016,0.03-1.958,0.105-2.897,0.077c-2.006-0.062-2.196,0.124-1.883,2.065
			C137.272,50.906,137.347,51.214,137.451,51.726z"/>
		<path style="fill-rule:evenodd;clip-rule:evenodd;" d="M114.075,47.693c-0.118,1.83-0.228,3.504-0.345,5.308
			c-0.656,0.126-1.288,0.248-2.112,0.405c-0.274-5.178-0.54-10.161-0.816-15.376c0.915,0.305,1.823,0.606,2.834,0.943
			c0,2.081,0,4.07,0,6.138c1.855,0,3.565,0,5.373,0c0.97-1.986,0.237-4.141,0.472-6.352c1.554,0.813,2.419,1.996,2.704,3.473
			c0.232,1.2,0.173,2.464,0.166,3.699c-0.01,1.599-0.124,3.197-0.13,4.795c-0.002,0.508,0.167,1.025,0.311,1.522
			c0.263,0.907-0.293,1.965-1.202,2.176c-0.684,0.159-1.298-0.092-1.415-0.765c-0.175-1.003-0.193-2.042-0.191-3.065
			c0.002-1.101,0.104-2.201,0.173-3.485C117.787,47.321,115.936,47.506,114.075,47.693z"/>
		<path style="fill-rule:evenodd;clip-rule:evenodd;" d="M160.095,82.492c-0.449,0.351-0.937,0.664-1.338,1.062
			c-0.54,0.535-0.968,1.187-1.535,1.685c-0.286,0.254-0.816,0.447-1.155,0.357c-0.239-0.063-0.491-0.658-0.469-0.998
			c0.039-0.618,0.142-1.31,0.461-1.817c1.254-1.995,3.202-3.02,5.558-3.773c0.277,1.576,0.591,3.008,0.774,4.458
			c0.275,2.186,0.585,4.384,0.092,6.581c-0.257,1.148-0.617,2.25-2.143,2.558c0-3.362,0-6.659,0-9.956
			C160.259,82.596,160.176,82.543,160.095,82.492z"/>
		<path style="fill-rule:evenodd;clip-rule:evenodd;fill:none;" d="M68.576,151.289c-7.429-0.537-14.635,0.534-21.931-0.014
			c-0.319-14.643-0.636-29.154-0.956-43.834c7.363,0,14.489,0,21.791,0C67.843,121.916,68.207,136.496,68.576,151.289z"/>
		<path style="fill-rule:evenodd;clip-rule:evenodd;fill:none;" d="M116.733,196.808c-7.128,0.102-14.021,0.197-21.073,0.297
			c-0.06-1.906-0.176-3.619-0.156-5.33c0.077-7.145,0.229-14.288,0.285-21.432c0.037-4.773-0.045-9.547-0.071-14.322
			c-0.003-0.555-0.001-1.111-0.001-1.849c7.066-0.119,14.067-0.235,21.3-0.357C116.922,168.25,116.828,182.435,116.733,196.808z"/>
		<path style="fill-rule:evenodd;clip-rule:evenodd;fill:none;" d="M137.716,106.441c0,4.822-0.081,9.481,0.021,14.135
			c0.118,5.34,0.479,10.673,0.584,16.011c0.089,4.571-0.035,9.147-0.067,13.891c-6.638,0.073-13.07,1.353-19.622,0.272
			c-0.393-14.81-1.592-29.502-1.108-44.309C124.334,106.441,130.984,106.441,137.716,106.441z"/>
		<path style="fill-rule:evenodd;clip-rule:evenodd;fill:none;" d="M70.209,65.781c7.439,0,14.729,0,22.036,0
			c0,1.705,0.012,3.339-0.002,4.973c-0.036,4.175-0.087,8.35-0.126,12.525c-0.002,0.199,0.008,0.408,0.063,0.597
			c1.094,3.785,0.672,7.65,0.544,11.488c-0.102,3.082-0.389,6.157-0.592,9.209c-7.417,0-14.736,0-22.182,0
			C70.697,91.584,70.449,78.754,70.209,65.781z"/>
		<path style="fill-rule:evenodd;clip-rule:evenodd;fill:none;" d="M67.754,104.489c-7.292,0.222-14.424,0.439-21.625-0.253
			C45.824,91.465,45.7,78.8,46.675,66.129c7.034-0.107,13.97-0.215,21.035-0.323C68.806,78.628,67.764,91.487,67.754,104.489z"/>
		<path style="fill-rule:evenodd;clip-rule:evenodd;fill:none;" d="M137.992,196.22c-6.558,0.615-12.997,0.476-19.637,0.266
			c0.371-14.171,1.331-28.261,0.26-42.372c6.521-0.324,12.915-0.641,19.45-0.965c0.026,0.529,0.049,0.953,0.066,1.377
			c0.227,5.13,0.438,10.261,0.685,15.391c0.259,5.373,0.581,10.75-0.202,16.104c-0.419,2.859-0.878,5.708-0.698,8.612
			C137.945,195.107,137.962,195.584,137.992,196.22z"/>
		<path style="fill-rule:evenodd;clip-rule:evenodd;fill:none;" d="M43.372,107.334c0.317,14.726,0.839,29.37-0.01,43.9
			c-6.17-0.098-12.286-0.195-18.507-0.295c0-1.11,0.018-2.219-0.003-3.326c-0.136-7.024-0.248-14.049-0.433-21.072
			c-0.16-6.02-0.652-12.033-0.295-18.062c0.08-1.333,0.061-1.396,1.455-1.377c3.211,0.042,6.421,0.176,9.633,0.223
			C37.897,107.365,40.583,107.334,43.372,107.334z"/>
		<path style="fill-rule:evenodd;clip-rule:evenodd;fill:none;" d="M25.099,153.768c6.25,0.156,12.447,0.312,18.713,0.469
			c0.044,0.284,0.106,0.508,0.109,0.733c0.086,6.059,0.176,12.118,0.246,18.177c0.071,6.14,0.137,12.278,0.17,18.419
			c0.009,1.76-0.1,3.521-0.16,5.45c-6.29-0.12-12.481,0.603-18.829-0.054c0-0.549-0.031-1.094,0.004-1.637
			c0.423-6.422,0.007-12.832-0.194-19.248c-0.203-6.456-0.217-12.917-0.285-19.377C24.863,155.75,25.015,154.797,25.099,153.768z"/>
		<path style="fill-rule:evenodd;clip-rule:evenodd;fill:none;" d="M93.178,142.629c0.105,2.756,0.21,5.469,0.32,8.354
			c-7.497,0.446-14.936,0.256-22.528,0.003c0.013-14.575-1.154-29.075-0.514-43.734c7.389-0.139,14.708-0.277,22.207-0.418
			c0,4.805,0,9.365,0,13.942c-0.897,0.241-1.935,0.406-2.879,0.797c-2.275,0.943-3.717,2.744-4.671,4.953
			c-1.111,2.574-1.381,5.256-0.905,8.012c0.511,2.967,2.271,5,4.891,6.315C90.45,141.531,91.875,142.067,93.178,142.629z
			 M79.173,126.037c0.412-0.734,0.728-1.283,1.029-1.84c0.925-1.698,1.68-3.453,1.933-5.396c0.283-2.168-1.17-4.545-3.805-4.242
			c-1.579,0.182-3.459,1.75-3.781,3.303c-0.195,0.936-0.079,1.822,0.803,2.549c0.595-0.761,1.097-1.54,1.738-2.185
			c0.646-0.651,1.443-1.118,2.565-0.838c0,0.382,0.007,0.735-0.001,1.087c-0.048,2.154-0.947,3.946-2.355,5.523
			c-0.933,1.043-1.856,2.096-2.764,3.121c0.371,0.447,0.666,0.804,0.837,1.01c1.209,0.122,2.273,0.238,3.34,0.334
			c0.718,0.063,1.441,0.16,2.159,0.135c1.741-0.062,1.905-0.343,1.254-1.94c-0.026-0.064-0.113-0.103-0.223-0.198
			c-0.386-0.021-0.831-0.014-1.265-0.077C80.207,126.318,79.789,126.186,79.173,126.037z"/>
		<path style="fill-rule:evenodd;clip-rule:evenodd;fill:none;" d="M93.209,154.068c0.873,14.246,0.244,28.387-0.018,42.616
			c-7.168,0-14.212,0-21.511,0c-0.073-3.541-0.146-7.054-0.216-10.415c1.567-0.554,3.228-0.925,4.678-1.693
			c3.932-2.08,6.125-7.142,5.098-11.383c-0.502-2.071-1.66-3.708-3.348-4.994c-1.939-1.479-4.177-2.343-6.621-3.201
			c0-3.525,0-7.078,0-10.597C78.477,154.293,85.758,154.182,93.209,154.068z"/>
		<path style="fill-rule:evenodd;clip-rule:evenodd;fill:none;" d="M95.202,106.623c6.673-0.108,13.313-0.216,20.02-0.324
			c0,1.92-0.028,3.595,0.005,5.27c0.131,6.58,0.246,13.159,0.438,19.738c0.118,4.052,0.372,8.099,0.552,12.148
			c0.09,2.005,0.148,4.009,0.215,6.015c0.013,0.394,0.002,0.787,0.002,1.279c-6.779,0.582-13.447,0.945-20.379,0.506
			c-0.086-1.445-0.2-2.826-0.242-4.209c-0.041-1.355-0.01-2.714-0.01-4.133c3.555-1.115,6.084-3.598,8.251-6.567
			c2.633-3.606,2.045-7.576-0.388-10.803c-1.822-2.418-4.254-3.988-7.207-4.698c-0.547-0.131-0.822-0.34-0.879-0.93
			c-0.396-4.115-0.827-8.227-0.574-12.372C95.022,107.273,95.117,107.009,95.202,106.623z"/>
		<path style="fill-rule:evenodd;clip-rule:evenodd;fill:none;" d="M24.462,65.998c6.574-0.267,12.939-0.259,19.393,0.287
			c-0.13,12.66-0.26,25.239-0.391,37.955c-6.571,0.152-12.99,0.63-19.571-0.229C25.355,91.306,23.95,78.709,24.462,65.998z"/>
		<path style="fill-rule:evenodd;clip-rule:evenodd;fill:none;" d="M115.331,93.419c0,3.571,0,7.054,0,10.709
			c-0.978,0.1-1.958,0.287-2.938,0.284c-3.05-0.012-6.101-0.141-9.152-0.136c-2.407,0.004-4.814,0.14-7.223,0.216
			c-0.195,0.006-0.392,0.001-0.713,0.001c-0.729-12.884-0.885-25.746-0.266-38.785c6.83-0.213,13.663,0.126,20.598,0.195
			c0,3.696,0,7.292,0,10.916c-3.238,1.707-5.25,4.359-6.043,7.942c-0.673,3.048,0.537,5.832,3.249,7.368
			C113.644,92.584,114.477,92.979,115.331,93.419z"/>
		<path style="fill-rule:evenodd;clip-rule:evenodd;fill:none;" d="M68.283,196.222c-7.29,0.181-14.458,0.358-21.562,0.533
			c0.035-13.997,0.07-28.18,0.107-42.482c7.3,0.214,14.388,0.679,21.393-0.262c0.923,1.727,1.025,4.699,0.438,11.253
			c-0.443,0.082-0.917,0.146-1.375,0.263c-3.079,0.79-5.183,2.682-6.137,5.708c-1.267,4.018-0.619,7.771,1.917,11.146
			c1.146,1.525,2.691,2.502,4.589,2.86c0.542,0.104,0.973,0.236,1.042,0.925C69.039,189.586,68.639,192.963,68.283,196.222z
			 M57.295,170.024c0.482-1.186,1.117-2.166,1.253-3.212c0.258-1.987-1.429-4.125-3.573-4.885c-1.111-0.393-2.229-0.518-3.162,0.363
			c-1.003,0.949-1.188,2.178-1.067,3.638c0.473-0.089,0.832-0.106,1.15-0.228c0.558-0.211,1.079-0.526,1.642-0.727
			c0.835-0.299,1.583,0.012,2.023,0.792c0.406,0.721,0.175,1.321-0.42,1.801c-0.499,0.401-1.042,0.746-1.546,1.141
			c-0.636,0.498-1.251,1.024-1.885,1.547c0.647,0.91,1.445,0.88,2.174,1.045c0.65,0.148,1.409,0.223,1.516,1.112
			c0.126,1.047,0.221,2.159-0.541,2.968c-0.243,0.256-1.07,0.123-1.55-0.053c-0.461-0.168-0.795-0.656-1.228-0.941
			c-0.566-0.372-1.172-0.686-1.786-1.038c-0.489,1.174-0.512,1.961,0.117,3.191c0.203,0.395,0.833,0.605,1.303,0.819
			c0.508,0.229,1.053,0.487,1.592,0.514c0.891,0.042,2.009,0.227,2.645-0.212C58.043,176.22,59.616,172.399,57.295,170.024z"/>
		<path style="fill-rule:evenodd;clip-rule:evenodd;fill:none;" d="M138.097,65.921c0,3.269,0,6.336,0,9.536
			c-6.747-1.508-13.261,0.096-19.897,0.792c0.127-3.512,0.249-6.941,0.371-10.329C125.12,65.921,131.558,65.921,138.097,65.921z"/>
		<path style="fill-rule:evenodd;clip-rule:evenodd;fill:none;" d="M137.904,104.06c-6.882,0-13.522,0-20.31,0
			c0.113-3.157,0.229-6.35,0.353-9.759c1.242,0.118,2.537,0.201,3.821,0.368c4.26,0.553,8.521,1.063,12.827,0.838
			c1.111-0.058,2.214-0.232,3.309-0.353C137.904,98.082,137.904,100.953,137.904,104.06z"/>
		<path style="fill-rule:evenodd;clip-rule:evenodd;fill:none;" d="M68.053,51.131c-0.494-3.287-0.969-6.486-0.543-9.878
			c2.582-0.064,4.995,0.361,7.006,2.014c1.768,1.454,1.603,4.123-0.245,5.687c-1.367,1.157-3.068,1.518-4.743,1.927
			C69.103,50.984,68.664,51.03,68.053,51.131z"/>
		<path style="fill-rule:evenodd;clip-rule:evenodd;fill:none;" d="M45.097,43.741c1.714,0.537,1.451,2.117,2.076,3.209
			c-1.223,0.754-2.431,0.505-3.871,0.26C43.905,46.044,44.468,44.956,45.097,43.741z"/>
		<path style="fill-rule:evenodd;clip-rule:evenodd;" d="M79.173,126.037c0.615,0.148,1.034,0.281,1.463,0.345
			c0.434,0.063,0.878,0.056,1.265,0.077c0.11,0.096,0.197,0.134,0.223,0.198c0.651,1.598,0.487,1.878-1.254,1.94
			c-0.717,0.025-1.44-0.071-2.159-0.135c-1.067-0.096-2.131-0.212-3.34-0.334c-0.171-0.206-0.466-0.562-0.837-1.01
			c0.908-1.025,1.832-2.078,2.764-3.121c1.409-1.577,2.307-3.369,2.355-5.523c0.008-0.352,0.001-0.705,0.001-1.087
			c-1.122-0.28-1.919,0.187-2.565,0.838c-0.641,0.645-1.143,1.424-1.738,2.185c-0.881-0.727-0.998-1.613-0.803-2.549
			c0.322-1.553,2.202-3.121,3.781-3.303c2.635-0.303,4.088,2.074,3.805,4.242c-0.253,1.943-1.008,3.698-1.933,5.396
			C79.901,124.754,79.585,125.303,79.173,126.037z"/>
		<path style="fill-rule:evenodd;clip-rule:evenodd;" d="M57.295,170.024c2.321,2.375,0.749,6.195-1.344,7.636
			c-0.636,0.438-1.754,0.254-2.645,0.212c-0.539-0.026-1.084-0.284-1.592-0.514c-0.471-0.214-1.101-0.425-1.303-0.819
			c-0.629-1.23-0.606-2.018-0.117-3.191c0.613,0.353,1.22,0.666,1.786,1.038c0.432,0.285,0.767,0.773,1.228,0.941
			c0.479,0.176,1.307,0.309,1.55,0.053c0.762-0.809,0.667-1.921,0.541-2.968c-0.107-0.89-0.866-0.964-1.516-1.112
			c-0.729-0.165-1.527-0.135-2.174-1.045c0.634-0.522,1.249-1.049,1.885-1.547c0.503-0.395,1.047-0.739,1.546-1.141
			c0.596-0.479,0.826-1.08,0.42-1.801c-0.44-0.78-1.188-1.091-2.023-0.792c-0.562,0.2-1.083,0.516-1.642,0.727
			c-0.319,0.121-0.677,0.139-1.15,0.228c-0.121-1.46,0.064-2.688,1.067-3.638c0.933-0.881,2.051-0.756,3.162-0.363
			c2.145,0.76,3.831,2.897,3.573,4.885C58.412,167.858,57.777,168.839,57.295,170.024z"/>
	</g>
</g>
<g id="Layer_1">
</g>
</svg>
