<?xml version="1.0" encoding="UTF-8" standalone="no"?>
<!DOCTYPE svg PUBLIC "-//W3C//DTD SVG 1.1//EN" "http://www.w3.org/Graphics/SVG/1.1/DTD/svg11.dtd">
<svg width="100%" height="100%" viewBox="0 0 963 1280" version="1.1" xmlns="http://www.w3.org/2000/svg" xmlns:xlink="http://www.w3.org/1999/xlink" xml:space="preserve" xmlns:serif="http://www.serif.com/" style="fill-rule:evenodd;clip-rule:evenodd;stroke-linejoin:round;stroke-miterlimit:2;">
    <g transform="matrix(1.16262,0,0,1.16262,501.096,561.181)">
        <g id="Dbsus2" transform="matrix(1,0,0,1,-338.5,-621)">
            <g transform="matrix(0.1,0,0,-0.1,0,1242)">
                <path d="M4326,10760C4291,10749 4244,10706 4223,10667C4206,10634 4213,10585 4236,10576C4257,10568 4293,10589 4286,10605C4283,10613 4298,10634 4321,10654C4370,10695 4396,10692 4417,10641C4439,10589 4429,10518 4385,10425C4365,10381 4332,10311 4313,10270C4294,10229 4265,10174 4248,10148C4221,10105 4220,10098 4232,10073C4244,10048 4249,10046 4300,10049C4330,10050 4372,10056 4394,10061C4415,10067 4477,10073 4532,10076C4617,10079 4634,10083 4655,10103C4707,10150 4635,10172 4471,10158C4424,10154 4385,10152 4383,10154C4381,10155 4389,10175 4400,10198C4435,10270 4486,10402 4504,10469C4532,10569 4508,10694 4452,10743C4428,10765 4367,10773 4326,10760Z" style="fill-rule:nonzero;"/>
                <path d="M2313,10648C2287,10636 2284,10609 2301,10545C2307,10523 2316,10485 2321,10460C2327,10435 2334,10408 2337,10400C2358,10346 2388,10137 2390,10029C2390,10019 2405,10006 2426,9998C2456,9986 2475,9985 2534,9995C2621,10008 2628,10012 2685,10079C2723,10123 2730,10138 2730,10173C2730,10238 2711,10291 2676,10326C2633,10369 2601,10376 2542,10356C2516,10346 2488,10337 2479,10334C2463,10329 2456,10348 2399,10564C2373,10660 2361,10671 2313,10648ZM2629,10247C2645,10216 2646,10192 2631,10147C2618,10109 2592,10091 2510,10065C2488,10058 2487,10059 2498,10073C2508,10085 2509,10102 2499,10155C2488,10218 2489,10222 2511,10246C2542,10279 2611,10280 2629,10247Z" style="fill-rule:nonzero;"/>
                <path d="M1783,10617C1756,10580 1748,10548 1753,10503C1756,10477 1767,10383 1778,10295C1789,10207 1798,10128 1799,10120C1802,10076 1829,9957 1838,9948C1853,9933 1884,9943 1894,9966C1901,9982 1915,9989 1944,9992C1999,9999 2118,10057 2156,10096C2223,10164 2254,10286 2229,10391C2216,10447 2131,10563 2075,10602C2042,10624 2024,10629 1975,10629C1942,10629 1894,10625 1868,10621C1843,10617 1815,10617 1807,10622C1798,10627 1789,10625 1783,10617ZM2025,10530C2056,10518 2125,10430 2140,10384C2154,10343 2147,10242 2129,10209C2101,10155 2047,10111 1980,10085C1942,10070 1908,10058 1904,10057C1900,10056 1896,10069 1894,10085C1890,10125 1860,10337 1854,10375C1851,10392 1846,10428 1843,10455C1838,10503 1839,10507 1866,10520C1928,10551 1965,10553 2025,10530Z" style="fill-rule:nonzero;"/>
                <path d="M3781,10479C3717,10451 3690,10418 3690,10370C3690,10347 3697,10316 3705,10301C3720,10270 3774,10240 3812,10240C3861,10240 3920,10197 3920,10162C3920,10152 3827,10110 3805,10110C3792,10110 3757,10148 3747,10173C3742,10185 3733,10189 3714,10186C3681,10180 3680,10179 3674,10144C3672,10128 3668,10110 3665,10103C3663,10097 3668,10086 3676,10080C3684,10073 3690,10062 3690,10054C3690,10034 3718,10030 3814,10034C3895,10039 3904,10041 3940,10072C3964,10092 3981,10118 3985,10138C3994,10178 3986,10236 3969,10257C3953,10275 3889,10309 3830,10330C3771,10351 3770,10374 3829,10378C3864,10381 3875,10377 3887,10360C3898,10345 3910,10340 3933,10342C3962,10345 3965,10348 3963,10378C3962,10412 3933,10452 3896,10472C3851,10496 3823,10498 3781,10479Z" style="fill-rule:nonzero;"/>
                <path d="M2935,10441C2875,10414 2848,10379 2846,10329C2845,10292 2850,10283 2885,10253C2906,10235 2936,10217 2950,10213C2984,10205 3033,10180 3042,10166C3079,10111 2989,10080 2910,10120C2857,10147 2840,10146 2840,10114C2840,10076 2886,10039 2955,10021C3014,10005 3016,10005 3059,10029C3127,10067 3156,10130 3129,10183C3112,10218 3051,10267 3004,10285C2970,10298 2960,10307 2960,10325C2960,10361 2984,10375 3021,10360C3059,10344 3073,10359 3065,10405C3055,10461 3007,10474 2935,10441Z" style="fill-rule:nonzero;"/>
                <path d="M3172,10438C3143,10409 3168,10215 3211,10128C3260,10031 3410,10042 3468,10146C3476,10161 3479,10156 3485,10118C3490,10083 3498,10070 3516,10061C3549,10046 3565,10047 3579,10064C3591,10079 3588,10109 3556,10275C3547,10319 3538,10372 3535,10392C3528,10436 3499,10451 3470,10425C3459,10415 3452,10404 3455,10400C3458,10395 3443,10307 3425,10233C3422,10222 3408,10207 3393,10201C3377,10195 3349,10181 3330,10170L3295,10150L3279,10187C3249,10255 3240,10295 3240,10354C3240,10385 3235,10420 3230,10431C3218,10452 3190,10456 3172,10438Z" style="fill-rule:nonzero;"/>
                <path d="M1256,9763C1252,9759 1194,9755 1127,9754C993,9753 985,9752 959,9731C940,9716 940,9717 956,9516C963,9429 965,9414 975,9371C979,9352 984,9321 985,9301C987,9281 989,9263 991,9260C993,9256 995,9227 999,9178C1000,9163 1014,9162 1138,9165C1284,9169 1337,9173 1346,9183C1359,9196 1363,9272 1351,9280C1333,9291 1142,9291 1135,9279C1122,9259 1090,9270 1084,9298C1081,9313 1074,9340 1068,9358C1063,9376 1061,9394 1064,9398C1068,9401 1092,9406 1117,9408C1188,9414 1200,9423 1200,9476C1200,9528 1183,9539 1110,9534C1083,9532 1062,9536 1058,9543C1045,9563 1049,9608 1064,9613C1071,9616 1126,9618 1185,9618C1303,9618 1310,9622 1310,9677C1310,9694 1316,9711 1323,9714C1331,9717 1325,9728 1305,9744C1273,9772 1267,9774 1256,9763Z" style="fill-rule:nonzero;"/>
                <path d="M1980,9710C1957,9705 1903,9631 1901,9603C1900,9596 1889,9570 1875,9544C1861,9518 1850,9492 1850,9487C1850,9481 1844,9469 1836,9461C1811,9432 1712,9228 1704,9190C1700,9169 1744,9115 1758,9124C1764,9128 1783,9159 1799,9193L1829,9256L1882,9257C1911,9258 1955,9262 1980,9265C2079,9280 2079,9280 2086,9257C2090,9245 2106,9205 2122,9168C2153,9099 2152,9100 2211,9112C2231,9117 2260,9145 2260,9160C2260,9166 2249,9192 2235,9218C2221,9244 2210,9274 2210,9285C2210,9297 2199,9322 2185,9341C2171,9360 2132,9431 2098,9500C2064,9568 2031,9630 2024,9637C2017,9644 2014,9658 2017,9669C2025,9699 2009,9717 1980,9710ZM2006,9434C2020,9403 2028,9374 2023,9370C2019,9365 1989,9360 1957,9358C1903,9354 1900,9355 1906,9374C1910,9386 1921,9407 1931,9422C1942,9436 1950,9452 1950,9457C1950,9465 1970,9490 1977,9490C1979,9490 1992,9465 2006,9434Z" style="fill-rule:nonzero;"/>
                <path d="M2735,9690C2725,9679 2709,9668 2700,9665C2678,9658 2664,9601 2667,9535C2672,9442 2689,9255 2694,9230C2698,9214 2693,9199 2678,9183C2666,9170 2661,9160 2667,9160C2673,9160 2680,9151 2683,9141C2694,9097 2880,9103 2988,9151C3096,9198 3185,9277 3198,9337C3215,9420 3180,9502 3094,9579C3062,9607 3034,9628 3032,9625C3029,9622 3022,9627 3016,9635C3010,9644 2995,9652 2982,9655C2970,9657 2954,9662 2947,9667C2941,9671 2928,9676 2920,9678C2878,9687 2852,9691 2818,9693C2798,9694 2778,9699 2774,9703C2763,9714 2754,9711 2735,9690ZM2876,9565C2927,9563 3028,9520 3045,9493C3054,9479 3059,9466 3056,9463C3053,9459 3054,9452 3060,9445C3065,9439 3071,9417 3073,9397C3077,9362 3073,9356 3026,9315C2998,9290 2969,9270 2962,9270C2955,9270 2940,9262 2929,9251C2918,9241 2898,9234 2885,9236C2871,9237 2862,9234 2866,9229C2869,9224 2853,9220 2831,9220C2799,9220 2790,9224 2789,9238C2789,9247 2786,9271 2784,9290C2782,9309 2778,9383 2776,9453L2773,9582L2809,9574C2829,9570 2859,9566 2876,9565Z" style="fill-rule:nonzero;"/>
                <path d="M4315,9690C4311,9684 4312,9674 4317,9668C4326,9653 4327,9635 4335,9390C4343,9140 4346,9122 4375,9134C4382,9136 4393,9133 4399,9127C4407,9119 4410,9119 4410,9129C4410,9136 4414,9139 4419,9135C4436,9125 4443,9152 4445,9239L4447,9325L4539,9336C4620,9345 4632,9344 4639,9331C4646,9316 4646,9269 4638,9172C4630,9080 4714,9051 4756,9132C4769,9157 4769,9164 4759,9171C4749,9177 4745,9223 4744,9367C4743,9540 4742,9559 4721,9602C4708,9628 4690,9652 4679,9655C4669,9659 4660,9666 4660,9671C4660,9676 4654,9680 4648,9680C4638,9680 4635,9652 4634,9577C4631,9421 4641,9435 4534,9435C4483,9435 4439,9438 4435,9442C4427,9450 4426,9605 4434,9618C4437,9623 4434,9634 4427,9643C4411,9665 4322,9702 4315,9690Z" style="fill-rule:nonzero;"/>
                <path d="M3697,9683C3692,9679 3677,9675 3662,9674C3604,9671 3563,9645 3486,9560C3450,9521 3447,9513 3447,9461C3447,9372 3455,9337 3493,9262C3518,9214 3571,9160 3595,9160C3604,9160 3613,9153 3616,9145C3620,9137 3630,9130 3640,9130C3651,9130 3661,9126 3664,9121C3672,9109 3800,9115 3837,9129C3879,9145 3884,9142 3884,9100C3885,9066 3886,9065 3926,9062C3982,9058 4000,9077 3994,9133C3991,9156 3985,9220 3980,9275C3969,9405 3957,9418 3843,9418C3800,9418 3761,9415 3755,9410C3750,9406 3725,9403 3701,9404C3651,9406 3645,9399 3657,9338C3665,9297 3667,9295 3702,9295C3722,9295 3737,9297 3734,9301C3732,9304 3755,9308 3785,9309C3814,9310 3841,9307 3844,9302C3853,9287 3776,9222 3740,9214C3693,9204 3643,9208 3611,9225C3543,9260 3527,9397 3580,9499C3597,9534 3640,9581 3640,9565C3640,9561 3646,9563 3653,9569C3672,9584 3763,9586 3768,9572C3770,9565 3775,9562 3780,9565C3785,9568 3791,9561 3795,9550C3802,9527 3848,9500 3879,9500C3895,9500 3898,9506 3896,9528C3894,9543 3892,9560 3891,9566C3891,9572 3868,9600 3841,9628C3803,9667 3786,9678 3766,9676C3752,9674 3740,9677 3740,9683C3740,9688 3734,9687 3726,9681C3716,9672 3711,9672 3708,9680C3706,9686 3701,9688 3697,9683Z" style="fill-rule:nonzero;"/>
                <path d="M5453,9660C5451,9657 5387,9655 5312,9655L5175,9654L5175,9515C5175,9438 5179,9323 5183,9260C5188,9197 5192,9134 5192,9120L5193,9095L5331,9092C5438,9090 5481,9093 5517,9105C5580,9126 5593,9138 5577,9155C5542,9189 5506,9197 5388,9193L5272,9189L5265,9231C5256,9284 5267,9295 5330,9291C5358,9290 5394,9291 5411,9295C5439,9301 5440,9304 5436,9338C5425,9420 5432,9415 5344,9412L5265,9409L5262,9447C5261,9468 5259,9496 5257,9510C5255,9538 5240,9536 5413,9530C5453,9529 5486,9533 5495,9540C5503,9546 5513,9549 5519,9546C5534,9536 5543,9578 5535,9626C5529,9669 5528,9670 5494,9667C5474,9666 5456,9663 5453,9660Z" style="fill-rule:nonzero;"/>
                <path d="M785,8969C781,8964 788,8754 792,8718C795,8694 830,8686 955,8684C1016,8683 1077,8682 1091,8681L1117,8680L1119,8568C1126,8325 1126,7803 1119,7767C1116,7747 1116,7727 1121,7724C1125,7722 1127,7714 1125,7707C1121,7696 1114,7584 1105,7388C1100,7275 1097,7270 1044,7270C1019,7270 991,7274 981,7280C971,7285 946,7290 926,7292C906,7293 890,7298 890,7303C890,7308 883,7307 875,7300C866,7293 857,7290 854,7293C851,7296 837,7287 824,7273C806,7253 803,7244 811,7229C821,7210 860,7184 860,7196C860,7199 866,7198 873,7192C880,7186 931,7178 986,7175C1040,7172 1090,7169 1095,7168C1101,7167 1106,7113 1107,7031C1108,6956 1111,6729 1114,6525C1122,6088 1120,5612 1111,5559C1110,5555 1098,5554 1083,5556C1067,5557 1001,5561 935,5564C827,5568 813,5567 792,5550C766,5528 769,5496 798,5481C807,5477 871,5472 939,5472C1091,5471 1116,5466 1123,5437C1129,5415 1128,5399 1115,5270C1101,5137 1092,4285 1101,4000L1105,3865L1055,3864C953,3862 805,3848 797,3841C792,3836 800,3807 814,3777L839,3721L877,3737C904,3749 947,3754 1025,3755L1135,3756L1137,3720C1152,3312 1155,2261 1140,2246C1129,2235 1060,2231 1060,2241C1060,2244 1028,2246 990,2246C951,2245 920,2248 920,2251C920,2259 882,2255 874,2247C870,2243 857,2240 845,2240C808,2240 795,2215 817,2186C840,2155 869,2150 998,2154C1108,2157 1162,2152 1155,2140C1153,2136 1154,2120 1159,2104C1163,2088 1161,2035 1155,1985C1149,1936 1144,1812 1144,1710L1145,1525L1187,1522C1264,1516 1260,1505 1265,1801C1271,2169 1268,2145 1313,2135C1331,2132 1476,2126 1635,2124C1795,2121 1929,2115 1933,2111C1937,2107 1942,1978 1943,1824L1945,1545L1992,1545C2018,1546 2042,1549 2046,1553C2050,1556 2053,1684 2054,1837L2055,2115L2155,2110C2270,2104 2808,2105 2829,2111C2842,2115 2848,2000 2852,1618C2852,1580 2857,1576 2895,1579C2955,1584 2954,1583 2951,1645C2950,1677 2945,1712 2941,1724C2937,1736 2936,1756 2940,1770C2944,1784 2945,1864 2942,1947C2940,2031 2942,2100 2947,2101C2951,2101 3113,2102 3305,2104C3498,2106 3667,2110 3682,2114C3719,2125 3721,2113 3726,1882C3729,1774 3732,1654 3733,1616L3735,1547L3773,1545C3812,1544 3812,1545 3812,1600C3812,1614 3817,1629 3824,1633C3832,1639 3832,1643 3822,1647C3816,1649 3813,1657 3817,1663C3822,1670 3825,1774 3825,1894L3825,2114L3975,2112C4058,2110 4185,2108 4258,2107C4330,2106 4390,2109 4390,2114C4390,2119 4396,2118 4403,2113C4409,2108 4424,2105 4435,2106C4548,2120 4559,2118 4559,2085C4559,2074 4562,1941 4565,1790C4570,1543 4572,1515 4587,1518C4616,1524 4649,1551 4649,1568L4649,1765C4650,1864 4648,1981 4644,2025L4638,2105L4716,2107C4760,2108 4804,2109 4815,2109L4845,2109C4851,2109 4916,2111 4990,2115C5064,2118 5168,2122 5220,2124L5315,2127L5316,2036C5317,1986 5319,1867 5321,1773L5325,1600L5355,1599C5372,1598 5396,1596 5410,1595L5436,1592L5435,1863L5435,2135L5515,2132C5669,2128 5681,2128 5694,2139C5701,2145 5710,2147 5713,2143C5728,2129 5719,2181 5702,2208C5683,2240 5703,2238 5490,2227L5425,2224L5422,2354C5420,2426 5417,2538 5416,2602L5413,2720L5463,2745C5491,2759 5521,2770 5530,2770C5539,2770 5555,2779 5565,2790C5575,2801 5588,2810 5594,2810C5600,2810 5616,2827 5630,2847C5653,2881 5655,2892 5654,2990C5652,3121 5633,3189 5586,3225C5545,3257 5483,3278 5448,3273C5421,3269 5420,3270 5419,3322C5418,3351 5419,3380 5420,3385C5421,3391 5425,3469 5427,3560C5429,3651 5434,3727 5436,3730C5439,3732 5505,3735 5583,3735L5725,3735L5726,3770C5726,3789 5724,3813 5722,3823C5713,3859 5613,3882 5465,3882L5395,3882L5393,4103C5391,4225 5389,4399 5388,4490C5386,4581 5389,4718 5394,4795C5399,4872 5402,4946 5402,4960C5402,4981 5401,5148 5401,5255C5401,5272 5400,5323 5399,5369C5397,5463 5401,5469 5463,5464C5580,5453 5616,5449 5626,5446C5632,5444 5650,5452 5666,5465L5695,5488L5676,5525L5656,5561L5556,5557C5500,5554 5455,5551 5455,5550C5455,5549 5445,5547 5432,5546C5408,5543 5394,5555 5391,5580C5384,5631 5386,6696 5392,6840C5397,6936 5402,7051 5403,7095L5406,7175L5445,7174C5467,7173 5528,7170 5581,7166C5723,7155 5798,7181 5749,7226C5739,7235 5727,7241 5724,7237C5721,7234 5702,7240 5683,7251C5654,7267 5630,7271 5561,7270C5514,7269 5456,7269 5432,7269L5390,7270L5392,7495L5395,7720L5430,7726C5574,7749 5617,7770 5656,7838C5704,7923 5695,8016 5628,8127C5584,8199 5532,8225 5425,8229L5395,8230L5395,8442C5395,8645 5396,8653 5415,8657C5426,8659 5512,8662 5607,8662C5734,8663 5782,8660 5794,8651C5807,8640 5811,8642 5820,8666C5847,8737 5826,8949 5792,8951C5714,8955 5411,8952 5402,8946C5395,8942 5390,8942 5390,8947C5390,8951 5371,8954 5348,8953C5241,8946 5180,8945 5180,8950C5180,8953 5155,8954 5125,8953C5095,8953 5070,8956 5070,8960C5070,8965 5056,8965 5040,8960C5020,8954 5010,8955 5010,8962C5010,8968 5004,8968 4995,8960C4987,8953 4980,8951 4980,8956C4980,8972 4357,8977 3895,8964C3629,8957 1807,8952 1795,8959C1790,8962 1754,8966 1715,8967C1575,8973 788,8975 785,8969ZM1815,8667C1859,8666 1898,8661 1901,8657C1904,8652 1905,8517 1904,8357C1902,8196 1898,7887 1896,7670C1894,7453 1892,7273 1891,7270C1890,7265 1437,7265 1293,7270C1241,7272 1210,7277 1209,7284C1207,7296 1207,7293 1216,7480C1220,7554 1222,7674 1222,7745C1222,7817 1221,8035 1221,8230C1220,8531 1221,8611 1229,8672C1230,8677 1344,8677 1483,8674C1621,8671 1771,8667 1815,8667ZM2787,8666C2789,8664 2793,8561 2794,8438L2797,8215L2753,8213C2704,8211 2633,8174 2601,8134C2565,8088 2547,8014 2553,7937C2556,7898 2564,7864 2570,7860C2577,7856 2581,7850 2581,7846C2577,7821 2582,7810 2596,7810C2606,7810 2610,7804 2607,7796C2604,7788 2609,7775 2619,7766C2640,7747 2654,7745 2644,7763C2640,7769 2649,7762 2664,7746C2685,7724 2694,7720 2700,7730C2706,7739 2710,7738 2717,7725C2725,7711 2731,7710 2749,7719C2761,7726 2774,7729 2779,7726C2783,7723 2785,7620 2783,7498C2780,7319 2777,7273 2765,7264C2751,7254 2016,7251 2005,7261C2003,7264 2000,7295 2000,7331C1999,7366 1998,7418 1997,7445C1993,7572 1998,8254 2004,8420C2008,8522 2012,8617 2013,8633C2014,8656 2018,8660 2044,8661C2061,8661 2200,8663 2353,8665C2506,8666 2633,8670 2635,8672C2641,8677 2781,8672 2787,8666ZM3543,8671L3661,8670L3655,8618C3648,8564 3648,8446 3655,8375C3657,8353 3661,8306 3664,8271L3670,8208L3634,8214C3615,8218 3592,8224 3584,8227C3576,8230 3570,8228 3570,8222C3570,8201 2915,8212 2893,8234C2890,8236 2886,8323 2883,8427C2881,8530 2878,8626 2876,8640C2875,8654 2875,8667 2876,8670C2877,8673 3001,8675 3152,8674C3302,8672 3478,8671 3543,8671ZM3936,8670C3960,8674 3980,8674 3980,8671C3980,8668 4096,8664 4237,8663L4495,8662L4495,8437C4495,8313 4492,8209 4488,8205C4480,8196 4195,8197 4025,8206C3959,8209 3872,8212 3831,8213L3757,8215L3760,8375C3761,8463 3763,8564 3764,8600L3765,8665L3802,8666C3823,8666 3842,8669 3846,8672C3849,8676 3861,8675 3872,8671C3884,8667 3912,8667 3936,8670ZM4758,8655C4764,8653 4770,8656 4770,8662C4770,8668 4775,8669 4783,8664C4789,8659 4904,8655 5038,8655C5245,8655 5281,8653 5285,8640C5287,8632 5288,8532 5287,8418L5285,8212L5155,8212C5084,8212 5022,8214 5017,8217C5006,8224 4884,8223 4728,8215C4608,8208 4600,8209 4599,8226C4594,8308 4606,8646 4615,8660C4619,8667 4736,8663 4758,8655ZM3553,7729L3660,7726L3661,7695C3662,7679 3664,7640 3666,7610C3670,7539 3670,7364 3666,7325C3659,7258 3649,7240 3624,7244C3586,7251 3300,7254 3294,7247C3291,7244 3278,7245 3265,7250C3252,7255 3240,7256 3236,7253C3229,7246 2889,7248 2882,7255C2876,7261 2882,7677 2889,7732C2890,7736 2934,7737 2988,7736C3042,7734 3117,7736 3155,7739C3194,7742 3275,7742 3335,7738C3396,7735 3493,7730 3553,7729ZM4641,7740C4701,7738 5195,7737 5245,7739L5285,7740L5283,7603C5281,7527 5279,7420 5278,7365L5275,7265L5103,7264C5008,7264 4930,7268 4930,7272C4930,7277 4925,7278 4919,7275C4914,7271 4834,7267 4742,7266L4575,7263L4577,7404C4577,7482 4578,7591 4579,7648C4580,7705 4584,7749 4588,7746C4593,7743 4616,7741 4641,7740ZM4155,7728C4265,7727 4383,7731 4418,7735L4480,7742L4481,7713C4481,7698 4482,7588 4482,7470L4482,7256L4364,7256C4298,7256 4150,7258 4033,7260C3916,7262 3818,7261 3814,7257C3810,7254 3799,7255 3790,7260C3776,7268 3772,7283 3771,7332C3770,7367 3766,7468 3762,7558C3758,7647 3756,7725 3758,7730C3760,7736 3799,7738 3858,7734C3911,7731 4045,7728 4155,7728ZM4469,7171C4479,7164 4483,7133 4483,7048C4483,6985 4481,6929 4479,6924C4471,6909 4484,6313 4495,6210C4500,6160 4509,5873 4513,5640L4515,5545L4405,5543C4078,5536 3906,5535 3855,5540L3797,5545L3795,5615C3794,5654 3789,5939 3785,6250C3781,6561 3776,6819 3773,6823C3763,6839 3760,7117 3769,7141C3777,7164 3782,7165 3901,7170C4121,7179 4455,7179 4469,7171ZM5267,6878C5268,6717 5271,6531 5274,6465C5278,6399 5282,6247 5284,6128C5286,6009 5291,5907 5295,5901C5298,5895 5298,5890 5293,5890C5289,5890 5285,5824 5285,5742C5285,5661 5284,5586 5282,5574C5279,5555 5271,5554 5172,5551C4865,5544 4631,5543 4621,5550C4609,5557 4604,5618 4598,5842C4596,5913 4593,5970 4590,5970C4587,5970 4584,6027 4584,6098C4583,6168 4579,6299 4576,6390C4569,6543 4568,6706 4569,7037C4570,7154 4572,7169 4588,7172C4597,7174 4754,7175 4935,7174L5265,7172L5267,6878ZM1657,7157L1890,7155L1891,7125C1899,6794 1901,6661 1901,6375C1901,6088 1895,5573 1891,5548C1890,5543 1851,5543 1803,5546C1754,5549 1607,5552 1475,5553L1235,5555L1234,5785C1234,5912 1231,6096 1227,6195C1211,6601 1208,6695 1206,6900C1205,7018 1206,7125 1208,7137C1213,7163 1227,7166 1340,7162C1387,7161 1530,7159 1657,7157ZM3668,7156C3672,7152 3680,6644 3685,6125C3688,5900 3691,5676 3692,5628L3695,5541L3305,5546C3091,5549 2914,5553 2912,5555C2909,5557 2905,5626 2903,5707C2901,5788 2897,5909 2895,5975C2887,6250 2878,7094 2884,7123L2890,7155L3077,7154C3181,7154 3277,7156 3293,7159C3320,7165 3662,7161 3668,7156ZM2395,7145L2765,7144L2766,7049C2767,6997 2770,6867 2774,6760C2777,6653 2782,6484 2785,6385C2788,6286 2792,6133 2795,6045C2798,5957 2801,5808 2801,5715L2802,5545L2015,5545L2014,5600C2010,5787 1998,6405 1994,6620C1992,6760 1989,6915 1987,6963C1986,7012 1987,7053 1991,7055C1994,7057 1995,7078 1994,7102C1992,7151 1996,7163 2013,7153C2019,7149 2191,7146 2395,7145ZM1406,5445C1477,5441 1615,5437 1713,5436C1811,5434 1894,5430 1897,5426C1905,5419 1909,4955 1909,4315C1909,4112 1909,3928 1910,3908C1910,3887 1910,3870 1908,3869C1906,3869 1756,3866 1575,3864L1244,3858L1242,4152C1242,4313 1238,4540 1234,4655C1225,4918 1224,5272 1232,5369C1237,5436 1251,5467 1270,5455C1274,5453 1335,5448 1406,5445ZM5281,5396C5281,5363 5283,5292 5286,5240C5293,5112 5293,4335 5286,4285C5264,4126 5261,4070 5270,3965C5276,3888 5267,3873 5212,3865C5186,3862 5118,3862 5060,3866C5002,3869 4928,3872 4895,3871C4862,3870 4783,3868 4720,3867L4605,3865L4603,3900C4599,3985 4600,4250 4605,4420C4614,4694 4616,5360 4607,5398L4600,5432L4650,5428C4678,5427 4700,5428 4700,5432C4700,5436 4713,5435 4729,5430C4745,5426 4760,5423 4762,5425C4765,5429 4959,5439 5123,5445C5160,5446 5192,5449 5194,5451C5197,5453 5217,5456 5239,5456L5280,5458L5281,5396ZM2815,5165C2815,5019 2817,4900 2820,4900C2823,4900 2825,4810 2825,4700C2825,4590 2823,4500 2820,4500C2817,4500 2814,4445 2813,4377C2810,4221 2803,4064 2795,3975C2791,3937 2788,3900 2787,3895C2787,3888 2690,3885 2511,3884C2256,3884 2077,3878 2040,3869C2030,3866 2026,3871 2028,3885C2034,3926 2033,4009 2024,4125C2015,4248 2014,4341 2023,4419C2025,4443 2023,4478 2018,4496C2006,4541 2002,4629 2011,4663C2015,4678 2015,4690 2011,4690C2006,4690 2005,4702 2007,4718C2009,4733 2013,4898 2015,5085L2019,5425L2362,5422C2551,5421 2725,5424 2750,5428C2775,5433 2800,5435 2805,5433C2811,5431 2815,5333 2815,5165ZM3688,5329C3693,5138 3692,4648 3686,4355C3683,4196 3679,4022 3678,3969L3676,3873L3301,3875C3094,3877 2922,3878 2918,3879C2911,3880 2908,4077 2910,4460C2913,4841 2913,5011 2909,5214L2906,5423L3252,5424C3443,5425 3601,5428 3604,5430C3607,5433 3626,5435 3647,5435L3685,5434L3688,5329ZM4145,5431C4244,5431 4370,5432 4425,5433L4526,5435L4529,5280C4535,5048 4533,4685 4525,4510C4521,4425 4517,4248 4516,4117C4514,3987 4510,3877 4506,3873C4492,3859 3797,3850 3784,3863C3773,3874 3773,4619 3784,4905C3793,5142 3794,5274 3786,5370C3784,5400 3783,5427 3785,5430C3787,5433 3828,5434 3877,5433C3925,5431 4046,5430 4145,5431ZM1906,3758C1917,3746 1921,3700 1925,3515C1927,3422 1929,3327 1930,3305C1931,3283 1931,3260 1931,3253C1930,3247 1906,3234 1878,3224C1822,3206 1788,3175 1744,3102C1722,3066 1717,3046 1716,2982C1715,2900 1730,2854 1774,2807C1787,2793 1800,2776 1803,2769C1806,2761 1834,2742 1867,2725C1899,2709 1927,2694 1929,2693C1932,2691 1932,2637 1931,2572C1929,2508 1927,2408 1926,2350C1925,2292 1921,2240 1918,2234C1913,2226 1885,2224 1838,2227C1798,2229 1653,2233 1515,2234L1265,2237L1267,2271C1268,2290 1270,2361 1270,2430C1271,2547 1269,2633 1256,2985C1242,3350 1239,3454 1239,3575L1239,3730L1240,3755L1348,3755C1407,3755 1493,3757 1540,3760C1668,3768 1897,3766 1906,3758ZM2475,3760L2764,3760C2774,3761 2786,3757 2791,3753C2795,3749 2801,3646 2805,3525C2809,3404 2814,3265 2816,3215C2821,3069 2832,2589 2834,2400L2835,2226L2603,2225C2475,2224 2367,2221 2364,2217C2360,2213 2351,2215 2343,2221C2333,2230 2330,2229 2330,2221C2330,2214 2325,2212 2319,2216C2313,2219 2256,2223 2192,2225C2128,2226 2067,2228 2058,2229C2042,2230 2041,2250 2041,2453L2041,2675L2101,2694C2133,2705 2160,2716 2160,2720C2160,2723 2176,2744 2195,2766C2215,2787 2233,2815 2236,2828C2240,2840 2247,2850 2252,2850C2258,2850 2260,2856 2257,2864C2254,2871 2255,2881 2260,2886C2271,2897 2228,3068 2201,3124C2171,3185 2151,3204 2088,3234C2055,3250 2030,3269 2027,3281C2024,3292 2021,3404 2021,3530L2020,3759L2087,3762C2125,3764 2166,3764 2180,3763C2194,3762 2327,3761 2475,3760ZM3686,3747C3700,3733 3708,3508 3716,2830C3719,2591 3722,2355 3723,2305L3725,2215L3560,2218C3223,2223 2955,2228 2949,2229C2941,2230 2930,2467 2924,2770C2920,2968 2911,3409 2909,3460C2907,3536 2911,3744 2914,3749C2920,3758 3677,3757 3686,3747ZM4360,3750C4360,3741 4454,3744 4461,3753C4464,3757 4478,3756 4493,3751L4518,3741L4513,3643C4510,3589 4508,3475 4508,3389L4510,3233L4444,3227C4408,3225 4373,3217 4367,3211C4361,3205 4343,3200 4328,3200C4313,3200 4300,3196 4300,3190C4300,3185 4286,3168 4270,3153C4231,3119 4189,3029 4189,2982C4189,2937 4223,2830 4253,2784C4287,2732 4367,2697 4458,2695L4533,2694L4536,2609C4538,2563 4542,2456 4544,2373L4547,2220L4486,2219C4453,2219 4376,2217 4315,2214C4143,2208 3841,2206 3836,2211C3827,2220 3819,2495 3814,2980C3811,3252 3807,3489 3805,3505C3796,3562 3788,3730 3793,3745C3798,3757 3843,3759 4079,3757C4234,3756 4360,3753 4360,3750ZM5220,3740C5220,3737 5234,3735 5251,3735L5282,3735L5285,3635C5287,3580 5291,3481 5293,3415C5295,3349 5299,3288 5301,3280C5307,3258 5237,3252 4898,3245L4600,3240L4599,3307C4598,3345 4599,3380 4600,3385C4601,3391 4601,3471 4601,3563C4600,3656 4602,3735 4604,3739C4610,3747 5220,3748 5220,3740ZM5318,2470L5315,2230L5190,2225C5048,2219 4771,2216 4693,2220L4640,2222L4639,2278C4639,2310 4637,2364 4634,2400C4632,2436 4629,2517 4627,2580L4625,2695L4820,2698C4927,2700 5016,2702 5017,2703C5018,2704 5087,2706 5170,2708L5321,2711L5318,2470Z" style="fill-rule:nonzero;"/>
                <path d="M2400,3561C2354,3536 2327,3506 2332,3483C2337,3458 2374,3455 2407,3479C2456,3513 2479,3515 2490,3484C2502,3453 2493,3439 2437,3403C2383,3369 2391,3349 2464,3329C2553,3306 2566,3264 2494,3234C2459,3219 2454,3220 2413,3241C2373,3262 2368,3262 2353,3248C2344,3239 2340,3224 2343,3216C2352,3192 2411,3160 2445,3160C2493,3161 2572,3194 2593,3222C2628,3269 2610,3349 2559,3372C2531,3384 2520,3400 2539,3400C2544,3400 2553,3414 2560,3430C2576,3468 2567,3528 2541,3553C2514,3581 2444,3585 2400,3561Z" style="fill-rule:nonzero;"/>
                <path d="M5954,8378C5945,8360 5915,8323 5889,8295C5862,8268 5830,8226 5818,8203C5796,8162 5796,8160 5813,8143C5825,8131 5833,8129 5838,8136C5842,8142 5850,8149 5856,8151C5862,8153 5889,8181 5918,8212C5958,8256 5970,8265 5974,8252C5978,8238 5991,8149 6005,8045C6006,8030 6015,8025 6041,8024C6060,8024 6078,8025 6081,8026C6084,8028 6083,8053 6078,8082C6074,8111 6067,8162 6064,8195C6060,8228 6054,8262 6050,8270C6046,8278 6039,8309 6035,8338C6030,8373 6022,8393 6010,8400C5981,8416 5972,8412 5954,8378Z" style="fill-rule:nonzero;"/>
                <path d="M5818,3593C5791,3561 5778,3529 5784,3505C5787,3492 5786,3440 5781,3390C5775,3340 5773,3293 5776,3285C5784,3264 5860,3238 5911,3238C5955,3239 5958,3237 5964,3208C5967,3191 5970,3165 5970,3150C5970,3103 5979,3091 6008,3096C6023,3099 6037,3104 6040,3107C6043,3110 6045,3140 6045,3173C6045,3215 6049,3235 6058,3236C6064,3237 6079,3238 6090,3239C6104,3240 6111,3250 6116,3276C6124,3319 6112,3330 6057,3330L6019,3330L6025,3396C6031,3467 6022,3490 5989,3490C5962,3490 5950,3459 5950,3390L5950,3329L5903,3332L5855,3335L5858,3375C5860,3397 5866,3430 5871,3447C5877,3465 5882,3508 5883,3542C5885,3603 5884,3605 5859,3608C5844,3610 5828,3604 5818,3593Z" style="fill-rule:nonzero;"/>
            </g>
        </g>
        <g id="Dbsus21" serif:id="Dbsus2">
        </g>
    </g>
</svg>
