<?xml version="1.0" encoding="UTF-8" standalone="no"?>
<!DOCTYPE svg PUBLIC "-//W3C//DTD SVG 1.1//EN" "http://www.w3.org/Graphics/SVG/1.1/DTD/svg11.dtd">
<svg width="100%" height="100%" viewBox="0 0 233 263" version="1.1" xmlns="http://www.w3.org/2000/svg" xmlns:xlink="http://www.w3.org/1999/xlink" xml:space="preserve" xmlns:serif="http://www.serif.com/" style="fill-rule:evenodd;clip-rule:evenodd;stroke-linejoin:round;stroke-miterlimit:2;">
    <g id="z2w5qd.tif">
        <path d="M163.31,111.57L172.17,111.57C172.78,111.57 173.71,111.4 173.58,112.33C173.49,113.01 173.08,113.85 172.01,113.8C169.46,113.68 166.92,113.6 164.37,113.56C164.07,113.56 163.51,113.91 163.5,114.13C163.36,115.98 163.22,117.84 163.29,119.69C163.39,122.13 163.73,124.56 163.87,127.01C163.94,128.23 163.81,129.47 163.78,130.7C163.75,132.11 163.71,133.51 163.7,134.92C163.68,137.79 163.68,140.65 163.68,143.52L163.68,152.42C165.51,152.42 167,152.45 168.5,152.41C169.48,152.38 170.47,152.16 171.44,152.19C171.83,152.2 172.47,152.61 172.55,152.94C172.77,153.85 172.08,154.83 171.26,154.85C169.03,154.91 166.81,154.89 164.58,154.9L164.08,154.9C164.02,155.99 163.87,157.08 163.91,158.16C164,160.34 164.27,162.52 164.32,164.71C164.39,168.05 164.28,171.4 164.34,174.74C164.4,178.35 164.57,181.97 164.71,185.58C164.8,187.84 164.94,190.09 165,192.35C165.02,193.08 165.26,193.3 165.98,193.31C167.33,193.33 168.69,193.42 170.03,193.54C170.53,193.58 171.05,193.73 171.5,193.94C171.72,194.04 171.95,194.43 171.93,194.65C171.9,194.94 171.66,195.35 171.41,195.44C170.99,195.59 170.49,195.58 170.02,195.57C168.6,195.53 167.18,195.47 165.76,195.39C164.93,195.34 164.84,195.9 164.84,196.48C164.82,198.23 164.9,199.99 164.8,201.74C164.66,204.23 164.39,206.72 164.19,209.2C164.14,209.75 164.11,210.31 164.1,210.87C164.08,211.67 163.65,212.23 162.9,212.22C162.13,212.21 161.95,211.55 161.96,210.82C161.98,205.73 161.96,200.65 161.96,195.36L144.98,195.36C145.08,198.29 145.17,201.14 145.29,203.99C145.37,205.85 145.54,207.71 145.57,209.57C145.58,210.12 145.72,211 144.75,211.01C144.01,211.01 143.16,211.13 143.16,209.85C143.16,207.96 142.99,206.07 142.87,204.18C142.75,202.34 142.57,200.5 142.51,198.65C142.48,197.75 142.64,196.84 142.72,195.94C142.77,195.36 142.58,195.07 141.92,195.09C137.52,195.23 133.11,195.33 128.7,195.47C127.75,195.5 126.81,195.67 125.87,195.67C125.05,195.67 124.72,195.97 124.77,196.8C124.89,199.06 124.96,201.33 125.04,203.59C125.13,206.02 125.14,208.45 125.32,210.87C125.41,212.07 124.81,212.28 123.88,212.24C122.96,212.2 122.49,211.6 122.47,210.78C122.4,207.48 122.42,204.17 122.36,200.87C122.33,199.17 122.21,197.47 122.12,195.6C116.12,195.72 110.21,195.84 104.08,195.96C104.08,197.96 104.04,199.66 104.08,201.36C104.16,204.39 104.33,207.41 104.4,210.44C104.42,211.24 104.2,212.05 104.12,212.86C104.02,213.81 103.33,214.21 102.56,214.1C102.25,214.06 101.85,213.23 101.84,212.75C101.79,209.57 101.84,206.38 101.84,203.2L101.84,196.3L100.28,196.3C98.23,196.3 96.19,196.3 94.14,196.33C92.49,196.35 90.84,196.41 89.2,196.46C88.14,196.49 87.07,196.57 86.01,196.52C83.07,196.38 83.58,196.84 83.46,199.02C83.25,202.73 83.4,206.45 83.35,210.17C83.33,211.53 83.22,212.88 83.12,214.23C83.1,214.47 82.9,214.69 82.78,214.92C82.53,214.76 82.25,214.63 82.05,214.42C81.21,213.56 81.42,212.43 81.39,211.4C81.32,208.54 81.3,205.67 81.28,202.8C81.26,200.87 81.28,198.94 81.28,196.88L64.8,196.88C64.92,200.01 65.05,202.97 65.14,205.93C65.18,207.24 64.95,208.57 65.14,209.84C65.49,212.11 64.61,214.13 64.14,216.34C63.76,216.39 63.35,216.44 62.71,216.52C62.71,215.07 62.75,213.78 62.71,212.5C62.6,209.25 62.43,206 62.35,202.75C62.31,201.18 62.4,199.6 62.51,198.03C62.58,197.06 62.24,196.75 61.26,196.64C59.39,196.44 57.54,196.03 55.68,195.7C55.59,195.68 55.52,195.54 55.4,195.42C55.91,194.48 56.74,194.61 57.56,194.71C59.16,194.89 60.76,195.07 62.57,195.27L62.57,156.39C60.2,156.15 57.81,155.92 55.42,155.68C54.62,155.6 54.07,155.26 54.04,154.16C55.02,154.16 55.99,154.18 56.96,154.16C58.55,154.13 60.13,154.07 61.72,154.03C62.48,154.01 62.76,153.57 62.76,152.88C62.77,150.39 62.83,147.89 62.78,145.4C62.73,142.79 62.55,140.18 62.47,137.57C62.38,134.6 62.41,131.62 62.25,128.65C62.1,126.04 61.71,123.44 61.5,120.82C61.37,119.21 61.37,117.58 61.37,115.96C61.37,114.99 60.89,114.87 60.07,114.95C59.12,115.04 58.16,115.01 57.21,114.99C56.82,114.99 56.34,114.97 56.06,114.75C55.67,114.45 55.43,113.95 55.13,113.54C55.54,113.25 55.92,112.78 56.37,112.7C57.66,112.48 58.97,112.4 60.28,112.3C61.05,112.24 61.4,111.8 61.43,111.1C61.5,109.33 61.49,107.56 61.58,105.8C61.68,103.74 61.9,101.69 61.97,99.64C62.04,97.58 61.98,95.52 62.01,93.46C62.05,90.61 62.14,87.77 62.18,84.92C62.21,83.14 62.18,81.36 62.18,79.42C60.13,79.35 58.05,79.21 55.97,79.23C54.84,79.23 54.34,78.76 54.34,77.71C54.33,75.99 54.41,74.26 54.34,72.54C54.3,71.38 54.9,71.06 55.87,71.06C59.41,71.06 62.96,71.09 66.5,71.04C68.24,71.01 69.98,70.79 71.72,70.74C73.3,70.69 74.88,70.79 76.46,70.77C79.43,70.75 82.41,70.67 85.38,70.66C89.16,70.65 92.93,70.67 96.71,70.71C101.07,70.75 105.43,70.83 109.8,70.85C113.23,70.87 116.65,70.78 120.08,70.82C124.73,70.87 129.39,71.03 134.04,71.09C136,71.11 137.97,70.91 139.94,70.95C143.42,71.02 146.9,71.23 150.38,71.3C151.96,71.33 153.54,71.13 155.12,71.15C157.96,71.19 160.8,71.39 163.63,71.4C166.51,71.4 169.39,71.25 172.27,71.17C172.42,71.17 172.58,71.23 172.97,71.31L172.97,77.23C172.97,79.12 172.22,79.8 170.3,79.77C168,79.73 165.69,79.77 163.31,79.77L163.31,111.59L163.31,111.57ZM103.65,155.02C103.88,168.26 104.11,181.15 104.34,194.13C106.1,194 107.75,193.77 109.39,193.77C113.27,193.75 117.16,193.8 121.04,193.88C122.14,193.9 122.49,193.49 122.49,192.42C122.5,189.12 122.57,185.82 122.66,182.52C122.79,177.59 123.11,172.65 123.07,167.72C123.04,163.7 122.59,159.69 122.37,155.68C122.33,154.89 121.84,154.92 121.31,154.93C118.85,154.96 116.38,155.01 113.92,155.02C110.59,155.04 107.25,155.02 103.64,155.02L103.65,155.02ZM102.02,194.45C101.77,181.2 101.52,168.27 101.27,155.42L83.53,155.42L83.53,194.45L102.02,194.45ZM100.34,114.23L97.77,114.23C93.19,114.23 88.61,114.23 84.02,114.21C83.3,114.21 82.9,114.47 82.89,115.24C82.86,117.89 82.82,120.54 82.77,123.19C82.75,124.25 82.67,125.32 82.71,126.38C82.8,128.63 83,130.87 83.07,133.12C83.14,135.51 83.12,137.91 83.14,140.31C83.16,142.17 83.21,144.03 83.22,145.88C83.23,148.16 83.22,150.45 83.22,152.92L101.18,152.92C100.9,139.94 100.62,127.14 100.34,114.23ZM124.64,154.69C124.64,155.31 124.62,155.78 124.64,156.25C124.94,161.37 125.45,166.48 125.51,171.6C125.56,177.03 125.17,182.46 125,187.89C124.94,189.78 125,191.67 125,193.55C130.99,193.37 136.78,193.19 142.37,193.02L142.37,154.69L124.64,154.69ZM121.52,113.65C118.36,113.65 115.38,113.6 112.4,113.67C109.98,113.72 107.57,114 105.16,114.01C102.91,114.02 103.05,114.09 102.97,116.14C102.82,119.79 103.01,123.45 102.97,127.11C102.94,129.18 102.87,131.23 103.16,133.31C103.43,135.22 103.3,137.18 103.35,139.12C103.46,143.33 103.58,147.53 103.67,151.74C103.69,152.52 103.9,152.81 104.81,152.77C108.99,152.62 113.17,152.57 117.35,152.5C118.93,152.47 120.51,152.5 122.18,152.5C122.18,151.91 122.19,151.52 122.18,151.13C122.09,148.38 121.85,145.63 121.95,142.89C122.01,141.21 121.16,140.5 119.88,139.97C117.58,139.02 116.12,137.22 115.84,134.88C115.3,130.36 116.74,127.41 120.71,124.93C121.15,124.66 121.55,123.97 121.58,123.45C121.7,121.39 121.69,119.33 121.68,117.27C121.68,116.05 121.58,114.84 121.52,113.66L121.52,113.65ZM145.2,154.76C145.01,156.8 144.72,158.75 144.68,160.7C144.61,164.4 144.67,168.09 144.69,171.79C144.71,175.31 144.77,178.84 144.81,182.36C144.84,185.34 144.85,188.31 144.91,191.29C144.95,193.14 145.23,193.33 147.1,193.33C149.99,193.33 152.88,193.36 155.77,193.37L161.99,193.37C161.75,180.41 161.51,167.7 161.27,154.77L145.19,154.77L145.2,154.76ZM81.29,155.52C79.91,155.52 78.69,155.49 77.46,155.52C73.48,155.63 69.51,155.78 65.53,155.89C64.88,155.91 64.74,156.21 64.76,156.79C64.88,161.47 64.98,166.15 65.06,170.83C65.06,171.34 64.91,171.85 64.91,172.36C64.91,174.6 64.98,176.84 64.95,179.08C64.93,180.93 64.75,182.78 64.75,184.63C64.75,187.5 64.88,190.38 64.85,193.25C64.83,195.03 64.74,195.03 66.51,194.99C70.99,194.91 75.47,194.82 79.95,194.75C81.37,194.73 81.4,194.7 81.37,193.26C81.31,190.18 81.23,187.11 81.23,184.03C81.23,179.8 81.34,175.57 81.36,171.34C81.37,168.92 81.29,166.5 81.28,164.08C81.26,161.26 81.28,158.44 81.28,155.49L81.29,155.52ZM161.33,152.21C161.16,139.32 160.99,126.42 160.82,113.39L144.46,113.39C144.42,113.96 144.34,114.38 144.37,114.8C144.46,116.01 144.7,117.21 144.71,118.42C144.74,122.42 144.71,126.42 144.69,130.42C144.69,131.49 144.63,132.56 144.67,133.62C144.79,136.19 145.05,138.76 145.07,141.34C145.1,144.64 144.98,147.95 144.89,151.26C144.86,152.25 145.28,152.42 146.19,152.37C148.41,152.25 150.64,152.24 152.87,152.22C155.61,152.2 158.35,152.22 161.33,152.22L161.33,152.21ZM64.85,153.57C70.06,153.38 75.14,153.19 80.23,153.03C81.25,153 81.2,152.38 81.19,151.67C81.17,149.49 81.22,147.3 81.19,145.12C81.17,142.87 81.13,140.63 81.05,138.38C80.99,136.62 80.81,134.85 80.77,133.09C80.7,130 80.67,126.91 80.65,123.81C80.65,121.96 80.7,120.1 80.72,118.25C80.73,116.96 80.72,115.66 80.72,114.44C76.34,114.6 72.14,114.75 67.94,114.91C66.87,114.95 65.79,114.96 64.73,115.1C64.44,115.14 63.98,115.6 63.97,115.87C63.94,117.44 64.03,119.02 64.06,120.59C64.08,121.42 64.06,122.25 64.1,123.08C64.2,125.24 64.36,127.4 64.43,129.56C64.5,131.63 64.49,133.71 64.54,135.78C64.63,139.54 64.75,143.3 64.82,147.07C64.86,149.22 64.82,151.38 64.82,153.58L64.85,153.57ZM142.46,152.26C142.77,145.79 142.84,139.35 142.66,132.9C142.48,126.46 142.48,120.02 142.4,113.36C136.38,113.36 130.69,113.37 125,113.35C124.13,113.35 123.92,113.64 123.99,114.48C124.09,115.71 124.04,116.95 124.04,118.18L124.04,124C125.52,124.88 126.99,125.63 128.34,126.57C130.05,127.77 131.32,129.34 131.23,131.58C131.07,135.38 129.49,139.39 124.93,140.67C124.26,140.86 124.07,141.16 124.12,141.85C124.28,144.26 124.38,146.68 124.47,149.1C124.51,150.13 124.47,151.15 124.47,152.26L142.46,152.26ZM81.97,79.29C81.97,80.49 81.91,81.52 81.98,82.55C82.26,86.8 82.6,91.05 82.88,95.3C82.96,96.56 82.88,97.83 82.93,99.1C83,101.3 83.16,103.49 83.2,105.69C83.23,107.23 83.1,108.77 83.08,110.31C83.08,110.97 82.96,111.55 84.13,111.5C87.45,111.36 90.78,111.44 94.1,111.47C95.96,111.48 97.83,111.59 99.69,111.58C100.04,111.58 100.63,111.31 100.69,111.07C100.9,110.11 101.01,109.11 101.03,108.13C101.07,106.05 100.99,103.97 101.04,101.89C101.1,99.33 101.26,96.78 101.35,94.22C101.37,93.65 101.26,93.07 101.29,92.49C101.33,91.68 101.53,90.88 101.51,90.07C101.46,88 101.3,85.94 101.24,83.87C101.2,82.5 101.24,81.13 101.24,79.7C94.7,79.56 88.32,79.42 81.99,79.29L81.97,79.29ZM122.08,79.57C120.55,79.43 119.17,79.16 117.79,79.2C113.13,79.31 108.47,79.51 103.82,79.73C103.53,79.74 103.03,80.22 103.03,80.47C103.05,81.97 103.18,83.46 103.31,84.96C103.51,87.24 103.88,89.52 103.91,91.81C103.94,93.98 103.55,96.14 103.5,98.31C103.44,100.67 103.57,103.04 103.59,105.4C103.61,107.39 103.59,109.38 103.59,111.33L121.53,111.33C121.71,100.72 121.89,90.17 122.08,79.57ZM63.35,79.17C64.9,90.29 64.48,101.17 64.16,112.08C69.93,111.89 75.51,111.71 81.14,111.53C81.08,110.78 81.02,110.35 81.02,109.92C81.05,106.31 81.14,102.7 81.11,99.1C81.09,95.85 80.9,92.6 80.86,89.34C80.82,86.29 80.9,83.23 80.86,80.17C80.86,79.87 80.37,79.33 80.1,79.32C76.85,79.22 73.59,79.19 70.33,79.17C68.07,79.15 65.82,79.17 63.35,79.17ZM124.05,111.15C125.8,111.23 127.42,111.35 129.04,111.37C132.93,111.42 136.81,111.4 140.7,111.45C142.4,111.47 142.4,111.53 142.11,109.95C142.08,109.8 142.09,109.63 142.1,109.47C142.12,107.74 142.12,106 142.17,104.27C142.2,103.34 141.76,102.78 140.9,102.55C138.36,101.88 137.06,100.19 136.44,97.69C135.43,93.6 137.58,89.52 141.59,88.31C142.19,88.13 142.54,87.84 142.54,87.15C142.53,85.7 142.55,84.25 142.59,82.81C142.62,81.71 142.7,80.61 142.77,79.22L140,79.22C135.15,79.23 130.29,79.23 125.44,79.29C125.13,79.29 124.58,79.77 124.57,80.04C124.39,83.31 124.24,86.59 124.17,89.87C124.09,93.6 124.07,97.33 124.05,101.07C124.03,104.37 124.05,107.66 124.05,111.14L124.05,111.15ZM144.94,79.52C144.84,81.71 144.82,83.92 144.6,86.11C144.46,87.5 145.08,88.41 146.21,88.69C148.82,89.33 149.49,91.41 150.18,93.52C150.38,94.14 150.65,94.83 150.55,95.43C150.3,96.94 149.91,98.43 149.5,99.9C148.98,101.75 147.67,103.01 145.87,103.34C144.59,103.58 144.25,104.01 144.45,105.16C144.48,105.31 144.41,105.48 144.41,105.63L144.41,111.29L160.85,111.29C160.78,110.33 160.65,109.4 160.66,108.47C160.71,105.8 160.86,103.14 160.89,100.47C160.93,96.96 160.89,93.46 160.87,89.95C160.87,88.92 160.81,87.9 160.8,86.87C160.79,84.5 160.8,82.13 160.8,79.53L144.93,79.53L144.94,79.52Z" style="fill-rule:nonzero;"/>
        <path d="M98.55,60.5C98.42,58.8 98.31,57.09 98.16,55.39C98.05,54.12 98.42,53.74 99.71,53.81C102.85,53.98 105.81,54.83 108.6,56.25C110.45,57.19 112.06,60.92 110.35,63.55C108.58,66.25 106.22,67.33 103.22,67.64C102.22,67.74 101.3,68.29 100.23,67.73C99.29,67.23 98.72,66.58 98.65,65.53C98.54,63.86 98.47,62.19 98.38,60.53C98.44,60.53 98.5,60.53 98.56,60.52L98.55,60.5ZM100.36,55.72C100.46,56.28 100.55,56.69 100.61,57.11C100.93,59.63 101.25,62.16 101.53,64.68C101.6,65.32 101.81,65.7 102.48,65.54C103.67,65.25 104.91,65.04 106.02,64.55C108.77,63.33 109.53,60.15 107.35,58.55C105.35,57.07 103,56.15 100.37,55.71L100.36,55.72Z" style="fill-rule:nonzero;"/>
        <path d="M102.22,29.71C103.75,29.79 105.29,29.85 106.82,29.94C108.73,30.06 109.88,31.37 110.55,32.89C111.41,34.85 112.36,36.81 112.43,39.09C112.49,41.3 111.77,43.05 110.37,44.67C108.95,46.3 107.07,46.92 105.08,47.4C104.62,47.51 104.15,47.61 103.68,47.71C102.1,48.07 101.16,47.47 101.02,45.86C100.78,43.18 100.56,40.49 100.41,37.81C100.29,35.56 100.18,33.3 100.26,31.05C100.3,30.01 101.15,29.59 102.23,29.71L102.22,29.71ZM103.79,31.48C101.86,31.46 101.78,31.46 101.89,33.31C102.01,35.32 102.29,37.31 102.5,39.32C102.66,40.83 102.9,42.33 102.96,43.85C103.04,45.63 103.27,45.79 104.98,45.42C107.65,44.84 109.33,43.01 110.03,40.67C110.8,38.11 109.84,35.51 108.59,33.21C108.22,32.53 107.19,32.1 106.37,31.82C105.57,31.54 104.65,31.58 103.78,31.48L103.79,31.48Z" style="fill-rule:nonzero;"/>
        <path d="M125.75,66.66C125.35,66.73 124.83,66.76 124.35,66.91C122.24,67.53 120.34,67 118.54,65.88C117.06,64.96 116.28,62.09 116.73,60.32C117.16,58.67 117.75,57.03 119.28,55.89C121.31,54.38 124.76,54.72 126.85,56.4C127.14,56.63 127.12,57.23 127.25,57.66C126.89,57.69 126.52,57.78 126.17,57.74C124.96,57.58 123.76,57.25 122.55,57.2C120.54,57.11 118.88,59.36 118.81,60.98C118.72,62.94 120.58,64.78 122.58,64.86C123.45,64.89 124.33,64.78 125.19,64.66C125.91,64.55 126.2,64.09 125.98,63.42C124.61,63.15 123.29,62.94 121.99,62.61C121.6,62.51 121.31,62.07 120.97,61.78C121.29,61.47 121.57,60.93 121.93,60.88C123.1,60.69 124.3,60.63 125.48,60.61C126.63,60.59 127.79,60.62 128.93,60.75C129.3,60.79 129.89,61.15 129.92,61.41C129.96,61.83 129.73,62.56 129.42,62.7C128,63.31 128.01,64.34 128.28,65.58C128.46,66.39 128.57,67.24 128.55,68.06C128.55,68.39 128.17,68.82 127.85,69.01C127.66,69.13 127.1,68.99 126.96,68.79C126.52,68.19 126.21,67.51 125.75,66.67L125.75,66.66Z" style="fill-rule:nonzero;"/>
        <path d="M140.77,61.71C140.92,62.95 141.07,64.04 141.18,65.13C141.26,65.94 141.57,66.91 140.35,67.15C139.31,67.35 137.9,66.48 137.89,65.49C137.84,61.91 137.89,58.32 137.98,54.74C137.98,54.39 138.5,54.05 138.77,53.71C139.12,54.09 139.69,54.43 139.79,54.87C140.07,56.15 140.17,57.47 140.3,58.77C140.38,59.5 140.58,59.94 141.46,59.9C142.45,59.85 143.45,59.93 144.44,60.02C145.41,60.1 145.55,59.61 145.5,58.79C145.43,57.49 145.42,56.18 145.47,54.88C145.48,54.55 145.77,54 145.98,53.97C146.3,53.94 146.7,54.23 146.97,54.48C147.15,54.65 147.21,54.98 147.25,55.25C147.8,58.57 148.35,61.89 148.87,65.21C148.97,65.83 148.93,66.48 148.94,67.12C148.96,67.88 148.73,68.49 147.89,68.6C147.13,68.7 145.92,67.86 145.87,67.19C145.77,65.89 145.69,64.58 145.67,63.28C145.66,62.48 145.38,62.19 144.53,62.16C143.35,62.13 142.17,61.89 140.75,61.71L140.77,61.71Z" style="fill-rule:nonzero;"/>
        <path d="M62.09,61.01C62.34,62.23 62.55,63.22 62.77,64.31C64.25,64.31 65.74,64.29 67.23,64.32C67.75,64.33 68.27,64.49 68.8,64.58C68.61,65.26 68.49,65.97 68.18,66.59C68.05,66.83 67.48,66.93 67.11,66.95C65.28,67.05 63.45,67.08 61.62,67.17C60.72,67.21 59.99,66.85 60.11,65.93C60.39,63.65 59.39,61.6 59.12,59.43C58.95,58.02 58.7,56.56 58.93,55.2C59.04,54.55 60.12,53.73 60.87,53.6C62.8,53.27 64.8,53.24 66.77,53.16C67.66,53.12 67.79,53.89 67.49,54.41C67.19,54.93 66.59,55.41 66.02,55.62C65.1,55.96 64.07,55.99 63.12,56.29C62.71,56.42 62.21,56.84 62.1,57.23C61.63,58.9 61.85,59.19 63.55,59.19C64.93,59.19 66.32,59.01 67.7,59.02C68.1,59.02 68.49,59.38 68.89,59.57C68.59,59.93 68.34,60.55 67.98,60.62C66.75,60.85 65.48,60.91 64.23,61C63.61,61.04 62.98,61 62.1,61L62.09,61.01Z" style="fill-rule:nonzero;"/>
        <path d="M121.33,37.25C119.57,38.55 117.78,38.08 116.07,37.6C114.4,37.13 113.78,34.62 114.78,32.72C115.11,32.09 115.54,31.51 115.98,30.95C117.77,28.7 120.98,29.5 122.29,31.44C122.85,32.27 123.16,33.07 123.23,34.06C123.37,36.09 123.69,38.12 123.8,40.15C123.91,42.25 123.36,44.22 121.38,45.25C119.16,46.4 116.87,46 114.78,44.75C114.45,44.55 114.28,43.67 114.42,43.23C114.63,42.56 115.17,42.89 115.68,43.13C116.45,43.5 117.29,43.86 118.13,43.92C119.91,44.05 121.14,42.99 121.31,41.24C121.43,39.98 121.33,38.7 121.33,37.25ZM120.89,31.89C119.88,31.49 118.93,31.59 118.11,32.28C117.21,33.05 116.61,34.02 116.61,35.26C116.61,35.42 116.79,35.72 116.88,35.72C117.81,35.72 118.81,35.87 119.64,35.55C120.47,35.23 121.06,34.43 120.78,33.32C120.68,32.93 120.84,32.48 120.89,31.89Z" style="fill-rule:nonzero;"/>
        <path d="M78.12,67.75C76.01,66.86 75.9,66.51 76.72,64.65C77.08,63.82 77.27,62.92 77.6,62.07C78.63,59.45 79.68,56.83 80.75,54.23C80.85,53.98 81.26,53.6 81.36,53.65C81.79,53.85 82.32,54.1 82.54,54.49C83.67,56.54 84.71,58.64 85.8,60.72C85.96,61.02 86.19,61.36 86.47,61.49C87.15,61.81 87.26,62.21 87.26,62.98C87.26,63.7 87.75,64.46 88.15,65.12C88.62,65.9 88.84,66.65 88.36,67.47C88.19,67.77 87.9,68.19 87.64,68.2C87.28,68.22 86.76,68.02 86.55,67.74C86.08,67.11 85.7,66.4 85.41,65.67C84.71,63.96 83.69,63.47 81.85,63.49C80.28,63.51 79.68,64.34 79.21,65.59C78.94,66.32 78.52,66.99 78.14,67.76L78.12,67.75ZM81.71,58.18C81.23,59.63 80.85,60.75 80.41,62.06C81.5,61.96 82.27,61.89 83.16,61.8C82.68,60.6 82.26,59.56 81.7,58.18L81.71,58.18Z" style="fill-rule:nonzero;"/>
        <path d="M160.32,56.83C160.47,58.22 160.5,59.44 160.8,60.59C160.88,60.89 161.82,61.08 162.38,61.12C163.53,61.2 164.68,61.14 165.79,61.14C166.02,62.76 165.82,63.06 164.56,63.12C163.34,63.18 162.13,63.13 160.67,63.13C160.88,64.19 161.06,65.08 161.24,65.97C163.08,65.97 164.82,66.05 166.55,65.93C167.32,65.88 167.82,66.13 167.85,66.74C167.87,67.1 167.34,67.75 166.96,67.84C166,68.06 164.99,68.02 164,68.1C163.29,68.15 162.57,68.15 161.88,68.3C160.64,68.56 159.78,68.22 159.39,67.03C159.03,65.93 158.74,64.79 158.62,63.65C158.38,61.29 158.28,58.92 158.13,56.55C158.07,55.56 158.56,54.92 159.53,54.79C161.54,54.53 163.56,54.3 165.58,54.14C166.62,54.06 167.77,55.16 167.7,56.18C167.68,56.48 167.1,56.97 166.75,56.99C165.37,57.06 163.97,56.99 162.58,56.96C161.91,56.94 161.24,56.89 160.3,56.84L160.32,56.83Z" style="fill-rule:nonzero;"/>
        <path d="M134.54,124.28C135.32,124.4 135.89,124.52 136.46,124.58C137.28,124.66 138.03,125.47 137.86,126.21C137.69,126.94 137.15,127.05 136.46,126.92C135.34,126.71 134.2,126.65 133.1,126.36C132.63,126.24 132.13,125.79 131.88,125.36C131.71,125.07 131.84,124.46 132.05,124.13C132.32,123.71 132.8,123.43 133.2,123.1C134.53,122.02 134.55,120.47 134.62,118.99C134.65,118.26 134.07,117.82 133.3,118.17C132.89,118.36 132.55,118.72 132.19,119.03C131.83,119.35 131.49,119.69 131.15,120.02C130.92,119.43 130.47,118.83 130.5,118.25C130.57,116.9 131.7,116.36 132.8,115.98C133.91,115.6 134.93,115.86 135.68,116.84C137,118.55 136.72,121.83 135.1,123.68C134.97,123.83 134.83,123.97 134.55,124.28L134.54,124.28Z" style="fill-rule:nonzero;"/>
        <path d="M154.33,85.34C153.7,85.87 153.44,86.23 153.09,86.35C152.64,86.5 151.99,86.64 151.67,86.42C151.14,86.06 150.89,85.4 151.5,84.79C152.37,83.92 153.2,83.01 154.12,82.2C154.83,81.57 155.95,82.16 155.97,83.37C156.01,85.4 156.85,87.44 155.94,89.45C155.78,89.8 155.45,90.07 155.2,90.37C154.93,90.09 154.48,89.84 154.42,89.52C154.29,88.79 154.34,88.03 154.33,87.28L154.33,85.34Z" style="fill-rule:nonzero;"/>
    </g>
</svg>
