<?xml version="1.0" encoding="iso-8859-1"?>
<!-- Generator: Adobe Illustrator 16.0.0, SVG Export Plug-In . SVG Version: 6.00 Build 0)  -->
<!DOCTYPE svg PUBLIC "-//W3C//DTD SVG 1.1//EN" "http://www.w3.org/Graphics/SVG/1.1/DTD/svg11.dtd">
<svg version="1.1" xmlns="http://www.w3.org/2000/svg" xmlns:xlink="http://www.w3.org/1999/xlink" x="0px" y="0px"
	 width="178.023px" height="236.815px" viewBox="0 0 178.023 236.815" style="enable-background:new 0 0 178.023 236.815;"
	 xml:space="preserve">
<g id="D">
	<g id="D_1_">
		<path style="fill:none;" d="M178.023,236.815c-59.342,0-118.683,0-178.023,0C0,155.91,0,75.005,0-5.9
			c59.341,0,118.682,0,178.023,0C178.023,75.004,178.023,155.909,178.023,236.815z M28.592,66.363
			c0.112,3.836,0.34,7.556,0.305,11.274c-0.073,7.695-0.246,15.39-0.478,23.081c-0.039,1.298-0.559,2.585-0.886,3.87
			c-0.132,0.519-0.498,0.685-1.029,0.543c-0.937-0.248-1.874-0.503-2.824-0.687c-0.629-0.122-1.283-0.185-1.921-0.161
			c-0.761,0.03-1.721,0.813-1.526,1.275c0.203,0.484,0.715,1.002,1.205,1.166c0.867,0.288,1.815,0.365,2.736,0.441
			c0.927,0.077,1.868-0.01,2.793,0.075c1.462,0.134,1.525,0.249,1.538,1.709c0.034,3.808,0.067,7.615,0.105,11.422
			c0.081,7.979,0.188,15.96,0.234,23.939c0.013,2.306-0.167,4.613-0.214,6.921c-0.017,0.771-0.34,1-1.057,0.891
			c-0.88-0.134-1.764-0.26-2.651-0.334c-1.654-0.142-3.339-0.361-4.811,0.686c-0.292,0.208-0.584,0.618-0.595,0.943
			c-0.006,0.214,0.473,0.602,0.769,0.638c1.031,0.131,2.076,0.186,3.117,0.188c1.455,0.003,2.915-0.152,4.365-0.077
			c1.155,0.061,1.336,0.373,1.303,1.304c-0.274,7.527-0.632,15.056-0.783,22.585c-0.104,5.102,0.089,10.208,0.139,15.313
			c0.017,1.732,0.002,3.466,0.002,5.333c-2.757,0.124-5.482,0.246-8.241,0.37c0.006,1.388,0.47,2.323,1.355,3.138
			c1.824-0.938,3.735-1.283,5.763-0.962c1.262,0.201,1.284,0.169,1.346,1.487c0.19,4.046,0.361,8.094,0.555,12.139
			c0.036,0.743,0.146,1.482,0.225,2.246c1.92-0.534,2.284-0.971,2.273-2.695c-0.021-3.078-0.083-6.156-0.087-9.234
			c-0.001-1.415,0.217-2.803,0.812-4.084c2.216,0,4.358,0.034,6.5-0.007c3.32-0.061,6.639-0.181,9.959-0.251
			c0.459-0.01,0.922,0.122,1.36,0.184c0,5.23,0,10.324,0,15.523c0.546,0.186,1.206,0.41,1.978,0.672
			c0.987-5.451,0.158-10.799,0.361-16.293c7.363-0.252,14.664-0.077,21.93,0.118c0.056,0.207,0.098,0.283,0.095,0.358
			c-0.139,4.123-0.285,8.247-0.42,12.371c-0.02,0.598,0.108,1.163,0.772,1.358c0.709,0.208,0.896-0.434,1.152-0.846
			c1.19-1.919,1.244-4.055,1.139-6.22c-0.083-1.699-0.172-3.398-0.184-5.098c-0.005-0.706,0.183-1.413,0.3-2.234
			c7.259,0.58,14.409-0.569,21.657,0.23c-0.144,1.164-0.281,2.2-0.397,3.238c-0.312,2.78-0.601,5.565-0.204,8.357
			c0.139,0.982,0.17,1.835-0.855,2.358c-0.045,0.022-0.039,0.147-0.068,0.284c0.429,0.694,1.027,1.184,1.915,1.228
			c0.961,0.047,1.312-0.236,1.364-1.223c0.064-1.172,0.041-2.348,0.075-3.52c0.097-3.355,0.212-6.708,0.298-10.063
			c0.02-0.725,0.325-1.023,1.046-0.97c0.442,0.034,0.892-0.002,1.337,0.001c4.943,0.036,9.886,0.076,14.828,0.111
			c0.961,0.009,1.922,0.002,2.909,0.002c0.469,1.768,0.646,3.524,0.44,5.316c-0.179,1.568-0.377,3.136-0.509,4.708
			c-0.138,1.644,0.137,3.191,1.375,4.687c0.291-0.669,0.543-1.16,0.721-1.676c0.651-1.886,0.522-3.826,0.37-5.771
			c-0.189-2.409-0.527-4.819-0.03-7.339c6.276,0.19,12.527-0.061,18.711,0.268c0.228,3.137,0.521,6.078,0.622,9.026
			c0.053,1.56-0.231,3.13-0.354,4.696c-0.028,0.359-0.084,0.738-0.007,1.08c0.163,0.723,0.682,1.069,1.415,1.085
			c0.759,0.015,0.826-0.629,0.871-1.101c0.114-1.243,0.184-2.499,0.149-3.748c-0.078-2.709-0.286-5.417-0.325-8.127
			c-0.015-1.019,0.29-2.042,0.436-2.978c3.259,0,6.317,0,9.561,0c-0.087-0.737-0.207-1.399-0.234-2.064
			c-0.033-0.802-0.43-1.147-1.2-1.222c-1.084-0.104-2.159-0.299-3.246-0.386c-1.441-0.117-2.889-0.169-4.39-0.251
			c-0.064-0.513-0.149-0.865-0.149-1.219c0.007-6.118,0.006-12.236,0.046-18.354c0.036-5.547,0.108-11.093,0.185-16.638
			c0.031-2.141,0.033-4.288,0.214-6.418c0.117-1.39,0.253-1.399,1.616-1.214c1.2,0.164,2.39,0.428,3.592,0.557
			c1.01,0.11,1.926-0.143,2.475-1.039c-0.251-0.664-0.478-1.26-0.728-1.922c-2.414,0.185-4.819,0.369-7.419,0.568
			c-0.113-5.15-0.222-10.113-0.327-14.938c0.278-0.189,0.339-0.256,0.413-0.275c0.311-0.084,0.629-0.146,0.941-0.229
			c1.91-0.505,3.476-1.486,4.551-3.195c1.516-2.41,1.786-5.029,1.119-7.707c-0.843-3.381-2.735-5.926-6.256-6.953
			c-0.221-0.064-0.424-0.187-0.528-0.234c0-0.918-0.025-1.726,0.005-2.531c0.079-2.306,0.081-4.621,0.304-6.913
			c0.227-2.329,0.343-2.118,2.242-2.074c1.331,0.031,2.656,0.284,3.985,0.395c1.366,0.113,2.667-0.026,3.736-1.394
			c-0.824-0.425-1.527-1.009-2.308-1.145c-1.502-0.261-3.046-0.3-4.574-0.371c-1.119-0.052-2.243-0.01-3.311-0.01
			c0-12.625,0-25.206,0-37.81c3.917-0.591,7.645-0.885,11.504-0.136c0.223-2.62,0.301-5.133-0.309-7.736
			c-0.862,0-1.666-0.001-2.47,0c-5.146,0.002-10.293,0-15.44,0.008c-9.076,0.014-18.152-0.037-27.228,0.075
			c-6.64,0.081-13.275,0.448-19.915,0.561c-7.37,0.125-14.742,0.112-22.113,0.147c-2.472,0.012-4.944,0.023-7.416-0.026
			c-8.02-0.159-16.036-0.428-24.056-0.495c-5.425-0.046-10.854,0.179-16.282,0.279c-0.68,0.012-1.359,0.001-2.238,0.001
			c0,1.795-0.046,3.528,0.013,5.257c0.06,1.738,0.414,2.061,2.143,2.219c0.403,0.038,0.81,0.033,1.215,0.029
			c1.296-0.013,2.593-0.067,3.889-0.038C27.359,66.078,27.943,66.25,28.592,66.363z M79.701,14.186
			c-0.92,0.091-1.841,0.181-2.761,0.276c-0.74,0.076-0.864,0.424-0.729,1.162c0.372,2.02,0.665,4.056,0.904,6.096
			c0.329,2.805,0.425,5.646,0.906,8.423c0.58,3.347,0.19,2.636,3.288,3.002c2.897,0.342,5.729-0.125,8.276-1.697
			c2.756-1.701,3.929-4.689,2.862-7.744C90.895,19.259,86.828,13.784,79.701,14.186z M71.032,53.376
			c0.234,0.1,0.407,0.211,0.594,0.247c3.87,0.745,7.505,0.112,10.755-2.118c3.516-2.411,3.786-6.306,0.732-9.307
			c-2.307-2.266-5.175-3.379-8.32-3.846c-2.434-0.361-3.789,0.605-4.011,3.081c-0.139,1.549-0.017,3.136,0.129,4.692
			C71.134,48.495,71.566,50.851,71.032,53.376z M102.868,48.715c-0.522,1.639-2.209,2.857-4.153,3.02
			c-2.277,0.19-4.041-1.083-4.256-3.352c-0.272-2.876,0.756-5.344,3.025-7.17c1.314-1.057,2.688-0.843,3.717,0.493
			c0.385,0.501,0.561,1.165,0.929,1.964c0.274,0.09,0.804,0.265,1.366,0.45c0.261-0.645,0.701-1.258,0.73-1.89
			c0.08-1.732-1.377-3.313-3.158-3.631c-3.064-0.546-7.117,1.242-8.721,3.905c-0.277,0.463-0.446,1.051-0.479,1.593
			c-0.146,2.429,0.482,4.668,1.98,6.594c1.916,2.461,4.4,3.634,7.557,2.99c0.781-0.16,1.537-0.451,2.322-0.686
			c0.047,0.118,0.113,0.223,0.129,0.335c0.352,2.455,0.354,2.162,2.586,1.653c0.104-0.023,0.193-0.118,0.301-0.187
			c-0.072-1.633-0.131-3.246-0.222-4.858c-0.034-0.602-0.089-1.212-0.226-1.797c-0.447-1.918-1.451-2.712-3.372-2.529
			c-1.713,0.163-3.411,0.474-5.175,0.728c0,0.266-0.001,0.547,0,0.829c0.002,1.258,0.368,2.009,1.938,1.499
			C100.701,48.337,101.814,48.214,102.868,48.715z M26.065,40.946c1.731-0.601,3.329-0.566,4.95-0.491
			c2.093,0.096,2.054,0.448,2.586-1.983c0.017-0.079,0.034-0.158,0.047-0.238c0.16-1.029-0.524-1.643-1.533-1.52
			c-1.231,0.151-2.479,0.165-3.718,0.26c-1.162,0.089-2.331,0.146-3.478,0.334c-0.794,0.13-1.118,0.645-1.13,1.556
			c-0.062,4.799,0.883,9.471,1.599,14.271c0.524,0,1.002,0.025,1.477-0.004c2.059-0.129,4.117-0.278,6.176-0.411
			c1.347-0.088,1.493-0.196,1.701-1.504c0.056-0.348,0.009-0.712,0.009-1.116c-2.506-0.817-5.009,0.144-7.48-0.092
			c-0.139-0.616-0.274-1.164-0.384-1.717c-0.106-0.541-0.186-1.088-0.286-1.686c1.08-0.173,2.036-0.288,2.972-0.497
			c0.36-0.081,0.829-0.297,0.979-0.589c0.608-1.181-0.327-2.563-1.652-2.472c-0.752,0.051-1.496,0.231-2.411,0.38
			C26.347,42.598,26.215,41.827,26.065,40.946z M54.729,49.987c0.257,0.569,0.593,1.337,0.949,2.097
			c0.273,0.582,0.518,1.189,0.873,1.721c0.527,0.792,1.366,0.89,2.07,0.261c0.605-0.54,0.979-1.194,0.578-2.042
			c-0.638-1.351-1.208-2.738-1.928-4.043c-1.696-3.076-3.5-6.093-4.529-9.489c-0.227-0.749-0.699-0.888-1.217-0.267
			c-0.525,0.631-0.872,1.422-1.238,2.172c-0.881,1.806-1.687,3.651-2.605,5.438c-0.553,1.076-1.32,2.041-1.882,3.111
			c-0.445,0.848-0.85,1.756-1.047,2.686c-0.261,1.23,0.185,1.756,1.513,2.159c0.121-0.286,0.281-0.568,0.359-0.871
			c0.537-2.072,1.399-3.04,4.302-2.939C52.125,50.023,53.327,49.987,54.729,49.987z M124.867,47.233
			c-0.085,1.411-0.202,2.532-0.206,3.652c-0.003,0.834,0.041,1.695,0.253,2.494c0.143,0.537,0.479,1.18,1.296,0.989
			c0.918-0.214,1.235-0.701,1.21-1.624c-0.041-1.454-0.041-2.909-0.038-4.364c0.004-1.621,0.12-3.247,0.026-4.86
			c-0.123-2.086-0.901-3.886-2.94-5.247c0,0.799,0.019,1.385-0.004,1.97c-0.048,1.291-0.076,2.584-0.204,3.867
			c-0.033,0.307-0.422,0.824-0.648,0.825c-1.64,0.011-3.303,0.454-5.013-0.176c-0.021-0.469-0.077-0.948-0.06-1.424
			c0.038-1.133,0.12-2.266,0.159-3.398c0.01-0.267,0.01-0.671-0.146-0.78c-0.808-0.561-1.628-1.167-2.786-0.949
			c0.332,5.037,0.657,9.988,0.987,14.991c0.696,0,1.246,0,1.909,0c0.103-0.54,0.252-1.04,0.285-1.547
			c0.059-0.929,0.076-1.863,0.059-2.793c-0.014-0.731,0.286-1.148,1.015-1.213C121.543,47.506,123.066,47.384,124.867,47.233z
			 M138.937,38.731c0.372,5.262,0.722,10.195,1.068,15.088c1.666,0.077,3.076,0.14,4.486,0.208c0.767,0.038,1.54,0.175,2.297,0.108
			c1.323-0.117,2.618-0.393,3.375-1.742c-1.264-0.893-2.599-1.042-4.002-0.927c-1.36,0.11-2.724,0.191-4.138,0.29
			c-0.141-1.105-0.264-2.071-0.388-3.057c1.765-0.399,3.487,0.246,4.925-0.891c-0.163-0.81-0.319-1.585-0.477-2.369
			c-1.494,0.086-2.887,0.167-4.258,0.245c-0.103-0.779-0.179-1.375-0.257-1.97c-0.08-0.617-0.159-1.233-0.254-1.957
			c0.594,0,1.033-0.017,1.472,0.003c1.332,0.06,2.682,0.304,3.991,0.165c2.474-0.263,2.952-0.367,2.28-3.205
			c-0.016-0.066-0.101-0.116,0.016,0.011C145.682,38.731,142.463,38.731,138.937,38.731z"/>
		<path style="fill-rule:evenodd;clip-rule:evenodd;" d="M28.592,66.363c-0.649-0.112-1.233-0.285-1.819-0.298
			c-1.295-0.029-2.592,0.025-3.889,0.038c-0.405,0.004-0.812,0.009-1.215-0.029c-1.729-0.159-2.083-0.481-2.143-2.219
			c-0.059-1.729-0.013-3.462-0.013-5.257c0.879,0,1.559,0.011,2.238-0.001c5.428-0.1,10.856-0.325,16.282-0.279
			c8.02,0.066,16.037,0.336,24.056,0.495c2.471,0.05,4.943,0.039,7.416,0.026c7.371-0.036,14.743-0.022,22.113-0.147
			c6.64-0.113,13.275-0.48,19.915-0.561c9.075-0.112,18.151-0.061,27.228-0.075c5.147-0.008,10.295-0.006,15.44-0.008
			c0.804-0.001,1.607,0,2.47,0c0.609,2.603,0.531,5.117,0.309,7.736c-3.859-0.75-7.587-0.455-11.504,0.136
			c0,12.604,0,25.185,0,37.81c1.067,0,2.191-0.042,3.311,0.01c1.528,0.071,3.072,0.11,4.574,0.371
			c0.78,0.136,1.483,0.72,2.308,1.145c-1.069,1.368-2.37,1.507-3.736,1.394c-1.329-0.11-2.654-0.363-3.985-0.395
			c-1.899-0.044-2.016-0.254-2.242,2.074c-0.223,2.292-0.225,4.607-0.304,6.913c-0.03,0.806-0.005,1.613-0.005,2.531
			c0.104,0.048,0.308,0.17,0.528,0.234c3.521,1.027,5.413,3.572,6.256,6.953c0.667,2.678,0.396,5.297-1.119,7.707
			c-1.075,1.709-2.641,2.69-4.551,3.195c-0.312,0.082-0.631,0.145-0.941,0.229c-0.074,0.02-0.135,0.086-0.413,0.275
			c0.105,4.824,0.214,9.787,0.327,14.938c2.6-0.199,5.005-0.384,7.419-0.568c0.25,0.662,0.477,1.258,0.728,1.922
			c-0.549,0.896-1.465,1.149-2.475,1.039c-1.202-0.129-2.392-0.393-3.592-0.557c-1.363-0.186-1.499-0.176-1.616,1.214
			c-0.181,2.13-0.183,4.277-0.214,6.418c-0.076,5.545-0.148,11.091-0.185,16.638c-0.04,6.117-0.039,12.235-0.046,18.354
			c0,0.354,0.085,0.706,0.149,1.219c1.501,0.082,2.948,0.134,4.39,0.251c1.087,0.087,2.162,0.281,3.246,0.386
			c0.771,0.074,1.167,0.42,1.2,1.222c0.027,0.665,0.147,1.327,0.234,2.064c-3.243,0-6.302,0-9.561,0
			c-0.146,0.936-0.45,1.959-0.436,2.978c0.039,2.71,0.247,5.418,0.325,8.127c0.034,1.249-0.035,2.505-0.149,3.748
			c-0.045,0.472-0.112,1.115-0.871,1.101c-0.733-0.016-1.252-0.362-1.415-1.085c-0.077-0.342-0.021-0.721,0.007-1.08
			c0.122-1.566,0.406-3.137,0.354-4.696c-0.102-2.948-0.395-5.89-0.622-9.026c-6.184-0.328-12.435-0.077-18.711-0.268
			c-0.497,2.52-0.159,4.93,0.03,7.339c0.152,1.944,0.281,3.885-0.37,5.771c-0.178,0.516-0.43,1.007-0.721,1.676
			c-1.238-1.495-1.513-3.043-1.375-4.687c0.132-1.572,0.33-3.14,0.509-4.708c0.206-1.792,0.028-3.549-0.44-5.316
			c-0.987,0-1.948,0.007-2.909-0.002c-4.942-0.035-9.885-0.075-14.828-0.111c-0.445-0.003-0.895,0.033-1.337-0.001
			c-0.721-0.054-1.026,0.245-1.046,0.97c-0.086,3.355-0.201,6.708-0.298,10.063c-0.034,1.172-0.011,2.348-0.075,3.52
			c-0.053,0.986-0.403,1.27-1.364,1.223c-0.888-0.044-1.486-0.533-1.915-1.228c0.029-0.137,0.023-0.262,0.068-0.284
			c1.025-0.523,0.994-1.376,0.855-2.358c-0.396-2.792-0.107-5.577,0.204-8.357c0.116-1.038,0.254-2.074,0.397-3.238
			c-7.248-0.8-14.397,0.35-21.657-0.23c-0.117,0.821-0.305,1.528-0.3,2.234c0.012,1.699,0.101,3.398,0.184,5.098
			c0.105,2.165,0.052,4.301-1.139,6.22c-0.256,0.412-0.443,1.054-1.152,0.846c-0.665-0.195-0.792-0.761-0.772-1.358
			c0.135-4.124,0.281-8.248,0.42-12.371c0.002-0.075-0.039-0.151-0.095-0.358c-7.266-0.195-14.566-0.37-21.93-0.118
			c-0.203,5.494,0.626,10.842-0.361,16.293c-0.772-0.262-1.432-0.486-1.978-0.672c0-5.199,0-10.293,0-15.523
			c-0.438-0.062-0.9-0.193-1.36-0.184c-3.321,0.07-6.64,0.19-9.959,0.251c-2.141,0.041-4.284,0.007-6.5,0.007
			c-0.594,1.281-0.813,2.669-0.812,4.084c0.003,3.078,0.066,6.156,0.087,9.234c0.011,1.725-0.353,2.161-2.273,2.695
			c-0.079-0.764-0.188-1.503-0.225-2.246c-0.194-4.045-0.364-8.093-0.555-12.139c-0.062-1.318-0.084-1.286-1.346-1.487
			c-2.028-0.321-3.938,0.023-5.763,0.962c-0.885-0.814-1.349-1.75-1.355-3.138c2.759-0.124,5.484-0.246,8.241-0.37
			c0-1.867,0.014-3.601-0.002-5.333c-0.05-5.105-0.243-10.212-0.139-15.313c0.151-7.529,0.509-15.058,0.783-22.585
			c0.034-0.931-0.148-1.243-1.303-1.304c-1.45-0.075-2.91,0.08-4.365,0.077c-1.041-0.002-2.086-0.057-3.117-0.188
			c-0.296-0.036-0.775-0.424-0.769-0.638c0.01-0.325,0.303-0.735,0.595-0.943c1.472-1.047,3.157-0.827,4.811-0.686
			c0.887,0.074,1.771,0.2,2.651,0.334c0.717,0.109,1.041-0.119,1.057-0.891c0.048-2.308,0.227-4.615,0.214-6.921
			c-0.046-7.979-0.153-15.96-0.234-23.939c-0.038-3.807-0.071-7.615-0.105-11.422c-0.012-1.461-0.076-1.576-1.538-1.709
			c-0.925-0.084-1.866,0.002-2.793-0.075c-0.921-0.076-1.87-0.154-2.736-0.441c-0.49-0.163-1.001-0.682-1.205-1.166
			c-0.195-0.462,0.765-1.246,1.526-1.275c0.639-0.024,1.292,0.039,1.921,0.161c0.95,0.184,1.887,0.439,2.824,0.687
			c0.531,0.142,0.896-0.024,1.029-0.543c0.327-1.285,0.848-2.572,0.886-3.87c0.232-7.691,0.405-15.386,0.478-23.081
			C28.932,73.919,28.704,70.199,28.592,66.363z M53.076,152.078c7.322,0.405,14.418-0.068,21.565-0.11
			c0.277-14.88-0.898-29.646-1.045-44.299c-7.114,0-14.02,0-20.964,0C51.663,122.558,53.179,137.219,53.076,152.078z
			 M74.362,197.717c1.109-8.315,1.39-38.439,0.39-43.111c-7.146,0.995-14.33,0.475-21.704,0.289c0,14.551,0,28.977,0,43.307
			C60.076,198.041,67.179,197.881,74.362,197.717z M77.437,155.226c0,14.228,0,28.412,0,42.749c7.22,0,14.232,0,21.312,0
			c0.432-14.522,1.234-29.025-0.004-43.361C91.512,154.82,84.417,155.025,77.437,155.226z M76.108,66.201
			c0.746,12.934,0.531,25.775,0.021,38.697c7.391,0.399,14.567,0.499,21.75-0.003c0.062-0.262,0.123-0.416,0.129-0.57
			c0.141-3.519,0.334-7.036,0.396-10.557c0.086-4.859,0.105-9.719,0.082-14.579c-0.008-1.489-0.23-2.979-0.385-4.465
			c-0.235-2.246-0.784-4.474-0.334-6.752c0.113-0.581,0.232-1.161,0.365-1.817C90.787,65.884,83.559,65.662,76.108,66.201z
			 M52.942,66.467c-0.623,2.818-0.933,36.603-0.443,38.434c7.078,0.624,14.174,0.098,21.32,0.013
			c0.276-12.991,1.144-25.83,0.149-38.849C67,66.199,60.01,66.333,52.942,66.467z M31.836,152.291
			c6.183-0.86,12.18-0.006,18.192-0.03c0.622-15.018,0.24-29.86,0.006-44.567c-1.661,0-3.152,0.022-4.643-0.004
			c-4.374-0.078-8.747-0.188-13.12-0.255c-1.324-0.02-1.401,0.062-1.388,1.364c0.07,6.521,0.105,13.043,0.266,19.564
			c0.158,6.396,0.462,12.789,0.679,19.185C31.879,149.074,31.836,150.603,31.836,152.291z M98.465,107.1
			c-7.465,0.125-14.575,0.245-21.803,0.366c-0.097,2.093-0.289,4.066-0.261,6.036c0.088,6.197,0.269,12.391,0.396,18.587
			c0.117,5.752,0.21,11.504,0.321,17.257c0.015,0.794,0.066,1.588,0.107,2.516c7.427,0,14.693,0,21.84,0c0-4.875,0-9.762,0-14.604
			c-4.807-1.15-7.455-4.023-7.879-8.362c-0.221-2.268,0.035-4.433,1.154-6.461c1.393-2.522,3.668-3.767,6.125-4.292
			C98.465,114.427,98.465,110.877,98.465,107.1z M31.858,154.797c-0.089,2.787-0.258,5.574-0.251,8.362
			c0.012,5.222,0.112,10.443,0.201,15.665c0.087,5.101,0.214,10.202,0.308,15.304c0.027,1.479,0.004,2.96,0.004,4.525
			c6.08,0.322,12.205,0.009,18.42-0.255c0.361-14.576,0.252-29.005-0.265-43.602C44.092,154.797,38.07,154.797,31.858,154.797z
			 M121.594,151.299c-0.471-15.035-0.934-29.877-1.403-44.894c-6.358,0.384-12.855,0.038-19.435,0.554
			c0,2.909,0.063,5.661-0.021,8.407c-0.063,2.07,0.734,3.38,2.731,4.039c0.71,0.233,1.337,0.756,1.961,1.203
			c3.114,2.232,4.103,5.221,3.293,8.943c-0.927,4.258-3.344,6.895-7.397,7.696c-0.162,4.808,0.284,9.634,0.326,14.59
			C108.33,152.502,114.882,152.253,121.594,151.299z M120.433,104.489c-0.08-12.935,0.739-25.59,0.32-38.304
			c-6.788,0-13.442,0-20.241,0c-0.111,12.875-0.49,25.644,0.575,38.304C107.584,104.489,113.93,104.489,120.433,104.489z
			 M142.48,104.137c0.181-12.914,0.662-25.557,0.006-38.353c-6.238,0-12.289,0-18.406,0c-1.775,12.756-0.59,25.644-1.559,38.353
			C129.277,104.137,135.821,104.137,142.48,104.137z M50.235,66.643c-0.498-0.036-0.858-0.079-1.218-0.085
			c-4.493-0.073-8.986-0.136-13.479-0.212c-1.011-0.018-2.025-0.027-3.031-0.122c-1.224-0.115-1.378-0.047-1.381,1.149
			c-0.014,4.978-0.01,9.956-0.01,14.934c0,7.003,0.21,14.011-0.444,21c-0.04,0.426-0.005,0.86-0.005,1.369
			c6.483,0.711,12.853,0.079,19.284,0.244C50.046,92.079,50.141,79.425,50.235,66.643z M122.868,106.64
			c-0.594,5.257,0.209,38.755,1.065,44.927c6.265,0.592,12.522-0.391,18.937-0.383c0-4.943,0-9.738,0-14.531
			c-4.788-0.463-6.512-2.955-7.243-5.652c-0.362-1.337-0.474-2.812-0.353-4.197c0.278-3.191,1.539-5.961,4.305-7.797
			c0.854-0.566,1.883-0.869,2.793-1.275c0-3.739,0-7.48,0-11.3C135.853,106.569,129.38,106.157,122.868,106.64z M121.13,154.08
			c-6.561,0.996-13.157,0.291-19.531,0.566c-0.201,14.576-0.399,28.983-0.601,43.477c6.949,0.372,13.716-0.027,20.532-0.257
			c0.144-3.963,0.281-7.781,0.421-11.624c-0.372-0.035-0.693-0.062-1.013-0.095c-3.023-0.311-5.104-1.976-6.343-4.655
			c-1.663-3.598-1.721-7.296-0.196-10.952c1.072-2.575,2.925-4.349,5.765-4.881c0.585-0.11,1.189-0.111,1.771-0.161
			C122.714,160.672,122.469,156.949,121.13,154.08z M142.781,196.783c-0.042-0.831-0.084-1.592-0.118-2.352
			c-0.062-1.412-0.207-2.828-0.156-4.237c0.123-3.396,0.463-6.788,0.492-10.183c0.067-7.608,0.01-15.216-0.026-22.824
			c-0.006-1.161-0.167-2.321-0.262-3.544c-6.317,0.319-12.557,0.636-18.675,0.945c0,3.753,0,7.331,0,10.884
			c6.258,0.801,8.314,4.976,8.703,9.061c0.24,2.519-0.354,4.9-1.689,7.073c-1.646,2.673-4.135,3.987-7.245,4.312
			c-0.162,4.039-0.32,7.975-0.48,11.945c1.157-0.072,2.124-0.182,3.091-0.186c3.078-0.011,6.155,0.017,9.232,0.031
			C138.004,197.72,140.325,197.475,142.781,196.783z"/>
		<path style="fill-rule:evenodd;clip-rule:evenodd;" d="M82.701,9.186c7.127-0.402,11.193,5.073,12.746,9.518
			c1.067,3.055-0.105,6.043-2.861,7.744c-2.548,1.571-5.379,2.039-8.276,1.697c-3.098-0.366-2.708,0.345-3.288-3.002
			c-0.481-2.777-0.577-5.618-0.906-8.423c-0.24-2.041-0.533-4.077-0.904-6.096C79.076,9.886,79.2,9.538,79.94,9.462
			C80.86,9.367,81.781,9.277,82.701,9.186z M85.775,24.669c1.343-0.259,2.594-0.631,3.861-0.702c1.018-0.056,1.417-0.566,1.723-1.37
			c0.836-2.19,0.528-4.227-0.916-6.044c-1.613-2.026-3.75-2.945-6.494-2.833C84.199,17.469,84.565,21.085,85.775,24.669z"/>
		<path style="fill-rule:evenodd;clip-rule:evenodd;" d="M71.032,53.376c0.534-2.525,0.102-4.881-0.121-7.25
			c-0.146-1.557-0.268-3.143-0.129-4.692c0.222-2.476,1.577-3.442,4.011-3.081c3.146,0.467,6.013,1.58,8.32,3.846
			c3.054,3.001,2.783,6.896-0.732,9.307c-3.25,2.23-6.885,2.863-10.755,2.118C71.439,53.587,71.267,53.476,71.032,53.376z
			 M73.698,51.388c2.939-0.136,5.392-0.941,7.192-3.162c0.388-0.479,0.601-1.146,0.75-1.762c0.257-1.063-0.501-3.064-1.362-3.433
			c-1.891-0.808-3.811-1.585-5.927-1.553c-1.292,0.021-1.362,0.12-1.188,1.372c0.033,0.24,0.034,0.484,0.049,0.726
			C73.37,46.115,73.527,48.652,73.698,51.388z"/>
		<path style="fill-rule:evenodd;clip-rule:evenodd;" d="M102.868,48.715c-1.054-0.501-2.167-0.378-3.181-0.048
			c-1.569,0.511-1.936-0.241-1.938-1.499c-0.001-0.281,0-0.563,0-0.829c1.764-0.254,3.462-0.565,5.175-0.728
			c1.921-0.183,2.925,0.611,3.372,2.529c0.137,0.585,0.191,1.195,0.226,1.797c0.091,1.612,0.149,3.225,0.222,4.858
			c-0.107,0.069-0.196,0.163-0.301,0.187c-2.232,0.509-2.234,0.802-2.586-1.653c-0.016-0.112-0.082-0.217-0.129-0.335
			c-0.785,0.235-1.541,0.526-2.322,0.686c-3.156,0.645-5.641-0.528-7.557-2.99c-1.498-1.925-2.126-4.165-1.98-6.594
			c0.032-0.542,0.201-1.13,0.479-1.593c1.604-2.663,5.656-4.451,8.721-3.905c1.781,0.318,3.238,1.899,3.158,3.631
			c-0.029,0.632-0.47,1.246-0.73,1.89c-0.562-0.185-1.092-0.359-1.366-0.45c-0.368-0.8-0.544-1.463-0.929-1.964
			c-1.028-1.336-2.402-1.549-3.717-0.493c-2.27,1.826-3.298,4.294-3.025,7.17c0.215,2.269,1.979,3.542,4.256,3.352
			C100.659,51.572,102.346,50.354,102.868,48.715z"/>
		<path style="fill-rule:evenodd;clip-rule:evenodd;" d="M26.065,40.946c0.15,0.881,0.282,1.652,0.424,2.481
			c0.915-0.149,1.659-0.329,2.411-0.38c1.325-0.091,2.26,1.291,1.652,2.472c-0.151,0.292-0.619,0.508-0.979,0.589
			c-0.936,0.209-1.892,0.323-2.972,0.497c0.101,0.598,0.18,1.145,0.286,1.686c0.109,0.553,0.245,1.102,0.384,1.717
			c2.472,0.236,4.975-0.725,7.48,0.092c0,0.403,0.047,0.768-0.009,1.116c-0.208,1.309-0.354,1.417-1.701,1.504
			c-2.059,0.133-4.117,0.282-6.176,0.411c-0.475,0.029-0.953,0.004-1.477,0.004c-0.716-4.801-1.661-9.473-1.599-14.271
			c0.012-0.912,0.335-1.426,1.13-1.556c1.147-0.188,2.316-0.245,3.478-0.334c1.239-0.096,2.487-0.109,3.718-0.26
			c1.009-0.124,1.693,0.49,1.533,1.52c-0.013,0.08-0.03,0.16-0.047,0.238c-0.532,2.431-0.493,2.079-2.586,1.983
			C29.394,40.38,27.796,40.345,26.065,40.946z"/>
		<path style="fill-rule:evenodd;clip-rule:evenodd;" d="M54.729,49.987c-1.403,0-2.604,0.036-3.802-0.007
			c-2.903-0.101-3.766,0.867-4.302,2.939c-0.078,0.303-0.238,0.584-0.359,0.871c-1.328-0.402-1.774-0.928-1.513-2.159
			c0.197-0.929,0.602-1.837,1.047-2.686c0.562-1.071,1.329-2.036,1.882-3.111c0.918-1.787,1.724-3.631,2.605-5.438
			c0.366-0.75,0.712-1.542,1.238-2.172c0.518-0.621,0.99-0.482,1.217,0.267c1.028,3.396,2.833,6.413,4.529,9.489
			c0.72,1.306,1.291,2.693,1.928,4.043c0.401,0.848,0.027,1.502-0.578,2.042c-0.705,0.628-1.543,0.531-2.07-0.261
			c-0.355-0.532-0.6-1.139-0.873-1.721C55.322,51.325,54.986,50.557,54.729,49.987z M49.624,47.677
			c0.081,0.086,0.161,0.173,0.242,0.26c1.18-0.11,2.359-0.221,3.607-0.337c-0.109-1.213-0.5-2.194-1.132-3.092
			c-0.319-0.454-0.789-0.552-1.057-0.098C50.667,45.461,50.169,46.583,49.624,47.677z"/>
		<path style="fill-rule:evenodd;clip-rule:evenodd;" d="M124.867,47.233c-1.801,0.151-3.324,0.273-4.847,0.411
			c-0.729,0.065-1.028,0.482-1.015,1.213c0.018,0.931,0,1.865-0.059,2.793c-0.033,0.507-0.183,1.008-0.285,1.547
			c-0.663,0-1.213,0-1.909,0c-0.33-5.002-0.655-9.954-0.987-14.991c1.158-0.218,1.979,0.389,2.786,0.949
			c0.156,0.109,0.156,0.514,0.146,0.78c-0.039,1.133-0.121,2.265-0.159,3.398c-0.018,0.476,0.038,0.956,0.06,1.424
			c1.71,0.629,3.373,0.187,5.013,0.176c0.227-0.001,0.615-0.519,0.648-0.825c0.128-1.283,0.156-2.576,0.204-3.867
			c0.022-0.584,0.004-1.17,0.004-1.97c2.039,1.36,2.817,3.16,2.94,5.247c0.094,1.614-0.022,3.24-0.026,4.86
			c-0.003,1.455-0.003,2.91,0.038,4.364c0.025,0.923-0.292,1.41-1.21,1.624c-0.817,0.191-1.153-0.452-1.296-0.989
			c-0.212-0.799-0.256-1.66-0.253-2.494C124.665,49.765,124.782,48.644,124.867,47.233z"/>
		<path style="fill-rule:evenodd;clip-rule:evenodd;" d="M138.937,38.731c3.526,0,6.745,0,10.138,0
			c-0.116-0.127-0.031-0.077-0.016-0.011c0.672,2.838,0.193,2.942-2.28,3.205c-1.31,0.14-2.659-0.104-3.991-0.165
			c-0.438-0.02-0.878-0.003-1.472-0.003c0.095,0.724,0.174,1.34,0.254,1.957c0.078,0.596,0.154,1.191,0.257,1.97
			c1.371-0.079,2.764-0.159,4.258-0.245c0.157,0.784,0.313,1.559,0.477,2.369c-1.438,1.137-3.16,0.492-4.925,0.891
			c0.124,0.986,0.247,1.952,0.388,3.057c1.414-0.098,2.777-0.179,4.138-0.29c1.403-0.115,2.738,0.034,4.002,0.927
			c-0.757,1.349-2.052,1.625-3.375,1.742c-0.757,0.067-1.53-0.07-2.297-0.108c-1.41-0.069-2.82-0.131-4.486-0.208
			C139.658,48.926,139.309,43.993,138.937,38.731z"/>
		<path style="fill-rule:evenodd;clip-rule:evenodd;fill:none;" d="M53.076,152.078c0.103-14.859-1.414-29.521-0.444-44.409
			c6.944,0,13.85,0,20.964,0c0.147,14.653,1.323,29.419,1.045,44.299C67.494,152.01,60.398,152.483,53.076,152.078z"/>
		<path style="fill-rule:evenodd;clip-rule:evenodd;fill:none;" d="M74.362,197.717c-7.183,0.164-14.286,0.324-21.314,0.484
			c0-14.33,0-28.756,0-43.307c7.374,0.186,14.558,0.706,21.704-0.289C75.752,159.277,75.472,189.401,74.362,197.717z"/>
		<path style="fill-rule:evenodd;clip-rule:evenodd;fill:none;" d="M77.437,155.226c6.98-0.2,14.075-0.405,21.308-0.612
			c1.238,14.336,0.436,28.839,0.004,43.361c-7.079,0-14.091,0-21.312,0C77.437,183.638,77.437,169.453,77.437,155.226z"/>
		<path style="fill-rule:evenodd;clip-rule:evenodd;fill:none;" d="M76.108,66.201c7.451-0.54,14.679-0.317,22.025-0.045
			c-0.133,0.656-0.252,1.236-0.365,1.817c-0.45,2.278,0.099,4.506,0.334,6.752c0.154,1.486,0.377,2.976,0.385,4.465
			c0.023,4.859,0.004,9.72-0.082,14.579c-0.062,3.521-0.256,7.038-0.396,10.557c-0.006,0.154-0.067,0.308-0.129,0.57
			c-7.184,0.502-14.36,0.403-21.75,0.003C76.639,91.977,76.854,79.135,76.108,66.201z"/>
		<path style="fill-rule:evenodd;clip-rule:evenodd;fill:none;" d="M52.942,66.467C60.01,66.333,67,66.199,73.968,66.066
			c0.995,13.019,0.127,25.858-0.149,38.849c-7.146,0.084-14.242,0.611-21.32-0.013C52.009,103.07,52.319,69.286,52.942,66.467z"/>
		<path style="fill-rule:evenodd;clip-rule:evenodd;fill:none;" d="M31.836,152.291c0-1.688,0.043-3.217-0.008-4.744
			c-0.216-6.396-0.521-12.788-0.679-19.185c-0.161-6.521-0.196-13.042-0.266-19.564c-0.014-1.302,0.064-1.384,1.388-1.364
			c4.374,0.067,8.747,0.178,13.12,0.255c1.49,0.026,2.981,0.004,4.643,0.004c0.234,14.707,0.616,29.55-0.006,44.567
			C44.016,152.285,38.019,151.431,31.836,152.291z"/>
		<path style="fill-rule:evenodd;clip-rule:evenodd;fill:none;" d="M98.465,107.1c0,3.777,0,7.327,0,11.042
			c-2.457,0.526-4.732,1.77-6.125,4.292c-1.119,2.028-1.375,4.193-1.154,6.461c0.424,4.339,3.072,7.212,7.879,8.362
			c0,4.842,0,9.729,0,14.604c-7.146,0-14.413,0-21.84,0c-0.041-0.928-0.092-1.722-0.107-2.516
			c-0.111-5.753-0.204-11.505-0.321-17.257c-0.127-6.196-0.308-12.391-0.396-18.587c-0.028-1.97,0.164-3.942,0.261-6.036
			C83.89,107.345,91,107.226,98.465,107.1z M86.246,111.612c-1.047,1.171-2.031,2.273-3.018,3.374
			c-0.921,1.029-1.308,2.192-0.925,3.569c0.954,0.251,1.557-0.154,2.011-0.938c0.324-0.562,0.55-1.239,1.416-1.521
			c0.303,2.299,0.59,4.476,0.86,6.526c0.588,0.193,1.01,0.331,1.442,0.474c0-2.762,0.084-5.502-0.037-8.232
			C87.938,113.546,87.479,112.254,86.246,111.612z"/>
		<path style="fill-rule:evenodd;clip-rule:evenodd;fill:none;" d="M31.858,154.797c6.211,0,12.233,0,18.417,0
			c0.518,14.597,0.626,29.025,0.265,43.602c-6.215,0.264-12.341,0.577-18.42,0.255c0-1.565,0.022-3.046-0.004-4.525
			c-0.094-5.102-0.221-10.203-0.308-15.304c-0.089-5.222-0.189-10.443-0.201-15.665C31.6,160.371,31.769,157.584,31.858,154.797z"/>
		<path style="fill-rule:evenodd;clip-rule:evenodd;fill:none;" d="M121.594,151.299c-6.712,0.954-13.264,1.203-19.945,0.538
			c-0.042-4.956-0.488-9.782-0.326-14.59c4.054-0.802,6.471-3.438,7.397-7.696c0.81-3.723-0.179-6.711-3.293-8.943
			c-0.624-0.447-1.251-0.97-1.961-1.203c-1.997-0.659-2.795-1.969-2.731-4.039c0.085-2.746,0.021-5.498,0.021-8.407
			c6.579-0.517,13.076-0.17,19.435-0.554C120.66,121.422,121.123,136.264,121.594,151.299z"/>
		<path style="fill-rule:evenodd;clip-rule:evenodd;fill:none;" d="M120.433,104.489c-6.503,0-12.849,0-19.346,0
			c-1.065-12.66-0.687-25.429-0.575-38.304c6.799,0,13.453,0,20.241,0C121.172,78.899,120.353,91.555,120.433,104.489z"/>
		<path style="fill-rule:evenodd;clip-rule:evenodd;fill:none;" d="M142.48,104.137c-6.659,0-13.203,0-19.959,0
			c0.969-12.708-0.217-25.596,1.559-38.353c6.117,0,12.168,0,18.406,0C143.143,78.581,142.661,91.224,142.48,104.137z"/>
		<path style="fill-rule:evenodd;clip-rule:evenodd;fill:none;" d="M50.235,66.643c-0.095,12.782-0.189,25.436-0.285,38.277
			c-6.431-0.165-12.801,0.467-19.284-0.244c0-0.509-0.035-0.942,0.005-1.369c0.654-6.989,0.444-13.997,0.444-21
			c0-4.978-0.004-9.956,0.01-14.934c0.003-1.196,0.157-1.265,1.381-1.149c1.006,0.094,2.021,0.104,3.031,0.122
			c4.493,0.076,8.986,0.139,13.479,0.212C49.377,66.564,49.738,66.607,50.235,66.643z"/>
		<path style="fill-rule:evenodd;clip-rule:evenodd;fill:none;" d="M122.868,106.64c6.512-0.482,12.984-0.071,19.504-0.209
			c0,3.82,0,7.561,0,11.3c-0.91,0.406-1.939,0.709-2.793,1.275c-2.766,1.836-4.026,4.605-4.305,7.797
			c-0.121,1.385-0.01,2.86,0.353,4.197c0.731,2.697,2.455,5.189,7.243,5.652c0,4.793,0,9.588,0,14.531
			c-6.414-0.008-12.672,0.975-18.937,0.383C123.077,145.395,122.274,111.896,122.868,106.64z M130.309,120.239
			c0.465-0.505,0.798-0.846,1.107-1.206c1.154-1.351,2.058-2.786,1.877-4.691c-0.146-1.548-1.043-2.737-2.545-3.193
			c-1.709-0.519-3.731-0.048-4.573,1.066c-0.581,0.767-0.613,1.91-0.073,2.6c0.544,0.695,1.167,0.76,2.259,0.229
			c-0.065-0.335-0.133-0.674-0.232-1.186c0.561-0.092,1.044-0.171,1.527-0.251c0.084,0.531,0.274,1.072,0.232,1.592
			c-0.114,1.399-0.871,2.475-1.884,3.411c-0.799,0.737-1.653,1.454-2.28,2.324c-0.84,1.166-0.351,2.054,1.054,2.039
			c2.06-0.021,4.118-0.121,6.177-0.199c0.593-0.021,1.304-0.946,1.298-1.639c-0.007-0.812-0.598-0.871-1.178-0.889
			C132.232,120.221,131.389,120.239,130.309,120.239z"/>
		<path style="fill-rule:evenodd;clip-rule:evenodd;fill:none;" d="M121.13,154.08c1.339,2.869,1.584,6.592,0.806,11.418
			c-0.582,0.05-1.187,0.051-1.771,0.161c-2.84,0.532-4.692,2.306-5.765,4.881c-1.524,3.656-1.467,7.354,0.196,10.952
			c1.238,2.68,3.319,4.345,6.343,4.655c0.319,0.032,0.641,0.06,1.013,0.095c-0.14,3.843-0.277,7.661-0.421,11.624
			c-6.816,0.229-13.583,0.629-20.532,0.257c0.201-14.493,0.399-28.9,0.601-43.477C107.973,154.371,114.569,155.076,121.13,154.08z
			 M111.146,164.092c0.294-0.721,0.526-1.364,0.813-1.982c0.503-1.073,0.186-2.003-0.556-2.776c-1.14-1.187-2.568-1.26-4.049-0.793
			c-1.4,0.441-2.402,1.325-2.748,2.806c-0.168,0.717,0.163,1.122,0.904,1.013c0.586-0.088,1.137-0.39,1.709-0.577
			c0.456-0.149,0.916-0.341,1.383-0.375c0.266-0.019,0.688,0.179,0.791,0.396c0.106,0.224,0.013,0.697-0.173,0.872
			c-0.399,0.378-0.9,0.652-1.384,0.932c-0.484,0.281-1.041,0.455-1.485,0.786c-0.544,0.406-0.733,1.445-0.442,1.868
			c0.453,0.661,1.393,0.858,2.123,0.462c0.51-0.278,1.03-0.536,1.606-0.834c0.318,2.525-1.016,3.644-3.157,2.918
			c-0.658-0.222-1.367-0.294-2.105-0.444c0.17,2.633,1.9,3.838,4.199,3.139C112.005,170.459,113.131,167.211,111.146,164.092z"/>
		<path style="fill-rule:evenodd;clip-rule:evenodd;fill:none;" d="M142.781,196.783c-2.456,0.691-4.777,0.937-7.134,0.926
			c-3.077-0.015-6.154-0.042-9.232-0.031c-0.967,0.004-1.934,0.113-3.091,0.186c0.16-3.971,0.318-7.906,0.48-11.945
			c3.11-0.324,5.6-1.639,7.245-4.312c1.336-2.173,1.93-4.555,1.689-7.073c-0.389-4.085-2.445-8.26-8.703-9.061
			c0-3.553,0-7.131,0-10.884c6.118-0.31,12.357-0.626,18.675-0.945c0.095,1.223,0.256,2.383,0.262,3.544
			c0.036,7.608,0.094,15.216,0.026,22.824c-0.029,3.395-0.369,6.787-0.492,10.183c-0.051,1.409,0.095,2.825,0.156,4.237
			C142.697,195.191,142.739,195.952,142.781,196.783z"/>
		<path style="fill-rule:evenodd;clip-rule:evenodd;fill:none;" d="M82.775,29.669c-1.21-3.584-1.576-7.201-1.826-10.95
			c2.744-0.112,4.881,0.807,6.494,2.833c1.445,1.817,1.753,3.854,0.917,6.044c-0.307,0.804-0.705,1.314-1.723,1.37
			C85.369,29.039,84.118,29.411,82.775,29.669z"/>
		<path style="fill-rule:evenodd;clip-rule:evenodd;fill:none;" d="M73.698,51.388c-0.171-2.736-0.329-5.273-0.487-7.812
			c-0.015-0.242-0.016-0.486-0.049-0.726c-0.173-1.252-0.103-1.351,1.188-1.372c2.116-0.033,4.036,0.745,5.927,1.553
			c0.861,0.368,1.619,2.369,1.362,3.433c-0.149,0.616-0.361,1.284-0.75,1.762C79.09,50.447,76.638,51.252,73.698,51.388z"/>
		<path style="fill-rule:evenodd;clip-rule:evenodd;fill:none;" d="M49.624,47.677c0.546-1.094,1.043-2.216,1.66-3.268
			c0.268-0.454,0.737-0.356,1.057,0.098c0.631,0.898,1.023,1.879,1.132,3.092c-1.248,0.116-2.427,0.227-3.607,0.337
			C49.785,47.85,49.704,47.763,49.624,47.677z"/>
		<path style="fill-rule:evenodd;clip-rule:evenodd;" d="M86.246,111.612c1.233,0.642,1.691,1.934,1.75,3.251
			c0.121,2.73,0.037,5.471,0.037,8.232c-0.432-0.143-0.854-0.28-1.442-0.474c-0.27-2.051-0.557-4.228-0.86-6.526
			c-0.866,0.283-1.092,0.959-1.416,1.521c-0.454,0.784-1.057,1.189-2.011,0.938c-0.382-1.376,0.004-2.54,0.925-3.569
			C84.215,113.885,85.199,112.784,86.246,111.612z"/>
		<path style="fill-rule:evenodd;clip-rule:evenodd;" d="M130.309,120.239c1.08,0,1.924-0.019,2.766,0.007
			c0.58,0.018,1.171,0.076,1.178,0.889c0.006,0.692-0.705,1.617-1.298,1.639c-2.059,0.078-4.117,0.178-6.177,0.199
			c-1.404,0.015-1.894-0.873-1.054-2.039c0.627-0.87,1.481-1.587,2.28-2.324c1.013-0.937,1.77-2.012,1.884-3.411
			c0.042-0.521-0.148-1.061-0.232-1.592c-0.483,0.08-0.967,0.159-1.527,0.251c0.1,0.512,0.167,0.85,0.232,1.186
			c-1.092,0.531-1.715,0.466-2.259-0.229c-0.54-0.689-0.508-1.833,0.073-2.6c0.842-1.114,2.864-1.584,4.573-1.066
			c1.502,0.456,2.398,1.645,2.545,3.193c0.181,1.905-0.723,3.34-1.877,4.691C131.106,119.394,130.773,119.734,130.309,120.239z"/>
		<path style="fill-rule:evenodd;clip-rule:evenodd;" d="M111.146,164.092c1.984,3.119,0.858,6.367-2.57,7.409
			c-2.299,0.699-4.029-0.506-4.199-3.139c0.738,0.15,1.447,0.223,2.105,0.444c2.142,0.726,3.476-0.393,3.157-2.918
			c-0.576,0.298-1.097,0.556-1.606,0.834c-0.73,0.396-1.67,0.199-2.123-0.462c-0.291-0.423-0.102-1.462,0.442-1.868
			c0.444-0.331,1.001-0.505,1.485-0.786c0.483-0.279,0.984-0.554,1.384-0.932c0.186-0.175,0.279-0.648,0.173-0.872
			c-0.104-0.218-0.525-0.415-0.791-0.396c-0.467,0.034-0.927,0.226-1.383,0.375c-0.572,0.188-1.123,0.489-1.709,0.577
			c-0.741,0.109-1.072-0.296-0.904-1.013c0.346-1.48,1.348-2.364,2.748-2.806c1.48-0.467,2.909-0.394,4.049,0.793
			c0.741,0.773,1.059,1.703,0.556,2.776C111.673,162.728,111.44,163.371,111.146,164.092z"/>
	</g>
</g>
<g id="Layer_1">
</g>
</svg>
