<?xml version="1.0" encoding="iso-8859-1"?>
<!-- Generator: Adobe Illustrator 16.0.0, SVG Export Plug-In . SVG Version: 6.00 Build 0)  -->
<!DOCTYPE svg PUBLIC "-//W3C//DTD SVG 1.1//EN" "http://www.w3.org/Graphics/SVG/1.1/DTD/svg11.dtd">
<svg version="1.1" xmlns="http://www.w3.org/2000/svg" xmlns:xlink="http://www.w3.org/1999/xlink" x="0px" y="0px"
	 width="177.771px" height="234.04px" viewBox="0 0 177.771 234.04" style="enable-background:new 0 0 177.771 234.04;"
	 xml:space="preserve">
<g id="G">
	<g id="G_1_">
		<path style="fill:none;" d="M177.771,234.04c-59.257,0-118.514,0-177.771,0C0,153.44,0,72.841,0-7.759
			c59.257,0,118.515,0,177.771,0C177.771,72.841,177.771,153.44,177.771,234.04z M149.86,150.204
			c-0.504-14.81-0.7-29.599,0.527-44.539c1.309,0.066,2.506,0.134,3.705,0.185c1.247,0.053,2.495,0.143,3.74,0.115
			c0.83-0.018,1.538-0.393,1.962-1.219c-0.769-0.814-1.713-1.122-2.732-1.185c-1.128-0.07-2.262-0.048-3.393-0.085
			c-1.315-0.043-2.631-0.107-3.959-0.163c0-0.965-0.004-1.764,0.001-2.563c0.032-4.968,0.103-9.937,0.093-14.905
			c-0.012-6.019-0.1-12.037-0.13-18.056c-0.003-0.753,0.143-1.506,0.226-2.322c3.817-0.666,7.55,0.202,11.268,0.034
			c0.401-2.079,0.46-4.04,0.099-6.009c-0.307-1.666-0.415-1.799-2.085-1.751c-4.439,0.129-8.878,0.408-13.318,0.417
			c-4.237,0.008-8.475-0.378-12.713-0.364c-8.966,0.032-17.932,0.212-26.898,0.332c-5.897,0.079-11.795,0.142-17.693,0.245
			c-3.472,0.061-6.942,0.215-10.414,0.277c-6.867,0.122-13.735,0.296-20.602,0.278c-4.601-0.012-9.201-0.431-13.803-0.466
			c-6.341-0.05-12.684,0.089-19.026,0.154c-0.227,0.002-0.454,0.079-0.916,0.164c0.162,2.037,0.288,4.037,0.495,6.028
			c0.076,0.729,0.468,1.245,1.353,1.228c1.085-0.021,2.172,0.051,3.258,0.08c1.127,0.03,2.253,0.066,3.381,0.08
			c0.742,0.009,0.925,0.391,0.934,1.084c0.083,7.231,0.305,14.463,0.251,21.692c-0.03,3.947-0.492,7.893-0.809,11.835
			c-0.105,1.312-0.365,2.612-0.568,4.007c-0.628-0.057-1.147-0.075-1.657-0.155c-0.955-0.152-1.898-0.417-2.858-0.493
			c-1.089-0.086-2.151,0.068-2.808,1.128c0.757,1.242,1.844,1.637,3.127,1.678c1.41,0.044,2.818,0.117,4.228,0.17
			c0.683,0.025,0.845,0.402,0.851,1.034c0.033,3.392,0.097,6.785,0.163,10.177c0.076,3.877,0.208,7.752,0.237,11.629
			c0.054,6.91,0.052,13.82,0.065,20.73c0,0.268-0.079,0.534-0.145,0.947c-1.256-0.066-2.457-0.139-3.659-0.189
			c-1.248-0.055-2.498-0.152-3.743-0.111c-0.896,0.029-1.598,0.492-1.966,1.639c0.556,0.258,1.091,0.668,1.666,0.737
			c1.112,0.134,2.247,0.099,3.372,0.087c1.48-0.016,2.975-0.275,4.428,0.283c0.674,2.425,0.063,4.746-0.237,7.139
			c-3.156,0.099-5.292,1.675-6.629,4.387c-1.107,2.243-1.404,4.653-0.997,7.084c0.5,2.989,1.867,5.407,5.014,6.383
			c0.457,0.142,0.87,0.42,1.311,0.621c0.617,0.281,0.851,0.727,0.88,1.427c0.188,4.479,0.431,8.954,0.641,13.432
			c0.042,0.886,0.021,1.775,0.021,2.663c0,0.826-0.323,1.262-1.245,1.175c-0.923-0.089-1.856-0.094-2.785-0.083
			c-1.517,0.019-3.034,0.08-4.527,0.123c-0.088,1.337-0.042,1.462,1.072,3.117c0.862-0.206,1.754-0.429,2.65-0.636
			c1.265-0.292,2.529-0.52,3.819-0.106c0.502,0.161,0.829,0.363,0.857,0.982c0.135,2.905,0.357,5.806,0.465,8.71
			c0.074,2.002,0.014,4.009,0.014,6.03c1.539-0.222,2.297-0.932,2.656-2.369c0.533-2.139,0.051-4.26-0.116-6.386
			c-0.165-2.094-0.369-4.186,0.141-6.263c0.162-0.663,0.471-1.062,1.267-0.917c0.629,0.114,1.286,0.15,1.926,0.124
			c3.227-0.134,6.452-0.353,9.681-0.437c1.913-0.049,3.849-0.124,5.709,0.347c0,5.205,0,10.318,0,15.492
			c0.421,0.088,0.859,0.156,1.284,0.272c0.736,0.202,0.953-0.163,0.948-0.812c-0.002-0.282,0.018-0.565,0.018-0.848
			c0.007-4.283,0.005-8.567,0.024-12.85c0.003-0.588,0.104-1.174,0.146-1.612c7.393,0,14.643,0,21.707,0
			c0,2.382,0.023,4.561-0.007,6.737c-0.027,1.938-0.124,3.873-0.166,5.812c-0.007,0.353,0.035,0.738,0.174,1.058
			c0.313,0.718,1.067,0.868,1.512,0.231c0.473-0.676,0.953-1.466,1.056-2.254c0.193-1.467,0.121-2.97,0.147-4.459
			c0.04-2.132,0.062-4.264,0.107-6.396c0.016-0.78,0.462-0.966,1.205-0.956c2.626,0.032,5.253,0.01,7.879-0.025
			c3.311-0.043,6.621-0.136,9.933-0.169c0.873-0.009,1.747,0.124,2.697,0.199c-0.048,0.674-0.046,1.237-0.135,1.786
			c-0.512,3.163-0.695,6.347-0.414,9.536c0.101,1.154,0.057,2.142-0.915,2.904c-0.037,0.029-0.005,0.147-0.005,0.349
			c0.505,0.273,1.041,0.649,1.635,0.866c0.954,0.346,1.644-0.154,1.692-1.18c0.041-0.845,0.031-1.692,0.029-2.54
			c-0.011-2.907-0.09-5.818-0.013-8.725c0.03-1.169,0.399-2.329,0.575-3.275c6.764,0,13.241,0,19.626,0
			c0.155,1.58,0.202,2.955,0.443,4.296c0.344,1.906,0.268,3.769-0.156,5.643c-0.159,0.706-0.282,1.43-0.324,2.15
			c-0.079,1.329,0.435,2.114,1.664,2.542c0.237-0.574,0.647-1.148,0.687-1.748c0.131-1.924,0.162-3.856,0.159-5.786
			c-0.003-1.693-0.178-3.39-0.142-5.08c0.044-2.001,0.388-2.235,2.35-2.212c3.995,0.047,7.991,0.065,11.987,0.091
			c1.357,0.009,2.717,0.002,4.085,0.002c0.076,0.259,0.175,0.484,0.209,0.722c0.649,4.41,0.906,8.833,0.451,13.283
			c-0.056,0.552,0.069,1.121,0.116,1.76c1.622-0.75,2.329-1.698,2.192-3.374c-0.229-2.813-0.288-5.646-0.32-8.471
			c-0.017-1.312,0.2-2.626,0.309-3.895c3.327,0,6.455,0,9.578,0c0.108-2.396-0.289-2.98-2.475-3.343
			c-1.108-0.185-2.251-0.154-3.374-0.259c-1.096-0.104-2.187-0.257-3.363-0.399c0.589-6.943-0.521-13.674,0.09-20.497
			c2.128,0.054,3.748-0.827,5.027-2.358c2.146-2.568,2.954-5.557,2.389-8.815c-0.455-2.618-1.953-4.471-4.686-5.11
			c-0.584-0.137-1.146-0.372-1.71-0.578c-0.603-0.221-0.836-0.63-0.816-1.304c0.029-1.005-0.091-2.016-0.1-3.024
			c-0.005-0.503,0.093-1.006,0.149-1.553c0.782,0,1.426-0.034,2.063,0.008c1.127,0.075,2.248,0.242,3.375,0.287
			c0.895,0.035,1.751-0.152,2.332-0.947c-0.322-0.627-0.613-1.19-0.918-1.779C154.641,150.123,152.335,150.809,149.86,150.204z
			 M97.408,30.765c0.045,0.186,0.088,0.466,0.182,0.728c0.299,0.84,0.848,1.208,1.643,1.115c0.865-0.101,1.105-0.747,1.158-1.46
			c0.039-0.515,0-1.056-0.119-1.558c-0.324-1.35-0.511-2.688-0.137-4.062c0.115-0.425,0.174-0.874,0.195-1.314
			c0.062-1.271-0.492-1.837-1.743-1.849c-1.655-0.015-3.312-0.074-4.966-0.045c-0.674,0.012-1.371,0.123-2.012,0.332
			c-1.246,0.404-1.434,1.234-0.488,2.162c0.322,0.315,0.812,0.552,1.26,0.625c0.668,0.109,1.365,0.025,2.049,0.054
			c0.777,0.033,1.554,0.099,2.439,0.157c-0.502,1.521-1.508,2.201-2.722,2.424c-1.298,0.237-2.641,0.261-3.966,0.298
			c-2.475,0.07-3.778-1.613-4.283-3.121c-1.056-3.16,0.141-7.042,3.265-8.815c1.971-1.119,3.977-0.827,5.61,0.734
			c0.399,0.382,0.875,0.715,1.369,0.96c0.578,0.285,1.064,0.12,1.416-0.49c0.594-1.034,0.357-2.059-0.793-2.934
			c-1.28-0.972-2.769-1.482-4.326-1.767c-3.285-0.601-6.08,0.12-8.061,3.041c-1.741,2.565-2.244,5.407-1.887,8.417
			c0.619,5.231,4.882,8.492,10.084,7.657C94.179,31.797,95.73,31.222,97.408,30.765z M75.531,53.221
			c0.378,0.175,0.589,0.289,0.812,0.371c0.263,0.098,0.532,0.192,0.807,0.246c3.98,0.77,7.456-0.391,10.382-3.04
			c3.225-2.92,3.142-5.968-0.103-8.875c-2.146-1.924-4.7-3.071-7.517-3.657c-1.099-0.229-2.199-0.592-3.033,0.582
			c-0.104,0.147-0.343,0.201-0.522,0.291c-0.632,0.316-0.981,0.795-0.968,1.533c0.018,1.008-0.036,2.018,0.001,3.023
			C75.507,46.849,76.611,49.976,75.531,53.221z M102.652,48.571c1.732,0.681,3.356-0.891,4.986-0.056
			c-0.336,2.096-3.59,3.164-5.303,2.792c-0.673-0.146-1.49-0.369-1.9-0.849c-1.549-1.811-1.65-5.032-0.413-7.073
			c0.926-1.526,2.405-2.016,4.034-2.359c1.354-0.286,1.941,0.69,2.761,1.373c0.462,0.384,1.051,0.615,1.651,0.954
			c0.464-2.504-0.756-4.218-3.053-4.527c-2.113-0.284-4.07,0.216-5.938,1.223c-2.301,1.239-3.298,3.104-2.917,5.694
			c0.06,0.399,0.135,0.796,0.215,1.191c0.848,4.232,4.467,7.143,8.669,6.873c1.052-0.068,2.083-0.439,3.228-0.693
			c0,0.492-0.101,0.965,0.033,1.359c0.099,0.295,0.513,0.701,0.764,0.686c0.74-0.046,1.469-0.276,2.031-0.398
			c-0.128-2.051-0.262-3.927-0.356-5.805c-0.058-1.146-0.485-2.114-1.274-2.922c-0.184-0.187-0.453-0.396-0.692-0.405
			c-2.304-0.099-4.568,0.143-6.884,0.853C102.42,47.224,102.535,47.888,102.652,48.571z M32.037,50
			c-0.226-0.82-0.436-1.636-0.678-2.444c-0.185-0.619,0.051-0.927,0.658-1c0.64-0.077,1.283-0.127,1.92-0.218
			c0.931-0.133,1.302-0.691,1.169-1.713c-0.132-1.009-0.649-1.431-1.592-1.35c-0.785,0.067-1.574,0.09-2.33,0.13
			c-0.486-2.408-0.246-2.747,1.916-2.865c0.521-0.029,1.048,0.036,1.571,0.028c0.886-0.013,1.775-0.013,2.656-0.098
			c0.255-0.025,0.646-0.282,0.697-0.498c0.178-0.761,0.235-1.549,0.348-2.399c-3.46-0.935-6.68-0.423-9.958,0.366
			c-0.233,5.265,0.822,10.301,1.615,15.386c3.101-0.137,6.071-0.267,9.116-0.4c0.13-1.046,0.246-1.978,0.364-2.925
			C36.989,50,34.584,50,32.037,50z M56.869,37.859c-0.471,0.485-0.864,0.746-1.058,1.111c-1.661,3.134-3.302,6.279-4.912,9.439
			c-0.743,1.458-1.403,2.958-2.138,4.514c0.754,0.468,1.364,0.846,2.033,1.262c0.161-0.372,0.247-0.511,0.281-0.662
			c0.583-2.499,1.402-3.187,3.967-3.348c1.047-0.065,2.121-0.04,3.129-0.28c0.904-0.216,1.291,0.185,1.593,0.845
			c0.451,0.987,0.88,1.988,1.263,3.003c0.289,0.765,0.783,0.94,1.521,0.748c1.454-0.379,1.774-0.966,1.174-2.381
			c-0.438-1.033-1.084-1.987-0.932-3.2c0.024-0.191-0.19-0.419-0.31-0.621c-1.169-1.968-2.391-3.908-3.496-5.913
			C58.25,41.041,57.682,39.611,56.869,37.859z M120.396,38.038c0.285,5.139,0.556,10.033,0.833,15.035c0.688,0,1.38,0,2.186,0
			c0.087-1.862,0.167-3.61,0.245-5.292c1.947-0.239,3.73-0.458,5.737-0.705c0,0.725,0.037,1.353-0.009,1.973
			c-0.068,0.925-0.208,1.844-0.291,2.768c-0.099,1.082,0.386,2.025,1.287,2.379c0.28,0.11,0.79,0.111,0.961-0.065
			c0.6-0.619,1.317-1.247,0.766-2.3c-0.16-0.306-0.195-0.704-0.197-1.06c-0.01-2.255,0.087-4.515-0.021-6.766
			c-0.06-1.264-0.352-2.541-0.721-3.757c-0.254-0.839-0.907-1.475-1.892-1.641c-1.161,2.047,0.513,4.388-0.775,6.403
			c-1.691,0-3.36,0-5.171,0c0-2.01,0-3.967,0-6.027C122.386,38.679,121.403,38.363,120.396,38.038z M153.412,38.589
			c-3.341,0.14-6.543,0.272-9.927,0.413c0.31,4.969,0.607,9.751,0.914,14.668c3.043,0.25,6.039,0.86,9.007-0.168
			c0.602-0.208,1.104-0.703,1.748-1.129c-2.845-1.869-5.8-0.667-8.624-1.002c-0.05-0.252-0.082-0.485-0.144-0.71
			c-0.063-0.233-0.164-0.456-0.235-0.687c-0.332-1.082-0.137-1.431,0.985-1.487c1.197-0.06,2.4-0.014,3.623-0.014
			c0.319-1.197,0.049-2.151-0.491-3.114c-1.434,0.065-2.822,0.128-4.221,0.192c0-1.266,0-2.415,0-3.689
			c0.561,0,1.031-0.018,1.501,0.003c1.211,0.053,2.42,0.16,3.631,0.172c1.017,0.01,2.01-0.153,2.751-0.958
			C153.763,40.27,153.6,39.49,153.412,38.589z M15.593,169.808c1.449,0.067,2.849,0.157,4.25,0.189
			c1.394,0.032,2.789,0.007,4.17,0.007c0.093-1.323-0.231-1.738-1.404-1.906c-0.857-0.122-1.72-0.212-2.765-0.339
			c0.293-0.41,0.449-0.627,0.602-0.844c1.314-1.87,2.037-3.913,1.881-6.231c-0.115-1.7-1.193-3.163-2.569-3.426
			c-1.266-0.242-3.342,1.033-3.894,2.394c-0.46,1.13-0.116,1.932,0.987,2.428c0.461-0.709,0.832-1.49,1.403-2.074
			c0.342-0.351,0.999-0.394,1.514-0.573c0.106,0.523,0.44,1.137,0.275,1.552c-0.468,1.181-1.081,2.315-1.749,3.399
			c-0.633,1.025-1.455,1.933-2.106,2.949C15.717,168.066,15.338,168.883,15.593,169.808z"/>
		<path style="fill-rule:evenodd;clip-rule:evenodd;" d="M149.86,150.204c2.475,0.604,4.78-0.081,7.138-0.161
			c0.305,0.589,0.596,1.152,0.918,1.779c-0.581,0.795-1.438,0.982-2.332,0.947c-1.127-0.045-2.248-0.212-3.375-0.287
			c-0.638-0.042-1.281-0.008-2.063-0.008c-0.057,0.547-0.154,1.05-0.149,1.553c0.009,1.009,0.129,2.02,0.1,3.024
			c-0.02,0.674,0.214,1.083,0.816,1.304c0.564,0.206,1.126,0.441,1.71,0.578c2.732,0.64,4.23,2.492,4.686,5.11
			c0.565,3.259-0.242,6.247-2.389,8.815c-1.279,1.531-2.899,2.412-5.027,2.358c-0.611,6.823,0.499,13.554-0.09,20.497
			c1.177,0.143,2.268,0.296,3.363,0.399c1.123,0.104,2.266,0.074,3.374,0.259c2.186,0.362,2.583,0.946,2.475,3.343
			c-3.123,0-6.251,0-9.578,0c-0.108,1.269-0.325,2.583-0.309,3.895c0.032,2.825,0.092,5.657,0.32,8.471
			c0.137,1.676-0.57,2.624-2.192,3.374c-0.047-0.639-0.172-1.208-0.116-1.76c0.455-4.45,0.198-8.873-0.451-13.283
			c-0.034-0.237-0.133-0.463-0.209-0.722c-1.368,0-2.728,0.007-4.085-0.002c-3.996-0.025-7.992-0.044-11.987-0.091
			c-1.962-0.023-2.306,0.211-2.35,2.212c-0.036,1.69,0.139,3.387,0.142,5.08c0.003,1.93-0.028,3.862-0.159,5.786
			c-0.039,0.6-0.449,1.174-0.687,1.748c-1.229-0.428-1.743-1.213-1.664-2.542c0.042-0.721,0.165-1.444,0.324-2.15
			c0.424-1.874,0.5-3.736,0.156-5.643c-0.241-1.341-0.288-2.716-0.443-4.296c-6.385,0-12.862,0-19.626,0
			c-0.176,0.946-0.545,2.106-0.575,3.275c-0.077,2.906,0.002,5.817,0.013,8.725c0.002,0.848,0.012,1.695-0.029,2.54
			c-0.049,1.025-0.738,1.525-1.692,1.18c-0.594-0.217-1.13-0.593-1.635-0.866c0-0.201-0.032-0.319,0.005-0.349
			c0.972-0.763,1.016-1.75,0.915-2.904c-0.281-3.189-0.098-6.373,0.414-9.536c0.089-0.549,0.087-1.112,0.135-1.786
			c-0.95-0.075-1.824-0.208-2.697-0.199c-3.312,0.033-6.622,0.126-9.933,0.169c-2.626,0.035-5.253,0.058-7.879,0.025
			c-0.743-0.01-1.188,0.176-1.205,0.956c-0.045,2.132-0.067,4.264-0.107,6.396c-0.027,1.489,0.045,2.992-0.147,4.459
			c-0.103,0.788-0.583,1.578-1.056,2.254c-0.445,0.637-1.199,0.486-1.512-0.231c-0.139-0.319-0.181-0.705-0.174-1.058
			c0.042-1.938,0.139-3.874,0.166-5.812c0.03-2.177,0.007-4.355,0.007-6.737c-7.064,0-14.314,0-21.707,0
			c-0.042,0.438-0.143,1.024-0.146,1.612c-0.019,4.282-0.017,8.566-0.024,12.85c0,0.282-0.02,0.565-0.018,0.848
			c0.005,0.649-0.211,1.015-0.948,0.812c-0.425-0.116-0.863-0.185-1.284-0.272c0-5.174,0-10.287,0-15.492
			c-1.86-0.471-3.796-0.396-5.709-0.347c-3.229,0.084-6.454,0.303-9.681,0.437c-0.64,0.026-1.297-0.01-1.926-0.124
			c-0.796-0.146-1.105,0.254-1.267,0.917c-0.51,2.077-0.306,4.169-0.141,6.263c0.167,2.126,0.649,4.247,0.116,6.386
			c-0.359,1.438-1.117,2.147-2.656,2.369c0-2.021,0.06-4.028-0.014-6.03c-0.108-2.904-0.331-5.805-0.465-8.71
			c-0.028-0.619-0.355-0.821-0.857-0.982c-1.291-0.413-2.555-0.186-3.819,0.106c-0.896,0.207-1.788,0.43-2.65,0.636
			c-1.114-1.655-1.16-1.78-1.072-3.117c1.493-0.043,3.01-0.104,4.527-0.123c0.929-0.011,1.862-0.006,2.785,0.083
			c0.922,0.087,1.245-0.349,1.245-1.175c0-0.888,0.021-1.777-0.021-2.663c-0.21-4.478-0.454-8.953-0.641-13.432
			c-0.029-0.7-0.263-1.146-0.88-1.427c-0.44-0.201-0.854-0.479-1.311-0.621c-3.147-0.976-4.514-3.394-5.014-6.383
			c-0.407-2.431-0.11-4.841,0.997-7.084c1.337-2.712,3.473-4.288,6.629-4.387c0.3-2.393,0.911-4.714,0.237-7.139
			c-1.453-0.559-2.948-0.299-4.428-0.283c-1.125,0.012-2.26,0.047-3.372-0.087c-0.575-0.069-1.11-0.479-1.666-0.737
			c0.369-1.146,1.071-1.609,1.966-1.639c1.245-0.041,2.495,0.057,3.743,0.111c1.202,0.051,2.403,0.123,3.659,0.189
			c0.065-0.413,0.145-0.68,0.145-0.947c-0.013-6.91-0.011-13.82-0.065-20.73c-0.03-3.877-0.162-7.752-0.237-11.629
			c-0.066-3.393-0.13-6.785-0.163-10.177c-0.006-0.632-0.168-1.008-0.851-1.034c-1.41-0.053-2.818-0.125-4.228-0.17
			c-1.284-0.041-2.37-0.436-3.127-1.678c0.656-1.06,1.719-1.215,2.808-1.128c0.959,0.076,1.903,0.341,2.858,0.493
			c0.51,0.081,1.029,0.099,1.657,0.155c0.203-1.395,0.462-2.694,0.568-4.007c0.317-3.942,0.779-7.888,0.809-11.835
			c0.054-7.229-0.168-14.461-0.251-21.692c-0.009-0.693-0.192-1.076-0.934-1.084c-1.127-0.014-2.254-0.05-3.381-0.08
			c-1.086-0.029-2.173-0.101-3.258-0.08c-0.885,0.017-1.277-0.5-1.353-1.228c-0.208-1.991-0.333-3.991-0.495-6.028
			c0.462-0.085,0.689-0.162,0.916-0.164c6.342-0.065,12.685-0.204,19.026-0.154c4.602,0.035,9.202,0.454,13.803,0.466
			c6.867,0.018,13.735-0.156,20.602-0.278c3.472-0.062,6.942-0.216,10.414-0.277c5.898-0.103,11.795-0.167,17.693-0.245
			c8.967-0.12,17.933-0.3,26.898-0.332c4.238-0.015,8.476,0.372,12.713,0.364c4.44-0.008,8.879-0.288,13.318-0.417
			c1.67-0.048,1.778,0.085,2.085,1.751c0.361,1.969,0.303,3.931-0.099,6.009c-3.718,0.168-7.45-0.7-11.268-0.034
			c-0.083,0.816-0.229,1.569-0.226,2.322c0.03,6.019,0.118,12.037,0.13,18.056c0.01,4.968-0.061,9.937-0.093,14.905
			c-0.005,0.799-0.001,1.599-0.001,2.563c1.328,0.056,2.644,0.12,3.959,0.163c1.131,0.037,2.265,0.015,3.393,0.085
			c1.02,0.063,1.964,0.371,2.732,1.185c-0.424,0.827-1.132,1.202-1.962,1.219c-1.245,0.027-2.493-0.062-3.74-0.115
			c-1.199-0.05-2.396-0.118-3.705-0.185C149.16,120.605,149.356,135.395,149.86,150.204z M81.127,107.156
			c-0.189,14.743,0.249,29.41,0.85,44.112c7.287,0,14.423,0,21.648,0c0.032-0.4,0.086-0.754,0.084-1.106
			c-0.028-5.532-0.014-11.065-0.109-16.597c-0.141-8.076-0.355-16.149-0.552-24.224c-0.021-0.906-0.126-1.81-0.194-2.742
			C95.584,106.785,88.49,106.967,81.127,107.156z M57.912,154.614c-0.075,14.411-0.149,28.713-0.222,42.832
			c7.152-0.223,14.39-0.449,21.729-0.677c0.716-14.159,1.051-28.33-0.02-42.673C72.215,155.28,65.113,154.374,57.912,154.614z
			 M103.688,153.885c-7.388,0.234-14.634,0.464-22,0.696c0.463,7.168,0.516,14.183,0.346,21.209
			c-0.171,7.042-0.038,14.093-0.038,21.267c7.31,0,14.472,0,21.732,0C103.635,182.68,104.528,168.357,103.688,153.885z
			 M126.119,196.928c0.679-14.414,1.163-28.743,0.372-43.266c-2.507,0-4.963-0.042-7.416,0.009c-3.791,0.078-7.58,0.503-11.37,0.022
			c-1.435-0.182-1.719,0.174-1.668,1.643c0.092,2.619,0.104,5.243,0.069,7.865c-0.077,5.731-0.241,11.462-0.302,17.194
			c-0.045,4.277,0.018,8.556,0.029,12.834c0.004,1.314,0.001,2.629,0.001,4.053C112.621,197.757,119.332,197.239,126.119,196.928z
			 M126.104,150.668c0.021-0.363,0.065-0.683,0.056-1c-0.204-6.454-0.351-12.91-0.639-19.36c-0.34-7.583-0.61-15.163-0.192-22.75
			c0.022-0.42,0.003-0.843,0.003-1.26c-6.621-0.829-13.05,0.208-19.561-0.027c-0.324,15.08,0.269,30.021,0.516,44.941
			C110.205,151.817,121.981,151.494,126.104,150.668z M147.24,150.208c0.067-0.538,0.163-1.009,0.18-1.482
			c0.076-2.138,0.211-4.278,0.176-6.414c-0.086-5.124-0.285-10.247-0.382-15.37c-0.117-6.093-0.178-12.187-0.258-18.28
			c-0.013-0.868-0.002-1.736-0.002-2.587c-5.492-0.436-15.664-0.562-19.798,0.307c-0.018,0.365-0.059,0.76-0.052,1.153
			c0.135,7.829,0.21,15.66,0.436,23.487c0.18,6.211,0.562,12.417,0.811,18.626c0.034,0.868,0.297,1.169,1.187,1.233
			c4.487,0.325,8.952-0.048,13.42-0.337C144.358,150.452,145.756,150.324,147.24,150.208z M102.598,65.653
			c-7.203,0-14.253,0-21.475,0c0,12.989,0,25.889,0,38.838c7.122,0,14.261,0,21.465,0c0.076-0.55,0.189-1.06,0.21-1.575
			c0.1-2.38,0.269-4.762,0.239-7.141c-0.109-8.683-0.29-17.364-0.436-26.046C102.579,68.401,102.598,67.071,102.598,65.653z
			 M79.347,151.353c0.103-14.882-0.749-29.54-1.272-44.046c-7.037,0-13.936,0-20.988,0c-0.137,4.833-0.295,9.476,0.04,14.118
			c3.09,0.205,5.104,1.73,6.473,4.168c1.508,2.689,1.882,5.577,1.1,8.544c-0.723,2.745-2.473,4.58-5.303,5.243
			c-0.612,0.143-1.25,0.176-1.723,0.239c0,4.056,0,7.979,0,11.937C64.977,152.146,72.059,151.086,79.347,151.353z M78.627,104.243
			c-0.162-12.825,0.685-25.513,0.191-38.347c-7.186,0.139-14.265,0.277-21.433,0.417c-0.521,12.856-0.49,25.475-0.305,38.221
			C64.284,105.036,71.36,104.867,78.627,104.243z M125.112,103.687c0-0.607-0.003-1.126,0-1.646c0.03-4.322-0.034-8.647,0.11-12.965
			c0.232-6.903,0.484-13.802,0.13-20.707c-0.045-0.876-0.178-1.748-0.278-2.707c-6.555,0-13.034,0-19.643,0
			c-0.839,12.891-0.512,25.699,0.309,38.615C112.232,103.694,118.618,104.857,125.112,103.687z M146.979,103.563
			c0.266-12.759,0.459-25.291,0.048-37.893c-6.358,0-12.548,0-18.602,0c-1.46,12.684-0.331,25.327-1.291,37.893
			C133.775,103.563,140.297,103.563,146.979,103.563z M54.55,104.5c0.112-12.741,0.223-25.366,0.334-38.045
			c-0.778-0.062-1.374-0.146-1.972-0.152c-5.209-0.055-10.42-0.101-15.63-0.14c-1.413-0.011-1.413,0.003-1.366,1.444
			c0.005,0.162-0.001,0.323-0.005,0.485c-0.059,2.947-0.161,5.894-0.169,8.841c-0.023,8.561-0.009,17.122-0.009,25.683
			c0,0.599,0,1.198,0,1.927C42.01,105.043,48.206,104.726,54.55,104.5z M36.337,154.189c-0.035,0.273-0.095,0.541-0.098,0.81
			c-0.014,1.208,0.162,2.448-0.055,3.616c-0.385,2.073,0.207,3.458,2.217,4.21c0.404,0.151,0.745,0.476,1.111,0.726
			c2.117,1.438,3.362,3.428,3.788,5.944c0.747,4.421-1.449,9.267-6.152,10.387c-0.183,0.044-0.36,0.114-0.516,0.165
			c0,6.01,0,11.933,0,18.101c6.17-0.119,12.273-0.238,18.502-0.359c0.469-14.398,0.095-28.661-0.103-42.929
			c-0.753-0.134-1.344-0.317-1.939-0.331C47.532,154.399,41.971,154.3,36.337,154.189z M54.797,139.977
			c-0.227-0.06-0.342-0.1-0.461-0.119c-0.239-0.04-0.479-0.077-0.719-0.102c-2.83-0.291-4.678-1.866-5.617-4.477
			c-1.344-3.739-0.778-7.304,1.25-10.659c0.976-1.615,2.383-2.723,4.214-3.247c0.416-0.119,0.848-0.18,1.425-0.298
			c-0.115-4.578-0.228-9.11-0.338-13.533c-6.375-0.106-12.571-0.209-18.767-0.312c-0.981,14.916,0.898,29.555,0.528,44.391
			c6.2,0,12.307,0,18.483,0C54.797,147.773,54.797,143.907,54.797,139.977z M147.977,176.18c-1.587-0.686-2.977-1.129-4.194-1.857
			c-1.271-0.762-2.124-2.035-2.53-3.453c-0.396-1.379-0.736-2.832-0.742-4.255c-0.017-4.712,2.229-7.584,6.948-9.13
			c0-1.108,0.04-2.237-0.011-3.363c-0.056-1.223-0.279-1.375-1.494-1.284c-1.048,0.078-2.095,0.159-3.143,0.209
			c-3.711,0.175-7.423,0.323-11.134,0.509c-1.034,0.051-2.064,0.197-2.928,0.283c-0.215,14.425-0.428,28.733-0.639,42.904
			c2.896,0,5.8,0.006,8.704-0.002c2.299-0.006,4.601,0.022,6.897-0.061c1.098-0.039,2.186-0.3,3.106-0.436
			C147.22,189.312,147.604,182.63,147.977,176.18z"/>
		<path style="fill-rule:evenodd;clip-rule:evenodd;" d="M97.408,28.765c-1.678,0.457-3.229,1.032-4.832,1.289
			c-5.202,0.834-9.465-2.426-10.084-7.657c-0.357-3.011,0.146-5.852,1.887-8.417c1.98-2.92,4.776-3.642,8.061-3.041
			c1.558,0.285,3.046,0.795,4.326,1.767c1.15,0.875,1.387,1.9,0.793,2.934c-0.352,0.61-0.838,0.775-1.416,0.49
			c-0.494-0.245-0.97-0.579-1.369-0.96c-1.633-1.561-3.639-1.853-5.61-0.734c-3.124,1.773-4.321,5.655-3.265,8.815
			c0.504,1.508,1.808,3.191,4.283,3.121c1.325-0.038,2.668-0.061,3.966-0.298c1.214-0.223,2.22-0.903,2.722-2.424
			c-0.886-0.059-1.662-0.125-2.439-0.157c-0.684-0.028-1.381,0.056-2.049-0.054c-0.447-0.073-0.938-0.31-1.26-0.625
			c-0.945-0.928-0.758-1.758,0.488-2.162c0.641-0.208,1.338-0.319,2.012-0.332c1.654-0.029,3.311,0.03,4.966,0.045
			c1.251,0.012,1.806,0.579,1.743,1.849c-0.021,0.441-0.08,0.889-0.195,1.314c-0.374,1.373-0.188,2.711,0.137,4.062
			c0.119,0.502,0.158,1.043,0.119,1.558c-0.053,0.714-0.293,1.359-1.158,1.46c-0.795,0.093-1.344-0.275-1.643-1.115
			C97.496,29.231,97.453,28.951,97.408,28.765z"/>
		<path style="fill-rule:evenodd;clip-rule:evenodd;" d="M75.531,53.221c1.08-3.245-0.024-6.372-0.141-9.526
			c-0.037-1.006,0.017-2.016-0.001-3.023c-0.013-0.738,0.336-1.217,0.968-1.533c0.179-0.09,0.418-0.144,0.522-0.291
			c0.833-1.174,1.934-0.811,3.033-0.582c2.816,0.586,5.371,1.733,7.517,3.657c3.244,2.907,3.327,5.956,0.103,8.875
			c-2.926,2.649-6.401,3.81-10.382,3.04c-0.275-0.053-0.543-0.148-0.807-0.246C76.12,53.509,75.909,53.396,75.531,53.221z
			 M78.229,41.348c-0.339,3.422-0.342,6.741,0.654,10.188c1.812-0.634,3.541-1.147,5.194-1.843c1.653-0.695,2.386-2.051,2.318-3.866
			c-0.066-1.781-1.11-2.778-2.616-3.417C82.058,41.679,80.229,41.486,78.229,41.348z"/>
		<path style="fill-rule:evenodd;clip-rule:evenodd;" d="M102.652,48.571c-0.117-0.683-0.232-1.348-0.359-2.09
			c2.315-0.709,4.58-0.951,6.884-0.853c0.239,0.01,0.509,0.218,0.692,0.405c0.789,0.808,1.217,1.776,1.274,2.922
			c0.095,1.877,0.229,3.753,0.356,5.805c-0.562,0.122-1.291,0.353-2.031,0.398c-0.251,0.015-0.665-0.391-0.764-0.686
			c-0.134-0.394-0.033-0.867-0.033-1.359c-1.145,0.254-2.176,0.625-3.228,0.693c-4.202,0.271-7.821-2.641-8.669-6.873
			c-0.08-0.396-0.155-0.792-0.215-1.191c-0.381-2.59,0.616-4.455,2.917-5.694c1.868-1.006,3.825-1.506,5.938-1.223
			c2.297,0.309,3.517,2.022,3.053,4.527c-0.601-0.338-1.189-0.569-1.651-0.954c-0.819-0.683-1.407-1.659-2.761-1.373
			c-1.629,0.344-3.108,0.833-4.034,2.359c-1.237,2.041-1.136,5.262,0.413,7.073c0.41,0.48,1.228,0.703,1.9,0.849
			c1.713,0.371,4.967-0.697,5.303-2.792C106.009,47.68,104.385,49.252,102.652,48.571z"/>
		<path style="fill-rule:evenodd;clip-rule:evenodd;" d="M32.037,50c2.547,0,4.952,0,7.473,0c-0.118,0.947-0.234,1.878-0.364,2.925
			c-3.045,0.134-6.016,0.264-9.116,0.4c-0.793-5.084-1.849-10.121-1.615-15.386c3.278-0.79,6.498-1.301,9.958-0.366
			c-0.112,0.85-0.169,1.639-0.348,2.399c-0.051,0.216-0.441,0.473-0.697,0.498c-0.88,0.085-1.77,0.085-2.656,0.098
			c-0.523,0.008-1.05-0.057-1.571-0.028c-2.162,0.118-2.402,0.458-1.916,2.865c0.756-0.041,1.545-0.063,2.33-0.13
			c0.942-0.082,1.46,0.34,1.592,1.35c0.133,1.021-0.238,1.58-1.169,1.713c-0.638,0.091-1.281,0.141-1.92,0.218
			c-0.607,0.073-0.843,0.381-0.658,1C31.602,48.363,31.812,49.18,32.037,50z"/>
		<path style="fill-rule:evenodd;clip-rule:evenodd;" d="M56.869,37.859c0.813,1.752,1.382,3.181,2.117,4.518
			c1.104,2.004,2.327,3.944,3.496,5.913c0.12,0.202,0.334,0.43,0.31,0.621c-0.153,1.212,0.494,2.167,0.932,3.2
			c0.6,1.416,0.28,2.002-1.174,2.381c-0.739,0.193-1.233,0.018-1.521-0.748c-0.383-1.016-0.812-2.016-1.263-3.003
			c-0.302-0.66-0.688-1.062-1.593-0.845c-1.008,0.24-2.082,0.214-3.129,0.28c-2.564,0.161-3.384,0.849-3.967,3.348
			c-0.035,0.151-0.121,0.29-0.281,0.662c-0.669-0.416-1.279-0.794-2.033-1.262c0.734-1.556,1.395-3.056,2.138-4.514
			c1.61-3.16,3.251-6.305,4.912-9.439C56.005,38.605,56.397,38.345,56.869,37.859z M54.405,47.505
			c0.101,0.104,0.202,0.206,0.303,0.309c1.081-0.069,2.161-0.138,3.42-0.218c-0.568-1.381-0.4-2.843-2.021-3.358
			C55.524,45.355,54.964,46.43,54.405,47.505z"/>
		<path style="fill-rule:evenodd;clip-rule:evenodd;" d="M120.396,38.038c1.008,0.325,1.99,0.641,2.938,0.946
			c0,2.06,0,4.018,0,6.027c1.811,0,3.479,0,5.171,0c1.288-2.015-0.386-4.356,0.775-6.403c0.984,0.166,1.638,0.801,1.892,1.641
			c0.369,1.216,0.661,2.493,0.721,3.757c0.108,2.251,0.012,4.511,0.021,6.766c0.002,0.356,0.037,0.754,0.197,1.06
			c0.552,1.053-0.166,1.681-0.766,2.3c-0.171,0.176-0.681,0.175-0.961,0.065c-0.901-0.354-1.386-1.298-1.287-2.379
			c0.083-0.924,0.223-1.843,0.291-2.768c0.046-0.621,0.009-1.248,0.009-1.973c-2.007,0.247-3.79,0.466-5.737,0.705
			c-0.078,1.681-0.158,3.43-0.245,5.292c-0.806,0-1.497,0-2.186,0C120.951,48.071,120.681,43.177,120.396,38.038z"/>
		<path style="fill-rule:evenodd;clip-rule:evenodd;" d="M153.412,38.589c0.188,0.901,0.351,1.681,0.519,2.49
			c-0.741,0.805-1.734,0.968-2.751,0.958c-1.211-0.012-2.42-0.119-3.631-0.172c-0.47-0.021-0.94-0.003-1.501-0.003
			c0,1.274,0,2.423,0,3.689c1.398-0.064,2.787-0.127,4.221-0.192c0.54,0.963,0.811,1.917,0.491,3.114
			c-1.223,0-2.426-0.046-3.623,0.014c-1.122,0.056-1.317,0.406-0.985,1.487c0.071,0.231,0.172,0.454,0.235,0.687
			c0.062,0.225,0.094,0.458,0.144,0.71c2.824,0.336,5.779-0.867,8.624,1.002c-0.644,0.426-1.146,0.921-1.748,1.129
			c-2.968,1.028-5.964,0.418-9.007,0.168c-0.307-4.917-0.604-9.699-0.914-14.668C146.869,38.861,150.071,38.729,153.412,38.589z"/>
		<path style="fill-rule:evenodd;clip-rule:evenodd;" d="M15.593,169.808c-0.255-0.925,0.124-1.741,0.595-2.476
			c0.651-1.017,1.473-1.924,2.106-2.949c0.668-1.084,1.281-2.219,1.749-3.399c0.165-0.415-0.169-1.028-0.275-1.552
			c-0.515,0.18-1.172,0.223-1.514,0.573c-0.571,0.584-0.942,1.365-1.403,2.074c-1.104-0.496-1.447-1.298-0.987-2.428
			c0.552-1.36,2.628-2.636,3.894-2.394c1.375,0.263,2.454,1.726,2.569,3.426c0.156,2.318-0.566,4.361-1.881,6.231
			c-0.153,0.217-0.309,0.434-0.602,0.844c1.045,0.127,1.908,0.217,2.765,0.339c1.172,0.168,1.497,0.583,1.404,1.906
			c-1.381,0-2.776,0.025-4.17-0.007C18.442,169.965,17.042,169.875,15.593,169.808z"/>
		<path style="fill-rule:evenodd;clip-rule:evenodd;fill:none;" d="M81.127,107.156c7.362-0.188,14.457-0.371,21.726-0.557
			c0.068,0.932,0.173,1.836,0.194,2.742c0.196,8.075,0.411,16.148,0.552,24.224c0.096,5.531,0.081,11.064,0.109,16.597
			c0.002,0.353-0.052,0.706-0.084,1.106c-7.225,0-14.361,0-21.648,0C81.376,136.565,80.938,121.898,81.127,107.156z"/>
		<path style="fill-rule:evenodd;clip-rule:evenodd;fill:none;" d="M57.912,154.614c7.201-0.24,14.303,0.666,21.487-0.518
			c1.071,14.343,0.735,28.514,0.02,42.673c-7.338,0.228-14.576,0.454-21.729,0.677C57.763,183.327,57.837,169.025,57.912,154.614z"
			/>
		<path style="fill-rule:evenodd;clip-rule:evenodd;fill:none;" d="M103.688,153.885c0.84,14.473-0.054,28.795,0.04,43.172
			c-7.26,0-14.422,0-21.732,0c0-7.174-0.133-14.225,0.038-21.267c0.17-7.026,0.118-14.041-0.346-21.209
			C89.055,154.349,96.301,154.119,103.688,153.885z"/>
		<path style="fill-rule:evenodd;clip-rule:evenodd;fill:none;" d="M126.119,196.928c-6.787,0.312-13.498,0.829-20.284,0.354
			c0-1.424,0.003-2.738-0.001-4.053c-0.012-4.278-0.074-8.557-0.029-12.834c0.061-5.732,0.225-11.463,0.302-17.194
			c0.035-2.622,0.022-5.246-0.069-7.865c-0.051-1.469,0.233-1.824,1.668-1.643c3.79,0.48,7.579,0.056,11.37-0.022
			c2.453-0.051,4.909-0.009,7.416-0.009C127.282,168.185,126.798,182.514,126.119,196.928z"/>
		<path style="fill-rule:evenodd;clip-rule:evenodd;fill:none;" d="M126.104,150.668c-4.123,0.826-15.899,1.149-19.817,0.543
			c-0.247-14.92-0.84-29.861-0.516-44.941c6.511,0.235,12.939-0.801,19.561,0.027c0,0.417,0.02,0.839-0.003,1.26
			c-0.418,7.588-0.147,15.167,0.192,22.75c0.288,6.45,0.435,12.906,0.639,19.36C126.17,149.985,126.126,150.305,126.104,150.668z"/>
		<path style="fill-rule:evenodd;clip-rule:evenodd;fill:none;" d="M147.24,150.208c-1.484,0.116-2.882,0.244-4.283,0.335
			c-4.468,0.289-8.933,0.662-13.42,0.337c-0.89-0.064-1.152-0.365-1.187-1.233c-0.249-6.209-0.631-12.415-0.811-18.626
			c-0.226-7.827-0.301-15.658-0.436-23.487c-0.007-0.393,0.034-0.788,0.052-1.153c4.134-0.87,14.306-0.743,19.798-0.307
			c0,0.851-0.011,1.719,0.002,2.587c0.08,6.093,0.141,12.188,0.258,18.28c0.097,5.123,0.296,10.246,0.382,15.37
			c0.035,2.136-0.1,4.276-0.176,6.414C147.403,149.199,147.308,149.67,147.24,150.208z"/>
		<path style="fill-rule:evenodd;clip-rule:evenodd;fill:none;" d="M102.598,65.653c0,1.417-0.019,2.748,0.004,4.077
			c0.146,8.682,0.326,17.364,0.436,26.046c0.029,2.379-0.14,4.761-0.239,7.141c-0.021,0.515-0.134,1.025-0.21,1.575
			c-7.204,0-14.343,0-21.465,0c0-12.95,0-25.85,0-38.838C88.345,65.653,95.395,65.653,102.598,65.653z"/>
		<path style="fill-rule:evenodd;clip-rule:evenodd;fill:none;" d="M79.347,151.353c-7.288-0.267-14.37,0.794-21.673,0.202
			c0-3.957,0-7.881,0-11.937c0.472-0.063,1.11-0.097,1.723-0.239c2.83-0.663,4.58-2.498,5.303-5.243
			c0.782-2.967,0.408-5.854-1.1-8.544c-1.368-2.438-3.383-3.963-6.473-4.168c-0.335-4.642-0.177-9.285-0.04-14.118
			c7.052,0,13.951,0,20.988,0C78.598,121.812,79.45,136.471,79.347,151.353z"/>
		<path style="fill-rule:evenodd;clip-rule:evenodd;fill:none;" d="M78.627,104.243c-7.267,0.624-14.343,0.793-21.546,0.291
			c-0.186-12.746-0.216-25.365,0.305-38.221c7.168-0.139,14.247-0.277,21.433-0.417C79.312,78.73,78.465,91.418,78.627,104.243z"/>
		<path style="fill-rule:evenodd;clip-rule:evenodd;fill:none;" d="M125.112,103.687c-6.494,1.171-12.88,0.007-19.372,0.591
			c-0.82-12.916-1.147-25.724-0.309-38.615c6.608,0,13.088,0,19.643,0c0.101,0.959,0.233,1.831,0.278,2.707
			c0.354,6.904,0.103,13.804-0.13,20.707c-0.145,4.318-0.08,8.643-0.11,12.965C125.109,102.56,125.112,103.079,125.112,103.687z"/>
		<path style="fill-rule:evenodd;clip-rule:evenodd;fill:none;" d="M146.979,103.563c-6.683,0-13.204,0-19.845,0
			c0.96-12.566-0.169-25.209,1.291-37.893c6.054,0,12.243,0,18.602,0C147.438,78.272,147.245,90.804,146.979,103.563z"/>
		<path style="fill-rule:evenodd;clip-rule:evenodd;fill:none;" d="M54.55,104.5c-6.344,0.225-12.541,0.542-18.816,0.044
			c0-0.729,0-1.329,0-1.927c0-8.561-0.014-17.123,0.009-25.683c0.008-2.947,0.11-5.894,0.169-8.841
			c0.003-0.162,0.01-0.323,0.005-0.485c-0.047-1.441-0.047-1.455,1.366-1.444c5.21,0.039,10.421,0.084,15.63,0.14
			c0.598,0.006,1.194,0.09,1.972,0.152C54.773,79.135,54.663,91.759,54.55,104.5z"/>
		<path style="fill-rule:evenodd;clip-rule:evenodd;fill:none;" d="M36.337,154.189c5.634,0.11,11.195,0.21,16.755,0.339
			c0.595,0.014,1.186,0.197,1.939,0.331c0.198,14.268,0.572,28.53,0.103,42.929c-6.229,0.121-12.333,0.24-18.502,0.359
			c0-6.168,0-12.091,0-18.101c0.156-0.051,0.333-0.121,0.516-0.165c4.703-1.12,6.898-5.966,6.152-10.387
			c-0.426-2.517-1.671-4.507-3.788-5.944c-0.366-0.25-0.707-0.574-1.111-0.726c-2.01-0.752-2.603-2.137-2.217-4.21
			c0.217-1.168,0.041-2.408,0.055-3.616C36.242,154.73,36.302,154.463,36.337,154.189z"/>
		<path style="fill-rule:evenodd;clip-rule:evenodd;fill:none;" d="M54.797,139.977c0,3.931,0,7.797,0,11.645
			c-6.177,0-12.284,0-18.483,0c0.37-14.836-1.51-29.476-0.528-44.391c6.195,0.103,12.391,0.206,18.767,0.312
			c0.11,4.423,0.223,8.955,0.338,13.533c-0.577,0.118-1.01,0.179-1.425,0.298c-1.832,0.524-3.238,1.632-4.214,3.247
			c-2.028,3.355-2.595,6.92-1.25,10.659c0.939,2.61,2.787,4.186,5.617,4.477c0.241,0.024,0.48,0.062,0.719,0.102
			C54.455,139.877,54.57,139.917,54.797,139.977z M42.174,119.771c1.187-0.946,2.209-1.762,3.232-2.577
			c0.094,0.049,0.189,0.098,0.283,0.146c0.052,0.955,0.09,1.912,0.161,2.866c0.074,1.004,0.091,2.023,0.302,3
			c0.15,0.688,0.539,1.373,1.485,1.176c0.047-0.125,0.103-0.201,0.101-0.275c-0.089-3.754-0.184-7.508-0.281-11.263
			c-0.003-0.119-0.027-0.244-0.071-0.354c-0.194-0.482-0.911-0.646-1.27-0.258c-1.149,1.245-2.302,2.488-3.402,3.777
			C41.871,116.999,41.661,118.156,42.174,119.771z"/>
		<path style="fill-rule:evenodd;clip-rule:evenodd;fill:none;" d="M147.977,176.18c-0.372,6.45-0.757,13.132-1.158,20.064
			c-0.921,0.136-2.009,0.396-3.106,0.436c-2.297,0.083-4.599,0.055-6.897,0.061c-2.904,0.008-5.808,0.002-8.704,0.002
			c0.211-14.171,0.424-28.479,0.639-42.904c0.863-0.086,1.894-0.232,2.928-0.283c3.711-0.186,7.423-0.334,11.134-0.509
			c1.048-0.05,2.095-0.131,3.143-0.209c1.215-0.091,1.438,0.062,1.494,1.284c0.051,1.126,0.011,2.255,0.011,3.363
			c-4.719,1.546-6.965,4.418-6.948,9.13c0.006,1.423,0.347,2.876,0.742,4.255c0.406,1.418,1.259,2.691,2.53,3.453
			C145,175.051,146.39,175.494,147.977,176.18z M131.735,166.286c-0.107,0.296-0.189,0.436-0.205,0.583
			c-0.168,1.607,1.067,2.816,3.161,3.108c1.481,0.205,2.47-0.583,2.793-2.304c0.267-1.416,0.164-2.799-0.66-4.013
			c1.395-1.56,1.092-3.19,0.354-4.799c-0.871-1.9-3.277-2.298-4.809-0.85c-0.674,0.638-0.83,1.414-0.498,2.189
			c0.194,0.453,0.439,0.646,0.929,0.433c0.55-0.242,1.11-0.46,1.669-0.685c0.56-0.225,1.139-0.334,1.497,0.281
			c0.339,0.583,0.079,1.131-0.4,1.493c-0.508,0.385-1.069,0.728-1.656,0.969c-0.724,0.298-0.695,0.768-0.501,1.36
			c0.363,1.107,1.297,1.163,2.216,1.149c0.144,0.33,0.329,0.579,0.354,0.844c0.046,0.535,0.213,1.239-0.05,1.581
			c-0.414,0.539-1.173,0.385-1.793,0.126c-0.295-0.123-0.566-0.305-0.841-0.474C132.797,166.97,132.305,166.649,131.735,166.286z"/>
		<path style="fill-rule:evenodd;clip-rule:evenodd;fill:none;" d="M78.229,41.348c2.001,0.138,3.829,0.331,5.55,1.062
			c1.506,0.639,2.55,1.636,2.616,3.417c0.067,1.815-0.665,3.171-2.318,3.866c-1.653,0.696-3.382,1.209-5.194,1.843
			C77.886,48.089,77.89,44.771,78.229,41.348z"/>
		<path style="fill-rule:evenodd;clip-rule:evenodd;fill:none;" d="M54.405,47.505c0.559-1.075,1.119-2.149,1.702-3.268
			c1.621,0.515,1.453,1.977,2.021,3.358c-1.259,0.081-2.339,0.149-3.42,0.218C54.607,47.711,54.506,47.608,54.405,47.505z"/>
		<path style="fill-rule:evenodd;clip-rule:evenodd;" d="M42.174,119.771c-0.513-1.615-0.303-2.773,0.541-3.762
			c1.1-1.289,2.252-2.532,3.402-3.777c0.358-0.389,1.075-0.224,1.27,0.258c0.044,0.11,0.068,0.235,0.071,0.354
			c0.097,3.754,0.192,7.509,0.281,11.263c0.002,0.074-0.053,0.15-0.101,0.275c-0.946,0.197-1.335-0.488-1.485-1.176
			c-0.211-0.977-0.228-1.996-0.302-3c-0.071-0.954-0.109-1.911-0.161-2.866c-0.094-0.049-0.189-0.098-0.283-0.146
			C44.383,118.01,43.361,118.825,42.174,119.771z"/>
		<path style="fill-rule:evenodd;clip-rule:evenodd;" d="M131.735,166.286c0.569,0.363,1.062,0.684,1.559,0.994
			c0.274,0.169,0.546,0.351,0.841,0.474c0.62,0.259,1.379,0.413,1.793-0.126c0.263-0.342,0.096-1.046,0.05-1.581
			c-0.024-0.265-0.21-0.514-0.354-0.844c-0.919,0.014-1.853-0.042-2.216-1.149c-0.194-0.593-0.223-1.062,0.501-1.36
			c0.587-0.241,1.148-0.584,1.656-0.969c0.479-0.362,0.739-0.91,0.4-1.493c-0.358-0.615-0.938-0.506-1.497-0.281
			c-0.559,0.225-1.119,0.442-1.669,0.685c-0.489,0.214-0.734,0.021-0.929-0.433c-0.332-0.775-0.176-1.552,0.498-2.189
			c1.531-1.448,3.938-1.051,4.809,0.85c0.738,1.608,1.041,3.239-0.354,4.799c0.824,1.214,0.927,2.597,0.66,4.013
			c-0.323,1.721-1.312,2.509-2.793,2.304c-2.094-0.292-3.329-1.501-3.161-3.108C131.546,166.722,131.628,166.582,131.735,166.286z"
			/>
	</g>
</g>
<g id="Layer_1">
</g>
</svg>
