<?xml version="1.0" encoding="iso-8859-1"?>
<!-- Generator: Adobe Illustrator 16.0.0, SVG Export Plug-In . SVG Version: 6.00 Build 0)  -->
<!DOCTYPE svg PUBLIC "-//W3C//DTD SVG 1.1//EN" "http://www.w3.org/Graphics/SVG/1.1/DTD/svg11.dtd">
<svg version="1.1" xmlns="http://www.w3.org/2000/svg" xmlns:xlink="http://www.w3.org/1999/xlink" x="0px" y="0px"
	 width="175.68px" height="233.649px" viewBox="0 0 175.68 233.649" style="enable-background:new 0 0 175.68 233.649;"
	 xml:space="preserve">
<g id="C7">
	<g id="C7_1_">
		<path style="fill:none;" d="M175.68,233.649c-58.561,0-117.12,0-175.68,0C0,153.811,0,73.97,0-5.87c58.56,0,117.119,0,175.68,0
			C175.68,73.97,175.68,153.81,175.68,233.649z M19.574,106.706c0.849,0.249,1.613,0.594,2.406,0.679
			c1.507,0.161,3.031,0.161,4.547,0.249c1.223,0.071,1.221,0.085,1.229,1.357c0.007,1.04,0.001,2.08,0.028,3.119
			c0.169,6.673,0.435,13.346,0.494,20.021c0.052,5.914-0.118,11.831-0.201,17.746c-0.029,2.031-0.045,2.044-2.099,1.955
			c-1.595-0.069-3.188-0.229-4.783-0.25c-1-0.012-1.959,0.25-2.611,1.176c0.339,0.713,0.888,1.133,1.587,1.189
			c1.226,0.102,2.461,0.131,3.691,0.109c1.459-0.024,2.934-0.353,4.524,0.365c-0.138,7.178-0.331,14.365-0.4,21.554
			c-0.069,7.186-0.015,14.372-0.015,21.777c-2.626,0.114-5.429,0.236-8.168,0.356c-0.56,1.33,0.549,1.976,0.727,2.992
			c0.483-0.09,0.904-0.19,1.332-0.245c1.539-0.197,3.075-0.48,4.62-0.534c1.322-0.046,1.45,0.184,1.644,1.453
			c0.073,0.473,0.174,0.945,0.198,1.421c0.171,3.392,0.316,6.784,0.491,10.176c0.046,0.907,0.167,1.811,0.253,2.715
			c1.781-0.191,2.461-0.884,2.454-2.478c-0.015-3.278-0.088-6.558-0.071-9.835c0.006-1.136,0.207-2.271,0.324-3.459
			c6.285,0.258,12.4-0.688,18.486-0.236c0,5.282,0,10.39,0,15.556c0.696,0.309,1.444,0.661,2.369,0.043c0-5.237,0-10.496,0-15.628
			c7.525,0,14.976,0,22.413,0c0.51,4.833-0.64,9.516,0.315,14.165c1.651-0.48,2.533-1.615,2.607-3.549
			c0.062-1.633-0.063-3.272-0.107-4.91c-0.038-1.435-0.154-2.873-0.097-4.305c0.057-1.429,0.343-1.61,1.759-1.625
			c6.193-0.061,12.387-0.121,18.579-0.195c1.236-0.015,1.852,0.613,1.695,1.828c-0.102,0.791-0.246,1.577-0.338,2.369
			c-0.293,2.541-0.664,5.095-0.073,7.63c0.21,0.899,0.115,1.508-0.655,2.046c-0.545,0.381-0.492,0.815,0.036,1.266
			c0.95,0.809,1.776,0.891,3.227,0.194c-0.079-2.491-0.198-5.003-0.229-7.516c-0.032-2.543,0.022-5.087,0.642-7.797
			c1.435,0,2.829-0.013,4.224,0.003c4.877,0.052,9.753,0.117,14.631,0.17c1.444,0.016,1.573,0.004,1.617,1.427
			c0.063,2.108-0.103,4.224-0.109,6.337c-0.006,1.631,0.012,3.27,0.157,4.893c0.074,0.834,0.374,1.686,1.43,2.372
			c0.332-1.521,0.853-2.863,0.872-4.214c0.038-2.587-0.204-5.179-0.339-7.769c-0.057-1.099-0.289-2.212,0.199-3.109
			c6.298,0,12.44,0,18.663,0c0.691,5.267,0.629,10.362,0.384,15.546c0.735,0.229,1.457,0.453,2.486,0.773
			c0-1.437,0.025-2.582-0.005-3.727c-0.074-2.797-0.217-5.594-0.244-8.392c-0.014-1.338,0.174-2.678,0.275-4.084
			c0.613,0,1.043-0.009,1.472,0.001c2.518,0.06,5.034,0.139,7.552,0.178c0.962,0.015,1.123-0.222,0.908-1.162
			c-0.149-0.653-0.334-1.298-0.567-2.192c-2.836-0.184-5.721-0.371-8.666-0.562c-0.063-0.776-0.185-1.609-0.191-2.443
			c-0.042-5.075-0.106-10.151-0.072-15.227c0.053-8.036,0.177-16.072,0.272-24.107c0.005-0.346,0.037-0.689,0.066-1.201
			c1.148,0.072,2.213,0.146,3.279,0.201c0.994,0.051,1.994,0.158,2.982,0.093c0.552-0.036,1.312-0.222,1.571-0.61
			c0.396-0.598-0.208-1.17-0.619-1.662c-0.148-0.178-0.279-0.369-0.314-0.416c-2.488,0.16-4.821,0.31-7.269,0.467
			c-0.457-14.971-0.773-29.697,0.292-44.56c0.993,0.057,1.861,0.098,2.728,0.157c1.589,0.108,3.176,0.302,4.765,0.31
			c0.911,0.004,1.738-0.435,2.32-1.226c-1.688-1.243-3.259-1.582-6.21-1.458c-1.032,0.043-2.07-0.045-3.104-0.075
			c-0.818-0.024-1.021-0.465-1.022-1.246c-0.01-6.677-0.092-13.354-0.087-20.032c0.003-4.598,0.101-9.195,0.176-13.792
			c0.014-0.827,0.127-1.653,0.195-2.504c3.884-0.558,7.65-0.691,11.522-0.064c0.484-2.797,0.564-5.447-0.545-8.088
			c-1.749,0.098-3.42,0.249-5.093,0.272c-3.555,0.052-7.11,0.089-10.664,0.037c-4.518-0.067-9.033-0.243-13.55-0.345
			c-4.464-0.101-8.929-0.236-13.394-0.229c-3.315,0.005-6.631,0.23-9.948,0.329c-7.91,0.235-15.82,0.529-23.734,0.656
			c-7.117,0.115-14.239-0.035-21.356,0.071c-5.354,0.079-10.695,0.295-16.06,0.059c-7.346-0.323-14.708-0.289-22.064-0.402
			c-1.185-0.018-2.37-0.002-3.471-0.002c0,1.735-0.193,3.283,0.041,4.763c0.456,2.874-0.048,2.844,3.145,2.93
			c1.476,0.04,2.958-0.113,4.431-0.045c1.63,0.075,1.661,0.141,1.687,1.749c0.118,7.193,0.33,14.387,0.276,21.578
			c-0.031,4.108-0.493,8.213-0.791,12.318c-0.074,1.017-0.268,2.025-0.422,3.153c-0.651-0.074-1.164-0.095-1.659-0.195
			c-0.976-0.198-1.936-0.481-2.916-0.656C21.018,104.423,20.258,104.898,19.574,106.706z M86.066,18.191
			c-0.486-2.09-1.845-3.364-3.84-3.847c-3.495-0.844-6.767-0.155-9.611,2.024c-0.873,0.669-1.557,1.716-2.05,2.725
			c-0.958,1.961-1.043,4.152-0.638,6.222c1.316,6.728,8.643,9.153,12.975,6.564c1.961-1.172,3.934-2.301,5.344-4.154
			c0.717-0.942,0.717-1.546,0.131-2.272c-0.76-0.942-1.595-1.212-2.608-0.702c-0.815,0.411-1.595,0.912-2.333,1.451
			c-2.395,1.748-5.056,2.017-7.871,1.497c-0.224-0.042-0.471-0.141-0.634-0.292c-1.787-1.655-1.733-5.204,0.265-6.589
			c1.146-0.794,2.538-1.385,3.902-1.675C81.349,18.664,83.668,18.501,86.066,18.191z M98.475,21.573
			c-0.201,0.053-0.389,0.139-0.58,0.147c-1.475,0.063-2.951,0.153-4.427,0.147c-0.669-0.003-0.927,0.283-1.04,0.866
			c-0.217,1.111,0.127,1.808,1.326,2.181c1.02,0.317,2.096,0.46,3.154,0.643c1.428,0.246,1.4,0.265,1.379,1.664
			c-0.023,1.632,0.006,3.271,0.145,4.896c0.055,0.639,0.368,1.315,0.738,1.854c0.529,0.77,1.343,0.676,2.169,0.447
			c0.757-0.21,0.683-0.764,0.683-1.321c0.001-0.878-0.014-1.757,0.008-2.634c0.057-2.398,0.008-4.815,1.898-6.723
			c0.2-0.202,0.135-1.054-0.094-1.23c-1.088-0.837-1.01-1.773-0.725-2.976c0.754-3.179-0.307-4.781-3.574-5.094
			c-2.695-0.258-5.428-0.132-8.143-0.144c-0.226-0.001-0.604,0.204-0.65,0.381c-0.185,0.711-0.361,1.45-0.361,2.178
			c0.001,0.681,0.444,1.027,1.203,1c1.158-0.04,2.318-0.003,3.477,0.039c1.258,0.045,2.516,0.134,3.86,0.208
			C98.764,19.323,98.629,20.378,98.475,21.573z M71.132,53.208c0.363,1.134,1.177,1.331,2.081,1.389
			c0.518,0.033,1.034,0.087,1.551,0.121c2.2,0.144,4.296-0.106,6.082-1.577c0.274-0.226,0.592-0.521,0.911-0.55
			c1.325-0.124,1.915-1.174,2.655-2.014c1.761-1.999,2.12-3.535,0.327-6.38c-0.274-0.435-0.602-0.853-0.974-1.206
			c-2.772-2.637-6.141-3.924-9.904-4.219c-0.432-0.034-1.013,0.249-1.328,0.575c-1.489,1.542-1.612,3.496-1.417,5.483
			c0.194,1.982,0.461,3.958,0.723,5.933C71.966,51.723,72.202,52.688,71.132,53.208z M103.906,49.426
			c-0.037,0.136-0.049,0.259-0.104,0.358c-1.153,2.071-3.873,3.015-6.507,2.2c-0.403-0.125-0.848-0.462-1.05-0.826
			c-1.109-1.988-1.217-4.083-0.538-6.248c0.937-2.989,4.313-4.491,6.677-2.177c0.635,0.621,1.476,1.021,2.451,0.995
			c-0.216-2.991-2.477-4.606-4.714-4.475c-2.724,0.159-4.868,1.395-6.522,3.521c-0.851,1.092-1.133,2.344-1.003,3.721
			c0.331,3.519,3.657,7.339,7.102,8.075c1.449,0.31,2.86,0.196,4.154-0.625c0.218-0.138,0.456-0.244,0.71-0.378
			c0.19,0.805,0.361,1.529,0.544,2.302c0.912-0.047,1.768-0.091,2.688-0.139c-0.21-2.579-0.355-5.007-0.625-7.421
			c-0.147-1.329-0.697-1.699-2.188-1.862c-2.219-0.242-4.347,0.333-6.605,0.656c0.127,0.813,0.242,1.542,0.368,2.336
			C100.477,49.841,102.197,48.43,103.906,49.426z M32.762,41.158c0.148-0.439,0.266-0.775,0.374-1.115
			c0.496-1.563,0.189-2.084-1.424-2.417c-0.156-0.032-0.317-0.04-0.476-0.054c-2.372-0.222-4.693,0.058-7.001,0.616
			c-0.634,0.153-0.87,0.471-0.898,1.052c-0.02,0.399-0.077,0.802-0.041,1.197c0.266,2.897,0.52,5.795,0.842,8.686
			c0.166,1.489,0.462,2.964,0.716,4.544c0.546,0,0.981,0.015,1.415-0.002c2.114-0.082,4.229-0.176,6.343-0.256
			c1.786-0.068,1.788-0.063,1.78-1.847c-0.001-0.228-0.037-0.455-0.063-0.767c-1.254-0.075-2.443-0.217-3.63-0.197
			c-1.181,0.021-2.36,0.204-3.687,0.33c-0.263-0.921-0.601-1.857-0.786-2.823c-0.173-0.902,0.08-1.114,1-1.181
			c0.633-0.046,1.275-0.076,1.894-0.204c1.003-0.207,1.051-0.436,0.968-1.888c-0.048-0.839-0.516-0.976-1.179-0.975
			c-0.981,0.001-1.961,0-2.927,0c-0.17-2.502-0.174-2.565,1.794-2.681C29.399,41.082,31.035,41.158,32.762,41.158z M45.852,54.734
			c0.334-0.686,0.7-1.286,0.928-1.936c0.572-1.627,1.156-2.075,2.91-2.077c1.583-0.002,3.165,0,4.936,0
			c0.345,0.697,0.844,1.562,1.213,2.479c1.096,2.725,1.894,2.431,3.67,0.389c-0.65-1.449-1.267-3.04-2.058-4.539
			c-1.763-3.34-3.989-6.457-4.715-10.233c-1.011-0.103-1.053-0.124-1.462,0.666c-2.201,4.25-4.392,8.504-6.559,12.771
			C44.068,53.527,44.202,53.798,45.852,54.734z M117.238,38.728c0.055,1.007,0.12,1.72,0.126,2.432
			c0.024,2.876-0.013,5.754,0.062,8.629c0.03,1.145,0.192,2.309,0.478,3.417c0.227,0.883,1.177,1.219,1.782,0.681
			c0.318-0.283,0.459-0.887,0.482-1.356c0.063-1.269,0.021-2.542,0.021-3.97c1.968-0.235,3.798-0.454,5.875-0.702
			c0.016,1.054,0.07,1.987,0.031,2.917c-0.027,0.634-0.224,1.259-0.274,1.894c-0.152,1.901,0.664,2.609,2.457,2.167
			c0.074-0.019,0.147-0.045,0.318-0.099c0.113-0.572,0.359-1.2,0.336-1.817c-0.062-1.541-0.293-3.073-0.367-4.613
			c-0.098-2.027,0.009-4.07-0.199-6.083c-0.144-1.38-1.017-2.383-2.598-2.683c0,1.219,0.032,2.372-0.012,3.522
			c-0.027,0.71-0.135,1.423-0.282,2.119c-0.044,0.21-0.331,0.505-0.529,0.523c-1.348,0.125-2.7,0.202-4.053,0.263
			c-0.544,0.024-0.911-0.19-0.913-0.834c-0.005-1.273-0.062-2.546-0.069-3.819c-0.004-0.509,0.062-1.019,0.094-1.479
			C119.061,39.459,118.229,39.126,117.238,38.728z M151.735,53.408c-0.132-0.184-0.188-0.293-0.271-0.373
			c-1.2-1.14-2.647-0.875-4.081-0.727c-0.791,0.082-1.59,0.186-2.38,0.157c-1.083-0.04-2.312-1.196-2.232-1.988
			c0.065-0.646,1.264-1.317,2.354-1.303c0.277,0.004,0.555,0.083,0.833,0.09c0.587,0.015,1.175,0.005,1.965,0.005
			c-0.121-1.019-0.234-1.973-0.348-2.926c-1.608-0.247-3.067,0.635-4.414-0.015c-0.2-1.208-0.385-2.327-0.587-3.554
			c0.495-0.054,0.961-0.167,1.421-0.142c1.154,0.062,2.304,0.212,3.459,0.277c1.256,0.07,2.447-0.15,3.483-0.947
			c-0.168-0.844-0.327-1.646-0.494-2.485c-3.334,0.118-6.548,0.231-9.914,0.35c0.326,5.06,0.646,10.014,0.97,15.028
			c2.553,0,4.986,0.028,7.419-0.013C150.025,54.822,151.019,54.448,151.735,53.408z"/>
		<path style="fill-rule:evenodd;clip-rule:evenodd;" d="M19.574,106.706c0.684-1.808,1.444-2.283,2.961-2.013
			c0.98,0.174,1.94,0.458,2.916,0.656c0.496,0.101,1.008,0.122,1.659,0.195c0.155-1.128,0.348-2.136,0.422-3.153
			c0.298-4.104,0.76-8.21,0.791-12.318c0.054-7.191-0.158-14.385-0.276-21.578c-0.026-1.608-0.056-1.674-1.687-1.749
			c-1.473-0.067-2.956,0.085-4.431,0.045c-3.193-0.086-2.689-0.056-3.145-2.93c-0.234-1.48-0.041-3.028-0.041-4.763
			c1.101,0,2.287-0.016,3.471,0.002c7.355,0.113,14.718,0.079,22.064,0.402c5.365,0.236,10.706,0.02,16.06-0.059
			c7.117-0.105,14.239,0.044,21.356-0.071c7.914-0.127,15.824-0.421,23.734-0.656c3.317-0.099,6.633-0.323,9.948-0.329
			c4.465-0.007,8.93,0.128,13.394,0.229c4.517,0.102,9.032,0.278,13.55,0.345c3.554,0.052,7.109,0.015,10.664-0.037
			c1.673-0.024,3.344-0.175,5.093-0.272c1.109,2.641,1.029,5.292,0.545,8.088c-3.872-0.627-7.639-0.493-11.522,0.064
			c-0.068,0.852-0.182,1.677-0.195,2.504c-0.075,4.597-0.173,9.195-0.176,13.792c-0.005,6.677,0.077,13.354,0.087,20.032
			c0.002,0.781,0.204,1.222,1.022,1.246c1.034,0.03,2.072,0.118,3.104,0.075c2.951-0.123,4.521,0.215,6.21,1.458
			c-0.582,0.791-1.409,1.23-2.32,1.226c-1.589-0.008-3.176-0.202-4.765-0.31c-0.866-0.059-1.734-0.1-2.728-0.157
			c-1.065,14.863-0.749,29.589-0.292,44.56c2.447-0.157,4.78-0.307,7.269-0.467c0.035,0.047,0.166,0.238,0.314,0.416
			c0.411,0.492,1.016,1.064,0.619,1.662c-0.259,0.389-1.02,0.574-1.571,0.61c-0.988,0.065-1.988-0.042-2.982-0.093
			c-1.066-0.056-2.131-0.129-3.279-0.201c-0.029,0.512-0.062,0.855-0.066,1.201c-0.096,8.035-0.22,16.071-0.272,24.107
			c-0.034,5.075,0.03,10.151,0.072,15.227c0.007,0.834,0.128,1.667,0.191,2.443c2.945,0.19,5.83,0.378,8.666,0.562
			c0.233,0.895,0.418,1.539,0.567,2.192c0.215,0.94,0.054,1.177-0.908,1.162c-2.518-0.039-5.034-0.118-7.552-0.178
			c-0.429-0.01-0.858-0.001-1.472-0.001c-0.102,1.406-0.289,2.746-0.275,4.084c0.027,2.798,0.17,5.595,0.244,8.392
			c0.03,1.145,0.005,2.29,0.005,3.727c-1.029-0.32-1.751-0.545-2.486-0.773c0.245-5.184,0.308-10.279-0.384-15.546
			c-6.223,0-12.365,0-18.663,0c-0.488,0.897-0.256,2.011-0.199,3.109c0.135,2.59,0.377,5.182,0.339,7.769
			c-0.02,1.351-0.54,2.693-0.872,4.214c-1.056-0.687-1.355-1.538-1.43-2.372c-0.146-1.623-0.163-3.262-0.157-4.893
			c0.007-2.113,0.173-4.229,0.109-6.337c-0.044-1.423-0.173-1.411-1.617-1.427c-4.878-0.053-9.754-0.118-14.631-0.17
			c-1.395-0.016-2.789-0.003-4.224-0.003c-0.619,2.71-0.674,5.254-0.642,7.797c0.031,2.513,0.15,5.024,0.229,7.516
			c-1.45,0.696-2.276,0.614-3.227-0.194c-0.528-0.45-0.581-0.885-0.036-1.266c0.771-0.538,0.865-1.146,0.655-2.046
			c-0.591-2.535-0.22-5.089,0.073-7.63c0.092-0.792,0.236-1.578,0.338-2.369c0.156-1.215-0.459-1.843-1.695-1.828
			c-6.192,0.074-12.386,0.135-18.579,0.195c-1.416,0.015-1.703,0.196-1.759,1.625c-0.057,1.432,0.059,2.87,0.097,4.305
			c0.044,1.638,0.169,3.277,0.107,4.91c-0.074,1.934-0.956,3.068-2.607,3.549c-0.956-4.649,0.195-9.332-0.315-14.165
			c-7.438,0-14.888,0-22.413,0c0,5.132,0,10.391,0,15.628c-0.925,0.618-1.673,0.266-2.369-0.043c0-5.166,0-10.273,0-15.556
			c-6.086-0.451-12.201,0.494-18.486,0.236c-0.117,1.188-0.318,2.323-0.324,3.459c-0.017,3.277,0.056,6.557,0.071,9.835
			c0.007,1.594-0.672,2.286-2.454,2.478c-0.086-0.904-0.207-1.808-0.253-2.715c-0.175-3.392-0.32-6.784-0.491-10.176
			c-0.024-0.476-0.125-0.948-0.198-1.421c-0.194-1.27-0.321-1.499-1.644-1.453c-1.544,0.054-3.081,0.337-4.62,0.534
			c-0.427,0.055-0.849,0.155-1.332,0.245c-0.178-1.017-1.287-1.662-0.727-2.992c2.739-0.12,5.542-0.242,8.168-0.356
			c0-7.405-0.054-14.592,0.015-21.777c0.069-7.188,0.262-14.376,0.4-21.554c-1.591-0.718-3.065-0.39-4.524-0.365
			c-1.23,0.021-2.466-0.008-3.691-0.109c-0.699-0.057-1.248-0.477-1.587-1.189c0.652-0.926,1.611-1.188,2.611-1.176
			c1.595,0.021,3.188,0.181,4.783,0.25c2.054,0.089,2.07,0.076,2.099-1.955c0.083-5.915,0.253-11.832,0.201-17.746
			c-0.059-6.675-0.325-13.348-0.494-20.021c-0.027-1.039-0.021-2.079-0.028-3.119c-0.008-1.272-0.006-1.286-1.229-1.357
			c-1.516-0.088-3.04-0.088-4.547-0.249C21.188,107.3,20.423,106.955,19.574,106.706z M101.514,107.508
			c0.357,14.884,0.711,29.63,1.064,44.39c0.48,0.029,0.757,0.064,1.033,0.062c3.556-0.031,7.113-0.012,10.666-0.121
			c2.591-0.081,5.176-0.344,7.765-0.508c0.751-0.047,1.058-0.379,0.995-1.148c-0.092-1.113-0.108-2.232-0.164-3.349
			c-0.319-6.423-0.745-12.843-0.931-19.269c-0.169-5.867-0.079-11.741-0.102-17.612c-0.004-0.941,0-1.883,0-2.924
			C115.075,106.985,108.377,106.673,101.514,107.508z M144.022,150.996c0.938-14.789-0.647-29.484-0.533-44.047
			c-6.517,0-12.892,0-19.297,0c-0.999,14.945,0.638,29.653,1.061,44.356C127.319,151.839,138.008,151.648,144.022,150.996z
			 M52.756,67.149c-0.514,12.694-0.761,25.298-0.46,37.967c7.386,0.685,14.636,0.25,22.021,0.267c0-0.574-0.005-1.003,0.001-1.432
			c0.045-3.118,0.033-6.239,0.151-9.354c0.299-7.869,0.583-15.736,0.143-23.608c-0.077-1.376-0.22-2.749-0.339-4.208
			C67.064,66.904,60.002,67.025,52.756,67.149z M98.52,105.387c0.693-2.185,0.809-4.318,0.715-6.483
			c-0.131-3.028-0.642-6.051-0.119-9.089c0.102-0.587,0.221-1.188,0.197-1.777c-0.065-1.597-0.256-3.189-0.301-4.786
			c-0.102-3.632-0.158-7.266-0.211-10.899c-0.026-1.823-0.004-3.647-0.004-5.631c-7.26,0-14.624,0-21.807,0
			c0,12.907,0,25.757,0,38.665C84.275,105.387,91.337,105.387,98.52,105.387z M77.342,107.864
			c-1.048,5.457-0.165,10.83-0.303,16.195c2.277,0.57,4.266,1.463,5.953,2.934c3.1,2.703,4.403,6.14,3.854,10.185
			c-0.371,2.729-2.26,4.325-4.695,5.282c-1.475,0.578-3.016,0.989-4.67,1.521c0.15,2.525,0.304,5.092,0.461,7.734
			c7.44-0.002,14.771,0.284,22.105-0.024c0.037-0.32,0.074-0.478,0.069-0.634c-0.104-3.994-0.237-7.988-0.317-11.983
			c-0.146-7.351-0.259-14.702-0.396-22.054c-0.051-2.708,0.233-5.436-0.47-8.107c-0.37-1.408-0.364-1.444-1.816-1.415
			c-5.153,0.108-10.305,0.249-15.458,0.361C80.264,107.89,78.867,107.864,77.342,107.864z M49.784,151.879
			c0.754-14.638,0.415-29.156-0.279-43.783c-2.228,0-4.339,0.017-6.45-0.003c-3.634-0.034-7.269-0.144-10.903-0.115
			c-1.723,0.013-1.757,0.125-1.714,1.803c0.235,9.225,0.519,18.45,0.723,27.676c0.095,4.314,0.046,8.631,0.062,12.947
			c0.002,0.467,0,0.934,0,1.475C37.453,151.879,43.549,151.879,49.784,151.879z M144.26,195.827c0-0.35-0.001-0.662,0-0.974
			c0.004-2.318-0.053-4.638,0.024-6.954c0.158-4.709,0.579-9.419,0.54-14.125c-0.053-6.147-0.443-12.291-0.698-18.437
			c-0.024-0.582-0.114-1.162-0.18-1.802c-6.263,0.286-12.43,0.567-18.714,0.854c0.956,14.196-0.147,28.31-0.245,42.476
			c0.824-0.051,1.458-0.13,2.091-0.122c3.515,0.044,7.029,0.161,10.543,0.146C139.849,196.881,142.061,196.6,144.26,195.827z
			 M53.374,160.83c0.581,0.138,1.05,0.232,1.51,0.361c2.084,0.58,3.937,1.558,5.352,3.235c1.84,2.181,1.962,4.704,1.45,7.364
			c-0.961,4.99-3.736,8.015-8.283,8.945c-0.182,5.521-0.363,11.051-0.548,16.685c7.435-0.558,14.792-0.999,22.264-0.501
			c1.216-14.15,0.611-28.16,0.504-42.015c-7.581,0-15.026,0-22.537,0C53.186,156.969,53.278,158.869,53.374,160.83z M52.386,108.122
			c-0.069,0.473-0.11,0.625-0.11,0.778c0,3.955-0.004,7.909,0.011,11.863c0.007,1.799,0.051,3.597,0.084,5.396
			c0.147,8.068,0.297,16.138,0.444,24.207c0.009,0.504,0.001,1.008,0.001,1.604c7.593,0.325,15.033-0.061,22.541-0.289
			c-0.094-2.6-0.183-5.062-0.272-7.55c-3.673-0.114-5.959-1.984-7.219-5.247c-0.706-1.829-0.818-3.721-0.686-5.654
			c0.316-4.632,2.614-7.517,7.169-8.761c-0.101-5.476-0.203-11.001-0.301-16.346C66.756,108.122,59.612,108.122,52.386,108.122z
			 M101.926,197.15c1.6,0.088,2.99,0.253,4.376,0.224c5.272-0.112,10.545-0.302,15.817-0.421c0.829-0.019,0.981-0.364,0.993-1.096
			c0.115-6.795,0.311-13.588,0.381-20.383c0.052-4.915-0.025-9.833-0.1-14.749c-0.033-2.184-0.202-4.364-0.312-6.589
			c-6.986,0.15-13.828,0.297-20.639,0.443c0,5.834,0,11.662,0,17.545c0.34,0.098,0.715,0.212,1.094,0.314
			c2.447,0.661,4.295,2.111,5.468,4.339c1.78,3.381,1.938,6.882,0.429,10.393c-1.058,2.46-2.908,4.069-5.576,4.629
			c-0.533,0.112-1.084,0.139-1.624,0.205C102.131,193.725,102.033,195.35,101.926,197.15z M49.851,105.172
			c0-5.56-0.005-10.912,0.001-16.264c0.009-6.873,0.029-13.745,0.037-20.618c0-0.388-0.068-0.777-0.105-1.183
			c-0.386-0.026-0.662-0.058-0.938-0.061c-5.556-0.072-11.111-0.141-16.667-0.209c-1.23-0.015-1.457,0.17-1.463,1.451
			c-0.025,5.474-0.004,10.949-0.038,16.423c-0.04,6.472-0.118,12.944-0.179,19.417c-0.003,0.305,0,0.611,0,1.043
			C36.95,105.172,43.289,105.172,49.851,105.172z M78.129,196.926c3.418,0,6.654-0.023,9.891,0.006
			c3.634,0.032,7.269,0.085,10.901,0.191c0.755,0.021,0.919-0.326,0.926-0.906c0.017-1.314,0.005-2.628,0.005-3.768
			c-1.864-0.753-3.666-1.304-5.298-2.174c-4.251-2.268-6.032-6.468-4.72-10.909c0.891-3.013,3.043-4.933,5.819-6.153
			c1.403-0.617,2.921-0.976,4.461-1.475c0-1.157,0.003-2.353-0.001-3.549c-0.009-3.235,0.026-6.472-0.053-9.706
			c-0.034-1.374-0.191-2.769-0.757-3.974c-7.093,0.104-14.078,0.207-21.175,0.311C78.129,168.766,78.129,182.78,78.129,196.926z
			 M102.074,105.093c6.641-0.282,13.209,0.182,19.755-0.209c0-1.053-0.007-1.93,0.003-2.807c0.008-0.707-0.229-1.147-0.982-1.385
			c-1.994-0.629-3.452-1.946-4.473-3.762c-1.131-2.011-1.574-4.187-1.384-6.462c0.328-3.929,2.491-7.471,6.653-8.371
			c0.153-0.033,0.297-0.111,0.438-0.166c0.391-3.923,0.208-13.491-0.31-15.117c-6.709,0.037-13.442-0.475-20.244,0.004
			C101.256,79.618,100.636,92.31,102.074,105.093z M50.484,197.523c0.08-0.374,0.125-0.487,0.125-0.601
			c0.006-5.354,0-10.709,0.023-16.063c0.002-0.602-0.258-0.826-0.788-0.992c-1.739-0.544-3.264-1.463-4.612-2.697
			c-3.442-3.148-3.82-9.083-1.042-11.911c0.695-0.707,1.464-1.357,2.272-1.933c1.04-0.738,2.164-1.356,3.225-2.067
			c0.263-0.176,0.591-0.506,0.599-0.772c0.053-1.83,0.028-3.662,0.028-5.723c-6.296-0.107-12.502-0.215-18.836-0.324
			c-0.099,1.624-0.283,3.168-0.271,4.71c0.043,5.473,0.155,10.945,0.236,16.418c0.088,5.951,0.173,11.901,0.251,17.853
			c0.018,1.383,0.002,2.767,0.002,4.104C37.929,197.523,44.186,197.523,50.484,197.523z M144.174,66.925
			c-6.53-0.118-12.817-0.232-19.246-0.348c-0.164,5.115-0.322,10.093-0.482,15.108c0.423,0.117,0.778,0.177,1.104,0.312
			c1.469,0.607,3.021,1.081,4.373,1.888c3.398,2.028,5.354,6.958,3.858,10.474c-1.448,3.406-3.966,5.986-7.734,6.984
			c-0.564,0.15-1.169,0.15-1.769,0.221c-0.113,0.629-0.199,1.177-0.312,1.719c-0.286,1.367-0.14,1.498,1.259,1.487
			c4.193-0.033,8.387-0.027,12.581-0.035c1.948-0.003,3.897,0,6.089,0C143.987,92.066,144.08,79.615,144.174,66.925z"/>
		<path style="fill-rule:evenodd;clip-rule:evenodd;" d="M86.066,13.191c-2.398,0.31-4.717,0.473-6.969,0.952
			c-1.364,0.291-2.756,0.881-3.902,1.675c-1.998,1.385-2.051,4.934-0.265,6.589c0.163,0.151,0.411,0.25,0.634,0.292
			c2.815,0.52,5.477,0.251,7.871-1.497c0.739-0.539,1.519-1.04,2.333-1.451c1.013-0.511,1.848-0.241,2.608,0.702
			c0.586,0.727,0.586,1.33-0.131,2.272c-1.411,1.854-3.383,2.982-5.344,4.154c-4.333,2.589-11.659,0.164-12.975-6.564
			c-0.405-2.07-0.32-4.261,0.638-6.222c0.493-1.009,1.177-2.055,2.05-2.725c2.844-2.18,6.116-2.869,9.611-2.024
			C84.222,9.827,85.58,11.102,86.066,13.191z"/>
		<path style="fill-rule:evenodd;clip-rule:evenodd;" d="M98.475,16.573c0.154-1.195,0.289-2.25,0.446-3.471
			c-1.345-0.075-2.603-0.163-3.86-0.208c-1.158-0.042-2.318-0.079-3.477-0.039c-0.759,0.026-1.202-0.32-1.203-1
			c0-0.728,0.177-1.466,0.361-2.178c0.047-0.177,0.425-0.382,0.65-0.381c2.715,0.012,5.447-0.114,8.143,0.144
			c3.268,0.312,4.328,1.915,3.574,5.094c-0.285,1.203-0.363,2.139,0.725,2.976c0.229,0.177,0.294,1.028,0.094,1.23
			c-1.891,1.907-1.842,4.325-1.898,6.723c-0.021,0.877-0.007,1.756-0.008,2.634c0,0.557,0.074,1.111-0.683,1.321
			c-0.826,0.229-1.64,0.323-2.169-0.447c-0.37-0.539-0.684-1.215-0.738-1.854c-0.139-1.625-0.168-3.264-0.145-4.896
			c0.021-1.399,0.049-1.418-1.379-1.664c-1.059-0.182-2.135-0.325-3.154-0.643c-1.199-0.373-1.543-1.069-1.326-2.181
			c0.113-0.583,0.371-0.869,1.04-0.866c1.476,0.006,2.952-0.084,4.427-0.147C98.086,16.712,98.273,16.626,98.475,16.573z"/>
		<path style="fill-rule:evenodd;clip-rule:evenodd;" d="M71.132,53.208c1.07-0.52,0.834-1.486,0.707-2.446
			c-0.261-1.975-0.528-3.951-0.723-5.933c-0.194-1.987-0.071-3.94,1.417-5.483c0.315-0.326,0.896-0.608,1.328-0.575
			c3.763,0.295,7.132,1.582,9.904,4.219c0.372,0.354,0.7,0.771,0.974,1.206c1.793,2.845,1.434,4.382-0.327,6.38
			c-0.74,0.84-1.33,1.891-2.655,2.014c-0.319,0.03-0.637,0.324-0.911,0.55c-1.786,1.471-3.882,1.721-6.082,1.577
			c-0.517-0.034-1.034-0.088-1.551-0.121C72.309,54.539,71.495,54.342,71.132,53.208z M74.186,52.058
			c2.993-0.087,5.554-0.769,7.409-3.034c1.708-2.087,0.957-4.905-1.549-5.917c-1.981-0.8-4.107-0.817-6.46-1.043
			C73.789,45.449,73.983,48.69,74.186,52.058z"/>
		<path style="fill-rule:evenodd;clip-rule:evenodd;" d="M103.906,49.426c-1.709-0.997-3.43,0.415-5.161,0.012
			c-0.126-0.793-0.241-1.523-0.368-2.336c2.259-0.322,4.387-0.898,6.605-0.656c1.49,0.163,2.04,0.534,2.188,1.862
			c0.27,2.415,0.415,4.843,0.625,7.421c-0.921,0.048-1.776,0.092-2.688,0.139c-0.183-0.773-0.354-1.497-0.544-2.302
			c-0.254,0.134-0.492,0.24-0.71,0.378c-1.294,0.822-2.705,0.935-4.154,0.625c-3.444-0.735-6.771-4.556-7.102-8.075
			c-0.13-1.376,0.152-2.628,1.003-3.721c1.654-2.126,3.799-3.362,6.522-3.521c2.237-0.131,4.498,1.484,4.714,4.475
			c-0.976,0.026-1.816-0.374-2.451-0.995c-2.363-2.314-5.74-0.812-6.677,2.177c-0.679,2.165-0.571,4.26,0.538,6.248
			c0.202,0.363,0.646,0.701,1.05,0.826c2.634,0.815,5.354-0.129,6.507-2.2C103.857,49.686,103.869,49.562,103.906,49.426z"/>
		<path style="fill-rule:evenodd;clip-rule:evenodd;" d="M32.762,41.158c-1.727,0-3.362-0.076-4.988,0.02
			c-1.968,0.115-1.964,0.178-1.794,2.681c0.966,0,1.946,0.001,2.927,0c0.663-0.001,1.131,0.136,1.179,0.975
			c0.083,1.452,0.036,1.681-0.968,1.888c-0.619,0.128-1.26,0.158-1.894,0.204c-0.92,0.066-1.173,0.279-1,1.181
			c0.185,0.966,0.522,1.902,0.786,2.823c1.327-0.126,2.506-0.31,3.687-0.33c1.187-0.02,2.376,0.123,3.63,0.197
			c0.027,0.312,0.062,0.539,0.063,0.767c0.008,1.784,0.006,1.779-1.78,1.847c-2.114,0.081-4.229,0.175-6.343,0.256
			c-0.434,0.017-0.869,0.002-1.415,0.002c-0.254-1.581-0.55-3.055-0.716-4.544c-0.322-2.891-0.576-5.789-0.842-8.686
			c-0.036-0.395,0.021-0.798,0.041-1.197c0.028-0.581,0.264-0.899,0.898-1.052c2.308-0.559,4.63-0.838,7.001-0.616
			c0.159,0.015,0.32,0.022,0.476,0.054c1.613,0.333,1.92,0.854,1.424,2.417C33.028,40.382,32.91,40.719,32.762,41.158z"/>
		<path style="fill-rule:evenodd;clip-rule:evenodd;" d="M45.852,54.734c-1.65-0.936-1.784-1.208-1.137-2.48
			c2.167-4.267,4.357-8.521,6.559-12.771c0.409-0.79,0.451-0.769,1.462-0.666c0.726,3.777,2.952,6.894,4.715,10.233
			c0.791,1.499,1.408,3.09,2.058,4.539c-1.776,2.042-2.574,2.335-3.67-0.389c-0.369-0.917-0.869-1.782-1.213-2.479
			c-1.771,0-3.353-0.002-4.936,0c-1.753,0.002-2.337,0.45-2.91,2.077C46.552,53.448,46.186,54.049,45.852,54.734z M51.345,44.572
			c-0.638,1.299-1.217,2.475-1.838,3.741c1.455,0.286,2.666,0.292,3.837-0.443C52.924,46.637,52.817,45.355,51.345,44.572z"/>
		<path style="fill-rule:evenodd;clip-rule:evenodd;" d="M117.238,38.728c0.991,0.398,1.822,0.731,2.766,1.11
			c-0.031,0.461-0.098,0.97-0.094,1.479c0.008,1.273,0.064,2.546,0.069,3.819c0.002,0.644,0.369,0.858,0.913,0.834
			c1.353-0.062,2.705-0.138,4.053-0.263c0.198-0.019,0.485-0.313,0.529-0.523c0.147-0.696,0.255-1.409,0.282-2.119
			c0.044-1.15,0.012-2.304,0.012-3.522c1.581,0.3,2.454,1.303,2.598,2.683c0.208,2.013,0.102,4.056,0.199,6.083
			c0.074,1.54,0.306,3.073,0.367,4.613c0.023,0.617-0.223,1.246-0.336,1.817c-0.171,0.054-0.244,0.081-0.318,0.099
			c-1.793,0.442-2.609-0.266-2.457-2.167c0.051-0.635,0.247-1.26,0.274-1.894c0.039-0.93-0.016-1.863-0.031-2.917
			c-2.077,0.249-3.907,0.467-5.875,0.702c0,1.427,0.042,2.701-0.021,3.97c-0.023,0.469-0.164,1.073-0.482,1.356
			c-0.605,0.538-1.556,0.203-1.782-0.681c-0.285-1.108-0.447-2.272-0.478-3.417c-0.074-2.875-0.037-5.753-0.062-8.629
			C117.358,40.447,117.293,39.735,117.238,38.728z"/>
		<path style="fill-rule:evenodd;clip-rule:evenodd;" d="M151.735,53.408c-0.717,1.041-1.71,1.415-2.818,1.433
			c-2.433,0.041-4.866,0.013-7.419,0.013c-0.323-5.015-0.644-9.969-0.97-15.028c3.366-0.119,6.58-0.232,9.914-0.35
			c0.167,0.84,0.326,1.641,0.494,2.485c-1.036,0.797-2.228,1.017-3.483,0.947c-1.155-0.065-2.305-0.215-3.459-0.277
			c-0.46-0.024-0.926,0.088-1.421,0.142c0.202,1.227,0.387,2.346,0.587,3.554c1.347,0.65,2.806-0.232,4.414,0.015
			c0.113,0.954,0.227,1.907,0.348,2.926c-0.79,0-1.378,0.01-1.965-0.005c-0.278-0.007-0.556-0.086-0.833-0.09
			c-1.09-0.015-2.288,0.657-2.354,1.303c-0.079,0.792,1.149,1.948,2.232,1.988c0.79,0.029,1.589-0.075,2.38-0.157
			c1.434-0.147,2.881-0.413,4.081,0.727C151.548,53.114,151.604,53.224,151.735,53.408z"/>
		<path style="fill-rule:evenodd;clip-rule:evenodd;fill:none;" d="M101.514,107.508c6.863-0.835,13.562-0.523,20.327-0.478
			c0,1.042-0.004,1.983,0,2.924c0.022,5.871-0.067,11.745,0.102,17.612c0.186,6.426,0.611,12.846,0.931,19.269
			c0.056,1.116,0.072,2.235,0.164,3.349c0.062,0.77-0.244,1.102-0.995,1.148c-2.589,0.164-5.174,0.427-7.765,0.508
			c-3.553,0.109-7.11,0.09-10.666,0.121c-0.276,0.002-0.553-0.033-1.033-0.062C102.225,137.139,101.871,122.393,101.514,107.508z"/>
		<path style="fill-rule:evenodd;clip-rule:evenodd;fill:none;" d="M144.022,150.996c-6.015,0.652-16.703,0.843-18.77,0.309
			c-0.423-14.703-2.06-29.411-1.061-44.356c6.405,0,12.78,0,19.297,0C143.375,121.512,144.96,136.207,144.022,150.996z"/>
		<path style="fill-rule:evenodd;clip-rule:evenodd;fill:none;" d="M52.756,67.149c7.246-0.124,14.308-0.245,21.517-0.369
			c0.12,1.459,0.262,2.832,0.339,4.208c0.44,7.872,0.156,15.739-0.143,23.608c-0.118,3.115-0.106,6.236-0.151,9.354
			c-0.006,0.429-0.001,0.858-0.001,1.432c-7.385-0.017-14.636,0.417-22.021-0.267C51.995,92.447,52.242,79.843,52.756,67.149z"/>
		<path style="fill-rule:evenodd;clip-rule:evenodd;fill:none;" d="M98.52,105.387c-7.183,0-14.245,0-21.53,0
			c0-12.908,0-25.758,0-38.665c7.183,0,14.547,0,21.807,0c0,1.983-0.022,3.808,0.004,5.631c0.053,3.633,0.109,7.267,0.211,10.899
			c0.045,1.597,0.235,3.189,0.301,4.786c0.023,0.589-0.096,1.189-0.197,1.777c-0.522,3.038-0.012,6.062,0.119,9.089
			C99.328,101.069,99.213,103.203,98.52,105.387z"/>
		<path style="fill-rule:evenodd;clip-rule:evenodd;fill:none;" d="M77.342,107.864c1.525,0,2.922,0.026,4.317-0.004
			c5.153-0.112,10.305-0.253,15.458-0.361c1.452-0.03,1.446,0.007,1.816,1.415c0.703,2.671,0.419,5.399,0.47,8.107
			c0.137,7.352,0.249,14.703,0.396,22.054c0.08,3.995,0.213,7.989,0.317,11.983c0.005,0.156-0.032,0.313-0.069,0.634
			c-7.334,0.309-14.665,0.022-22.105,0.024c-0.158-2.643-0.311-5.209-0.461-7.734c1.655-0.532,3.196-0.943,4.67-1.521
			c2.435-0.957,4.324-2.554,4.695-5.282c0.55-4.045-0.754-7.481-3.854-10.185c-1.687-1.471-3.675-2.363-5.953-2.934
			C77.177,118.693,76.294,113.321,77.342,107.864z"/>
		<path style="fill-rule:evenodd;clip-rule:evenodd;fill:none;" d="M49.784,151.879c-6.235,0-12.332,0-18.561,0
			c0-0.541,0.001-1.008,0-1.475c-0.016-4.316,0.033-8.633-0.062-12.947c-0.204-9.227-0.488-18.451-0.723-27.676
			c-0.043-1.678-0.009-1.79,1.714-1.803c3.634-0.029,7.269,0.081,10.903,0.115c2.111,0.02,4.222,0.003,6.45,0.003
			C50.199,122.723,50.538,137.241,49.784,151.879z"/>
		<path style="fill-rule:evenodd;clip-rule:evenodd;fill:none;" d="M144.26,195.827c-2.199,0.772-4.411,1.054-6.639,1.063
			c-3.514,0.015-7.028-0.103-10.543-0.146c-0.633-0.008-1.267,0.071-2.091,0.122c0.098-14.166,1.201-28.279,0.245-42.476
			c6.284-0.287,12.451-0.568,18.714-0.854c0.065,0.64,0.155,1.22,0.18,1.802c0.255,6.146,0.646,12.289,0.698,18.437
			c0.039,4.706-0.382,9.416-0.54,14.125c-0.077,2.316-0.021,4.636-0.024,6.954C144.259,195.165,144.26,195.478,144.26,195.827z"/>
		<path style="fill-rule:evenodd;clip-rule:evenodd;fill:none;" d="M53.374,160.83c-0.096-1.961-0.188-3.861-0.289-5.925
			c7.511,0,14.956,0,22.537,0c0.107,13.854,0.712,27.864-0.504,42.015c-7.471-0.498-14.829-0.057-22.264,0.501
			c0.185-5.634,0.367-11.164,0.548-16.685c4.546-0.931,7.322-3.955,8.283-8.945c0.512-2.66,0.39-5.184-1.45-7.364
			c-1.415-1.678-3.268-2.655-5.352-3.235C54.424,161.062,53.955,160.968,53.374,160.83z"/>
		<path style="fill-rule:evenodd;clip-rule:evenodd;fill:none;" d="M52.386,108.122c7.226,0,14.37,0,21.663,0
			c0.098,5.345,0.2,10.871,0.301,16.346c-4.555,1.244-6.853,4.129-7.169,8.761c-0.132,1.934-0.02,3.825,0.686,5.654
			c1.26,3.263,3.546,5.133,7.219,5.247c0.089,2.488,0.178,4.95,0.272,7.55c-7.508,0.229-14.948,0.614-22.541,0.289
			c0-0.596,0.008-1.1-0.001-1.604c-0.147-8.069-0.297-16.139-0.444-24.207c-0.033-1.799-0.077-3.597-0.084-5.396
			c-0.016-3.954-0.011-7.909-0.011-11.863C52.276,108.747,52.317,108.594,52.386,108.122z M62.681,126.973
			c0.54-0.927,1.04-1.682,1.435-2.487c0.781-1.591,1.072-3.261,0.47-4.983c-0.632-1.81-1.587-2.33-3.407-1.817
			c-0.679,0.191-1.37,0.463-1.954,0.852c-1.512,1.008-1.979,2.411-1.497,4.167c0.417,0,0.839,0,1.244,0
			c0.172-0.422,0.303-1.097,0.476-1.107c0.937-0.061,0.987-1.051,1.604-1.361c0.288-0.146,0.79-0.15,1.049,0.014
			c0.262,0.164,0.544,0.666,0.475,0.932c-0.643,2.485-1.552,4.792-4.18,5.918c-0.359,0.154-0.642,0.758-0.717,1.195
			c-0.042,0.244,0.366,0.648,0.661,0.846c0.317,0.212,0.74,0.372,1.117,0.371c1.507-0.005,3.017-0.044,4.521-0.145
			c0.89-0.059,1.77-0.258,2.65-0.393C66.226,126.463,64.299,127.082,62.681,126.973z"/>
		<path style="fill-rule:evenodd;clip-rule:evenodd;fill:none;" d="M101.926,197.15c0.107-1.801,0.205-3.426,0.308-5.146
			c0.54-0.066,1.091-0.093,1.624-0.205c2.668-0.56,4.519-2.169,5.576-4.629c1.509-3.511,1.352-7.012-0.429-10.393
			c-1.173-2.228-3.021-3.678-5.468-4.339c-0.379-0.103-0.754-0.217-1.094-0.314c0-5.883,0-11.711,0-17.545
			c6.811-0.146,13.652-0.293,20.639-0.443c0.109,2.225,0.278,4.405,0.312,6.589c0.074,4.916,0.151,9.834,0.1,14.749
			c-0.07,6.795-0.266,13.588-0.381,20.383c-0.012,0.731-0.164,1.077-0.993,1.096c-5.272,0.119-10.545,0.309-15.817,0.421
			C104.916,197.403,103.525,197.238,101.926,197.15z"/>
		<path style="fill-rule:evenodd;clip-rule:evenodd;fill:none;" d="M49.851,105.172c-6.562,0-12.901,0-19.353,0
			c0-0.433-0.002-0.738,0-1.043c0.061-6.473,0.14-12.945,0.179-19.417c0.034-5.474,0.013-10.949,0.038-16.423
			c0.006-1.281,0.233-1.466,1.463-1.451c5.556,0.069,11.111,0.138,16.667,0.209c0.276,0.003,0.552,0.035,0.938,0.061
			c0.038,0.406,0.106,0.794,0.105,1.183c-0.008,6.873-0.028,13.745-0.037,20.618C49.846,94.26,49.851,99.612,49.851,105.172z"/>
		<path style="fill-rule:evenodd;clip-rule:evenodd;fill:none;" d="M78.129,196.926c0-14.146,0-28.16,0-42.105
			c7.097-0.104,14.082-0.207,21.175-0.311c0.565,1.205,0.723,2.6,0.757,3.974c0.079,3.234,0.044,6.471,0.053,9.706
			c0.004,1.196,0.001,2.392,0.001,3.549c-1.54,0.499-3.058,0.857-4.461,1.475c-2.776,1.221-4.929,3.141-5.819,6.153
			c-1.312,4.441,0.469,8.642,4.72,10.909c1.632,0.87,3.434,1.421,5.298,2.174c0,1.14,0.012,2.453-0.005,3.768
			c-0.007,0.58-0.171,0.928-0.926,0.906c-3.633-0.106-7.268-0.159-10.901-0.191C84.783,196.902,81.547,196.926,78.129,196.926z
			 M81.663,165.907c-0.099,1.926-0.24,3.83-0.285,5.737c-0.07,3.033,0.204,2.646,2.512,2.977c0.079,0.012,0.159,0.019,0.237,0.035
			c0.645,0.135,1.12,0.444,1.128,1.179c0.008,0.676,0.008,1.353-0.02,2.027c-0.078,1.924,0.541,2.456,2.603,2.108
			c-0.027-0.612-0.036-1.244-0.087-1.871c-0.062-0.755-0.195-1.505-0.234-2.26c-0.055-1.063,0.041-1.12,1.084-1.251
			c0.444-0.056,0.875-0.222,1.353-0.348c-0.365-1.345-1.486-1.683-2.332-2.353c-0.016-0.294-0.012-0.614-0.056-0.928
			c-0.049-0.354-0.15-0.702-0.215-1.056c-0.154-0.847-1.253-1.673-2.082-1.461c-0.94,0.24-0.455,1.047-0.504,1.613
			c-0.034,0.389,0.113,0.789,0.136,1.187c0.027,0.456,0.006,0.915,0.006,1.373c-0.087,0.047-0.174,0.096-0.262,0.144
			c-0.302-0.259-0.726-0.462-0.875-0.79c-0.207-0.452-0.247-0.996-0.285-1.506c-0.087-1.191-0.069-2.395-0.213-3.578
			C83.17,166.051,82.611,165.665,81.663,165.907z"/>
		<path style="fill-rule:evenodd;clip-rule:evenodd;fill:none;" d="M102.074,105.093c-1.438-12.783-0.818-25.475-0.543-38.274
			c6.802-0.479,13.535,0.032,20.244-0.004c0.518,1.625,0.7,11.193,0.31,15.117c-0.142,0.055-0.285,0.133-0.438,0.166
			c-4.162,0.9-6.325,4.442-6.653,8.371c-0.19,2.275,0.253,4.451,1.384,6.462c1.021,1.816,2.479,3.133,4.473,3.762
			c0.753,0.237,0.99,0.678,0.982,1.385c-0.01,0.877-0.003,1.754-0.003,2.807C115.283,105.275,108.715,104.811,102.074,105.093z
			 M104.781,84.336c0.18,0.108,0.242,0.166,0.314,0.188c1.162,0.352,1.988-0.212,2.771-0.976c0.608-0.592,1.125-1.37,2.141-1.363
			c0.276,2.27,0.547,4.499,0.846,6.96c0.922-0.341,1.56-0.578,2.149-0.795c-0.093-0.805-0.198-1.435-0.23-2.068
			c-0.089-1.716-0.098-3.437-0.232-5.148c-0.093-1.179-0.316-2.36-1.393-2.927c-0.945,0.748-1.763,1.436-2.624,2.062
			c-0.677,0.492-1.437,0.87-2.111,1.364C105.519,82.289,104.902,83.146,104.781,84.336z"/>
		<path style="fill-rule:evenodd;clip-rule:evenodd;fill:none;" d="M50.484,197.523c-6.298,0-12.555,0-18.787,0
			c0-1.337,0.016-2.721-0.002-4.104c-0.079-5.951-0.164-11.901-0.251-17.853c-0.081-5.473-0.193-10.945-0.236-16.418
			c-0.012-1.542,0.171-3.086,0.271-4.71c6.333,0.109,12.54,0.217,18.836,0.324c0,2.061,0.025,3.893-0.028,5.723
			c-0.007,0.267-0.335,0.597-0.599,0.772c-1.061,0.711-2.185,1.329-3.225,2.067c-0.808,0.575-1.578,1.226-2.272,1.933
			c-2.778,2.828-2.4,8.763,1.042,11.911c1.349,1.234,2.873,2.153,4.612,2.697c0.529,0.166,0.79,0.391,0.788,0.992
			c-0.022,5.354-0.017,10.709-0.023,16.063C50.609,197.036,50.564,197.149,50.484,197.523z M34.205,166.499
			c-0.238,1.502-0.116,1.713,1.199,1.979c0.739,0.149,1.506,0.182,2.233,0.369c0.992,0.257,1.437,1.047,1.226,1.995
			c-0.155,0.699-1.068,1.117-2.004,0.886c-0.735-0.181-1.478-0.354-2.182-0.622c-0.559-0.212-0.986-0.069-1.225,0.381
			c-0.174,0.328-0.257,0.813-0.153,1.16c0.305,1.021,1.142,1.558,2.128,1.69c0.933,0.126,1.896,0.051,2.846,0.032
			c1.183-0.023,1.896-0.686,2.307-1.752c0.845-2.191,0.721-4.213-1.08-5.954c0.207-0.259,0.384-0.468,0.548-0.687
			c1.376-1.84,1.155-3.719-0.682-5.113c-0.558-0.423-1.236-0.741-1.907-0.95c-2.178-0.676-3.934,0.565-4.075,2.849
			c-0.023,0.373,0.03,1.019,0.207,1.08c0.395,0.138,0.914,0.062,1.338-0.07c0.364-0.113,0.658-0.441,0.999-0.646
			c0.36-0.217,0.739-0.4,1.117-0.603C38.08,164.83,37.01,166.286,34.205,166.499z"/>
		<path style="fill-rule:evenodd;clip-rule:evenodd;fill:none;" d="M144.174,66.925c-0.094,12.69-0.187,25.142-0.28,37.811
			c-2.191,0-4.141-0.002-6.089,0c-4.194,0.007-8.388,0.002-12.581,0.035c-1.398,0.011-1.545-0.121-1.259-1.487
			c0.113-0.542,0.199-1.09,0.312-1.719c0.6-0.071,1.204-0.071,1.769-0.221c3.769-0.999,6.286-3.578,7.734-6.984
			c1.495-3.517-0.46-8.446-3.858-10.474c-1.353-0.807-2.904-1.28-4.373-1.888c-0.325-0.135-0.681-0.195-1.104-0.312
			c0.16-5.016,0.318-9.994,0.482-15.108C131.356,66.693,137.644,66.807,144.174,66.925z"/>
		<path style="fill-rule:evenodd;clip-rule:evenodd;fill:none;" d="M74.186,52.058c-0.202-3.367-0.397-6.609-0.601-9.995
			c2.354,0.226,4.479,0.243,6.46,1.043c2.505,1.012,3.257,3.83,1.549,5.917C79.739,51.289,77.179,51.97,74.186,52.058z"/>
		<path style="fill-rule:evenodd;clip-rule:evenodd;fill:none;" d="M51.345,44.572c1.472,0.783,1.579,2.065,1.999,3.298
			c-1.171,0.734-2.382,0.729-3.837,0.443C50.128,47.047,50.707,45.871,51.345,44.572z"/>
		<path style="fill-rule:evenodd;clip-rule:evenodd;" d="M62.681,126.973c1.618,0.109,3.545-0.51,3.948,2
			c-0.88,0.135-1.761,0.334-2.65,0.393c-1.504,0.101-3.014,0.14-4.521,0.145c-0.376,0.001-0.799-0.159-1.117-0.371
			c-0.295-0.197-0.703-0.602-0.661-0.846c0.075-0.438,0.358-1.041,0.717-1.195c2.628-1.126,3.537-3.433,4.18-5.918
			c0.069-0.266-0.213-0.768-0.475-0.932c-0.26-0.164-0.762-0.159-1.049-0.014c-0.617,0.311-0.667,1.301-1.604,1.361
			c-0.173,0.011-0.304,0.686-0.476,1.107c-0.404,0-0.826,0-1.244,0c-0.483-1.756-0.015-3.159,1.497-4.167
			c0.583-0.389,1.274-0.661,1.954-0.852c1.82-0.512,2.775,0.008,3.407,1.817c0.602,1.723,0.312,3.393-0.47,4.983
			C63.721,125.291,63.221,126.046,62.681,126.973z"/>
		<path style="fill-rule:evenodd;clip-rule:evenodd;" d="M81.663,165.907c0.948-0.242,1.507,0.144,1.61,0.979
			c0.145,1.184,0.126,2.387,0.213,3.578c0.038,0.51,0.078,1.054,0.285,1.506c0.149,0.328,0.574,0.531,0.875,0.79
			c0.087-0.048,0.175-0.097,0.262-0.144c0-0.458,0.021-0.917-0.006-1.373c-0.023-0.397-0.169-0.798-0.136-1.187
			c0.049-0.566-0.436-1.373,0.504-1.613c0.829-0.212,1.927,0.614,2.082,1.461c0.064,0.354,0.166,0.701,0.215,1.056
			c0.044,0.313,0.04,0.634,0.056,0.928c0.845,0.67,1.966,1.008,2.332,2.353c-0.478,0.126-0.908,0.292-1.353,0.348
			c-1.043,0.131-1.139,0.188-1.084,1.251c0.039,0.755,0.172,1.505,0.234,2.26c0.051,0.627,0.06,1.259,0.087,1.871
			c-2.062,0.348-2.68-0.185-2.603-2.108c0.027-0.675,0.028-1.352,0.02-2.027c-0.008-0.734-0.484-1.044-1.128-1.179
			c-0.078-0.017-0.158-0.023-0.237-0.035c-2.309-0.331-2.583,0.057-2.512-2.977C81.423,169.737,81.564,167.833,81.663,165.907z"/>
		<path style="fill-rule:evenodd;clip-rule:evenodd;" d="M104.781,84.336c0.121-1.191,0.737-2.047,1.631-2.704
			c0.675-0.494,1.435-0.872,2.111-1.364c0.861-0.626,1.679-1.314,2.624-2.062c1.076,0.567,1.3,1.748,1.393,2.927
			c0.135,1.711,0.144,3.433,0.232,5.148c0.032,0.633,0.138,1.263,0.23,2.068c-0.59,0.218-1.228,0.454-2.149,0.795
			c-0.299-2.461-0.569-4.69-0.846-6.96c-1.016-0.006-1.532,0.771-2.141,1.363c-0.783,0.763-1.609,1.327-2.771,0.976
			C105.023,84.502,104.961,84.445,104.781,84.336z"/>
		<path style="fill-rule:evenodd;clip-rule:evenodd;" d="M34.205,166.499c2.805-0.213,3.875-1.669,2.84-3.977
			c-0.378,0.202-0.757,0.386-1.117,0.603c-0.341,0.205-0.634,0.533-0.999,0.646c-0.424,0.132-0.943,0.208-1.338,0.07
			c-0.177-0.062-0.23-0.707-0.207-1.08c0.141-2.283,1.896-3.524,4.075-2.849c0.671,0.209,1.35,0.527,1.907,0.95
			c1.836,1.395,2.058,3.273,0.682,5.113c-0.164,0.219-0.341,0.428-0.548,0.687c1.8,1.741,1.925,3.763,1.08,5.954
			c-0.411,1.066-1.124,1.729-2.307,1.752c-0.949,0.019-1.913,0.094-2.846-0.032c-0.986-0.133-1.823-0.67-2.128-1.69
			c-0.104-0.347-0.021-0.832,0.153-1.16c0.238-0.45,0.666-0.593,1.225-0.381c0.704,0.268,1.447,0.441,2.182,0.622
			c0.936,0.231,1.849-0.187,2.004-0.886c0.211-0.948-0.233-1.738-1.226-1.995c-0.728-0.188-1.494-0.22-2.233-0.369
			C34.089,168.212,33.967,168.001,34.205,166.499z"/>
	</g>
</g>
<g id="Layer_1">
</g>
</svg>
