<?xml version="1.0" encoding="UTF-8" standalone="no"?>
<!DOCTYPE svg PUBLIC "-//W3C//DTD SVG 1.1//EN" "http://www.w3.org/Graphics/SVG/1.1/DTD/svg11.dtd">
<svg width="100%" height="100%" viewBox="0 0 218 305" version="1.1" xmlns="http://www.w3.org/2000/svg" xmlns:xlink="http://www.w3.org/1999/xlink" xml:space="preserve" xmlns:serif="http://www.serif.com/" style="fill-rule:evenodd;clip-rule:evenodd;stroke-linejoin:round;stroke-miterlimit:2;">
    <g id="j2Cwq1">
        <path d="M55.9,251.94C55.9,255.6 55.98,259.12 55.87,262.64C55.82,264.2 55.42,265.75 55.12,267.29C55.07,267.54 54.65,267.94 54.48,267.9C54.15,267.83 53.66,267.53 53.63,267.27C53.48,266.18 53.45,265.08 53.44,263.98C53.43,263.03 53.5,262.08 53.52,261.13C53.55,258.55 53.57,255.97 53.58,253.39C53.58,253 53.48,252.62 53.42,252.22C52,252.14 50.66,252.06 49.32,251.98C49.04,251.96 48.7,252.01 48.51,251.87C48.08,251.55 47.15,251.42 47.6,250.64C47.79,250.31 48.56,250.21 49.07,250.19C50.33,250.13 51.59,250.22 52.85,250.14C53.1,250.12 53.51,249.59 53.51,249.29C53.55,246.57 53.51,243.84 53.52,241.11C53.54,237.3 53.66,233.5 53.62,229.69C53.59,227.23 53.29,224.77 53.22,222.31C53.14,219.55 53.15,216.79 53.19,214.04C53.21,212.5 53.26,212.59 51.66,212.37C49.81,212.12 47.98,211.68 46.05,211.3C46.47,210.19 47.29,210.29 48.06,210.38C49.28,210.52 50.5,210.75 51.72,210.88C52.18,210.93 52.65,210.81 53.27,210.75L53.27,171.74C50.57,172.1 47.82,171.88 45.16,171.01C44.92,170.93 44.81,170.43 44.44,169.76L46.62,169.76C48.53,169.74 50.44,169.7 52.34,169.7C53.27,169.7 53.47,169.12 53.45,168.37C53.41,166.55 53.33,164.73 53.3,162.91C53.24,159.62 53.21,156.34 53.15,153.05C53.09,149.99 53.09,146.93 52.91,143.88C52.75,140.99 52.37,138.11 52.13,135.22C52.03,134 52.03,132.77 52.04,131.54C52.04,130.63 51.58,130.51 50.81,130.57C49.82,130.65 48.82,130.63 47.83,130.61C47.44,130.61 46.96,130.58 46.69,130.36C46.31,130.05 45.9,129.55 45.88,129.11C45.87,128.86 46.56,128.39 46.98,128.32C48.27,128.11 49.59,128.02 50.9,127.93C51.79,127.87 52.1,127.41 52.11,126.56C52.14,125.07 52.24,123.58 52.31,122.09C52.42,119.87 52.58,117.66 52.65,115.44C52.71,113.3 52.67,111.16 52.7,109.02C52.74,106.21 52.82,103.4 52.86,100.59C52.88,98.77 52.86,96.95 52.86,94.8L46.7,94.8C45.45,94.8 45.01,94.45 45,93.24C44.98,91.52 45.06,89.79 45,88.07C44.96,86.97 45.55,86.65 46.47,86.64C50.1,86.63 53.73,86.68 57.36,86.63C59.03,86.61 60.69,86.37 62.35,86.32C63.93,86.27 65.52,86.35 67.1,86.34C70.12,86.31 73.14,86.24 76.15,86.23C79.93,86.23 83.72,86.26 87.5,86.29C91.87,86.33 96.24,86.42 100.61,86.42C104.39,86.42 108.18,86.28 111.96,86.32C116.47,86.38 120.98,86.6 125.49,86.68C127.22,86.71 128.95,86.51 130.68,86.53C134.09,86.58 137.5,86.73 140.91,86.8C142.61,86.83 144.31,86.71 146,86.74C148.8,86.79 151.6,86.99 154.4,86.99C157.17,86.99 159.93,86.82 162.7,86.74C163,86.74 163.31,86.81 163.81,86.87L163.81,92.78C163.81,94.75 163.08,95.42 161.07,95.37C158.8,95.32 156.53,95.36 154.13,95.36L154.13,127.02C156.94,127.11 159.66,127.2 162.38,127.28C162.58,127.28 162.78,127.22 162.98,127.23C163.59,127.25 164.52,127.04 164.42,127.96C164.35,128.65 163.94,129.5 162.87,129.45C160.4,129.34 157.92,129.33 155.46,129.17C154.44,129.1 154.28,129.42 154.3,130.36C154.33,132.02 154.04,133.68 154.11,135.33C154.21,137.82 154.54,140.29 154.7,142.78C154.77,143.85 154.63,144.92 154.63,146C154.62,148.76 154.63,151.53 154.63,154.29L154.63,168.13C156.32,168.13 157.82,168.16 159.31,168.12C160.3,168.09 161.28,167.87 162.26,167.9C162.66,167.91 163.3,168.3 163.39,168.64C163.63,169.55 162.93,170.54 162.1,170.57C159.87,170.63 157.64,170.61 155.41,170.62L154.92,170.62C154.86,171.72 154.71,172.81 154.75,173.9C154.84,176.09 155.11,178.27 155.15,180.46C155.22,183.77 155.1,187.08 155.16,190.38C155.23,194.04 155.4,197.7 155.54,201.35C155.62,203.49 155.77,205.63 155.81,207.77C155.83,208.68 155.99,209.14 157.06,209.1C158.37,209.05 159.69,209.2 161,209.31C161.46,209.35 161.94,209.5 162.35,209.72C162.57,209.83 162.8,210.21 162.77,210.44C162.73,210.73 162.48,211.13 162.23,211.22C161.8,211.37 161.3,211.35 160.83,211.34C159.41,211.3 157.98,211.23 156.56,211.17C155.63,211.13 155.66,211.81 155.66,212.4C155.64,214.87 155.68,217.35 155.65,219.82C155.59,225.35 155.48,230.89 155.43,236.42C155.42,237.61 155.64,238.81 155.63,240C155.62,242.26 155.52,244.53 155.45,246.79C155.37,249.12 156.08,249.77 158.45,249.54C159.23,249.46 160.03,249.31 160.79,249.41C161.17,249.46 161.49,250.01 161.84,250.33C161.52,250.64 161.25,251.14 160.88,251.22C159.89,251.44 158.86,251.53 157.84,251.59C157.23,251.63 156.61,251.51 155.65,251.44L155.65,257.5C155.65,259.05 155.65,260.6 155.64,262.16C155.64,262.36 155.65,262.61 155.55,262.74C155.2,263.17 154.79,263.56 154.4,263.96C154.17,263.46 153.78,262.98 153.75,262.46C153.58,260.15 153.52,257.84 153.42,255.53C153.36,254.14 153.3,252.76 153.23,251.2L151.34,251.2C147.42,251.16 143.49,251.12 139.57,251.08C139.03,251.08 138.46,250.98 137.95,251.13C137.7,251.2 137.41,251.72 137.41,252.03C137.41,253.3 137.61,254.57 137.56,255.84C137.47,258.49 137.3,261.14 137.08,263.79C137.05,264.19 136.47,264.91 136.33,264.86C135.71,264.67 135.35,264.37 135.43,263.42C135.67,260.66 135.68,257.87 135.66,255.09C135.66,253.8 135.37,252.51 135.21,251.21L117.51,251.21C117.67,252.42 117.94,253.47 117.91,254.51C117.82,258 117.65,261.5 117.45,264.99C117.43,265.41 117.08,265.82 116.89,266.23C116.36,265.83 115.55,265.54 115.35,265.02C115.06,264.24 115.19,263.29 115.14,262.41C114.96,259.01 114.79,255.61 114.59,252.22C114.55,251.51 114.1,251.21 113.38,251.23C109.86,251.31 106.34,251.39 102.83,251.44C100.4,251.47 97.98,251.44 95.39,251.44C95.39,253.77 95.33,255.87 95.41,257.96C95.51,260.67 95.72,263.37 95.88,266.07C95.88,266.23 95.91,266.42 95.84,266.54C95.59,266.98 95.18,267.8 95.04,267.76C94.37,267.56 93.53,267.43 93.54,266.37C93.54,264.5 93.5,262.62 93.42,260.75C93.29,257.74 93.12,254.73 92.96,251.65C91.14,251.65 89.23,251.68 87.31,251.65C84.1,251.59 80.88,251.48 77.67,251.4C76.93,251.38 76.16,251.3 75.46,251.46C75.11,251.54 74.63,252.11 74.63,252.46C74.65,254.73 74.84,257 74.86,259.27C74.87,260.79 74.65,262.32 74.62,263.84C74.6,264.63 74.88,265.43 74.78,266.2C74.71,266.72 74.22,267.19 73.92,267.68C73.62,267.34 73.1,267.04 73.04,266.66C72.86,265.55 72.86,264.42 72.8,263.29C72.76,262.42 72.74,261.54 72.74,260.67L72.74,252.02L55.88,252.02L55.9,251.94ZM94.41,170.85C94.64,183.9 94.87,196.8 95.1,209.82C96.83,209.68 98.48,209.45 100.13,209.44C103.98,209.41 107.83,209.47 111.68,209.53C113.08,209.55 113.26,209.39 113.28,208.01C113.31,204.95 113.35,201.88 113.44,198.82C113.58,193.72 113.91,188.62 113.88,183.52C113.86,179.46 113.4,175.4 113.18,171.34C113.13,170.45 112.55,170.57 112.01,170.57C108.82,170.58 105.64,170.59 102.45,170.64C99.83,170.68 97.22,170.77 94.42,170.85L94.41,170.85ZM133.28,167.91C133.62,161.39 133.66,154.98 133.49,148.56C133.33,142.11 133.3,135.65 133.21,129.16C131.17,129.16 129.42,129.18 127.67,129.16C123.68,129.11 119.7,129.05 115.71,128.96C114.87,128.94 114.69,129.29 114.77,130.05C114.86,130.92 114.87,131.8 114.86,132.68C114.8,138.68 114.64,144.67 114.69,150.67C114.73,155.32 115.03,159.97 115.2,164.62C115.24,165.71 115.2,166.8 115.2,167.92L133.25,167.92L133.28,167.91ZM92.44,212.09C92.12,212.03 91.97,211.97 91.81,211.97C89.25,212.02 86.7,212.09 84.14,212.12C81.5,212.15 78.86,212.17 76.21,212.14C74.72,212.13 74.41,212.28 74.32,213.67C74.24,214.95 74.34,216.24 74.32,217.53C74.3,219.33 74.24,221.13 74.2,222.94C74.15,225.12 74.07,227.3 74.08,229.48C74.09,231.88 74.19,234.29 74.25,236.69C74.3,238.91 74.34,241.12 74.41,243.34C74.47,245.22 74.57,247.09 74.66,248.96L93.26,248.96C94.07,236.58 92.31,224.39 92.42,212.08L92.44,212.09ZM114.34,248.9C114.34,248.07 114.38,247.33 114.34,246.59C114.25,245.28 114.05,243.98 114,242.68C113.88,239.38 113.85,236.07 113.74,232.77C113.56,227.36 113.37,221.95 113.16,216.54C113.1,214.82 112.98,213.09 112.89,211.3C109.76,211.39 106.82,211.5 103.88,211.56C100.94,211.62 98,211.64 94.97,211.68C94.97,214.15 94.95,216.33 94.97,218.51C95.02,222.69 95.06,226.86 95.17,231.04C95.23,233.18 95.54,235.32 95.58,237.46C95.65,241.24 95.6,245.01 95.6,248.91L114.34,248.91L114.34,248.9ZM117.23,248.71C118.46,248.71 119.52,248.69 120.57,248.71C122.74,248.75 124.9,248.83 127.07,248.87C129.17,248.9 131.26,248.87 133.36,248.9C135.24,248.92 135.25,248.93 135.14,247.05C135.11,246.49 135.05,245.94 135.01,245.38C134.8,242.9 134.48,240.41 134.39,237.93C134.2,232.52 134.25,227.11 133.95,221.71C133.77,218.41 132.96,215.14 133.54,211.81C133.7,210.88 133.21,210.71 132.46,210.76C131.75,210.8 131.05,210.87 130.34,210.86C128.96,210.84 127.58,210.69 126.21,210.76C123.01,210.91 119.82,211.18 116.63,211.35C115.87,211.39 115.53,211.64 115.59,212.42C115.66,213.45 115.71,214.49 115.74,215.52C115.8,218.03 115.76,220.54 115.91,223.04C116.12,226.5 116.58,229.94 116.75,233.4C117,238.44 117.09,243.49 117.26,248.71L117.23,248.71ZM115.93,209.23C121.75,209.06 127.55,208.88 133.19,208.72L133.19,170.36L115.35,170.36C115.42,171.44 115.48,172.35 115.55,173.26C115.84,177.08 116.36,180.89 116.38,184.71C116.41,190.3 116.07,195.9 115.94,201.49C115.88,204.06 115.93,206.63 115.93,209.24L115.93,209.23ZM152.14,170.41L136.04,170.41C135.85,172.46 135.55,174.42 135.51,176.37C135.44,180.07 135.5,183.78 135.53,187.48C135.56,190.89 135.63,194.3 135.66,197.71C135.69,200.77 135.68,203.83 135.73,206.88C135.76,208.82 136.03,209.02 137.96,209.01C140.85,209.01 143.75,209.04 146.64,209.05L152.85,209.05C152.61,196.1 152.37,183.39 152.13,170.4L152.14,170.41ZM135.28,129.02C135.25,129.6 135.18,130.03 135.21,130.45C135.3,131.66 135.52,132.87 135.53,134.08C135.57,138.08 135.53,142.09 135.53,146.1C135.53,147.17 135.46,148.24 135.51,149.3C135.63,151.84 135.89,154.37 135.91,156.9C135.94,160.25 135.81,163.6 135.73,166.95C135.71,167.83 136.02,168.09 136.94,168.04C139.2,167.91 141.48,167.9 143.74,167.89C146.48,167.87 149.23,167.89 152.19,167.89C152.02,155.04 151.85,142.13 151.68,129.04L135.27,129.04L135.28,129.02ZM55.42,169.36C57.11,169.24 58.57,169.1 60.03,169.05C63.58,168.91 67.12,168.81 70.67,168.69C71.32,168.67 71.97,168.68 71.95,167.73C71.92,166.3 71.97,164.86 71.93,163.43C71.86,160.93 71.73,158.44 71.66,155.94C71.64,155.28 71.8,154.61 71.77,153.95C71.71,152.22 71.56,150.5 71.51,148.77C71.41,145.52 71.34,142.27 71.31,139.02C71.3,137.32 71.43,135.62 71.46,133.92C71.49,132.6 71.46,131.27 71.46,130.07C66.82,130.23 62.41,130.38 58,130.54C57.2,130.57 56.41,130.64 55.61,130.66C54.92,130.67 54.59,130.93 54.65,131.68C54.73,132.74 54.74,133.8 54.78,134.87C54.9,137.78 55.03,140.69 55.16,143.6C55.24,145.49 55.35,147.38 55.39,149.27C55.43,151.12 55.39,152.97 55.39,154.82C55.39,157.71 55.41,160.6 55.41,163.49L55.41,169.37L55.42,169.36ZM152.95,248.86L152.95,211.03L136.07,211.03C135.94,213.18 135.67,215.24 135.73,217.28C135.82,220.35 136.21,223.4 136.35,226.47C136.53,230.55 136.55,234.63 136.72,238.71C136.85,242.03 137.1,245.35 137.3,248.86L152.95,248.86ZM55.71,249.65C57.39,249.65 58.86,249.68 60.33,249.65C64.11,249.55 67.88,249.4 71.66,249.31C72.39,249.29 72.67,249.03 72.63,248.31C72.55,246.73 72.52,245.15 72.44,243.57C72.3,240.84 72.05,238.11 72.02,235.37C71.97,231.42 72.09,227.46 72.12,223.51C72.14,219.9 72.12,216.3 72.12,212.57L55.71,212.57L55.71,249.65ZM91.77,168.73C91.92,168.15 92.06,167.89 92.05,167.63C91.91,164.61 91.78,161.58 91.56,158.56C91.54,158.29 91.01,158.01 90.67,157.81C89.73,157.24 88.64,156.85 87.84,156.13C84.55,153.18 84.93,148.74 86.19,145.32C86.94,143.26 88.54,141.77 90.58,140.81C90.9,140.66 91.23,140.15 91.24,139.79C91.29,138.61 91.18,137.43 91.17,136.25C91.15,134.14 91.17,132.04 91.17,129.89C91.07,129.88 90.91,129.85 90.76,129.85L76.17,129.85C73.92,129.85 73.86,129.85 73.73,131.96C73.59,134.41 73.56,136.87 73.51,139.33C73.49,140.31 73.51,141.29 73.54,142.27C73.62,144.48 73.73,146.69 73.8,148.9C73.85,150.58 73.8,152.26 73.86,153.94C73.93,156.32 74.07,158.71 74.11,161.09C74.14,163.22 74.1,165.35 74.04,167.48C74.01,168.4 74.4,168.58 75.26,168.58C77.65,168.58 80.04,168.72 82.43,168.74C85.57,168.77 88.71,168.74 91.79,168.74L91.77,168.73ZM72.53,94.85C72.63,96.45 72.7,97.91 72.8,99.37C73.06,103.07 73.34,106.77 73.58,110.47C73.67,111.89 73.62,113.32 73.67,114.75C73.74,116.95 73.88,119.15 73.91,121.34C73.93,122.88 73.81,124.43 73.8,125.97C73.8,126.59 73.71,127.18 74.81,127.09C76.97,126.93 79.15,126.99 81.32,127.01C84.34,127.04 87.37,127.12 90.39,127.2C91.1,127.22 91.52,127.05 91.55,126.24C91.6,124.63 91.75,123.02 91.78,121.41C91.83,118.81 91.76,116.21 91.84,113.61C91.9,111.47 92.18,109.34 92.23,107.21C92.27,105.19 92.1,103.17 92.07,101.15C92.04,99.22 92.07,97.29 92.07,95.27C85.48,95.13 79.08,94.99 72.54,94.85L72.53,94.85ZM112.98,168.24C112.98,167.57 112.99,167.18 112.98,166.79C112.83,163 112.65,159.22 112.53,155.43C112.46,153.08 112.47,150.73 112.44,148.38C112.39,144.68 112.31,140.98 112.3,137.28C112.3,134.97 112.4,132.66 112.4,130.34C112.4,129.86 112.56,129.13 111.64,129.14C108.85,129.18 106.06,129.17 103.27,129.26C100.81,129.34 98.35,129.56 95.89,129.62C93.95,129.67 93.62,129.94 93.69,131.9C93.69,132.02 93.74,132.14 93.73,132.26C93.69,134.12 93.75,135.99 93.55,137.84C93.39,139.33 93.45,139.52 94.85,140.07C96.24,140.62 97.79,141.1 98.85,142.07C100.32,143.41 100.92,145.43 101.35,147.36C101.59,148.41 101.58,149.61 101.32,150.66C100.97,152.07 100.37,153.45 99.68,154.75C98.72,156.55 97.33,157.99 95.16,158.2C94.28,158.28 94.08,158.64 94.11,159.39C94.22,162.09 94.33,164.79 94.42,167.49C94.45,168.25 94.72,168.46 95.54,168.43C98.93,168.31 102.32,168.29 105.71,168.25C108.09,168.23 110.47,168.25 112.96,168.25L112.98,168.24ZM133.42,94.97C133.31,94.94 133.12,94.85 132.93,94.85C127.31,94.84 121.69,94.83 116.07,94.87C115.82,94.87 115.38,95.39 115.37,95.68C115.26,99.8 115.2,103.91 115.14,108.03C115.05,113.64 114.97,119.24 114.89,124.85L114.89,126.98C117.94,126.98 120.85,126.96 123.76,126.98C126.66,127.01 129.55,127.11 132.44,127.12C132.7,127.12 133.17,126.66 133.19,126.39C133.25,125.62 133.08,124.84 133.08,124.06C133.08,120.9 133.08,117.75 133.12,114.59C133.15,111.25 133.21,107.91 133.27,104.56C133.3,102.71 133.38,100.87 133.42,99.02C133.44,97.72 133.42,96.42 133.42,94.96L133.42,94.97ZM112.88,95.11C111.31,94.98 109.85,94.74 108.4,94.77C103.85,94.87 99.31,95.1 94.76,95.23C93.92,95.25 93.71,95.64 93.77,96.34C93.94,98.07 94.15,99.79 94.31,101.52C94.45,103.06 94.6,104.6 94.62,106.14C94.63,107.8 94.44,109.46 94.42,111.12C94.39,113.29 94.45,115.46 94.45,117.63L94.45,127.01C94.65,127.02 95,127.09 95.35,127.07C97.05,126.98 98.76,126.76 100.46,126.77C104.04,126.77 107.62,126.86 111.2,126.99C112.19,127.03 112.47,126.63 112.45,125.75C112.41,123.88 112.34,122 112.38,120.13C112.45,116.78 112.61,113.43 112.71,110.08C112.79,107.18 112.85,104.27 112.89,101.36C112.92,99.29 112.89,97.23 112.89,95.1L112.88,95.11ZM74.3,171.03C74.23,171.62 74.15,171.97 74.14,172.33C74.12,174.98 74.11,177.63 74.1,180.28C74.1,181.24 74.38,181.87 75.51,182.09C78.34,182.65 80.31,184.55 81.14,187.13C82.63,191.74 80.07,198.13 75.13,199.66C74.54,199.84 74.25,200.16 74.26,200.87C74.29,203.71 74.24,206.55 74.24,209.39C74.24,209.69 74.34,209.99 74.37,210.14L92.77,210.14C92.52,196.92 92.27,183.94 92.03,171.03L74.3,171.03ZM71.78,127.14L71.78,125.35C71.8,121.78 71.87,118.2 71.84,114.63C71.81,111.33 71.65,108.04 71.61,104.75C71.57,101.73 71.64,98.71 71.6,95.69C71.6,95.41 71.16,94.89 70.91,94.88C67.33,94.81 63.75,94.8 60.17,94.79C58.54,94.79 56.91,94.82 55.28,94.85C54.93,94.85 54.59,94.93 54.08,94.99C55.61,105.89 55.17,116.78 54.87,127.67C60.65,127.49 66.21,127.31 71.78,127.13L71.78,127.14ZM72.07,171.16C71.1,171.16 70.31,171.14 69.52,171.16C65.22,171.27 60.92,171.38 56.62,171.51C56.06,171.53 55.42,171.44 55.46,172.43C55.59,175.27 55.66,178.11 55.68,180.95C55.7,183.18 55.58,185.42 55.58,187.65C55.58,189.7 55.63,191.75 55.65,193.81C55.65,194.79 55.65,195.76 55.63,196.74C55.59,199.26 55.52,201.77 55.51,204.29C55.5,205.87 55.62,207.46 55.56,209.04C55.5,210.73 55.45,210.74 57.19,210.71C61.84,210.63 66.48,210.54 71.13,210.5C71.88,210.5 72.14,210.19 72.14,209.52C72.14,206.91 72.04,204.3 72.17,201.69C72.25,200.17 71.62,199.46 70.27,199.18C68.63,198.84 67.46,197.92 66.39,196.63C65.48,195.54 65.67,194.32 65.32,193.17C64.75,191.33 64.76,189.45 65.35,187.68C65.91,186 65.92,183.93 67.83,182.99C69.17,182.33 70.6,181.84 72.09,181.23L72.09,171.17L72.07,171.16ZM151.73,126.88L151.73,95.07L135.75,95.07C135.19,105.67 135.59,116.27 135.11,126.88L151.73,126.88Z" style="fill-rule:nonzero;"/>
        <path d="M89.31,76.02C89.19,74.39 89.11,72.77 88.94,71.15C88.78,69.63 89.12,69.27 90.61,69.36C93.67,69.55 96.55,70.39 99.29,71.74C101.2,72.68 102.83,76.45 101.17,79.02C99.41,81.74 97,82.86 93.95,83.2C92.9,83.32 91.83,83.96 90.89,83.17C90.27,82.65 89.59,81.9 89.47,81.16C89.18,79.48 89.22,77.75 89.13,76.04C89.19,76.04 89.25,76.04 89.31,76.03L89.31,76.02ZM91.16,71.26C91.41,72.85 91.66,74.26 91.84,75.68C92.03,77.22 92.11,78.77 92.35,80.3C92.4,80.6 92.96,81.1 93.2,81.06C94.44,80.82 95.73,80.6 96.86,80.08C99.64,78.8 100.27,75.48 97.98,73.97C95.96,72.64 93.71,71.68 91.16,71.26Z" style="fill-rule:nonzero;"/>
        <path d="M116.56,82.19C116.09,82.28 115.53,82.35 115,82.49C112.92,83.06 110.99,82.59 109.32,81.38C107.53,80.09 107.19,78.01 107.5,76.06C107.78,74.26 108.52,72.5 110.19,71.34C112.23,69.92 115.6,70.28 117.67,71.94C117.94,72.16 117.96,72.71 118.09,73.1C117.71,73.16 117.31,73.3 116.94,73.26C115.73,73.11 114.53,72.78 113.31,72.73C111.34,72.64 109.64,74.9 109.59,76.53C109.52,78.5 111.37,80.33 113.38,80.39C114.25,80.42 115.13,80.32 116,80.18C116.71,80.06 117.03,79.61 116.76,78.94C115.39,78.67 114.06,78.46 112.77,78.13C112.39,78.03 112.1,77.57 111.77,77.28C112.06,76.99 112.32,76.48 112.64,76.44C113.93,76.28 115.24,76.24 116.54,76.21C117.58,76.19 118.62,76.2 119.66,76.29C120.04,76.33 120.67,76.6 120.7,76.85C120.77,77.27 120.59,78.05 120.3,78.17C118.75,78.81 118.82,79.93 119.12,81.25C119.3,82.02 119.39,82.83 119.36,83.62C119.35,83.95 118.96,84.37 118.63,84.56C118.44,84.67 117.89,84.51 117.74,84.31C117.31,83.71 117,83.02 116.56,82.2L116.56,82.19Z" style="fill-rule:nonzero;"/>
        <path d="M131.61,77.26C131.75,78.48 131.89,79.53 131.99,80.59C132.06,81.39 132.44,82.35 131.27,82.69C130.31,82.97 128.71,82 128.7,81.02C128.66,77.47 128.7,73.92 128.79,70.38C128.79,70 129.33,69.62 129.62,69.25C129.97,69.64 130.53,69.99 130.62,70.44C130.89,71.72 131,73.04 131.13,74.34C131.21,75.09 131.44,75.49 132.32,75.44C133.27,75.38 134.23,75.47 135.18,75.56C136.17,75.66 136.41,75.24 136.35,74.31C136.26,73.01 136.27,71.7 136.32,70.39C136.33,70.07 136.65,69.52 136.85,69.5C137.17,69.48 137.57,69.77 137.84,70.03C138.02,70.2 138.07,70.53 138.12,70.8C138.67,74.12 139.22,77.45 139.74,80.77C139.84,81.4 139.79,82.04 139.81,82.68C139.83,83.45 139.52,84.24 138.75,84.09C138.03,83.95 136.84,84.09 136.74,82.83C136.63,81.49 136.55,80.14 136.53,78.8C136.52,77.97 136.19,77.73 135.37,77.7C134.19,77.66 133.01,77.43 131.62,77.25L131.61,77.26Z" style="fill-rule:nonzero;"/>
        <path d="M52.8,76.56C53.04,77.75 53.24,78.75 53.46,79.84C54.97,79.84 56.5,79.82 58.02,79.85C58.51,79.86 59.42,80 59.42,80.11C59.45,80.74 59.37,81.43 59.1,81.99C58.96,82.28 58.36,82.48 57.96,82.51C56.01,82.63 54.05,82.7 52.1,82.74C51.26,82.76 50.66,82.27 50.78,81.41C51.09,79.08 50.02,77 49.74,74.79C49.57,73.42 49.32,71.96 49.64,70.67C49.81,69.97 51.02,69.21 51.87,69.05C53.69,68.73 55.57,68.76 57.43,68.7C58.19,68.67 58.61,69.45 58.14,70.16C57.84,70.61 57.27,70.99 56.75,71.18C55.97,71.46 55.13,71.56 54.31,71.73C52.88,72.02 52.41,72.63 52.61,74.05C52.68,74.58 52.83,74.93 53.63,74.83C55.24,74.62 56.87,74.59 58.5,74.59C58.87,74.59 59.25,75 59.62,75.22C59.36,75.54 59.14,76.07 58.83,76.13C57.56,76.36 56.26,76.46 54.96,76.57C54.34,76.62 53.7,76.57 52.8,76.57L52.8,76.56Z" style="fill-rule:nonzero;"/>
        <path d="M70.84,79.3C70.17,80.66 69.53,81.97 68.91,83.23C66.5,82.67 66.81,81.99 67.41,80.28C67.74,79.35 68,78.39 68.36,77.47C69.38,74.88 70.42,72.3 71.48,69.73C71.58,69.49 72.01,69.12 72.11,69.17C72.54,69.38 73.06,69.64 73.27,70.03C74.35,71.98 75.25,74.03 76.4,75.93C77.1,77.1 78.24,77.99 78.27,79.54C78.27,79.99 78.74,80.44 79.03,80.87C79.63,81.77 79.4,82.71 78.9,83.46C78.51,84.05 77.75,84 77.31,83.35C76.85,82.66 76.43,81.93 76.12,81.17C75.42,79.48 74.5,78.87 72.64,79.05C72.01,79.11 71.38,79.21 70.83,79.28L70.84,79.3ZM72.46,73.77C71.98,75.13 71.59,76.26 71.12,77.61C72.22,77.51 73.02,77.43 73.92,77.35C73.42,76.13 73,75.08 72.46,73.78L72.46,73.77Z" style="fill-rule:nonzero;"/>
        <path d="M151.18,72.37C151.34,73.8 151.39,75.05 151.68,76.24C151.74,76.5 152.68,76.64 153.22,76.67C154.37,76.73 155.53,76.69 156.63,76.69C156.9,78.29 156.71,78.61 155.45,78.67C154.23,78.73 153.01,78.68 151.54,78.68C151.74,79.72 151.92,80.62 152.1,81.53C153.92,81.53 155.66,81.61 157.39,81.49C158.15,81.44 158.59,81.64 158.75,82.27C158.94,83.02 158.42,83.38 157.75,83.46C156.8,83.56 155.85,83.58 154.89,83.66C154.14,83.72 153.38,83.74 152.65,83.89C151.52,84.12 150.77,83.67 150.21,82.63C149.33,81.02 149.53,79.26 149.35,77.56C149.16,75.79 149.11,74.01 148.98,72.24C148.9,71.08 149.45,70.42 150.59,70.28C152.45,70.06 154.31,69.83 156.17,69.68C157.45,69.58 158.56,70.5 158.57,71.69C158.57,71.98 157.99,72.51 157.65,72.52C156.26,72.6 154.87,72.53 153.48,72.5C152.81,72.48 152.14,72.43 151.16,72.37L151.18,72.37Z" style="fill-rule:nonzero;"/>
        <path d="M83.64,43.64C82.42,43.64 81.32,43.68 80.22,43.64C78.21,43.55 76.79,44.59 75.68,46.07C74.06,48.24 73.58,50.78 73.96,53.4C74.51,57.22 77.17,58.36 81.1,56.8C81.36,56.7 81.59,56.46 81.85,56.43C82.34,56.37 82.84,56.43 83.33,56.43C83.17,57.03 83.2,57.89 82.8,58.18C80.49,59.87 76.27,60.79 73.43,57.23C71.69,55.05 71.52,52.65 71.8,50.18C72.21,46.58 73.61,43.44 77.27,42C79.03,41.31 80.88,41.17 82.69,42.08C83.49,42.48 83.7,43.09 83.64,43.65L83.64,43.64Z" style="fill-rule:nonzero;"/>
        <path d="M86.51,48.31C86.79,48.57 87.07,48.82 87.35,49.08C89.94,47.93 90.39,48.06 91.94,50.24C93.08,49.56 94.14,48.73 95.33,48.27C96.64,47.77 97.58,48.45 98.22,49.74C99.29,51.87 99.41,54.16 99.38,56.46C99.38,56.79 98.68,57.11 98.3,57.44C97.98,57.04 97.45,56.67 97.38,56.22C97.21,55.18 97.29,54.11 97.21,53.06C97.17,52.55 97.02,52.04 96.9,51.53C96.77,50.97 96.61,50.41 96.46,49.86C95.68,50.18 94.68,50.31 94.17,50.87C93.12,52.03 92.85,53.55 93.13,55.13C93.22,55.64 93.29,56.17 93.22,56.67C93.18,56.97 92.92,57.38 92.66,57.47C92.45,57.55 91.94,57.31 91.83,57.07C91.53,56.49 91.3,55.86 91.19,55.22C90.94,53.79 90.81,52.33 90.55,50.9C90.36,49.87 89.49,49.55 88.74,50.28C88.33,50.68 87.99,51.36 87.96,51.92C87.9,53.34 88.03,54.77 88.1,56.19C88.14,56.98 88.4,58.07 87.39,58.17C86.44,58.26 86.24,57.26 86.2,56.36C86.12,54.42 85.93,52.49 85.86,50.55C85.83,49.83 86.03,49.1 86.12,48.37C86.25,48.35 86.37,48.33 86.5,48.31L86.51,48.31Z" style="fill-rule:nonzero;"/>
        <path d="M125.6,48.46C126.35,48.46 126.88,48.49 127.41,48.46C128.37,48.39 128.77,49.06 128.76,49.77C128.76,50.07 127.96,50.53 127.48,50.6C126.79,50.7 126.06,50.52 125.14,50.44C124.67,52.36 124.19,54.3 123.71,56.24C123.55,56.87 123.78,57.97 122.77,57.74C122.35,57.65 121.87,56.43 121.96,55.79C122.21,53.98 122.73,52.22 123.18,50.28C122.3,50.22 121.4,50.2 120.52,50.06C120.17,50.01 119.85,49.69 119.52,49.5C119.82,49.25 120.09,48.88 120.43,48.79C120.96,48.65 121.56,48.57 122.09,48.68C123.61,48.99 124.1,48.04 124.43,46.89C124.85,45.39 125.22,43.87 125.6,42.43C123.49,42.13 121.42,41.87 119.36,41.51C119.02,41.45 118.75,41 118.44,40.73C118.77,40.43 119.12,39.86 119.44,39.87C121.94,39.96 124.44,40.13 126.93,40.34C127.87,40.42 128.1,41.27 127.66,42.53C126.99,44.42 126.35,46.31 125.61,48.46L125.6,48.46Z" style="fill-rule:nonzero;"/>
        <path d="M107.8,56.3C106.71,56.62 105.54,57.12 104.32,57.3C102.38,57.58 100.28,55.85 100.7,53.41C101.05,51.32 101.92,49.69 103.69,48.55C105.1,47.64 106.47,48.06 107.86,48.92C109.62,50.01 109.13,51.57 109.31,53.05C109.41,53.87 109.63,54.68 109.67,55.5C109.7,56.01 109.58,56.57 109.37,57.02C109.27,57.23 108.61,57.44 108.48,57.33C108.14,57.04 107.95,56.57 107.8,56.31L107.8,56.3ZM104.38,55.28C105.65,55.32 106.77,54.74 107.01,53.85C107.19,53.21 107.29,52.55 107.43,51.9C107.72,50.54 107.17,49.85 105.8,49.87C104.2,49.89 102.99,51.3 102.53,52.86C102.03,54.55 102.63,55.22 104.39,55.27L104.38,55.28Z" style="fill-rule:nonzero;"/>
        <path d="M109.92,60.79C111.367,61.943 112.567,61.843 113.52,60.49C113.73,60.18 113.96,59.79 113.95,59.44C113.86,57.06 113.69,54.68 113.57,52.29C113.53,51.42 113.45,50.54 113.57,49.69C113.62,49.34 114.17,49.07 114.5,48.76C114.73,49.04 115.14,49.3 115.17,49.6C115.51,52.63 116.05,55.68 116,58.71C115.96,61.23 114.23,63.61 111.34,63.82C110.48,63.88 109.84,63.58 109.65,62.86C109.51,62.31 109.79,61.65 109.93,60.79L109.92,60.79Z" style="fill-rule:nonzero;"/>
        <path d="M113.32,42.44C113.7,42.97 114.15,43.36 114.08,43.53C113.88,43.98 113.46,44.33 113.13,44.72C112.85,44.44 112.29,44.09 112.35,43.91C112.49,43.44 112.89,43.06 113.33,42.44L113.32,42.44Z" style="fill-rule:nonzero;"/>
        <path d="M104.17,135.33C102.88,135.88 102.47,138.01 100.24,137.22C101.64,135.55 102.83,134.02 104.15,132.62C104.48,132.27 105.29,132.18 105.8,132.3C106.05,132.36 106.32,133.2 106.25,133.64C105.97,135.65 106.94,137.36 107.41,139.19C107.47,139.42 107.64,139.7 107.57,139.87C107.37,140.32 107.07,140.71 106.81,141.13C106.43,140.88 105.82,140.7 105.7,140.36C105.12,138.72 104.67,137.04 104.17,135.33Z" style="fill-rule:nonzero;"/>
        <path d="M84.21,183.02C85.49,182.96 86.48,182.85 87.46,182.9C87.82,182.92 88.15,183.33 88.5,183.56C88.16,184 87.86,184.76 87.48,184.81C86.2,184.97 84.89,184.92 83.59,184.85C82.23,184.78 81.96,184.18 82.59,182.97C83.3,181.64 84.17,180.33 84.55,178.9C84.79,178 84.36,176.85 84,175.89C83.8,175.36 82.66,175.8 82.36,176.58C82.25,176.86 82.34,177.22 82.24,177.5C82.15,177.76 81.93,177.97 81.77,178.2C81.55,178.01 81.22,177.86 81.14,177.62C80.78,176.52 81.93,174.64 83.17,174.2C84.54,173.72 85.41,174.19 86.09,175.65C86.8,177.16 86.57,178.56 85.77,179.95C85.25,180.87 84.8,181.83 84.19,183.02L84.21,183.02Z" style="fill-rule:nonzero;"/>
    </g>
</svg>
