<?xml version="1.0" encoding="iso-8859-1"?>
<!-- Generator: Adobe Illustrator 16.0.0, SVG Export Plug-In . SVG Version: 6.00 Build 0)  -->
<!DOCTYPE svg PUBLIC "-//W3C//DTD SVG 1.1//EN" "http://www.w3.org/Graphics/SVG/1.1/DTD/svg11.dtd">
<svg version="1.1" xmlns="http://www.w3.org/2000/svg" xmlns:xlink="http://www.w3.org/1999/xlink" x="0px" y="0px"
	 width="175.68px" height="233.649px" viewBox="0 0 175.68 233.649" style="enable-background:new 0 0 175.68 233.649;"
	 xml:space="preserve">
<g id="A7">
	<g id="A7_1_">
		<path style="fill:none;" d="M175.68,233.649c-58.561,0-117.12,0-175.68,0C0,153.811,0,73.97,0-5.87c58.56,0,117.119,0,175.68,0
			C175.68,73.97,175.68,153.81,175.68,233.649z M20.409,58.705c0,1.449-0.052,2.727,0.009,3.999c0.196,4.03,0.297,3.81,4.097,3.839
			c1.236,0.009,2.473-0.111,3.709-0.101c0.81,0.007,1.225,0.355,1.235,1.324c0.055,5.516,0.228,11.031,0.292,16.546
			c0.075,6.436,0.044,12.865-1.123,19.237c-0.231,1.263-0.807,1.364-1.798,1.152c-1.052-0.226-2.102-0.5-3.167-0.616
			c-1.101-0.121-2.34,0.636-2.262,1.344c0.127,1.143,1.079,1.399,2.021,1.487c1.033,0.095,2.079,0.053,3.114,0.132
			c2.629,0.202,2.7,0.313,2.729,2.926c0.076,6.916,0.201,13.832,0.247,20.748c0.043,6.473-0.002,12.945,0.024,19.418
			c0.004,0.896-0.345,1.251-1.202,1.168c-1.192-0.115-2.382-0.297-3.576-0.334c-1.021-0.03-2.087-0.039-3.056,0.227
			c-0.458,0.126-0.733,0.918-1.091,1.408c0.443,0.287,0.863,0.766,1.334,0.822c1.143,0.141,2.31,0.084,3.468,0.107
			c1.408,0.027,2.816,0.056,4.206,0.082c-0.188,14.76-0.374,29.213-0.559,43.737c-2.521,0.122-5.059,0.245-7.645,0.371
			c-0.018,0.329-0.07,0.604-0.042,0.869c0.192,1.787,0.92,2.256,2.648,1.898c1.358-0.281,2.741-0.469,4.123-0.6
			c0.693-0.066,1.174,0.26,1.221,1.106c0.152,2.788,0.391,5.571,0.542,8.358c0.118,2.181,0.155,4.365,0.228,6.561
			c1.773-0.189,2.489-0.941,2.492-2.438c0.006-3.479-0.031-6.958,0.027-10.436c0.018-1.079,0.285-2.153,0.428-3.164
			c6.158,0.365,12.053-0.95,17.803-0.02c0,5.142,0,10.197,0,15.367c0.549,0.136,1.269,0.314,2.067,0.512
			c1.107-5.407-0.029-10.769,0.381-15.996c7.203,0,14.335,0,21.562,0c0,0.577,0.017,0.969-0.003,1.357
			c-0.145,2.833-0.359,5.663-0.422,8.498c-0.033,1.484,0.074,3.005,1.024,4.326c1.536-0.81,1.955-2.2,1.996-3.656
			c0.076-2.715-0.028-5.435-0.008-8.151c0.006-0.847,0.17-1.691,0.275-2.656c7.09,0,13.983,0,20.906,0
			c0,0.643,0.012,1.241-0.002,1.84c-0.078,3.587-0.147,7.175-0.268,10.76c-0.013,0.364-0.337,0.72-0.521,1.076
			c-0.134,0.258-0.46,0.601-0.386,0.752c0.476,0.969,1.39,1.086,2.344,1.027c0.834-0.051,1.267-0.377,1.224-1.354
			c-0.134-2.994-0.231-5.992-0.216-8.989c0.009-1.736,0.261-3.472,0.411-5.296c6.666,0,13.13,0,19.924,0
			c0.055,1.835,0.18,3.565,0.139,5.292c-0.05,2.154-0.293,4.305-0.343,6.459c-0.027,1.167,0.32,2.274,1.362,3.175
			c0.285-0.618,0.69-1.138,0.752-1.696c0.196-1.772,0.346-3.559,0.362-5.341c0.021-2.308-0.104-4.617-0.163-6.927
			c-0.026-1.024,0.521-1.184,1.449-1.151c3.435,0.12,6.873,0.157,10.31,0.199c2.151,0.026,4.303,0.005,6.506,0.005
			c0.688,4.798,0.956,9.49,0.376,14.19c-0.15,1.222,0.72,1.418,1.367,1.714c0.827,0.379,1.181-0.444,1.263-1.03
			c0.142-1.015,0.25-2.095,0.054-3.084c-0.778-3.901-0.293-7.781-0.09-11.661c3.26,0,6.432,0,9.731,0
			c-0.027-0.501-0.104-0.969-0.067-1.427c0.123-1.5-0.78-1.923-2.034-2.03c-1.827-0.157-3.653-0.332-5.48-0.495
			c-0.624-0.057-1.249-0.103-2.067-0.169c0.237-2.298,0.462-4.468,0.687-6.637c0.37-0.115,0.669-0.21,0.97-0.301
			c6.091-1.837,8.825-10.031,4.8-14.929c-1.297-1.578-3.25-2.641-4.984-3.82c-0.6-0.408-0.877-0.731-0.872-1.473
			c0.027-4.438-0.001-8.878-0.011-13.317c-0.001-0.745,0-1.489,0-2.195c2.778-0.64,5.621,1.167,8.051-0.831
			c-0.358-0.66-0.689-1.268-1.034-1.902c-2.369,0.188-4.736,0.373-7.167,0.564c-0.611-14.965-1.049-29.686,0.48-44.524
			c0.766,0.048,1.432,0.079,2.096,0.133c1.55,0.126,3.097,0.311,4.649,0.378c1.03,0.045,1.942-0.324,2.634-1.271
			c-1.384-1.353-3.129-1.421-4.814-1.519c-1.739-0.1-3.488-0.022-5.346-0.022c0-0.583-0.002-1.016,0-1.449
			c0.023-4.318,0.069-8.637,0.066-12.956c-0.006-7.238-0.019-14.477-0.092-21.715c-0.012-1.112,0.329-1.453,1.406-1.431
			c3.074,0.063,6.15,0.021,9.225,0.081c0.701,0.014,1.112-0.154,1.088-0.868c-0.065-1.911-0.15-3.821-0.277-5.729
			c-0.062-0.926-0.608-1.16-1.547-1.15c-6.674,0.068-13.348,0.057-20.021,0.079c-8.631,0.028-17.264-0.01-25.894,0.111
			c-12.471,0.175-24.939,0.509-37.411,0.69c-5.435,0.08-10.873-0.012-16.308-0.095c-9.033-0.139-18.066-0.343-27.099-0.499
			C25.484,58.67,23.093,58.705,20.409,58.705z M86.884,29.868c-0.244-0.698-0.353-1.26-0.623-1.729
			c-0.696-1.209-1.497-2.357-2.196-3.563c-2.001-3.449-3.933-6.939-5.979-10.36c-0.582-0.973-1.376-1.864-2.228-2.618
			c-0.86-0.761-1.835-0.317-1.922,0.818c-0.227,2.953-1.236,5.664-2.412,8.337c-1.33,3.024-2.774,6.004-3.282,9.326
			c-0.175,1.146,0.651,1.474,1.35,1.826c0.746,0.376,1.211-0.197,1.449-0.833c0.417-1.115,0.815-2.243,1.117-3.393
			c0.208-0.792,0.635-1.127,1.419-1.161c1.792-0.077,3.597-0.074,5.371-0.306c1.874-0.245,2.939,0.419,3.636,2.171
			c0.377,0.95,1.168,1.773,1.904,2.524c0.286,0.292,1.057,0.449,1.392,0.268C86.329,30.934,86.571,30.305,86.884,29.868z
			 M94.854,22.705c-0.081,0.63-0.139,1.059-0.191,1.488c-0.244,1.982-0.525,3.964,0.188,5.918c0.278,0.764,0.64,1.47,1.612,1.183
			c0.839-0.248,1.554-0.553,1.469-1.788c-0.131-1.897-0.025-3.817,0.069-5.723c0.046-0.91,0.479-1.438,1.586-1.167
			c0.931,0.228,1.506-0.139,1.741-1.248c0.269-1.262-0.301-1.772-1.289-2.118c-0.669-0.233-1.362-0.397-2.13-0.616
			c0.048-0.609,0.14-1.2,0.13-1.789c-0.021-1.391-0.037-2.786-0.16-4.169c-0.09-1-0.682-1.528-1.771-1.52
			c-2.077,0.017-4.154-0.052-6.23-0.07c-1.617-0.013-3.235-0.002-4.809-0.002c-0.28,2.33,0.059,2.809,2.083,2.97
			c1.589,0.126,3.188,0.151,4.783,0.181c2.675,0.049,2.677,0.036,2.672,2.633c0,0.439-0.029,0.878-0.033,1.318
			c-0.006,0.739-0.288,1.033-1.102,0.979c-1.353-0.089-2.715-0.012-4.073-0.027c-0.829-0.009-1.127,0.456-1.153,1.199
			c-0.036,1.034,0.541,1.753,1.564,1.867C91.428,22.385,93.049,22.528,94.854,22.705z M103.708,44.214
			c0.474-2.074-0.276-3.535-2.016-4.319c-3.711-1.673-8.344,0.595-9.3,4.553c-0.846,3.499,1.127,7.705,4.408,9.404
			c2.274,1.178,4.533,0.99,6.772-0.126c0.23,0.761,0.446,1.473,0.691,2.28c0.886-0.179,1.678-0.34,2.41-0.489
			c-0.132-1.921-0.247-3.673-0.375-5.424c-0.231-3.167-0.78-3.676-3.936-3.662c-0.399,0.002-0.812-0.039-1.195,0.042
			c-1.253,0.266-2.496,0.579-3.726,0.87c0.476,2.362,0.474,2.351,2.525,2.038c0.869-0.133,1.747-0.204,2.62-0.304
			c0.084,0.133,0.167,0.267,0.251,0.4c-0.364,0.574-0.608,1.305-1.115,1.692c-1.759,1.345-3.798,1.115-5.72,0.53
			c-1.268-0.385-1.002-1.824-1.289-2.849c-0.032-0.115-0.069-0.232-0.079-0.351c-0.169-1.973,0.064-3.845,1.536-5.333
			c1.729-1.75,4.098-1.681,5.819,0.045C102.427,43.648,103.085,43.861,103.708,44.214z M74.013,54.628
			c3.76-0.003,7.211-1.218,9.386-3.191c2.524-2.29,2.769-4.756,0.587-7.367c-2.258-2.701-5.22-4.316-8.646-5.002
			c-2.264-0.453-3.648,0.546-4.054,2.848c-0.177,1.004-0.165,2.064-0.088,3.088c0.203,2.694,0.895,5.355,0.305,8.103
			c-0.082,0.383,0.663,1.106,1.179,1.403C73.115,54.759,73.773,54.615,74.013,54.628z M35.585,50.762c-2.461,0-4.945,0-7.398,0
			c-0.19-1.19-0.364-2.27-0.548-3.418c0.988-0.148,1.888-0.299,2.792-0.415c0.814-0.104,1.191-0.448,1.047-1.348
			c-0.221-1.381-1.111-2.084-2.715-1.684c-1.349,0.338-1.391-0.572-1.572-1.334c-0.236-0.995,0.539-1.107,1.238-1.154
			c1.78-0.119,3.562-0.202,5.387-0.302c0.267-0.84,0.552-1.736,0.865-2.722c-2.996-0.833-5.804-0.683-8.64,0.008
			c-1.066,0.26-1.438,0.772-1.321,1.828c0.49,4.433,0.948,8.87,1.425,13.381c2.377,0,4.685,0.083,6.984-0.024
			c2.152-0.101,2.188-0.229,2.539-2.4C35.675,51.141,35.655,51.101,35.585,50.762z M46.895,54.702
			c0.051-2.458,1.489-3.465,3.636-3.743c1.105-0.143,2.245-0.184,3.301-0.5c0.946-0.282,1.257,0.098,1.608,0.831
			c0.516,1.074,1.074,2.137,1.729,3.13c0.43,0.652,1.123,0.934,1.849,0.341c0.671-0.548,1.246-1.114,0.557-2.09
			c-0.427-0.604-0.728-1.306-1.031-1.987c-0.277-0.622-0.434-1.3-0.731-1.91c-0.313-0.642-0.762-1.216-1.099-1.847
			c-1.085-2.037-2.148-4.085-3.212-6.133c-0.084-0.164-0.115-0.356-0.165-0.537c-0.127-0.468-0.25-0.938-0.375-1.407
			c-0.369,0.31-0.878,0.545-1.084,0.94c-2.173,4.164-4.309,8.348-6.43,12.54C44.869,53.473,45.287,54.204,46.895,54.702z
			 M141.389,52.162c-0.092-0.343-0.203-0.682-0.272-1.028c-0.29-1.431-0.032-1.815,1.42-1.925c0.669-0.05,1.351,0.085,2.026,0.107
			c0.646,0.02,1.33,0.093,1.342-0.895c0.018-1.488-0.434-2.26-1.415-2.221c-1.098,0.044-2.192,0.159-3.27,0.242
			c-0.218-1.319-0.407-2.474-0.611-3.714c0.958,0,1.743,0.011,2.527-0.002c1.548-0.027,3.101-0.013,4.639-0.149
			c0.311-0.027,0.788-0.629,0.813-0.993c0.104-1.481-0.896-2.366-2.7-2.238c-2.448,0.172-4.884,0.521-7.448,0.809
			c0.316,4.79,0.633,9.588,0.955,14.472c3.658-0.051,7.191,0.958,10.586-1.324C147.185,51.306,144.181,52.688,141.389,52.162z
			 M115.687,38.897c0.298,5.171,0.579,10.047,0.858,14.896c1.887,0.169,1.978,0.097,2.087-1.621c0.062-0.954,0.054-1.915,0.176-2.86
			c0.042-0.323,0.351-0.836,0.596-0.872c1.6-0.237,3.216-0.368,4.938-0.544c0,0.803,0.004,1.512-0.001,2.221
			c-0.007,1.077-0.055,2.154-0.018,3.229c0.033,0.972,0.654,1.528,1.554,1.708c0.272,0.055,0.813-0.134,0.877-0.327
			c0.225-0.682,0.404-1.415,0.398-2.127c-0.011-1.387-0.184-2.771-0.245-4.159c-0.086-1.912-0.046-3.833-0.224-5.735
			c-0.133-1.421-0.751-2.655-2.601-3.413c0,2.297,0,4.36,0,6.463c-2.108,0-3.876,0-5.678,0c0-2.066,0-3.96,0-5.902
			C117.519,39.543,116.643,39.234,115.687,38.897z"/>
		<path style="fill-rule:evenodd;clip-rule:evenodd;" d="M20.409,58.705c2.685,0,5.076-0.035,7.466,0.006
			c9.033,0.156,18.066,0.36,27.099,0.499c5.436,0.083,10.874,0.175,16.308,0.095c12.472-0.182,24.94-0.516,37.411-0.69
			c8.63-0.122,17.263-0.083,25.894-0.111c6.674-0.021,13.348-0.011,20.021-0.079c0.938-0.009,1.484,0.224,1.547,1.15
			c0.127,1.907,0.212,3.818,0.277,5.729c0.024,0.714-0.387,0.881-1.088,0.868c-3.074-0.061-6.15-0.018-9.225-0.081
			c-1.077-0.022-1.418,0.318-1.406,1.431c0.073,7.238,0.086,14.477,0.092,21.715c0.003,4.318-0.043,8.637-0.066,12.956
			c-0.002,0.433,0,0.867,0,1.449c1.857,0,3.606-0.078,5.346,0.022c1.686,0.097,3.431,0.166,4.814,1.519
			c-0.691,0.946-1.604,1.315-2.634,1.271c-1.553-0.067-3.1-0.252-4.649-0.378c-0.664-0.054-1.33-0.085-2.096-0.133
			c-1.529,14.838-1.092,29.559-0.48,44.524c2.431-0.191,4.798-0.377,7.167-0.564c0.345,0.635,0.676,1.242,1.034,1.902
			c-2.43,1.998-5.272,0.191-8.051,0.831c0,0.706-0.001,1.45,0,2.195c0.01,4.439,0.038,8.879,0.011,13.317
			c-0.005,0.741,0.272,1.064,0.872,1.473c1.734,1.18,3.688,2.242,4.984,3.82c4.025,4.897,1.291,13.092-4.8,14.929
			c-0.301,0.091-0.6,0.186-0.97,0.301c-0.225,2.169-0.449,4.339-0.687,6.637c0.818,0.066,1.443,0.112,2.067,0.169
			c1.827,0.163,3.653,0.338,5.48,0.495c1.254,0.107,2.157,0.53,2.034,2.03c-0.037,0.458,0.04,0.926,0.067,1.427
			c-3.3,0-6.472,0-9.731,0c-0.203,3.88-0.688,7.76,0.09,11.661c0.196,0.989,0.088,2.069-0.054,3.084
			c-0.082,0.586-0.436,1.409-1.263,1.03c-0.647-0.296-1.518-0.492-1.367-1.714c0.58-4.7,0.312-9.393-0.376-14.19
			c-2.203,0-4.354,0.021-6.506-0.005c-3.437-0.042-6.875-0.079-10.31-0.199c-0.928-0.032-1.476,0.127-1.449,1.151
			c0.059,2.31,0.185,4.619,0.163,6.927c-0.017,1.782-0.166,3.568-0.362,5.341c-0.062,0.559-0.467,1.078-0.752,1.696
			c-1.042-0.9-1.39-2.008-1.362-3.175c0.05-2.154,0.293-4.305,0.343-6.459c0.041-1.727-0.084-3.457-0.139-5.292
			c-6.794,0-13.258,0-19.924,0c-0.15,1.824-0.402,3.56-0.411,5.296c-0.016,2.997,0.082,5.995,0.216,8.989
			c0.043,0.977-0.39,1.303-1.224,1.354c-0.954,0.059-1.868-0.059-2.344-1.027c-0.074-0.151,0.252-0.494,0.386-0.752
			c0.185-0.356,0.509-0.712,0.521-1.076c0.12-3.585,0.189-7.173,0.268-10.76c0.014-0.599,0.002-1.197,0.002-1.84
			c-6.923,0-13.816,0-20.906,0c-0.105,0.965-0.27,1.81-0.275,2.656c-0.021,2.717,0.084,5.437,0.008,8.151
			c-0.041,1.456-0.459,2.847-1.996,3.656c-0.95-1.321-1.058-2.842-1.024-4.326c0.063-2.835,0.277-5.665,0.422-8.498
			c0.02-0.389,0.003-0.78,0.003-1.357c-7.227,0-14.359,0-21.562,0c-0.411,5.228,0.726,10.589-0.381,15.996
			c-0.798-0.197-1.518-0.376-2.067-0.512c0-5.17,0-10.226,0-15.367c-5.75-0.931-11.646,0.385-17.803,0.02
			c-0.144,1.011-0.41,2.085-0.428,3.164c-0.058,3.478-0.021,6.957-0.027,10.436c-0.002,1.496-0.718,2.248-2.492,2.438
			c-0.073-2.195-0.11-4.38-0.228-6.561c-0.151-2.787-0.39-5.57-0.542-8.358c-0.046-0.847-0.528-1.173-1.221-1.106
			c-1.381,0.131-2.765,0.318-4.123,0.6c-1.729,0.357-2.457-0.111-2.648-1.898c-0.029-0.266,0.023-0.54,0.042-0.869
			c2.586-0.126,5.124-0.249,7.645-0.371c0.186-14.524,0.371-28.978,0.559-43.737c-1.39-0.026-2.798-0.055-4.206-0.082
			c-1.158-0.023-2.325,0.033-3.468-0.107c-0.471-0.057-0.891-0.535-1.334-0.822c0.358-0.49,0.633-1.282,1.091-1.408
			c0.968-0.266,2.034-0.257,3.056-0.227c1.194,0.037,2.383,0.219,3.576,0.334c0.857,0.083,1.206-0.271,1.202-1.168
			c-0.026-6.473,0.019-12.945-0.024-19.418c-0.046-6.916-0.171-13.832-0.247-20.748c-0.029-2.613-0.101-2.724-2.729-2.926
			c-1.035-0.079-2.081-0.037-3.114-0.132c-0.942-0.087-1.894-0.344-2.021-1.487c-0.079-0.708,1.161-1.465,2.262-1.344
			c1.065,0.116,2.115,0.391,3.167,0.616c0.992,0.212,1.567,0.111,1.798-1.152c1.167-6.373,1.198-12.802,1.123-19.237
			c-0.064-5.516-0.237-11.031-0.292-16.546c-0.01-0.968-0.425-1.316-1.235-1.324c-1.236-0.011-2.474,0.11-3.709,0.101
			c-3.8-0.029-3.901,0.191-4.097-3.839C20.356,61.432,20.409,60.154,20.409,58.705z M75.37,154.456c-7.277,0-14.411,0-21.628,0
			c0,14.281,0,28.455,0,42.359c6.974-0.177,14.029-0.356,21.178-0.539C75.856,182.361,75.589,168.42,75.37,154.456z M98.925,196.496
			c0-0.646-0.005-1.076,0.001-1.506c0.075-5.233,0.209-10.467,0.215-15.699c0.01-8.109-0.079-16.218-0.095-24.326
			c-0.002-0.971-0.377-1.197-1.292-1.151c-3.351,0.169-6.703,0.312-10.057,0.374c-3.264,0.061-6.53,0.014-9.849,0.014
			c0,0.862-0.003,1.689,0,2.517c0.056,12.905,0.123,25.812,0.149,38.718c0.002,1.016,0.335,1.281,1.312,1.253
			c3.753-0.105,7.508-0.15,11.263-0.188C93.286,196.475,96,196.496,98.925,196.496z M121.222,153.509
			c-0.558,0-0.988-0.007-1.42,0.001c-5.474,0.101-10.946,0.211-16.419,0.301c-1.815,0.03-1.825,0.006-1.842,1.814
			c-0.063,6.795-0.098,13.59-0.186,20.383c-0.062,4.715-0.209,9.428-0.289,14.143c-0.037,2.141-0.007,4.281-0.007,6.759
			c6.648-0.134,13.366-0.269,20.129-0.404C121.522,182.034,122.461,167.832,121.222,153.509z M76.686,104.646
			c0.696,0.038,1.37,0.102,2.044,0.105c6.075,0.035,12.149,0.07,18.225,0.054c0.323-0.001,0.898-0.43,0.927-0.703
			c0.197-1.936,0.33-3.881,0.39-5.826c0.064-2.112,0.05-4.228,0.028-6.341c-0.021-2.07-0.059-4.141-0.157-6.208
			c-0.097-2.023-0.378-4.042-0.408-6.065c-0.064-4.349-0.02-8.7-0.02-13.283c-6.943,0-14.017,0-21.028,0
			C76.686,79.106,76.686,91.804,76.686,104.646z M53.246,66.729c-0.124,6.004-0.303,11.749-0.344,17.496
			c-0.042,5.793,0.057,11.587,0.085,17.381c0.015,3.022,0.005,3.113,3.095,3.146c5.149,0.054,10.3-0.022,15.45-0.042
			c0.827-0.003,1.654,0,2.619,0c-0.101-12.826,0.943-25.453,0.208-37.98C67.293,66.729,60.354,66.729,53.246,66.729z
			 M50.686,107.697c-0.465-0.043-0.736-0.086-1.006-0.091c-5.236-0.084-10.472-0.167-15.708-0.245c-1.931-0.029-2,0.036-2.263,1.961
			c-0.032,0.237-0.041,0.479-0.04,0.718c0.002,3.155-0.059,6.312,0.026,9.466c0.284,10.427,0.621,20.854,0.944,31.279
			c0.005,0.184,0.085,0.364,0.11,0.468c5.975,0,11.87,0,17.936,0C50.686,136.72,50.686,122.23,50.686,107.697z M53.293,107.64
			c-0.861,14.664,0.478,29.148,0.487,43.905c7.061-0.142,14.056-0.281,21.21-0.424c-0.166-7.842-0.328-15.499-0.488-23.09
			c-4.523-1.093-6.763-3.528-7.038-7.441c-0.309-4.389,1.969-7.796,6.437-9.514c0-0.833-0.011-1.708,0.003-2.583
			c0.013-0.837-0.279-1.17-1.21-1.139c-4.314,0.142-8.63,0.212-12.946,0.28C57.638,107.668,55.526,107.64,53.293,107.64z
			 M51.159,197.029c0-14.297,0-28.344,0-42.693c-6.178-0.137-12.181-0.271-18.226-0.406c-0.046,0.219-0.117,0.408-0.122,0.6
			c-0.126,4.791-0.375,9.582-0.336,14.372c0.066,8.226,0.316,16.45,0.481,24.676c0.024,1.185,0.003,2.37,0.003,3.884
			C39.017,197.317,44.995,197.176,51.159,197.029z M120.462,66.42c-1.453,0-2.761,0.014-4.067-0.003
			c-4.833-0.063-9.666-0.127-14.498-0.214c-0.952-0.018-1.376,0.32-1.363,1.327c0.019,1.515-0.131,3.033-0.124,4.548
			c0.041,8.148,0.073,16.297,0.186,24.444c0.036,2.577,0.311,5.151,0.475,7.709c6.14,0,12.123-0.005,18.106,0.005
			c0.889,0.001,0.993-0.487,0.998-1.232c0.082-11.665,0.188-23.331,0.287-34.996C120.465,67.542,120.462,67.075,120.462,66.42z
			 M141.582,66.323c-0.667,0-1.185,0.003-1.701,0c-5.037-0.038-10.075-0.056-15.111-0.131c-1.085-0.016-1.464,0.346-1.48,1.449
			c-0.043,2.876-0.248,5.75-0.313,8.626c-0.184,8.113-0.332,16.228-0.487,24.342c-0.021,1.11-0.003,2.221-0.003,3.299
			c6.428,0,12.723,0,19.08,0C142.239,91.304,142.432,78.853,141.582,66.323z M50.57,66.774c-5.71-0.109-11.26-0.175-16.807-0.351
			c-1.246-0.04-1.604,0.406-1.616,1.539c-0.054,5.232-0.175,10.464-0.214,15.696C31.892,89.33,31.931,95,31.898,100.671
			c-0.007,1.216-0.174,2.431-0.271,3.708c6.406,0.757,12.649,0.33,18.944,0.175C50.57,91.942,50.57,79.45,50.57,66.774z
			 M141.818,106.429c-6.176,0-12.167,0.018-18.159-0.019c-0.946-0.006-1.251,0.317-1.246,1.232c0.041,7.277,0.043,14.554,0.1,21.83
			c0.002,0.316,0.354,0.829,0.643,0.915c3.379,1.005,5.203,3.412,6.073,6.661c1.09,4.07-0.395,8.074-3.656,9.919
			c-0.68,0.384-1.442,0.618-2.116,0.9c0.072,0.938,0.139,1.809,0.214,2.78c6.161,0.805,12.259-0.482,18.463-0.272
			C143.015,135.6,140.959,121.002,141.818,106.429z M76.821,111.337c4.684,1.616,6.769,4.389,6.715,8.886
			c-0.049,4.13-1.931,6.344-6.709,7.828c0.281,7.658,0.562,15.335,0.849,23.159c7.247,0,14.221,0,21.243,0
			c0.034-0.209,0.106-0.441,0.105-0.673c-0.026-4.435-0.069-8.868-0.084-13.302c-0.002-0.678-0.392-0.709-0.906-0.814
			c-3.794-0.772-6.859-4.209-7.272-8.102c-0.402-3.781,1.443-6.681,5.376-8.418c0.546-0.241,1.104-0.496,1.682-0.615
			c0.697-0.142,0.868-0.483,0.837-1.16c-0.114-2.473-0.162-4.95-0.251-7.425c-0.042-1.189-0.121-2.377-0.188-3.651
			c-0.644-0.041-1.154-0.108-1.663-0.099c-6.312,0.12-12.622,0.24-18.932,0.417c-0.275,0.008-0.732,0.552-0.764,0.879
			C76.758,109.275,76.821,110.317,76.821,111.337z M101.372,136.002c-0.036,0.367-0.078,0.562-0.071,0.756
			c0.157,4.512,0.333,9.023,0.467,13.535c0.023,0.775,0.431,0.943,1.06,0.953c2.158,0.031,4.319,0.15,6.474,0.074
			c4.021-0.143,8.037-0.398,12.195-0.615c-0.133-1.095-0.24-1.982-0.346-2.857c-0.641-0.102-1.198-0.141-1.729-0.281
			c-3.405-0.902-5.014-3.346-5.542-6.635c-0.757-4.716,1.71-9.779,5.921-10.572c0.235-0.045,0.549-0.555,0.548-0.846
			c-0.012-3.316-0.073-6.633-0.129-9.949c-0.069-4.036-0.171-8.072-0.203-12.108c-0.008-1.002-0.344-1.345-1.341-1.223
			c-1.029,0.125-2.073,0.151-3.111,0.164c-3.838,0.047-7.679-0.006-11.513,0.125c-3.667,0.125-3.946,0.502-3.659,4.227
			c0.179,2.306,0.558,4.601,0.642,6.908c0.043,1.199,0.385,1.775,1.524,2.23c3.147,1.255,5.507,3.364,6.425,6.773
			c0.095,0.355,0.124,0.798-0.002,1.129c-0.482,1.266-1.05,2.5-1.569,3.752C106.309,134.203,104.664,136.15,101.372,136.002z
			 M141.694,188.956c-0.318-0.046-0.627-0.114-0.938-0.134c-2.828-0.168-4.76-1.643-5.664-4.251
			c-1.567-4.524-0.809-8.733,2.18-12.487c1.332-1.673,3.178-2.471,5.371-2.662c-0.171-5.535-0.338-10.943-0.512-16.571
			c-6.314,0.3-12.397,0.59-18.187,0.865c-0.213,14.359-0.422,28.478-0.629,42.475c2.764,0,5.561,0.058,8.354-0.016
			c3.151-0.081,6.299-0.312,9.449-0.408c0.976-0.03,1.139-0.545,1.075-1.305C142.044,192.675,141.871,190.891,141.694,188.956z"/>
		<path style="fill-rule:evenodd;clip-rule:evenodd;" d="M90.884,27.868c-0.312,0.437-0.555,1.066-1.004,1.307
			c-0.335,0.181-1.105,0.023-1.392-0.268c-0.736-0.751-1.527-1.574-1.904-2.524c-0.697-1.752-1.763-2.417-3.636-2.171
			c-1.773,0.232-3.579,0.229-5.371,0.306c-0.784,0.034-1.211,0.369-1.419,1.161c-0.302,1.15-0.701,2.278-1.117,3.393
			c-0.237,0.636-0.703,1.209-1.449,0.833c-0.698-0.352-1.525-0.679-1.35-1.826c0.508-3.322,1.953-6.301,3.282-9.326
			c1.175-2.673,2.185-5.384,2.412-8.337c0.087-1.136,1.062-1.579,1.922-0.818c0.851,0.754,1.646,1.645,2.228,2.618
			c2.046,3.421,3.978,6.911,5.979,10.36c0.699,1.207,1.5,2.354,2.196,3.563C90.531,26.608,90.64,27.169,90.884,27.868z
			 M79.833,15.626c-0.677,2.035-1.227,3.689-1.837,5.524c1.803-0.172,3.298-0.315,5.116-0.489
			C81.899,18.799,80.941,17.328,79.833,15.626z"/>
		<path style="fill-rule:evenodd;clip-rule:evenodd;" d="M98.854,20.705c-1.805-0.177-3.426-0.32-5.043-0.501
			c-1.023-0.114-1.601-0.833-1.564-1.867c0.026-0.743,0.324-1.208,1.153-1.199c1.358,0.015,2.721-0.062,4.073,0.027
			c0.813,0.054,1.096-0.239,1.102-0.979c0.004-0.439,0.033-0.878,0.033-1.318c0.005-2.598,0.003-2.584-2.672-2.633
			c-1.595-0.029-3.194-0.055-4.783-0.181c-2.024-0.161-2.363-0.64-2.083-2.97c1.573,0,3.191-0.011,4.809,0.002
			c2.076,0.018,4.153,0.086,6.23,0.07c1.089-0.009,1.681,0.519,1.771,1.52c0.123,1.384,0.139,2.779,0.16,4.169
			c0.01,0.589-0.082,1.18-0.13,1.789c0.768,0.219,1.461,0.382,2.13,0.616c0.988,0.345,1.558,0.856,1.289,2.118
			c-0.235,1.109-0.811,1.476-1.741,1.248c-1.106-0.27-1.54,0.257-1.586,1.167c-0.095,1.906-0.2,3.826-0.069,5.723
			c0.085,1.235-0.63,1.54-1.469,1.788c-0.973,0.288-1.334-0.419-1.612-1.183c-0.714-1.954-0.433-3.936-0.188-5.918
			C98.715,21.764,98.772,21.335,98.854,20.705z"/>
		<path style="fill-rule:evenodd;clip-rule:evenodd;" d="M103.708,44.214c-0.623-0.353-1.281-0.565-1.716-1
			c-1.722-1.726-4.09-1.795-5.819-0.045c-1.472,1.488-1.705,3.36-1.536,5.333c0.01,0.119,0.047,0.235,0.079,0.351
			c0.287,1.025,0.021,2.463,1.289,2.849c1.922,0.584,3.961,0.814,5.72-0.53c0.507-0.388,0.751-1.119,1.115-1.692
			c-0.084-0.133-0.167-0.267-0.251-0.4c-0.873,0.1-1.751,0.171-2.62,0.304c-2.052,0.313-2.05,0.325-2.525-2.038
			c1.229-0.291,2.473-0.604,3.726-0.87c0.384-0.082,0.796-0.041,1.195-0.042c3.155-0.014,3.704,0.495,3.936,3.662
			c0.128,1.75,0.243,3.502,0.375,5.424c-0.732,0.149-1.524,0.31-2.41,0.489c-0.245-0.808-0.461-1.519-0.691-2.28
			c-2.239,1.116-4.498,1.304-6.772,0.126c-3.281-1.699-5.254-5.905-4.408-9.404c0.956-3.958,5.589-6.227,9.3-4.553
			C103.432,40.679,104.182,42.14,103.708,44.214z"/>
		<path style="fill-rule:evenodd;clip-rule:evenodd;" d="M74.013,54.628c-0.24-0.013-0.898,0.131-1.331-0.118
			c-0.516-0.297-1.261-1.021-1.179-1.403c0.589-2.748-0.103-5.409-0.305-8.103c-0.077-1.023-0.089-2.083,0.088-3.088
			c0.406-2.302,1.791-3.3,4.054-2.848c3.425,0.686,6.388,2.301,8.646,5.002c2.182,2.61,1.938,5.077-0.587,7.367
			C81.224,53.41,77.773,54.625,74.013,54.628z M73.408,42.104c0.252,3.223,0.472,6.233,0.751,9.238
			c0.024,0.259,0.526,0.73,0.665,0.684c1.982-0.67,4.091-1.155,5.862-2.204c2.074-1.228,1.974-4.1,0.045-5.605
			C78.695,42.628,76.298,42.188,73.408,42.104z"/>
		<path style="fill-rule:evenodd;clip-rule:evenodd;" d="M35.585,50.762c0.07,0.339,0.09,0.379,0.084,0.415
			c-0.351,2.171-0.387,2.299-2.539,2.4c-2.299,0.108-4.607,0.024-6.984,0.024c-0.478-4.512-0.936-8.948-1.425-13.381
			c-0.116-1.055,0.255-1.568,1.321-1.828c2.836-0.69,5.644-0.841,8.64-0.008c-0.313,0.986-0.599,1.882-0.865,2.722
			c-1.824,0.1-3.606,0.184-5.387,0.302c-0.699,0.047-1.474,0.16-1.238,1.154c0.181,0.763,0.223,1.672,1.572,1.334
			c1.604-0.401,2.494,0.302,2.715,1.684c0.144,0.9-0.233,1.244-1.047,1.348c-0.904,0.116-1.804,0.266-2.792,0.415
			c0.184,1.148,0.357,2.228,0.548,3.418C30.64,50.762,33.124,50.762,35.585,50.762z"/>
		<path style="fill-rule:evenodd;clip-rule:evenodd;" d="M46.895,54.702c-1.608-0.498-2.026-1.229-1.447-2.373
			c2.121-4.192,4.256-8.375,6.43-12.54c0.206-0.395,0.716-0.63,1.084-0.94c0.125,0.469,0.248,0.938,0.375,1.407
			c0.049,0.181,0.08,0.374,0.165,0.537c1.064,2.048,2.127,4.096,3.212,6.133c0.337,0.631,0.786,1.206,1.099,1.847
			c0.298,0.61,0.454,1.288,0.731,1.91c0.303,0.682,0.604,1.383,1.031,1.987c0.689,0.976,0.115,1.542-0.557,2.09
			c-0.727,0.593-1.419,0.312-1.849-0.341c-0.655-0.993-1.213-2.056-1.729-3.13c-0.352-0.732-0.662-1.113-1.608-0.831
			c-1.056,0.315-2.195,0.356-3.301,0.5C48.384,51.236,46.946,52.243,46.895,54.702z M50.152,48.635
			c1.543-0.136,2.706-0.238,3.984-0.351c-0.457-1.213-0.727-2.131-1.16-2.964c-0.134-0.258-1.01-0.448-1.037-0.397
			C51.356,46.018,50.845,47.151,50.152,48.635z"/>
		<path style="fill-rule:evenodd;clip-rule:evenodd;" d="M141.389,52.162c2.792,0.527,5.796-0.855,8.592,1.141
			c-3.395,2.282-6.928,1.273-10.586,1.324c-0.322-4.884-0.639-9.683-0.955-14.472c2.564-0.288,5-0.637,7.448-0.809
			c1.804-0.127,2.805,0.757,2.7,2.238c-0.025,0.363-0.503,0.965-0.813,0.993c-1.538,0.136-3.091,0.122-4.639,0.149
			c-0.784,0.014-1.569,0.002-2.527,0.002c0.204,1.241,0.394,2.396,0.611,3.714c1.077-0.083,2.172-0.198,3.27-0.242
			c0.981-0.039,1.433,0.732,1.415,2.221c-0.012,0.988-0.696,0.915-1.342,0.895c-0.676-0.021-1.357-0.157-2.026-0.107
			c-1.452,0.109-1.71,0.494-1.42,1.925C141.186,51.48,141.297,51.818,141.389,52.162z"/>
		<path style="fill-rule:evenodd;clip-rule:evenodd;" d="M115.687,38.897c0.956,0.337,1.832,0.646,2.718,0.958
			c0,1.942,0,3.836,0,5.902c1.802,0,3.569,0,5.678,0c0-2.103,0-4.166,0-6.463c1.85,0.758,2.468,1.992,2.601,3.413
			c0.178,1.902,0.138,3.823,0.224,5.735c0.062,1.387,0.234,2.772,0.245,4.159c0.006,0.712-0.174,1.445-0.398,2.127
			c-0.063,0.193-0.604,0.382-0.877,0.327c-0.899-0.18-1.521-0.736-1.554-1.708c-0.037-1.075,0.011-2.152,0.018-3.229
			c0.005-0.709,0.001-1.418,0.001-2.221c-1.722,0.177-3.338,0.307-4.938,0.544c-0.245,0.036-0.554,0.549-0.596,0.872
			c-0.122,0.945-0.114,1.906-0.176,2.86c-0.109,1.718-0.2,1.791-2.087,1.621C116.266,48.945,115.984,44.068,115.687,38.897z"/>
		<path style="fill-rule:evenodd;clip-rule:evenodd;fill:none;" d="M75.37,154.456c0.219,13.964,0.486,27.905-0.45,41.82
			c-7.149,0.183-14.205,0.362-21.178,0.539c0-13.904,0-28.078,0-42.359C60.959,154.456,68.093,154.456,75.37,154.456z"/>
		<path style="fill-rule:evenodd;clip-rule:evenodd;fill:none;" d="M98.925,196.496c-2.925,0-5.639-0.021-8.352,0.005
			c-3.755,0.037-7.51,0.082-11.263,0.188c-0.977,0.028-1.31-0.237-1.312-1.253c-0.026-12.906-0.094-25.812-0.149-38.718
			c-0.003-0.827,0-1.654,0-2.517c3.319,0,6.585,0.047,9.849-0.014c3.354-0.062,6.706-0.205,10.057-0.374
			c0.915-0.046,1.29,0.181,1.292,1.151c0.016,8.108,0.104,16.217,0.095,24.326c-0.006,5.232-0.14,10.466-0.215,15.699
			C98.92,195.42,98.925,195.851,98.925,196.496z"/>
		<path style="fill-rule:evenodd;clip-rule:evenodd;fill:none;" d="M121.222,153.509c1.239,14.323,0.301,28.525-0.033,42.996
			c-6.763,0.136-13.48,0.271-20.129,0.404c0-2.478-0.03-4.618,0.007-6.759c0.08-4.715,0.228-9.428,0.289-14.143
			c0.088-6.793,0.122-13.588,0.186-20.383c0.017-1.809,0.026-1.784,1.842-1.814c5.473-0.09,10.945-0.2,16.419-0.301
			C120.233,153.502,120.664,153.509,121.222,153.509z"/>
		<path style="fill-rule:evenodd;clip-rule:evenodd;fill:none;" d="M76.686,104.646c0-12.843,0-25.541,0-38.266
			c7.012,0,14.085,0,21.028,0c0,4.583-0.045,8.934,0.02,13.283c0.03,2.023,0.312,4.042,0.408,6.065
			c0.099,2.067,0.136,4.138,0.157,6.208c0.021,2.113,0.036,4.229-0.028,6.341c-0.06,1.945-0.192,3.89-0.39,5.826
			c-0.028,0.273-0.604,0.702-0.927,0.703c-6.075,0.016-12.149-0.02-18.225-0.054C78.056,104.748,77.382,104.684,76.686,104.646z"/>
		<path style="fill-rule:evenodd;clip-rule:evenodd;fill:none;" d="M53.246,66.729c7.107,0,14.047,0,21.113,0
			c0.735,12.527-0.309,25.154-0.208,37.98c-0.965,0-1.792-0.003-2.619,0c-5.15,0.02-10.301,0.096-15.45,0.042
			c-3.09-0.033-3.08-0.124-3.095-3.146c-0.028-5.794-0.127-11.588-0.085-17.381C52.943,78.478,53.122,72.732,53.246,66.729z"/>
		<path style="fill-rule:evenodd;clip-rule:evenodd;fill:none;" d="M50.686,107.697c0,14.533,0,29.022,0,43.558
			c-6.066,0-11.961,0-17.936,0c-0.025-0.104-0.105-0.284-0.11-0.468c-0.323-10.426-0.66-20.853-0.944-31.279
			c-0.085-3.154-0.024-6.311-0.026-9.466c0-0.24,0.008-0.481,0.04-0.718c0.263-1.926,0.332-1.99,2.263-1.961
			c5.236,0.078,10.472,0.16,15.708,0.245C49.95,107.611,50.22,107.654,50.686,107.697z"/>
		<path style="fill-rule:evenodd;clip-rule:evenodd;fill:none;" d="M53.293,107.64c2.233,0,4.345,0.028,6.456-0.006
			c4.316-0.068,8.632-0.139,12.946-0.28c0.931-0.031,1.223,0.302,1.21,1.139c-0.014,0.875-0.003,1.749-0.003,2.583
			c-4.468,1.718-6.746,5.125-6.437,9.514c0.275,3.913,2.515,6.349,7.038,7.441c0.16,7.591,0.322,15.248,0.488,23.09
			c-7.154,0.143-14.149,0.282-21.21,0.424C53.771,136.788,52.432,122.304,53.293,107.64z M62.572,124.564
			c1.734-4.353,0.87-10.821-1.477-12.729c-1.196,1.007-2.37,1.996-3.543,2.985c-1.023,0.861-1.751,1.842-1.287,3.606
			c1.496-0.564,2.936-1.107,4.44-1.674C61.353,119.35,60.207,122.308,62.572,124.564z"/>
		<path style="fill-rule:evenodd;clip-rule:evenodd;fill:none;" d="M51.159,197.029c-6.164,0.146-12.142,0.288-18.199,0.432
			c0-1.514,0.021-2.699-0.003-3.884c-0.165-8.226-0.415-16.45-0.481-24.676c-0.039-4.79,0.21-9.581,0.336-14.372
			c0.005-0.191,0.075-0.381,0.122-0.6c6.045,0.135,12.048,0.27,18.226,0.406C51.159,168.686,51.159,182.732,51.159,197.029z"/>
		<path style="fill-rule:evenodd;clip-rule:evenodd;fill:none;" d="M120.462,66.42c0,0.654,0.003,1.121-0.001,1.587
			c-0.1,11.666-0.205,23.331-0.287,34.996c-0.005,0.745-0.109,1.234-0.998,1.232c-5.983-0.011-11.967-0.005-18.106-0.005
			c-0.164-2.558-0.438-5.132-0.475-7.709c-0.112-8.147-0.145-16.295-0.186-24.444c-0.007-1.516,0.143-3.033,0.124-4.548
			c-0.013-1.006,0.411-1.344,1.363-1.327c4.832,0.087,9.665,0.151,14.498,0.214C117.701,66.435,119.009,66.42,120.462,66.42z"/>
		<path style="fill-rule:evenodd;clip-rule:evenodd;fill:none;" d="M141.582,66.323c0.85,12.529,0.657,24.981-0.017,37.584
			c-6.357,0-12.652,0-19.08,0c0-1.078-0.019-2.189,0.003-3.299c0.155-8.114,0.304-16.229,0.487-24.342
			c0.065-2.876,0.271-5.75,0.313-8.626c0.017-1.103,0.396-1.465,1.48-1.449c5.036,0.076,10.074,0.094,15.111,0.131
			C140.397,66.327,140.915,66.323,141.582,66.323z"/>
		<path style="fill-rule:evenodd;clip-rule:evenodd;fill:none;" d="M50.57,66.774c0,12.676,0,25.168,0,37.78
			c-6.295,0.155-12.538,0.582-18.944-0.175c0.098-1.277,0.264-2.492,0.271-3.708C31.931,95,31.892,89.33,31.934,83.659
			c0.039-5.232,0.16-10.464,0.214-15.696c0.012-1.133,0.37-1.579,1.616-1.539C39.31,66.599,44.86,66.665,50.57,66.774z"/>
		<path style="fill-rule:evenodd;clip-rule:evenodd;fill:none;" d="M141.818,106.429c-0.859,14.573,1.196,29.17,0.314,43.947
			c-6.204-0.21-12.302,1.077-18.463,0.272c-0.075-0.972-0.142-1.842-0.214-2.78c0.674-0.282,1.437-0.517,2.116-0.9
			c3.262-1.845,4.746-5.849,3.656-9.919c-0.87-3.249-2.694-5.656-6.073-6.661c-0.289-0.086-0.641-0.599-0.643-0.915
			c-0.057-7.276-0.059-14.553-0.1-21.83c-0.005-0.915,0.3-1.238,1.246-1.232C129.651,106.447,135.643,106.429,141.818,106.429z
			 M129.103,121.869c0.287,0.619,0.489,1.285,0.883,1.806c0.198,0.261,0.868,0.473,1.116,0.334c1.072-0.598,1.768-0.166,2.32,0.692
			c0.557,0.865,0.328,1.688-0.351,2.387c-1.046,1.078-2.519,1.059-3.603-0.021c-0.6-0.6-1.197-1.2-1.836-1.841
			c-1.087,1.892-0.905,2.709,0.746,3.575c0.697,0.365,1.458,0.705,2.226,0.827c3.823,0.606,5.64-1.388,4.751-5.134
			c-0.171-0.718-0.649-1.357-0.92-2.06c-0.108-0.28-0.154-0.688-0.029-0.937c0.969-1.935,0.793-3.514-0.622-5.027
			c-1.487-1.591-3.63-2.104-5.451-1.303c-1.202,0.528-1.508,1.388-0.863,2.729c0.578,1.204,1.315,0.21,1.983,0.063
			c0.112-0.025,0.207-0.119,0.314-0.172c1.35-0.664,2.648-0.362,3.089,0.716c0.477,1.166-0.238,2.646-1.565,3.053
			C130.627,121.761,129.901,121.764,129.103,121.869z"/>
		<path style="fill-rule:evenodd;clip-rule:evenodd;fill:none;" d="M76.821,111.337c0-1.02-0.063-2.062,0.037-3.088
			c0.032-0.327,0.489-0.872,0.764-0.879c6.31-0.178,12.621-0.298,18.932-0.417c0.509-0.01,1.02,0.058,1.663,0.099
			c0.067,1.273,0.146,2.461,0.188,3.651c0.089,2.475,0.137,4.952,0.251,7.425c0.031,0.677-0.14,1.019-0.837,1.16
			c-0.578,0.119-1.136,0.374-1.682,0.615c-3.933,1.737-5.778,4.637-5.376,8.418c0.413,3.893,3.479,7.329,7.272,8.102
			c0.515,0.105,0.904,0.137,0.906,0.814c0.015,4.434,0.058,8.867,0.084,13.302c0.001,0.231-0.071,0.464-0.105,0.673
			c-7.021,0-13.996,0-21.243,0c-0.287-7.824-0.568-15.501-0.849-23.159c4.778-1.484,6.66-3.698,6.709-7.828
			C83.59,115.726,81.504,112.953,76.821,111.337z M88.838,142.803c1.368-2.709,1.579-3.542,1.426-5.533
			c-0.146-1.904-1.062-3.29-2.41-3.649c-1.607-0.429-3.649,0.394-4.614,1.857c-0.755,1.146-0.622,2.345,0.457,3.411
			c0.37-0.475,0.687-0.987,1.11-1.385c0.283-0.265,0.758-0.564,1.081-0.504c1.35,0.255,2.107,1.826,1.368,2.977
			c-0.548,0.854-1.317,1.6-2.104,2.255c-0.875,0.729-1.88,1.301-3.016,2.067c3.292,2.359,6.557,0.52,9.836,0.576
			C91.546,143.022,90.124,143.1,88.838,142.803z"/>
		<path style="fill-rule:evenodd;clip-rule:evenodd;fill:none;" d="M101.372,136.002c3.292,0.148,4.937-1.799,6.04-4.459
			c0.52-1.252,1.087-2.486,1.569-3.752c0.126-0.331,0.097-0.773,0.002-1.129c-0.918-3.409-3.277-5.519-6.425-6.773
			c-1.14-0.455-1.481-1.031-1.524-2.23c-0.084-2.308-0.463-4.603-0.642-6.908c-0.287-3.725-0.008-4.102,3.659-4.227
			c3.834-0.131,7.675-0.079,11.513-0.125c1.038-0.013,2.082-0.039,3.111-0.164c0.997-0.122,1.333,0.221,1.341,1.223
			c0.032,4.036,0.134,8.072,0.203,12.108c0.056,3.316,0.117,6.633,0.129,9.949c0.001,0.291-0.312,0.801-0.548,0.846
			c-4.211,0.793-6.678,5.856-5.921,10.572c0.528,3.289,2.137,5.732,5.542,6.635c0.53,0.141,1.088,0.18,1.729,0.281
			c0.105,0.875,0.213,1.763,0.346,2.857c-4.158,0.217-8.175,0.473-12.195,0.615c-2.154,0.076-4.315-0.043-6.474-0.074
			c-0.629-0.01-1.036-0.178-1.06-0.953c-0.134-4.512-0.31-9.023-0.467-13.535C101.294,136.564,101.336,136.369,101.372,136.002z"/>
		<path style="fill-rule:evenodd;clip-rule:evenodd;fill:none;" d="M141.694,188.956c0.177,1.935,0.35,3.719,0.5,5.506
			c0.063,0.76-0.1,1.274-1.075,1.305c-3.15,0.097-6.298,0.327-9.449,0.408c-2.794,0.073-5.591,0.016-8.354,0.016
			c0.207-13.997,0.416-28.115,0.629-42.475c5.789-0.275,11.872-0.565,18.187-0.865c0.174,5.628,0.341,11.036,0.512,16.571
			c-2.193,0.191-4.039,0.989-5.371,2.662c-2.988,3.754-3.747,7.963-2.18,12.487c0.904,2.608,2.836,4.083,5.664,4.251
			C141.067,188.842,141.376,188.91,141.694,188.956z M129.222,165.216c-0.403-2.338,0.577-4.897-1.466-6.998
			c-0.631,2.9-0.816,5.588,0.135,8.281c0.31,0.877,0.794,1.304,1.75,1.251c0.614-0.034,1.236,0.076,1.681,0.109
			c0.236,1.47,0.376,2.773,0.695,4.03c0.088,0.347,0.711,0.558,1.089,0.831c0.219-0.389,0.6-0.766,0.625-1.166
			c0.082-1.266,0.03-2.539,0.03-3.788c2.873-0.347,2.913-0.348,2.877-1.625c-0.067-2.394-2.019-1.194-3.036-1.537
			c-0.742-1.339,0.312-3.107-1.243-4.129c-0.417,0.315-0.811,0.611-1.188,0.896c0.094,1.176,0.188,2.35,0.281,3.53
			C130.605,165.021,129.948,165.113,129.222,165.216z"/>
		<path style="fill-rule:evenodd;clip-rule:evenodd;fill:none;" d="M75.833,17.626c1.108,1.702,2.066,3.173,3.279,5.035
			c-1.818,0.174-3.312,0.317-5.116,0.489C74.606,21.315,75.156,19.661,75.833,17.626z"/>
		<path style="fill-rule:evenodd;clip-rule:evenodd;fill:none;" d="M73.408,42.104c2.89,0.084,5.287,0.525,7.322,2.113
			c1.929,1.506,2.029,4.377-0.045,5.605c-1.771,1.048-3.88,1.534-5.862,2.204c-0.138,0.047-0.641-0.424-0.665-0.684
			C73.88,48.337,73.66,45.326,73.408,42.104z"/>
		<path style="fill-rule:evenodd;clip-rule:evenodd;fill:none;" d="M50.152,48.635c0.692-1.484,1.204-2.617,1.788-3.712
			c0.027-0.051,0.903,0.139,1.037,0.397c0.433,0.833,0.703,1.751,1.16,2.964C52.858,48.397,51.695,48.5,50.152,48.635z"/>
		<path style="fill-rule:evenodd;clip-rule:evenodd;" d="M62.572,124.564c-2.366-2.257-1.219-5.215-1.867-7.812
			c-1.504,0.567-2.944,1.11-4.44,1.674c-0.464-1.764,0.264-2.745,1.287-3.606c1.174-0.989,2.348-1.978,3.543-2.985
			C63.442,113.744,64.306,120.212,62.572,124.564z"/>
		<path style="fill-rule:evenodd;clip-rule:evenodd;" d="M129.103,121.869c0.799-0.105,1.524-0.108,2.188-0.312
			c1.327-0.406,2.042-1.887,1.565-3.053c-0.44-1.078-1.739-1.379-3.089-0.716c-0.107,0.053-0.202,0.147-0.314,0.172
			c-0.668,0.147-1.405,1.141-1.983-0.063c-0.645-1.342-0.339-2.202,0.863-2.729c1.821-0.8,3.964-0.288,5.451,1.303
			c1.415,1.514,1.591,3.093,0.622,5.027c-0.125,0.249-0.079,0.656,0.029,0.937c0.271,0.702,0.749,1.342,0.92,2.06
			c0.889,3.746-0.928,5.74-4.751,5.134c-0.768-0.122-1.528-0.462-2.226-0.827c-1.651-0.866-1.833-1.684-0.746-3.575
			c0.639,0.641,1.236,1.241,1.836,1.841c1.084,1.08,2.557,1.1,3.603,0.021c0.679-0.699,0.907-1.521,0.351-2.387
			c-0.553-0.858-1.248-1.29-2.32-0.692c-0.248,0.139-0.918-0.073-1.116-0.334C129.592,123.154,129.39,122.488,129.103,121.869z"/>
		<path style="fill-rule:evenodd;clip-rule:evenodd;" d="M88.838,142.803c1.286,0.297,2.708,0.22,3.135,2.072
			c-3.279-0.057-6.544,1.783-9.836-0.576c1.136-0.767,2.141-1.338,3.016-2.067c0.786-0.655,1.556-1.401,2.104-2.255
			c0.739-1.15-0.019-2.722-1.368-2.977c-0.323-0.061-0.798,0.239-1.081,0.504c-0.424,0.397-0.74,0.91-1.11,1.385
			c-1.079-1.066-1.212-2.266-0.457-3.411c0.965-1.464,3.007-2.286,4.614-1.857c1.348,0.359,2.264,1.745,2.41,3.649
			C90.417,139.261,90.206,140.094,88.838,142.803z"/>
		<path style="fill-rule:evenodd;clip-rule:evenodd;" d="M129.222,165.216c0.727-0.103,1.384-0.195,2.23-0.314
			c-0.094-1.181-0.188-2.354-0.281-3.53c0.377-0.284,0.771-0.58,1.188-0.896c1.556,1.021,0.501,2.79,1.243,4.129
			c1.018,0.343,2.969-0.856,3.036,1.537c0.036,1.277-0.004,1.278-2.877,1.625c0,1.249,0.052,2.522-0.03,3.788
			c-0.025,0.4-0.406,0.777-0.625,1.166c-0.378-0.273-1.001-0.484-1.089-0.831c-0.319-1.257-0.459-2.561-0.695-4.03
			c-0.444-0.033-1.066-0.144-1.681-0.109c-0.956,0.053-1.44-0.374-1.75-1.251c-0.951-2.693-0.766-5.381-0.135-8.281
			C129.799,160.318,128.818,162.878,129.222,165.216z"/>
	</g>
</g>
<g id="Layer_1">
</g>
</svg>
