<?xml version="1.0" encoding="iso-8859-1"?>
<!-- Generator: Adobe Illustrator 16.0.0, SVG Export Plug-In . SVG Version: 6.00 Build 0)  -->
<!DOCTYPE svg PUBLIC "-//W3C//DTD SVG 1.1//EN" "http://www.w3.org/Graphics/SVG/1.1/DTD/svg11.dtd">
<svg version="1.1" xmlns="http://www.w3.org/2000/svg" xmlns:xlink="http://www.w3.org/1999/xlink" x="0px" y="0px"
	 width="176.484px" height="232.231px" viewBox="0 0 176.484 232.231" style="enable-background:new 0 0 176.484 232.231;"
	 xml:space="preserve">
<g id="Am7">
	<g id="Am7_1_">
		<path style="fill:none;" d="M176.484,232.231c-58.828,0-117.656,0-176.484,0C0,152.135,0,72.039,0-8.057
			c58.828,0,117.656,0,176.484,0C176.484,72.039,176.484,152.135,176.484,232.231z M30.9,66.751
			c0.185,6.89,0.422,13.74,0.536,20.591c0.074,4.453-0.25,8.894-0.88,13.306c-0.201,1.408-0.479,2.804-0.74,4.307
			c-0.818-0.11-1.489-0.176-2.15-0.295c-0.904-0.163-1.794-0.421-2.703-0.538c-1.136-0.146-1.999,0.359-2.099,1.118
			c-0.091,0.692,0.514,1.363,1.66,1.583c0.934,0.178,1.907,0.152,2.861,0.229c1.062,0.085,2.122,0.185,3.183,0.278
			c0.244,14.752,1.257,29.322,0.289,44.09c-1.47-0.072-2.822-0.176-4.174-0.194c-1.19-0.017-2.399-0.042-3.563,0.153
			c-0.464,0.077-0.831,0.737-1.242,1.133c0.438,0.369,0.826,0.86,1.331,1.074c0.489,0.207,1.102,0.186,1.656,0.164
			c1.48-0.057,2.958-0.23,4.438-0.239c1.575-0.009,1.824,0.28,1.799,1.803c-0.072,4.451-0.164,8.902-0.244,13.353
			c-0.054,3.009-0.13,6.017-0.147,9.024c-0.026,4.531-0.011,9.062-0.013,13.594c0,2.114,0,4.228,0,6.47
			c-2.634,0.235-5.38-0.086-8.19,0.711c0.337,0.965,0.645,1.842,0.951,2.721c0.38-0.04,0.621-0.045,0.853-0.093
			c1.331-0.278,2.647-0.665,3.991-0.83c2.125-0.262,2.649,0.244,2.744,2.34c0.007,0.161,0.007,0.321,0.014,0.481
			c0.167,3.967,0.331,7.933,0.506,11.899c0.016,0.369,0.103,0.736,0.157,1.104c0.113,0.046,0.226,0.092,0.339,0.138
			c0.507-0.523,1.175-0.97,1.482-1.592c0.376-0.764,0.631-1.677,0.624-2.522c-0.023-2.563-0.219-5.124-0.308-7.688
			c-0.05-1.428-0.066-2.866,0.638-4.131c5.978-0.13,11.862-0.258,17.905-0.389c0,0.573,0.004,1.004,0,1.434
			c-0.049,4.37-0.105,8.74-0.135,13.11c-0.002,0.358,0.067,0.893,0.298,1.041c0.473,0.302,1.079,0.397,1.803,0.635
			c0.108-0.934,0.262-1.675,0.268-2.417c0.026-3.451-0.009-6.901,0.023-10.352c0.01-1.105,0.159-2.208,0.256-3.465
			c7.295,0,14.447,0,21.717,0c0,1.201,0.031,2.399-0.006,3.595c-0.077,2.444-0.226,4.887-0.274,7.331
			c-0.022,1.114,0.156,2.222,0.954,3.21c1.381-0.716,1.823-1.979,1.871-3.295c0.077-2.118-0.02-4.245-0.123-6.365
			c-0.077-1.566-0.09-3.102,0.497-4.556c1.283,0,2.481,0.016,3.678-0.002c4.973-0.074,9.946-0.168,14.919-0.229
			c0.822-0.01,1.647,0.107,2.395,0.161c-0.129,2.179-0.326,4.216-0.352,6.255c-0.033,2.61-0.084,5.209-0.684,7.767
			c-0.053,0.223-0.068,0.498,0.018,0.7c0.234,0.551,1.418,0.857,2.29,0.66c0.771-0.175,1.085-0.538,1.036-1.418
			c-0.154-2.802-0.272-5.61-0.244-8.415c0.02-1.827,0.318-3.651,0.496-5.509c3.408-0.575,6.688-0.108,9.961-0.102
			c3.266,0.007,6.529,0.001,9.674,0.001c0.16,1.383,0.285,2.775,0.494,4.155c0.264,1.758,0.355,3.488-0.086,5.245
			c-0.24,0.96-0.314,1.976-0.346,2.97c-0.031,0.984,0.447,1.74,1.426,2.248c0.906-1.206,1.215-2.561,1.191-3.966
			c-0.041-2.444-0.217-4.887-0.273-7.331c-0.027-1.174-0.143-2.385,0.326-3.327c6.152,0,12.148,0,18.332,0c0,5.186,0,10.18,0,15.173
			c0.256,0.156,0.488,0.312,0.734,0.446c1.008,0.551,1.295,0.491,1.465-0.616c0.191-1.255,0.25-2.544,0.221-3.815
			c-0.055-2.564-0.266-5.126-0.295-7.69c-0.012-1.132,0.262-2.268,0.408-3.423c3.352,0.095,6.502,0.185,9.758,0.276
			c-0.092-0.516-0.115-0.834-0.205-1.135c-0.736-2.473-0.273-2.316-3.086-2.538c-1.99-0.156-3.98-0.308-5.932-0.458
			c-0.439-2.166-0.229-40.608,0.238-43.476c0.592,0,1.225-0.059,1.84,0.013c1.072,0.125,2.131,0.381,3.205,0.482
			c0.619,0.059,1.277,0.004,1.883-0.146c0.623-0.154,0.805-0.709,0.801-1.327s-0.309-1.044-0.891-1.101
			c-0.945-0.092-1.906-0.133-2.855-0.078c-1.389,0.08-2.77,0.264-4.111,0.398c-1.102-3.342-0.668-41.862,0.48-44.874
			c0.723,0.055,1.477,0.114,2.23,0.167c1.789,0.126,3.57,0.619,5.375,0.124c0.674-0.185,1.277-0.432,1.555-1.299
			c-0.562-0.281-1.064-0.707-1.613-0.776c-1.816-0.231-3.646-0.362-5.477-0.477c-0.979-0.062-1.965-0.011-3.102-0.011
			c0.303-12.69,0.068-25.254,0.299-37.881c3.826,0.104,7.422-0.775,10.961,0.25c1.084-2.426,0.984-5.133-0.293-7.96
			c-0.424,0-0.898-0.002-1.371,0c-10.311,0.049-20.621,0.099-30.932,0.15c-4.012,0.02-8.023,0.028-12.035,0.067
			c-3.852,0.038-7.701,0.095-11.551,0.168c-9.142,0.175-18.283,0.451-27.425,0.522c-8.182,0.064-16.365-0.108-24.548-0.142
			c-8.586-0.035-17.173-0.031-25.76-0.036c-0.667,0-1.335,0.064-2.042,0.101c-0.108,2.13-0.105,4.123,0.403,6.084
			c0.306,1.18,0.49,1.39,1.7,1.458c0.997,0.056,2.003-0.016,3.003-0.068C28.16,66.157,29.473,66.132,30.9,66.751z M81.286,31.738
			c-0.613-1.231-1.153-2.379-1.749-3.497c-0.976-1.834-2.072-3.609-2.964-5.482c-1.081-2.271-2.021-4.61-2.983-6.936
			c-0.291-0.703-0.8-0.907-1.484-0.974c-0.687-0.067-0.996,0.31-1.272,0.851c-0.855,1.673-1.772,3.315-2.607,4.999
			c-1.66,3.342-2.909,6.829-3.614,10.505c-0.13,0.677-0.061,1.149,0.613,1.481c0.944,0.466,1.588,0.296,2.129-0.808
			c0.49-1,0.855-2.063,1.253-3.108c0.212-0.557,0.526-0.792,1.168-0.731c0.833,0.078,1.68,0.017,2.521,0.005
			c1.123-0.015,2.41-0.857,3.317,0.018c0.786,0.758,1.114,1.985,1.664,2.994c0.304,0.557,0.575,1.155,0.987,1.623
			c0.537,0.609,1.32,0.63,1.983,0.269C80.642,32.73,80.881,32.228,81.286,31.738z M108.32,15.21c0,1.427,0.09,2.665-0.02,3.884
			c-0.186,2.055-0.275,2.079-2.338,2.026c-0.919-0.024-1.844-0.085-2.756-0.014c-0.318,0.024-0.785,0.335-0.879,0.618
			c-0.242,0.722,0.618,1.875,1.408,2.004c1.064,0.173,2.139,0.29,3.2,0.481c1.091,0.197,1.196,0.353,1.146,1.425
			c-0.016,0.319-0.105,0.634-0.117,0.953c-0.049,1.358-0.129,2.718-0.1,4.075c0.017,0.773,0.266,1.558,1.186,1.715
			c0.906,0.154,1.717-0.47,1.965-1.459c0.134-0.537,0.234-1.101,0.227-1.651c-0.02-1.24-0.109-2.479-0.181-3.719
			c-0.064-1.112,0.165-1.421,1.271-1.585c0.672-0.1,1.35-0.183,2.027-0.229c1.012-0.069,1.184-0.741,1.141-1.493
			c-0.068-1.192-0.723-1.676-1.941-1.523c-0.729,0.092-1.459,0.173-2.344,0.277c0.061-1.309,0.156-2.381,0.148-3.453
			c-0.01-1.352-0.059-2.707-0.182-4.052c-0.057-0.626-0.433-1.081-1.183-1.124c-3.185-0.185-6.368-0.398-9.619-0.604
			c-0.159,0.821-0.339,1.437-0.388,2.063c-0.084,1.074,0.188,1.411,1.266,1.438c1.48,0.038,2.963-0.035,4.444-0.051
			C106.529,15.203,107.356,15.21,108.32,15.21z M75.01,38.405c-0.103,0.074-0.364,0.361-0.688,0.479
			c-1.275,0.465-1.605,1.445-1.553,2.665c0.012,0.28,0.03,0.56,0.041,0.84c0.125,3.558,0.805,7.095,0.399,10.674
			c-0.021,0.187,0.034,0.382,0.051,0.542c3.647,1.315,9.51-0.21,12.07-2.749c2.197-2.178,2.587-5.206,0.605-7.57
			c-2.375-2.834-5.448-4.497-9.237-4.633C76.223,38.637,75.751,38.518,75.01,38.405z M83.274,22.191
			c-0.615-0.408-1.176-0.78-1.767-1.172c-0.181,0.315-0.283,0.412-0.29,0.515c-0.23,3.345-0.087,6.645,1.133,9.827
			c0.306,0.8,0.831,1.077,1.701,0.993c0.52-1.534,0.188-3.043,0.121-4.545c-0.036-0.795-0.119-1.607-0.006-2.387
			c0.175-1.215,0.838-1.727,1.936-1.702c1.043,0.023,1.666,0.51,1.813,1.697c0.163,1.306,0.115,2.637,0.228,3.952
			c0.087,1.016,0.119,2.09,1.072,2.761c1.396-0.451,2.042-1.322,1.898-2.775c-0.074-0.755-0.045-1.525-0.01-2.286
			c0.07-1.518,0.766-2.331,2.08-2.499c0.936-0.119,1.885,0.671,2.17,2c0.201,0.93,0.17,1.907,0.288,2.857
			c0.107,0.869,0.245,1.736,0.429,2.591c0.111,0.517,0.457,0.658,1.007,0.504c1.731-0.485,2.72-1.932,2.471-3.732
			c-0.358-2.607-1.718-4.623-3.761-6.201c-2.006-1.55-4.426-1.845-6.545-0.222c-0.052,0.04-0.15,0.019-0.228,0.023
			C87.615,20.934,85.282,20.395,83.274,22.191z M99.596,46.444c0.03,0.512,0.024,0.912,0.084,1.303
			c0.158,1.05,0.367,1.194,1.404,1.069c0.873-0.104,1.747-0.27,2.621-0.271c0.813-0.001,0.961,0.367,0.572,1.094
			c-0.755,1.414-2.797,2.293-4.58,1.972c-1.838-0.331-2.945-1.534-3.131-3.442c-0.043-0.437-0.062-0.891,0.008-1.321
			c0.333-2.022,0.395-4.137,2.631-5.279c1.605-0.82,3.082-0.715,4.264,0.643c0.572,0.658,1.204,1.154,2.12,1.162
			c0.408-2.231-1.03-4.29-3.23-4.498c-3.306-0.313-5.972,1.001-7.931,3.6c-0.504,0.667-0.691,1.724-0.678,2.597
			c0.033,2.093,0.77,4.008,2.075,5.657c2.105,2.659,5.751,4.505,9.457,2.312c0.081-0.048,0.215-0.006,0.321-0.006
			c0.082,0.728,0.16,1.432,0.246,2.209c0.633,0,1.156,0.064,1.658-0.015c0.742-0.117,1.195-0.466,1.082-1.378
			c-0.225-1.789-0.312-3.593-0.516-5.385c-0.26-2.314-1.038-2.943-3.354-2.817c-0.121,0.006-0.242,0.01-0.36,0.029
			C102.823,45.925,101.287,46.173,99.596,46.444z M28.82,43.526c-0.37-2.357-0.21-2.581,1.867-2.77
			c0.395-0.036,0.796-0.005,1.194-0.005c1.196,0,2.393,0,3.634,0c0.125-0.525,0.246-1.023,0.362-1.522
			c0.363-1.554,0.147-1.458-1.192-1.706c-2.506-0.462-5.018-0.215-7.507,0.351c-0.802,0.183-1.08,0.587-1.006,1.33
			c0.473,4.768,0.952,9.535,1.428,14.295c0.397,0.033,0.552,0.066,0.705,0.057c2.519-0.153,5.036-0.339,7.556-0.451
			c0.679-0.03,0.955-0.429,1.075-0.922c0.146-0.598,0.125-1.236,0.185-1.959c-0.787-0.095-1.418-0.257-2.042-0.229
			c-1.44,0.063-2.875,0.244-4.314,0.319c-0.35,0.018-0.968-0.113-1.025-0.305c-0.297-1.006-0.749-2.022-0.452-3.153
			c1.244-0.202,2.415-0.391,3.585-0.581c-0.023-0.523-0.03-0.922-0.062-1.32c-0.108-1.386-0.405-1.636-1.792-1.55
			C30.306,43.45,29.591,43.484,28.82,43.526z M57.121,49.877c0.379,1.336,0.642,2.466,1.026,3.553
			c0.354,1.001,1.308,1.49,2.171,1.25c0.788-0.22,1.056-0.861,0.78-2.103c-0.26-1.17-0.578-2.329-0.907-3.481
			c-0.083-0.289-0.299-0.543-0.47-0.802c-0.636-0.965-1.388-1.873-1.896-2.9c-0.957-1.934-1.758-3.944-2.662-5.906
			c-0.22-0.478-0.583-0.89-0.945-1.427c-0.286,0.388-0.484,0.589-0.604,0.83c-2.224,4.436-4.427,8.881-6.667,13.308
			c-0.293,0.58-0.204,0.985,0.245,1.365c0.326,0.276,0.677,0.522,1.083,0.833c0.146-0.385,0.265-0.637,0.339-0.901
			c0.511-1.807,1.721-2.896,3.539-3.173C53.767,50.077,55.409,50.022,57.121,49.877z M126.293,47.31c0,1.546,0,2.937,0.002,4.327
			c0,0.558-0.055,1.125,0.023,1.672c0.117,0.83,0.805,1.164,1.836,0.972c0.9-0.168,1.271-0.639,1.096-1.512
			c-0.475-2.343-0.369-4.7-0.271-7.065c0.074-1.763,0.041-3.538-0.664-5.202c-0.379-0.891-0.934-1.643-2.246-1.903
			c-0.037,2.215-0.074,4.297-0.107,6.356c-1.988,0-3.764,0-5.596,0c0-2.007,0-3.838,0-5.767c-0.9-0.368-1.785-0.729-2.754-1.124
			c0.266,5.175,0.516,10.078,0.762,14.887c1.826,0.722,2.221,0.487,2.312-1.215c0.027-0.518-0.031-1.041-0.035-1.562
			c-0.008-0.746-0.002-1.492-0.002-2.315C122.633,47.667,124.443,47.49,126.293,47.31z M141.555,54.014
			c1.502,0,2.895,0.025,4.285-0.007c1.277-0.03,2.562-0.048,3.826-0.216c0.76-0.101,1.551-0.38,1.912-1.241
			c-1.373-1.329-3.016-1.165-4.666-1.031c-1.143,0.092-2.291,0.12-3.434,0.177c-0.131-0.544-0.197-0.937-0.32-1.311
			c-0.447-1.363-0.404-1.475,1-1.714c0.627-0.107,1.271-0.114,1.91-0.156c0.504-0.033,1.012-0.05,1.676-0.082
			c-0.146-1.097-0.273-2.056-0.389-2.918c-1.529,0-2.865,0-4.209,0c-0.133-1.182-0.256-2.276-0.383-3.42
			c2.605-0.549,5.217,0.518,7.77-0.521c-0.053-0.62-0.053-1.22-0.164-1.798c-0.219-1.151-0.338-1.168-1.529-1.108
			c-1.797,0.091-3.598,0.12-5.398,0.159c-0.908,0.02-1.818,0.003-2.855,0.003C140.646,44.055,140.924,49.024,141.555,54.014z"/>
		<path style="fill-rule:evenodd;clip-rule:evenodd;" d="M30.9,66.751c-1.428-0.619-2.741-0.594-4.065-0.524
			c-1,0.052-2.007,0.124-3.003,0.068c-1.21-0.067-1.394-0.277-1.7-1.458c-0.508-1.961-0.511-3.954-0.403-6.084
			c0.708-0.037,1.375-0.101,2.042-0.101c8.587,0.005,17.174,0.001,25.76,0.036c8.183,0.033,16.367,0.206,24.548,0.142
			c9.143-0.072,18.284-0.348,27.425-0.522c3.85-0.074,7.699-0.131,11.551-0.168c4.012-0.039,8.023-0.047,12.035-0.067
			c10.311-0.051,20.621-0.101,30.932-0.15c0.473-0.002,0.947,0,1.371,0c1.277,2.828,1.377,5.535,0.293,7.96
			c-3.539-1.025-7.135-0.146-10.961-0.25c-0.23,12.627,0.004,25.191-0.299,37.881c1.137,0,2.123-0.05,3.102,0.011
			c1.83,0.114,3.66,0.245,5.477,0.477c0.549,0.069,1.051,0.495,1.613,0.776c-0.277,0.867-0.881,1.114-1.555,1.299
			c-1.805,0.496-3.586,0.002-5.375-0.124c-0.754-0.053-1.508-0.113-2.23-0.167c-1.148,3.012-1.582,41.532-0.48,44.874
			c1.342-0.135,2.723-0.318,4.111-0.398c0.949-0.055,1.91-0.014,2.855,0.078c0.582,0.057,0.887,0.482,0.891,1.101
			s-0.178,1.173-0.801,1.327c-0.605,0.15-1.264,0.205-1.883,0.146c-1.074-0.102-2.133-0.357-3.205-0.482
			c-0.615-0.071-1.248-0.013-1.84-0.013c-0.467,2.867-0.678,41.31-0.238,43.476c1.951,0.15,3.941,0.302,5.932,0.458
			c2.812,0.222,2.35,0.065,3.086,2.538c0.09,0.301,0.113,0.619,0.205,1.135c-3.256-0.092-6.406-0.182-9.758-0.276
			c-0.146,1.155-0.42,2.291-0.408,3.423c0.029,2.564,0.24,5.126,0.295,7.69c0.029,1.271-0.029,2.561-0.221,3.815
			c-0.17,1.107-0.457,1.167-1.465,0.616c-0.246-0.134-0.479-0.29-0.734-0.446c0-4.993,0-9.987,0-15.173c-6.184,0-12.18,0-18.332,0
			c-0.469,0.942-0.354,2.153-0.326,3.327c0.057,2.444,0.232,4.887,0.273,7.331c0.023,1.405-0.285,2.76-1.191,3.966
			c-0.979-0.508-1.457-1.264-1.426-2.248c0.031-0.994,0.105-2.01,0.346-2.97c0.441-1.757,0.35-3.487,0.086-5.245
			c-0.209-1.38-0.334-2.772-0.494-4.155c-3.145,0-6.408,0.006-9.674-0.001c-3.273-0.007-6.553-0.474-9.961,0.102
			c-0.178,1.857-0.477,3.682-0.496,5.509c-0.028,2.805,0.09,5.613,0.244,8.415c0.049,0.88-0.266,1.243-1.036,1.418
			c-0.872,0.197-2.056-0.109-2.29-0.66c-0.086-0.202-0.07-0.478-0.018-0.7c0.6-2.558,0.65-5.156,0.684-7.767
			c0.025-2.039,0.223-4.076,0.352-6.255c-0.747-0.054-1.572-0.171-2.395-0.161c-4.973,0.061-9.946,0.154-14.919,0.229
			c-1.197,0.018-2.396,0.002-3.678,0.002c-0.587,1.454-0.574,2.989-0.497,4.556c0.104,2.12,0.2,4.247,0.123,6.365
			c-0.048,1.315-0.49,2.579-1.871,3.295c-0.798-0.988-0.976-2.096-0.954-3.21c0.048-2.444,0.197-4.887,0.274-7.331
			c0.038-1.195,0.006-2.394,0.006-3.595c-7.271,0-14.422,0-21.717,0c-0.097,1.257-0.246,2.359-0.256,3.465
			c-0.032,3.45,0.003,6.9-0.023,10.352c-0.005,0.742-0.16,1.483-0.268,2.417c-0.724-0.237-1.33-0.333-1.803-0.635
			c-0.231-0.148-0.3-0.683-0.298-1.041c0.03-4.37,0.086-8.74,0.135-13.11c0.004-0.43,0-0.86,0-1.434
			c-6.043,0.131-11.928,0.259-17.905,0.389c-0.704,1.265-0.688,2.703-0.638,4.131c0.089,2.563,0.285,5.124,0.308,7.688
			c0.008,0.846-0.247,1.759-0.624,2.522c-0.308,0.622-0.975,1.068-1.482,1.592c-0.113-0.046-0.226-0.092-0.339-0.138
			c-0.054-0.368-0.141-0.735-0.157-1.104c-0.175-3.967-0.339-7.933-0.506-11.899c-0.007-0.16-0.007-0.32-0.014-0.481
			c-0.094-2.096-0.618-2.602-2.744-2.34c-1.344,0.165-2.661,0.552-3.991,0.83c-0.231,0.048-0.472,0.053-0.853,0.093
			c-0.307-0.879-0.614-1.756-0.951-2.721c2.81-0.797,5.556-0.476,8.19-0.711c0-2.242,0-4.355,0-6.47
			c0.002-4.531-0.014-9.062,0.013-13.594c0.018-3.008,0.093-6.016,0.147-9.024c0.081-4.45,0.172-8.901,0.244-13.353
			c0.025-1.522-0.224-1.812-1.799-1.803c-1.479,0.009-2.958,0.183-4.438,0.239c-0.554,0.021-1.167,0.043-1.656-0.164
			c-0.505-0.214-0.893-0.705-1.331-1.074c0.411-0.396,0.777-1.056,1.242-1.133c1.164-0.195,2.373-0.17,3.563-0.153
			c1.353,0.019,2.704,0.122,4.174,0.194c0.968-14.768-0.044-29.338-0.289-44.09c-1.061-0.094-2.122-0.193-3.183-0.278
			c-0.955-0.077-1.927-0.052-2.861-0.229c-1.146-0.219-1.751-0.89-1.66-1.583c0.101-0.759,0.963-1.265,2.099-1.118
			c0.909,0.117,1.798,0.375,2.703,0.538c0.662,0.119,1.333,0.185,2.15,0.295c0.26-1.502,0.539-2.899,0.74-4.307
			c0.63-4.412,0.954-8.854,0.88-13.306C31.322,80.491,31.085,73.641,30.9,66.751z M55.125,154.36c0,14.39,0,28.642,0,42.81
			c7.093-0.151,14.237-0.304,21.39-0.456c1.322-14.193,1.002-28.367,0.504-42.677C69.741,155.046,62.541,154.412,55.125,154.36z
			 M79.494,196.92c7.133,0,14.108,0,21.142,0c0.192-14.347,0.965-28.708-0.001-43.133c-7.163,0.24-14.17,0.475-21.141,0.707
			C79.494,168.553,79.494,182.648,79.494,196.92z M123.205,196.896c0.461-14.612,0.961-29.055,0.27-43.321
			c-6.803,0.09-13.473,0.178-20.023,0.266c-0.222,14.386-0.441,28.674-0.664,43.075
			C109.558,197.514,116.312,197.143,123.205,196.896z M123.08,151.03c0-2.606,0.047-4.967-0.01-7.325
			c-0.082-3.365-0.225-6.73-0.363-10.096c-0.184-4.484-0.49-8.968-0.555-13.454c-0.062-4.287,0.119-8.577,0.197-12.866
			c0.02-1.132-0.049-1.21-1.211-1.205c-3.93,0.02-7.861,0-11.789,0.08c-2.19,0.044-4.377,0.254-6.703,0.397
			c0.004,14.988,0.426,29.826,0.82,44.901C110.139,151.316,116.615,151.174,123.08,151.03z M144.201,150.451
			c0.084-2.095,0.26-4.057,0.225-6.014c-0.105-5.732-0.359-11.463-0.432-17.194c-0.086-6.894-0.043-13.789-0.062-20.684
			c0-0.145-0.064-0.29-0.105-0.462c-6.48-0.134-12.91-0.52-19.436,0.067c-0.584,15.032,0.406,29.931,1.375,45.029
			C131.992,150.943,138.029,150.7,144.201,150.451z M78.853,133.446c0.158,5.666,0.323,11.583,0.493,17.663
			c7.24,0,14.352,0,21.579,0c-0.341-14.794-0.049-29.621-1.059-44.329c-1.672,0-3.227-0.037-4.779,0.007
			c-5.168,0.145-10.337,0.328-15.506,0.47c-0.804,0.022-1.144,0.292-1.115,1.14c0.059,1.723,0.043,3.449,0.036,5.173
			c-0.002,0.513,0.202,0.751,0.683,0.97c1.089,0.494,2.188,1.011,3.175,1.678c5.336,3.612,5.089,10.342,1.036,14.102
			C82.126,131.496,80.526,132.312,78.853,133.446z M78.217,65.981c0.991,12.95-0.019,25.726,0.335,38.586c7.155,0,14.189,0,21.208,0
			c0.075-0.208,0.146-0.316,0.148-0.426c0.14-4.244,0.396-8.489,0.379-12.732c-0.029-7.132-0.235-14.263-0.359-21.394
			c-0.021-1.308-0.002-2.617-0.002-4.034C92.812,65.981,85.617,65.981,78.217,65.981z M54.931,66.519
			c-0.215,12.744-0.792,25.382-0.219,38.009c2.827,0.366,19.76,0.267,21.302-0.127c0.201-12.771,0.572-25.564,0.252-38.391
			C69.09,66.18,62.091,66.348,54.931,66.519z M52.147,107.58c-6.282-0.098-12.434-0.193-18.679-0.29
			c-0.883,14.88,0.735,29.504,0.768,44.199c6.011-0.294,11.886-0.415,17.899,0.249C52.877,136.966,52.417,122.273,52.147,107.58z
			 M52.389,197.275c1.035-14.313,0.357-28.561,0.292-42.869c-6.198-0.113-12.299-0.226-18.438-0.339
			c-0.004,0.019-0.05,0.133-0.052,0.247c-0.093,5.566-0.199,11.132-0.261,16.698c-0.021,1.883,0.051,3.768,0.117,5.649
			c0.237,6.727,0.647,13.451,0.193,20.185c-0.018,0.263,0.056,0.531,0.084,0.771C36.111,197.997,47.269,197.78,52.389,197.275z
			 M124.957,196.678c1.68,0,3.197-0.018,4.715,0.003c3.729,0.051,7.455,0.147,11.182,0.156c0.738,0.002,1.482-0.276,2.209-0.478
			c0.656-0.181,0.902-0.617,0.914-1.342c0.133-7.415,0.379-14.829,0.443-22.244c0.047-5.29-0.119-10.583-0.225-15.874
			c-0.027-1.349-0.186-2.694-0.295-4.175c-6.086,0.715-12.16,0.148-18.18,1.343C125.998,168.275,125.723,182.367,124.957,196.678z
			 M76.488,133.135c-0.514-0.201-1.019-0.346-1.473-0.586c-1.41-0.747-2.909-1.385-4.175-2.33c-2.598-1.939-3.438-4.627-2.764-7.783
			c0.742-3.471,2.945-5.863,5.954-7.447c1.436-0.755,1.918-1.664,1.802-3.158c-0.12-1.533-0.144-3.074-0.203-4.439
			c-7.131,0-14.009,0-20.905,0c-0.038,0.312-0.073,0.465-0.073,0.619c-0.011,4.771-0.026,9.541-0.024,14.311
			c0,2.126,0.033,4.252,0.056,6.378c0.076,7.137,0.153,14.273,0.233,21.41c0.004,0.382,0.042,0.764,0.065,1.158
			c7.344,0.885,14.533-0.348,21.878,0.051C76.734,145.191,76.612,139.229,76.488,133.135z M33.892,66.265
			c-0.64,1.23-0.848,35.979-0.273,38.059c6.21,1.155,12.438-0.012,18.636,0.31c0.097-12.737,0.191-25.263,0.287-37.884
			C46.323,66.018,40.066,66.84,33.892,66.265z M143.967,103.533c-0.113-12.587,0.564-25.034-0.098-37.655
			c-6.156,0-12.227,0-18.387,0c-0.086,0.71-0.232,1.496-0.266,2.287c-0.178,4.124-0.309,8.25-0.498,12.373
			c-0.033,0.703,0.189,1.054,0.805,1.39c3.219,1.76,5.164,4.476,5.828,8.084c0.506,2.745-0.666,5.489-3,6.909
			c-1.213,0.739-2.506,1.348-3.828,2.05c-0.096,1.578-0.197,3.277-0.307,5.084C130.83,103.415,137.33,104.341,143.967,103.533z
			 M102.398,66.234c-0.536,12.78-0.326,25.417,0.275,38.202c6.584-0.105,12.977-0.207,19.371-0.309c0-1.903,0-3.611,0-5.363
			c-0.256-0.048-0.447-0.095-0.639-0.118c-2.334-0.27-4.002-1.5-5.115-3.536c-1.027-1.873-1.252-3.902-0.928-5.953
			c0.488-3.098,1.871-5.623,5.037-6.75c0.635-0.225,1.312-0.324,2.068-0.504c-0.16-5.367,0.932-10.772-0.619-16.203
			C115.4,66.495,108.94,65.344,102.398,66.234z"/>
		<path style="fill-rule:evenodd;clip-rule:evenodd;" d="M82.286,27.738c-0.405,0.489-0.644,0.992-1.039,1.208
			c-0.664,0.362-1.446,0.341-1.983-0.269c-0.413-0.468-0.684-1.066-0.987-1.623c-0.549-1.009-0.878-2.236-1.664-2.994
			c-0.907-0.875-2.194-0.033-3.317-0.018c-0.841,0.011-1.688,0.072-2.521-0.005c-0.642-0.06-0.956,0.175-1.168,0.731
			c-0.397,1.045-0.763,2.108-1.253,3.108c-0.541,1.104-1.185,1.273-2.129,0.808c-0.674-0.332-0.743-0.804-0.613-1.481
			c0.705-3.676,1.954-7.163,3.614-10.505c0.835-1.683,1.752-3.325,2.607-4.999c0.276-0.541,0.586-0.918,1.272-0.851
			c0.684,0.067,1.193,0.271,1.484,0.974c0.963,2.326,1.902,4.665,2.983,6.936c0.892,1.873,1.988,3.648,2.964,5.482
			C81.132,25.359,81.673,26.507,82.286,27.738z M72.703,16.76c-0.629,1.554-1.215,3.002-1.887,4.664
			c1.626-0.162,3.026,0.361,4.409-0.503C74.158,19.659,74.256,17.854,72.703,16.76z"/>
		<path style="fill-rule:evenodd;clip-rule:evenodd;" d="M109.32,11.21c-0.964,0-1.791-0.008-2.618,0.002
			c-1.481,0.017-2.964,0.089-4.444,0.051c-1.078-0.028-1.35-0.365-1.266-1.438c0.049-0.626,0.229-1.242,0.388-2.063
			c3.251,0.207,6.435,0.42,9.619,0.604c0.75,0.043,1.126,0.498,1.183,1.124c0.123,1.345,0.172,2.7,0.182,4.052
			c0.008,1.071-0.088,2.144-0.148,3.453c0.885-0.104,1.615-0.186,2.344-0.277c1.219-0.153,1.873,0.331,1.941,1.523
			c0.043,0.752-0.129,1.424-1.141,1.493c-0.678,0.046-1.355,0.129-2.027,0.229c-1.105,0.164-1.334,0.473-1.27,1.585
			c0.07,1.239,0.16,2.479,0.18,3.719c0.008,0.55-0.092,1.114-0.227,1.651c-0.248,0.989-1.059,1.613-1.965,1.459
			c-0.92-0.157-1.169-0.942-1.186-1.715c-0.029-1.357,0.051-2.717,0.1-4.075c0.012-0.319,0.102-0.634,0.117-0.953
			c0.051-1.072-0.055-1.228-1.146-1.425c-1.062-0.191-2.136-0.308-3.2-0.481c-0.79-0.129-1.65-1.282-1.408-2.004
			c0.094-0.282,0.561-0.593,0.879-0.618c0.912-0.071,1.837-0.01,2.756,0.014c2.062,0.053,2.152,0.029,2.338-2.026
			C109.41,13.875,109.32,12.638,109.32,11.21z"/>
		<path style="fill-rule:evenodd;clip-rule:evenodd;" d="M75.01,38.405c0.742,0.112,1.213,0.231,1.688,0.248
			c3.789,0.136,6.862,1.799,9.237,4.633c1.982,2.365,1.591,5.393-0.605,7.57c-2.56,2.538-8.423,4.063-12.07,2.749
			c-0.017-0.16-0.072-0.355-0.051-0.542c0.406-3.579-0.273-7.116-0.399-10.674c-0.01-0.28-0.029-0.56-0.041-0.84
			c-0.052-1.22,0.278-2.2,1.553-2.665C74.646,38.766,74.907,38.479,75.01,38.405z M75.903,51.375
			c1.893-0.012,3.533-0.445,5.12-1.294c2.027-1.084,3.069-2.602,2.525-4.933c-0.128-0.551-0.355-1.21-0.763-1.543
			c-2.13-1.743-4.727-1.823-7.554-2.042C75.462,44.932,75.68,48.105,75.903,51.375z"/>
		<path style="fill-rule:evenodd;clip-rule:evenodd;" d="M84.274,18.191c2.007-1.796,4.341-1.257,5.742,0.199
			c0.077-0.006,0.176,0.016,0.228-0.024c2.119-1.624,4.539-1.328,6.545,0.222c2.043,1.578,3.402,3.594,3.761,6.201
			c0.249,1.801-0.739,3.248-2.471,3.732c-0.55,0.154-0.896,0.013-1.007-0.504c-0.184-0.855-0.321-1.723-0.429-2.591
			c-0.118-0.95-0.087-1.927-0.288-2.857c-0.285-1.328-1.234-2.119-2.17-2c-1.314,0.168-2.01,0.981-2.08,2.499
			c-0.035,0.761-0.064,1.53,0.01,2.286c0.144,1.453-0.502,2.325-1.898,2.775c-0.953-0.67-0.985-1.745-1.072-2.761
			c-0.113-1.314-0.065-2.646-0.228-3.952c-0.148-1.187-0.77-1.673-1.813-1.697c-1.098-0.024-1.761,0.487-1.936,1.702
			c-0.112,0.78-0.029,1.592,0.006,2.387c0.067,1.502,0.399,3.012-0.121,4.545c-0.87,0.084-1.395-0.193-1.701-0.993
			c-1.22-3.183-1.364-6.482-1.133-9.827c0.007-0.103,0.108-0.2,0.29-0.515C83.099,17.411,83.66,17.784,84.274,18.191z"/>
		<path style="fill-rule:evenodd;clip-rule:evenodd;" d="M99.596,46.444c1.691-0.271,3.228-0.52,4.765-0.765
			c0.118-0.019,0.239-0.023,0.36-0.029c2.315-0.126,3.094,0.503,3.354,2.817c0.203,1.792,0.291,3.596,0.516,5.385
			c0.113,0.912-0.34,1.261-1.082,1.378c-0.502,0.079-1.025,0.015-1.658,0.015c-0.086-0.777-0.164-1.481-0.246-2.209
			c-0.106,0-0.24-0.042-0.321,0.006c-3.706,2.193-7.352,0.347-9.457-2.312c-1.306-1.649-2.042-3.564-2.075-5.657
			c-0.014-0.873,0.174-1.93,0.678-2.597c1.959-2.599,4.625-3.913,7.931-3.6c2.2,0.208,3.639,2.267,3.23,4.498
			c-0.916-0.008-1.548-0.504-2.12-1.162c-1.182-1.358-2.658-1.463-4.264-0.643c-2.236,1.142-2.298,3.257-2.631,5.279
			c-0.07,0.43-0.051,0.884-0.008,1.321c0.186,1.908,1.293,3.111,3.131,3.442c1.783,0.321,3.825-0.558,4.58-1.972
			c0.389-0.727,0.241-1.095-0.572-1.094c-0.874,0.001-1.748,0.167-2.621,0.271c-1.037,0.125-1.246-0.019-1.404-1.069
			C99.62,47.356,99.626,46.956,99.596,46.444z"/>
		<path style="fill-rule:evenodd;clip-rule:evenodd;" d="M28.82,43.526c0.771-0.042,1.486-0.076,2.2-0.121
			c1.387-0.086,1.684,0.164,1.792,1.55c0.031,0.397,0.038,0.797,0.062,1.32c-1.171,0.19-2.341,0.379-3.585,0.581
			c-0.297,1.131,0.155,2.147,0.452,3.153c0.057,0.192,0.675,0.323,1.025,0.305c1.44-0.075,2.875-0.255,4.314-0.319
			c0.623-0.028,1.254,0.134,2.042,0.229c-0.06,0.723-0.039,1.361-0.185,1.959c-0.12,0.493-0.396,0.893-1.075,0.922
			c-2.52,0.112-5.037,0.297-7.556,0.451c-0.153,0.009-0.308-0.023-0.705-0.057c-0.477-4.761-0.955-9.528-1.428-14.295
			c-0.074-0.743,0.204-1.147,1.006-1.33c2.489-0.566,5.001-0.813,7.507-0.351c1.34,0.248,1.555,0.152,1.192,1.706
			c-0.116,0.499-0.237,0.997-0.362,1.522c-1.242,0-2.438,0-3.634,0c-0.398,0-0.799-0.031-1.194,0.005
			C28.609,40.946,28.45,41.169,28.82,43.526z"/>
		<path style="fill-rule:evenodd;clip-rule:evenodd;" d="M57.121,49.877c-1.712,0.146-3.354,0.2-4.967,0.445
			c-1.818,0.277-3.028,1.366-3.539,3.173c-0.075,0.264-0.193,0.516-0.339,0.901c-0.407-0.311-0.758-0.558-1.083-0.833
			c-0.449-0.38-0.538-0.786-0.245-1.365c2.24-4.427,4.443-8.873,6.667-13.308c0.121-0.241,0.319-0.442,0.604-0.83
			c0.362,0.538,0.725,0.949,0.945,1.427c0.903,1.961,1.705,3.972,2.662,5.906c0.508,1.028,1.26,1.935,1.896,2.9
			c0.171,0.259,0.388,0.514,0.47,0.802c0.33,1.153,0.647,2.312,0.907,3.481c0.276,1.242,0.007,1.883-0.78,2.103
			c-0.863,0.241-1.817-0.249-2.171-1.25C57.763,52.343,57.5,51.213,57.121,49.877z M55.527,47.729
			c-0.164-1.541-0.493-2.766-1.614-3.804c-0.711,1.419-1.327,2.65-1.943,3.88c0.064,0.094,0.128,0.188,0.193,0.282
			C53.243,47.972,54.324,47.857,55.527,47.729z"/>
		<path style="fill-rule:evenodd;clip-rule:evenodd;" d="M126.293,47.31c-1.85,0.18-3.66,0.356-5.645,0.549
			c0,0.824-0.006,1.57,0.002,2.315c0.004,0.521,0.062,1.043,0.035,1.562c-0.092,1.702-0.486,1.937-2.312,1.215
			c-0.246-4.809-0.496-9.711-0.762-14.887c0.969,0.395,1.854,0.756,2.754,1.124c0,1.929,0,3.76,0,5.767c1.832,0,3.607,0,5.596,0
			c0.033-2.059,0.07-4.141,0.107-6.356c1.312,0.26,1.867,1.012,2.246,1.903c0.705,1.664,0.738,3.438,0.664,5.202
			c-0.098,2.365-0.203,4.722,0.271,7.065c0.176,0.874-0.195,1.344-1.096,1.512c-1.031,0.192-1.719-0.142-1.836-0.972
			c-0.078-0.548-0.023-1.114-0.023-1.672C126.293,50.247,126.293,48.856,126.293,47.31z"/>
		<path style="fill-rule:evenodd;clip-rule:evenodd;" d="M141.555,54.014c-0.631-4.99-0.908-9.959-0.969-15.183
			c1.037,0,1.947,0.016,2.855-0.003c1.801-0.039,3.602-0.067,5.398-0.159c1.191-0.061,1.311-0.043,1.529,1.108
			c0.111,0.579,0.111,1.178,0.164,1.798c-2.553,1.039-5.164-0.028-7.77,0.521c0.127,1.144,0.25,2.238,0.383,3.42
			c1.344,0,2.68,0,4.209,0c0.115,0.862,0.242,1.821,0.389,2.918c-0.664,0.032-1.172,0.048-1.676,0.082
			c-0.639,0.042-1.283,0.049-1.91,0.156c-1.404,0.239-1.447,0.351-1,1.714c0.123,0.374,0.189,0.766,0.32,1.311
			c1.143-0.057,2.291-0.084,3.434-0.177c1.65-0.134,3.293-0.298,4.666,1.031c-0.361,0.861-1.152,1.14-1.912,1.241
			c-1.264,0.167-2.549,0.186-3.826,0.216C144.449,54.04,143.057,54.014,141.555,54.014z"/>
		<path style="fill-rule:evenodd;clip-rule:evenodd;fill:none;" d="M55.125,154.36c7.416,0.052,14.616,0.686,21.894-0.323
			c0.499,14.31,0.818,28.483-0.504,42.677c-7.152,0.152-14.297,0.305-21.39,0.456C55.125,183.002,55.125,168.75,55.125,154.36z"/>
		<path style="fill-rule:evenodd;clip-rule:evenodd;fill:none;" d="M79.494,196.92c0-14.271,0-28.367,0-42.426
			c6.971-0.232,13.978-0.467,21.141-0.707c0.966,14.425,0.193,28.786,0.001,43.133C93.602,196.92,86.627,196.92,79.494,196.92z"/>
		<path style="fill-rule:evenodd;clip-rule:evenodd;fill:none;" d="M123.205,196.896c-6.893,0.247-13.647,0.618-20.418,0.02
			c0.223-14.401,0.442-28.689,0.664-43.075c6.551-0.088,13.221-0.176,20.023-0.266C124.166,167.841,123.666,182.283,123.205,196.896
			z"/>
		<path style="fill-rule:evenodd;clip-rule:evenodd;fill:none;" d="M123.08,151.03c-6.465,0.144-12.941,0.286-19.613,0.434
			c-0.395-15.075-0.816-29.913-0.82-44.901c2.326-0.144,4.513-0.353,6.703-0.397c3.928-0.08,7.859-0.061,11.789-0.08
			c1.162-0.006,1.23,0.072,1.211,1.205c-0.078,4.289-0.26,8.579-0.197,12.866c0.064,4.486,0.371,8.97,0.555,13.454
			c0.139,3.365,0.281,6.73,0.363,10.096C123.127,146.063,123.08,148.424,123.08,151.03z"/>
		<path style="fill-rule:evenodd;clip-rule:evenodd;fill:none;" d="M144.201,150.451c-6.172,0.249-12.209,0.492-18.436,0.743
			c-0.969-15.099-1.959-29.997-1.375-45.029c6.525-0.587,12.955-0.201,19.436-0.067c0.041,0.172,0.105,0.317,0.105,0.462
			c0.02,6.895-0.023,13.79,0.062,20.684c0.072,5.731,0.326,11.462,0.432,17.194C144.461,146.395,144.285,148.356,144.201,150.451z"
			/>
		<path style="fill-rule:evenodd;clip-rule:evenodd;fill:none;" d="M78.853,133.446c1.673-1.134,3.274-1.95,4.542-3.126
			c4.054-3.76,4.301-10.49-1.036-14.102c-0.987-0.667-2.086-1.184-3.175-1.678c-0.481-0.218-0.685-0.457-0.683-0.97
			c0.007-1.725,0.022-3.45-0.036-5.173c-0.029-0.848,0.311-1.118,1.115-1.14c5.169-0.142,10.338-0.325,15.506-0.47
			c1.553-0.043,3.107-0.007,4.779-0.007c1.01,14.708,0.718,29.535,1.059,44.329c-7.227,0-14.339,0-21.579,0
			C79.175,145.029,79.01,139.112,78.853,133.446z"/>
		<path style="fill-rule:evenodd;clip-rule:evenodd;fill:none;" d="M78.217,65.981c7.4,0,14.596,0,21.709,0
			c0,1.417-0.02,2.726,0.002,4.034c0.124,7.131,0.33,14.262,0.359,21.394c0.018,4.244-0.239,8.488-0.379,12.732
			c-0.003,0.11-0.073,0.218-0.148,0.426c-7.019,0-14.053,0-21.208,0C78.198,91.707,79.208,78.932,78.217,65.981z"/>
		<path style="fill-rule:evenodd;clip-rule:evenodd;fill:none;" d="M54.931,66.519c7.16-0.171,14.159-0.338,21.334-0.51
			c0.32,12.827-0.051,25.62-0.252,38.391c-1.542,0.395-18.475,0.493-21.302,0.127C54.139,91.901,54.716,79.262,54.931,66.519z"/>
		<path style="fill-rule:evenodd;clip-rule:evenodd;fill:none;" d="M52.147,107.58c0.269,14.693,0.729,29.386-0.012,44.158
			c-6.013-0.664-11.888-0.543-17.899-0.249c-0.032-14.695-1.651-29.319-0.768-44.199C39.713,107.387,45.866,107.482,52.147,107.58z"
			/>
		<path style="fill-rule:evenodd;clip-rule:evenodd;fill:none;" d="M52.389,197.275c-5.12,0.505-16.277,0.722-18.065,0.342
			c-0.028-0.239-0.102-0.508-0.084-0.771c0.455-6.733,0.044-13.458-0.193-20.185c-0.066-1.882-0.138-3.767-0.117-5.649
			c0.062-5.566,0.168-11.132,0.261-16.698c0.002-0.114,0.047-0.229,0.052-0.247c6.139,0.113,12.239,0.226,18.438,0.339
			C52.746,168.715,53.424,182.962,52.389,197.275z"/>
		<path style="fill-rule:evenodd;clip-rule:evenodd;fill:none;" d="M124.957,196.678c0.766-14.311,1.041-28.402,0.764-42.61
			c6.02-1.194,12.094-0.628,18.18-1.343c0.109,1.48,0.268,2.826,0.295,4.175c0.105,5.291,0.271,10.584,0.225,15.874
			c-0.064,7.415-0.311,14.829-0.443,22.244c-0.012,0.725-0.258,1.161-0.914,1.342c-0.727,0.201-1.471,0.479-2.209,0.478
			c-3.727-0.009-7.453-0.105-11.182-0.156C128.154,196.66,126.637,196.678,124.957,196.678z"/>
		<path style="fill-rule:evenodd;clip-rule:evenodd;fill:none;" d="M76.488,133.135c0.125,6.094,0.247,12.057,0.372,18.184
			c-7.345-0.398-14.534,0.834-21.878-0.051c-0.023-0.395-0.061-0.776-0.065-1.158c-0.08-7.137-0.157-14.273-0.233-21.41
			c-0.023-2.126-0.055-4.252-0.056-6.378c-0.002-4.771,0.013-9.541,0.024-14.311c0-0.154,0.035-0.307,0.073-0.619
			c6.896,0,13.773,0,20.905,0c0.059,1.365,0.083,2.906,0.203,4.439c0.117,1.494-0.366,2.402-1.802,3.158
			c-3.009,1.584-5.212,3.976-5.954,7.447c-0.675,3.156,0.166,5.844,2.764,7.783c1.266,0.945,2.766,1.583,4.175,2.33
			C75.469,132.789,75.974,132.934,76.488,133.135z M64.021,137.303c0.984-1.506,1.462-3.06,1.412-4.736
			c-0.038-1.297-0.28-2.555-1.196-3.567c-1.109-1.226-3.781-1.354-4.66-0.064c-0.694,1.019-0.874,2.288-0.496,3.528
			c1.487,0.189,1.45,0.167,2.252-1.181c0.232-0.39,0.74-0.616,1.121-0.917c0.213,0.408,0.449,0.807,0.629,1.229
			c0.073,0.172,0.036,0.396,0.029,0.596c-0.035,1.188-0.673,2.117-1.332,3.029c-0.703,0.975-1.429,1.932-2.135,2.903
			c-0.442,0.607-0.554,1.219,0.072,1.841c2.362-0.139,4.742-0.279,7.113-0.418C67.1,137.672,67.1,137.672,64.021,137.303z"/>
		<path style="fill-rule:evenodd;clip-rule:evenodd;fill:none;" d="M33.892,66.265c6.174,0.576,12.431-0.247,18.649,0.484
			c-0.096,12.622-0.19,25.147-0.287,37.884c-6.199-0.322-12.426,0.845-18.636-0.31C33.043,102.244,33.252,67.495,33.892,66.265z"/>
		<path style="fill-rule:evenodd;clip-rule:evenodd;fill:none;" d="M143.967,103.533c-6.637,0.808-13.137-0.119-19.75,0.522
			c0.109-1.808,0.211-3.507,0.307-5.084c1.322-0.703,2.615-1.312,3.828-2.05c2.334-1.42,3.506-4.164,3-6.909
			c-0.664-3.608-2.609-6.324-5.828-8.084c-0.615-0.336-0.838-0.688-0.805-1.39c0.189-4.123,0.32-8.249,0.498-12.373
			c0.033-0.791,0.18-1.577,0.266-2.287c6.16,0,12.23,0,18.387,0C144.531,78.499,143.854,90.946,143.967,103.533z"/>
		<path style="fill-rule:evenodd;clip-rule:evenodd;fill:none;" d="M102.398,66.234c6.542-0.89,13.002,0.261,19.451-0.532
			c1.551,5.431,0.459,10.836,0.619,16.203c-0.756,0.18-1.434,0.279-2.068,0.504c-3.166,1.127-4.549,3.651-5.037,6.75
			c-0.324,2.051-0.1,4.08,0.928,5.953c1.113,2.035,2.781,3.266,5.115,3.536c0.191,0.022,0.383,0.07,0.639,0.118
			c0,1.752,0,3.46,0,5.363c-6.395,0.102-12.787,0.204-19.371,0.309C102.072,91.651,101.862,79.014,102.398,66.234z M112.686,71.736
			c-2.361,0.609-4.191,1.643-5.324,3.656c-0.438,0.778-0.676,1.619,0.125,2.648c0.623-0.452,1.252-0.836,1.79-1.321
			c0.546-0.492,0.919-1.215,1.925-1.175c0.065,0.782,0.152,1.531,0.186,2.283c0.047,1.081,0.004,2.167,0.095,3.244
			c0.069,0.826,0.401,1.537,1.554,1.672C114.408,79.052,113.492,75.499,112.686,71.736z"/>
		<path style="fill-rule:evenodd;clip-rule:evenodd;fill:none;" d="M71.703,20.76c1.553,1.094,1.455,2.899,2.522,4.161
			c-1.383,0.865-2.783,0.342-4.409,0.503C70.488,23.762,71.074,22.313,71.703,20.76z"/>
		<path style="fill-rule:evenodd;clip-rule:evenodd;fill:none;" d="M75.903,51.375c-0.224-3.271-0.441-6.444-0.671-9.812
			c2.827,0.219,5.423,0.298,7.554,2.042c0.407,0.333,0.634,0.992,0.763,1.543c0.544,2.331-0.499,3.849-2.525,4.933
			C79.436,50.931,77.796,51.363,75.903,51.375z"/>
		<path style="fill-rule:evenodd;clip-rule:evenodd;fill:none;" d="M55.527,47.729c-1.204,0.128-2.284,0.243-3.364,0.358
			c-0.064-0.094-0.129-0.188-0.193-0.282c0.616-1.23,1.232-2.461,1.943-3.88C55.035,44.962,55.364,46.188,55.527,47.729z"/>
		<path style="fill-rule:evenodd;clip-rule:evenodd;" d="M64.021,137.303c3.079,0.369,3.079,0.369,2.809,2.242
			c-2.372,0.139-4.751,0.279-7.113,0.418c-0.626-0.622-0.514-1.233-0.072-1.841c0.707-0.972,1.433-1.929,2.135-2.903
			c0.659-0.912,1.297-1.841,1.332-3.029c0.006-0.199,0.044-0.424-0.029-0.596c-0.18-0.422-0.416-0.82-0.629-1.229
			c-0.381,0.301-0.889,0.527-1.121,0.917c-0.802,1.348-0.765,1.37-2.252,1.181c-0.378-1.24-0.198-2.51,0.496-3.528
			c0.879-1.29,3.551-1.161,4.66,0.064c0.916,1.013,1.158,2.271,1.196,3.567C65.483,134.243,65.005,135.797,64.021,137.303z"/>
		<path style="fill-rule:evenodd;clip-rule:evenodd;" d="M112.686,71.736c0.807,3.762,1.723,7.315,0.35,11.006
			c-1.152-0.135-1.484-0.846-1.554-1.672c-0.091-1.076-0.048-2.163-0.095-3.244c-0.033-0.752-0.12-1.501-0.186-2.283
			c-1.006-0.04-1.379,0.683-1.925,1.175c-0.538,0.485-1.167,0.869-1.79,1.321c-0.801-1.029-0.563-1.87-0.125-2.648
			C108.494,73.379,110.324,72.345,112.686,71.736z"/>
	</g>
</g>
<g id="Layer_1">
</g>
</svg>
