<?xml version="1.0" encoding="iso-8859-1"?>
<!-- Generator: Adobe Illustrator 16.0.0, SVG Export Plug-In . SVG Version: 6.00 Build 0)  -->
<!DOCTYPE svg PUBLIC "-//W3C//DTD SVG 1.1//EN" "http://www.w3.org/Graphics/SVG/1.1/DTD/svg11.dtd">
<svg version="1.1" xmlns="http://www.w3.org/2000/svg" xmlns:xlink="http://www.w3.org/1999/xlink" x="0px" y="0px"
	 width="175.92px" height="229.422px" viewBox="0 0 175.92 229.422" style="enable-background:new 0 0 175.92 229.422;"
	 xml:space="preserve">
<g id="Am">
	<g id="Am_1_">
		<path style="fill:none;" d="M175.92,229.422c-58.641,0-117.28,0-175.92,0c0-79.76,0-159.52,0-239.28c58.64,0,117.279,0,175.919,0
			C175.919,69.902,175.919,149.662,175.92,229.422z M29.432,107.475c0,2.537-0.033,5.129,0.008,7.72
			c0.065,4.157,0.235,8.312,0.261,12.47c0.038,6.036,0.01,12.075-0.039,18.111c-0.014,1.704-0.199,3.406-0.315,5.271
			c-1.293-0.088-2.438-0.187-3.584-0.235c-1.233-0.052-2.485-0.186-3.695-0.025c-0.551,0.073-1.325,0.689-1.453,1.196
			c-0.171,0.681,0.64,1.062,1.273,1.135c0.98,0.113,1.978,0.084,2.969,0.098c1.311,0.02,2.643-0.119,3.926,0.074
			c1.292,0.195,1.308,0.403,1.257,1.701c-0.257,6.59-0.612,13.178-0.729,19.771c-0.102,5.715,0.073,11.435,0.118,17.152
			c0.013,1.66,0.002,3.321,0.002,5.019c-2.725,0.138-5.411,0.273-8.38,0.423c0.412,1.143,0.753,2.086,1.118,3.097
			c0.747-0.179,1.313-0.369,1.896-0.441c1.336-0.167,2.683-0.416,4.017-0.371c1.537,0.052,1.546,0.173,1.618,1.7
			c0.19,4.072,0.364,8.146,0.557,12.218c0.028,0.578,0.132,1.153,0.229,1.966c0.897-0.532,1.596-0.947,2.303-1.367
			c0.394-4.896-0.797-9.831,0.506-14.688c0.392,0,0.708-0.001,1.024,0c2.194,0.003,4.388,0.043,6.582,0.001
			c3.03-0.059,6.051-0.581,9.093-0.072c0.787,0.132,1.078,0.43,1.062,1.233c-0.046,2.235-0.021,4.472-0.022,6.708
			c-0.001,2.471,0,4.94,0,7.463c0.704,0.196,1.249,0.348,1.868,0.521c0.858-5.453,0.049-10.768,0.263-15.933
			c7.295,0,14.464,0,21.728,0c0,0.688,0.011,1.162-0.002,1.637c-0.076,2.796-0.229,5.593-0.207,8.389
			c0.01,1.324,0.352,2.646,0.56,4.089c1.204-0.509,1.832-1.264,2.044-2.208c0.286-1.27,0.495-2.587,0.496-3.884
			c0.001-2.274-0.196-4.549-0.273-6.824c-0.016-0.451,0.133-0.908,0.207-1.366c7.025,0,13.92,0,20.695,0
			c0,1.735,0.062,3.368-0.015,4.994c-0.127,2.752-0.281,5.505-0.545,8.246c-0.147,1.539,0.609,2.373,2.125,2.081
			c0.548-0.105,0.828-0.34,0.84-0.945c0.021-1.157,0.178-2.314,0.166-3.47c-0.02-2.118-0.217-4.237-0.158-6.352
			c0.045-1.61,0.372-3.213,0.557-4.691c6.662,0,13.078,0,19.399,0c0.164,1.499,0.188,2.823,0.473,4.089
			c0.496,2.198,0.453,4.335-0.128,6.507c-0.211,0.79-0.218,1.663-0.166,2.488s0.566,1.36,1.408,1.5
			c1.008-1.52,1.416-3.165,1.285-5.287c-0.112-1.834-0.317-3.664-0.378-5.499c-0.043-1.298,0.087-2.602,0.135-3.784
			c6.216,0,12.236,0,18.336,0c0.256,5.164,0.889,10.157,0.055,15.119c0.455,0.24,0.766,0.422,1.091,0.571
			c0.931,0.431,1.286,0.278,1.337-0.702c0.101-1.952,0.17-3.909,0.164-5.863c-0.008-2.597-0.109-5.193-0.143-7.79
			c-0.006-0.414,0.133-0.829,0.213-1.291c3.259,0,6.399,0,9.526,0c0.185-2.082-0.415-3.031-2.302-3.351
			c-1.247-0.212-2.542-0.13-3.814-0.203c-0.939-0.054-1.878-0.146-2.876-0.226c-0.072-1.806-0.194-3.436-0.191-5.065
			c0.009-4.478,0.06-8.956,0.113-13.434c0.068-5.637,0.168-11.272,0.232-16.909c0.028-2.511,0.004-5.021,0.004-7.656
			c0.624,0,1.1-0.038,1.566,0.008c1.151,0.111,2.297,0.289,3.449,0.391c1.066,0.092,2.069-0.08,2.821-0.933
			c-0.313-1.474-0.658-1.803-2.072-1.81c-0.754-0.004-1.507,0.143-2.263,0.179c-1.208,0.058-2.419,0.612-3.709-0.011
			c-0.523-14.688-0.733-29.363,0.532-44.117c0.775,0.069,1.407,0.134,2.039,0.18c1.707,0.125,3.414,0.325,5.121,0.328
			c1.007,0.001,1.904-0.484,2.458-1.598c-0.772-0.275-1.464-0.673-2.189-0.75c-1.819-0.193-3.655-0.228-5.482-0.353
			c-0.895-0.062-1.785-0.182-2.511-0.258c0-12.492,0-24.75,0-36.972c3.918-1.021,7.646-0.58,11.515-0.066
			c-0.046-2.461,0.317-4.805-0.226-7.14c-0.142-0.606-0.393-0.985-1.126-0.93c-0.955,0.071-1.919,0.034-2.878,0.05
			c-5.716,0.098-11.432,0.29-17.147,0.268c-4.594-0.017-9.187-0.418-13.78-0.42c-5.754-0.003-11.508,0.263-17.263,0.348
			c-5.197,0.077-10.398,0.021-15.596,0.109c-5.635,0.095-11.267,0.368-16.902,0.418c-5.276,0.047-10.553-0.091-15.83-0.157
			c-2.598-0.033-5.196-0.093-7.794-0.131c-4.516-0.067-9.032-0.155-13.549-0.18c-3.916-0.022-7.832,0.032-11.748,0.052
			c-0.626,0.003-1.251,0-1.85,0c-0.451,2.548-0.354,4.117,0.155,6.425c0.213,0.967,0.677,1.355,1.628,1.299
			c1.236-0.074,2.475-0.172,3.711-0.153c1.091,0.017,2.18,0.18,3.283,0.279c0.067,0.667,0.141,1.101,0.15,1.536
			c0.087,4.157,0.203,8.313,0.232,12.47c0.025,3.438,0.003,6.877-0.104,10.313c-0.11,3.514-0.326,7.025-0.547,10.535
			c-0.069,1.093-0.308,2.176-0.483,3.353c-0.591-0.062-1.022-0.083-1.443-0.158c-1.137-0.202-2.263-0.497-3.407-0.621
			c-1.146-0.124-2.103,0.269-2.6,1.463c1.19,1.289,2.702,1.481,4.294,1.465C26.828,106.997,28.074,106.804,29.432,107.475z
			 M71.754,27.933c2.35-0.204,4.613-0.381,6.872-0.607c0.724-0.073,1.146,0.301,1.459,0.825c0.409,0.683,0.686,1.448,1.125,2.107
			c0.367,0.55,0.811,1.112,1.353,1.465c0.859,0.56,1.371,0.279,1.714-0.692c0.373-1.055,0.023-2.005-0.515-2.841
			c-0.797-1.238-1.674-2.436-2.619-3.565c-1.506-1.798-2.657-3.769-3.412-5.993c-0.396-1.166-0.887-2.305-1.415-3.419
			c-0.254-0.537-0.693-0.987-1.118-1.572c-0.242,0.33-0.354,0.442-0.418,0.576c-1.11,2.341-2.248,4.67-3.309,7.033
			c-1.159,2.58-2.272,5.182-3.345,7.799c-0.217,0.529-0.294,1.189-0.199,1.749c0.083,0.49,0.406,1.158,0.796,1.313
			c0.369,0.147,1.06-0.15,1.439-0.46C71.28,30.74,71.692,29.452,71.754,27.933z M87.456,21.802c-0.125-0.201-0.203-0.484-0.38-0.577
			c-0.467-0.245-1.007-0.597-1.461-0.529c-0.275,0.041-0.577,0.768-0.632,1.215c-0.077,0.619,0.007,1.277,0.127,1.898
			c0.414,2.147,0.849,4.292,1.334,6.423c0.109,0.479,0.363,1.003,0.714,1.331c0.724,0.674,1.592,0.368,1.715-0.608
			c0.11-0.861,0.007-1.747,0.033-2.62c0.037-1.27-0.037-2.565,0.198-3.8c0.25-1.316,1.457-1.877,3.141-1.742
			c1.053,0.085,1.631,0.67,1.824,2.009c0.146,1.026,0.162,2.069,0.271,3.102c0.101,0.951,0.179,1.931,0.967,2.624
			c0.773,0.679,1.477,0.55,1.66-0.445c0.205-1.117,0.107-2.289,0.15-3.436c0.029-0.753,0.008-1.517,0.135-2.254
			c0.107-0.625,0.494-1.046,1.246-1.047c1.842-0.003,3.238,0.976,3.466,2.799c0.206,1.649,0.128,3.337,0.131,5.008
			c0.001,0.761,0.688,1.406,1.332,1.098c0.297-0.142,0.546-0.467,0.722-0.765c1.597-2.716,1.17-5.388-0.363-7.93
			c-1.65-2.738-4.921-4.456-8.271-2.089c-0.058,0.041-0.146,0.038-0.22,0.056C93.282,19.24,90.752,19.323,87.456,21.802z
			 M97.714,47.29c0.051,1.941,0.518,2.333,2.206,1.96c0.43-0.095,0.854-0.248,1.286-0.27c0.52-0.026,1.044,0.06,1.566,0.098
			c0.05,0.114,0.099,0.227,0.147,0.341c-0.344,0.508-0.613,1.091-1.045,1.509c-1.452,1.409-3.26,1.298-5.074,1.041
			c-0.642-0.091-1.063-0.454-1.354-1.041c-1.023-2.065-0.999-4.171-0.172-6.258c0.301-0.757,0.807-1.472,1.355-2.084
			c1.186-1.322,3.779-1.517,4.965,0.134c0.521,0.726,1.179,1.459,2.285,1.076c0.094-2.197-1.397-4.033-3.519-4.464
			c-3.894-0.792-9.284,2.767-8.243,8.109c0.812,4.167,4.309,7.289,8.266,6.997c1.085-0.081,2.144-0.512,3.311-0.807
			c0.087,0.659,0.184,1.389,0.299,2.261c0.889-0.102,1.695-0.194,2.516-0.289c0-1.054,0.087-2.014-0.018-2.952
			c-0.19-1.697-0.475-3.384-0.761-5.067c-0.112-0.658-0.57-0.935-1.247-1.082C102.106,45.984,99.93,46.791,97.714,47.29z
			 M75.013,54.634c2.655-0.161,5.162-0.729,7.392-2.204c1.293-0.856,2.319-1.97,2.773-3.5c0.625-2.102-0.157-3.869-1.479-5.414
			c-2.365-2.761-5.447-4.218-9.01-4.75c-1.744-0.26-2.378,0.053-3.005,1.716c-0.208,0.552-0.412,1.16-0.393,1.734
			c0.077,2.304,0.25,4.605,0.373,6.909c0.072,1.351,0.788,2.712-0.205,4.048c-0.414,0.556,0.107,0.901,0.609,1
			C73.041,54.367,74.03,54.485,75.013,54.634z M27.762,47.126c0.579-0.125,1.032-0.275,1.494-0.313
			c2.462-0.197,2.463-0.188,2.108-2.603c-0.011-0.074-0.065-0.142-0.167-0.354c-1.185,0-2.437,0-3.87,0c0-0.913,0-1.734,0-2.73
			c2.125-0.03,4.075-0.075,6.024-0.073c0.449,0.001,0.806-0.02,0.907-0.524c0.146-0.728,0.271-1.46,0.42-2.277
			c-3.347-1.068-6.515-0.867-9.642,0.37c-0.544,5.068,1.006,9.867,1.242,14.898c0.538,0,0.972,0.013,1.405-0.002
			c2.194-0.078,4.388-0.155,6.582-0.249c1.172-0.05,1.292-0.158,1.422-1.284c0.049-0.421,0.008-0.854,0.008-1.283
			c-2.423-0.705-4.813,0.013-7.335-0.081C28.159,49.45,27.969,48.337,27.762,47.126z M55.439,50.229
			c0.239,0.694,0.457,1.455,0.762,2.179c0.306,0.726,0.65,1.446,1.078,2.104c0.154,0.237,0.611,0.423,0.909,0.397
			c1.143-0.101,1.853-1.289,1.393-2.371c-0.592-1.391-1.282-2.74-1.919-4.113c-1.322-2.85-2.632-5.705-3.96-8.551
			c-0.2-0.429-0.476-0.823-0.716-1.233c-0.313,0.328-0.63,0.652-0.936,0.986c-0.08,0.086-0.131,0.2-0.187,0.305
			c-2.169,4.126-4.348,8.248-6.486,12.39c-0.144,0.278-0.117,0.81,0.062,1.055c0.329,0.449,0.83,0.772,1.387,1.26
			c0.435-1.009,0.754-1.814,1.126-2.594c0.272-0.571,0.561-1.13,1.34-1.199C51.271,50.672,53.247,50.453,55.439,50.229z
			 M124.568,48.281c0,0.737,0.001,1.411,0,2.085c-0.002,1.236-0.044,2.475,0.016,3.708c0.017,0.34,0.334,0.944,0.517,0.945
			c0.516,0.003,1.096-0.143,1.53-0.42c0.427-0.272,1.003-0.612,0.786-1.328c-0.737-2.433-0.438-4.902-0.315-7.374
			c0.055-1.106-0.003-2.244-0.201-3.332c-0.254-1.397-1.049-2.463-2.561-3.027c-0.085,0.533-0.225,0.996-0.218,1.458
			c0.013,1.036,0.055,2.076,0.169,3.105c0.094,0.848-0.138,1.333-1.021,1.566c-1.579,0.418-3.126,0.366-4.867-0.038
			c0-1.668,0.018-3.303-0.016-4.937c-0.007-0.315-0.128-0.803-0.344-0.908c-0.784-0.383-1.632-0.638-2.454-0.941
			c-0.053,0.081-0.104,0.161-0.157,0.242c0.775,1.983,0.709,4.054,0.712,6.118c0.003,1.677-0.047,3.357,0.032,5.03
			c0.041,0.863,0.224,1.744,0.499,2.564c0.306,0.911,0.701,1.022,1.925,0.749c0.089-1.536,0.18-3.117,0.272-4.71
			C120.409,48.043,122.346,47.835,124.568,48.281z M138.59,39.919c0.325,5.035,0.638,9.876,0.955,14.801
			c2.582,0,5.095,0.037,7.605-0.017c1.114-0.023,2.099-0.428,2.623-1.611c-0.833-0.749-1.819-1.028-2.865-1.017
			c-1.436,0.017-2.873,0.107-4.306,0.215c-0.678,0.051-1.061-0.204-1.214-0.846c-0.074-0.311-0.164-0.619-0.21-0.935
			c-0.135-0.925,0.109-1.247,1.066-1.314c0.556-0.039,1.118,0.04,1.677,0.034c0.626-0.007,1.251-0.051,2.075-0.088
			c-0.138-1.034-0.254-1.911-0.384-2.887c-1.472,0.096-2.843,0.186-4.172,0.272c-0.212-1.425-0.399-2.683-0.606-4.071
			c0.684,0.052,1.115,0.097,1.547,0.115c1.475,0.062,2.957,0.233,4.422,0.14c1.956-0.124,1.943-0.576,1.652-2.435
			c-0.085-0.541-0.415-0.793-1.017-0.751c-1.075,0.076-2.156,0.066-3.234,0.114C142.42,39.72,140.634,39.816,138.59,39.919z"/>
		<path style="fill-rule:evenodd;clip-rule:evenodd;" d="M29.432,107.475c-1.358-0.671-2.604-0.478-3.824-0.466
			c-1.592,0.016-3.104-0.176-4.294-1.465c0.498-1.194,1.455-1.587,2.6-1.463c1.145,0.124,2.27,0.419,3.407,0.621
			c0.421,0.074,0.852,0.095,1.443,0.158c0.175-1.177,0.414-2.26,0.483-3.353c0.222-3.509,0.437-7.021,0.547-10.535
			c0.107-3.436,0.129-6.875,0.104-10.313c-0.03-4.157-0.145-8.313-0.232-12.47c-0.009-0.435-0.083-0.869-0.15-1.536
			c-1.103-0.099-2.192-0.262-3.283-0.279c-1.236-0.019-2.475,0.08-3.711,0.153c-0.951,0.056-1.415-0.332-1.628-1.299
			c-0.509-2.308-0.606-3.877-0.155-6.425c0.599,0,1.224,0.002,1.85,0c3.916-0.02,7.833-0.074,11.748-0.052
			c4.517,0.025,9.033,0.113,13.549,0.18c2.598,0.039,5.196,0.099,7.794,0.131c5.277,0.066,10.554,0.205,15.83,0.157
			c5.635-0.05,11.267-0.323,16.902-0.418c5.198-0.088,10.399-0.032,15.596-0.109c5.755-0.085,11.509-0.351,17.263-0.348
			c4.594,0.002,9.187,0.403,13.78,0.42c5.716,0.021,11.432-0.17,17.147-0.268c0.959-0.017,1.923,0.021,2.878-0.05
			c0.733-0.055,0.984,0.323,1.126,0.93c0.543,2.334,0.18,4.679,0.226,7.14c-3.868-0.513-7.597-0.954-11.515,0.066
			c0,12.222,0,24.479,0,36.972c0.726,0.076,1.616,0.197,2.511,0.258c1.827,0.125,3.663,0.16,5.482,0.353
			c0.726,0.077,1.417,0.475,2.189,0.75c-0.554,1.114-1.451,1.6-2.458,1.598c-1.707-0.002-3.414-0.203-5.121-0.328
			c-0.632-0.046-1.264-0.111-2.039-0.18c-1.266,14.753-1.056,29.429-0.532,44.117c1.29,0.623,2.501,0.068,3.709,0.011
			c0.756-0.036,1.509-0.183,2.263-0.179c1.414,0.007,1.759,0.336,2.072,1.81c-0.752,0.853-1.755,1.024-2.821,0.933
			c-1.152-0.102-2.298-0.279-3.449-0.391c-0.467-0.046-0.942-0.008-1.566-0.008c0,2.635,0.024,5.146-0.004,7.656
			c-0.064,5.637-0.164,11.272-0.232,16.909c-0.054,4.478-0.104,8.956-0.113,13.434c-0.003,1.63,0.119,3.26,0.191,5.065
			c0.998,0.08,1.937,0.172,2.876,0.226c1.272,0.073,2.567-0.009,3.814,0.203c1.887,0.319,2.486,1.269,2.302,3.351
			c-3.127,0-6.268,0-9.526,0c-0.08,0.462-0.219,0.877-0.213,1.291c0.033,2.597,0.135,5.193,0.143,7.79
			c0.006,1.954-0.063,3.911-0.164,5.863c-0.051,0.98-0.406,1.133-1.337,0.702c-0.325-0.149-0.636-0.331-1.091-0.571
			c0.834-4.962,0.201-9.955-0.055-15.119c-6.1,0-12.12,0-18.336,0c-0.048,1.183-0.178,2.486-0.135,3.784
			c0.061,1.835,0.266,3.665,0.378,5.499c0.131,2.122-0.277,3.768-1.285,5.287c-0.842-0.14-1.356-0.675-1.408-1.5
			s-0.045-1.698,0.166-2.488c0.581-2.172,0.624-4.309,0.128-6.507c-0.285-1.266-0.309-2.59-0.473-4.089c-6.321,0-12.737,0-19.399,0
			c-0.185,1.479-0.512,3.081-0.557,4.691c-0.059,2.114,0.139,4.233,0.158,6.352c0.012,1.155-0.145,2.312-0.166,3.47
			c-0.012,0.605-0.292,0.84-0.84,0.945c-1.516,0.292-2.272-0.542-2.125-2.081c0.264-2.741,0.418-5.494,0.545-8.246
			c0.076-1.626,0.015-3.259,0.015-4.994c-6.774,0-13.669,0-20.695,0c-0.074,0.458-0.223,0.915-0.207,1.366
			c0.077,2.275,0.274,4.55,0.273,6.824c-0.001,1.297-0.21,2.614-0.496,3.884c-0.212,0.944-0.84,1.699-2.044,2.208
			c-0.208-1.443-0.55-2.765-0.56-4.089c-0.022-2.796,0.131-5.593,0.207-8.389c0.013-0.475,0.002-0.949,0.002-1.637
			c-7.264,0-14.433,0-21.728,0c-0.214,5.165,0.595,10.479-0.263,15.933c-0.619-0.173-1.164-0.324-1.868-0.521
			c0-2.522-0.001-4.992,0-7.463c0.001-2.236-0.024-4.473,0.022-6.708c0.016-0.804-0.275-1.102-1.062-1.233
			c-3.042-0.509-6.062,0.014-9.093,0.072c-2.193,0.042-4.388,0.002-6.582-0.001c-0.316-0.001-0.633,0-1.024,0
			c-1.303,4.857-0.112,9.793-0.506,14.688c-0.707,0.42-1.405,0.835-2.303,1.367c-0.097-0.812-0.201-1.388-0.229-1.966
			c-0.193-4.072-0.367-8.146-0.557-12.218c-0.071-1.527-0.081-1.648-1.618-1.7c-1.334-0.045-2.681,0.204-4.017,0.371
			c-0.582,0.072-1.149,0.263-1.896,0.441c-0.365-1.011-0.706-1.954-1.118-3.097c2.97-0.149,5.656-0.285,8.38-0.423
			c0-1.697,0.011-3.358-0.002-5.019c-0.045-5.718-0.22-11.438-0.118-17.152c0.117-6.593,0.472-13.181,0.729-19.771
			c0.05-1.298,0.035-1.506-1.257-1.701c-1.283-0.193-2.616-0.055-3.926-0.074c-0.991-0.014-1.988,0.016-2.969-0.098
			c-0.633-0.073-1.445-0.454-1.273-1.135c0.128-0.507,0.902-1.123,1.453-1.196c1.21-0.16,2.462-0.026,3.695,0.025
			c1.146,0.049,2.291,0.147,3.584,0.235c0.116-1.864,0.301-3.566,0.315-5.271c0.049-6.036,0.077-12.075,0.039-18.111
			c-0.026-4.157-0.196-8.312-0.261-12.47C29.398,112.604,29.432,110.012,29.432,107.475z M74.849,195.984
			c1.145-14.104,0.757-28.027,0.492-41.801c-7.247,0-14.372,0-21.576,0c0.081,0.973,0.243,1.843,0.21,2.706
			c-0.154,4.029-0.361,8.057-0.551,12.085c-0.169,3.59-0.396,7.173,0.494,10.726c0.267,1.064,0.318,2.221,0.253,3.322
			c-0.201,3.429-0.523,6.849-0.76,10.275c-0.078,1.126-0.181,2.271,0.112,3.454C60.641,195.76,67.68,196.194,74.849,195.984z
			 M98.867,153.872c-7.203,0.093-14.241,0.185-21.324,0.275c0,2.508,0.037,4.814-0.012,7.118c-0.039,1.838-0.178,3.662,0.51,5.44
			c0.208,0.537,0.228,1.178,0.205,1.766c-0.137,3.471-0.433,6.939-0.445,10.41c-0.02,5.672,0.136,11.344,0.225,17.016
			c0.001,0.104,0.093,0.207,0.139,0.304c6.882,0,13.739,0,20.724,0C98.699,182.086,99.638,168.08,98.867,153.872z M101.342,153.896
			c-0.021,0.365-0.057,0.635-0.048,0.902c0.054,1.758,0.189,3.516,0.163,5.271c-0.08,5.275-0.266,10.549-0.33,15.823
			c-0.068,5.757-0.062,11.516-0.055,17.273c0.002,1.098,0.16,2.195,0.262,3.499c6.747-0.124,13.358-0.246,20.058-0.37
			c0.067-14.427,1.051-28.626,0.192-42.874C114.787,153.582,108.095,153.738,101.342,153.896z M123.461,150.475
			c6.38,0.721,12.565-0.184,18.812-0.294c0.487-14.673-0.77-29.187-0.5-43.686c-2.379-0.45-17.513-0.227-19.009,0.242
			C121.65,121.291,123.456,135.791,123.461,150.475z M97.969,66.347c-7.096,0-14.111,0-21.089,0c0,12.755,0,25.402,0,38.169
			c7.05,0.686,14.103,0.138,21.239,0.125c0.105-0.65,0.286-1.231,0.281-1.811c-0.023-2.431-0.109-4.861-0.157-7.292
			c-0.026-1.357-0.238-2.756,0.015-4.062c0.378-1.954,0.38-3.883,0.286-5.838c-0.191-3.99-0.424-7.979-0.561-11.97
			C97.901,71.28,97.969,68.887,97.969,66.347z M53.698,66.805c-0.117,2.344-0.28,4.49-0.321,6.638
			c-0.132,6.79-0.268,13.579-0.303,20.369c-0.017,3.313,0.195,6.626,0.282,9.94c0.017,0.655,0.163,1.042,0.942,1.031
			c6.27-0.083,12.541-0.137,18.811-0.212c0.381-0.004,0.761-0.114,1.212-0.187c0-0.55-0.003-0.984,0.001-1.419
			c0.035-3.396,0.012-6.793,0.12-10.188c0.213-6.743,0.662-13.482,0.25-20.233c-0.123-2.021-0.225-4.042-0.341-6.155
			C67.431,66.529,60.653,66.665,53.698,66.805z M32.842,151.074c5.954,0,11.766,0,17.68,0c0.738-14.499,0.572-29.016-0.009-43.68
			c-6.248,0.574-12.372-0.388-18.544-0.052C31.629,122.045,32.681,136.523,32.842,151.074z M123.538,153.627
			c0.815,14.077-0.058,27.998-0.33,41.925c-0.004,0.188,0.078,0.376,0.142,0.656c6.145-0.395,12.285,0.243,18.404-0.529
			c0.804-14.34,1.075-28.531,0.485-42.973C135.995,153.014,129.868,153.315,123.538,153.627z M51.027,196.765
			c0.764-14.274,0.057-28.39,0.048-42.646c-6.177,0.021-12.174-0.858-18.262-0.2c-0.051,0.451-0.122,0.841-0.134,1.232
			c-0.073,2.276-0.189,4.554-0.184,6.83c0.009,3.837,0.089,7.674,0.157,11.51c0.133,7.552,0.277,15.103,0.423,22.653
			c0.005,0.263,0.079,0.524,0.141,0.913C39.141,196.96,45.007,196.863,51.027,196.765z M121.146,150.473
			c0-2.708,0.077-5.26-0.015-7.807c-0.241-6.667-0.635-13.329-0.815-19.998c-0.138-5.072-0.041-10.152-0.052-15.229
			c-0.001-0.343-0.035-0.686-0.062-1.181c-6.521,0.175-12.937,0.348-19.531,0.525c-0.352,7.595,0.898,15.021,0.563,22.491
			c1.157,0.562,2.245,1.062,3.306,1.611c1.119,0.58,2.048,1.375,2.672,2.502c1.682,3.03,1.168,6.905-1.227,9.436
			c-1.264,1.334-2.834,1.998-4.486,2.197c0,2.027,0,3.959,0,5.978C108.195,150.928,114.706,151.213,121.146,150.473z
			 M53.478,107.613c-0.066,0.642-0.168,1.188-0.172,1.735c-0.035,4.673-0.095,9.345-0.063,14.018
			c0.059,8.591,0.176,17.183,0.267,25.772c0.006,0.592,0,1.182,0,1.9c7.222,0.576,14.343-0.358,21.609-0.071
			c-0.111-4.577-0.219-8.993-0.326-13.431c-0.387-0.086-0.734-0.184-1.087-0.237c-2.33-0.358-4.125-1.595-5.219-3.619
			c-0.687-1.271-1.207-2.72-1.411-4.146c-0.509-3.563,1.042-8.078,5.947-8.999c0.38-0.071,0.767-0.11,1.223-0.175
			c-0.247-4.393,0.264-8.751-0.707-13.224C66.875,108.272,60.211,107.347,53.478,107.613z M32.612,66.66
			c-0.31,1.456-0.679,36.623-0.414,37.789c0.207,0.032,0.438,0.091,0.67,0.102c1.478,0.068,2.955,0.122,4.433,0.187
			c4.198,0.185,8.387,0.135,12.568-0.343c0.71-0.081,0.969-0.378,0.933-1.076c-0.065-1.237-0.115-2.477-0.107-3.714
			c0.048-6.875,0.107-13.751,0.18-20.627c0.033-3.117,0.112-6.233,0.163-9.35c0.015-0.902,0.002-1.805,0.002-2.762
			C44.783,66.28,38.719,66.715,32.612,66.66z M98.943,145.682c-5.34-0.373-8.166-2.994-8.436-7.75
			c-0.133-2.342,0.397-4.523,1.852-6.418c1.619-2.108,3.867-2.831,6.567-2.766c-0.155-7.246-0.308-14.371-0.464-21.692
			c-7.194,0.107-14.167,0.212-21.202,0.317c-0.663,4.478-0.227,8.856-0.246,13.207c4.638,1.059,6.229,4.549,6.396,8.371
			c0.083,1.897-0.344,3.733-1.38,5.373c-1.104,1.748-2.732,2.748-4.718,3.133c0.099,4.479,0.196,8.852,0.294,13.297
			c7.206,0.363,14.326,0.446,21.335-0.024C98.943,148.914,98.943,147.29,98.943,145.682z M120.573,66.393
			c-6.659,0-13.192,0-19.786,0c-0.573,12.694-0.666,25.3,0.253,37.902c0.185,0.051,0.296,0.108,0.405,0.108
			c5.639-0.012,11.276-0.021,16.914-0.052c0.62-0.003,1.24-0.126,1.862-0.194c0-1.883,0-3.628,0-5.159
			c-1.205-0.691-2.39-1.153-3.301-1.934c-2.84-2.432-3.85-5.66-3.324-9.274c0.43-2.959,2.223-4.882,5.211-5.556
			c0.541-0.122,1.093-0.19,1.766-0.305C120.573,76.798,120.573,71.662,120.573,66.393z M142.107,103.847c0-12.583,0-24.847,0-37.187
			c-0.466-0.073-0.812-0.17-1.158-0.175c-4.277-0.065-8.555-0.12-12.832-0.17c-1.156-0.014-2.313,0.023-3.469-0.02
			c-0.708-0.026-1.019,0.234-1.054,0.948c-0.039,0.796-0.212,1.586-0.238,2.382c-0.102,3.075-0.174,6.151-0.242,9.227
			c-0.023,1.027-0.004,2.055-0.004,3.126c2.418,0.409,4.269,1.656,5.509,3.796c1.174,2.025,1.423,4.224,1.192,6.489
			c-0.373,3.657-2.676,6.069-6.272,6.674c-0.271,0.045-0.534,0.138-0.916,0.239c0,1.619,0,3.236,0,4.971
			c0.999-0.064,2.024-0.194,3.048-0.184c3.517,0.035,7.032,0.162,10.548,0.166C138.122,104.128,140.026,103.952,142.107,103.847z"/>
		<path style="fill-rule:evenodd;clip-rule:evenodd;" d="M72.754,24.933c-0.062,1.52-0.475,2.807-1.591,3.718
			c-0.379,0.31-1.071,0.608-1.439,0.46c-0.39-0.155-0.712-0.823-0.796-1.313c-0.095-0.56-0.018-1.22,0.199-1.749
			c1.073-2.617,2.186-5.219,3.345-7.799c1.062-2.363,2.199-4.692,3.309-7.033c0.063-0.134,0.176-0.246,0.418-0.576
			c0.425,0.584,0.863,1.035,1.118,1.572c0.528,1.114,1.019,2.253,1.415,3.419c0.755,2.224,1.906,4.195,3.412,5.993
			c0.945,1.129,1.822,2.327,2.619,3.565c0.538,0.836,0.888,1.787,0.515,2.841c-0.343,0.971-0.855,1.251-1.714,0.692
			c-0.542-0.354-0.986-0.916-1.353-1.465c-0.439-0.659-0.716-1.425-1.125-2.107c-0.314-0.524-0.736-0.898-1.459-0.825
			C77.368,24.552,75.104,24.729,72.754,24.933z M74.039,22.118c1.551-0.261,2.79-0.47,4.027-0.678
			c0.014-0.098,0.028-0.195,0.042-0.292c-1.017-0.976-0.908-2.647-2.28-3.587C75.241,19.055,74.701,20.431,74.039,22.118z"/>
		<path style="fill-rule:evenodd;clip-rule:evenodd;" d="M88.456,18.802c3.296-2.479,5.826-2.562,7.839-0.282
			c0.074-0.018,0.162-0.015,0.22-0.056c3.35-2.366,6.62-0.648,8.271,2.089c1.533,2.542,1.96,5.214,0.363,7.93
			c-0.176,0.298-0.425,0.623-0.722,0.765c-0.645,0.308-1.331-0.337-1.332-1.098c-0.003-1.671,0.075-3.358-0.131-5.008
			c-0.228-1.824-1.624-2.802-3.466-2.799c-0.752,0.001-1.139,0.423-1.246,1.047c-0.127,0.737-0.105,1.501-0.135,2.254
			c-0.043,1.147,0.055,2.319-0.15,3.436c-0.184,0.995-0.887,1.124-1.66,0.445c-0.788-0.692-0.866-1.673-0.967-2.624
			c-0.109-1.032-0.125-2.076-0.271-3.102c-0.193-1.339-0.771-1.924-1.824-2.009c-1.684-0.135-2.891,0.426-3.141,1.742
			c-0.234,1.235-0.16,2.531-0.197,3.8c-0.025,0.874,0.076,1.759-0.033,2.62c-0.123,0.976-0.992,1.282-1.715,0.608
			c-0.352-0.328-0.605-0.853-0.714-1.331c-0.486-2.132-0.92-4.276-1.334-6.423c-0.12-0.621-0.204-1.279-0.127-1.898
			c0.056-0.448,0.357-1.175,0.632-1.215c0.455-0.067,0.994,0.285,1.461,0.529C88.253,18.317,88.331,18.601,88.456,18.802z"/>
		<path style="fill-rule:evenodd;clip-rule:evenodd;" d="M97.714,47.29c2.216-0.499,4.393-1.306,6.771-0.788
			c0.677,0.147,1.135,0.424,1.247,1.082c0.286,1.684,0.57,3.371,0.761,5.067c0.104,0.938,0.018,1.898,0.018,2.952
			c-0.82,0.094-1.627,0.187-2.516,0.289c-0.115-0.873-0.212-1.602-0.299-2.261c-1.167,0.294-2.226,0.726-3.311,0.807
			c-3.957,0.292-7.453-2.829-8.266-6.997c-1.041-5.342,4.35-8.901,8.243-8.109c2.121,0.431,3.612,2.267,3.519,4.464
			c-1.106,0.383-1.764-0.35-2.285-1.076c-1.186-1.65-3.779-1.456-4.965-0.134c-0.549,0.612-1.055,1.327-1.355,2.084
			c-0.827,2.086-0.852,4.192,0.172,6.258c0.29,0.587,0.712,0.95,1.354,1.041c1.814,0.257,3.622,0.368,5.074-1.041
			c0.432-0.418,0.701-1.001,1.045-1.509c-0.049-0.114-0.098-0.227-0.147-0.341c-0.522-0.038-1.047-0.124-1.566-0.098
			c-0.432,0.021-0.856,0.175-1.286,0.27C98.231,49.623,97.765,49.231,97.714,47.29z"/>
		<path style="fill-rule:evenodd;clip-rule:evenodd;" d="M75.013,54.634c-0.983-0.149-1.972-0.267-2.946-0.46
			c-0.502-0.1-1.022-0.444-0.609-1c0.993-1.335,0.277-2.697,0.205-4.048c-0.123-2.303-0.296-4.604-0.373-6.909
			c-0.019-0.574,0.184-1.182,0.393-1.734c0.627-1.663,1.261-1.976,3.005-1.716c3.563,0.532,6.646,1.989,9.01,4.75
			c1.323,1.545,2.104,3.312,1.479,5.414c-0.454,1.53-1.479,2.643-2.773,3.5C80.175,53.906,77.668,54.473,75.013,54.634z
			 M74.143,51.854c2.062-0.026,4.723-0.754,6.079-1.588c1.733-1.067,2.534-2.866,1.828-4.58c-0.314-0.764-0.923-1.541-1.608-1.993
			c-2.002-1.321-4.289-1.681-6.864-1.683C73.771,45.38,73.955,48.583,74.143,51.854z"/>
		<path style="fill-rule:evenodd;clip-rule:evenodd;" d="M27.762,47.126c0.207,1.211,0.397,2.324,0.598,3.495
			c2.522,0.094,4.912-0.624,7.335,0.081c0,0.43,0.041,0.862-0.008,1.283c-0.13,1.126-0.25,1.234-1.422,1.284
			c-2.193,0.094-4.388,0.171-6.582,0.249c-0.433,0.015-0.867,0.002-1.405,0.002c-0.236-5.031-1.786-9.83-1.242-14.898
			c3.127-1.237,6.295-1.438,9.642-0.37c-0.149,0.816-0.274,1.549-0.42,2.277c-0.101,0.504-0.458,0.525-0.907,0.524
			c-1.949-0.002-3.899,0.042-6.024,0.073c0,0.996,0,1.817,0,2.73c1.433,0,2.685,0,3.87,0c0.102,0.212,0.156,0.28,0.167,0.354
			c0.355,2.415,0.354,2.406-2.108,2.603C28.793,46.851,28.34,47.001,27.762,47.126z"/>
		<path style="fill-rule:evenodd;clip-rule:evenodd;" d="M55.439,50.229c-2.193,0.224-4.168,0.442-6.146,0.617
			c-0.78,0.069-1.068,0.627-1.34,1.199c-0.373,0.78-0.692,1.585-1.126,2.594c-0.558-0.488-1.059-0.811-1.387-1.26
			c-0.179-0.245-0.206-0.776-0.062-1.055c2.138-4.143,4.316-8.264,6.486-12.39c0.056-0.105,0.107-0.219,0.187-0.305
			c0.306-0.334,0.623-0.658,0.936-0.986c0.241,0.41,0.516,0.804,0.716,1.233c1.329,2.846,2.638,5.702,3.96,8.551
			c0.637,1.373,1.327,2.722,1.919,4.113c0.46,1.082-0.25,2.27-1.393,2.371c-0.298,0.026-0.755-0.16-0.909-0.397
			c-0.428-0.658-0.772-1.378-1.078-2.104C55.896,51.685,55.678,50.923,55.439,50.229z M52.32,44.746
			c-0.693,1.119-1.344,2.17-2.092,3.376c1.487,0.24,2.763,0.533,4.052-0.342C53.668,46.755,53.799,45.423,52.32,44.746z"/>
		<path style="fill-rule:evenodd;clip-rule:evenodd;" d="M124.568,48.281c-2.223-0.446-4.159-0.238-5.695,0.555
			c-0.093,1.593-0.184,3.174-0.272,4.71c-1.224,0.273-1.619,0.162-1.925-0.749c-0.275-0.82-0.458-1.702-0.499-2.564
			c-0.079-1.673-0.029-3.353-0.032-5.03c-0.003-2.063,0.063-4.134-0.712-6.118c0.053-0.081,0.104-0.161,0.157-0.242
			c0.822,0.303,1.67,0.558,2.454,0.941c0.216,0.105,0.337,0.593,0.344,0.908c0.033,1.634,0.016,3.269,0.016,4.937
			c1.741,0.404,3.288,0.456,4.867,0.038c0.883-0.234,1.114-0.718,1.021-1.566c-0.114-1.029-0.156-2.069-0.169-3.105
			c-0.007-0.461,0.133-0.924,0.218-1.458c1.512,0.564,2.307,1.63,2.561,3.027c0.198,1.088,0.256,2.225,0.201,3.332
			c-0.122,2.472-0.422,4.941,0.315,7.374c0.217,0.715-0.359,1.056-0.786,1.328c-0.435,0.277-1.015,0.423-1.53,0.42
			c-0.183-0.001-0.5-0.605-0.517-0.945c-0.06-1.233-0.018-2.472-0.016-3.708C124.569,49.692,124.568,49.018,124.568,48.281z"/>
		<path style="fill-rule:evenodd;clip-rule:evenodd;" d="M138.59,39.919c2.044-0.103,3.83-0.2,5.615-0.279
			c1.078-0.048,2.159-0.039,3.234-0.114c0.602-0.042,0.932,0.21,1.017,0.751c0.291,1.859,0.304,2.311-1.652,2.435
			c-1.465,0.093-2.947-0.078-4.422-0.14c-0.432-0.018-0.863-0.063-1.547-0.115c0.207,1.388,0.395,2.646,0.606,4.071
			c1.329-0.086,2.7-0.176,4.172-0.272c0.13,0.976,0.246,1.853,0.384,2.887c-0.824,0.037-1.449,0.081-2.075,0.088
			c-0.559,0.006-1.121-0.072-1.677-0.034c-0.957,0.067-1.201,0.389-1.066,1.314c0.046,0.315,0.136,0.624,0.21,0.935
			c0.153,0.642,0.536,0.896,1.214,0.846c1.433-0.107,2.87-0.198,4.306-0.215c1.046-0.012,2.032,0.268,2.865,1.017
			c-0.524,1.183-1.509,1.587-2.623,1.611c-2.511,0.053-5.023,0.017-7.605,0.017C139.228,49.796,138.915,44.954,138.59,39.919z"/>
		<path style="fill-rule:evenodd;clip-rule:evenodd;fill:none;" d="M74.849,195.984c-7.168,0.21-14.208-0.225-21.325,0.768
			c-0.293-1.184-0.19-2.328-0.112-3.454c0.236-3.427,0.559-6.847,0.76-10.275c0.064-1.102,0.013-2.258-0.253-3.322
			c-0.891-3.553-0.663-7.136-0.494-10.726c0.19-4.028,0.397-8.056,0.551-12.085c0.033-0.863-0.129-1.733-0.21-2.706
			c7.205,0,14.33,0,21.576,0C75.606,167.957,75.994,181.88,74.849,195.984z"/>
		<path style="fill-rule:evenodd;clip-rule:evenodd;fill:none;" d="M98.867,153.872c0.771,14.208-0.168,28.214,0.021,42.329
			c-6.984,0-13.842,0-20.724,0c-0.046-0.097-0.138-0.199-0.139-0.304c-0.089-5.672-0.245-11.344-0.225-17.016
			c0.012-3.471,0.309-6.939,0.445-10.41c0.023-0.588,0.002-1.229-0.205-1.766c-0.688-1.778-0.549-3.603-0.51-5.44
			c0.049-2.304,0.012-4.61,0.012-7.118C84.626,154.057,91.664,153.965,98.867,153.872z"/>
		<path style="fill-rule:evenodd;clip-rule:evenodd;fill:none;" d="M101.342,153.896c6.753-0.158,13.445-0.314,20.242-0.475
			c0.858,14.248-0.125,28.447-0.192,42.874c-6.699,0.124-13.311,0.246-20.058,0.37c-0.102-1.304-0.26-2.401-0.262-3.499
			c-0.007-5.758-0.014-11.517,0.055-17.273c0.064-5.274,0.25-10.548,0.33-15.823c0.026-1.756-0.109-3.514-0.163-5.271
			C101.285,154.531,101.32,154.262,101.342,153.896z"/>
		<path style="fill-rule:evenodd;clip-rule:evenodd;fill:none;" d="M123.461,150.475c-0.005-14.684-1.811-29.184-0.697-43.738
			c1.496-0.469,16.63-0.692,19.009-0.242c-0.27,14.5,0.987,29.013,0.5,43.686C136.026,150.291,129.841,151.195,123.461,150.475z"/>
		<path style="fill-rule:evenodd;clip-rule:evenodd;fill:none;" d="M97.969,66.347c0,2.54-0.067,4.933,0.015,7.32
			c0.137,3.992,0.369,7.98,0.561,11.97c0.094,1.955,0.092,3.884-0.286,5.838c-0.253,1.306-0.041,2.705-0.015,4.062
			c0.048,2.431,0.134,4.861,0.157,7.292c0.005,0.58-0.176,1.161-0.281,1.811c-7.137,0.014-14.189,0.562-21.239-0.125
			c0-12.767,0-25.414,0-38.169C83.857,66.347,90.873,66.347,97.969,66.347z"/>
		<path style="fill-rule:evenodd;clip-rule:evenodd;fill:none;" d="M53.698,66.805c6.955-0.14,13.732-0.276,20.653-0.415
			c0.116,2.113,0.218,4.135,0.341,6.155c0.412,6.751-0.037,13.49-0.25,20.233c-0.107,3.394-0.085,6.792-0.12,10.188
			c-0.004,0.435-0.001,0.87-0.001,1.419c-0.452,0.072-0.832,0.182-1.212,0.187c-6.271,0.075-12.541,0.128-18.811,0.212
			c-0.779,0.01-0.925-0.376-0.942-1.031c-0.087-3.314-0.299-6.627-0.282-9.94c0.035-6.79,0.17-13.58,0.303-20.369
			C53.418,71.295,53.581,69.149,53.698,66.805z"/>
		<path style="fill-rule:evenodd;clip-rule:evenodd;fill:none;" d="M32.842,151.074c-0.161-14.551-1.212-29.029-0.873-43.732
			c6.172-0.336,12.297,0.626,18.544,0.052c0.581,14.664,0.747,29.181,0.009,43.68C44.607,151.074,38.796,151.074,32.842,151.074z"/>
		<path style="fill-rule:evenodd;clip-rule:evenodd;fill:none;" d="M123.538,153.627c6.33-0.312,12.457-0.613,18.701-0.921
			c0.59,14.441,0.318,28.633-0.485,42.973c-6.119,0.772-12.26,0.135-18.404,0.529c-0.063-0.28-0.146-0.469-0.142-0.656
			C123.48,181.625,124.354,167.704,123.538,153.627z"/>
		<path style="fill-rule:evenodd;clip-rule:evenodd;fill:none;" d="M51.027,196.765c-6.02,0.099-11.886,0.195-17.812,0.292
			c-0.062-0.389-0.136-0.65-0.141-0.913c-0.146-7.551-0.29-15.102-0.423-22.653c-0.067-3.836-0.147-7.673-0.157-11.51
			c-0.005-2.276,0.111-4.554,0.184-6.83c0.013-0.392,0.083-0.781,0.134-1.232c6.088-0.658,12.084,0.221,18.262,0.2
			C51.083,168.375,51.791,182.49,51.027,196.765z"/>
		<path style="fill-rule:evenodd;clip-rule:evenodd;fill:none;" d="M121.146,150.473c-6.44,0.74-12.951,0.455-19.646,0.526
			c0-2.019,0-3.95,0-5.978c1.652-0.199,3.223-0.863,4.486-2.197c2.395-2.53,2.908-6.405,1.227-9.436
			c-0.624-1.127-1.553-1.922-2.672-2.502c-1.061-0.55-2.148-1.05-3.306-1.611c0.335-7.47-0.915-14.896-0.563-22.491
			c6.595-0.178,13.011-0.35,19.531-0.525c0.026,0.495,0.061,0.838,0.062,1.181c0.011,5.077-0.086,10.156,0.052,15.229
			c0.181,6.669,0.574,13.331,0.815,19.998C121.224,145.213,121.146,147.765,121.146,150.473z"/>
		<path style="fill-rule:evenodd;clip-rule:evenodd;fill:none;" d="M53.478,107.613c6.733-0.266,13.397,0.66,20.061-0.475
			c0.971,4.473,0.46,8.831,0.707,13.224c-0.456,0.064-0.842,0.104-1.223,0.175c-4.905,0.921-6.456,5.436-5.947,8.999
			c0.204,1.426,0.725,2.875,1.411,4.146c1.094,2.024,2.889,3.261,5.219,3.619c0.353,0.054,0.7,0.151,1.087,0.237
			c0.107,4.438,0.215,8.854,0.326,13.431c-7.267-0.287-14.388,0.647-21.609,0.071c0-0.719,0.005-1.309,0-1.9
			c-0.091-8.59-0.208-17.182-0.267-25.772c-0.032-4.673,0.029-9.345,0.063-14.018C53.31,108.801,53.412,108.255,53.478,107.613z
			 M62.434,113.598c0.961,0.916,1.141,1.804,0.612,2.751c-0.345,0.618-0.8,1.191-1.279,1.718c-0.724,0.797-1.547,1.506-2.254,2.316
			c-0.246,0.281-0.458,0.822-0.347,1.117c0.106,0.287,0.641,0.561,1,0.578c1.475,0.072,2.958,0.104,4.431,0.028
			c0.713-0.036,1.413-0.341,2.24-0.557c-0.811-1.548-2.318-1.168-3.453-1.694c0.264-0.314,0.508-0.57,0.712-0.854
			c1.172-1.628,1.505-3.423,0.911-5.333c-0.521-1.677-2.172-2.344-3.752-1.571c-1.085,0.53-1.854,1.39-2.292,2.503
			c-0.121,0.308-0.108,0.968,0.017,1.016c0.355,0.137,0.846,0.152,1.196,0.006c0.38-0.159,0.666-0.55,0.988-0.845
			C61.567,114.408,61.965,114.034,62.434,113.598z"/>
		<path style="fill-rule:evenodd;clip-rule:evenodd;fill:none;" d="M32.612,66.66c6.107,0.055,12.171-0.38,18.428,0.205
			c0,0.957,0.012,1.859-0.002,2.762c-0.05,3.117-0.129,6.233-0.163,9.35c-0.073,6.876-0.132,13.751-0.18,20.627
			c-0.008,1.238,0.042,2.478,0.107,3.714c0.036,0.698-0.223,0.995-0.933,1.076c-4.181,0.479-8.37,0.528-12.568,0.343
			c-1.478-0.065-2.955-0.119-4.433-0.187c-0.232-0.011-0.463-0.069-0.67-0.102C31.933,103.283,32.302,68.116,32.612,66.66z"/>
		<path style="fill-rule:evenodd;clip-rule:evenodd;fill:none;" d="M98.943,145.682c0,1.608,0,3.232,0,5.048
			c-7.01,0.471-14.13,0.388-21.335,0.024c-0.098-4.445-0.195-8.818-0.294-13.297c1.985-0.385,3.613-1.385,4.718-3.133
			c1.036-1.64,1.464-3.476,1.38-5.373c-0.168-3.822-1.758-7.312-6.396-8.371c0.019-4.351-0.417-8.729,0.246-13.207
			c7.036-0.105,14.008-0.21,21.202-0.317c0.156,7.321,0.309,14.446,0.464,21.692c-2.7-0.065-4.948,0.657-6.567,2.766
			c-1.454,1.895-1.984,4.076-1.852,6.418C90.777,142.688,93.604,145.309,98.943,145.682z M88.072,124.678
			c-0.368,0.854,0.158,3.09,0.648,3.357c0.132,0.072,0.307,0.08,0.465,0.088c1.338,0.068,2.628-0.105,3.807-0.797
			c1.623-0.951,2.122-2.448,1.327-4.156c-0.395-0.849-0.448-1.678-0.177-2.551c0.131-0.418,0.301-0.828,0.391-1.254
			c0.354-1.697-0.174-2.558-1.842-3.047c-1.157-0.339-2.282-0.219-3.385,0.242c-1.203,0.502-1.989,1.949-0.699,3.385
			c0.556-0.412,1.104-0.859,1.693-1.244c0.746-0.485,1.377-0.336,1.836,0.373c0.391,0.598,0.182,1.189-0.609,1.652
			c-0.445,0.26-1.049,0.378-1.336,0.75c-0.291,0.38-0.44,1.026-0.341,1.489c0.053,0.247,0.75,0.422,1.18,0.501
			c0.333,0.062,0.72-0.162,1.052-0.098c0.256,0.048,0.691,0.43,0.658,0.52c-0.258,0.689-0.518,1.414-0.959,1.988
			c-0.379,0.492-0.938,0.152-1.412-0.089C89.637,125.415,88.89,125.07,88.072,124.678z"/>
		<path style="fill-rule:evenodd;clip-rule:evenodd;fill:none;" d="M120.573,66.393c0,5.269,0,10.405,0,15.537
			c-0.673,0.114-1.225,0.183-1.766,0.305c-2.988,0.673-4.781,2.597-5.211,5.556c-0.525,3.614,0.484,6.842,3.324,9.274
			c0.911,0.781,2.096,1.243,3.301,1.934c0,1.531,0,3.276,0,5.159c-0.622,0.068-1.242,0.191-1.862,0.194
			c-5.638,0.031-11.275,0.041-16.914,0.052c-0.109,0-0.221-0.057-0.405-0.108c-0.919-12.602-0.826-25.208-0.253-37.902
			C107.381,66.393,113.914,66.393,120.573,66.393z M112.612,72.701c-3.139,0.043-5.887,2.496-5.945,5.135
			c1.091,0.307,2.104,0.4,2.828-0.758c0.153-0.245,0.503-0.365,0.892-0.63c0,0.717-0.002,1.194,0,1.67
			c0.002,0.479-0.038,0.962,0.021,1.434c0.087,0.704,0.201,1.412,0.396,2.093c0.071,0.25,0.368,0.55,0.618,0.615
			c0.702,0.184,1.603-0.751,1.548-1.494c-0.079-1.07-0.132-2.143-0.177-3.215C112.726,75.965,112.674,74.38,112.612,72.701z"/>
		<path style="fill-rule:evenodd;clip-rule:evenodd;fill:none;" d="M142.107,103.847c-2.081,0.105-3.985,0.281-5.889,0.28
			c-3.516-0.004-7.031-0.131-10.548-0.166c-1.023-0.01-2.049,0.12-3.048,0.184c0-1.734,0-3.352,0-4.971
			c0.382-0.101,0.646-0.193,0.916-0.239c3.597-0.604,5.899-3.017,6.272-6.674c0.23-2.265-0.019-4.464-1.192-6.489
			c-1.24-2.14-3.091-3.387-5.509-3.796c0-1.072-0.02-2.1,0.004-3.126c0.068-3.076,0.141-6.152,0.242-9.227
			c0.026-0.795,0.199-1.586,0.238-2.382c0.035-0.713,0.346-0.974,1.054-0.948c1.155,0.043,2.312,0.006,3.469,0.02
			c4.277,0.051,8.555,0.105,12.832,0.17c0.347,0.005,0.692,0.103,1.158,0.175C142.107,79,142.107,91.264,142.107,103.847z"/>
		<path style="fill-rule:evenodd;clip-rule:evenodd;fill:none;" d="M73.039,25.118c0.662-1.687,1.202-3.062,1.789-4.558
			c1.372,0.94,1.263,2.611,2.28,3.587c-0.014,0.098-0.027,0.195-0.042,0.292C75.829,24.648,74.59,24.856,73.039,25.118z"/>
		<path style="fill-rule:evenodd;clip-rule:evenodd;fill:none;" d="M74.143,51.854c-0.188-3.271-0.371-6.474-0.564-9.845
			c2.575,0.002,4.862,0.362,6.864,1.683c0.685,0.452,1.293,1.229,1.608,1.993c0.706,1.714-0.095,3.513-1.828,4.58
			C78.866,51.1,76.205,51.828,74.143,51.854z"/>
		<path style="fill-rule:evenodd;clip-rule:evenodd;fill:none;" d="M52.32,44.746c1.479,0.677,1.349,2.009,1.96,3.035
			c-1.289,0.875-2.565,0.582-4.052,0.342C50.976,46.917,51.626,45.865,52.32,44.746z"/>
		<path style="fill-rule:evenodd;clip-rule:evenodd;" d="M62.434,113.598c-0.468,0.436-0.866,0.811-1.269,1.18
			c-0.322,0.295-0.607,0.687-0.988,0.845c-0.35,0.146-0.841,0.131-1.196-0.006c-0.125-0.048-0.138-0.708-0.017-1.016
			c0.438-1.114,1.207-1.973,2.292-2.503c1.58-0.772,3.23-0.105,3.752,1.571c0.594,1.911,0.262,3.706-0.911,5.333
			c-0.205,0.283-0.448,0.539-0.712,0.854c1.135,0.526,2.643,0.146,3.453,1.694c-0.827,0.216-1.527,0.521-2.24,0.557
			c-1.474,0.075-2.957,0.044-4.431-0.028c-0.359-0.018-0.894-0.291-1-0.578c-0.111-0.295,0.101-0.836,0.347-1.117
			c0.708-0.811,1.53-1.52,2.254-2.316c0.479-0.526,0.934-1.1,1.279-1.718C63.575,115.401,63.395,114.513,62.434,113.598z"/>
		<path style="fill-rule:evenodd;clip-rule:evenodd;" d="M88.072,124.678c0.817,0.393,1.564,0.737,2.297,1.11
			c0.474,0.241,1.033,0.581,1.412,0.089c0.441-0.574,0.701-1.299,0.959-1.988c0.033-0.09-0.402-0.472-0.658-0.52
			c-0.332-0.064-0.719,0.159-1.052,0.098c-0.43-0.079-1.127-0.254-1.18-0.501c-0.1-0.463,0.05-1.109,0.341-1.489
			c0.287-0.372,0.891-0.49,1.336-0.75c0.791-0.463,1-1.055,0.609-1.652c-0.459-0.709-1.09-0.858-1.836-0.373
			c-0.59,0.385-1.138,0.832-1.693,1.244c-1.29-1.436-0.504-2.883,0.699-3.385c1.103-0.461,2.228-0.582,3.385-0.242
			c1.668,0.489,2.195,1.35,1.842,3.047c-0.09,0.426-0.26,0.836-0.391,1.254c-0.271,0.873-0.218,1.702,0.177,2.551
			c0.795,1.708,0.296,3.205-1.327,4.156c-1.179,0.691-2.469,0.865-3.807,0.797c-0.158-0.008-0.333-0.016-0.465-0.088
			C88.23,127.768,87.704,125.531,88.072,124.678z"/>
		<path style="fill-rule:evenodd;clip-rule:evenodd;" d="M112.612,72.701c0.062,1.679,0.113,3.264,0.181,4.849
			c0.045,1.072,0.098,2.145,0.177,3.215c0.055,0.743-0.846,1.678-1.548,1.494c-0.25-0.065-0.547-0.365-0.618-0.615
			c-0.194-0.681-0.309-1.389-0.396-2.093c-0.06-0.472-0.02-0.956-0.021-1.434c-0.002-0.476,0-0.953,0-1.67
			c-0.389,0.266-0.738,0.386-0.892,0.63c-0.724,1.158-1.737,1.065-2.828,0.758C106.726,75.197,109.474,72.745,112.612,72.701z"/>
	</g>
</g>
<g id="Layer_1">
</g>
</svg>
