<?xml version="1.0" encoding="UTF-8" standalone="no"?>
<!DOCTYPE svg PUBLIC "-//W3C//DTD SVG 1.1//EN" "http://www.w3.org/Graphics/SVG/1.1/DTD/svg11.dtd">
<svg width="100%" height="100%" viewBox="0 0 963 1280" version="1.1" xmlns="http://www.w3.org/2000/svg" xmlns:xlink="http://www.w3.org/1999/xlink" xml:space="preserve" xmlns:serif="http://www.serif.com/" style="fill-rule:evenodd;clip-rule:evenodd;stroke-linejoin:round;stroke-miterlimit:2;">
    <g transform="matrix(1.14665,0,0,1.14665,538.177,536.776)">
        <g id="Bm-Ab" transform="matrix(1,0,0,1,-338.5,-621)">
            <g transform="matrix(0.1,0,0,-0.1,0,1242)">
                <path d="M3563,10828C3547,10808 3538,10760 3535,10690C3534,10654 3530,10612 3527,10595C3524,10579 3518,10522 3515,10470C3511,10418 3507,10357 3504,10335C3499,10285 3492,10200 3485,10095C3480,10019 3489,9974 3504,9999C3508,10005 3521,10010 3534,10010C3556,10010 3557,10013 3569,10198C3576,10301 3585,10421 3590,10465C3613,10659 3621,10812 3609,10826C3595,10843 3576,10844 3563,10828Z" style="fill-rule:nonzero;"/>
                <path d="M2321,10725C2281,10706 2242,10690 2235,10690C2229,10690 2217,10679 2210,10665C2194,10636 2203,10326 2223,10174C2234,10096 2239,10079 2265,10052C2291,10024 2300,10021 2330,10026C2415,10039 2505,10062 2533,10077C2577,10099 2639,10164 2656,10206C2676,10253 2682,10307 2670,10315C2664,10318 2660,10330 2660,10340C2660,10365 2583,10430 2553,10430L2530,10430L2557,10471C2595,10529 2600,10609 2568,10669C2538,10727 2506,10749 2445,10755C2402,10760 2384,10755 2321,10725ZM2499,10611C2519,10574 2520,10568 2507,10537C2489,10494 2423,10438 2360,10412L2311,10392L2306,10418C2279,10549 2276,10590 2292,10590C2300,10590 2312,10596 2318,10603C2331,10615 2431,10648 2461,10649C2469,10650 2486,10632 2499,10611ZM2563,10330C2577,10319 2592,10301 2595,10290C2611,10239 2523,10148 2427,10116C2376,10099 2326,10095 2334,10108C2337,10113 2336,10157 2332,10207C2328,10257 2328,10296 2332,10294C2336,10291 2356,10297 2377,10306C2476,10351 2528,10357 2563,10330Z" style="fill-rule:nonzero;"/>
                <path d="M4318,10712C4283,10691 4280,10676 4301,10620C4310,10595 4323,10519 4329,10450C4343,10312 4355,10221 4365,10175C4368,10159 4372,10132 4373,10115C4377,10065 4387,10057 4441,10063C4554,10077 4619,10115 4679,10207C4728,10281 4717,10373 4652,10419C4600,10456 4510,10439 4453,10383C4427,10356 4420,10353 4419,10367C4419,10377 4417,10394 4414,10405C4412,10416 4408,10452 4405,10485C4402,10518 4398,10554 4396,10565C4393,10576 4391,10611 4391,10642C4390,10679 4385,10704 4374,10714C4356,10733 4353,10733 4318,10712ZM4620,10296C4620,10262 4614,10246 4588,10218C4557,10184 4468,10144 4450,10155C4443,10159 4447,10183 4466,10250C4474,10280 4514,10321 4555,10343C4599,10365 4620,10350 4620,10296Z" style="fill-rule:nonzero;"/>
                <path d="M3971,10678C3954,10655 3940,10631 3940,10625C3940,10619 3926,10579 3910,10536C3893,10493 3878,10450 3876,10441C3871,10412 3850,10338 3808,10198C3775,10085 3770,10058 3780,10045C3798,10023 3825,10027 3837,10053C3842,10065 3858,10108 3871,10148L3895,10222L4009,10226C4072,10229 4127,10233 4131,10236C4135,10238 4159,10197 4184,10145C4212,10085 4234,10050 4244,10050C4253,10050 4260,10056 4260,10064C4260,10072 4267,10081 4276,10084C4288,10088 4290,10097 4285,10113C4282,10125 4277,10149 4274,10165C4266,10224 4204,10365 4089,10592C4068,10634 4050,10675 4050,10684C4050,10697 4022,10720 4007,10720C4004,10720 3988,10701 3971,10678ZM4015,10523C4018,10507 4039,10460 4060,10418L4099,10341L4057,10336C3916,10319 3917,10319 3925,10338C3929,10347 3946,10401 3964,10457C3981,10512 3998,10556 4001,10554C4005,10552 4011,10538 4015,10523Z" style="fill-rule:nonzero;"/>
                <path d="M2736,10449C2704,10387 2704,10382 2735,10251C2781,10059 2777,10069 2808,10076C2823,10080 2836,10084 2837,10085C2839,10086 2842,10132 2845,10187C2851,10316 2876,10379 2920,10380C2943,10380 2987,10284 2988,10230C2988,10216 2992,10177 2995,10143L3002,10080L3033,10084L3065,10087L3066,10197C3067,10283 3070,10311 3085,10333C3108,10369 3145,10378 3171,10354C3211,10318 3222,10281 3221,10194C3219,10107 3226,10095 3268,10111C3280,10116 3290,10128 3290,10139C3290,10150 3295,10162 3300,10165C3315,10175 3312,10251 3293,10305C3272,10367 3205,10436 3157,10445C3111,10454 3087,10445 3053,10410L3026,10381L3008,10410C2990,10440 2943,10470 2914,10470C2890,10470 2833,10424 2824,10398L2817,10375L2808,10399C2804,10412 2802,10432 2806,10442C2812,10461 2787,10500 2769,10500C2765,10500 2750,10477 2736,10449Z" style="fill-rule:nonzero;"/>
                <path d="M710,10371C693,10339 697,10327 769,10209L837,10096L782,10011C752,9964 719,9912 708,9897C679,9856 673,9805 696,9796C716,9788 759,9815 775,9846C781,9857 807,9900 834,9943L883,10021L913,9973C1018,9804 1027,9795 1055,9823C1063,9832 1070,9844 1070,9850C1070,9865 1006,9980 963,10044C945,10070 930,10098 930,10104C930,10111 943,10134 959,10156C975,10177 997,10212 1009,10233C1020,10253 1039,10286 1050,10306C1066,10334 1068,10345 1059,10356C1035,10385 1012,10371 974,10303C954,10265 931,10228 923,10220C915,10212 903,10197 896,10186C884,10169 882,10170 860,10206C751,10390 732,10411 710,10371Z" style="fill-rule:nonzero;"/>
                <path d="M1822,10295C1800,10270 1762,10216 1738,10175C1714,10134 1693,10101 1690,10101C1687,10101 1666,10129 1642,10164C1588,10244 1536,10300 1515,10300C1507,10300 1495,10289 1488,10276C1478,10254 1483,10244 1538,10173C1634,10051 1640,10043 1640,10031C1640,10020 1552,9881 1539,9870C1525,9858 1500,9799 1505,9790C1513,9777 1547,9777 1556,9791C1561,9799 1565,9799 1570,9790C1576,9781 1581,9784 1590,9801C1597,9814 1606,9827 1609,9830C1612,9833 1631,9858 1650,9887C1691,9949 1694,9947 1746,9847C1790,9761 1826,9710 1844,9710C1851,9710 1865,9719 1874,9729C1892,9749 1887,9772 1855,9810C1848,9818 1819,9870 1791,9924C1755,9993 1742,10030 1746,10044C1755,10071 1827,10181 1879,10245C1925,10302 1926,10303 1904,10324C1880,10349 1866,10344 1822,10295Z" style="fill-rule:nonzero;"/>
                <path d="M934,9579C932,9575 875,9573 809,9574C693,9576 686,9575 658,9552C630,9528 629,9527 634,9441C636,9394 641,9333 644,9305C647,9278 652,9237 654,9215C656,9193 664,9141 670,9100C677,9059 683,9016 684,9005C685,8986 692,8985 835,8986C1035,8986 1036,8987 1039,9050L1040,9100L993,9101C920,9103 860,9101 813,9095C789,9091 769,9092 769,9097C768,9101 766,9114 764,9125C762,9136 757,9162 754,9183C748,9222 746,9221 800,9225C814,9226 832,9230 840,9233C848,9236 863,9241 873,9244C886,9248 890,9258 887,9282C880,9345 874,9350 800,9350L733,9350L733,9390C733,9429 734,9430 769,9432C789,9433 819,9435 835,9437C880,9442 891,9442 936,9435C983,9429 985,9431 996,9510C1001,9544 999,9560 991,9560C985,9560 980,9566 980,9573C980,9586 942,9591 934,9579Z" style="fill-rule:nonzero;"/>
                <path d="M2395,9492C2373,9469 2356,9443 2356,9435C2357,9427 2355,9420 2351,9420C2343,9420 2346,9300 2355,9235C2359,9208 2364,9160 2366,9130C2368,9100 2371,9059 2372,9040C2374,9015 2370,9002 2357,8994C2340,8984 2341,8982 2364,8957C2378,8942 2397,8930 2407,8929C2499,8924 2596,8935 2618,8953C2625,8958 2633,8960 2636,8957C2653,8941 2856,9071 2844,9091C2841,9096 2843,9100 2848,9100C2859,9100 2884,9168 2882,9191C2874,9257 2849,9308 2804,9355C2758,9402 2690,9462 2690,9456C2690,9453 2664,9462 2633,9476C2596,9493 2555,9502 2516,9503C2474,9504 2452,9510 2445,9520C2437,9533 2428,9528 2395,9492ZM2545,9376C2637,9366 2660,9358 2698,9319C2742,9275 2767,9198 2744,9179C2736,9173 2732,9165 2735,9161C2737,9157 2730,9146 2719,9137C2709,9128 2700,9123 2700,9127C2700,9130 2692,9124 2683,9113C2660,9087 2591,9050 2564,9050C2553,9050 2540,9047 2536,9043C2532,9038 2514,9035 2497,9034C2468,9033 2465,9036 2464,9064C2463,9099 2450,9286 2445,9340C2441,9382 2455,9403 2479,9391C2488,9386 2518,9380 2545,9376Z" style="fill-rule:nonzero;"/>
                <path d="M1660,9523C1645,9519 1600,9456 1600,9439C1600,9434 1596,9422 1591,9412C1586,9403 1572,9374 1560,9348C1549,9323 1533,9296 1525,9290C1517,9283 1513,9273 1516,9268C1519,9263 1514,9250 1504,9239C1494,9228 1485,9213 1484,9205C1483,9197 1475,9183 1466,9174C1451,9160 1446,9146 1453,9136C1454,9134 1448,9124 1439,9114C1431,9103 1412,9072 1399,9045L1373,8995L1399,8970C1437,8933 1456,8934 1470,8972C1477,8990 1482,9009 1481,9013C1480,9017 1491,9032 1504,9047C1522,9067 1539,9073 1576,9075C1603,9077 1658,9081 1698,9085C1740,9090 1770,9089 1769,9084C1765,9071 1796,9004 1809,8996C1815,8992 1818,8984 1814,8979C1805,8964 1850,8920 1875,8920C1897,8920 1940,8958 1940,8978C1940,8984 1929,9010 1915,9036C1901,9062 1890,9097 1890,9115C1890,9134 1882,9154 1870,9165C1850,9183 1765,9340 1775,9340C1777,9340 1768,9356 1755,9376C1742,9395 1728,9420 1725,9431C1721,9441 1714,9450 1709,9450C1704,9450 1700,9468 1700,9490C1700,9530 1695,9534 1660,9523ZM1682,9278C1689,9265 1693,9249 1692,9243C1690,9236 1693,9230 1698,9230C1703,9230 1710,9219 1712,9207C1716,9185 1713,9183 1672,9181C1648,9181 1624,9178 1620,9175C1615,9172 1604,9173 1595,9176C1581,9182 1581,9185 1593,9199C1601,9208 1618,9234 1630,9258C1657,9306 1664,9309 1682,9278Z" style="fill-rule:nonzero;"/>
                <path d="M3331,9484C3314,9477 3300,9473 3300,9476C3300,9479 3288,9472 3274,9461C3259,9450 3245,9442 3241,9444C3235,9448 3217,9430 3151,9350C3125,9319 3123,9309 3125,9255C3130,9154 3161,9082 3228,9014C3289,8953 3305,8940 3325,8940C3333,8940 3340,8936 3340,8932C3340,8922 3465,8924 3503,8934C3518,8939 3530,8946 3530,8951C3530,8956 3536,8960 3544,8960C3553,8960 3560,8944 3564,8917L3571,8873L3614,8875C3638,8877 3663,8881 3669,8884C3681,8892 3684,8963 3673,8974C3668,8978 3664,9016 3663,9058C3663,9100 3661,9142 3661,9151C3660,9160 3646,9182 3630,9200L3599,9233L3486,9227C3377,9221 3341,9215 3339,9201C3339,9198 3337,9186 3335,9175C3333,9165 3336,9150 3341,9143C3347,9136 3349,9127 3346,9122C3340,9112 3389,9109 3405,9118C3410,9121 3442,9125 3476,9126L3537,9128L3516,9095C3496,9063 3459,9036 3433,9035C3427,9035 3418,9031 3414,9027C3403,9016 3310,9019 3310,9030C3310,9036 3301,9040 3290,9040C3277,9040 3266,9050 3259,9068C3253,9083 3245,9102 3241,9110C3237,9118 3232,9153 3231,9187C3229,9259 3253,9318 3304,9362C3341,9395 3332,9392 3398,9394C3448,9396 3453,9394 3488,9355C3532,9307 3574,9300 3576,9340C3577,9354 3574,9375 3569,9386C3557,9419 3482,9491 3462,9489C3453,9488 3443,9489 3440,9490C3419,9498 3357,9495 3331,9484Z" style="fill-rule:nonzero;"/>
                <path d="M3996,9491C3992,9485 3991,9476 3994,9471C4004,9456 4015,9246 4022,8964C4022,8947 4029,8943 4061,8942C4115,8940 4116,8943 4118,9065L4120,9145L4163,9148C4332,9158 4318,9160 4324,9126C4327,9109 4326,9079 4321,9059C4310,9013 4313,8923 4326,8911C4339,8898 4371,8895 4396,8903C4422,8912 4441,8951 4433,8982C4430,8995 4427,9019 4426,9035C4425,9052 4421,9071 4416,9078C4412,9085 4412,9090 4417,9090C4426,9090 4426,9328 4417,9372C4409,9409 4396,9431 4362,9464C4331,9493 4311,9493 4311,9462C4312,9353 4306,9259 4298,9254C4293,9251 4251,9247 4204,9246C4102,9242 4104,9239 4106,9371C4107,9453 4105,9463 4086,9476C4055,9496 4004,9504 3996,9491Z" style="fill-rule:nonzero;"/>
                <path d="M5165,9471C5161,9468 5088,9465 5002,9465L4845,9465L4847,9430C4848,9411 4851,9332 4855,9255C4859,9178 4862,9100 4863,9083C4863,9065 4866,9050 4869,9050C4872,9050 4875,9024 4876,8992C4876,8899 4866,8904 5046,8905C5183,8907 5210,8909 5243,8927C5281,8946 5281,8947 5263,8968C5253,8981 5234,8993 5220,8996C5184,9005 5087,9009 5075,9002C5070,8999 5044,8996 5017,8995C4971,8995 4967,8997 4955,9027C4941,9061 4945,9099 4964,9101C4970,9102 5005,9103 5042,9104C5080,9105 5114,9110 5120,9116C5126,9122 5125,9143 5117,9175L5104,9224L5026,9224L4949,9225L4945,9275C4943,9303 4940,9332 4938,9340C4936,9348 4941,9354 4948,9352C4991,9343 5170,9341 5175,9350C5178,9355 5187,9357 5194,9354C5220,9344 5233,9377 5224,9427C5216,9467 5211,9475 5193,9476C5181,9477 5168,9475 5165,9471Z" style="fill-rule:nonzero;"/>
                <path d="M467,8715C475,8560 477,8538 491,8525C506,8510 613,8488 617,8498C621,8508 783,8500 794,8490C805,8479 811,8281 810,7925C810,7575 802,7366 784,7195C780,7157 776,7118 776,7110C775,7099 762,7095 725,7095C698,7095 670,7098 663,7103C644,7117 520,7120 520,7106C520,7100 511,7086 499,7077L479,7059L503,7039C517,7029 533,7020 538,7020C544,7020 550,7016 552,7011C554,7006 607,6998 670,6993L785,6985L785,6907C785,6865 788,6830 792,6830C796,6830 795,6818 791,6803C788,6787 786,6753 787,6725C791,6649 802,5979 803,5770C803,5504 798,5391 786,5387C780,5386 750,5385 720,5387C690,5388 634,5391 595,5393C555,5395 512,5391 496,5384C456,5368 445,5337 471,5314C487,5300 513,5297 634,5295C727,5294 784,5289 793,5282C808,5269 810,5142 795,5041C774,4887 774,3756 795,3720C807,3700 770,3692 637,3686C555,3683 484,3678 479,3675C474,3671 474,3662 479,3652C484,3643 496,3618 505,3598C514,3577 522,3560 523,3560C524,3560 548,3566 575,3574C621,3586 790,3593 815,3584C821,3581 825,3520 826,3432C827,3351 830,3016 833,2687C839,2016 844,2066 764,2076C665,2089 555,2087 528,2072C491,2050 485,2030 510,2006C529,1987 542,1985 675,1985C772,1985 823,1981 831,1973C846,1958 849,1831 835,1755C829,1722 825,1619 825,1525L826,1355L866,1352C951,1346 945,1325 948,1627C949,1774 952,1911 953,1930L955,1965L1015,1962C1184,1955 1330,1951 1471,1950L1626,1948L1627,1892C1636,1460 1636,1390 1627,1390C1599,1390 1634,1378 1669,1376C1741,1371 1740,1368 1743,1620C1744,1744 1743,1863 1740,1886C1730,1954 1715,1950 1960,1934C2077,1926 2153,1926 2376,1933L2528,1938L2526,1739C2526,1630 2528,1540 2531,1540C2534,1540 2537,1532 2537,1523C2536,1513 2537,1482 2538,1454L2540,1403L2588,1415C2634,1427 2635,1428 2632,1461C2630,1480 2627,1549 2625,1615C2623,1681 2621,1776 2619,1825C2617,1875 2619,1920 2623,1926C2629,1937 2679,1936 2708,1925C2714,1923 2720,1924 2720,1928C2720,1933 2899,1935 2920,1930C2923,1929 2957,1929 2995,1930C3034,1931 3126,1933 3201,1935C3276,1937 3351,1941 3369,1945C3395,1950 3400,1948 3401,1933C3407,1855 3411,1727 3413,1570L3415,1385L3458,1383L3500,1381L3502,1463C3502,1508 3504,1632 3505,1737C3506,1843 3509,1932 3512,1935C3515,1939 3680,1942 3879,1943L4240,1945L4241,1915C4241,1899 4244,1768 4246,1625C4249,1482 4255,1361 4261,1356C4271,1345 4342,1408 4335,1421C4332,1425 4329,1542 4327,1682L4325,1935L4390,1937C4479,1940 4696,1948 4863,1955C4938,1958 5001,1957 5001,1953C5004,1936 5010,1652 5009,1600C5008,1543 5014,1450 5019,1442C5022,1437 5046,1431 5072,1428C5116,1423 5118,1424 5122,1450C5124,1465 5125,1589 5123,1724C5120,1954 5121,1970 5137,1971C5168,1974 5193,1973 5250,1965C5324,1956 5361,1958 5388,1972C5415,1986 5415,1990 5390,2033C5371,2066 5367,2067 5321,2065C5294,2064 5269,2061 5264,2058C5259,2056 5224,2054 5186,2054L5117,2055L5112,2120C5102,2240 5108,3428 5119,3547C5120,3555 5161,3557 5265,3555L5410,3553L5409,3584C5406,3663 5377,3690 5290,3697C5265,3699 5229,3702 5210,3704C5191,3707 5153,3709 5127,3709L5079,3710L5083,3887C5086,3985 5083,4079 5078,4099C5065,4144 5064,4371 5075,4520C5080,4583 5083,4780 5083,4957C5082,5191 5085,5280 5093,5282C5107,5287 5151,5285 5241,5275C5309,5267 5380,5281 5380,5302C5380,5308 5371,5327 5360,5345L5340,5377L5257,5376C5212,5375 5170,5372 5165,5369C5159,5367 5137,5365 5115,5365L5075,5365L5073,5435C5069,5569 5070,6256 5075,6490C5081,6845 5089,6973 5105,6986C5113,6992 5142,6994 5172,6992C5281,6982 5429,6985 5441,6997C5448,7004 5450,7019 5446,7034C5441,7056 5434,7060 5406,7060C5387,7060 5365,7066 5358,7073C5349,7081 5303,7086 5216,7088C5086,7091 5065,7094 5075,7111C5079,7116 5081,7223 5081,7349L5080,7578L5113,7585C5130,7590 5152,7594 5160,7595C5188,7599 5235,7628 5266,7662C5289,7686 5300,7711 5307,7755C5319,7823 5318,7833 5300,7913C5290,7958 5278,7978 5249,8005C5228,8024 5199,8042 5185,8046C5171,8049 5160,8056 5160,8060C5160,8064 5143,8067 5123,8066L5085,8065L5085,8475L5115,8477C5158,8480 5407,8480 5460,8478L5505,8475L5508,8596C5509,8663 5506,8728 5501,8742L5491,8768L5273,8768C5143,8768 5050,8764 5043,8758C5034,8751 5030,8751 5030,8759C5030,8766 5025,8768 5019,8765C5002,8754 4745,8760 4742,8771C4739,8777 4733,8776 4724,8769C4716,8763 4710,8761 4710,8766C4710,8782 4007,8787 3490,8775C3070,8765 2710,8764 2710,8774C2710,8779 2704,8778 2698,8773C2679,8759 1373,8771 1350,8785C1342,8790 1140,8794 899,8794L463,8795L467,8715ZM1410,8486C1446,8484 1502,8482 1535,8481L1595,8480L1593,8213C1591,8065 1589,7754 1587,7520C1585,7117 1584,7095 1567,7090C1546,7084 1009,7087 944,7093C898,7097 877,7107 885,7121C900,7145 907,7533 901,8095C900,8192 906,8491 909,8496C910,8498 1332,8489 1410,8486ZM3045,8489C3209,8488 3338,8484 3341,8478C3344,8473 3342,8449 3335,8424C3322,8373 3323,8353 3340,8155C3347,8075 3351,8007 3348,8004C3345,8001 3168,7997 2956,7994C2640,7989 2570,7991 2569,8002C2568,8009 2566,8087 2564,8175C2563,8263 2559,8370 2557,8412C2551,8502 2544,8496 2669,8493C2716,8491 2886,8490 3045,8489ZM2461,8481C2461,8478 2464,8457 2466,8435C2469,8413 2472,8304 2473,8193L2475,7991L2446,7986C2430,7983 2404,7980 2388,7980C2369,7980 2348,7970 2328,7950C2312,7934 2293,7920 2285,7920C2265,7920 2244,7844 2233,7736C2229,7693 2231,7685 2254,7665C2268,7653 2280,7636 2280,7628C2280,7612 2324,7570 2341,7570C2346,7570 2349,7566 2346,7561C2337,7548 2383,7522 2421,7518L2455,7515L2455,7315C2455,7205 2454,7106 2452,7095C2449,7075 2442,7075 2192,7076C2051,7076 1878,7077 1808,7078L1682,7080L1681,7263C1680,7363 1679,7508 1679,7585C1679,7662 1682,7867 1686,8040C1690,8213 1693,8383 1693,8417L1693,8479L1729,8482C1802,8488 2460,8488 2461,8481ZM3838,8470C3846,8462 3849,8460 3847,8465C3843,8472 3897,8476 4001,8477C4140,8478 4161,8476 4168,8462C4175,8447 4176,8336 4171,8084L4170,8012L3802,8012L3434,8011L3436,8138C3438,8208 3439,8313 3439,8372L3440,8479L3498,8482C3529,8484 3616,8485 3690,8485C3797,8485 3828,8482 3838,8470ZM4970,8465C4975,8462 4975,8285 4970,8138C4968,8073 4965,8061 4951,8063C4917,8067 4570,8046 4490,8035C4471,8032 4412,8029 4360,8028C4283,8027 4266,8029 4268,8040C4270,8048 4273,8124 4276,8210C4279,8331 4285,8455 4290,8477C4290,8481 4964,8469 4970,8465ZM4247,8268C4244,8260 4241,8263 4241,8274C4240,8285 4243,8291 4246,8287C4249,8284 4250,8275 4247,8268ZM4968,7570C4972,7570 4974,7546 4973,7518C4972,7489 4968,7382 4965,7280C4961,7179 4956,7092 4954,7088C4951,7084 4792,7081 4601,7083L4252,7085L4256,7230C4257,7310 4259,7410 4259,7452L4260,7530L4308,7528C4334,7527 4387,7529 4425,7533C4464,7537 4536,7543 4585,7545C4635,7548 4689,7552 4705,7554C4722,7557 4778,7561 4830,7565C4882,7569 4927,7574 4929,7576C4932,7579 4940,7578 4948,7575C4955,7572 4965,7570 4968,7570ZM4157,7300L4155,7075L3452,7075L3453,7105C3453,7122 3449,7212 3445,7305C3437,7504 3437,7481 3439,7502C3440,7524 3465,7525 3857,7525L4160,7525L4157,7300ZM3345,7463C3353,7362 3347,7119 3336,7083C3331,7067 3320,7065 3238,7068C3187,7069 3105,7070 3055,7069C2769,7065 2567,7068 2561,7078C2558,7083 2556,7119 2557,7157C2557,7194 2559,7289 2559,7366L2560,7507L2588,7503C2648,7494 3316,7503 3326,7513C3338,7524 3341,7515 3345,7463ZM4155,6988C4166,6981 4166,6823 4155,6720C4151,6684 4149,6630 4149,6600C4153,6394 4158,6262 4164,6180C4172,6076 4177,5953 4185,5665C4188,5561 4192,5450 4193,5420C4195,5366 4194,5365 4165,5362C4148,5361 3987,5358 3805,5357L3475,5355L3473,5380C3472,5394 3469,5657 3466,5965C3462,6273 3456,6586 3451,6660C3441,6811 3441,6965 3452,6975C3456,6979 3518,6984 3590,6985C3662,6986 3723,6989 3725,6991C3731,6998 4145,6995 4155,6988ZM4800,6988L4956,6986L4957,6656C4957,6474 4961,6240 4965,6135C4976,5841 4975,5393 4962,5378C4952,5366 4857,5360 4846,5371C4843,5374 4804,5372 4758,5368C4658,5358 4301,5356 4292,5365C4288,5369 4285,5393 4284,5418C4283,5470 4272,5707 4265,5845C4245,6217 4238,6966 4255,6980C4270,6992 4334,6995 4500,6992C4580,6991 4715,6989 4800,6988ZM1571,6970C1574,6970 1578,6946 1580,6918C1584,6842 1583,5441 1578,5405L1574,5375L1430,5378C1350,5379 1202,5381 1101,5383L918,5385L914,5690C911,5991 905,6230 896,6404C891,6499 887,6764 889,6898L890,6981L1228,6976C1413,6973 1568,6970 1571,6970ZM3351,6895C3352,6851 3354,6721 3356,6605C3358,6490 3359,6395 3360,6395C3360,6395 3363,6197 3366,5955C3368,5713 3371,5480 3373,5437L3375,5359L2981,5365C2763,5368 2584,5372 2583,5374C2581,5376 2578,5485 2575,5616C2573,5747 2568,5963 2565,6095C2556,6423 2554,6799 2560,6890L2565,6965L2769,6967C2881,6968 2974,6970 2975,6972C2977,6974 3062,6975 3164,6975L3350,6975L3351,6895ZM2448,6748C2451,6631 2453,6473 2454,6398C2454,6322 2457,6260 2460,6260C2463,6260 2466,6209 2467,6147C2468,6086 2471,5885 2474,5703C2478,5520 2477,5370 2473,5369C2436,5365 1846,5366 1781,5370L1696,5375L1694,5675C1692,5840 1688,6054 1685,6150C1678,6359 1673,6929 1678,6950C1681,6963 1731,6965 2062,6963L2444,6961L2448,6748ZM1185,5265C1246,5262 1358,5258 1435,5256C1512,5254 1578,5252 1583,5251C1587,5250 1590,5238 1590,5223C1590,5207 1591,4864 1593,4460C1595,4056 1595,3717 1592,3708C1588,3693 1565,3691 1361,3689C1058,3687 939,3688 933,3693C931,3696 927,3864 925,4066C922,4269 918,4478 915,4530C904,4734 910,5245 924,5268C929,5276 960,5276 1185,5265ZM4961,5271C4968,5270 4971,5098 4973,4525C4974,4121 4972,4058 4952,3970C4944,3931 4945,3854 4955,3800C4963,3760 4963,3760 4961,3738C4960,3717 4931,3688 4919,3695C4914,3699 4905,3698 4898,3694C4891,3690 4841,3688 4785,3690C4660,3695 4570,3695 4408,3688C4321,3685 4280,3687 4277,3694C4272,3712 4276,4152 4284,4340C4292,4538 4294,4826 4290,5072C4288,5164 4289,5242 4292,5245C4295,5248 4382,5253 4486,5255C4805,5264 4870,5266 4874,5271C4878,5275 4936,5275 4961,5271ZM2095,5247C2271,5247 2430,5247 2449,5249C2468,5250 2485,5248 2488,5246C2494,5239 2490,4859 2484,4848C2481,4844 2483,4840 2488,4840C2493,4840 2498,4760 2499,4658C2501,4557 2502,4471 2502,4465C2502,4460 2499,4385 2495,4300C2491,4215 2486,4105 2485,4055C2483,4006 2481,3965 2481,3965C2479,3965 2468,3747 2468,3727C2469,3710 2454,3709 2237,3711C2021,3713 1765,3704 1730,3694C1717,3691 1715,3709 1715,3820C1716,3892 1714,3950 1711,3950C1703,3950 1705,4197 1713,4243C1717,4263 1717,4280 1712,4280C1701,4280 1698,4349 1700,4570C1702,4683 1703,4883 1703,5016L1704,5257L1740,5252C1759,5249 1919,5247 2095,5247ZM3360,5234C3373,5200 3380,4554 3369,4453C3366,4424 3368,4400 3373,4400C3377,4400 3378,4395 3374,4388C3370,4382 3365,4230 3364,4051C3362,3872 3361,3718 3360,3709C3360,3695 3319,3694 2978,3697C2768,3699 2594,3702 2593,3704C2590,3706 2588,4408 2590,4695C2591,4745 2589,4882 2586,5000C2584,5118 2583,5222 2586,5230C2589,5243 2629,5245 2872,5244C3028,5244 3178,5246 3205,5250C3297,5261 3353,5255 3360,5234ZM3785,5250C3917,5250 4066,5251 4115,5252L4205,5255L4205,4825C4205,4160 4196,3690 4185,3689C4120,3679 3471,3676 3462,3685C3453,3694 3456,4552 3465,4785C3473,4965 3473,5048 3467,5168C3462,5241 3474,5259 3517,5254C3532,5252 3653,5250 3785,5250ZM1595,3591C1601,3590 1606,3551 1607,3497C1607,3447 1611,3320 1615,3215C1622,3045 1623,2461 1617,2163L1615,2051L1580,2057C1561,2060 1520,2064 1490,2065C1434,2068 998,2072 983,2069C954,2064 952,2075 952,2298C951,2504 945,2715 935,2905C933,2944 928,3112 925,3280L918,3585L1022,3585C1079,3585 1166,3587 1215,3590C1285,3594 1526,3594 1595,3591ZM1880,3578C1880,3569 1883,3568 1888,3576C1897,3589 2457,3587 2470,3574C2475,3569 2481,3437 2485,3280C2488,3123 2492,2968 2495,2935C2501,2852 2512,2451 2514,2235L2516,2055L2135,2055C1926,2055 1749,2059 1743,2063C1733,2069 1730,2135 1730,2323C1730,2462 1728,2609 1725,2650C1723,2691 1718,2919 1714,3156L1708,3587L1794,3589C1858,3590 1880,3588 1880,3578ZM2875,3581C2985,3581 3141,3581 3222,3583C3347,3585 3370,3583 3372,3570C3372,3562 3374,3532 3375,3504C3376,3477 3380,3418 3384,3375C3388,3331 3393,3140 3396,2950C3399,2760 3403,2593 3404,2577C3406,2562 3404,2548 3400,2545C3396,2543 3394,2526 3396,2508C3398,2490 3402,2392 3404,2290C3407,2188 3409,2103 3410,2100C3416,2086 3415,2064 3408,2055C3404,2049 3350,2045 3268,2047C2827,2054 2628,2058 2625,2061C2623,2063 2619,2146 2615,2245C2611,2344 2606,2450 2605,2480C2595,2692 2583,3529 2589,3581C2590,3584 2609,3586 2633,3584C2656,3583 2765,3582 2875,3581ZM4035,3577L4196,3575L4193,3475C4192,3420 4187,3345 4182,3308C4177,3270 4177,3237 4182,3232C4187,3227 4193,3122 4196,2999C4198,2876 4202,2748 4205,2715C4210,2641 4222,2302 4224,2161L4225,2057L4190,2054C4007,2038 3524,2036 3515,2050C3509,2060 3501,2394 3495,2870C3493,3049 3488,3251 3484,3320C3480,3389 3477,3470 3476,3500C3475,3530 3471,3558 3465,3562C3440,3580 3506,3586 3710,3582C3801,3580 3947,3578 4035,3577ZM4698,3567L4971,3564L4976,3399C4979,3309 4983,3204 4985,3165C5003,2870 5013,2092 5000,2070C4985,2046 4338,2038 4324,2061C4321,2066 4317,2123 4315,2188C4312,2252 4307,2368 4304,2445C4300,2522 4296,2621 4295,2665C4293,2709 4289,2813 4285,2896C4279,3043 4272,3568 4276,3573C4277,3574 4311,3574 4352,3573C4392,3571 4548,3569 4698,3567Z" style="fill-rule:nonzero;"/>
                <path d="M5513,8282C5490,8251 5460,8213 5448,8197C5428,8172 5427,8168 5442,8154C5456,8140 5460,8140 5488,8154C5505,8163 5524,8180 5531,8191C5547,8222 5557,8204 5564,8130C5568,8094 5572,8056 5573,8045C5575,8023 5606,8014 5629,8029C5645,8039 5646,8106 5630,8173C5625,8196 5620,8234 5620,8258C5620,8357 5576,8367 5513,8282Z" style="fill-rule:nonzero;"/>
                <path d="M5625,7838C5581,7823 5533,7784 5505,7742C5456,7666 5449,7508 5493,7459C5517,7432 5561,7410 5590,7410C5601,7410 5610,7406 5610,7401C5610,7395 5622,7398 5638,7406C5653,7413 5670,7420 5677,7420C5702,7420 5741,7486 5739,7526C5737,7588 5731,7599 5690,7620C5641,7645 5614,7645 5567,7621C5547,7611 5530,7604 5530,7606C5530,7608 5537,7629 5546,7652C5567,7705 5614,7757 5658,7775C5698,7793 5710,7818 5685,7836C5664,7852 5665,7852 5625,7838ZM5668,7558C5697,7529 5660,7470 5612,7470C5576,7470 5562,7485 5568,7516C5576,7560 5639,7587 5668,7558Z" style="fill-rule:nonzero;"/>
                <path d="M6043,7817C6020,7810 5996,7800 5989,7793C5974,7778 5976,7457 5991,7447C6036,7418 6096,7399 6126,7405C6240,7426 6309,7542 6245,7605C6232,7619 6214,7630 6205,7630C6185,7630 6186,7644 6207,7676C6232,7715 6233,7783 6209,7809C6186,7833 6115,7836 6043,7817ZM6153,7725C6151,7704 6139,7684 6113,7662C6046,7604 6050,7603 6050,7674L6050,7738L6088,7748C6143,7763 6155,7759 6153,7725ZM6125,7569C6147,7567 6170,7569 6176,7573C6182,7576 6192,7569 6198,7555C6208,7534 6205,7528 6169,7496C6148,7476 6128,7460 6126,7460C6103,7460 6060,7486 6060,7500C6060,7510 6057,7532 6054,7550C6048,7578 6049,7582 6066,7577C6076,7574 6103,7570 6125,7569Z" style="fill-rule:nonzero;"/>
                <path d="M5820,7461C5806,7433 5807,7431 5836,7420C5853,7413 5868,7413 5881,7420C5904,7433 5905,7444 5884,7464C5863,7486 5833,7484 5820,7461Z" style="fill-rule:nonzero;"/>
                <path d="M6386,7464C6366,7445 6366,7435 6386,7416C6407,7394 6427,7396 6440,7420C6452,7443 6447,7455 6420,7470C6406,7477 6397,7476 6386,7464Z" style="fill-rule:nonzero;"/>
            </g>
        </g>
        <g id="Bm-Ab1" serif:id="Bm-Ab">
        </g>
    </g>
</svg>
