<?xml version="1.0" encoding="iso-8859-1"?>
<!-- Generator: Adobe Illustrator 16.0.0, SVG Export Plug-In . SVG Version: 6.00 Build 0)  -->
<!DOCTYPE svg PUBLIC "-//W3C//DTD SVG 1.1//EN" "http://www.w3.org/Graphics/SVG/1.1/DTD/svg11.dtd">
<svg version="1.1" xmlns="http://www.w3.org/2000/svg" xmlns:xlink="http://www.w3.org/1999/xlink" x="0px" y="0px"
	 width="176.854px" height="234.25px" viewBox="0 0 176.854 234.25" style="enable-background:new 0 0 176.854 234.25;"
	 xml:space="preserve">
<g id="D7">
	<g id="D7_1_">
		<path style="fill:none;" d="M176.854,234.25c-58.952,0-117.903,0-176.854,0C0,153.877,0,73.504,0-6.87
			c58.951,0,117.901,0,176.854,0C176.854,73.503,176.854,153.877,176.854,234.25z M156.758,105.574
			c-0.227-0.209-0.364-0.353-0.519-0.476c-1.666-1.325-3.622-1.376-5.62-1.303c-1.312,0.048-2.627,0.009-4.092,0.009
			c0.233-12.667-0.528-25.156,0.255-37.672c3.877-0.14,7.638-0.694,11.654,0.173c-0.124-2.38-0.24-4.652-0.358-6.925
			c-0.041-0.753-0.428-1.003-1.186-0.986c-2.053,0.046-4.107,0.003-6.16,0.015c-4.871,0.029-9.741,0.116-14.611,0.093
			c-6.274-0.031-12.55-0.238-18.824-0.199c-5.793,0.037-11.584,0.342-17.377,0.451c-8.088,0.152-16.178,0.32-24.268,0.324
			c-13.285,0.005-26.57-0.112-39.854-0.189c-3.18-0.018-6.36-0.089-9.54-0.125c-1.473-0.016-2.945-0.002-4.479-0.002
			c-0.164,2.297-0.169,4.535,0.23,6.763c0.095,0.528,0.32,0.896,0.924,0.902c1.443,0.013,2.888,0.024,4.332,0.055
			c0.88,0.019,1.762,0.046,2.638,0.125c0.546,0.049,0.788,0.359,0.804,0.974c0.096,3.699,0.33,7.397,0.348,11.097
			c0.028,5.512,0.012,11.028-0.174,16.536c-0.11,3.238-0.586,6.463-0.911,9.828c-0.75-0.073-1.341-0.102-1.922-0.191
			c-1.187-0.183-2.363-0.441-3.555-0.584c-0.935-0.113-1.629,0.29-1.956,1.263c0.701,1.151,1.761,1.608,3.039,1.641
			c1.247,0.032,2.5-0.041,3.741,0.056c1.218,0.095,1.359,0.331,1.377,1.476c0.13,8.128,0.291,16.255,0.386,24.384
			c0.054,4.629,0.018,9.258-0.01,13.887c-0.009,1.515-0.12,3.029-0.184,4.553c-1.098,0-2.095,0.044-3.086-0.012
			c-0.88-0.051-1.752-0.257-2.632-0.314c-1.732-0.109-2.678,0.463-3.379,1.984c0.866,0.787,1.949,0.858,3.029,0.824
			c1.206-0.039,2.407-0.229,3.611-0.238c0.895-0.006,1.791,0.169,2.643,0.26c-0.201,14.734-0.398,29.244-0.598,43.844
			c-2.666,0.155-5.445-0.193-8.308,0.602c0.493,1.002,0.925,1.881,1.388,2.82c2.359-0.695,4.637-1.352,7.211-0.689
			c0.167,5.235,0.334,10.475,0.501,15.721c1.726-0.292,2.592-1.197,2.634-2.716c0.021-0.765,0-1.53-0.006-2.295
			c-0.022-2.496-0.098-4.992-0.05-7.486c0.022-1.176,0.279-2.347,0.432-3.537c6.097,0.479,11.951-0.713,17.696-0.037
			c0,5.151,0,10.196,0,15.426c0.561,0.148,1.29,0.341,2.315,0.612c0.041-5.584,0.079-10.869,0.118-16.085c7.249,0,14.318,0,21.47,0
			c0.06,0.6,0.153,1.033,0.137,1.463c-0.078,2.17-0.161,4.341-0.289,6.509c-0.124,2.12-0.092,4.209,0.92,6.265
			c0.617-0.699,1.265-1.396,1.551-2.22c0.336-0.967,0.48-2.042,0.49-3.072c0.019-1.807-0.161-3.615-0.192-5.425
			c-0.017-1,0.083-2.004,0.168-3.003c0.045-0.529,0.356-0.701,0.916-0.673c1.647,0.081,3.298,0.135,4.946,0.115
			c4.467-0.054,8.933-0.153,13.4-0.229c0.676-0.012,1.353-0.002,1.873-0.002c-0.094,3.071-0.211,5.989-0.264,8.909
			c-0.035,1.937-0.141,3.85-0.916,5.638c0.711,0.785,1.02,0.949,1.858,1.001c1.438,0.091,1.762-0.222,1.726-1.668
			c-0.076-2.977-0.217-5.953-0.199-8.93c0.01-1.672,0.284-3.341,0.451-5.131c1.029,0.053,1.9,0.131,2.771,0.137
			c4.71,0.033,9.421,0.053,14.132,0.066c3.323,0.009,3.379,0.001,3.366,3.39c-0.008,1.927-0.218,3.853-0.362,5.777
			c-0.147,1.955-0.013,3.837,1.3,5.544c0.428-0.818,0.808-1.644,1.006-2.511c0.569-2.484,0.024-4.969-0.117-7.451
			c-0.094-1.644-0.132-3.266,0.421-4.905c6.192,0.643,12.349-0.305,18.522,0.48c0,0.834-0.061,1.56,0.01,2.271
			c0.301,3.01,0.42,6.013,0.09,9.034c-0.095,0.862,0.025,1.77,0.179,2.633c0.213,1.192,0.725,1.579,2.207,1.815
			c0.044-1.457,0.132-2.896,0.119-4.334c-0.027-2.936-0.153-5.871-0.143-8.807c0.003-0.934,0.312-1.866,0.482-2.812
			c3.363,0.008,6.593,0.656,9.821-0.156c-0.069-0.426-0.104-0.703-0.162-0.977c-0.382-1.812-0.773-2.196-2.607-2.367
			c-1.36-0.127-2.729-0.16-4.094-0.258c-0.952-0.066-1.9-0.171-3.016-0.274c0.058-0.988-0.007-1.883,0.183-2.72
			c0.517-2.272,0.614-4.574,0.262-6.839c-0.767-4.932-0.553-9.866-0.354-14.812c0.229-5.747,0.415-11.496,0.621-17.246
			c0.016-0.424,0.041-0.85,0.068-1.409c0.762,0,1.399-0.02,2.035,0.006c0.602,0.025,1.199,0.118,1.801,0.147
			c0.919,0.045,1.857,0.19,2.754,0.061c1.183-0.169,1.325-0.637,0.77-1.73c-0.123-0.24-0.196-0.505-0.348-0.902
			c-0.9,0-1.82-0.039-2.737,0.01c-1.082,0.058-2.159,0.234-3.242,0.281c-1.48,0.065-1.513,0.027-1.541-1.409
			c-0.062-3.139-0.106-6.278-0.138-9.417c-0.021-1.999-0.004-3.998-0.004-6.064c3.311-0.312,5.106-2.438,5.867-5.559
			c0.657-2.699,0.365-5.354-0.805-7.887c-1.012-2.189-2.639-3.697-5.106-4.329c0.145-3.035,0.303-6.001,0.416-8.97
			c0.028-0.726,0.313-1.032,1.027-0.969c0.399,0.036,0.803,0.042,1.203,0.068c1.563,0.104,3.127,0.246,4.691,0.304
			C154.872,106.701,155.863,106.393,156.758,105.574z M68.995,33.222c1.348,0,2.63,0.062,3.903-0.014
			c2.052-0.124,4.079-0.425,5.932-1.412c2.221-1.184,3.344-3.476,2.899-5.96c-0.595-3.323-2.613-5.623-5.381-7.353
			c-1.896-1.186-3.944-1.76-6.206-1.435c-0.928,0.134-1.608,0.515-1.801,1.477c-0.187,0.937-0.507,1.9-0.438,2.827
			C68.191,25.231,68.604,29.102,68.995,33.222z M104.153,49.096c-1.132,2.509-4.829,3.692-6.978,2.334
			c-0.253-0.161-0.457-0.442-0.611-0.709c-1.364-2.346-1.063-5.738,0.685-7.812c0.754-0.894,1.714-1.45,2.864-1.654
			c0.832-0.147,1.581-0.047,2.169,0.686c0.376,0.467,0.838,0.869,1.291,1.267c0.503,0.441,1.063,0.678,1.724,0.324
			c-0.609-3.217-2.616-4.872-5.554-4.452c-2.632,0.375-4.734,1.709-6.224,3.944c-0.855,1.285-1.062,2.723-0.648,4.161
			c0.902,3.148,2.876,5.453,5.879,6.784c1.859,0.823,3.744,0.825,5.562-0.227c0.183-0.106,0.417-0.125,0.638-0.188
			c0.354,2.488,0.415,2.655,2.996,1.561c-0.162-2.235-0.372-4.387-0.451-6.544c-0.033-0.926-0.391-1.566-1.145-1.954
			c-0.523-0.269-1.149-0.522-1.714-0.491c-1.912,0.108-3.817,0.345-5.899,0.55c0.129,0.926,0.236,1.689,0.338,2.414
			C100.844,49.482,102.451,48.291,104.153,49.096z M72.429,53.451c0.41,0.198,0.719,0.38,1.051,0.497
			c0.375,0.133,0.766,0.242,1.16,0.299c3.491,0.508,6.614-0.417,9.328-2.607c3.157-2.548,3.295-5.97,0.424-8.833
			c-2.418-2.41-5.416-3.657-8.729-4.229c-1.82-0.314-2.768,0.529-3.106,2.229c-0.314,1.58-0.236,3.261-0.155,4.889
			C72.529,48.244,73.275,50.776,72.429,53.451z M93.934,24.278c0-1.01-0.01-1.845,0.002-2.679c0.012-0.963,0.034-1.927,0.07-2.891
			c0.028-0.777-0.317-1.021-1.094-1.03c-2.171-0.025-4.341-0.148-6.511-0.215c-0.833-0.025-1.668-0.004-2.463-0.004
			c-0.484,1.755-0.037,2.528,1.544,2.68c1.707,0.164,3.424,0.235,5.263,0.355c0.373,1.076,0.518,2.35,0.266,3.704
			c-0.252-0.03-0.408-0.064-0.564-0.065c-1.203-0.013-2.414-0.114-3.604,0c-1.1,0.106-1.365,0.795-0.898,1.804
			c0.355,0.769,0.966,0.981,1.76,0.982c1.187,0.002,2.408-0.16,3.293,0.353c0,1.938-0.006,3.701,0.002,5.464
			c0.006,1.016,0.586,1.601,1.592,1.711c1.062,0.116,1.217-0.726,1.307-1.384c0.193-1.429,0.23-2.879,0.312-4.323
			c0.029-0.497,0.006-0.997,0.006-1.428c1.389,0,2.567,0,3.697,0c0.822-2.39,0.093-2.988-2.08-3.032
			C95.277,24.269,94.722,24.278,93.934,24.278z M36.665,50.237c-2.417,0.123-4.714,0.239-7.05,0.357
			c-0.225-1.148-0.452-2.301-0.698-3.557c0.827-0.117,1.456-0.211,2.086-0.292c1.697-0.219,2.083-0.853,1.39-2.435
			c-0.127-0.292-0.511-0.579-0.827-0.655c-0.455-0.11-0.958-0.04-1.439-0.02c-1.648,0.068-1.674,0.048-1.593-1.635
			c0.011-0.232,0.068-0.462,0.139-0.921c2.239,0,4.462,0,6.736,0c0.155-1.006,0.327-1.788,0.383-2.579
			c0.052-0.738-0.519-1.239-1.143-1.179c-1.151,0.111-2.306,0.191-3.46,0.272c-1.08,0.076-2.18,0.028-3.235,0.226
			c-1.784,0.335-2.191,0.95-2.042,2.758c0.122,1.48,0.251,2.962,0.437,4.436c0.355,2.817,0.752,5.629,1.145,8.54
			c3.027-0.115,6.115,0.107,9.172-0.687C36.665,52.037,36.665,51.286,36.665,50.237z M47.559,54.676
			c0.205-0.48,0.294-0.65,0.353-0.83c0.653-2.012,2.004-3.136,4.139-3.284c1.122-0.078,2.251-0.117,3.36-0.283
			c0.711-0.107,1.066,0.159,1.29,0.758c0.366,0.978,0.725,1.957,1.088,2.935c0.156,0.419,0.304,0.798,0.883,0.817
			c0.753,0.026,1.44-0.007,1.938-0.687c0.521-0.711,0.16-1.289-0.242-1.864c-0.47-0.671-0.96-1.384-0.662-2.221
			c0.248-0.693-0.032-1.147-0.377-1.647c-0.867-1.254-1.858-2.444-2.562-3.785c-1.018-1.938-1.825-3.986-2.807-6.177
			c-0.258,0.258-0.626,0.52-0.854,0.871c-2.796,4.338-4.801,9.077-6.912,13.541C46.666,53.462,47.059,53.996,47.559,54.676z
			 M140.047,39.566c0.335,5.016,0.661,9.893,0.991,14.818c1.76,0.078,3.401,0.188,5.045,0.209c1.037,0.013,2.092-0.015,3.11-0.193
			c0.938-0.164,1.837-0.552,2.381-1.507c-1.401-1.132-2.992-1.088-4.615-0.95c-1.27,0.108-2.543,0.16-3.742,0.233
			c-0.211-0.707-0.363-1.238-0.528-1.766c-0.293-0.938-0.029-1.37,0.959-1.46c0.519-0.047,1.047-0.019,1.569,0.002
			c2.436,0.098,2.721-0.285,1.916-2.613c-0.048-0.141-0.141-0.266-0.197-0.37c-1.481-0.049-2.895,0.572-4.341,0.107
			c0-1.274,0-2.456,0-3.689c0.852,0,1.612-0.002,2.373,0c1.206,0.004,2.425,0.129,3.612-0.01c1.842-0.216,2.003-0.536,1.627-2.328
			c-0.049-0.233-0.128-0.46-0.217-0.777C146.773,39.368,143.563,39.462,140.047,39.566z M117.07,38.729
			c0.264,5.087,0.518,9.996,0.772,14.924c0.383,0.049,0.615,0.101,0.851,0.106c1.177,0.028,1.33-0.116,1.37-1.277
			c0.013-0.362-0.013-0.725,0.007-1.086c0.059-1.062,0.131-2.123,0.195-3.139c1.343-0.161,2.461-0.268,3.571-0.434
			c1.888-0.283,2.327,0.105,2.177,2c-0.017,0.2-0.071,0.397-0.077,0.598c-0.035,1.083-0.093,2.167-0.079,3.25
			c0.01,0.679,0.424,1.123,1.088,1.268c0.654,0.144,1.065-0.239,1.369-0.754c0.245-0.414,0.459-0.844,0.688-1.269
			c-0.954-1.628-0.911-3.393-0.837-5.171c0.063-1.485,0.172-2.979,0.087-4.458c-0.102-1.763-0.619-3.372-2.64-4.244
			c0,0.757-0.004,1.349,0.001,1.939c0.008,1.045,0.094,2.096,0.004,3.133c-0.055,0.641-0.188,1.431-1.125,1.443
			c-1.517,0.021-3.033,0.006-4.65,0.006c0-2.076,0-4.032,0-6.024C118.878,39.258,117.999,39.001,117.07,38.729z"/>
		<path style="fill-rule:evenodd;clip-rule:evenodd;" d="M156.758,105.574c-0.895,0.819-1.886,1.127-2.958,1.088
			c-1.564-0.058-3.128-0.2-4.691-0.304c-0.4-0.026-0.804-0.033-1.203-0.068c-0.714-0.063-0.999,0.243-1.027,0.969
			c-0.113,2.969-0.271,5.936-0.416,8.97c2.468,0.632,4.095,2.14,5.106,4.329c1.17,2.533,1.462,5.188,0.805,7.887
			c-0.761,3.12-2.557,5.246-5.867,5.559c0,2.066-0.017,4.065,0.004,6.064c0.031,3.139,0.075,6.278,0.138,9.417
			c0.028,1.437,0.061,1.475,1.541,1.409c1.083-0.047,2.16-0.224,3.242-0.281c0.917-0.049,1.837-0.01,2.737-0.01
			c0.151,0.397,0.225,0.662,0.348,0.902c0.556,1.094,0.413,1.562-0.77,1.73c-0.896,0.13-1.835-0.016-2.754-0.061
			c-0.602-0.029-1.199-0.122-1.801-0.147c-0.636-0.025-1.273-0.006-2.035-0.006c-0.027,0.56-0.053,0.985-0.068,1.409
			c-0.206,5.75-0.392,11.499-0.621,17.246c-0.198,4.946-0.412,9.881,0.354,14.812c0.353,2.265,0.255,4.566-0.262,6.839
			c-0.189,0.837-0.125,1.731-0.183,2.72c1.115,0.104,2.063,0.208,3.016,0.274c1.364,0.098,2.733,0.131,4.094,0.258
			c1.834,0.171,2.226,0.556,2.607,2.367c0.058,0.273,0.093,0.551,0.162,0.977c-3.229,0.812-6.458,0.164-9.821,0.156
			c-0.171,0.946-0.479,1.879-0.482,2.812c-0.011,2.936,0.115,5.871,0.143,8.807c0.013,1.438-0.075,2.877-0.119,4.334
			c-1.482-0.236-1.994-0.623-2.207-1.815c-0.153-0.863-0.273-1.771-0.179-2.633c0.33-3.021,0.211-6.024-0.09-9.034
			c-0.07-0.712-0.01-1.438-0.01-2.271c-6.174-0.785-12.33,0.162-18.522-0.48c-0.553,1.64-0.515,3.262-0.421,4.905
			c0.142,2.482,0.687,4.967,0.117,7.451c-0.198,0.867-0.578,1.692-1.006,2.511c-1.312-1.707-1.447-3.589-1.3-5.544
			c0.145-1.925,0.354-3.851,0.362-5.777c0.013-3.389-0.043-3.381-3.366-3.39c-4.711-0.014-9.422-0.033-14.132-0.066
			c-0.871-0.006-1.742-0.084-2.771-0.137c-0.167,1.79-0.441,3.459-0.451,5.131c-0.018,2.977,0.123,5.953,0.199,8.93
			c0.036,1.446-0.287,1.759-1.726,1.668c-0.839-0.052-1.147-0.216-1.858-1.001c0.775-1.788,0.881-3.701,0.916-5.638
			c0.053-2.92,0.17-5.838,0.264-8.909c-0.521,0-1.197-0.01-1.873,0.002c-4.467,0.076-8.933,0.176-13.4,0.229
			c-1.648,0.02-3.299-0.034-4.946-0.115c-0.56-0.028-0.87,0.144-0.916,0.673c-0.084,0.999-0.185,2.003-0.168,3.003
			c0.031,1.81,0.21,3.618,0.192,5.425c-0.01,1.03-0.154,2.105-0.49,3.072c-0.286,0.823-0.934,1.521-1.551,2.22
			c-1.012-2.056-1.044-4.145-0.92-6.265c0.127-2.168,0.21-4.339,0.289-6.509c0.016-0.43-0.078-0.863-0.137-1.463
			c-7.152,0-14.222,0-21.47,0c-0.039,5.216-0.077,10.501-0.118,16.085c-1.026-0.271-1.755-0.464-2.315-0.612
			c0-5.229,0-10.274,0-15.426c-5.745-0.676-11.599,0.516-17.696,0.037c-0.152,1.19-0.409,2.361-0.432,3.537
			c-0.048,2.494,0.028,4.99,0.05,7.486c0.007,0.765,0.027,1.53,0.006,2.295c-0.042,1.519-0.909,2.424-2.634,2.716
			c-0.167-5.246-0.334-10.485-0.501-15.721c-2.574-0.662-4.852-0.006-7.211,0.689c-0.462-0.939-0.895-1.818-1.388-2.82
			c2.862-0.795,5.642-0.446,8.308-0.602c0.199-14.6,0.397-29.109,0.598-43.844c-0.852-0.091-1.748-0.266-2.643-0.26
			c-1.204,0.01-2.406,0.199-3.611,0.238c-1.081,0.034-2.163-0.037-3.029-0.824c0.702-1.521,1.647-2.094,3.379-1.984
			c0.88,0.058,1.752,0.264,2.632,0.314c0.991,0.056,1.988,0.012,3.086,0.012c0.064-1.523,0.175-3.038,0.184-4.553
			c0.028-4.629,0.063-9.258,0.01-13.887c-0.095-8.129-0.256-16.256-0.386-24.384c-0.019-1.145-0.16-1.381-1.377-1.476
			c-1.241-0.096-2.494-0.023-3.741-0.056c-1.277-0.032-2.338-0.49-3.039-1.641c0.327-0.973,1.021-1.375,1.956-1.263
			c1.191,0.143,2.368,0.401,3.555,0.584c0.582,0.089,1.172,0.119,1.922,0.191c0.325-3.365,0.801-6.59,0.911-9.828
			c0.187-5.508,0.203-11.023,0.174-16.536c-0.018-3.699-0.252-7.397-0.348-11.097c-0.016-0.615-0.258-0.925-0.804-0.974
			c-0.876-0.079-1.758-0.106-2.638-0.125c-1.444-0.031-2.888-0.042-4.332-0.055c-0.604-0.005-0.83-0.374-0.924-0.902
			c-0.399-2.228-0.395-4.465-0.23-6.763c1.534,0,3.006-0.013,4.479,0.002c3.18,0.035,6.359,0.106,9.54,0.125
			c13.285,0.077,26.57,0.194,39.854,0.189c8.09-0.003,16.18-0.171,24.268-0.324c5.793-0.109,11.584-0.415,17.377-0.451
			c6.274-0.039,12.55,0.168,18.824,0.199c4.87,0.023,9.74-0.064,14.611-0.093c2.053-0.012,4.107,0.031,6.16-0.015
			c0.758-0.017,1.145,0.233,1.186,0.986c0.118,2.272,0.234,4.544,0.358,6.925c-4.017-0.868-7.777-0.313-11.654-0.173
			c-0.783,12.517-0.021,25.005-0.255,37.672c1.465,0,2.779,0.039,4.092-0.009c1.998-0.073,3.954-0.022,5.62,1.303
			C156.394,105.221,156.531,105.365,156.758,105.574z M54.311,107.752c-0.832,14.643,0.646,29.216,0.534,43.877
			c7.184,0.79,14.237-0.285,21.424,0.027c0-0.598,0.005-1.033-0.001-1.469c-0.036-2.695-0.044-5.393-0.118-8.088
			c-0.186-6.84-0.415-13.678-0.598-20.517c-0.095-3.536-0.117-7.073-0.196-10.609c-0.017-0.76-0.074-1.53-0.224-2.273
			c-0.234-1.163-0.525-1.344-1.745-1.291c-0.442,0.019-0.882,0.089-1.323,0.102c-3.175,0.085-6.349,0.187-9.524,0.232
			C59.853,107.783,57.165,107.752,54.311,107.752z M54.562,197.53c3.731-0.199,7.259-0.461,10.793-0.555
			c3.524-0.095,7.054-0.021,10.58-0.021c0.704-3.143,1.31-39.947,0.741-42.223c-7.265,0-14.487,0-21.838,0
			C54.84,169.052,55.441,183.278,54.562,197.53z M78.831,154.943c0.073,14.162,0.145,28.103,0.216,42.044c7.066,0,13.921,0,20.926,0
			c0-1.063-0.021-2.022,0.004-2.981c0.164-6.07,0.394-12.14,0.498-18.211c0.116-6.757,0.159-13.516-0.399-20.262
			c-0.081-0.977-0.168-1.072-1.296-1.053c-4.947,0.08-9.895,0.143-14.841,0.238C82.215,154.752,80.493,154.867,78.831,154.943z
			 M102.647,154.385c0.683,7.172-0.387,14.294-0.365,21.439c0.022,7.141,0.005,14.282,0.005,21.306c6.93,0,13.666,0,20.443,0
			c0.023-0.438,0.044-0.673,0.048-0.907c0.12-6.273,0.282-12.548,0.347-18.82c0.071-6.881,0.061-13.763,0.063-20.645
			c0.001-0.902-0.128-1.807-0.198-2.723C116.133,154.152,109.432,154.27,102.647,154.385z M54.279,66.977
			c0,12.756,0,25.235,0,37.807c7.008,0.314,14.019,0.366,21.157-0.06c0-2.367-0.028-4.613,0.006-6.858
			c0.123-8.16,0.304-16.319,0.378-24.479c0.021-2.232-0.254-4.467-0.408-6.935C68.361,66.627,61.464,66.799,54.279,66.977z
			 M77.798,104.761c7.178,0.502,14.202,0.099,21.326,0.234c0.181-4.982,0.397-9.83,0.255-14.7
			c-0.211-7.236-0.224-14.479-0.318-21.719c-0.01-0.712-0.002-1.424-0.002-2.261c-7.221,0.217-14.319-0.332-21.468,0.265
			C78.504,79.333,78.038,91.948,77.798,104.761z M124.938,154.241c0.862,14.345,0.026,28.535-0.505,42.893
			c6.438-0.758,12.808,0.211,19.177-0.88c0.184-4.113,0.5-8.127,0.515-12.143c0.032-8.926-0.071-17.853-0.16-26.779
			c-0.013-1.34-0.25-2.679-0.377-3.96C137.31,153.665,131.216,153.949,124.938,154.241z M51.279,107.478
			c-3.351,0.453-6.725,0.228-10.098,0.056c-2.598-0.132-5.195-0.292-7.795,0.169c-0.024,0.246-0.053,0.402-0.053,0.559
			c0.015,6.516-0.019,13.033,0.063,19.549c0.095,7.521,0.294,15.043,0.446,22.564c0.009,0.455,0.001,0.91,0.001,1.315
			c6.075,0,11.926,0,17.867,0C52.121,136.965,52.703,122.256,51.279,107.478z M78.064,107.599
			c-0.067,14.674,0.315,29.163,0.797,43.769c7.256,0,14.35,0,21.317,0c0-5.47,0-10.756,0-15.991
			c-4.531-1.089-6.847-4.044-7.011-8.739c-0.159-4.589,1.908-7.387,6.473-8.806c0-3.534,0-7.051,0-10.747
			C92.386,107.257,85.286,107.426,78.064,107.599z M34.093,154.342c-0.062,0.242-0.257,0.654-0.26,1.065
			c-0.037,5.025-0.113,10.053-0.047,15.079c0.105,7.965,0.317,15.93,0.464,23.895c0.019,1.035-0.083,2.072-0.134,3.21
			c6.077,0.853,12.035-0.333,18.168,0c0.356-14.364,0.206-28.574-0.311-42.946C46.004,154.544,40.187,154.445,34.093,154.342z
			 M122.743,150.938c0-0.399,0.014-0.831-0.002-1.264c-0.227-6.473-0.49-12.945-0.679-19.421c-0.22-7.521-0.373-15.044-0.556-22.567
			c-0.01-0.391-0.038-0.781-0.062-1.26c-0.484,0-0.877-0.007-1.27,0.001c-3.018,0.067-6.033,0.15-9.051,0.203
			c-2.334,0.042-4.67,0.034-7.003,0.079c-0.705,0.014-1.408,0.133-2.212,0.214c-0.057,1.548-0.193,2.953-0.14,4.35
			c0.081,2.129,0.314,4.252,0.431,6.38c0.033,0.592,0.328,0.777,0.796,1.03c1.511,0.815,3.112,1.551,4.424,2.629
			c2.271,1.866,3.272,4.364,2.554,7.321c-0.779,3.201-2.539,5.613-5.812,6.662c-0.488,0.156-1.007,0.221-1.495,0.324
			c-0.281,6.391,0.016,14.46,0.578,15.896C106.515,151.805,120.207,151.55,122.743,150.938z M143.347,106.725
			c-5.316-0.621-17.171-0.472-19.409,0.269c-0.281,14.657,0.455,29.312,1.008,44.001c6.319,0.834,12.517-0.199,18.959-0.21
			c0.088-5.556,0.406-11.033,0.093-16.506c-4.989-0.637-7.017-4.217-7.453-7.887c-0.291-2.454,0.136-4.816,1.502-6.939
			c1.217-1.889,2.987-2.977,5.301-3.464C143.347,112.91,143.347,109.865,143.347,106.725z M33.61,66.818
			c-0.857,12.732,0.479,25.299-0.485,37.9c6.253,0.74,12.376-0.162,18.517,0.022c0.109-12.718,0.216-25.255,0.323-37.771
			C49.255,66.602,34.177,66.557,33.61,66.818z M124.791,66.194c-0.042,0.995-0.096,2.018-0.128,3.043
			c-0.047,1.526-0.007,3.061-0.148,4.578c-0.064,0.699,0.028,1.133,0.641,1.492c1.248,0.732,2.497,1.47,3.701,2.272
			c2.652,1.768,3.723,4.252,3.103,7.384c-0.758,3.833-3.281,6.033-6.859,7.204c-0.295,0.097-0.592,0.188-0.936,0.298
			c0.363,3.927-0.504,7.805,0.028,11.694c6.53,0,12.907,0,19.447,0c0-12.549,0-25.012,0-37.706
			C137.445,66.369,131.227,66.283,124.791,66.194z M121.926,66.513c-6.746,0-13.398,0-20.138,0
			c-0.46,12.584-0.463,25.219,0.477,37.915c6.53,0,12.939,0,19.417,0c0-4.128,0-8.167,0-12.198c-0.21-0.082-0.354-0.162-0.509-0.194
			c-2.677-0.557-4.358-2.267-5.429-4.681c-0.912-2.055-1.07-4.233-0.67-6.388c0.571-3.076,2.274-5.278,5.459-6.064
			c0.455-0.113,0.929-0.157,1.393-0.232C121.926,71.964,121.926,69.331,121.926,66.513z"/>
		<path style="fill-rule:evenodd;clip-rule:evenodd;" d="M75.995,28.222c-0.391-4.121-0.804-7.991-1.092-11.87
			c-0.069-0.927,0.251-1.89,0.438-2.827c0.193-0.962,0.874-1.343,1.801-1.477c2.262-0.326,4.31,0.249,6.206,1.435
			c2.768,1.73,4.786,4.03,5.381,7.353c0.445,2.484-0.678,4.776-2.899,5.96c-1.854,0.987-3.88,1.288-5.932,1.412
			C78.625,28.285,77.343,28.222,75.995,28.222z M78.628,25.059c0.956,0,1.966,0.125,2.934-0.027c1.69-0.266,2.755-1.451,3.064-3.138
			c0.723-3.948-3.043-7.293-7.138-6.319C77.864,18.703,78.24,21.834,78.628,25.059z"/>
		<path style="fill-rule:evenodd;clip-rule:evenodd;" d="M104.153,49.096c-1.702-0.806-3.31,0.386-5.079-0.007
			c-0.102-0.725-0.209-1.488-0.338-2.414c2.082-0.205,3.987-0.442,5.899-0.55c0.564-0.031,1.19,0.223,1.714,0.491
			c0.754,0.388,1.111,1.028,1.145,1.954c0.079,2.157,0.289,4.309,0.451,6.544c-2.581,1.095-2.642,0.928-2.996-1.561
			c-0.221,0.062-0.455,0.082-0.638,0.188c-1.817,1.051-3.702,1.05-5.562,0.227c-3.003-1.331-4.977-3.636-5.879-6.784
			c-0.414-1.438-0.207-2.876,0.648-4.161c1.489-2.235,3.592-3.569,6.224-3.944c2.938-0.419,4.944,1.235,5.554,4.452
			c-0.66,0.354-1.221,0.117-1.724-0.324c-0.453-0.398-0.915-0.8-1.291-1.267c-0.588-0.732-1.337-0.833-2.169-0.686
			c-1.15,0.204-2.11,0.761-2.864,1.654c-1.748,2.074-2.049,5.466-0.685,7.812c0.154,0.268,0.358,0.549,0.611,0.709
			C99.324,52.788,103.021,51.605,104.153,49.096z"/>
		<path style="fill-rule:evenodd;clip-rule:evenodd;" d="M72.429,53.451c0.846-2.675,0.1-5.208-0.028-7.753
			c-0.082-1.628-0.16-3.31,0.155-4.889c0.339-1.701,1.286-2.543,3.106-2.229c3.313,0.571,6.311,1.818,8.729,4.229
			c2.872,2.863,2.733,6.285-0.424,8.833c-2.714,2.19-5.836,3.115-9.328,2.607c-0.394-0.057-0.784-0.167-1.16-0.299
			C73.148,53.831,72.839,53.649,72.429,53.451z M75.265,51.618c2.812,0.112,5.013-0.673,6.799-2.48
			c1.403-1.419,1.507-3.542,0.186-4.884c-2.087-2.119-4.742-2.391-7.639-2.213C74.833,45.297,75.045,48.406,75.265,51.618z"/>
		<path style="fill-rule:evenodd;clip-rule:evenodd;" d="M100.934,19.278c0.788,0,1.344-0.01,1.9,0.002
			c2.173,0.044,2.902,0.643,2.08,3.032c-1.13,0-2.309,0-3.697,0c0,0.431,0.023,0.931-0.006,1.428
			c-0.082,1.443-0.119,2.894-0.312,4.323c-0.09,0.658-0.244,1.5-1.307,1.384c-1.006-0.11-1.586-0.696-1.592-1.711
			c-0.008-1.764-0.002-3.526-0.002-5.464c-0.885-0.512-2.106-0.351-3.293-0.353c-0.794-0.001-1.404-0.213-1.76-0.982
			c-0.467-1.009-0.202-1.698,0.898-1.804c1.189-0.114,2.4-0.013,3.604,0c0.156,0.001,0.312,0.035,0.564,0.065
			c0.252-1.354,0.107-2.628-0.266-3.704c-1.84-0.12-3.557-0.191-5.264-0.355c-1.58-0.151-2.028-0.925-1.544-2.68
			c0.795,0,1.63-0.021,2.463,0.004c2.17,0.067,4.34,0.19,6.511,0.215c0.776,0.009,1.122,0.253,1.094,1.03
			c-0.036,0.963-0.059,1.927-0.07,2.891C100.924,17.434,100.934,18.269,100.934,19.278z"/>
		<path style="fill-rule:evenodd;clip-rule:evenodd;" d="M36.665,50.237c0,1.049,0,1.8,0,2.629
			c-3.057,0.794-6.145,0.571-9.172,0.687c-0.393-2.911-0.79-5.723-1.145-8.54c-0.186-1.474-0.315-2.955-0.437-4.436
			c-0.149-1.808,0.258-2.423,2.042-2.758c1.055-0.198,2.156-0.149,3.235-0.226c1.154-0.081,2.309-0.161,3.46-0.272
			c0.624-0.06,1.195,0.441,1.143,1.179c-0.056,0.791-0.228,1.573-0.383,2.579c-2.274,0-4.497,0-6.736,0
			c-0.071,0.458-0.128,0.689-0.139,0.921c-0.081,1.683-0.056,1.703,1.593,1.635c0.481-0.02,0.984-0.09,1.439,0.02
			c0.316,0.076,0.7,0.363,0.827,0.655c0.693,1.582,0.307,2.216-1.39,2.435c-0.63,0.081-1.259,0.176-2.086,0.292
			c0.246,1.256,0.473,2.409,0.698,3.557C31.951,50.476,34.248,50.359,36.665,50.237z"/>
		<path style="fill-rule:evenodd;clip-rule:evenodd;" d="M47.559,54.676c-0.5-0.68-0.893-1.214-1.365-1.856
			c2.111-4.463,4.116-9.203,6.912-13.541c0.227-0.352,0.596-0.613,0.854-0.871c0.982,2.191,1.79,4.239,2.807,6.177
			c0.703,1.341,1.694,2.531,2.562,3.785c0.345,0.5,0.625,0.954,0.377,1.647c-0.298,0.837,0.192,1.55,0.662,2.221
			c0.402,0.575,0.763,1.153,0.242,1.864c-0.499,0.679-1.185,0.713-1.938,0.687c-0.579-0.02-0.727-0.398-0.883-0.817
			c-0.363-0.978-0.723-1.958-1.088-2.935c-0.224-0.599-0.578-0.865-1.29-0.758c-1.109,0.167-2.238,0.205-3.36,0.283
			c-2.134,0.148-3.485,1.272-4.139,3.284C47.854,54.026,47.764,54.196,47.559,54.676z M55.263,47.989
			c-0.516-1.464-0.69-2.714-1.955-3.546c-0.975,1.091-1.431,2.355-1.909,3.872C52.754,48.2,53.891,48.104,55.263,47.989z"/>
		<path style="fill-rule:evenodd;clip-rule:evenodd;" d="M140.047,39.566c3.517-0.104,6.727-0.198,9.943-0.293
			c0.089,0.316,0.168,0.543,0.217,0.777c0.376,1.792,0.215,2.112-1.627,2.328c-1.188,0.139-2.406,0.014-3.612,0.01
			c-0.761-0.002-1.521,0-2.373,0c0,1.233,0,2.415,0,3.689c1.446,0.465,2.859-0.156,4.341-0.107c0.057,0.104,0.149,0.229,0.197,0.37
			c0.805,2.328,0.52,2.71-1.916,2.613c-0.522-0.021-1.051-0.049-1.569-0.002c-0.988,0.09-1.252,0.523-0.959,1.46
			c0.165,0.528,0.317,1.059,0.528,1.766c1.199-0.073,2.473-0.125,3.742-0.233c1.623-0.139,3.214-0.182,4.615,0.95
			c-0.544,0.955-1.443,1.343-2.381,1.507c-1.019,0.178-2.073,0.206-3.11,0.193c-1.644-0.021-3.285-0.131-5.045-0.209
			C140.708,49.459,140.382,44.582,140.047,39.566z"/>
		<path style="fill-rule:evenodd;clip-rule:evenodd;" d="M117.07,38.729c0.929,0.271,1.808,0.529,2.771,0.811
			c0,1.992,0,3.948,0,6.024c1.617,0,3.134,0.015,4.65-0.006c0.937-0.013,1.07-0.803,1.125-1.443c0.09-1.037,0.004-2.088-0.004-3.133
			c-0.005-0.591-0.001-1.182-0.001-1.939c2.021,0.873,2.538,2.481,2.64,4.244c0.085,1.479-0.023,2.973-0.087,4.458
			c-0.074,1.779-0.117,3.543,0.837,5.171c-0.229,0.425-0.442,0.855-0.688,1.269c-0.304,0.515-0.715,0.898-1.369,0.754
			c-0.664-0.145-1.078-0.588-1.088-1.268c-0.014-1.083,0.044-2.167,0.079-3.25c0.006-0.2,0.061-0.398,0.077-0.598
			c0.15-1.895-0.289-2.283-2.177-2c-1.11,0.166-2.229,0.272-3.571,0.434c-0.064,1.016-0.137,2.077-0.195,3.139
			c-0.02,0.361,0.006,0.724-0.007,1.086c-0.04,1.161-0.193,1.305-1.37,1.277c-0.235-0.005-0.468-0.057-0.851-0.106
			C117.588,48.725,117.334,43.816,117.07,38.729z"/>
		<path style="fill-rule:evenodd;clip-rule:evenodd;fill:none;" d="M54.311,107.752c2.854,0,5.542,0.031,8.229-0.008
			c3.175-0.045,6.35-0.147,9.524-0.232c0.441-0.012,0.881-0.083,1.323-0.102c1.22-0.053,1.511,0.127,1.745,1.291
			c0.149,0.743,0.207,1.513,0.224,2.273c0.079,3.536,0.101,7.073,0.196,10.609c0.183,6.839,0.413,13.677,0.598,20.517
			c0.073,2.695,0.082,5.393,0.118,8.088c0.006,0.436,0.001,0.871,0.001,1.469c-7.188-0.312-14.24,0.763-21.424-0.027
			C54.957,136.968,53.479,122.395,54.311,107.752z"/>
		<path style="fill-rule:evenodd;clip-rule:evenodd;fill:none;" d="M54.562,197.53c0.88-14.252,0.279-28.479,0.275-42.798
			c7.351,0,14.573,0,21.838,0c0.569,2.275-0.037,39.08-0.741,42.223c-3.526,0-7.055-0.074-10.58,0.021
			C61.821,197.069,58.293,197.331,54.562,197.53z"/>
		<path style="fill-rule:evenodd;clip-rule:evenodd;fill:none;" d="M78.831,154.943c1.663-0.076,3.385-0.191,5.108-0.225
			c4.946-0.096,9.894-0.158,14.841-0.238c1.128-0.02,1.215,0.076,1.296,1.053c0.559,6.746,0.516,13.505,0.399,20.262
			c-0.104,6.071-0.334,12.141-0.498,18.211c-0.025,0.959-0.004,1.918-0.004,2.981c-7.005,0-13.86,0-20.926,0
			C78.975,183.046,78.903,169.105,78.831,154.943z"/>
		<path style="fill-rule:evenodd;clip-rule:evenodd;fill:none;" d="M102.647,154.385c6.784-0.115,13.485-0.232,20.343-0.35
			c0.07,0.916,0.199,1.82,0.198,2.723c-0.003,6.882,0.008,13.764-0.063,20.645c-0.064,6.272-0.227,12.547-0.347,18.82
			c-0.004,0.234-0.024,0.469-0.048,0.907c-6.777,0-13.514,0-20.443,0c0-7.023,0.018-14.165-0.005-21.306
			C102.261,168.679,103.33,161.557,102.647,154.385z"/>
		<path style="fill-rule:evenodd;clip-rule:evenodd;fill:none;" d="M54.279,66.977c7.185-0.178,14.082-0.35,21.133-0.525
			c0.154,2.468,0.428,4.703,0.408,6.935c-0.075,8.16-0.256,16.319-0.378,24.479c-0.034,2.245-0.006,4.491-0.006,6.858
			c-7.138,0.425-14.148,0.374-21.157,0.06C54.279,92.212,54.279,79.733,54.279,66.977z"/>
		<path style="fill-rule:evenodd;clip-rule:evenodd;fill:none;" d="M77.798,104.761c0.24-12.812,0.707-25.428-0.207-38.181
			c7.148-0.597,14.247-0.047,21.468-0.265c0,0.837-0.008,1.549,0.002,2.261c0.095,7.24,0.107,14.482,0.318,21.719
			c0.143,4.87-0.074,9.717-0.255,14.7C92,104.86,84.976,105.263,77.798,104.761z"/>
		<path style="fill-rule:evenodd;clip-rule:evenodd;fill:none;" d="M124.938,154.241c6.278-0.292,12.372-0.576,18.649-0.869
			c0.127,1.281,0.364,2.62,0.377,3.96c0.089,8.927,0.192,17.854,0.16,26.779c-0.015,4.016-0.331,8.029-0.515,12.143
			c-6.369,1.091-12.738,0.122-19.177,0.88C124.964,182.776,125.8,168.586,124.938,154.241z"/>
		<path style="fill-rule:evenodd;clip-rule:evenodd;fill:none;" d="M51.279,107.478c1.424,14.778,0.842,29.487,0.432,44.212
			c-5.941,0-11.792,0-17.867,0c0-0.405,0.008-0.86-0.001-1.315c-0.152-7.521-0.351-15.043-0.446-22.564
			c-0.083-6.516-0.048-13.033-0.063-19.549c0-0.156,0.029-0.312,0.053-0.559c2.6-0.461,5.197-0.301,7.795-0.169
			C44.554,107.706,47.928,107.931,51.279,107.478z"/>
		<path style="fill-rule:evenodd;clip-rule:evenodd;fill:none;" d="M78.064,107.599c7.222-0.172,14.322-0.342,21.577-0.515
			c0,3.696,0,7.213,0,10.747c-4.564,1.419-6.632,4.217-6.473,8.806c0.164,4.695,2.479,7.65,7.011,8.739c0,5.235,0,10.521,0,15.991
			c-6.968,0-14.061,0-21.317,0C78.379,136.762,77.997,122.272,78.064,107.599z M87.059,122.84c0.689-1.44,1.405-2.742,1.944-4.112
			c0.642-1.631,0.888-3.339,0.376-5.078c-0.341-1.152-1-2.037-2.211-2.334c-1.936-0.476-4.41,0.869-5.139,2.742
			c-0.472,1.215-0.177,2.371,0.856,3.192c0.25-0.464,0.465-0.939,0.748-1.369c0.44-0.667,0.873-1.354,1.409-1.94
			c0.465-0.507,1.088-0.669,1.739-0.212c0.596,0.419,0.874,0.935,0.557,1.652c-0.612,1.388-1.094,2.857-1.882,4.137
			c-0.837,1.359-1.974,2.533-2.967,3.799c-0.547,0.697-0.507,0.971,0.234,1.425c0.337,0.207,0.717,0.381,1.101,0.474
			c1.92,0.464,3.837,0.39,5.708-0.234c0.521-0.174,0.968-0.568,1.53-0.911C89.842,122.71,88.409,122.951,87.059,122.84z"/>
		<path style="fill-rule:evenodd;clip-rule:evenodd;fill:none;" d="M34.093,154.342c6.094,0.104,11.912,0.202,17.88,0.303
			c0.517,14.372,0.667,28.582,0.311,42.946c-6.134-0.333-12.091,0.853-18.168,0c0.05-1.138,0.153-2.175,0.134-3.21
			c-0.146-7.965-0.358-15.93-0.464-23.895c-0.066-5.026,0.01-10.054,0.047-15.079C33.836,154.996,34.031,154.584,34.093,154.342z"/>
		<path style="fill-rule:evenodd;clip-rule:evenodd;fill:none;" d="M122.743,150.938c-2.536,0.612-16.229,0.867-19.498,0.578
			c-0.562-1.437-0.859-9.506-0.578-15.896c0.488-0.104,1.007-0.168,1.495-0.324c3.273-1.049,5.033-3.461,5.812-6.662
			c0.719-2.957-0.283-5.455-2.554-7.321c-1.312-1.078-2.913-1.813-4.424-2.629c-0.468-0.253-0.763-0.438-0.796-1.03
			c-0.116-2.128-0.35-4.251-0.431-6.38c-0.054-1.397,0.083-2.801,0.14-4.35c0.804-0.081,1.507-0.2,2.212-0.214
			c2.333-0.045,4.669-0.037,7.003-0.079c3.018-0.053,6.033-0.136,9.051-0.203c0.393-0.009,0.785-0.001,1.27-0.001
			c0.023,0.479,0.052,0.869,0.062,1.26c0.183,7.523,0.336,15.046,0.556,22.567c0.188,6.476,0.452,12.948,0.679,19.421
			C122.757,150.106,122.743,150.538,122.743,150.938z"/>
		<path style="fill-rule:evenodd;clip-rule:evenodd;fill:none;" d="M143.347,106.725c0,3.14,0,6.185,0,9.265
			c-2.313,0.487-4.084,1.575-5.301,3.464c-1.366,2.123-1.793,4.485-1.502,6.939c0.437,3.67,2.464,7.25,7.453,7.887
			c0.313,5.473-0.005,10.95-0.093,16.506c-6.442,0.011-12.64,1.044-18.959,0.21c-0.553-14.689-1.289-29.345-1.008-44.001
			C126.176,106.252,138.03,106.104,143.347,106.725z M127.07,121.521c-0.062,1.374,0.553,2.386,1.478,3.204
			c0.357,0.314,0.895,0.584,1.356,0.598c2.009,0.057,3.445-0.992,4.399-2.666c0.904-1.588,1.152-3.273,0.055-4.895
			c-0.367-0.544-0.32-0.967-0.114-1.547c0.331-0.938,0.555-1.922,0.74-2.902c0.169-0.902-0.154-1.679-0.926-2.205
			c-1.559-1.064-3.241-1.15-4.918-0.387c-1.412,0.642-1.838,1.961-1.148,3.636c0.577-0.491,1.111-0.917,1.613-1.378
			c1.124-1.03,2.104-0.932,2.88,0.239c0.535,0.807,0.144,1.443-0.383,1.917c-0.8,0.72-1.73,1.293-2.602,1.935
			c-0.777,0.572-0.771,1.183,0.093,1.621c0.527,0.268,1.146,0.346,1.714,0.539c1.079,0.371,1.483,1.385,0.98,2.41
			c-0.532,1.091-1.533,1.547-2.721,1.11C128.748,122.445,127.99,121.98,127.07,121.521z"/>
		<path style="fill-rule:evenodd;clip-rule:evenodd;fill:none;" d="M33.61,66.818c0.566-0.261,15.645-0.216,18.354,0.151
			c-0.107,12.515-0.214,25.053-0.323,37.771c-6.141-0.184-12.264,0.718-18.517-0.022C34.09,92.117,32.753,79.55,33.61,66.818z"/>
		<path style="fill-rule:evenodd;clip-rule:evenodd;fill:none;" d="M124.791,66.194c6.436,0.089,12.654,0.174,18.849,0.259
			c0,12.694,0,25.157,0,37.706c-6.54,0-12.917,0-19.447,0c-0.532-3.889,0.335-7.767-0.028-11.694
			c0.344-0.109,0.641-0.201,0.936-0.298c3.578-1.171,6.102-3.372,6.859-7.204c0.62-3.132-0.45-5.617-3.103-7.384
			c-1.204-0.803-2.453-1.541-3.701-2.272c-0.612-0.358-0.705-0.792-0.641-1.492c0.142-1.518,0.102-3.052,0.148-4.578
			C124.695,68.212,124.749,67.189,124.791,66.194z"/>
		<path style="fill-rule:evenodd;clip-rule:evenodd;fill:none;" d="M121.926,66.513c0,2.817,0,5.451,0,8.158
			c-0.464,0.076-0.938,0.12-1.393,0.232c-3.185,0.787-4.888,2.989-5.459,6.064c-0.4,2.155-0.242,4.333,0.67,6.388
			c1.07,2.414,2.752,4.124,5.429,4.681c0.154,0.032,0.299,0.112,0.509,0.194c0,4.031,0,8.069,0,12.198c-6.478,0-12.887,0-19.417,0
			c-0.939-12.696-0.937-25.331-0.477-37.915C108.527,66.513,115.18,66.513,121.926,66.513z M110.525,85.43
			c0.016-1.117,0.106-2.227,0.031-3.325c-0.201-2.922-0.748-5.83-0.21-8.774c0.042-0.229-0.182-0.608-0.394-0.766
			c-0.79-0.584-1.819-0.485-2.563,0.469c-1.2,1.537-2.237,3.202-3.319,4.776c0.238,0.314,0.359,0.473,0.48,0.631
			c0.78,1.016,0.986,1.005,1.754-0.034c0.396-0.534,0.824-1.043,1.385-1.748c0.293,2.537,0.58,4.798,0.805,7.066
			C108.617,84.969,108.914,85.299,110.525,85.43z"/>
		<path style="fill-rule:evenodd;clip-rule:evenodd;fill:none;" d="M71.628,30.059c-0.388-3.225-0.764-6.356-1.14-9.484
			c4.095-0.974,7.86,2.371,7.138,6.319c-0.309,1.688-1.374,2.872-3.064,3.138C73.594,30.184,72.583,30.059,71.628,30.059z"/>
		<path style="fill-rule:evenodd;clip-rule:evenodd;fill:none;" d="M75.265,51.618c-0.219-3.211-0.432-6.32-0.654-9.577
			c2.897-0.178,5.551,0.094,7.639,2.213c1.321,1.341,1.217,3.465-0.186,4.884C80.277,50.945,78.076,51.73,75.265,51.618z"/>
		<path style="fill-rule:evenodd;clip-rule:evenodd;fill:none;" d="M55.263,47.989c-1.372,0.115-2.508,0.211-3.864,0.326
			c0.478-1.517,0.934-2.781,1.909-3.872C54.572,45.275,54.747,46.524,55.263,47.989z"/>
		<path style="fill-rule:evenodd;clip-rule:evenodd;" d="M87.059,122.84c1.351,0.111,2.783-0.13,4.003,1.229
			c-0.562,0.343-1.01,0.737-1.53,0.911c-1.871,0.624-3.787,0.698-5.708,0.234c-0.384-0.093-0.764-0.267-1.101-0.474
			c-0.741-0.454-0.781-0.728-0.234-1.425c0.993-1.266,2.129-2.439,2.967-3.799c0.789-1.28,1.27-2.75,1.882-4.137
			c0.317-0.717,0.04-1.233-0.557-1.652c-0.65-0.458-1.273-0.295-1.739,0.212c-0.536,0.586-0.969,1.273-1.409,1.94
			c-0.283,0.43-0.498,0.905-0.748,1.369c-1.033-0.821-1.328-1.977-0.856-3.192c0.729-1.874,3.203-3.218,5.139-2.742
			c1.211,0.298,1.87,1.182,2.211,2.334c0.512,1.739,0.266,3.447-0.376,5.078C88.463,120.098,87.748,121.399,87.059,122.84z"/>
		<path style="fill-rule:evenodd;clip-rule:evenodd;" d="M127.07,121.521c0.92,0.46,1.678,0.925,2.497,1.227
			c1.188,0.437,2.188-0.02,2.721-1.11c0.503-1.025,0.099-2.039-0.98-2.41c-0.567-0.193-1.187-0.271-1.714-0.539
			c-0.863-0.438-0.87-1.048-0.093-1.621c0.871-0.641,1.802-1.215,2.602-1.935c0.526-0.474,0.918-1.11,0.383-1.917
			c-0.776-1.17-1.756-1.269-2.88-0.239c-0.502,0.461-1.036,0.887-1.613,1.378c-0.689-1.675-0.264-2.994,1.148-3.636
			c1.677-0.763,3.359-0.677,4.918,0.387c0.771,0.526,1.095,1.303,0.926,2.205c-0.186,0.98-0.409,1.964-0.74,2.902
			c-0.206,0.581-0.253,1.003,0.114,1.547c1.098,1.622,0.85,3.307-0.055,4.895c-0.954,1.674-2.391,2.723-4.399,2.666
			c-0.462-0.014-0.999-0.283-1.356-0.598C127.623,123.906,127.008,122.895,127.07,121.521z"/>
		<path style="fill-rule:evenodd;clip-rule:evenodd;" d="M110.525,85.43c-1.611-0.131-1.908-0.461-2.031-1.704
			c-0.225-2.268-0.512-4.529-0.805-7.066c-0.561,0.705-0.988,1.213-1.385,1.748c-0.768,1.04-0.974,1.05-1.754,0.034
			c-0.121-0.158-0.242-0.317-0.48-0.631c1.082-1.575,2.119-3.239,3.319-4.776c0.744-0.955,1.773-1.053,2.563-0.469
			c0.212,0.157,0.436,0.536,0.394,0.766c-0.538,2.944,0.009,5.852,0.21,8.774C110.632,83.204,110.541,84.313,110.525,85.43z"/>
	</g>
</g>
<g id="Layer_1">
</g>
</svg>
