<?xml version="1.0" encoding="UTF-8" standalone="no"?>
<!DOCTYPE svg PUBLIC "-//W3C//DTD SVG 1.1//EN" "http://www.w3.org/Graphics/SVG/1.1/DTD/svg11.dtd">
<svg width="100%" height="100%" viewBox="0 0 247 297" version="1.1" xmlns="http://www.w3.org/2000/svg" xmlns:xlink="http://www.w3.org/1999/xlink" xml:space="preserve" xmlns:serif="http://www.serif.com/" style="fill-rule:evenodd;clip-rule:evenodd;stroke-linejoin:round;stroke-miterlimit:2;">
    <g id="IaJ47w">
        <path d="M71.09,77.83L64.97,77.83C63.7,77.83 63.28,77.49 63.27,76.28C63.25,74.56 63.33,72.83 63.27,71.11C63.23,70.02 63.82,69.68 64.73,69.68C68.36,69.67 71.99,69.72 75.62,69.67C77.29,69.65 78.95,69.41 80.61,69.36C82.19,69.31 83.78,69.39 85.36,69.38C88.38,69.35 91.4,69.28 94.42,69.27C98.2,69.27 101.99,69.3 105.77,69.33C110.14,69.37 114.51,69.46 118.88,69.46C122.67,69.46 126.45,69.32 130.24,69.36C134.75,69.41 139.26,69.64 143.77,69.72C145.54,69.75 147.31,69.52 149.07,69.56C152.56,69.63 156.04,69.85 159.52,69.93C161.58,69.98 163.64,69.9 165.7,69.87C168.53,69.83 171.37,69.76 174.2,69.74C176.77,69.72 179.33,69.74 182.11,69.74L182.11,75.81C182.12,77.8 181.4,78.46 179.37,78.42C177.1,78.37 174.83,78.41 172.42,78.41L172.42,109.98C173.36,110.07 174.22,110.21 175.08,110.23C177.1,110.28 179.12,110.26 181.14,110.29C181.78,110.29 182.61,109.99 182.76,111.01C182.85,111.63 181.76,112.52 181.06,112.49C178.59,112.41 176.11,112.37 173.64,112.23C172.78,112.18 172.57,112.39 172.59,113.27C172.62,114.97 172.33,116.67 172.4,118.36C172.5,120.81 172.83,123.24 172.99,125.68C173.06,126.75 172.92,127.82 172.92,128.9C172.92,131.66 172.93,134.43 172.94,137.19L172.94,151.17C174.61,151.17 176.1,151.2 177.59,151.16C178.57,151.13 179.56,150.9 180.54,150.93C180.95,150.94 181.6,151.31 181.69,151.64C181.95,152.58 181.23,153.57 180.32,153.59C178.01,153.64 175.7,153.61 173.26,153.61C172.72,157.39 173.42,161.11 173.55,164.96C176.21,165.17 178,166.73 179.51,168.74C180.76,170.39 180.73,172.2 180.31,174.09C180.14,174.85 180.02,175.64 179.75,176.36C178.86,178.7 176.87,179.83 174.75,180.8C174.43,180.95 174.1,181.07 173.75,181.21C173.89,183.55 174.04,185.84 174.15,188.13C174.2,189.12 174.17,190.12 174.13,191.11C174.1,191.8 174.3,192.1 175.07,192.1C176.42,192.1 177.78,192.22 179.13,192.33C179.59,192.37 180.09,192.47 180.49,192.68C180.77,192.83 181.08,193.26 181.05,193.53C181.02,193.82 180.66,194.21 180.36,194.3C179.93,194.43 179.43,194.36 178.96,194.34C177.58,194.29 176.19,194.21 174.81,194.18C173.89,194.16 173.97,194.9 173.97,195.47C173.94,198.34 173.97,201.22 173.94,204.09C173.88,209.18 173.78,214.28 173.74,219.37C173.73,220.6 173.95,221.84 173.94,223.07C173.93,225.33 173.83,227.6 173.76,229.86C173.68,232.13 174.37,232.77 176.7,232.55C177.25,232.5 177.83,232.21 178.34,232.32C178.97,232.45 179.86,232.73 180.06,233.19C180.4,233.95 179.57,234.24 178.92,234.33C177.99,234.46 177.05,234.55 176.11,234.59C175.5,234.62 174.88,234.53 173.96,234.48L173.96,245.11C173.96,245.31 173.99,245.56 173.88,245.69C173.54,246.14 173.16,246.56 172.79,246.98C172.54,246.47 172.11,245.96 172.07,245.43C171.88,242.93 171.79,240.42 171.68,237.91C171.64,236.96 171.56,236 171.6,235.05C171.63,234.33 171.29,234.14 170.68,234.15C167.82,234.19 164.97,234.26 162.11,234.26C160.22,234.26 158.33,234.21 156.44,234.12C155.73,234.08 155.61,234.39 155.69,234.97C156.04,237.67 156.01,240.35 155.53,243.04C155.32,244.2 155.5,245.42 155.42,246.61C155.38,247.15 155.47,248.04 154.59,247.88C153.98,247.77 153.62,247.31 153.76,246.38C153.99,244.83 153.83,243.21 153.82,241.63C153.81,239.57 153.82,237.5 153.74,235.44C153.71,234.69 153.55,234.15 152.4,234.19C148.17,234.32 143.93,234.24 139.69,234.24L135.86,234.24C136.01,235.63 136.28,236.85 136.25,238.05C136.17,241.38 135.98,244.72 135.78,248.05C135.76,248.46 135.39,248.85 135.18,249.25C134.66,248.88 133.86,248.61 133.69,248.12C133.41,247.28 133.5,246.31 133.48,245.39C133.47,244.48 133.59,243.57 133.53,242.66C133.37,240.21 133.14,237.76 132.93,235.31C132.87,234.54 132.47,234.23 131.67,234.25C128.15,234.34 124.63,234.4 121.11,234.45C118.68,234.48 116.26,234.45 113.71,234.45C113.71,236.81 113.65,238.91 113.73,241.01C113.83,243.71 114.07,246.41 114.18,249.12C114.21,249.78 114.31,250.7 113.31,250.82C112.53,250.91 111.9,249.98 111.86,249.01C111.7,245.03 111.5,241.05 111.35,237.07C111.32,236.29 111.42,235.5 111.45,234.86C108.31,234.71 105.25,234.51 102.2,234.42C99.46,234.34 96.72,234.38 93.99,234.41C93.35,234.41 92.86,234.65 92.92,235.5C93.07,237.85 93.2,240.2 93.23,242.55C93.25,243.95 93.02,245.36 92.98,246.76C92.96,247.55 93.2,248.35 93.11,249.12C93.05,249.66 92.73,250.44 92.32,250.61C91.51,250.94 91.37,250.1 91.3,249.54C91.18,248.5 91.16,247.44 91.12,246.4C91.08,245.53 91.08,244.65 91.05,243.78C90.98,241.65 90.88,239.53 90.85,237.4C90.84,236.58 90.98,235.76 91.05,235.03L74.09,235.03C74.09,236.9 74.13,238.72 74.09,240.54C74.02,243.45 73.89,246.35 73.79,249.25C73.79,249.29 73.81,249.35 73.79,249.37C73.33,249.85 73.84,251 72.78,251C71.62,251 71.79,249.95 71.79,249.28C71.77,246.52 71.88,243.75 71.91,240.99C71.93,239.13 71.91,237.27 71.91,235.32C70.36,235.22 68.99,235.15 67.62,235.05C67.27,235.02 66.85,235 66.61,234.8C66.28,234.51 66.09,234.06 65.84,233.68C66.31,233.52 66.78,233.23 67.26,233.21C68.52,233.17 69.78,233.31 71.03,233.24C71.31,233.22 71.79,232.67 71.79,232.35C71.85,229.63 71.79,226.9 71.81,224.17C71.83,220.36 71.95,216.56 71.91,212.75C71.88,210.29 71.58,207.83 71.51,205.37C71.43,202.61 71.44,199.86 71.48,197.1C71.5,195.56 71.54,195.65 69.95,195.43C68.1,195.18 66.27,194.74 64.33,194.36C64.81,193.22 65.66,193.37 66.47,193.45C68.1,193.62 69.74,193.82 71.56,194.03L71.56,154.8C68.86,155.15 66.11,154.94 63.45,154.07C63.21,153.99 63.1,153.49 62.75,152.87C63.96,152.87 64.91,152.88 65.87,152.87C67.46,152.84 69.05,152.78 70.64,152.76C71.57,152.76 71.77,152.18 71.76,151.43C71.72,149.61 71.64,147.79 71.61,145.97C71.55,142.76 71.52,139.56 71.46,136.35C71.41,133.33 71.41,130.31 71.24,127.3C71.09,124.68 70.69,122.08 70.49,119.47C70.36,117.86 70.36,116.23 70.36,114.61C70.36,113.71 69.92,113.57 69.14,113.63C68.15,113.71 67.15,113.69 66.16,113.67C65.77,113.67 65.29,113.64 65.02,113.42C64.64,113.11 64.42,112.6 64.13,112.18C64.56,111.9 64.96,111.46 65.42,111.38C66.67,111.17 67.95,111.08 69.22,110.99C70.11,110.93 70.42,110.47 70.44,109.62C70.47,108.05 70.55,106.47 70.63,104.9C70.74,102.8 70.9,100.71 70.96,98.61C71.03,96.19 71.01,93.77 71.04,91.35C71.07,89.33 71.13,87.32 71.15,85.3C71.17,82.93 71.15,80.55 71.15,77.84L71.09,77.83ZM112.67,153.83C112.91,167.01 113.14,179.88 113.37,192.84L114.11,192.84C117.07,192.77 120.03,192.66 122.99,192.63C125.45,192.6 127.92,192.65 130.38,192.65C131.13,192.65 131.59,192.33 131.55,191.5C131.5,190.66 131.39,189.82 131.42,188.99C131.59,184.77 131.72,180.55 132,176.33C132.4,170.26 132.07,164.21 131.66,158.17C131.56,156.71 131.44,155.25 131.33,153.83L112.67,153.83ZM130.41,112.34C129.35,112.34 128.28,112.32 127.22,112.34C122.57,112.45 117.93,112.57 113.28,112.69C112.6,112.71 112.13,112.94 112.13,113.73C112.13,114.6 112.05,115.47 112.03,116.34C111.99,118.67 111.95,121 111.94,123.32C111.94,124.17 112.06,125.03 112.01,125.88C111.89,127.92 111.91,129.93 112.19,131.97C112.45,133.84 112.34,135.77 112.39,137.67C112.5,141.92 112.61,146.17 112.71,150.42C112.73,151.16 112.86,151.54 113.81,151.5C117.16,151.36 120.51,151.35 123.86,151.31C126.28,151.29 128.7,151.31 131.14,151.31C130.9,138.15 130.66,125.24 130.43,112.33L130.41,112.34ZM111.04,193.22C110.79,180.01 110.54,167.03 110.3,154.16L92.54,154.16L92.54,193.22L111.05,193.22L111.04,193.22ZM111.54,232.04C112.36,219.69 110.59,207.46 110.7,195.14C108.92,195.14 107.27,195.13 105.61,195.14C103.64,195.16 101.67,195.19 99.7,195.22C97.65,195.24 95.6,195.2 93.56,195.32C93.21,195.34 92.64,195.99 92.61,196.38C92.5,197.82 92.6,199.27 92.58,200.71C92.56,202.36 92.48,204 92.45,205.65C92.41,207.95 92.35,210.25 92.36,212.56C92.37,214.93 92.45,217.29 92.51,219.66C92.57,221.88 92.66,224.1 92.7,226.31C92.73,228.23 92.7,230.14 92.7,232.05L111.53,232.05L111.54,232.04ZM92.34,151.63L110.21,151.63C109.93,138.63 109.65,125.85 109.36,112.97C109.36,112.97 109.16,112.91 108.97,112.91L94.48,112.91C92.16,112.91 92.09,112.91 91.96,115.07C91.81,117.48 91.79,119.91 91.74,122.33C91.72,123.35 91.75,124.37 91.79,125.39C91.86,127.6 91.96,129.81 92.02,132.02C92.06,133.66 92.04,135.3 92.08,136.94C92.15,139.37 92.28,141.79 92.33,144.21C92.37,146.61 92.33,149.02 92.33,151.61L92.34,151.63ZM132.59,231.97C132.59,231.13 132.63,230.39 132.59,229.66C132.5,228.35 132.31,227.05 132.26,225.75C132.14,222.45 132.11,219.14 132,215.84C131.82,210.43 131.63,205.02 131.42,199.62C131.36,197.89 131.25,196.17 131.15,194.36C125.08,194.48 119.2,194.6 113.34,194.72C113.25,195.26 113.17,195.49 113.17,195.72C113.18,197.67 113.2,199.61 113.23,201.56C113.29,205.74 113.32,209.91 113.44,214.09C113.5,216.11 113.83,218.13 113.86,220.15C113.93,224.05 113.88,227.95 113.88,231.99L132.6,231.99L132.59,231.97ZM135.64,231.73C135.89,231.77 136.16,231.85 136.43,231.84C138.99,231.81 141.56,231.74 144.12,231.74C146.92,231.74 149.72,231.75 152.51,231.88C153.34,231.92 153.46,231.72 153.39,230.99C153.1,227.95 152.77,224.91 152.62,221.87C152.44,218.01 152.42,214.14 152.33,210.27C152.28,208.33 152.29,206.39 152.13,204.45C151.87,201.31 151.16,198.19 151.77,195.02C151.98,193.9 151.38,193.76 150.48,193.84C149.79,193.9 149.08,193.87 148.38,193.86C147,193.86 145.61,193.78 144.23,193.86C141.19,194.02 138.16,194.35 135.12,194.43C133.99,194.46 133.74,194.82 133.8,195.81C133.9,197.47 133.95,199.14 134.02,200.81C134.18,204.59 134.31,208.37 134.5,212.15C134.6,214.02 134.88,215.88 134.97,217.74C135.1,220.48 135.1,223.23 135.22,225.97C135.3,227.84 135.48,229.7 135.63,231.72L135.64,231.73ZM133.7,153.41C133.7,154.02 133.68,154.49 133.7,154.96C134,160.08 134.53,165.21 134.57,170.33C134.62,176.04 134.21,181.76 134.03,187.48C133.98,189.09 134.03,190.71 134.03,192.32C140.05,192.14 145.85,191.96 151.46,191.79L151.46,153.42L133.71,153.42L133.7,153.41ZM90.33,154.36C90.03,154.27 89.92,154.2 89.81,154.21C84.71,154.35 79.62,154.51 74.52,154.64C73.65,154.66 73.74,155.15 73.76,155.76C73.86,158.68 73.96,161.61 73.98,164.53C73.99,166.65 73.86,168.76 73.84,170.88C73.83,172.81 73.9,174.75 73.91,176.68C73.91,177.74 73.91,178.79 73.88,179.85C73.84,182.45 73.76,185.05 73.74,187.65C73.73,189.19 73.85,190.74 73.79,192.28C73.73,193.78 73.68,193.81 75.22,193.79C79.95,193.72 84.67,193.63 89.4,193.59C90.08,193.59 90.37,193.32 90.38,192.7C90.4,191.74 90.41,190.79 90.39,189.83C90.35,187.47 90.23,185.1 90.24,182.74C90.26,178.7 90.37,174.67 90.4,170.64C90.42,167.82 90.35,165 90.33,162.18C90.32,159.56 90.33,156.95 90.33,154.38L90.33,154.36ZM151.71,150.99C151.71,148.72 151.68,146.47 151.72,144.22C151.74,142.93 151.96,141.64 151.94,140.35C151.94,139.93 151.54,139.37 151.16,139.15C150.64,138.84 149.95,138.83 149.36,138.63C145.83,137.43 144.32,135.62 144.44,131.88C144.47,130.81 144.6,129.63 145.08,128.7C146.3,126.31 148.31,124.72 150.84,123.77C151.12,123.67 151.47,123.32 151.5,123.05C151.6,122.15 151.6,121.24 151.59,120.34C151.57,119.07 151.49,117.8 151.47,116.54C151.45,115.14 151.47,113.74 151.47,112.23C149.45,112.23 147.62,112.25 145.8,112.23C141.85,112.18 137.91,112.13 133.96,112.04C133.29,112.03 133.02,112.24 133.02,112.92C133,116.18 132.92,119.45 132.94,122.71C132.98,128.34 133.05,133.98 133.16,139.61C133.21,142.31 133.41,145.01 133.51,147.7C133.55,148.79 133.51,149.88 133.51,150.99L151.73,150.99L151.71,150.99ZM89.75,113.14C84.84,113.31 80.12,113.48 75.4,113.65C74.84,113.67 74.25,113.62 73.74,113.79C73.41,113.9 72.97,114.35 72.95,114.66C72.89,116.11 72.96,117.57 72.99,119.03C73.01,119.9 73.02,120.77 73.06,121.64C73.24,125.25 73.46,128.87 73.61,132.48C73.68,134.21 73.61,135.95 73.62,137.68C73.63,140.61 73.66,143.54 73.67,146.47L73.67,152.44C75.34,152.32 76.77,152.18 78.19,152.13C81.77,151.99 85.36,151.88 88.95,151.77C89.63,151.75 90.21,151.71 90.2,150.77C90.16,148.03 90.2,145.28 90.16,142.54C90.14,141.23 89.97,139.93 89.91,138.63C89.89,138.09 90.04,137.54 90.01,137C89.93,135.35 89.75,133.7 89.72,132.05C89.66,128.92 89.66,125.78 89.66,122.65C89.66,120.72 89.72,118.78 89.74,116.85C89.75,115.59 89.74,114.34 89.74,113.14L89.75,113.14ZM154.31,194.12C154.19,196.3 153.93,198.36 153.99,200.4C154.08,203.42 154.45,206.44 154.58,209.46C154.76,213.53 154.79,217.62 154.96,221.69C155.1,225.05 155.34,228.4 155.55,231.94L171.2,231.94L171.2,194.12L154.3,194.12L154.31,194.12ZM73.96,232.72C75.63,232.72 77.09,232.75 78.55,232.72C82.36,232.62 86.18,232.48 89.99,232.38C90.68,232.36 90.9,232.08 90.88,231.43C90.83,230.01 90.84,228.58 90.79,227.16C90.64,222.88 90.42,218.61 90.31,214.33C90.26,212.17 90.42,210 90.42,207.83C90.42,204.02 90.4,200.21 90.35,196.4C90.35,196.13 90.07,195.64 89.9,195.63C88.4,195.54 86.9,195.5 85.4,195.51C83.62,195.52 81.84,195.63 80.05,195.65C78,195.68 75.96,195.65 73.95,195.65L73.95,232.71L73.96,232.72ZM133.12,109.64C133.26,109.74 133.29,109.78 133.32,109.78C139.12,109.93 144.93,110.09 150.73,110.19C150.97,110.19 151.41,109.7 151.43,109.42C151.49,108.65 151.32,107.87 151.32,107.1C151.32,103.94 151.32,100.79 151.37,97.63C151.41,94.33 151.48,91.02 151.54,87.72C151.58,85.84 151.64,83.95 151.67,82.07C151.69,80.74 151.67,79.41 151.67,78.03C151.48,77.99 151.25,77.9 151.01,77.9L134.39,77.9C133.76,77.9 133.58,78.21 133.57,78.79C133.51,83.03 133.44,87.26 133.37,91.5C133.28,96.47 133.19,101.44 133.11,106.41C133.09,107.51 133.11,108.62 133.11,109.64L133.12,109.64ZM171.08,192.02C171.13,191.02 171.23,190.19 171.21,189.36C171.14,187.24 170.98,185.11 170.93,182.99C170.9,181.87 170.7,181.12 169.42,180.77C167.16,180.14 165.76,178.35 164.85,176.35C163.34,173.04 165.91,167.4 169.41,166.18C170.47,165.81 170.86,165.28 170.81,164.21C170.7,162.24 170.67,160.27 170.59,158.29C170.53,156.76 170.45,155.24 170.37,153.48L154.36,153.48C153.61,157.8 153.67,190 154.48,192.01L171.09,192.01L171.08,192.02ZM72.33,77.98C73.87,88.97 73.42,99.86 73.13,110.76C78.92,110.57 84.51,110.39 90.14,110.21C90.08,109.44 90.02,109 90.02,108.57C90.05,104.96 90.13,101.35 90.11,97.73C90.09,94.43 89.92,91.14 89.87,87.84C89.83,84.82 89.88,81.8 89.9,78.78C89.9,78.13 89.64,77.86 88.95,77.91C88,77.98 87.04,77.96 86.08,77.96L72.34,77.96L72.33,77.98ZM153.87,123.67C156.19,124.52 157.79,125.63 158.48,126.63C160.98,130.21 159.39,136.48 155.19,138.8C154.77,139.03 154.26,139.56 154.24,139.98C154.1,143.33 154.08,146.68 153.99,150.03C153.97,150.92 154.3,151.17 155.2,151.12C157.47,151 159.74,150.99 162.01,150.97C164.76,150.95 167.5,150.97 170.45,150.97C170.28,138.11 170.11,125.18 169.94,112.12L153.49,112.12C153.62,116.08 153.74,119.86 153.86,123.69L153.87,123.67ZM90.93,77.93C90.93,79.07 90.87,80.1 90.94,81.12C91.23,85.37 91.57,89.62 91.85,93.88C91.93,95.14 91.85,96.42 91.89,97.68C91.96,99.92 92.12,102.15 92.16,104.39C92.19,105.93 92.07,107.47 92.05,109.01C92.04,109.71 92.01,110.26 93.14,110.17C95.26,109.99 97.4,110.07 99.54,110.1C102.48,110.14 105.43,110.21 108.37,110.31C109.35,110.35 109.85,110.07 109.86,109.01C109.89,106.8 109.97,104.6 110.08,102.39C110.13,101.33 109.84,100.83 108.69,100.54C106.55,100.01 105.12,98.4 104.68,96.34C103.91,92.63 105.93,88.68 109.2,86.71C109.91,86.29 110.58,85.81 110.28,84.7C110.09,84 110.23,83.21 110.23,82.46L110.23,78.34C103.64,78.2 97.24,78.06 90.92,77.93L90.93,77.93ZM154.15,78.16C153.99,79.83 153.73,81.47 153.68,83.13C153.61,85.4 153.7,87.68 153.7,89.95C153.7,92 153.69,94.06 153.66,96.11C153.62,98.84 153.55,101.57 153.52,104.31C153.5,106.2 153.52,108.08 153.52,109.96L169.98,109.96C169.91,108.98 169.78,108.05 169.8,107.12C169.85,104.45 170,101.79 170.03,99.12C170.07,95.61 170.03,92.1 170.01,88.58C170.01,87.51 169.98,86.45 169.97,85.38L169.97,78.15L154.16,78.15L154.15,78.16ZM131.14,78.21C129.62,78.07 128.23,77.81 126.86,77.84C122.19,77.95 117.52,78.15 112.85,78.37C112.56,78.38 112.05,78.87 112.06,79.11C112.15,80.89 112.33,82.66 112.5,84.43C112.57,85.1 113,85.34 113.66,85.35C115.17,85.38 116.38,86.06 117.51,87.04C118.93,88.28 119.76,89.83 120.16,91.61C120.39,92.63 120.74,93.83 120.41,94.73C119.44,97.41 117.7,99.53 114.88,100.51C114.18,100.75 113.43,100.85 112.6,101.04L112.6,110L130.59,110C130.77,99.32 130.95,88.77 131.13,78.2L131.14,78.21Z" style="fill-rule:nonzero;"/>
        <path d="M107.56,59.03C107.44,57.4 107.35,55.78 107.19,54.16C107.05,52.72 107.39,52.35 108.81,52.43C111.91,52.61 114.84,53.46 117.6,54.84C119.49,55.79 121.08,59.5 119.43,62.15C118.35,63.88 116.93,64.95 115.26,65.58C113.36,66.29 111.31,67.04 109.19,66.28C108.23,65.94 107.74,65.17 107.68,64.17C107.57,62.46 107.49,60.75 107.4,59.04C107.46,59.04 107.52,59.04 107.58,59.03L107.56,59.03ZM109.36,54.33C109.47,54.9 109.57,55.28 109.61,55.67C109.93,58.23 110.26,60.78 110.54,63.34C110.61,64 110.86,64.33 111.51,64.17C112.7,63.88 113.93,63.67 115.04,63.18C117.87,61.93 118.54,58.56 116.21,57.03C114.2,55.71 111.96,54.75 109.36,54.33Z" style="fill-rule:nonzero;"/>
        <path d="M134.83,65.27C134.02,65.42 133.21,65.61 132.38,65.71C127.94,66.25 124.48,62.79 126.11,57.99C126.76,56.07 127.67,54.5 129.66,53.85C131.91,53.11 133.99,53.64 135.86,54.99C136.16,55.2 136.17,55.81 136.32,56.23C135.97,56.28 135.61,56.41 135.27,56.36C134.06,56.2 132.86,55.86 131.64,55.81C129.51,55.71 127.93,58.03 127.83,59.54C127.7,61.53 129.62,63.42 131.68,63.48C132.55,63.5 133.45,63.44 134.29,63.23C134.67,63.13 134.93,62.58 135.36,62.11C133.7,61.78 132.38,61.57 131.09,61.23C130.68,61.12 130.37,60.64 130.01,60.34C130.35,60.04 130.65,59.53 131.02,59.48C132.23,59.32 133.47,59.3 134.7,59.28C135.78,59.26 136.86,59.28 137.93,59.38C138.31,59.42 138.92,59.73 138.95,59.98C139.01,60.41 138.81,61.16 138.51,61.29C137.03,61.91 137.06,62.99 137.34,64.27C137.51,65.04 137.62,65.85 137.6,66.64C137.6,66.98 137.26,67.44 136.94,67.61C136.71,67.74 136.11,67.6 135.96,67.38C135.53,66.78 135.24,66.08 134.82,65.29L134.83,65.27Z" style="fill-rule:nonzero;"/>
        <path d="M149.86,60.34C150.03,61.74 150.16,62.91 150.31,64.09C150.39,64.79 150.46,65.68 149.59,65.71C148.83,65.73 147.96,65.34 147.34,64.86C146.98,64.58 146.91,63.77 146.91,63.2C146.91,60.01 146.93,56.82 147.03,53.63C147.04,53.19 147.55,52.77 147.83,52.34C148.2,52.79 148.79,53.19 148.91,53.7C149.19,54.93 149.27,56.22 149.4,57.49C149.47,58.18 149.71,58.56 150.52,58.53C151.51,58.48 152.51,58.56 153.5,58.65C154.45,58.74 154.65,58.28 154.61,57.45C154.54,56.15 154.53,54.84 154.57,53.53C154.58,53.2 154.88,52.88 155.05,52.55C155.41,52.75 155.8,52.93 156.13,53.18C156.26,53.28 156.3,53.54 156.33,53.73C156.91,57.57 157.49,61.41 158.06,65.25C158.08,65.41 158.06,65.57 158.06,65.73C158.06,66.47 157.88,67.11 157.03,67.24C156.29,67.35 155.03,66.51 154.98,65.86C154.87,64.56 154.8,63.25 154.77,61.94C154.75,61.16 154.54,60.81 153.66,60.79C152.48,60.76 151.3,60.52 149.85,60.34L149.86,60.34Z" style="fill-rule:nonzero;"/>
        <path d="M71.06,59.63C71.3,60.83 71.5,61.86 71.71,62.92C73.24,62.92 74.74,62.9 76.24,62.93C76.74,62.93 77.65,63.04 77.66,63.16C77.71,63.79 77.66,64.49 77.38,65.04C77.22,65.36 76.57,65.55 76.13,65.58C74.26,65.7 72.38,65.74 70.51,65.81C69.6,65.84 68.92,65.44 69.04,64.51C69.33,62.18 68.29,60.1 68.01,57.89C67.84,56.52 67.62,55.08 67.88,53.77C68.01,53.13 69.1,52.39 69.87,52.21C71.28,51.89 72.78,51.95 74.25,51.86C74.56,51.84 74.88,51.78 75.18,51.83C75.62,51.9 76.39,52.02 76.4,52.17C76.44,52.67 76.32,53.26 76.05,53.67C75.85,53.98 75.34,54.17 74.93,54.27C74.01,54.51 73.04,54.59 72.14,54.9C71.7,55.05 71.15,55.49 71.05,55.9C70.54,57.94 71.04,58.25 73.74,57.85C74.76,57.7 75.8,57.64 76.83,57.65C77.18,57.65 77.52,58.04 77.86,58.25C77.61,58.57 77.41,59.12 77.11,59.18C75.8,59.41 74.46,59.52 73.13,59.63C72.51,59.68 71.88,59.63 71.06,59.63Z" style="fill-rule:nonzero;"/>
        <path d="M104.73,38.47C106.91,38.47 108.87,38.64 110.68,37.53C111.02,37.32 111.78,37.22 111.94,37.41C112.26,37.78 112.47,38.44 112.38,38.9C112.31,39.26 111.7,39.75 111.32,39.76C109.26,39.85 107.2,39.8 105.11,39.8C105.21,41.53 105.29,43.02 105.38,44.73C106.27,44.73 107.18,44.84 108.05,44.71C109.64,44.47 111.2,44.03 112.79,43.8C113.17,43.74 113.61,44.16 114.02,44.36C113.72,44.8 113.46,45.57 113.1,45.62C111.3,45.9 109.46,46.13 107.64,46.09C106.59,46.07 105.71,46.21 104.83,46.72C104.07,47.16 102.71,46.45 102.67,45.58C102.52,41.77 102.43,37.95 102.27,34.14C102.23,33.12 102.72,32.76 103.65,32.57C105.64,32.17 107.62,31.71 109.58,31.2C111.14,30.8 111.8,31.14 111.71,32.53C111.69,32.84 111.31,33.34 111.03,33.4C109.24,33.75 107.44,34.04 105.63,34.26C105.02,34.34 104.67,34.42 104.71,35.15C104.77,36.18 104.72,37.22 104.72,38.47L104.73,38.47Z" style="fill-rule:nonzero;"/>
        <path d="M87.14,66.34C84.59,65.65 85.16,64.87 85.7,63.31C85.97,62.53 86.19,61.73 86.5,60.95C87.57,58.21 88.66,55.48 89.78,52.76C89.88,52.53 90.31,52.2 90.44,52.26C90.85,52.44 91.32,52.7 91.52,53.06C92.63,55.08 93.5,57.26 94.78,59.16C95.54,60.29 96.36,61.28 96.55,62.68C96.6,63.08 96.93,63.46 97.19,63.81C97.87,64.72 97.71,65.66 97.19,66.5C96.77,67.19 96.05,67.06 95.62,66.48C95.13,65.82 94.72,65.07 94.4,64.31C93.67,62.56 92.62,62.07 90.73,62.1C89.18,62.13 88.66,63 88.19,64.17C87.9,64.9 87.5,65.58 87.14,66.32L87.14,66.34ZM89.34,60.69C90.48,60.57 91.28,60.49 92.17,60.4C91.67,59.18 91.25,58.15 90.72,56.86C90.24,58.19 89.84,59.29 89.34,60.68L89.34,60.69Z" style="fill-rule:nonzero;"/>
        <path d="M169.75,61.76C169.98,62.76 170.12,63.57 170.39,64.33C170.46,64.54 170.94,64.72 171.23,64.72C172.78,64.7 174.33,64.57 175.88,64.6C176.27,64.6 176.65,65.07 177.04,65.33C176.79,65.71 176.59,66.36 176.27,66.43C175.27,66.65 174.22,66.66 173.19,66.74C172.52,66.79 171.84,66.76 171.18,66.89C169.64,67.19 168.95,66.93 168.46,65.49C168.11,64.47 167.87,63.4 167.77,62.33C167.54,59.93 167.41,57.52 167.27,55.11C167.21,54.18 167.69,53.55 168.61,53.43C170.66,53.16 172.72,52.93 174.78,52.76C175.76,52.68 177,53.95 176.84,54.87C176.79,55.17 176.27,55.6 175.95,55.61C174.56,55.68 173.17,55.62 171.78,55.59C171.1,55.57 170.43,55.51 169.46,55.45C169.62,56.85 169.69,58.14 169.97,59.4C170.02,59.63 170.93,59.75 171.44,59.77C172.6,59.82 173.76,59.79 174.85,59.79C175.21,61.32 174.98,61.71 173.77,61.77C172.55,61.83 171.32,61.78 169.76,61.78L169.75,61.76Z" style="fill-rule:nonzero;"/>
        <path d="M131.65,36.08C132.15,36.4 132.52,36.63 132.89,36.86C132.64,37.25 132.45,37.91 132.12,37.98C130.16,38.41 130.16,40.2 129.52,41.53C129.32,41.96 129.34,42.49 129.11,42.9C128.87,43.32 128.46,43.64 128.12,44C127.93,43.41 127.5,42.78 127.59,42.24C127.79,41.08 128.25,39.97 128.65,38.69C127.93,38.59 127.3,38.58 126.71,38.4C126.42,38.31 126.2,37.94 125.96,37.7C126.24,37.48 126.51,37.1 126.81,37.08C129.39,36.87 129.38,36.89 130.25,34.47C130.44,33.95 130.71,33.45 130.95,32.94C131.17,32.48 131.38,32.02 131.72,31.29C130.38,31.42 129.22,31.58 128.06,31.62C126.99,31.65 125.92,31.62 124.86,31.48C124.57,31.44 124.34,30.95 124.08,30.67C124.33,30.47 124.57,30.11 124.85,30.08C127.19,29.84 129.53,29.6 131.88,29.47C133.46,29.38 134.1,30.38 133.49,31.85C132.89,33.28 132.26,34.69 131.66,36.08L131.65,36.08Z" style="fill-rule:nonzero;"/>
        <path d="M118.7,45.84C117.26,45.61 116.22,44.95 116.04,43.85C115.98,43.49 116.27,43.08 116.4,42.69C116.66,42.85 116.97,42.96 117.18,43.17C117.96,43.97 120.27,43.77 120.69,42.77C120.81,42.5 120.49,41.86 120.19,41.63C119.66,41.23 119,40.99 118.39,40.71C117.23,40.19 116.54,39.34 116.59,38.03C116.64,36.87 117.22,35.97 118.27,35.52C119.52,34.98 120.79,35.18 121.9,35.95C122.16,36.13 122.31,36.54 122.39,36.88C122.44,37.1 122.34,37.42 122.19,37.59C122.11,37.69 121.78,37.57 121.57,37.56C120.69,37.49 119.81,37.37 118.93,37.38C118.69,37.38 118.25,37.8 118.26,38.02C118.26,38.34 118.52,38.76 118.8,38.94C119.56,39.44 120.43,39.78 121.18,40.28C122.34,41.07 122.73,43.31 121.76,44.2C120.94,44.96 119.73,45.31 118.69,45.83L118.7,45.84Z" style="fill-rule:nonzero;"/>
        <path d="M182.88,158.76C182.35,158.72 181.98,158.76 181.66,158.65C181.3,158.53 180.71,158.3 180.71,158.1C180.7,157.62 180.81,156.94 181.15,156.68C181.95,156.05 183.82,156.28 184.48,156.93C185.49,157.93 185.6,159.07 184.88,160.36C184.74,160.6 184.84,160.98 184.86,161.3C184.86,161.4 185,161.49 185.05,161.6C185.56,162.71 186.15,164.11 185.2,164.93C184.39,165.64 182.92,165.89 181.78,165.83C180.56,165.77 180.65,164.29 180.22,163.4C180.1,163.15 180.24,162.78 180.28,162.05C181.01,162.74 181.47,163.29 182.04,163.67C182.33,163.86 182.83,163.82 183.21,163.76C183.41,163.73 183.74,163.37 183.71,163.24C183.61,162.85 183.46,162.33 183.16,162.15C181.36,161.07 181.32,160.98 182.56,159.44C182.68,159.29 182.74,159.09 182.89,158.76L182.88,158.76Z" style="fill-rule:nonzero;"/>
        <path d="M160.92,117.38C160.33,117.42 159.81,117.45 159.3,117.49C159.46,116.84 159.44,116.02 159.84,115.59C160.2,115.19 161.25,114.88 161.59,115.12C162.19,115.54 162.88,116.43 162.83,117.06C162.73,118.28 162.18,119.47 161.72,120.64C161.48,121.25 161.03,121.79 160.62,122.43C161.42,122.69 162.2,122.86 162.91,123.19C163.35,123.4 163.68,123.83 164.07,124.17C163.65,124.55 163.17,125.31 162.81,125.25C161.54,125.06 160.3,124.63 159.09,124.17C158.9,124.1 158.79,123.34 158.92,123.01C159.22,122.24 159.63,121.5 160.09,120.81C161.08,119.32 161.35,118.16 160.93,117.39L160.92,117.38Z" style="fill-rule:nonzero;"/>
        <path d="M123.44,83.21C122.99,83.71 122.65,84.21 122.19,84.55C121.86,84.8 121.39,84.86 120.98,85C120.92,84.56 120.69,84.06 120.83,83.71C121.21,82.77 121.75,81.88 122.24,80.98C122.47,80.56 122.66,80.1 122.98,79.76C123.32,79.4 123.85,78.86 124.18,78.93C124.62,79.03 125.16,79.58 125.28,80.04C125.49,80.83 125.4,81.69 125.45,82.52C125.57,84.33 125.74,86.13 125.81,87.94C125.82,88.27 125.45,88.62 125.26,88.96C124.96,88.72 124.45,88.52 124.38,88.23C124.02,86.66 123.77,85.06 123.43,83.21L123.44,83.21Z" style="fill-rule:nonzero;"/>
    </g>
</svg>
