<?xml version="1.0" encoding="UTF-8" standalone="no"?>
<!DOCTYPE svg PUBLIC "-//W3C//DTD SVG 1.1//EN" "http://www.w3.org/Graphics/SVG/1.1/DTD/svg11.dtd">
<svg width="100%" height="100%" viewBox="0 0 963 1280" version="1.1" xmlns="http://www.w3.org/2000/svg" xmlns:xlink="http://www.w3.org/1999/xlink" xml:space="preserve" xmlns:serif="http://www.serif.com/" style="fill-rule:evenodd;clip-rule:evenodd;stroke-linejoin:round;stroke-miterlimit:2;">
    <g transform="matrix(1.15252,0,0,1.15252,497.052,542.919)">
        <g id="Db" transform="matrix(1,0,0,1,-336.5,-512.5)">
            <g transform="matrix(0.1,0,0,-0.1,0,1025)">
                <g transform="matrix(1,0,0,1,0,-170)">
                    <path d="M3451,9947C3444,9938 3442,9844 3446,9664C3452,9271 3460,9147 3477,9137C3485,9132 3488,9121 3485,9110C3477,9084 3498,9080 3582,9092C3668,9105 3721,9128 3773,9179C3831,9234 3843,9262 3836,9334C3831,9381 3822,9406 3795,9446C3752,9509 3721,9525 3674,9510C3655,9504 3637,9501 3632,9504C3627,9507 3608,9496 3589,9480C3570,9464 3553,9451 3550,9450C3547,9450 3548,9555 3552,9682C3558,9894 3557,9917 3542,9931C3519,9953 3465,9963 3451,9947ZM3730,9388C3741,9364 3750,9335 3750,9322C3750,9267 3697,9213 3625,9196C3608,9192 3588,9187 3578,9184C3555,9177 3544,9247 3562,9296C3583,9354 3656,9426 3698,9429C3705,9430 3720,9411 3730,9388Z" style="fill-rule:nonzero;"/>
                </g>
                <g transform="matrix(1,0,0,1,0,-170)">
                    <path d="M2923,9895C2906,9888 2887,9872 2880,9861C2874,9849 2863,9840 2854,9840C2829,9840 2821,9796 2826,9688C2829,9631 2828,9551 2823,9510C2811,9397 2833,9105 2856,9079C2876,9056 2893,9055 2909,9074C2916,9082 2944,9094 2972,9100C3044,9115 3127,9162 3188,9222C3235,9268 3243,9283 3271,9374C3315,9515 3314,9584 3269,9676C3221,9771 3133,9858 3055,9888C2985,9913 2967,9914 2923,9895ZM3127,9723C3166,9680 3210,9591 3210,9555C3210,9547 3214,9539 3219,9536C3234,9526 3229,9477 3207,9425C3180,9359 3151,9318 3138,9327C3131,9331 3129,9327 3133,9317C3143,9291 3103,9252 3026,9215C2986,9196 2946,9180 2938,9180C2923,9180 2905,9234 2914,9249C2916,9252 2921,9365 2924,9499C2927,9633 2930,9743 2932,9744C2953,9756 3004,9768 3039,9769C3079,9770 3087,9766 3127,9723Z" style="fill-rule:nonzero;"/>
                </g>
                <path d="M1351,9343C1340,9328 1326,9310 1320,9303C1315,9296 1310,9287 1310,9282C1310,9278 1296,9252 1278,9224C1261,9197 1235,9154 1220,9128L1194,9081L1141,9163C1111,9208 1077,9262 1064,9283C1039,9321 1007,9332 996,9305C989,9285 1029,9194 1070,9138C1087,9114 1113,9077 1127,9055L1153,9015L1131,8975C1119,8953 1091,8915 1068,8890C1045,8865 1021,8831 1013,8813C995,8770 996,8730 1015,8730C1027,8730 1108,8828 1161,8906C1170,8919 1179,8933 1182,8936C1187,8940 1219,8892 1261,8815C1282,8776 1322,8747 1343,8756C1369,8766 1363,8791 1318,8861C1295,8896 1264,8947 1249,8974L1222,9022L1254,9079C1306,9170 1350,9242 1383,9289C1405,9321 1411,9337 1403,9348C1387,9374 1373,9372 1351,9343Z" style="fill-rule:nonzero;"/>
                <path d="M1275,8582C1271,8578 1220,8574 1162,8573C1038,8570 984,8562 972,8546C960,8531 951,8470 960,8465C964,8462 964,8443 960,8421C956,8398 958,8353 965,8316C973,8273 974,8250 968,8250C961,8250 961,8245 968,8237C978,8225 989,8164 995,8090C997,8071 999,8053 1000,8050C1001,8047 1003,8041 1005,8035C1006,8030 1008,8021 1010,8015C1011,8010 1013,7998 1014,7990C1014,7982 1022,7977 1030,7979C1038,7980 1109,7983 1188,7985C1272,7986 1335,7991 1342,7998C1348,8004 1354,8023 1356,8040C1358,8057 1362,8075 1365,8080C1374,8095 1285,8103 1186,8096L1093,8090L1081,8151C1074,8185 1070,8214 1072,8216C1074,8218 1098,8222 1125,8225C1198,8234 1211,8244 1206,8287C1201,8336 1180,8349 1109,8346L1051,8343L1055,8378C1062,8436 1071,8440 1190,8440C1274,8440 1300,8443 1310,8455C1317,8464 1320,8473 1317,8476C1314,8479 1316,8495 1322,8512C1331,8538 1330,8545 1307,8565C1294,8578 1279,8586 1275,8582Z" style="fill-rule:nonzero;"/>
                <path d="M1962,8507C1944,8489 1932,8471 1935,8469C1938,8466 1929,8440 1915,8412C1901,8383 1890,8356 1890,8352C1890,8347 1881,8334 1870,8322C1858,8310 1851,8300 1854,8300C1862,8300 1811,8202 1800,8195C1794,8192 1790,8182 1790,8173C1790,8164 1783,8149 1774,8139C1766,8130 1758,8115 1756,8107C1755,8099 1748,8085 1741,8076C1734,8067 1731,8060 1734,8060C1738,8060 1734,8050 1726,8038C1704,8007 1706,7993 1735,7964C1756,7943 1764,7941 1775,7950C1783,7957 1790,7967 1790,7973C1790,7995 1824,8059 1838,8065C1847,8068 1883,8073 1919,8076C1955,8079 1996,8084 2010,8087C2077,8100 2095,8096 2100,8068C2100,8064 2108,8043 2117,8023C2125,8002 2136,7975 2141,7962C2154,7929 2194,7917 2231,7935C2267,7954 2268,7977 2236,8035C2221,8061 2213,8089 2216,8104C2219,8120 2214,8135 2201,8147C2173,8173 2020,8479 2027,8496C2032,8510 2014,8540 2001,8540C1997,8540 1979,8525 1962,8507ZM2010,8273C2017,8257 2022,8241 2021,8236C2020,8231 2025,8223 2032,8219C2042,8213 2042,8206 2034,8193C2026,8180 2008,8175 1966,8173C1935,8171 1910,8172 1910,8174C1910,8180 1953,8272 1963,8288C1976,8308 1996,8302 2010,8273Z" style="fill-rule:nonzero;"/>
                <path d="M2750,8515C2743,8507 2732,8500 2725,8500C2719,8500 2705,8491 2694,8479C2679,8462 2676,8441 2675,8342C2674,8278 2677,8212 2681,8195C2685,8179 2691,8136 2695,8100C2698,8065 2703,8034 2705,8031C2708,8029 2700,8016 2688,8003C2668,7982 2667,7978 2682,7964C2703,7942 2768,7931 2846,7936C2906,7939 2946,7951 3013,7986C3028,7995 3040,7998 3040,7995C3040,7992 3067,8009 3099,8034C3188,8102 3212,8164 3188,8260C3184,8278 3121,8388 3120,8378C3120,8375 3105,8385 3088,8402C3028,8457 3022,8461 3008,8464C3001,8465 2977,8475 2955,8484C2933,8494 2882,8505 2843,8507C2803,8510 2773,8517 2776,8521C2785,8536 2763,8531 2750,8515ZM2883,8385C2895,8384 2905,8382 2905,8381C2905,8380 2919,8377 2937,8375C3001,8366 3048,8320 3067,8250C3082,8192 3079,8183 3030,8135C3003,8108 2973,8085 2964,8084C2956,8083 2940,8074 2931,8066C2921,8057 2910,8053 2907,8056C2903,8060 2895,8058 2888,8053C2881,8047 2868,8043 2860,8043C2851,8043 2833,8040 2818,8037C2794,8031 2792,8033 2786,8073C2779,8122 2769,8261 2767,8343L2765,8400L2813,8394C2840,8390 2872,8386 2883,8385Z" style="fill-rule:nonzero;"/>
                <path d="M4324,8492C4326,8477 4331,8452 4334,8435C4338,8419 4342,8308 4344,8190C4347,8072 4349,7970 4349,7964C4350,7957 4367,7953 4393,7954C4440,7955 4437,7945 4439,8081C4440,8159 4439,8158 4548,8166C4590,8169 4628,8172 4634,8173C4641,8174 4645,8135 4645,8053C4645,7986 4649,7928 4653,7924C4658,7919 4676,7915 4693,7914C4717,7912 4730,7919 4744,7937C4760,7959 4761,7968 4752,8009C4746,8035 4743,8112 4745,8185C4747,8257 4744,8343 4739,8377C4730,8430 4722,8445 4692,8471C4659,8500 4656,8501 4646,8484C4640,8473 4635,8421 4635,8368C4635,8315 4631,8268 4627,8264C4624,8260 4580,8255 4531,8252C4444,8248 4442,8248 4434,8271C4430,8284 4427,8334 4428,8382C4429,8479 4420,8495 4355,8510C4320,8518 4319,8517 4324,8492Z" style="fill-rule:nonzero;"/>
                <path d="M3627,8483C3580,8467 3492,8389 3463,8337C3440,8297 3450,8192 3482,8123C3555,7967 3686,7900 3825,7949C3858,7961 3885,7970 3886,7970C3887,7970 3887,7960 3886,7948C3885,7935 3888,7915 3893,7903C3901,7885 3908,7883 3944,7887C4002,7893 4012,7906 3998,7955C3992,7977 3984,8040 3980,8095C3976,8150 3972,8196 3971,8198C3970,8199 3955,8209 3938,8220C3906,8239 3812,8248 3797,8234C3793,8230 3771,8227 3748,8226C3724,8225 3699,8221 3693,8217C3686,8212 3675,8212 3669,8216C3661,8220 3659,8210 3662,8183C3670,8114 3664,8116 3808,8135C3844,8140 3850,8138 3850,8122C3850,8081 3739,8014 3687,8024C3680,8026 3658,8030 3638,8034C3601,8042 3581,8057 3576,8082C3574,8089 3570,8102 3567,8110C3550,8152 3544,8199 3552,8235C3576,8350 3644,8417 3730,8411C3755,8409 3776,8397 3805,8370C3844,8333 3857,8326 3891,8329C3904,8330 3906,8338 3903,8368C3900,8396 3888,8416 3853,8451C3807,8496 3804,8497 3740,8498C3704,8499 3654,8492 3627,8483Z" style="fill-rule:nonzero;"/>
                <path d="M5235,8480L5175,8475L5177,8415C5179,8343 5187,8161 5195,8032C5197,7980 5202,7935 5205,7930C5208,7926 5243,7922 5282,7921C5322,7921 5379,7919 5408,7917C5437,7915 5460,7917 5460,7923C5460,7928 5467,7927 5475,7920C5486,7911 5490,7911 5490,7919C5490,7926 5495,7928 5500,7925C5506,7921 5517,7923 5524,7929C5532,7936 5542,7940 5546,7939C5562,7935 5590,7952 5590,7965C5590,7971 5581,7985 5569,7996C5551,8012 5531,8014 5415,8015L5282,8015L5275,8059C5271,8084 5273,8107 5278,8112C5284,8118 5310,8122 5337,8122C5363,8122 5400,8124 5418,8126C5450,8131 5450,8131 5444,8173C5440,8196 5433,8220 5428,8226C5419,8238 5354,8240 5335,8229C5320,8221 5253,8234 5266,8242C5272,8246 5275,8264 5273,8282C5270,8300 5268,8326 5267,8340L5265,8365L5385,8366C5538,8367 5565,8377 5554,8430C5540,8490 5549,8487 5417,8486C5350,8485 5268,8483 5235,8480Z" style="fill-rule:nonzero;"/>
                <path d="M802,7786C786,7765 801,7535 820,7516C826,7510 890,7505 963,7504C1115,7501 1143,7499 1132,7488C1128,7484 1126,7407 1129,7318C1132,7228 1134,7022 1133,6860C1132,6586 1129,6470 1114,6280C1111,6239 1107,6181 1105,6151C1104,6120 1097,6094 1089,6089C1075,6080 981,6087 945,6100C934,6104 908,6107 887,6106C857,6105 845,6099 832,6078C817,6052 817,6050 839,6026C866,5998 912,5987 1022,5985C1065,5984 1102,5981 1105,5978C1116,5967 1131,4508 1122,4409L1118,4372L1067,4375C1038,4377 980,4381 937,4384C836,4392 790,4375 790,4332C790,4295 812,4288 914,4290C953,4291 996,4292 1010,4292C1059,4293 1115,4281 1125,4267C1133,4256 1138,4115 1130,4115C1129,4115 1127,4099 1125,4080C1123,4061 1121,4045 1120,4045C1119,4045 1117,3917 1115,3760C1113,3603 1109,3450 1105,3420C1095,3348 1099,2968 1113,2717C1115,2690 1112,2666 1107,2663C1097,2657 1020,2651 895,2646C851,2644 811,2642 806,2641C802,2641 801,2630 804,2618C808,2605 812,2590 813,2584C815,2579 825,2561 836,2546C853,2522 860,2519 877,2528C888,2534 910,2542 926,2546C960,2554 1161,2557 1152,2550C1148,2547 1146,2487 1147,2415C1149,2236 1149,2197 1150,2180C1156,1913 1155,1068 1148,1064C1143,1061 1144,1052 1151,1044C1166,1025 1166,1026 953,1031C865,1034 848,1031 830,1015C806,993 805,977 826,959C845,943 854,942 1010,940C1097,938 1140,934 1150,924C1162,914 1165,892 1163,828C1162,757 1156,705 1150,705C1146,705 1144,334 1148,323C1150,315 1171,310 1200,310C1227,310 1252,316 1257,323C1264,332 1267,480 1260,500C1259,505 1260,561 1265,735C1267,779 1268,838 1269,867L1270,919L1468,914C1576,910 1715,907 1775,905C1836,904 1899,902 1915,901L1945,900L1946,807C1947,757 1949,627 1951,519L1954,323L1985,325C2044,327 2054,340 2056,421C2060,548 2061,783 2058,840L2055,895L2160,893C2449,889 2675,889 2761,895L2858,901L2851,863C2847,842 2846,740 2847,635C2851,399 2853,364 2862,368C2886,377 2898,379 2925,382C2943,384 2954,390 2952,398C2944,439 2939,526 2936,700L2933,895L3199,895C3345,895 3522,897 3593,900C3663,903 3720,903 3721,900C3725,868 3731,687 3732,535L3733,345L3769,347C3789,348 3808,349 3811,349C3818,350 3820,406 3821,675L3823,905L4560,905L4561,830C4562,789 4563,658 4565,540C4567,328 4567,325 4588,322C4600,320 4610,323 4610,329C4610,334 4619,342 4630,345C4650,352 4651,356 4646,626L4641,900L4668,900C4713,900 4984,913 5196,924L5318,931L5324,848C5327,802 5330,711 5331,645C5331,538 5335,428 5339,408C5339,403 5357,400 5378,400C5399,400 5421,395 5428,388C5438,378 5440,434 5439,648C5438,830 5441,925 5448,932C5459,943 5554,945 5572,934C5589,923 5689,929 5710,942C5735,958 5735,978 5711,1009C5693,1032 5691,1033 5562,1027C5464,1022 5431,1023 5428,1033C5424,1044 5427,2252 5432,2453L5433,2541L5576,2537C5655,2535 5724,2536 5729,2539C5742,2547 5733,2619 5716,2645C5708,2656 5694,2666 5684,2667C5673,2668 5629,2671 5585,2674C5541,2677 5482,2682 5455,2686L5404,2692L5404,2874C5404,2973 5400,3107 5395,3170C5386,3307 5386,3337 5397,3500C5401,3569 5405,3774 5405,3957L5405,4288L5448,4292C5472,4294 5493,4292 5496,4289C5498,4285 5536,4282 5581,4281C5645,4280 5666,4283 5681,4296C5705,4318 5705,4323 5675,4358C5652,4386 5647,4387 5598,4382C5569,4378 5511,4375 5470,4375L5395,4375L5396,5000C5396,5556 5403,5987 5413,5996C5418,6001 5459,6000 5605,5994C5729,5989 5736,5990 5758,6010C5778,6029 5780,6035 5768,6045C5761,6053 5740,6061 5722,6063C5704,6066 5682,6074 5673,6082C5661,6092 5624,6094 5529,6092L5401,6089L5405,6565L5430,6566C5444,6567 5468,6572 5483,6579C5498,6585 5523,6593 5538,6597C5613,6615 5668,6685 5675,6770C5687,6932 5591,7080 5473,7080C5458,7080 5435,7083 5423,7086C5400,7092 5400,7092 5403,7294L5405,7495L5440,7497C5545,7503 5751,7502 5792,7496L5838,7489L5836,7626C5834,7781 5831,7788 5758,7783C5649,7777 5128,7779 4980,7786C4792,7796 4232,7796 3905,7787C3437,7774 1907,7765 1830,7775C1811,7778 1622,7782 1410,7785C1198,7788 977,7792 918,7794C844,7797 808,7794 802,7786ZM1540,7491C1856,7487 1915,7486 1920,7478C1923,7474 1925,7445 1924,7413C1913,7036 1908,6726 1906,6438C1906,6248 1903,6089 1900,6086C1894,6081 1409,6077 1278,6081C1210,6083 1206,6085 1209,6125C1209,6136 1212,6179 1214,6222C1216,6264 1220,6302 1222,6307C1225,6314 1225,6660 1221,7105C1221,7166 1222,7275 1223,7349C1226,7508 1227,7509 1322,7499C1356,7496 1455,7492 1540,7491ZM3446,7499L3677,7496L3665,7451C3651,7395 3654,7233 3674,7059C3677,7036 3671,7032 3605,7011C3467,6968 3430,6894 3443,6683C3444,6665 3448,6650 3451,6650C3454,6650 3462,6638 3468,6624C3475,6610 3484,6601 3489,6605C3494,6608 3507,6600 3517,6587C3544,6553 3573,6540 3623,6540C3666,6540 3667,6540 3669,6503C3675,6430 3671,6135 3665,6099L3658,6062L3274,6065C3063,6067 2886,6071 2881,6074C2876,6078 2874,6180 2878,6327C2885,6628 2886,7186 2879,7367L2874,7499L2914,7502C2937,7504 3014,7504 3085,7503C3157,7502 3319,7500 3446,7499ZM2790,7481C2790,7472 2793,7425 2796,7375C2802,7274 2802,7205 2794,6800C2789,6516 2782,6262 2777,6142C2774,6083 2759,6053 2739,6065C2736,6068 2576,6070 2385,6071C2193,6072 2029,6075 2020,6077C2005,6081 2003,6104 2001,6278C1997,6643 1998,6854 2004,6975C2008,7041 2011,7178 2012,7280C2013,7382 2015,7470 2017,7475C2019,7481 2061,7485 2116,7485C2169,7485 2213,7487 2215,7490C2217,7493 2347,7496 2504,7496C2762,7498 2790,7496 2790,7481ZM4495,7481C4501,7466 4504,7040 4498,7035C4492,7029 3771,7026 3765,7032C3758,7038 3759,7402 3765,7452C3767,7467 3771,7483 3774,7489C3778,7495 3910,7498 4135,7497C4429,7495 4491,7493 4495,7481ZM5292,7484C5298,7480 5300,7394 5298,7269L5295,7060L5230,7059C4908,7056 4640,7049 4617,7044L4589,7038L4596,7187C4599,7268 4604,7353 4605,7375C4607,7397 4609,7434 4609,7457L4610,7499L4946,7494C5131,7492 5287,7487 5292,7484ZM3825,6556C3877,6559 4393,6560 4445,6557L4485,6555L4485,6318C4485,6113 4483,6080 4470,6079C4409,6075 3780,6076 3779,6080C3772,6123 3770,6152 3766,6250C3758,6469 3758,6548 3765,6560C3769,6567 3775,6568 3779,6563C3782,6558 3803,6555 3825,6556ZM5017,6557C5023,6553 5031,6554 5034,6558C5037,6563 5097,6568 5168,6568L5297,6570L5293,6457C5291,6396 5288,6287 5287,6215L5285,6085L4571,6085L4576,6315C4579,6442 4583,6550 4584,6555C4588,6567 4999,6569 5017,6557ZM4485,5836C4481,5753 4476,5669 4475,5650C4473,5631 4471,5603 4471,5589C4470,5569 4463,5561 4444,5556C4383,5540 4284,5440 4267,5375C4234,5254 4239,5191 4285,5101C4320,5034 4385,4987 4482,4957C4501,4951 4506,4889 4515,4569L4521,4373L4453,4366C4356,4357 3846,4346 3818,4353C3791,4360 3794,4288 3785,5050C3782,5300 3777,5532 3775,5565C3765,5714 3762,5966 3769,5978C3776,5989 3847,5992 4114,5995C4300,5997 4454,6001 4457,6004C4461,6007 4470,6004 4478,5998C4489,5988 4491,5960 4485,5836ZM5281,5895C5276,5738 5278,5427 5285,5285C5299,5006 5305,4527 5295,4425C5294,4409 5292,4389 5291,4382C5290,4373 5276,4369 5248,4370C5224,4371 5071,4369 4908,4366C4632,4361 4611,4362 4606,4378C4603,4387 4598,4513 4594,4657C4591,4801 4587,4927 4587,4937C4585,4949 4591,4954 4603,4952C4635,4946 4770,5051 4770,5081C4770,5086 4776,5090 4783,5090C4800,5090 4859,5229 4862,5276C4865,5331 4833,5421 4800,5447C4785,5459 4767,5483 4760,5500C4743,5541 4662,5583 4602,5582L4559,5582L4564,5763C4566,5863 4569,5955 4569,5967C4570,5981 4578,5990 4593,5993C4605,5996 4766,5997 4950,5996L5284,5995L5281,5895ZM3676,5864C3677,5799 3681,5549 3685,5310C3689,5071 3692,4794 3692,4696C3691,4597 3695,4508 3701,4499C3707,4488 3706,4479 3700,4475C3695,4472 3693,4447 3695,4420C3699,4388 3696,4369 3688,4364C3670,4352 2928,4364 2909,4376C2905,4378 2901,4388 2902,4398C2902,4407 2899,4505 2896,4615C2877,5263 2871,5944 2884,5957C2893,5967 2932,5968 3264,5974C3422,5977 3554,5980 3555,5982C3557,5984 3585,5985 3617,5984L3675,5984L3676,5864ZM1710,5967C1779,5966 1849,5968 1866,5971L1896,5977L1900,5911C1904,5838 1905,4587 1901,4446L1898,4357L1792,4364C1645,4374 1421,4377 1327,4370C1284,4367 1245,4367 1242,4370C1238,4373 1235,4508 1234,4670C1234,4832 1231,5028 1227,5105C1215,5332 1206,5654 1207,5814C1207,5927 1210,5964 1221,5971C1228,5975 1313,5976 1410,5974C1506,5971 1641,5968 1710,5967ZM2764,5959C2767,5957 2771,5831 2775,5680C2778,5529 2783,5344 2785,5270C2789,5127 2800,4633 2804,4464L2805,4363L2545,4361C2402,4360 2249,4358 2206,4357C2162,4356 2103,4357 2073,4360L2020,4365L2015,4680C2012,4853 2008,5074 2005,5170C2000,5337 1996,5766 1999,5897L2000,5960L2195,5958C2302,5957 2392,5958 2394,5961C2400,5966 2759,5965 2764,5959ZM1295,4270C1295,4262 1348,4261 1895,4250C1914,4250 1915,4243 1916,4123C1921,3613 1922,3241 1919,2975L1915,2665L1800,2657C1737,2653 1587,2651 1467,2652L1250,2655L1245,3040C1242,3252 1238,3445 1236,3470C1228,3558 1227,3747 1234,3758C1238,3765 1237,3770 1233,3770C1228,3770 1225,3800 1227,3838C1228,3875 1231,3984 1233,4081C1236,4178 1240,4262 1243,4267C1248,4275 1295,4277 1295,4270ZM5286,4269C5301,4244 5310,3215 5296,3075C5291,3031 5287,2985 5286,2973C5286,2960 5282,2950 5278,2950C5272,2950 5275,2836 5284,2740C5285,2721 5285,2700 5283,2693C5277,2677 5233,2667 5170,2668C4965,2671 4858,2670 4738,2664L4600,2657L4599,2721C4595,2897 4597,3038 4605,3280C4615,3595 4617,3935 4610,4118C4606,4231 4607,4250 4620,4251C4628,4251 4662,4253 4695,4255C4728,4257 4850,4262 4965,4265C5081,4269 5176,4273 5177,4274C5185,4281 5280,4277 5286,4269ZM4523,4251C4536,4238 4538,3566 4525,3100C4522,2965 4518,2813 4518,2762C4517,2711 4513,2667 4509,2664C4496,2656 4144,2648 3906,2649L3781,2650L3779,2713C3774,2841 3779,3610 3786,3745C3793,3893 3795,4074 3790,4176C3788,4209 3789,4241 3793,4246C3796,4252 3922,4255 4110,4254C4282,4253 4434,4255 4448,4259C4484,4269 4508,4266 4523,4251ZM3691,4233C3692,4217 3694,4162 3696,4110C3703,3954 3703,3886 3696,3400C3692,3144 3689,2879 3688,2810C3688,2741 3684,2681 3679,2675C3675,2669 3534,2665 3293,2665L2915,2665L2913,2770C2913,2828 2911,2877 2911,2880C2910,2883 2909,2945 2907,3018C2905,3150 2905,3150 2928,3150C2978,3150 3052,3213 3116,3310C3149,3359 3151,3417 3126,3539C3112,3604 3106,3617 3065,3656C3039,3681 2998,3707 2970,3717C2942,3727 2919,3739 2919,3745C2918,3750 2916,3766 2913,3780C2911,3794 2908,3903 2907,4023L2905,4240L3060,4240C3269,4241 3644,4251 3649,4256C3651,4258 3662,4260 3672,4260C3685,4260 3690,4252 3691,4233ZM2455,4238C2521,4238 2629,4240 2696,4243L2817,4249L2817,3994C2817,3747 2816,3740 2797,3740C2764,3740 2685,3652 2660,3585C2625,3492 2623,3429 2654,3340C2681,3263 2740,3188 2788,3169C2800,3164 2810,3153 2811,3143C2814,3098 2811,3017 2804,2925C2800,2870 2796,2792 2796,2753C2795,2712 2791,2680 2785,2680C2780,2680 2640,2678 2475,2676C2310,2674 2143,2669 2105,2665L2034,2658L2033,2771C2032,2834 2029,2993 2025,3125C2022,3257 2019,3417 2019,3480C2019,3580 2028,4242 2029,4247C2030,4248 2099,4246 2183,4243C2266,4240 2389,4238 2455,4238ZM1927,2448C1927,2389 1930,2338 1932,2333C1933,2329 1935,2296 1935,2260L1935,2195L1895,2176C1873,2166 1846,2148 1835,2136C1754,2046 1721,2006 1725,2002C1728,1999 1725,1991 1718,1983C1712,1975 1706,1934 1706,1892C1705,1826 1709,1807 1734,1757C1750,1726 1766,1697 1771,1694C1775,1692 1776,1682 1773,1674C1768,1661 1772,1659 1791,1665C1813,1672 1814,1672 1800,1655C1786,1638 1787,1637 1802,1643C1814,1647 1832,1637 1860,1610C1882,1589 1909,1568 1920,1565C1932,1561 1940,1549 1941,1537C1942,1490 1939,1309 1934,1180C1932,1106 1930,1039 1930,1030C1930,1016 1895,1015 1608,1018C1430,1019 1279,1023 1272,1025C1265,1028 1262,1034 1265,1040C1272,1051 1272,1467 1265,1565C1258,1657 1240,2233 1239,2390C1238,2487 1242,2545 1250,2550C1255,2553 1408,2555 1592,2555L1925,2555L1927,2448ZM2798,2545C2801,2543 2804,2456 2806,2353C2808,2250 2811,2080 2814,1975C2828,1473 2832,1313 2834,1173L2835,1021L2590,1014C2330,1007 2085,1008 2060,1015C2047,1019 2045,1058 2045,1291C2046,1536 2047,1563 2063,1571C2072,1577 2080,1578 2080,1573C2080,1569 2103,1588 2130,1615C2158,1642 2180,1668 2180,1673C2180,1679 2190,1691 2202,1701C2213,1712 2220,1720 2216,1720C2213,1720 2217,1734 2226,1752C2246,1791 2250,1935 2232,1995C2219,2039 2151,2117 2108,2140C2092,2147 2080,2157 2080,2161C2080,2165 2069,2171 2055,2174L2030,2180L2030,2559L2412,2554C2622,2551 2796,2547 2798,2545ZM3697,2535C3707,2486 3719,1988 3723,1430C3724,1279 3729,1150 3733,1143C3737,1137 3736,1129 3730,1125C3721,1119 3722,1096 3735,1037L3741,1009L3345,1013C3127,1016 2945,1021 2940,1026C2935,1031 2929,1157 2926,1305C2923,1454 2917,1692 2914,1835C2908,2055 2906,2355 2909,2516L2910,2556L3302,2556C3685,2555 3693,2555 3697,2535ZM4514,2473C4514,2430 4512,2350 4511,2295C4510,2240 4511,2143 4514,2080C4517,2017 4522,1888 4524,1793C4527,1699 4531,1577 4534,1523C4537,1469 4542,1338 4545,1232C4548,1125 4552,1035 4555,1030C4558,1025 4543,1019 4523,1015C4470,1007 3830,1000 3829,1008C3826,1024 3821,1316 3816,1740C3813,1990 3808,2224 3805,2260C3797,2368 3791,2544 3796,2552C3799,2556 3962,2558 4158,2556L4515,2551L4514,2473ZM5296,2469C5297,2428 5299,2393 5300,2390C5307,2372 5305,2340 5297,2340C5292,2340 5293,2333 5300,2325C5307,2317 5308,2310 5303,2310C5297,2310 5294,2298 5296,2283C5322,2069 5343,1229 5327,1070L5322,1025L5239,1023C5193,1022 5042,1019 4903,1015C4708,1011 4650,1012 4644,1021C4640,1028 4635,1061 4634,1094C4623,1381 4618,1525 4614,1585C4601,1816 4591,2412 4599,2506L4602,2550L4949,2547L5295,2543L5296,2469Z" style="fill-rule:nonzero;"/>
                <path d="M4954,5846C4916,5808 4910,5775 4940,5765C4954,5760 4967,5767 4984,5787C5004,5810 5010,5812 5024,5801C5059,5772 5037,5705 4967,5617C4923,5563 4916,5537 4943,5527C4950,5525 5001,5523 5058,5524C5149,5525 5163,5527 5176,5545C5189,5563 5189,5567 5170,5582C5153,5596 5137,5598 5083,5593L5016,5587L5048,5626C5115,5710 5120,5792 5060,5852C5023,5889 4995,5887 4954,5846Z" style="fill-rule:nonzero;"/>
                <path d="M3353,4055C3303,4033 3282,3977 3320,3967C3331,3964 3340,3966 3340,3971C3340,3975 3358,3985 3380,3991C3416,4002 3423,4001 3438,3986C3454,3970 3454,3967 3435,3932C3424,3912 3404,3890 3390,3883C3363,3870 3340,3843 3340,3824C3340,3807 3372,3801 3419,3810C3451,3816 3463,3814 3475,3800C3498,3774 3493,3748 3455,3708C3416,3665 3404,3662 3351,3690C3317,3707 3311,3708 3306,3694C3297,3670 3299,3640 3309,3640C3314,3640 3326,3633 3334,3624C3343,3616 3366,3606 3385,3603C3427,3596 3472,3623 3513,3680C3563,3750 3559,3807 3501,3856C3482,3873 3478,3881 3486,3891C3524,3938 3506,4030 3455,4055C3415,4073 3395,4073 3353,4055Z" style="fill-rule:nonzero;"/>
                <path d="M2412,2407C2400,2393 2380,2250 2380,2178C2380,2121 2395,2110 2470,2110L2521,2110L2519,2023C2517,1911 2517,1910 2536,1910C2570,1910 2580,1936 2580,2030L2580,2122L2610,2133C2647,2147 2659,2178 2634,2197C2624,2204 2609,2210 2600,2210C2587,2210 2584,2219 2586,2253C2589,2310 2580,2351 2563,2357C2538,2367 2529,2345 2526,2269L2524,2195L2482,2192C2459,2190 2440,2192 2440,2197C2440,2201 2445,2245 2450,2293C2462,2399 2446,2448 2412,2407Z" style="fill-rule:nonzero;"/>
                <path d="M6040,7083C6027,7047 6000,7006 5971,6975C5909,6909 5888,6877 5896,6856C5902,6840 5950,6833 5950,6848C5950,6852 5965,6870 5983,6889C6000,6908 6025,6937 6038,6954L6060,6984L6060,6903C6060,6859 6063,6789 6066,6747C6072,6679 6075,6671 6096,6667C6128,6661 6142,6673 6135,6701C6132,6714 6128,6812 6126,6919C6124,7095 6122,7114 6105,7126C6073,7149 6062,7142 6040,7083Z" style="fill-rule:nonzero;"/>
                <path d="M5828,313C5835,310 5844,311 5847,314C5851,317 5845,320 5834,319C5823,319 5820,316 5828,313Z" style="fill-rule:nonzero;"/>
            </g>
        </g>
        <g id="Db1" serif:id="Db">
        </g>
    </g>
</svg>
