<?xml version="1.0" encoding="UTF-8" standalone="no"?>
<!DOCTYPE svg PUBLIC "-//W3C//DTD SVG 1.1//EN" "http://www.w3.org/Graphics/SVG/1.1/DTD/svg11.dtd">
<svg width="100%" height="100%" viewBox="0 0 963 1280" version="1.1" xmlns="http://www.w3.org/2000/svg" xmlns:xlink="http://www.w3.org/1999/xlink" xml:space="preserve" xmlns:serif="http://www.serif.com/" style="fill-rule:evenodd;clip-rule:evenodd;stroke-linejoin:round;stroke-miterlimit:2;">
    <g transform="matrix(1.17331,0,0,1.17331,486.003,454.559)">
        <g id="Asus2" transform="matrix(1,0,0,1,-336.5,-512.5)">
            <g transform="matrix(0.1,0,0,-0.1,0,1025)">
                <g transform="matrix(1,0,0,1,0,-50)">
                    <path d="M2635,8980C2631,8974 2626,8948 2624,8922C2608,8762 2532,8493 2487,8443C2477,8431 2467,8409 2465,8393C2464,8378 2460,8358 2457,8350C2408,8220 2399,8095 2442,8138C2448,8144 2458,8146 2465,8144C2473,8140 2483,8161 2495,8207C2513,8280 2539,8350 2549,8351C2552,8351 2564,8353 2575,8356C2619,8364 2668,8371 2736,8376L2806,8382L2820,8338C2827,8315 2835,8279 2837,8260C2844,8203 2872,8164 2904,8168C2949,8173 2989,8227 2961,8245C2956,8248 2946,8267 2939,8288C2922,8343 2863,8467 2851,8475C2845,8478 2840,8489 2840,8498C2840,8533 2709,8926 2683,8968C2669,8991 2646,8997 2635,8980ZM2704,8628C2722,8577 2743,8520 2752,8503C2768,8471 2768,8470 2747,8469C2735,8469 2694,8466 2657,8461C2619,8457 2587,8457 2585,8461C2582,8465 2598,8519 2620,8581C2642,8644 2660,8704 2660,8714C2660,8747 2672,8724 2704,8628Z" style="fill-rule:nonzero;"/>
                </g>
                <g transform="matrix(1,0,0,1,0,-50)">
                    <path d="M4312,8880C4257,8855 4249,8846 4222,8781C4194,8714 4195,8708 4224,8683L4248,8662L4271,8686C4285,8701 4294,8723 4294,8745C4295,8774 4301,8785 4326,8801C4356,8820 4359,8820 4375,8803C4389,8790 4391,8776 4386,8731C4377,8659 4352,8571 4330,8540C4310,8511 4185,8227 4175,8188C4169,8165 4173,8159 4200,8145C4230,8130 4239,8130 4325,8144C4376,8153 4445,8160 4478,8160C4535,8160 4590,8175 4590,8190C4590,8194 4582,8204 4573,8212C4556,8226 4492,8232 4328,8234C4290,8235 4280,8238 4280,8252C4280,8261 4283,8270 4288,8272C4292,8274 4312,8310 4333,8353C4354,8395 4377,8436 4383,8443C4417,8477 4467,8627 4478,8724C4483,8768 4466,8831 4437,8873C4414,8906 4375,8909 4312,8880Z" style="fill-rule:nonzero;"/>
                </g>
                <g transform="matrix(1,0,0,1,0,-50)">
                    <path d="M3073,8604C3033,8584 2987,8518 2987,8480C2987,8464 2995,8441 3005,8430C3031,8402 3108,8360 3136,8360C3158,8360 3200,8315 3200,8290C3200,8257 3168,8220 3129,8210C3090,8199 3086,8200 3060,8225C3026,8258 2999,8254 2989,8216C2979,8178 2990,8165 3049,8145C3092,8131 3101,8131 3140,8145C3196,8165 3218,8185 3241,8238C3257,8275 3258,8287 3248,8331C3235,8389 3219,8402 3118,8444C3044,8475 3031,8497 3073,8525C3116,8553 3155,8554 3178,8530C3214,8491 3246,8522 3220,8571C3207,8594 3159,8620 3128,8620C3115,8620 3091,8612 3073,8604Z" style="fill-rule:nonzero;"/>
                </g>
                <g transform="matrix(1,0,0,1,0,-50)">
                    <path d="M3820,8595C3806,8587 3788,8581 3779,8580C3761,8580 3714,8500 3706,8457C3700,8423 3724,8363 3753,8339C3765,8329 3795,8315 3819,8308C3852,8298 3866,8287 3878,8262C3893,8232 3893,8228 3873,8202C3843,8161 3820,8163 3767,8215C3715,8264 3708,8267 3690,8245C3662,8212 3725,8130 3794,8112C3840,8099 3871,8107 3915,8142C3962,8181 3972,8209 3961,8263C3950,8311 3906,8354 3824,8395C3794,8410 3770,8425 3770,8429C3770,8447 3817,8519 3831,8523C3850,8528 3870,8513 3870,8494C3870,8472 3891,8468 3911,8486C3939,8511 3935,8533 3893,8574C3851,8615 3853,8614 3820,8595Z" style="fill-rule:nonzero;"/>
                </g>
                <g transform="matrix(1,0,0,1,0,-50)">
                    <path d="M3319,8523C3295,8411 3309,8295 3354,8237C3383,8200 3391,8195 3421,8198C3459,8202 3496,8222 3522,8254C3539,8275 3539,8275 3555,8255C3564,8244 3576,8223 3581,8208C3594,8176 3612,8167 3635,8184C3650,8195 3651,8202 3642,8231C3631,8265 3626,8305 3615,8447C3609,8531 3597,8568 3574,8577C3549,8586 3530,8553 3530,8502C3530,8434 3502,8349 3467,8313C3430,8273 3421,8273 3395,8308C3378,8331 3376,8347 3378,8420C3384,8554 3384,8562 3369,8571C3341,8589 3331,8579 3319,8523Z" style="fill-rule:nonzero;"/>
                </g>
                <path d="M1428,8473C1410,8452 1337,8332 1327,8307C1324,8298 1317,8290 1313,8290C1304,8290 1260,8355 1260,8369C1260,8374 1250,8398 1238,8422C1225,8445 1215,8466 1215,8467C1214,8469 1197,8472 1176,8474C1142,8479 1138,8477 1126,8448C1109,8408 1122,8372 1176,8311C1198,8286 1225,8250 1236,8232L1255,8199L1226,8147C1210,8118 1179,8070 1158,8040C1120,7984 1103,7934 1117,7914C1122,7908 1136,7900 1150,7897C1173,7892 1178,7897 1210,7968C1250,8054 1295,8130 1308,8130C1313,8130 1336,8096 1360,8055C1408,7970 1454,7915 1470,7925C1475,7928 1480,7925 1480,7918C1480,7909 1484,7910 1495,7921C1520,7946 1492,8011 1388,8168C1372,8191 1360,8216 1360,8223C1360,8231 1383,8274 1411,8320C1488,8448 1493,8459 1479,8476C1464,8495 1446,8494 1428,8473Z" style="fill-rule:nonzero;"/>
                <path d="M1248,7690C1073,7682 1075,7684 1076,7558C1076,7507 1081,7440 1085,7410C1090,7380 1093,7351 1092,7346C1090,7342 1094,7332 1100,7326C1105,7319 1108,7311 1105,7308C1102,7306 1104,7289 1110,7272C1115,7254 1120,7209 1121,7171L1124,7103L1275,7107C1472,7112 1467,7111 1478,7163C1484,7193 1483,7207 1474,7213C1452,7226 1327,7231 1275,7221C1248,7216 1222,7215 1217,7219C1209,7227 1205,7245 1194,7311L1188,7347L1243,7353C1325,7363 1328,7365 1325,7411C1324,7434 1318,7456 1312,7462C1306,7468 1273,7472 1238,7471L1175,7469L1175,7510C1175,7548 1183,7557 1214,7551C1219,7550 1226,7553 1229,7557C1232,7562 1272,7563 1318,7560C1413,7554 1425,7557 1424,7585C1424,7596 1430,7617 1437,7632C1449,7656 1448,7660 1424,7679C1409,7691 1395,7699 1391,7698C1388,7697 1323,7694 1248,7690Z" style="fill-rule:nonzero;"/>
                <path d="M2060,7615C2041,7596 2029,7580 2033,7580C2037,7580 2029,7558 2015,7530C2001,7503 1993,7480 1997,7480C2000,7480 1995,7470 1984,7458C1973,7445 1949,7404 1931,7365C1913,7327 1890,7279 1879,7260C1868,7241 1847,7201 1833,7171L1806,7118L1835,7094C1874,7063 1892,7067 1905,7110C1928,7190 1941,7198 2037,7205C2069,7207 2116,7212 2141,7215C2186,7221 2187,7221 2199,7188C2234,7096 2274,7040 2300,7047C2327,7054 2377,7110 2364,7118C2347,7129 2318,7198 2318,7227C2318,7241 2298,7283 2275,7319C2232,7385 2170,7510 2170,7530C2170,7535 2167,7540 2162,7540C2151,7540 2127,7599 2133,7614C2139,7629 2122,7650 2105,7650C2099,7650 2079,7634 2060,7615ZM2121,7375C2135,7345 2144,7317 2141,7312C2138,7308 2115,7303 2090,7301C2065,7299 2042,7296 2038,7294C2010,7277 2037,7371 2073,7418C2088,7437 2093,7432 2121,7375Z" style="fill-rule:nonzero;"/>
                <path d="M2814,7608L2773,7565L2775,7475C2777,7390 2782,7337 2797,7230C2808,7152 2807,7147 2789,7129C2771,7111 2771,7110 2795,7086C2818,7063 2826,7061 2897,7064C2940,7066 2984,7070 2995,7073C3006,7076 3046,7088 3083,7098C3121,7109 3163,7128 3178,7141C3287,7238 3313,7294 3285,7374C3265,7432 3223,7492 3172,7535C3140,7563 3075,7603 3060,7605C3057,7605 3050,7608 3044,7612C3031,7621 2965,7632 2917,7634C2897,7634 2878,7638 2874,7643C2862,7655 2856,7652 2814,7608ZM2986,7505C3106,7491 3157,7446 3174,7338C3179,7306 3175,7299 3130,7256C3103,7231 3075,7210 3066,7210C3058,7210 3048,7205 3045,7200C3041,7194 3034,7192 3029,7196C3023,7199 3011,7195 3002,7187C2993,7179 2978,7172 2970,7172C2962,7172 2940,7169 2921,7164C2891,7158 2887,7159 2893,7174C2897,7184 2897,7197 2894,7202C2887,7214 2884,7247 2876,7404C2873,7459 2873,7507 2876,7512C2879,7516 2892,7518 2905,7516C2917,7514 2954,7509 2986,7505Z" style="fill-rule:nonzero;"/>
                <path d="M3710,7603C3686,7590 3664,7582 3662,7585C3654,7593 3584,7515 3546,7456C3528,7428 3528,7416 3545,7320C3559,7235 3646,7123 3724,7088C3788,7060 3861,7057 3922,7081C3973,7101 3980,7098 3976,7057C3971,7018 3979,7015 4070,7019C4086,7020 4090,7027 4090,7058C4090,7079 4087,7100 4083,7104C4072,7114 4069,7139 4066,7225C4065,7269 4058,7315 4052,7327C4031,7365 3978,7374 3855,7358C3752,7346 3745,7344 3744,7322C3743,7310 3747,7297 3751,7294C3756,7291 3760,7280 3760,7268C3760,7249 3764,7248 3851,7255C3902,7259 3941,7258 3938,7254C3936,7249 3928,7233 3920,7218C3913,7202 3900,7190 3893,7190C3885,7190 3882,7185 3886,7178C3890,7171 3889,7170 3881,7174C3875,7178 3863,7177 3856,7170C3842,7159 3754,7155 3715,7164C3704,7166 3692,7169 3689,7169C3672,7171 3639,7276 3639,7325C3639,7432 3714,7530 3797,7530C3848,7530 3888,7513 3895,7489C3901,7470 3930,7456 3968,7455C3985,7454 3990,7460 3990,7478C3990,7491 3985,7510 3980,7521C3966,7546 3906,7606 3880,7620C3848,7637 3758,7628 3710,7603Z" style="fill-rule:nonzero;"/>
                <path d="M4405,7603C4419,7547 4421,7523 4421,7440C4421,7393 4420,7348 4419,7340C4417,7318 4431,7107 4435,7093C4437,7087 4455,7083 4476,7084C4508,7087 4515,7091 4522,7116C4527,7132 4531,7175 4531,7211L4531,7278L4588,7285C4619,7290 4664,7294 4687,7295L4729,7297L4727,7188C4725,7068 4736,7040 4784,7040C4825,7040 4844,7084 4830,7147C4825,7168 4820,7266 4819,7365C4818,7510 4815,7550 4802,7573C4793,7588 4780,7600 4774,7600C4767,7600 4760,7605 4758,7611C4756,7618 4745,7620 4733,7616C4714,7610 4713,7603 4715,7513C4717,7459 4716,7410 4713,7404C4709,7392 4658,7383 4570,7378C4518,7375 4519,7371 4520,7511L4520,7598L4486,7614C4467,7623 4440,7630 4425,7630C4400,7630 4398,7627 4405,7603Z" style="fill-rule:nonzero;"/>
                <path d="M5387,7614C5385,7613 5265,7602 5239,7600C5233,7600 5233,7596 5244,7510C5247,7480 5253,7417 5256,7370C5266,7222 5271,7136 5273,7093L5275,7051L5425,7054C5582,7057 5585,7057 5638,7079C5678,7096 5678,7103 5640,7130C5613,7149 5599,7151 5486,7148C5418,7146 5360,7147 5357,7150C5355,7153 5350,7169 5347,7187C5338,7235 5358,7250 5433,7250C5507,7250 5517,7256 5514,7295C5507,7368 5511,7365 5424,7363L5345,7361L5343,7432L5340,7502L5443,7496C5499,7493 5561,7494 5580,7498C5617,7506 5616,7501 5611,7590L5610,7615L5499,7615C5438,7615 5388,7614 5387,7614Z" style="fill-rule:nonzero;"/>
                <path d="M4428,6934C4422,6929 4215,6922 3859,6916C3762,6914 3678,6910 3671,6906C3665,6902 3660,6902 3660,6907C3660,6911 3600,6914 3528,6912C3455,6911 3283,6907 3146,6905C3009,6903 2891,6899 2884,6896C2876,6893 2870,6896 2870,6902C2870,6909 2866,6909 2858,6903C2844,6892 1896,6895 1845,6906C1829,6909 1620,6913 1383,6913C1145,6913 950,6916 950,6920C950,6923 941,6926 929,6926C909,6926 908,6922 911,6810C913,6747 918,6688 922,6680C925,6672 931,6657 934,6648C937,6639 947,6631 957,6631C967,6632 1005,6630 1042,6627C1080,6625 1110,6626 1110,6631C1110,6636 1120,6636 1133,6632C1145,6627 1174,6625 1197,6626C1229,6627 1241,6624 1244,6611C1249,6597 1251,6520 1249,6445L1249,6035C1250,5654 1248,5590 1235,5405C1226,5285 1221,5240 1214,5229C1207,5217 1146,5218 1080,5233C1003,5250 988,5248 956,5218L928,5193L961,5168C1005,5135 1035,5129 1137,5129C1205,5129 1221,5126 1229,5112C1234,5103 1239,4956 1240,4785C1245,4264 1245,3621 1242,3576L1238,3533L1086,3534C923,3535 896,3528 902,3486C907,3452 943,3443 1093,3441C1171,3440 1239,3435 1244,3430C1249,3425 1252,3386 1250,3343C1249,3300 1247,3223 1247,3173C1246,3122 1243,3080 1240,3080C1235,3080 1232,2896 1228,2410C1227,2308 1229,2141 1232,2037C1236,1879 1235,1848 1222,1837C1212,1829 1158,1823 1071,1820L935,1815L936,1790C937,1776 944,1748 953,1728L968,1691L1027,1707C1059,1716 1116,1723 1154,1724C1223,1725 1224,1725 1231,1696C1241,1659 1250,1496 1254,1305C1256,1162 1257,1155 1277,1152C1288,1150 1311,1160 1327,1174L1357,1199L1356,1392C1355,1498 1357,1616 1360,1655L1365,1724L1530,1727C1621,1728 1766,1731 1853,1733C1954,1736 2013,1733 2017,1727C2026,1713 2023,1219 2014,1197C2005,1172 2019,1160 2066,1157L2105,1155L2105,1437C2105,1592 2109,1722 2113,1727C2118,1731 2297,1735 2512,1735L2901,1735L2897,1491C2893,1261 2894,1246 2912,1228C2936,1204 2951,1209 2969,1246C2994,1297 3007,1372 3004,1455C3000,1549 3000,1663 3003,1705L3005,1735L3300,1738C3462,1740 3636,1742 3685,1743C3769,1744 3775,1743 3773,1725C3765,1645 3759,1513 3759,1392C3759,1277 3756,1248 3744,1243C3723,1235 3727,1220 3756,1189C3781,1162 3783,1162 3825,1176C3866,1190 3867,1192 3861,1223C3855,1251 3854,1625 3860,1625C3862,1625 3863,1650 3864,1680L3866,1735L4595,1735L4598,1660C4604,1506 4602,1393 4593,1332C4588,1297 4587,1267 4592,1264C4596,1261 4600,1251 4600,1241C4600,1231 4608,1215 4619,1206C4637,1190 4639,1191 4661,1237C4682,1280 4684,1298 4683,1415C4683,1487 4680,1574 4677,1610C4675,1646 4674,1689 4677,1705L4682,1735L5016,1735C5200,1735 5350,1733 5350,1730C5350,1727 5353,1678 5356,1620C5365,1460 5366,1311 5359,1250C5352,1191 5363,1168 5405,1156C5444,1145 5455,1164 5453,1237C5451,1332 5448,1592 5449,1668L5450,1731L5632,1728L5813,1725L5815,1748C5816,1761 5813,1773 5809,1775C5805,1778 5804,1788 5807,1798C5818,1841 5768,1856 5585,1866C5516,1870 5482,1876 5474,1886C5463,1900 5462,1960 5474,1978C5477,1983 5477,2093 5474,2221C5471,2350 5470,2500 5472,2555C5473,2610 5475,2834 5475,3053C5475,3510 5463,3467 5583,3455C5749,3438 5801,3461 5754,3528C5738,3551 5736,3551 5607,3544L5475,3537L5474,3601C5466,4168 5475,5128 5489,5143C5498,5152 5543,5152 5695,5146C5793,5141 5808,5143 5830,5160C5864,5186 5848,5212 5791,5223C5769,5227 5750,5236 5750,5241C5750,5248 5702,5250 5615,5248C5500,5245 5480,5247 5479,5260C5478,5295 5479,5506 5480,5515C5482,5521 5481,5530 5480,5535C5477,5546 5478,5902 5481,5910C5482,5913 5482,5918 5481,5923C5477,5946 5480,6623 5484,6627C5486,6630 5545,6632 5614,6633C5683,6634 5740,6639 5740,6643C5740,6648 5746,6648 5753,6643C5759,6639 5774,6637 5786,6638C5797,6640 5825,6637 5848,6632C5874,6626 5892,6626 5896,6631C5908,6650 5907,6845 5895,6880C5882,6919 5848,6932 5798,6919C5782,6915 5770,6915 5770,6919C5770,6923 5743,6923 5709,6920C5625,6912 5063,6915 4910,6925C4785,6933 4644,6934 4539,6930C4508,6928 4478,6930 4472,6934C4466,6937 4458,6935 4454,6929C4449,6921 4446,6921 4441,6929C4437,6935 4431,6938 4428,6934ZM3755,6626C3766,6622 3766,6613 3758,6583C3751,6558 3750,6487 3755,6375C3759,6282 3762,6198 3761,6190L3761,6005C3762,5804 3762,5812 3762,5640L3762,5430C3763,5389 3762,5330 3761,5300C3757,5201 3800,5211 3364,5212C2957,5213 2971,5211 2980,5255C2985,5283 2987,6415 2981,6475C2978,6514 2976,6565 2978,6590L2981,6635L3361,6633C3571,6632 3748,6629 3755,6626ZM5046,6625C5219,6624 5363,6621 5367,6617C5374,6609 5374,6554 5367,5835C5361,5185 5363,5241 5343,5242L5215,5242C5155,5242 5049,5242 4980,5243C4911,5243 4812,5242 4760,5240L4665,5235L4665,5345C4666,5406 4669,5597 4673,5770C4678,5943 4683,6191 4686,6320C4689,6449 4693,6571 4693,6590C4695,6626 4707,6643 4724,6633C4729,6630 4874,6626 5046,6625ZM1733,6617C1888,6615 2014,6610 2020,6604C2027,6597 2036,6411 2030,6390C2027,6381 2020,5906 2017,5565L2015,5225L1955,5223C1922,5223 1772,5221 1622,5220C1339,5218 1313,5221 1325,5259C1338,5303 1343,5474 1345,5990C1346,6301 1347,6569 1348,6587C1350,6615 1354,6619 1383,6622C1400,6624 1424,6624 1435,6623C1446,6621 1580,6619 1733,6617ZM2899,6535C2906,6381 2904,6035 2896,5795C2891,5669 2887,5490 2886,5398C2885,5306 2881,5228 2877,5224C2868,5214 2170,5209 2135,5218C2106,5226 2105,5228 2107,5281C2108,5311 2111,5347 2113,5363C2115,5378 2114,5392 2110,5395C2103,5400 2106,6119 2115,6310C2118,6379 2122,6472 2123,6517C2124,6562 2128,6602 2133,6606C2137,6610 2287,6615 2466,6616C2645,6617 2794,6620 2796,6623C2799,6626 2822,6627 2848,6626L2894,6624L2899,6535ZM4581,6621C4588,6620 4585,6163 4576,5750C4573,5621 4571,5452 4571,5374L4570,5233L4523,5230C4496,5229 4339,5227 4173,5226L3870,5225L3869,5255C3865,5319 3861,5375 3860,5375C3848,5375 3845,6555 3857,6607L3862,6629L4218,6625C4415,6623 4578,6621 4581,6621ZM4572,5086C4574,5052 4572,5000 4569,4970C4560,4888 4571,4355 4584,4210C4590,4145 4598,3913 4604,3664C4607,3572 4604,3533 4596,3533C4393,3519 3901,3510 3895,3519C3891,3527 3881,3784 3879,3943C3877,4072 3881,4089 3915,4090C3932,4090 4027,4189 4038,4218C4044,4233 4052,4254 4056,4265C4079,4325 4077,4404 4049,4487C4013,4598 3942,4690 3894,4690C3874,4690 3870,4695 3869,4723C3869,4740 3866,4789 3863,4830C3854,4942 3855,5118 3864,5127C3868,5131 3955,5136 4057,5137C4159,5139 4245,5141 4246,5143C4248,5145 4322,5147 4409,5147L4568,5147L4572,5086ZM5355,4801C5356,4611 5359,4383 5363,4295C5376,4031 5375,3573 5362,3554C5352,3538 4757,3517 4715,3530C4694,3538 4697,3514 4685,3840C4678,4054 4670,4248 4663,4400C4659,4506 4655,5047 4659,5132C4660,5148 4687,5149 5008,5148L5355,5147L5355,4801ZM1715,5115C1936,5104 1950,5104 1950,5111C1950,5114 1962,5117 1978,5116C1999,5115 2005,5110 2004,5093C2004,5080 2006,5070 2009,5070C2020,5070 2026,3772 2016,3670C2013,3645 2011,3600 2011,3569L2010,3514L1943,3519C1905,3522 1758,3525 1615,3525L1355,3525L1355,3790C1355,3936 1351,4136 1347,4235C1342,4334 1337,4485 1335,4570C1333,4655 1329,4779 1327,4845C1325,4911 1326,4999 1329,5040L1335,5115L1380,5120C1435,5126 1506,5125 1715,5115ZM3765,5008C3762,4940 3764,4852 3768,4812C3781,4696 3777,4686 3718,4670C3639,4650 3567,4564 3538,4451C3513,4359 3542,4236 3604,4169C3641,4129 3733,4069 3760,4067C3776,4066 3778,4054 3780,3965C3782,3910 3782,3823 3781,3771C3780,3715 3784,3673 3791,3664C3797,3657 3798,3645 3794,3638C3781,3617 3780,3597 3790,3566C3806,3518 3794,3514 3653,3517C3583,3519 3410,3521 3270,3523L3015,3525L3009,3630C3005,3688 3000,3813 2997,3908C2992,4060 2993,4080 3007,4080C3034,4080 3096,4121 3114,4151C3123,4167 3135,4180 3140,4180C3167,4180 3230,4271 3237,4320C3239,4334 3243,4363 3246,4386C3255,4452 3236,4503 3177,4562C3119,4622 3037,4684 3003,4694C2980,4701 2980,4703 2980,4899C2980,5047 2983,5100 2993,5108C3000,5114 3075,5119 3184,5119C3283,5120 3364,5121 3366,5122C3367,5124 3459,5126 3569,5128L3769,5131L3765,5008ZM2867,5107C2870,5104 2874,5010 2877,4898L2881,4695L2850,4665C2833,4648 2806,4622 2792,4606C2777,4589 2756,4567 2744,4556C2722,4533 2693,4398 2703,4361C2706,4349 2704,4337 2699,4334C2693,4331 2693,4323 2698,4317C2703,4310 2713,4290 2720,4271C2733,4239 2845,4118 2882,4095C2897,4086 2900,4050 2906,3803L2912,3522L2709,3521C2597,3520 2432,3518 2342,3516C2253,3514 2168,3515 2153,3519L2127,3526L2124,3740C2123,3858 2119,4007 2115,4070C2112,4133 2107,4392 2105,4646L2101,5107L2283,5106C2383,5105 2537,5107 2625,5110C2807,5116 2858,5115 2867,5107ZM5364,3440C5372,3432 5382,2974 5382,2625C5382,2415 5378,2289 5369,2235C5355,2152 5352,2007 5362,1933C5366,1899 5363,1887 5348,1873C5330,1857 5305,1855 5121,1854C5008,1853 4861,1850 4795,1846L4674,1839L4677,1947C4679,2006 4683,2136 4686,2235C4688,2334 4692,2639 4693,2912C4694,3185 4697,3411 4700,3413C4703,3416 4788,3421 4890,3424C5054,3429 5252,3440 5257,3444C5262,3448 5359,3444 5364,3440ZM1720,3415C1877,3411 2010,3404 2016,3399C2029,3388 2031,3293 2033,2493C2035,1943 2033,1859 2020,1846C2008,1834 1951,1830 1705,1825C1540,1821 1397,1822 1387,1826C1370,1832 1369,1850 1370,2079C1370,2214 1367,2415 1363,2525C1353,2781 1353,3390 1362,3412C1367,3425 1378,3429 1402,3425C1420,3423 1563,3418 1720,3415ZM4621,3354C4629,3269 4624,2373 4615,2160C4611,2075 4608,1969 4607,1926C4605,1849 4604,1847 4580,1844C4566,1842 4401,1838 4213,1834C3880,1827 3870,1827 3869,1846C3868,1886 3871,2281 3876,2655C3880,2870 3883,3127 3884,3228L3885,3410L4209,3415C4388,3418 4535,3422 4537,3424C4539,3425 4557,3426 4578,3425L4615,3422L4621,3354ZM3749,3410C3776,3410 3777,3408 3784,3343C3790,3285 3796,2653 3791,2525C3791,2520 3788,2367 3785,2185C3781,2004 3777,1853 3775,1851C3768,1844 3020,1842 3019,1848C3017,1859 3011,3042 3012,3070C3014,3102 3013,3159 3009,3293C3007,3352 3005,3401 3005,3402C3005,3405 3693,3416 3708,3413C3716,3411 3734,3410 3749,3410ZM2927,3145C2934,2764 2933,2460 2926,2324C2922,2259 2917,2153 2914,2090C2911,2027 2907,1962 2905,1945C2904,1929 2902,1900 2901,1882L2900,1849L2783,1856C2667,1862 2179,1845 2132,1833C2109,1827 2109,1828 2115,1896C2118,1934 2123,2015 2126,2075C2129,2136 2133,2226 2135,2275C2142,2407 2141,2455 2132,2497C2127,2518 2125,2600 2127,2680C2128,2760 2130,2953 2131,3110C2132,3267 2134,3397 2136,3400C2137,3403 2315,3405 2531,3405L2923,3404L2927,3145Z" style="fill-rule:nonzero;"/>
                <path d="M4255,4990C4198,4962 4158,4885 4190,4865C4203,4857 4240,4878 4240,4893C4240,4900 4254,4914 4271,4924C4303,4943 4303,4943 4321,4919C4331,4906 4340,4887 4341,4878C4342,4868 4343,4854 4344,4848C4347,4828 4331,4800 4273,4728C4204,4643 4205,4625 4280,4626C4310,4626 4349,4629 4365,4632C4382,4635 4417,4641 4443,4645C4488,4651 4491,4653 4488,4678C4485,4702 4481,4705 4445,4705C4423,4705 4384,4701 4358,4697L4311,4689L4340,4720C4379,4762 4410,4829 4410,4872C4410,4920 4355,5004 4320,5008C4306,5009 4277,5001 4255,4990Z" style="fill-rule:nonzero;"/>
                <path d="M3270,4957C3246,4923 3208,4873 3186,4847C3154,4808 3148,4795 3156,4782C3177,4749 3203,4763 3249,4833C3274,4870 3297,4900 3301,4900C3308,4900 3320,4787 3320,4711C3320,4667 3323,4659 3336,4664C3345,4667 3358,4670 3366,4670C3378,4670 3379,4688 3374,4778C3371,4837 3367,4912 3365,4945C3363,4978 3361,5008 3361,5013C3360,5017 3350,5020 3338,5020C3322,5020 3302,5001 3270,4957Z" style="fill-rule:nonzero;"/>
            </g>
        </g>
        <g id="Asus21" serif:id="Asus2">
        </g>
    </g>
</svg>
