<?xml version="1.0" encoding="iso-8859-1"?>
<!-- Generator: Adobe Illustrator 16.0.0, SVG Export Plug-In . SVG Version: 6.00 Build 0)  -->
<!DOCTYPE svg PUBLIC "-//W3C//DTD SVG 1.1//EN" "http://www.w3.org/Graphics/SVG/1.1/DTD/svg11.dtd">
<svg version="1.1" xmlns="http://www.w3.org/2000/svg" xmlns:xlink="http://www.w3.org/1999/xlink" x="0px" y="0px"
	 width="175.68px" height="264.24px" viewBox="0 0 175.68 264.24" style="enable-background:new 0 0 175.68 264.24;"
	 xml:space="preserve">
<g id="Hm">
	<g id="Hm_1_">
		<path style="fill:none;" d="M0,0c58.56,0,117.119,0,175.68,0c0,88.08,0,176.16,0,264.24c-58.561,0-117.12,0-175.68,0
			C0,176.16,0,88.08,0,0z M23.652,146.898c0.618,0.878,1.442,1.068,2.286,1.113c0.713,0.039,1.434-0.066,2.152-0.089
			c1.275-0.04,2.557-0.161,3.825-0.074c1.276,0.087,1.542,0.521,1.487,1.769c-0.158,3.592-0.409,7.185-0.439,10.779
			c-0.081,9.674-0.066,19.35-0.088,29.024c-0.002,0.985,0,1.97,0,2.829c-2.871,0.146-5.605,0.284-8.525,0.433
			c0.453,1.185,0.819,2.142,1.23,3.216c2.791-0.676,5.534-1.542,8.478-0.471c0.048,13.722,0.895,27.449,0.225,41.302
			c-0.829,0-1.583,0.036-2.332-0.008c-1.156-0.068-2.307-0.232-3.463-0.281c-1.336-0.056-2.467,0.43-3.403,1.412
			c0.617,1.066,1.52,1.426,2.57,1.383c1.196-0.049,2.386-0.265,3.581-0.292c1.091-0.025,2.187,0.104,3.439,0.173
			c-0.125,5.894-0.245,11.549-0.366,17.254c1.111,0,2.049,0,3.061,0c0.356-5.713-0.728-11.408,0.632-16.914
			c6.134,0.138,12.175,0.273,18.261,0.409c0.118,5.326,0.233,10.495,0.348,15.675c0.754,0,1.307,0,1.838,0
			c0.543-1.183,0.866-2.838,0.834-4.83c-0.05-3.198-0.163-6.395-0.234-9.592c-0.012-0.499,0.051-1,0.083-1.578
			c7.377,0.609,14.593,0.623,21.859-0.278c0.112,5.014,0.222,9.913,0.335,14.974c0.971-0.21,1.758-0.381,2.586-0.56
			c-0.602-4.775-0.691-9.39-0.263-14.039c7.15-0.138,14.23-0.274,21.422-0.412c0.133,5.051,0.266,10.103,0.4,15.213
			c0.316,0,0.594,0.011,0.87-0.003c0.309-0.016,0.617-0.054,0.953-0.085c0.583-5.118,0.484-10.168,0.061-15.108
			c6.877-0.162,13.639-0.322,20.559-0.486c0.129,5.527,0.254,10.869,0.378,16.206c1.446-0.199,2.006-0.652,2.029-2.098
			c0.039-2.436-0.092-4.872-0.118-7.309c-0.024-2.226-0.005-4.452-0.005-6.679c6.214-0.288,12.41-0.576,18.463-0.857
			c0.197,4.858,0.384,9.478,0.576,14.234c0.94,0.097,1.782,0.183,2.744,0.282c0-0.602,0.007-1.028-0.001-1.455
			c-0.072-4.077-0.154-8.155-0.215-12.233c-0.016-1.09,0.227-1.39,1.298-1.403c0.79-0.01,1.581,0.251,2.374,0.267
			c1.184,0.022,2.371-0.038,3.553-0.121c0.437-0.03,0.676-0.329,0.646-0.836c-0.067-1.158-1.101-1.993-2.241-1.874
			c-1.584,0.164-3.176,0.316-4.766,0.335c-1.064,0.012-1.146-0.188-1.111-1.232c0.026-0.799,0.089-1.599,0.063-2.396
			c-0.094-2.956-0.315-5.911-0.31-8.867c0.019-9.315,0.118-18.632,0.19-27.948c0.003-0.337,0.061-0.675,0.087-0.945
			c2.676,0,5.22,0,7.762,0c0.521-2.242-0.419-3.491-2.629-3.5c-0.479-0.003-0.961,0.017-1.439-0.004
			c-1.155-0.052-2.321-0.038-3.46-0.206c-1.294-0.19-1.357-0.385-1.309-1.646c0.058-1.517,0.156-3.039,0.092-4.553
			c-0.263-6.228-0.802-12.438-0.396-18.693c0.328-5.062,0.257-10.15,0.374-15.228c0.027-1.185,0.102-2.368,0.164-3.777
			c1.598,0.171,3.049,0.396,4.506,0.453c0.72,0.027,1.491-0.162,2.162-0.439c0.35-0.146,0.815-0.789,0.73-1.038
			c-0.156-0.457-0.617-0.925-1.069-1.134c-0.477-0.22-1.095-0.204-1.646-0.18c-0.757,0.033-1.506,0.216-2.262,0.254
			c-0.94,0.047-1.884,0.011-2.848,0.011c-0.191-4.274-0.379-8.444-0.566-12.623c0.366-0.095,0.552-0.163,0.744-0.19
			c3.397-0.478,5.566-2.473,6.723-5.597c1.312-3.541,1.115-7.08-0.449-10.493c-1.248-2.721-3.253-4.621-6.325-5.164
			c-0.185-0.033-0.354-0.146-0.539-0.226c0.146-3.429,0.289-6.804,0.438-10.29c0.908,0.055,1.62,0.087,2.33,0.144
			c1.511,0.119,3.02,0.312,4.532,0.354c0.994,0.027,1.943-0.275,2.708-1.098c-1.156-1.124-2.495-1.696-4.019-1.747
			c-1.396-0.047-2.797,0.036-4.195,0.055c-0.694,0.009-1.388,0.001-2.148,0.001c0.829-12.879,0.265-25.532,0.022-38.182
			c3.917-0.657,7.688-0.618,11.506-0.084c0.462-2.836,0.762-5.508-0.513-8.103c-0.616,0-1.174-0.011-1.73,0.001
			c-3.237,0.074-6.474,0.206-9.712,0.223c-14.717,0.078-29.434,0.071-44.15,0.212c-4.912,0.047-9.82,0.445-14.73,0.688
			c-1.237,0.061-2.474,0.219-3.708,0.188c-2.234-0.055-4.468-0.345-6.698-0.309c-3.916,0.064-7.829,0.304-11.743,0.464
			c-6.231,0.255-12.456,0.571-18.701,0.218c-4.787-0.271-9.586-0.368-14.382-0.432c-3.637-0.049-7.276,0.075-10.914,0.126
			c-0.192,0.003-0.385,0.045-0.666,0.08c-0.094,2.139-0.19,4.245,0.32,6.32c0.294,1.194,0.405,1.253,1.646,1.258
			c2.036,0.009,4.073-0.03,6.106,0.034c1.169,0.037,1.178,0.111,1.192,1.284c0.087,7.317,0.282,14.635,0.212,21.95
			c-0.047,4.991-0.478,9.978-0.704,14.968c-0.036,0.785-0.416,0.966-1.071,0.878c-0.712-0.096-1.418-0.241-2.131-0.328
			c-1.026-0.125-2.055-0.281-3.085-0.303c-0.72-0.016-1.262,0.532-1.296,1.184c-0.019,0.372,0.459,0.887,0.843,1.139
			c1.056,0.692,2.293,0.562,3.49,0.591c0.955,0.023,1.911,0.08,2.861,0.171c0.603,0.058,0.874,0.401,0.834,1.062
			c-0.059,0.995-0.017,1.997-0.018,2.995c0,1.993,0,3.985,0,5.993c-0.241,0.084-0.422,0.178-0.612,0.209
			c-2.16,0.351-3.841,1.5-5.244,3.121c-2.238,2.585-3.378,5.625-3.408,9.007c-0.03,3.446,1.127,6.274,4.684,7.589
			c0.625,0.231,1.248,0.595,1.733,1.046c0.704,0.652,1.51,0.838,2.401,0.887c0.306,0.017,0.61,0.046,0.82,0.062
			c0,4.109,0,8.127,0,12.221c-0.756,0-1.351,0.05-1.933-0.011c-1.113-0.116-2.214-0.357-3.329-0.433
			C26.146,145.153,24.693,145.434,23.652,146.898z M74.961,15.423c-0.115-1.612-0.124-3.054-0.348-4.461
			c-0.172-1.083-0.508-2.173-0.97-3.168c-0.362-0.78-1.11-0.853-1.983-0.552c-0.812,0.28-0.92,0.812-0.821,1.59
			c0.201,1.584,0.326,3.178,0.44,4.771c0.26,3.625,0.325,7.272,1.206,10.827c0.221,0.891,0.612,1.103,1.477,0.849
			c1.065-0.312,1.461-0.868,1.405-2.012c-0.032-0.639-0.137-1.276-0.133-1.913c0.004-0.777,0.088-1.554,0.142-2.403
			c1.627-0.111,3.076-0.21,4.7-0.321c0,0.943-0.01,1.652,0.002,2.361c0.022,1.233-0.031,2.477,0.117,3.695
			c0.115,0.937,0.855,1.407,1.702,1.345c0.806-0.06,1.338-0.529,1.415-1.502c0.081-1.027,0.007-2.069-0.017-3.104
			c-0.084-3.558-0.122-7.117-0.294-10.67c-0.063-1.299-0.42-2.59-0.718-3.868c-0.063-0.272-0.424-0.624-0.694-0.671
			c-1.12-0.196-1.836,0.494-1.83,1.604c0.015,2.506,0.004,5.012,0.004,7.604C78.058,15.423,76.553,15.423,74.961,15.423z
			 M89.234,14.671c-0.057-0.048-0.148-0.086-0.164-0.145c-0.188-0.711-0.399-1.248-1.381-0.994
			c-1.479,0.382-1.587,0.326-1.483,1.621c0.248,3.101,0.619,6.191,0.877,9.291c0.073,0.88,0.608,1.25,1.267,1.563
			c0.744,0.354,1.141,0.186,1.313-0.614c0.167-0.778,0.218-1.581,0.343-2.369c0.226-1.416,0.381-2.852,0.73-4.237
			c0.332-1.313,1.072-2.396,2.473-2.863c0.953,0.619,1.291,1.544,1.353,2.569c0.06,0.996-0.017,1.999,0.027,2.996
			c0.039,0.913,0.053,1.848,0.268,2.727c0.296,1.21,1.269,1.75,2.588,1.577c0.083-0.524,0.194-1.068,0.253-1.618
			c0.162-1.547,0.244-3.105,0.472-4.642c0.159-1.074,0.736-1.917,1.84-2.317c1.815-0.656,2.626-0.282,2.755,1.606
			c0.113,1.659-0.09,3.339-0.164,5.01c-0.03,0.668,0.691,1.703,1.352,1.871c0.954,0.243,1.146-0.521,1.398-1.127
			c1.062-2.542,0.873-5.094-0.126-7.584c-1.078-2.688-1.317-2.849-4.19-2.6c-1.488,0.128-2.947,0.593-4.42,0.905
			C95.119,12.525,93.451,12.384,89.234,14.671z M89.096,40.152c-0.006-1.5-0.524-2.883-1.657-4.129
			c-2.396-2.635-5.463-3.944-8.935-4.42c-1.69-0.232-2.378,0.133-3.078,1.686c-0.647,1.435-0.629,2.947-0.442,4.472
			c0.34,2.771,0.885,5.533,0.173,8.335c-0.064,0.253,0.241,0.824,0.475,0.891c0.981,0.277,2.032,0.673,3.001,0.555
			c1.93-0.234,3.825-0.767,5.727-1.208c0.241-0.056,0.431-0.312,0.654-0.46c0.62-0.41,1.247-0.808,1.867-1.216
			c0.259-0.17,0.575-0.303,0.752-0.538C88.513,42.947,89.13,41.666,89.096,40.152z M108.166,36.636
			c0.4-2.292-1.133-4.235-3.55-4.471c-2.753-0.268-5.122,0.646-7.091,2.543c-1.188,1.144-1.695,2.555-1.438,4.246
			c0.259,1.693,0.83,3.239,1.809,4.639c2.029,2.905,5.404,4.23,8.692,3.393c0.556-0.142,1.092-0.354,1.581-0.515
			c0.127,0.732,0.239,1.378,0.369,2.125c0.92-0.109,1.72-0.204,2.49-0.295c-0.092-0.869-0.193-1.538-0.229-2.21
			c-0.071-1.396-0.053-2.797-0.17-4.188c-0.198-2.36-1.805-3.511-4.057-2.982c-1.49,0.351-2.979,0.703-4.591,1.084
			c0.091,0.568,0.206,1.293,0.313,1.964c1.719,0.617,3.309-1.01,4.982-0.075c-0.521,1.525-1.558,2.408-3.016,2.702
			c-0.928,0.188-1.9,0.156-2.854,0.201c-0.763,0.036-1.239-0.375-1.626-1.006c-1.67-2.729-1.032-6.678,1.438-8.716
			c0.897-0.741,1.919-1.101,3.099-1.05c0.611,0.027,1.027,0.2,1.34,0.785C106.188,35.799,107.008,36.463,108.166,36.636z
			 M37.005,34.358c0.203-0.69,0.379-1.256,0.536-1.827c0.29-1.053,0.052-1.485-1.002-1.73c-0.383-0.089-0.797-0.123-1.189-0.09
			c-2.455,0.209-4.908,0.444-7.418,0.675c-0.649,5.319,0.989,10.258,1.379,15.548c2.637-0.123,5.176-0.204,7.709-0.374
			c1.515-0.102,1.655-0.304,1.855-1.774c0.131-0.959-0.093-1.288-1.058-1.256c-1.274,0.042-2.543,0.22-3.817,0.288
			c-0.899,0.047-1.803,0.009-2.697,0.009c-0.181-0.855-0.367-1.629-0.502-2.412c-0.15-0.871,0.166-1.28,1.052-1.355
			c0.555-0.047,1.121,0.02,1.675-0.034c0.75-0.073,1.06-0.558,1.012-1.464c-0.053-0.996-0.402-1.415-1.206-1.416
			c-0.719,0-1.438,0.044-2.155,0.019c-0.255-0.009-0.61-0.087-0.739-0.265c-0.663-0.912,0.087-2.497,1.217-2.528
			C33.41,34.322,35.164,34.358,37.005,34.358z M56.82,31.558c-0.815-0.298-0.998,0.266-1.226,0.714
			c-2.231,4.366-4.464,8.731-6.673,13.109c-0.614,1.218-0.117,2.012,1.327,2.248c0.484-2.62,1.062-3.216,3.836-3.761
			c1.093-0.214,2.21-0.307,3.317-0.445c1.414-0.177,1.468-0.147,2.027,1.148c0.394,0.914,0.726,1.858,1.179,2.742
			c0.403,0.787,1.17,0.959,1.895,0.453c0.405-0.283,0.708-0.712,1.012-1.027c-0.5-1.018-0.964-1.896-1.372-2.801
			c-0.782-1.738-1.416-3.553-2.323-5.221C58.561,36.406,57.098,34.206,56.82,31.558z M128.773,40.557
			c0.469,1.22,0.342,2.406,0.244,3.598c-0.061,0.752-0.115,1.519-0.036,2.265c0.098,0.923,0.643,1.294,1.647,1.331
			c0.918,0.034,1.115-0.669,1.279-1.317c0.092-0.364,0.021-0.796-0.072-1.175c-0.468-1.921-0.585-3.854-0.393-5.824
			c0.101-1.031,0.158-2.088,0.042-3.111c-0.111-0.972-0.374-1.958-0.757-2.856c-0.334-0.781-1.046-1.255-1.994-1.27
			c-0.375,2.076,0.243,4.17-0.297,6.146c-1.947,0-3.763,0-5.538,0c0-1.77,0.008-3.446-0.008-5.122
			c-0.002-0.259-0.022-0.651-0.181-0.752c-0.785-0.5-1.599-0.992-2.502-0.91c0.107,2.439,0.177,4.789,0.323,7.133
			c0.144,2.309,0.359,4.613,0.559,6.918c0.059,0.682,0.489,0.931,1.146,0.914c0.674-0.019,0.896-0.409,0.921-1.004
			c0.044-1.037,0.099-2.072,0.136-3.109c0.018-0.465,0.003-0.931,0.003-1.453C125.186,40.82,126.922,40.693,128.773,40.557z
			 M145.625,38.871c0.066-0.548,0.149-0.94,0.151-1.333c0.003-0.438-0.09-0.875-0.102-1.313c-0.034-1.311,0.226-1.552,1.543-1.397
			c0.872,0.103,1.737,0.263,2.608,0.374c1.144,0.146,2.24,0,3.211-0.667c0.643-0.442,0.552-2.461-0.125-2.844
			c-0.15-0.085-0.395-0.108-0.559-0.052c-1.989,0.681-4.021,0.464-6.058,0.362c-0.938-0.047-1.885,0.113-2.942,0.187
			c-0.053,5.064,0.595,9.919,0.885,15.024c2.225,0,4.335,0.022,6.444-0.012c0.712-0.012,1.441-0.092,2.129-0.273
			c0.731-0.192,1.405-0.559,1.626-1.412c-0.871-0.862-1.926-1.007-3.023-0.965c-0.959,0.037-1.914,0.145-2.872,0.184
			c-0.782,0.031-1.566,0.006-2.212,0.006c-0.268-0.942-0.471-1.659-0.685-2.413c1.491-1.388,3.319-0.546,5.101-0.638
			c-0.065-0.466-0.087-0.817-0.167-1.155c-0.42-1.77-0.425-1.751-2.196-1.669C147.487,38.906,146.587,38.871,145.625,38.871z
			 M9.648,115.011c0.987,0.694,1.791,0.35,2.506-0.216c0.782-0.618,1.476-1.346,2.246-1.98c0.439-0.362,0.917-0.773,1.4-0.559
			c0.176,3.123,0.345,6.105,0.521,9.216c0.628,0.07,1.183,0.132,1.874,0.209c0-0.585,0.026-0.977-0.004-1.363
			c-0.281-3.597-0.294-7.186,0.226-10.766c0.081-0.555-0.877-1.902-1.439-1.983c-0.256-0.037-0.686,0.092-0.8,0.286
			c-0.985,1.67-2.56,2.729-3.979,3.949C11.166,112.691,10.214,113.643,9.648,115.011z"/>
		<path style="fill-rule:evenodd;clip-rule:evenodd;" d="M23.652,146.898c1.041-1.465,2.494-1.745,4.057-1.639
			c1.114,0.075,2.216,0.316,3.329,0.433c0.583,0.061,1.177,0.011,1.933,0.011c0-4.094,0-8.111,0-12.221
			c-0.209-0.017-0.514-0.046-0.82-0.062c-0.892-0.049-1.698-0.234-2.401-0.887c-0.486-0.451-1.108-0.815-1.733-1.046
			c-3.557-1.315-4.714-4.143-4.684-7.589c0.03-3.382,1.17-6.422,3.408-9.007c1.403-1.621,3.084-2.77,5.244-3.121
			c0.19-0.031,0.371-0.125,0.612-0.209c0-2.008,0-4,0-5.993c0-0.999-0.042-2,0.018-2.995c0.04-0.661-0.231-1.004-0.834-1.062
			c-0.95-0.091-1.906-0.148-2.861-0.171c-1.197-0.029-2.435,0.102-3.49-0.591c-0.384-0.252-0.862-0.767-0.843-1.139
			c0.034-0.652,0.576-1.2,1.296-1.184c1.03,0.022,2.059,0.177,3.085,0.303c0.713,0.087,1.419,0.232,2.131,0.328
			c0.655,0.088,1.035-0.093,1.071-0.878c0.226-4.99,0.657-9.977,0.704-14.968c0.069-7.315-0.125-14.633-0.212-21.95
			c-0.014-1.173-0.023-1.247-1.192-1.284c-2.034-0.064-4.071-0.025-6.106-0.034c-1.241-0.005-1.352-0.064-1.646-1.258
			c-0.511-2.075-0.415-4.181-0.32-6.32c0.281-0.035,0.473-0.077,0.666-0.08c3.638-0.051,7.277-0.175,10.914-0.126
			c4.795,0.064,9.595,0.161,14.382,0.432c6.245,0.353,12.47,0.037,18.701-0.218c3.915-0.16,7.828-0.4,11.743-0.464
			c2.23-0.037,4.464,0.253,6.698,0.309c1.233,0.031,2.471-0.127,3.708-0.188c4.91-0.242,9.818-0.64,14.73-0.688
			c14.717-0.142,29.434-0.134,44.15-0.212c3.238-0.017,6.475-0.149,9.712-0.223c0.557-0.013,1.114-0.001,1.73-0.001
			c1.274,2.594,0.975,5.267,0.513,8.103c-3.818-0.534-7.589-0.573-11.506,0.084c0.242,12.65,0.807,25.303-0.022,38.182
			c0.761,0,1.454,0.008,2.148-0.001c1.398-0.019,2.8-0.102,4.195-0.055c1.523,0.051,2.862,0.623,4.019,1.747
			c-0.765,0.823-1.714,1.125-2.708,1.098c-1.513-0.042-3.021-0.235-4.532-0.354c-0.71-0.056-1.422-0.088-2.33-0.144
			c-0.148,3.485-0.291,6.86-0.438,10.29c0.185,0.08,0.354,0.193,0.539,0.226c3.072,0.543,5.077,2.443,6.325,5.164
			c1.564,3.413,1.761,6.952,0.449,10.493c-1.156,3.124-3.325,5.119-6.723,5.597c-0.192,0.027-0.378,0.096-0.744,0.19
			c0.188,4.179,0.375,8.349,0.566,12.623c0.964,0,1.907,0.036,2.848-0.011c0.756-0.038,1.505-0.221,2.262-0.254
			c0.551-0.024,1.169-0.04,1.646,0.18c0.452,0.209,0.913,0.677,1.069,1.134c0.085,0.249-0.381,0.893-0.73,1.038
			c-0.671,0.277-1.442,0.467-2.162,0.439c-1.457-0.057-2.908-0.282-4.506-0.453c-0.062,1.409-0.137,2.593-0.164,3.777
			c-0.117,5.077-0.046,10.165-0.374,15.228c-0.405,6.256,0.134,12.466,0.396,18.693c0.064,1.514-0.034,3.036-0.092,4.553
			c-0.049,1.261,0.015,1.455,1.309,1.646c1.139,0.168,2.305,0.154,3.46,0.206c0.479,0.021,0.96,0.001,1.439,0.004
			c2.21,0.009,3.15,1.258,2.629,3.5c-2.542,0-5.086,0-7.762,0c-0.026,0.271-0.084,0.608-0.087,0.945
			c-0.072,9.316-0.172,18.633-0.19,27.948c-0.006,2.956,0.216,5.911,0.31,8.867c0.025,0.797-0.037,1.597-0.063,2.396
			c-0.035,1.044,0.047,1.244,1.111,1.232c1.59-0.019,3.182-0.171,4.766-0.335c1.141-0.119,2.174,0.716,2.241,1.874
			c0.029,0.507-0.21,0.806-0.646,0.836c-1.182,0.083-2.369,0.144-3.553,0.121c-0.793-0.016-1.584-0.276-2.374-0.267
			c-1.071,0.014-1.313,0.313-1.298,1.403c0.061,4.078,0.143,8.156,0.215,12.233c0.008,0.427,0.001,0.854,0.001,1.455
			c-0.962-0.1-1.804-0.186-2.744-0.282c-0.192-4.757-0.379-9.376-0.576-14.234c-6.053,0.281-12.249,0.569-18.463,0.857
			c0,2.227-0.02,4.453,0.005,6.679c0.026,2.437,0.157,4.873,0.118,7.309c-0.023,1.445-0.583,1.898-2.029,2.098
			c-0.124-5.337-0.249-10.679-0.378-16.206c-6.92,0.164-13.682,0.324-20.559,0.486c0.424,4.94,0.522,9.99-0.061,15.108
			c-0.336,0.031-0.645,0.069-0.953,0.085c-0.276,0.014-0.554,0.003-0.87,0.003c-0.135-5.11-0.268-10.162-0.4-15.213
			c-7.191,0.138-14.271,0.274-21.422,0.412c-0.428,4.649-0.338,9.264,0.263,14.039c-0.828,0.179-1.616,0.35-2.586,0.56
			c-0.113-5.061-0.223-9.96-0.335-14.974c-7.267,0.901-14.482,0.888-21.859,0.278c-0.033,0.578-0.095,1.079-0.083,1.578
			c0.072,3.197,0.184,6.394,0.234,9.592c0.032,1.992-0.291,3.647-0.834,4.83c-0.532,0-1.084,0-1.838,0
			c-0.115-5.18-0.23-10.349-0.348-15.675c-6.085-0.136-12.126-0.271-18.261-0.409c-1.36,5.506-0.276,11.201-0.632,16.914
			c-1.012,0-1.95,0-3.061,0c0.121-5.705,0.241-11.36,0.366-17.254c-1.253-0.069-2.348-0.198-3.439-0.173
			c-1.195,0.027-2.385,0.243-3.581,0.292c-1.05,0.043-1.953-0.316-2.57-1.383c0.936-0.982,2.067-1.468,3.403-1.412
			c1.156,0.049,2.307,0.213,3.463,0.281c0.749,0.044,1.503,0.008,2.332,0.008c0.67-13.853-0.177-27.58-0.225-41.302
			c-2.944-1.071-5.687-0.205-8.478,0.471c-0.411-1.074-0.777-2.031-1.23-3.216c2.92-0.148,5.654-0.287,8.525-0.433
			c0-0.859-0.002-1.844,0-2.829c0.022-9.675,0.007-19.351,0.088-29.024c0.03-3.595,0.281-7.188,0.439-10.779
			c0.055-1.248-0.211-1.682-1.487-1.769c-1.268-0.087-2.549,0.034-3.825,0.074c-0.718,0.022-1.439,0.128-2.152,0.089
			C25.094,147.967,24.271,147.776,23.652,146.898z M82.252,191.23c7.2,0,14.247,0,21.361,0c0.018-0.246,0.039-0.437,0.041-0.628
			c0.121-8.472,0.269-16.942,0.346-25.413c0.041-4.555-0.027-9.111-0.084-13.666c-0.01-0.791-0.117-1.604-0.334-2.361
			c-0.362-1.258-0.68-1.378-1.996-1.316c-3.99,0.186-7.98,0.354-11.973,0.502c-2.505,0.093-5.011,0.137-7.75,0.208
			c0,2.145-0.01,4.171,0.004,6.196c0.009,1.398,0.027,2.797,0.085,4.193c0.098,2.354,0.328,4.707,0.329,7.062
			c0.001,7.712-0.079,15.425-0.119,23.137C82.159,189.819,82.219,190.495,82.252,191.23z M79.129,148.035
			c-7.135,1.191-14.177,0.79-21.333,0.274c0.095,1.542,0.292,2.929,0.244,4.307c-0.123,3.512-0.376,7.019-0.537,10.529
			c-0.176,3.865-0.491,7.736,0.572,11.551c0.22,0.79,0.219,1.661,0.206,2.493c-0.043,2.795-0.18,5.59-0.2,8.386
			c-0.015,2.103,0.094,4.205,0.148,6.338c7.06-1.074,13.966-0.763,20.91-0.868C80.133,176.634,80.416,162.404,79.129,148.035z
			 M80.765,98.652c7.342,0,14.5,0,21.742,0c0.905-13.179-0.886-26.211-0.048-39.295c-7.354,0-14.563,0-21.694,0
			C80.765,72.477,80.765,85.523,80.765,98.652z M77.981,98.689c0.426-13.077,1.111-26.026,0.238-39.105
			c-7.165,0.171-14.21,0.339-21.358,0.509c0.116,13-0.771,25.77,0.169,38.651C63.97,99.092,70.903,98.666,77.981,98.689z
			 M36.718,192.146c0.166,0.034,0.319,0.095,0.47,0.091c5.593-0.144,11.187-0.276,16.778-0.456c1.225-0.039,1.239-0.118,1.231-1.344
			c-0.08-13.155-0.165-26.311-0.254-39.466c-0.005-0.78-0.063-1.561-0.099-2.388c-6.223-0.093-12.288-0.183-18.377-0.272
			c-0.083,0.387-0.177,0.654-0.192,0.925c-0.105,1.876-0.295,3.753-0.27,5.628c0.09,6.515,0.265,13.028,0.393,19.543
			C36.514,180.277,36.61,186.15,36.718,192.146z M129.819,235.56c6.381,0.909,12.555-0.392,18.795-0.279
			c0.067-0.438,0.158-0.749,0.157-1.059c-0.015-5.512,0.057-11.025-0.088-16.532c-0.181-6.868-0.546-13.731-0.816-20.597
			c-0.043-1.104-0.006-2.211-0.006-3.176c-6.527,0-12.849,0-19.169,0c-0.32,6.686-0.044,13.15,0.299,19.613
			c0.269,5.066,0.588,10.131,0.812,15.199C129.901,230.96,129.819,233.197,129.819,235.56z M55.681,236.988
			c0.862-14.265,0.704-28.332-0.581-42.514c-6.184,0.172-12.305,0.344-18.482,0.516c-0.016,0.238-0.051,0.474-0.044,0.709
			c0.242,8.185,0.506,16.368,0.726,24.554c0.123,4.59,0.176,9.183,0.254,13.773c0.016,0.941,0.002,1.884,0.002,2.97
			C43.589,236.21,49.563,236.619,55.681,236.988z M124.822,98.011c0.394-2.156,0.373-37.438-0.006-38.748
			c-6.541,0.215-13.115-0.481-19.766,0.095c-0.459,12.967-0.013,25.841,0.27,38.653C111.945,98.011,118.367,98.011,124.822,98.011z
			 M146.571,97.67c0.448-2.953,0.576-36.608,0.159-38.407c-1.121-0.072-2.271-0.198-3.422-0.209
			c-4.874-0.048-9.747-0.068-14.62-0.062c-0.217,0-0.598,0.339-0.621,0.552c-0.1,0.905-0.104,1.822-0.124,2.735
			c-0.15,6.671-0.312,13.343-0.437,20.015c-0.07,3.717-0.08,7.434-0.11,11.151c-0.011,1.426-0.002,2.851-0.002,4.226
			C133.781,97.67,140.155,97.67,146.571,97.67z M54.247,98.746c0-12.933,0-25.702,0-38.666c-6.278,0-12.489,0-18.76,0
			c-0.045,0.335-0.138,0.728-0.145,1.122c-0.084,4.315-0.287,8.633-0.2,12.945c0.157,7.752,0.524,15.502-0.113,23.25
			c-0.035,0.419-0.004,0.844-0.004,1.35C41.489,98.746,47.825,98.746,54.247,98.746z M58.918,236.39
			c7.309,1.143,14.54-0.239,21.628,0.03c0-3.821,0-7.472,0-11.145c-0.478-0.035-0.752-0.068-1.027-0.075
			c-3.468-0.076-5.823-1.793-7.059-4.975c-1.431-3.684-1.118-7.305,0.843-10.722c1.195-2.083,3.032-3.361,5.454-3.706
			c0.351-0.05,0.702-0.095,1.179-0.159c-0.186-3.791-0.37-7.554-0.558-11.39c-7.197,0.337-14.245-0.048-21.479,0.255
			C58.243,208.549,58.579,222.4,58.918,236.39z M126.304,191.013c0-1.654,0-3.254,0-4.947c-0.252-0.021-0.602-0.047-0.949-0.08
			c-3.543-0.335-6.041-2.431-6.801-5.914c-0.268-1.228-0.361-2.562-0.191-3.8c0.513-3.731,2.184-6.75,5.849-8.281
			c0.758-0.316,1.596-0.443,2.461-0.674c0.36-6.562,0.155-13.127-0.264-19.729c-6.759,0.137-13.439,0.272-20.178,0.407
			c0,0.535-0.01,0.886,0.001,1.236c0.079,2.756,0.248,5.512,0.227,8.267c-0.085,10.868-0.233,21.735-0.347,32.603
			c-0.014,1.282,0.021,1.286,1.343,1.366c0.398,0.024,0.799,0.046,1.198,0.037c3.435-0.077,6.87-0.153,10.305-0.247
			C121.347,191.19,123.736,191.099,126.304,191.013z M127.806,235.923c-0.388-14.083-2.009-27.957-1.137-41.977
			c-6.699,0-13.274,0-19.967,0c0,1.979-0.054,3.852,0.011,5.72c0.162,4.714,0.414,9.424,0.539,14.138
			c0.025,0.96,0.287,1.41,1.194,1.728c1.692,0.591,3.368,1.254,4.987,2.021c2.183,1.035,3.453,2.802,3.671,5.243
			c0.283,3.186-0.859,5.792-3.284,7.848c-1.76,1.492-3.857,2.193-6.189,2.475c-0.033,0.73-0.102,1.402-0.087,2.073
			c0.023,1.104,0.151,1.253,1.26,1.227C115.074,236.269,121.345,236.094,127.806,235.923z M128.658,191.025
			c1.736-0.086,3.288-0.221,4.842-0.229c2.917-0.014,5.835,0.053,8.753,0.07c1.566,0.009,3.109-0.129,4.562-0.804
			c0.495-0.23,0.646-0.493,0.621-1.093c-0.094-2.348-0.138-4.701-0.07-7.049c0.053-1.834,0.454-3.663,0.433-5.491
			c-0.111-9.55-0.308-19.099-0.479-28.647c-0.007-0.352-0.072-0.701-0.114-1.087c-6.279,0.372-12.479,0.739-18.719,1.108
			c0,0.385-0.012,0.658,0.002,0.93c0.13,2.474,0.329,4.945,0.382,7.42c0.073,3.396,0.065,6.797,0.026,10.194
			c-0.009,0.816,0.287,1.144,1.003,1.495c1.713,0.84,3.453,1.693,4.988,2.809c2.151,1.564,2.954,3.859,2.479,6.469
			c-0.785,4.309-3.5,6.953-7.539,8.364c-0.368,0.129-0.747,0.227-1.17,0.354C128.658,187.56,128.658,189.223,128.658,191.025z
			 M82.436,194.389c0,4.131,0,7.987,0,11.796c2.866,0.637,3.639,0.967,4.793,2.113c2.479,2.46,3.083,5.549,2.703,8.844
			c-0.474,4.112-2.553,6.389-6.509,7.463c-0.104,0.028-0.192,0.116-0.349,0.215c0.166,3.836-0.16,7.708,0.559,11.391
			c7.297,0,14.471,0,21.822,0c-0.154-1.014-0.275-1.812-0.389-2.545c-1.512-0.675-3.019-1.228-4.408-1.991
			c-2.973-1.634-4.547-5.407-3.793-8.729c0.609-2.68,2.186-4.689,4.38-6.218c1.165-0.812,2.462-1.432,3.771-2.18
			c-0.578-6.793-0.051-13.688-1.128-20.676C96.683,194.046,89.554,194.217,82.436,194.389z M79.146,145.334
			c0-4.307,0-8.524,0-12.775c-7.343-0.788-14.469,0.298-21.512-0.029c0,4.443,0,8.771,0,13.207
			C64.962,145.6,72.096,145.465,79.146,145.334z M103.84,145.156c-0.1-4.253-0.197-8.381-0.297-12.615
			c-7.322-0.239-14.557-0.541-22.025,0.04c0.142,4.248,0.281,8.401,0.42,12.575C89.32,145.156,96.504,145.156,103.84,145.156z
			 M126.387,144.602c-0.733-4.322,0.154-8.646-1.109-12.895c-6.391,0.973-12.736,0.362-19.236,0.581
			c0.135,4.367,0.266,8.58,0.398,12.863C113.15,145.636,119.69,144.831,126.387,144.602z M128.074,131.998
			c0.129,4.206,0.252,8.254,0.379,12.431c6.318,1.073,12.503-0.622,18.896-0.06c0-4.324,0-8.453,0-12.726
			C141.035,131.03,134.679,131.691,128.074,131.998z M36.101,133.277c0,4.091,0,8.213,0,12.346c6.18,0,12.269,0,18.412,0
			c0-4.273,0-8.488,0-12.915C48.346,132.899,42.259,133.088,36.101,133.277z M102.824,100.659
			c-7.396,0.247-14.524,0.485-21.707,0.725c-0.537,3.237,0.007,6.437,0.017,9.437c7.346,0.177,14.55,0.351,21.69,0.523
			C102.824,107.775,102.824,104.322,102.824,100.659z M124.706,110.952c0.186-3.753,0.612-7.225,0.279-10.695
			c-2.208-0.402-17.966,0.096-19.724,0.648c0.097,3.352,0.194,6.753,0.297,10.316C112.047,111.13,118.302,111.042,124.706,110.952z
			 M146.577,110.234c0-3.577,0-6.943,0-10.311c-3.386,0-6.657-0.043-9.928,0.013c-2.751,0.048-5.498,0.234-8.249,0.312
			c-0.937,0.026-1.203,0.417-1.198,1.325c0.014,2.794-0.06,5.59-0.099,8.385c-0.003,0.263,0,0.526,0,0.867
			C133.664,111.224,140.078,110.151,146.577,110.234z M56.789,111.143c7.291,0,14.34,0,21.458,0
			c-0.116-3.401-0.225-6.58-0.331-9.701c-7.15,0.119-14.193,0.236-21.126,0.352C56.789,105.07,56.789,108.136,56.789,111.143z
			 M54.243,101.639c-6.426,0-12.682,0-19.092,0c0,3.621,0,7.215,0,10.847c6.382-0.342,12.738-0.684,19.092-1.024
			C54.243,108.046,54.243,104.87,54.243,101.639z"/>
		<path style="fill-rule:evenodd;clip-rule:evenodd;" d="M74.961,11.423c1.592,0,3.097,0,4.8,0c0-2.592,0.01-5.098-0.004-7.604
			c-0.006-1.11,0.709-1.8,1.83-1.604c0.271,0.047,0.631,0.399,0.694,0.671c0.298,1.277,0.655,2.568,0.718,3.868
			c0.172,3.553,0.209,7.113,0.294,10.67c0.024,1.035,0.098,2.076,0.017,3.104c-0.077,0.973-0.609,1.443-1.415,1.502
			c-0.846,0.062-1.587-0.408-1.702-1.345c-0.148-1.218-0.095-2.462-0.117-3.695c-0.012-0.708-0.002-1.418-0.002-2.361
			c-1.624,0.111-3.073,0.21-4.7,0.321c-0.054,0.849-0.138,1.625-0.142,2.403c-0.003,0.637,0.102,1.274,0.133,1.913
			c0.057,1.145-0.34,1.7-1.405,2.012c-0.865,0.254-1.256,0.042-1.477-0.849c-0.881-3.555-0.945-7.202-1.206-10.827
			c-0.114-1.593-0.239-3.188-0.44-4.771c-0.099-0.779,0.008-1.31,0.821-1.59c0.873-0.301,1.622-0.228,1.983,0.552
			c0.462,0.995,0.798,2.084,0.97,3.168C74.837,8.37,74.846,9.812,74.961,11.423z"/>
		<path style="fill-rule:evenodd;clip-rule:evenodd;" d="M89.234,10.671c4.217-2.288,5.885-2.146,7.379,0.624
			c1.473-0.312,2.932-0.777,4.42-0.905c2.873-0.249,3.112-0.088,4.19,2.6c0.999,2.49,1.188,5.043,0.126,7.584
			c-0.253,0.606-0.444,1.371-1.398,1.127c-0.66-0.168-1.382-1.203-1.352-1.871c0.074-1.67,0.277-3.351,0.164-5.01
			c-0.129-1.888-0.939-2.262-2.755-1.606c-1.104,0.399-1.681,1.243-1.84,2.317c-0.228,1.537-0.31,3.095-0.472,4.642
			c-0.059,0.55-0.17,1.094-0.253,1.618c-1.319,0.173-2.292-0.367-2.588-1.577c-0.215-0.879-0.229-1.814-0.268-2.727
			c-0.044-0.997,0.032-2-0.027-2.996c-0.062-1.024-0.399-1.95-1.353-2.569c-1.4,0.467-2.141,1.55-2.473,2.863
			c-0.35,1.386-0.505,2.821-0.73,4.237c-0.125,0.788-0.176,1.591-0.343,2.369c-0.172,0.8-0.569,0.969-1.313,0.614
			c-0.659-0.313-1.194-0.684-1.267-1.563c-0.258-3.1-0.629-6.19-0.877-9.291c-0.104-1.295,0.004-1.239,1.483-1.621
			c0.981-0.254,1.193,0.282,1.381,0.994C89.086,10.585,89.178,10.624,89.234,10.671z"/>
		<path style="fill-rule:evenodd;clip-rule:evenodd;" d="M89.096,40.152c0.034,1.514-0.583,2.795-1.462,3.967
			c-0.177,0.235-0.493,0.368-0.752,0.538c-0.621,0.408-1.248,0.807-1.867,1.216c-0.224,0.148-0.414,0.405-0.654,0.46
			c-1.902,0.441-3.797,0.974-5.727,1.208c-0.969,0.118-2.02-0.278-3.001-0.555c-0.234-0.066-0.54-0.638-0.475-0.891
			c0.712-2.802,0.167-5.564-0.173-8.335c-0.187-1.525-0.205-3.037,0.442-4.472c0.7-1.553,1.388-1.917,3.078-1.686
			c3.471,0.476,6.539,1.785,8.935,4.42C88.571,37.269,89.09,38.651,89.096,40.152z M77.67,34.769
			c-0.455,3.513-0.178,6.83,0.618,10.196c2.317-0.464,4.513-0.904,6.302-2.361c2.166-1.764,2.034-4.499-0.287-6.034
			C82.354,35.281,80.154,34.833,77.67,34.769z"/>
		<path style="fill-rule:evenodd;clip-rule:evenodd;" d="M108.166,36.636c-1.158-0.173-1.979-0.837-2.506-1.824
			c-0.312-0.585-0.729-0.758-1.34-0.785c-1.18-0.051-2.201,0.309-3.099,1.05c-2.471,2.038-3.108,5.986-1.438,8.716
			c0.387,0.631,0.863,1.042,1.626,1.006c0.954-0.045,1.927-0.014,2.854-0.201c1.458-0.294,2.494-1.177,3.016-2.702
			c-1.674-0.936-3.264,0.691-4.982,0.075c-0.107-0.671-0.223-1.396-0.313-1.964c1.612-0.381,3.101-0.733,4.591-1.084
			c2.252-0.529,3.858,0.622,4.057,2.982c0.117,1.391,0.099,2.792,0.17,4.188c0.035,0.672,0.137,1.341,0.229,2.21
			c-0.771,0.091-1.57,0.186-2.49,0.295c-0.13-0.747-0.242-1.393-0.369-2.125c-0.489,0.161-1.025,0.374-1.581,0.515
			c-3.288,0.837-6.663-0.488-8.692-3.393c-0.979-1.4-1.55-2.946-1.809-4.639c-0.258-1.691,0.25-3.103,1.438-4.246
			c1.969-1.898,4.338-2.812,7.091-2.543C107.033,32.401,108.566,34.344,108.166,36.636z"/>
		<path style="fill-rule:evenodd;clip-rule:evenodd;" d="M37.005,34.358c-1.842,0-3.596-0.037-5.348,0.013
			c-1.13,0.032-1.88,1.617-1.217,2.528c0.129,0.178,0.484,0.256,0.739,0.265c0.717,0.025,1.437-0.02,2.155-0.019
			c0.804,0.001,1.153,0.42,1.206,1.416c0.048,0.906-0.263,1.391-1.012,1.464c-0.554,0.054-1.12-0.013-1.675,0.034
			c-0.886,0.076-1.203,0.485-1.052,1.355c0.135,0.783,0.322,1.557,0.502,2.412c0.894,0,1.797,0.039,2.697-0.009
			c1.274-0.068,2.543-0.246,3.817-0.288c0.965-0.032,1.189,0.296,1.058,1.256c-0.201,1.47-0.341,1.672-1.855,1.774
			c-2.534,0.17-5.073,0.25-7.709,0.374c-0.39-5.29-2.028-10.229-1.379-15.548c2.51-0.231,4.963-0.466,7.418-0.675
			c0.392-0.033,0.806,0,1.189,0.09c1.055,0.246,1.292,0.677,1.002,1.73C37.385,33.102,37.208,33.668,37.005,34.358z"/>
		<path style="fill-rule:evenodd;clip-rule:evenodd;" d="M56.82,31.558c0.278,2.648,1.741,4.848,2.999,7.158
			c0.908,1.667,1.542,3.483,2.323,5.221c0.407,0.905,0.871,1.784,1.372,2.801c-0.303,0.315-0.607,0.744-1.012,1.027
			c-0.725,0.506-1.491,0.334-1.895-0.453c-0.453-0.883-0.785-1.828-1.179-2.742c-0.56-1.295-0.613-1.325-2.027-1.148
			c-1.107,0.139-2.225,0.231-3.317,0.445c-2.773,0.544-3.352,1.141-3.836,3.761c-1.444-0.235-1.941-1.03-1.327-2.248
			c2.208-4.378,4.442-8.743,6.673-13.109C55.822,31.824,56.005,31.26,56.82,31.558z M57.817,41.021
			c-0.546-1.124-0.921-1.955-1.35-2.759c-0.295-0.555-0.844-0.54-1.17,0.013c-0.365,0.616-0.746,1.229-1.035,1.882
			c-0.174,0.392-0.187,0.855-0.274,1.296c0.78-0.061,1.376-0.091,1.968-0.157C56.518,41.232,57.076,41.132,57.817,41.021z"/>
		<path style="fill-rule:evenodd;clip-rule:evenodd;" d="M128.773,40.557c-1.852,0.136-3.588,0.263-5.478,0.402
			c0,0.521,0.015,0.988-0.003,1.453c-0.037,1.037-0.092,2.073-0.136,3.109c-0.025,0.595-0.247,0.985-0.921,1.004
			c-0.656,0.018-1.087-0.232-1.146-0.914c-0.199-2.305-0.415-4.609-0.559-6.918c-0.146-2.345-0.216-4.694-0.323-7.133
			c0.903-0.082,1.717,0.41,2.502,0.91c0.158,0.101,0.179,0.493,0.181,0.752c0.016,1.676,0.008,3.352,0.008,5.122
			c1.775,0,3.591,0,5.538,0c0.54-1.976-0.078-4.07,0.297-6.146c0.948,0.015,1.66,0.489,1.994,1.27
			c0.383,0.899,0.646,1.885,0.757,2.856c0.116,1.023,0.059,2.08-0.042,3.111c-0.192,1.97-0.075,3.903,0.393,5.824
			c0.093,0.378,0.164,0.811,0.072,1.175c-0.164,0.648-0.361,1.351-1.279,1.317c-1.005-0.037-1.55-0.408-1.647-1.331
			c-0.079-0.746-0.024-1.513,0.036-2.265C129.115,42.963,129.242,41.777,128.773,40.557z"/>
		<path style="fill-rule:evenodd;clip-rule:evenodd;" d="M145.625,38.871c0.962,0,1.862,0.035,2.758-0.007
			c1.771-0.083,1.776-0.101,2.196,1.669c0.08,0.337,0.102,0.688,0.167,1.155c-1.781,0.092-3.609-0.75-5.101,0.638
			c0.214,0.754,0.417,1.471,0.685,2.413c0.646,0,1.43,0.025,2.212-0.006c0.958-0.039,1.913-0.147,2.872-0.184
			c1.098-0.042,2.152,0.103,3.023,0.965c-0.221,0.854-0.895,1.22-1.626,1.412c-0.688,0.181-1.417,0.262-2.129,0.273
			c-2.109,0.034-4.22,0.012-6.444,0.012c-0.29-5.104-0.938-9.96-0.885-15.024c1.058-0.074,2.005-0.234,2.942-0.187
			c2.037,0.103,4.068,0.319,6.058-0.362c0.164-0.056,0.408-0.033,0.559,0.052c0.677,0.382,0.768,2.402,0.125,2.844
			c-0.971,0.667-2.067,0.812-3.211,0.667c-0.871-0.111-1.736-0.271-2.608-0.374c-1.317-0.154-1.577,0.086-1.543,1.397
			c0.012,0.438,0.104,0.875,0.102,1.313C145.774,37.931,145.691,38.323,145.625,38.871z"/>
		<path style="fill-rule:evenodd;clip-rule:evenodd;" d="M9.648,115.011c0.565-1.369,1.518-2.32,2.552-3.208
			c1.419-1.219,2.994-2.279,3.979-3.949c0.114-0.193,0.544-0.322,0.8-0.286c0.562,0.081,1.52,1.428,1.439,1.983
			c-0.521,3.58-0.507,7.169-0.226,10.766c0.03,0.387,0.004,0.778,0.004,1.363c-0.691-0.077-1.246-0.139-1.874-0.209
			c-0.176-3.111-0.345-6.094-0.521-9.216c-0.484-0.214-0.961,0.197-1.4,0.559c-0.77,0.635-1.464,1.363-2.246,1.98
			C11.439,115.361,10.635,115.706,9.648,115.011z"/>
		<path style="fill-rule:evenodd;clip-rule:evenodd;fill:none;" d="M82.252,191.23c-0.033-0.735-0.093-1.411-0.09-2.087
			c0.041-7.712,0.12-15.425,0.119-23.137c0-2.354-0.231-4.708-0.329-7.062c-0.058-1.396-0.076-2.795-0.085-4.193
			c-0.014-2.025-0.004-4.052-0.004-6.196c2.738-0.071,5.245-0.115,7.75-0.208c3.992-0.147,7.982-0.316,11.973-0.502
			c1.316-0.062,1.634,0.059,1.996,1.316c0.217,0.758,0.324,1.57,0.334,2.361c0.057,4.555,0.125,9.111,0.084,13.666
			c-0.077,8.471-0.225,16.941-0.346,25.413c-0.002,0.191-0.023,0.382-0.041,0.628C96.499,191.23,89.452,191.23,82.252,191.23z"/>
		<path style="fill-rule:evenodd;clip-rule:evenodd;fill:none;" d="M79.129,148.035c1.287,14.369,1.004,28.599,0.012,43.01
			c-6.944,0.105-13.851-0.206-20.91,0.868c-0.055-2.133-0.164-4.235-0.148-6.338c0.02-2.796,0.156-5.591,0.2-8.386
			c0.013-0.832,0.014-1.703-0.206-2.493c-1.063-3.814-0.749-7.686-0.572-11.551c0.16-3.511,0.414-7.018,0.537-10.529
			c0.048-1.378-0.149-2.765-0.244-4.307C64.953,148.825,71.995,149.227,79.129,148.035z"/>
		<path style="fill-rule:evenodd;clip-rule:evenodd;fill:none;" d="M80.765,98.652c0-13.129,0-26.175,0-39.295
			c7.131,0,14.34,0,21.694,0c-0.838,13.084,0.953,26.116,0.048,39.295C95.265,98.652,88.107,98.652,80.765,98.652z"/>
		<path style="fill-rule:evenodd;clip-rule:evenodd;fill:none;" d="M77.981,98.689c-7.078-0.023-14.011,0.403-20.951,0.055
			c-0.941-12.881-0.053-25.651-0.169-38.651c7.148-0.17,14.193-0.338,21.358-0.509C79.092,72.663,78.407,85.612,77.981,98.689z"/>
		<path style="fill-rule:evenodd;clip-rule:evenodd;fill:none;" d="M36.718,192.146c-0.108-5.995-0.205-11.868-0.32-17.739
			c-0.128-6.515-0.303-13.028-0.393-19.543c-0.026-1.875,0.164-3.752,0.27-5.628c0.015-0.271,0.109-0.538,0.192-0.925
			c6.09,0.09,12.155,0.18,18.377,0.272c0.036,0.827,0.094,1.607,0.099,2.388c0.09,13.155,0.174,26.311,0.254,39.466
			c0.008,1.226-0.007,1.305-1.231,1.344c-5.592,0.18-11.186,0.312-16.778,0.456C37.037,192.24,36.884,192.18,36.718,192.146z"/>
		<path style="fill-rule:evenodd;clip-rule:evenodd;fill:none;" d="M129.819,235.56c0-2.362,0.082-4.6-0.017-6.83
			c-0.224-5.068-0.543-10.133-0.812-15.199c-0.343-6.463-0.619-12.928-0.299-19.613c6.32,0,12.642,0,19.169,0
			c0,0.965-0.037,2.072,0.006,3.176c0.271,6.865,0.636,13.729,0.816,20.597c0.145,5.507,0.073,11.021,0.088,16.532
			c0.001,0.31-0.09,0.62-0.157,1.059C142.374,235.168,136.2,236.469,129.819,235.56z"/>
		<path style="fill-rule:evenodd;clip-rule:evenodd;fill:none;" d="M55.681,236.988c-6.118-0.369-12.092-0.778-18.126,0.008
			c0-1.086,0.014-2.028-0.002-2.97c-0.078-4.591-0.131-9.184-0.254-13.773c-0.219-8.186-0.484-16.369-0.726-24.554
			c-0.007-0.235,0.029-0.471,0.044-0.709c6.178-0.172,12.299-0.344,18.482-0.516C56.384,208.656,56.542,222.724,55.681,236.988z"/>
		<path style="fill-rule:evenodd;clip-rule:evenodd;fill:none;" d="M124.822,98.011c-6.455,0-12.877,0-19.502,0
			c-0.282-12.812-0.729-25.686-0.27-38.653c6.65-0.576,13.225,0.121,19.766-0.095C125.195,60.573,125.216,95.855,124.822,98.011z"/>
		<path style="fill-rule:evenodd;clip-rule:evenodd;fill:none;" d="M146.571,97.67c-6.416,0-12.79,0-19.177,0
			c0-1.375-0.009-2.8,0.002-4.226c0.03-3.717,0.04-7.435,0.11-11.151c0.125-6.672,0.286-13.343,0.437-20.015
			c0.021-0.913,0.024-1.83,0.124-2.735c0.023-0.212,0.404-0.552,0.621-0.552c4.873-0.006,9.746,0.015,14.62,0.062
			c1.15,0.011,2.301,0.137,3.422,0.209C147.147,61.062,147.02,94.717,146.571,97.67z"/>
		<path style="fill-rule:evenodd;clip-rule:evenodd;fill:none;" d="M54.247,98.746c-6.421,0-12.758,0-19.222,0
			c0-0.505-0.03-0.93,0.004-1.35c0.637-7.748,0.27-15.498,0.113-23.25c-0.087-4.312,0.116-8.63,0.2-12.945
			c0.007-0.394,0.1-0.786,0.145-1.122c6.271,0,12.482,0,18.76,0C54.247,73.043,54.247,85.812,54.247,98.746z"/>
		<path style="fill-rule:evenodd;clip-rule:evenodd;fill:none;" d="M58.918,236.39c-0.339-13.989-0.676-27.841-1.017-41.886
			c7.234-0.303,14.282,0.082,21.479-0.255c0.188,3.836,0.372,7.599,0.558,11.39c-0.478,0.064-0.829,0.109-1.179,0.159
			c-2.422,0.345-4.259,1.623-5.454,3.706c-1.961,3.417-2.274,7.038-0.843,10.722c1.236,3.182,3.59,4.898,7.059,4.975
			c0.275,0.007,0.549,0.04,1.027,0.075c0,3.673,0,7.323,0,11.145C73.458,236.15,66.227,237.532,58.918,236.39z M63.625,206.648
			c0.196,1.72,0.905,2.581,2.174,2.984c1.634,0.518,3.962-0.18,4.998-1.531c0.197-0.257,0.404-0.682,0.326-0.946
			c-0.518-1.759,0.075-3.274,0.807-4.828c0.302-0.643,0.442-1.481,0.329-2.178c-0.369-2.258-2.968-3.847-5.182-3.287
			c-1.423,0.36-2.154,1.506-1.865,2.942c0.112,0.014,0.238,0.063,0.344,0.036c0.654-0.173,1.294-0.45,1.958-0.525
			c0.728-0.082,1.521-0.13,2.206,0.073c0.975,0.289,0.494,1.106,0.335,1.719c-0.146,0.564-0.411,1.023-1.179,0.86
			c-0.619-0.131-1.266-0.174-1.9-0.173c-0.63,0.002-1.397,0.888-1.359,1.557c0.044,0.769,0.526,1.112,1.273,1.138
			c0.359,0.013,0.72,0.036,1.075,0.086c1.315,0.185,1.652,1.006,0.861,2.082c-0.636,0.867-1.487,1.078-2.511,0.726
			C65.514,207.106,64.678,206.931,63.625,206.648z"/>
		<path style="fill-rule:evenodd;clip-rule:evenodd;fill:none;" d="M126.304,191.013c-2.567,0.086-4.957,0.178-7.347,0.243
			c-3.435,0.094-6.87,0.17-10.305,0.247c-0.399,0.009-0.8-0.013-1.198-0.037c-1.321-0.08-1.356-0.084-1.343-1.366
			c0.113-10.867,0.262-21.734,0.347-32.603c0.021-2.755-0.147-5.511-0.227-8.267c-0.011-0.351-0.001-0.701-0.001-1.236
			c6.738-0.135,13.419-0.271,20.178-0.407c0.419,6.603,0.624,13.167,0.264,19.729c-0.865,0.23-1.703,0.357-2.461,0.674
			c-3.665,1.531-5.336,4.55-5.849,8.281c-0.17,1.238-0.076,2.572,0.191,3.8c0.76,3.483,3.258,5.579,6.801,5.914
			c0.348,0.033,0.697,0.059,0.949,0.08C126.304,187.759,126.304,189.358,126.304,191.013z M119.039,158.798
			c-1.101,2.778-2.174,5.579-5.13,7.044c-0.19,0.094-0.371,0.414-0.378,0.635c-0.031,0.913,0.972,1.838,1.882,1.734
			c1.903-0.216,3.808-0.431,5.698-0.727c0.671-0.104,1.306-0.441,2.02-0.695c-0.383-0.662-0.651-1.127-1.007-1.74
			c-0.962,0-1.998,0-3.272,0c2.132-2.136,2.238-4.596,2.093-7.11c-0.022-0.382-0.095-0.873-0.341-1.111
			c-1.062-1.033-2.354-1.456-3.841-1.153c-1.441,0.295-2.325,1.152-2.642,2.594c-0.291,1.332,0.088,1.832,1.529,2.009
			C116.977,157.998,117.692,157.672,119.039,158.798z"/>
		<path style="fill-rule:evenodd;clip-rule:evenodd;fill:none;" d="M127.806,235.923c-6.461,0.171-12.731,0.346-19.002,0.495
			c-1.108,0.026-1.236-0.122-1.26-1.227c-0.015-0.671,0.054-1.343,0.087-2.073c2.332-0.281,4.43-0.982,6.189-2.475
			c2.425-2.056,3.567-4.662,3.284-7.848c-0.218-2.441-1.488-4.208-3.671-5.243c-1.619-0.768-3.295-1.431-4.987-2.021
			c-0.907-0.317-1.169-0.768-1.194-1.728c-0.125-4.714-0.377-9.424-0.539-14.138c-0.064-1.868-0.011-3.74-0.011-5.72
			c6.692,0,13.268,0,19.967,0C125.797,207.966,127.418,221.84,127.806,235.923z"/>
		<path style="fill-rule:evenodd;clip-rule:evenodd;fill:none;" d="M128.658,191.025c0-1.803,0-3.466,0-5.187
			c0.423-0.127,0.802-0.225,1.17-0.354c4.039-1.411,6.754-4.056,7.539-8.364c0.475-2.609-0.328-4.904-2.479-6.469
			c-1.535-1.115-3.275-1.969-4.988-2.809c-0.716-0.352-1.012-0.679-1.003-1.495c0.039-3.397,0.047-6.798-0.026-10.194
			c-0.053-2.475-0.252-4.946-0.382-7.42c-0.014-0.271-0.002-0.545-0.002-0.93c6.239-0.369,12.439-0.736,18.719-1.108
			c0.042,0.386,0.107,0.735,0.114,1.087c0.172,9.549,0.368,19.098,0.479,28.647c0.021,1.828-0.38,3.657-0.433,5.491
			c-0.067,2.348-0.023,4.701,0.07,7.049c0.024,0.6-0.126,0.862-0.621,1.093c-1.453,0.675-2.996,0.812-4.562,0.804
			c-2.918-0.018-5.836-0.084-8.753-0.07C131.946,190.805,130.395,190.939,128.658,191.025z"/>
		<path style="fill-rule:evenodd;clip-rule:evenodd;fill:none;" d="M82.436,194.389c7.118-0.172,14.247-0.343,21.453-0.517
			c1.077,6.988,0.55,13.883,1.128,20.676c-1.31,0.748-2.606,1.368-3.771,2.18c-2.194,1.528-3.771,3.538-4.38,6.218
			c-0.754,3.321,0.82,7.095,3.793,8.729c1.39,0.764,2.896,1.316,4.408,1.991c0.113,0.733,0.234,1.531,0.389,2.545
			c-7.352,0-14.525,0-21.822,0c-0.718-3.683-0.393-7.555-0.559-11.391c0.157-0.099,0.245-0.187,0.349-0.215
			c3.957-1.074,6.036-3.351,6.509-7.463c0.38-3.295-0.224-6.384-2.703-8.844c-1.155-1.146-1.927-1.477-4.793-2.113
			C82.436,202.376,82.436,198.52,82.436,194.389z M95.311,200.449c-0.421,1.71-0.869,3.321-1.201,4.955
			c-0.195,0.968-0.295,1.974-0.281,2.961c0.02,1.372,0.188,1.518,1.557,1.834c1.001,0.23,2.014,0.407,2.969,0.597
			c0,1.095-0.088,2.091,0.022,3.065c0.126,1.107,0.604,1.393,1.852,1.338c0.71-1.994-0.254-4.638,2.503-5.991
			c-0.594-0.577-0.967-1.131-1.487-1.402c-0.684-0.355-0.872-0.842-0.904-1.53c-0.032-0.674-0.075-1.361-0.233-2.014
			c-0.237-0.978-0.604-1.108-1.732-0.72c0,1.008,0.041,2.042-0.011,3.072c-0.059,1.17-0.354,1.38-1.511,1.182
			c-0.342-0.059-0.668-0.205-1.031-0.32c0.301-1.847,0.59-3.611,0.875-5.377C96.867,201.028,96.482,200.575,95.311,200.449z"/>
		<path style="fill-rule:evenodd;clip-rule:evenodd;fill:none;" d="M79.146,145.334c-7.05,0.131-14.184,0.266-21.512,0.402
			c0-4.436,0-8.764,0-13.207c7.043,0.328,14.169-0.758,21.512,0.029C79.146,136.81,79.146,141.027,79.146,145.334z"/>
		<path style="fill-rule:evenodd;clip-rule:evenodd;fill:none;" d="M103.84,145.156c-7.336,0-14.52,0-21.902,0
			c-0.139-4.174-0.278-8.327-0.42-12.575c7.469-0.581,14.703-0.279,22.025-0.04C103.643,136.775,103.74,140.903,103.84,145.156z"/>
		<path style="fill-rule:evenodd;clip-rule:evenodd;fill:none;" d="M126.387,144.602c-6.696,0.229-13.236,1.034-19.947,0.549
			c-0.133-4.283-0.264-8.496-0.398-12.863c6.5-0.219,12.846,0.392,19.236-0.581C126.541,135.955,125.653,140.279,126.387,144.602z"
			/>
		<path style="fill-rule:evenodd;clip-rule:evenodd;fill:none;" d="M128.074,131.998c6.604-0.307,12.961-0.967,19.275-0.354
			c0,4.272,0,8.401,0,12.726c-6.394-0.562-12.578,1.133-18.896,0.06C128.326,140.252,128.203,136.203,128.074,131.998z"/>
		<path style="fill-rule:evenodd;clip-rule:evenodd;fill:none;" d="M36.101,133.277c6.158-0.189,12.245-0.378,18.412-0.569
			c0,4.427,0,8.642,0,12.915c-6.144,0-12.232,0-18.412,0C36.101,141.49,36.101,137.368,36.101,133.277z"/>
		<path style="fill-rule:evenodd;clip-rule:evenodd;fill:none;" d="M102.824,100.659c0,3.663,0,7.116,0,10.685
			c-7.141-0.172-14.344-0.346-21.69-0.523c-0.01-3-0.553-6.2-0.017-9.437C88.3,101.144,95.428,100.906,102.824,100.659z"/>
		<path style="fill-rule:evenodd;clip-rule:evenodd;fill:none;" d="M124.706,110.952c-6.404,0.09-12.659,0.179-19.147,0.27
			c-0.103-3.563-0.2-6.965-0.297-10.316c1.758-0.552,17.516-1.051,19.724-0.648C125.318,103.727,124.892,107.198,124.706,110.952z"
			/>
		<path style="fill-rule:evenodd;clip-rule:evenodd;fill:none;" d="M146.577,110.234c-6.499-0.083-12.913,0.989-19.474,0.591
			c0-0.341-0.003-0.604,0-0.867c0.039-2.795,0.112-5.59,0.099-8.385c-0.005-0.907,0.262-1.299,1.198-1.325
			c2.751-0.077,5.498-0.264,8.249-0.312c3.271-0.056,6.542-0.013,9.928-0.013C146.577,103.291,146.577,106.658,146.577,110.234z"/>
		<path style="fill-rule:evenodd;clip-rule:evenodd;fill:none;" d="M56.789,111.143c0-3.006,0-6.073,0-9.349
			c6.933-0.115,13.976-0.232,21.126-0.352c0.106,3.121,0.215,6.299,0.331,9.701C71.129,111.143,64.08,111.143,56.789,111.143z"/>
		<path style="fill-rule:evenodd;clip-rule:evenodd;fill:none;" d="M54.243,101.639c0,3.231,0,6.407,0,9.822
			c-6.354,0.341-12.709,0.682-19.092,1.024c0-3.631,0-7.226,0-10.847C41.561,101.639,47.816,101.639,54.243,101.639z"/>
		<path style="fill-rule:evenodd;clip-rule:evenodd;fill:none;" d="M77.67,34.769c2.484,0.064,4.685,0.512,6.633,1.801
			c2.321,1.535,2.453,4.27,0.287,6.034c-1.79,1.457-3.985,1.896-6.302,2.361C77.492,41.598,77.215,38.281,77.67,34.769z"/>
		<path style="fill-rule:evenodd;clip-rule:evenodd;fill:none;" d="M57.817,41.021c-0.742,0.111-1.299,0.212-1.861,0.275
			c-0.592,0.066-1.188,0.097-1.968,0.157c0.087-0.441,0.101-0.905,0.274-1.296c0.29-0.652,0.67-1.266,1.035-1.882
			c0.327-0.552,0.875-0.567,1.17-0.013C56.896,39.065,57.271,39.896,57.817,41.021z"/>
		<path style="fill-rule:evenodd;clip-rule:evenodd;" d="M63.625,206.648c1.052,0.282,1.889,0.458,2.69,0.734
			c1.024,0.353,1.875,0.142,2.511-0.726c0.791-1.076,0.454-1.897-0.861-2.082c-0.355-0.05-0.716-0.073-1.075-0.086
			c-0.748-0.025-1.229-0.369-1.273-1.138c-0.038-0.669,0.729-1.555,1.359-1.557c0.634-0.001,1.282,0.042,1.9,0.173
			c0.768,0.163,1.033-0.296,1.179-0.86c0.159-0.612,0.64-1.43-0.335-1.719c-0.686-0.203-1.478-0.155-2.206-0.073
			c-0.664,0.075-1.304,0.353-1.958,0.525c-0.105,0.027-0.231-0.022-0.344-0.036c-0.289-1.437,0.442-2.582,1.865-2.942
			c2.214-0.56,4.813,1.029,5.182,3.287c0.113,0.696-0.027,1.535-0.329,2.178c-0.732,1.554-1.325,3.069-0.807,4.828
			c0.078,0.265-0.129,0.689-0.326,0.946c-1.035,1.352-3.363,2.049-4.998,1.531C64.531,209.229,63.821,208.368,63.625,206.648z"/>
		<path style="fill-rule:evenodd;clip-rule:evenodd;" d="M119.039,158.798c-1.347-1.126-2.062-0.8-3.389,1.479
			c-1.441-0.177-1.82-0.677-1.529-2.009c0.316-1.441,1.2-2.299,2.642-2.594c1.487-0.303,2.779,0.12,3.841,1.153
			c0.246,0.238,0.318,0.729,0.341,1.111c0.146,2.515,0.039,4.975-2.093,7.11c1.274,0,2.311,0,3.272,0
			c0.355,0.613,0.624,1.078,1.007,1.74c-0.714,0.254-1.349,0.591-2.02,0.695c-1.891,0.296-3.795,0.511-5.698,0.727
			c-0.91,0.104-1.913-0.821-1.882-1.734c0.007-0.221,0.188-0.541,0.378-0.635C116.865,164.377,117.938,161.576,119.039,158.798z"/>
		<path style="fill-rule:evenodd;clip-rule:evenodd;" d="M95.311,200.449c1.172,0.126,1.557,0.579,1.385,1.649
			c-0.285,1.766-0.574,3.53-0.875,5.377c0.363,0.115,0.689,0.262,1.031,0.32c1.157,0.198,1.452-0.012,1.511-1.182
			c0.052-1.03,0.011-2.064,0.011-3.072c1.129-0.389,1.495-0.258,1.732,0.72c0.158,0.652,0.201,1.34,0.233,2.014
			c0.032,0.688,0.221,1.175,0.904,1.53c0.521,0.271,0.894,0.825,1.487,1.402c-2.757,1.354-1.793,3.997-2.503,5.991
			c-1.247,0.055-1.726-0.23-1.852-1.338c-0.11-0.975-0.022-1.971-0.022-3.065c-0.955-0.189-1.968-0.366-2.969-0.597
			c-1.368-0.316-1.537-0.462-1.557-1.834c-0.014-0.987,0.086-1.993,0.281-2.961C94.441,203.771,94.89,202.159,95.311,200.449z"/>
	</g>
</g>
<g id="Layer_1">
</g>
</svg>
