<?xml version="1.0" encoding="iso-8859-1"?>
<!-- Generator: Adobe Illustrator 16.0.0, SVG Export Plug-In . SVG Version: 6.00 Build 0)  -->
<!DOCTYPE svg PUBLIC "-//W3C//DTD SVG 1.1//EN" "http://www.w3.org/Graphics/SVG/1.1/DTD/svg11.dtd">
<svg version="1.1" xmlns="http://www.w3.org/2000/svg" xmlns:xlink="http://www.w3.org/1999/xlink" x="0px" y="0px"
	 width="175.68px" height="232.649px" viewBox="0 0 175.68 232.649" style="enable-background:new 0 0 175.68 232.649;"
	 xml:space="preserve">
<g id="E7">
	<g id="E7_1_">
		<path style="fill:none;" d="M175.68,232.649c-58.561,0-117.12,0-175.68,0C0,152.811,0,72.97,0-6.87c58.56,0,117.119,0,175.68,0
			C175.68,72.97,175.68,152.81,175.68,232.649z M28.788,66.431c0.3,12.622,0.919,25.195-0.822,37.89
			c-0.987-0.068-1.888-0.139-2.79-0.19c-1.229-0.07-2.459-0.168-3.689-0.171c-0.669-0.001-1.281,0.239-1.314,1.086
			c-0.032,0.824,0.458,1.275,1.174,1.442c0.654,0.153,1.339,0.223,2.013,0.234c1.238,0.02,2.479-0.08,3.716-0.037
			c1.191,0.042,1.461,0.363,1.489,1.536c0.079,3.396,0.164,6.792,0.214,10.19c0.075,4.955,0.13,9.91,0.179,14.866
			c0.053,5.278,0.089,10.558,0.132,15.836c0.005,0.705,0,1.409,0,2.021c-2.073,0-3.943,0.019-5.814-0.006
			c-1.348-0.018-2.673,0.011-3.892,0.778c0.441,1.227,1.332,1.738,2.421,1.768c1.553,0.042,3.11-0.085,4.666-0.123
			c0.821-0.02,1.644-0.004,2.597-0.004c-0.202,14.856-0.851,29.538-0.307,44.24c-2.947,0.172-5.752,0.336-8.729,0.51
			c0.45,1.123,0.801,2.001,1.228,3.067c1.118-0.276,2.18-0.565,3.253-0.798c1.008-0.218,2.023-0.479,3.045-0.529
			c0.972-0.046,1.38,0.42,1.469,1.375c0.106,1.154,0.196,2.312,0.232,3.47c0.104,3.396,0.176,6.794,0.267,10.19
			c0.01,0.381,0.061,0.76,0.093,1.133c1.773-0.079,2.751-1.196,2.708-2.724c-0.097-3.476-0.144-6.954-0.143-10.432
			c0-0.925,0.251-1.851,0.395-2.83c6.192,0.485,12.191-0.694,18.333-0.196c0,5.317,0,10.534,0,15.825
			c0.841,0.074,1.566,0.138,2.348,0.207c0.044-0.632,0.105-1.067,0.101-1.503c-0.032-3.119-0.105-6.237-0.106-9.356
			c0-1.779,0.111-3.56,0.169-5.239c7.611,0,14.979,0,22.367,0c0.019,0.35,0.038,0.505,0.035,0.659
			c-0.08,3.916-0.163,7.833-0.242,11.749c-0.006,0.319-0.075,0.681,0.047,0.948c0.169,0.37,0.435,0.796,0.772,0.95
			c0.2,0.092,0.707-0.219,0.923-0.476c0.995-1.183,1.388-2.617,1.362-4.122c-0.035-2.076-0.259-4.148-0.285-6.225
			c-0.015-1.208,0.198-2.419,0.316-3.716c7.319,0,14.414,0,21.619,0c-0.09,1.276-0.178,2.42-0.25,3.564
			c-0.229,3.581-0.455,7.162-0.663,10.745c-0.015,0.248,0.056,0.59,0.222,0.744c0.602,0.56,1.311,0.653,2.111,0.401
			c0.76-0.238,0.959-0.742,0.933-1.46c-0.026-0.719,0.011-1.439-0.008-2.158c-0.065-2.479-0.221-4.956-0.185-7.432
			c0.022-1.532,0.33-3.061,0.518-4.666c6.783,0.14,13.367-0.453,19.969,0.295c0.104,0.801,0.177,1.509,0.289,2.211
			c0.372,2.325,0.875,4.639,0.331,7.012c-0.187,0.814-0.337,1.645-0.416,2.476c-0.143,1.487,0.358,2.357,1.562,2.853
			c0.881-1.253,1.257-2.684,1.217-4.177c-0.059-2.195-0.275-4.386-0.386-6.58c-0.07-1.384,0.053-2.753,0.48-3.984
			c6.267,0,12.365,0,18.525,0c0.048,0.56,0.113,1.032,0.125,1.506c0.09,3.797,0.166,7.594,0.257,11.391
			c0.018,0.719,0.098,1.437,0.12,2.155c0.026,0.818,0.712,0.819,1.206,0.86c0.232,0.02,0.655-0.422,0.732-0.722
			c0.188-0.728,0.323-1.497,0.301-2.245c-0.068-2.235-0.198-4.471-0.351-6.703c-0.145-2.119-0.135-4.213,0.552-6.215
			c3.313,0,6.532,0,9.742,0c0.191-2.112-0.422-2.973-2.295-3.277c-0.433-0.071-0.87-0.115-1.308-0.149
			c-1.988-0.156-3.978-0.305-6.13-0.468c0.067-1.347,0.113-2.655,0.203-3.96c0.071-1.032,0.31-2.063,0.276-3.088
			c-0.104-3.231-0.435-6.461-0.434-9.69c0.004-6.435,0.158-12.87,0.275-19.304c0.045-2.468,0.156-4.935,0.241-7.504
			c0.566,0,1.036-0.039,1.497,0.008c1.111,0.113,2.216,0.32,3.329,0.391c1.156,0.073,2.308-0.01,3.158-0.962
			c-0.841-1.95-0.883-1.975-2.846-1.689c-0.158,0.022-0.312,0.079-0.47,0.095c-1.613,0.16-3.218,0.562-4.967,0.186
			c-0.144-3.778-0.408-7.527-0.405-11.277c0.008-9.436,0.113-18.873,0.233-28.309c0.022-1.777,0.171-3.572,0.852-5.385
			c0.99,0.119,1.928,0.284,2.872,0.334c1.543,0.082,3.095,0.178,4.633,0.089c0.76-0.044,1.511-0.472,1.709-1.463
			c-1.202-0.688-2.435-1.1-3.778-1.111c-1.76-0.015-3.52,0.013-5.278,0.001c-0.416-0.003-0.831-0.091-1.076-0.12
			c0-12.625,0-25.079,0-37.677c3.996,0,7.78,0,11.634,0c0.59-2.367,0.731-4.666-0.105-6.971c-0.244-0.672-0.612-0.904-1.339-0.812
			c-5.375,0.682-10.776,0.521-16.17,0.379c-5.474-0.144-10.943-0.572-16.414-0.564c-6.593,0.009-13.184,0.36-19.775,0.538
			c-5.396,0.146-10.793,0.218-16.187,0.39c-4.394,0.141-8.782,0.459-13.176,0.554c-3.715,0.08-7.436-0.063-11.154-0.08
			c-6.956-0.031-13.913,0.009-20.869-0.075c-7.754-0.094-15.507-0.294-23.261-0.447c-0.422-0.008-0.845-0.001-1.435-0.001
			c0.12,2.291,0.234,4.398,0.339,6.507c0.039,0.778,0.442,1.164,1.209,1.185c1.111,0.03,2.228,0.137,3.333,0.066
			C25.757,65.835,27.286,65.79,28.788,66.431z M75.492,13.477c1.016,0.065,1.889,0.089,2.753,0.185
			c1.625,0.18,3.244,0.429,4.872,0.584c0.333,0.031,0.862-0.125,1.008-0.369c0.42-0.708,0.532-1.51,0.041-2.269
			c-0.449-0.693-0.978-1.201-1.916-1.206c-1.436-0.008-2.871-0.128-4.306-0.209c-1.635-0.093-3.269-0.183-4.902-0.298
			c-0.834-0.06-1.183,0.304-1.13,1.122c0.081,1.275,0.086,2.559,0.234,3.826c0.386,3.295,0.871,6.578,0.406,9.911
			c-0.087,0.624-0.051,1.286,0.047,1.911c0.256,1.629,0.721,2.185,2.327,2.017c0.672-0.07,1.358-0.007,2.038-0.012
			c2.04-0.013,4.079-0.007,6.118-0.059c0.525-0.013,1.153,0.026,1.384-0.689c0.238-0.737,0.226-1.444-0.346-2.003
			c-0.333-0.325-0.753-0.649-1.189-0.764c-0.997-0.26-2.022-0.5-3.045-0.546c-1.224-0.056-2.458,0.097-3.681,0.158
			c-0.684-1.355-0.69-2.006-0.002-3.326c0.32,0.041,0.672,0.072,1.018,0.133c1.151,0.202,2.233-0.006,3.225-0.602
			c0.636-0.382,0.919-0.996,0.846-1.733c-0.077-0.783-0.584-1.219-1.313-1.36c-0.664-0.128-1.342-0.208-2.018-0.241
			c-0.827-0.04-1.658-0.01-2.468-0.01C75.492,16.175,75.492,14.894,75.492,13.477z M96.724,14.079
			c-0.206,1.138-0.337,1.961-0.508,2.777c-0.173,0.824-0.567,1.302-1.552,1.284c-1.354-0.026-2.715,0.11-4.068,0.224
			c-1.027,0.086-1.657,0.764-1.634,1.662c0.021,0.802,0.587,1.36,1.595,1.464c0.953,0.098,1.914,0.104,2.869,0.181
			c1.311,0.106,1.537,0.418,1.272,1.688c-0.252,1.21-0.545,2.414-0.753,3.631c-0.189,1.104-0.24,2.217,0.354,3.255
			c0.267,0.036,0.505,0.053,0.738,0.102c1.247,0.258,1.312,0.281,1.692-0.958c0.326-1.06,0.475-2.174,0.709-3.263
			c0.281-1.306,0.571-2.61,0.843-3.85c1.089,0.081,1.92,0.121,2.745,0.21c1.146,0.124,1.483-0.116,1.626-1.234
			c0.154-1.21-0.405-1.89-1.628-1.977c-1.392-0.099-1.596-0.305-1.373-1.707c0.198-1.259,0.451-2.515,0.775-3.747
			c0.499-1.896,0.483-2.109-1.186-3.039c-0.388-0.215-0.964-0.099-1.454-0.122c-2.233-0.105-4.468-0.279-6.702-0.278
			c-1.133,0-2.271,0.299-3.398,0.505c-0.628,0.114-0.673,0.586-0.542,1.112c0.24,0.969,1.165,1.689,2.457,1.752
			c1.314,0.064,2.637-0.022,3.953,0.027C94.571,13.819,95.584,13.967,96.724,14.079z M104.436,48.257
			c0.027,1.514-0.683,2.22-1.713,2.618c-1.654,0.641-3.367,0.596-5.046,0.119c-0.39-0.111-0.783-0.525-0.988-0.902
			c-0.796-1.461-0.922-3.067-0.594-4.657c0.408-1.98,1.421-3.584,3.489-4.188c1.369-0.398,2.719-0.585,3.721,0.903
			c0.488,0.726,1.269,1.171,2.234,0.992c0.45-0.946,0.322-1.74-0.328-2.484c-1.493-1.707-3.332-2.387-5.569-1.928
			c-2.264,0.465-3.933,1.802-5.39,3.53c-1.107,1.311-0.836,2.752-0.643,4.215c0.581,4.378,4.176,7.488,8.594,7.371
			c0.979-0.026,1.953-0.284,2.938-0.437c0.298,0.591,0.609,1.212,0.949,1.888c0.931-0.245,1.75-0.461,2.31-0.608
			c-0.078-1.381-0.172-2.515-0.197-3.651c-0.024-1.037,0.072-2.078,0.029-3.114c-0.054-1.294-0.785-2.066-2.061-2.234
			c-0.551-0.072-1.12-0.097-1.671-0.042c-1.704,0.171-3.401,0.391-5.31,0.616c0.073,0.822,0.143,1.616,0.227,2.565
			C101.134,48.634,102.729,48.452,104.436,48.257z M71.987,53.384c1.365,0.227,2.656,0.661,3.927,0.61
			c4.077-0.161,7.482-1.811,9.986-5.103c0.287-0.377,0.46-0.936,0.469-1.414c0.058-3.411-1.817-6.197-5.284-7.507
			c-2.222-0.84-4.563-1.363-6.668-1.976c-0.7,0.562-1.17,0.988-1.69,1.343c-0.542,0.369-0.849,0.819-0.817,1.489
			c0.08,1.709,0.171,3.418,0.222,5.128c0.058,1.948,0.091,3.897,0.1,5.846C72.232,52.262,72.094,52.724,71.987,53.384z
			 M25.38,53.129c3.29-0.018,6.459,0.031,9.611-0.529c0.069-0.919,0.127-1.689,0.192-2.56c-2.691,0-5.215,0-7.696,0
			c-0.161-0.769-0.313-1.426-0.436-2.09c-0.214-1.155,0.01-1.416,1.181-1.531c0.85-0.083,1.694-0.218,2.534-0.329
			c0-0.919,0-1.624,0-2.363c-1.269-0.771-2.618-0.363-3.912-0.264c-0.646-2.019-0.285-2.612,1.651-2.799
			c0.238-0.023,0.479-0.029,0.718-0.029c1.428-0.002,2.855-0.001,4.33-0.001c0.117-0.47,0.24-0.969,0.364-1.468
			c0.351-1.417,0.256-1.578-1.13-1.874c-2.984-0.637-5.847,0.037-8.716,0.742C23.547,43.151,25.105,48.001,25.38,53.129z
			 M46.756,53.866c0.258-2.623,2.102-3.449,4.364-3.741c1.146-0.148,2.303-0.213,3.452-0.343c0.53-0.059,0.792,0.18,0.997,0.638
			c0.407,0.909,0.843,1.805,1.303,2.688c0.683,1.311,2.085,1.882,3.426,0.162c-0.545-1.274-1.077-2.645-1.707-3.969
			c-1.755-3.695-4.254-7.02-5.362-10.949c-0.88-0.258-1.389-0.032-1.703,0.747c-0.327,0.81-0.809,1.557-1.124,2.37
			c-1.013,2.609-2.153,5.138-3.796,7.434c-0.59,0.825-0.997,1.819-1.308,2.794C44.913,52.901,45.33,53.452,46.756,53.866z
			 M126.871,47.123c-0.071,1.504-0.18,2.805-0.176,4.106c0.002,0.78,0.129,1.57,0.294,2.335c0.11,0.513,0.517,0.728,1.085,0.729
			c1.261,0.005,2.139-1.303,1.649-2.643c-0.535-1.464-0.595-2.937-0.47-4.475c0.132-1.62,0.216-3.267,0.065-4.878
			c-0.146-1.563-1.104-2.744-2.475-3.648c-1.003,2.094,0.221,4.324-0.684,6.277c-1.858,0-3.637,0-5.602,0
			c0-1.315,0.017-2.542-0.003-3.768c-0.04-2.508,0.532-2.104-2.256-2.871c-0.11-0.031-0.236-0.004-0.467-0.004
			c0.245,4.929,0.489,9.847,0.733,14.748c2.241,0.207,2.458,0.015,2.395-2.016c-0.016-0.519-0.066-1.039-0.045-1.556
			c0.023-0.583,0.11-1.164,0.167-1.722C123.005,47.535,124.775,47.346,126.871,47.123z M141.225,39.036
			c0.271,5.043,0.531,9.89,0.794,14.769c2.944,0,5.65,0.067,8.351-0.037c0.901-0.035,1.867-0.359,2.485-1.331
			c-1.579-1.053-3.263-1.292-5.062-1.123c-1.223,0.115-2.452,0.146-3.684,0.215c-0.159-0.646-0.312-1.136-0.396-1.638
			c-0.187-1.106,0.388-1.628,1.475-1.545c1.085,0.082,2.182,0.018,3.324,0.018c0-0.542,0.018-0.856-0.003-1.167
			c-0.122-1.794-0.243-1.874-2.001-1.772c-0.971,0.056-1.947,0.01-2.82,0.01c-0.06-1.275-0.112-2.391-0.166-3.527
			c1.546,0,2.938,0.009,4.33-0.003c0.838-0.008,1.675-0.043,2.512-0.078c0.842-0.035,1.223-0.498,1.154-1.321
			c-0.033-0.396-0.061-0.808-0.195-1.174c-0.169-0.463-0.442-0.728-1.077-0.685c-2.07,0.142-4.148,0.162-6.224,0.24
			C143.113,38.92,142.207,38.982,141.225,39.036z"/>
		<path style="fill-rule:evenodd;clip-rule:evenodd;" d="M28.788,66.431c-1.501-0.641-3.031-0.595-4.59-0.495
			c-1.105,0.071-2.222-0.036-3.333-0.066c-0.768-0.021-1.171-0.407-1.209-1.185c-0.104-2.108-0.219-4.216-0.339-6.507
			c0.59,0,1.013-0.007,1.435,0.001c7.754,0.153,15.507,0.353,23.261,0.447c6.956,0.084,13.913,0.044,20.869,0.075
			c3.718,0.017,7.439,0.16,11.154,0.08c4.394-0.095,8.782-0.413,13.176-0.554c5.394-0.172,10.791-0.244,16.187-0.39
			c6.592-0.178,13.183-0.528,19.775-0.538c5.471-0.008,10.94,0.42,16.414,0.564c5.394,0.142,10.795,0.303,16.17-0.379
			c0.727-0.092,1.095,0.139,1.339,0.812c0.837,2.306,0.695,4.604,0.105,6.971c-3.854,0-7.638,0-11.634,0c0,12.598,0,25.052,0,37.677
			c0.245,0.029,0.66,0.117,1.076,0.12c1.759,0.012,3.519-0.016,5.278-0.001c1.344,0.011,2.576,0.423,3.778,1.111
			c-0.198,0.992-0.949,1.419-1.709,1.463c-1.538,0.089-3.09-0.007-4.633-0.089c-0.944-0.05-1.882-0.215-2.872-0.334
			c-0.681,1.813-0.829,3.608-0.852,5.385c-0.12,9.436-0.226,18.873-0.233,28.309c-0.003,3.75,0.262,7.499,0.405,11.277
			c1.749,0.376,3.354-0.025,4.967-0.186c0.158-0.016,0.312-0.072,0.47-0.095c1.963-0.285,2.005-0.261,2.846,1.689
			c-0.851,0.952-2.002,1.035-3.158,0.962c-1.113-0.07-2.218-0.277-3.329-0.391c-0.461-0.047-0.931-0.008-1.497-0.008
			c-0.085,2.569-0.196,5.036-0.241,7.504c-0.117,6.434-0.271,12.869-0.275,19.304c-0.001,3.229,0.33,6.459,0.434,9.69
			c0.033,1.024-0.205,2.056-0.276,3.088c-0.09,1.305-0.136,2.613-0.203,3.96c2.152,0.163,4.142,0.312,6.13,0.468
			c0.438,0.034,0.875,0.078,1.308,0.149c1.873,0.305,2.486,1.165,2.295,3.277c-3.21,0-6.429,0-9.742,0
			c-0.687,2.002-0.696,4.096-0.552,6.215c0.152,2.232,0.282,4.468,0.351,6.703c0.022,0.748-0.113,1.518-0.301,2.245
			c-0.077,0.3-0.5,0.741-0.732,0.722c-0.494-0.041-1.18-0.042-1.206-0.86c-0.022-0.719-0.103-1.437-0.12-2.155
			c-0.091-3.797-0.167-7.594-0.257-11.391c-0.012-0.474-0.077-0.946-0.125-1.506c-6.16,0-12.259,0-18.525,0
			c-0.428,1.231-0.551,2.601-0.48,3.984c0.11,2.194,0.327,4.385,0.386,6.58c0.04,1.493-0.336,2.924-1.217,4.177
			c-1.204-0.495-1.705-1.365-1.562-2.853c0.079-0.831,0.229-1.661,0.416-2.476c0.544-2.373,0.041-4.687-0.331-7.012
			c-0.112-0.702-0.186-1.41-0.289-2.211c-6.602-0.748-13.186-0.155-19.969-0.295c-0.188,1.605-0.495,3.134-0.518,4.666
			c-0.036,2.476,0.119,4.953,0.185,7.432c0.019,0.719-0.019,1.439,0.008,2.158c0.026,0.718-0.173,1.222-0.933,1.46
			c-0.801,0.252-1.51,0.158-2.111-0.401c-0.166-0.154-0.236-0.496-0.222-0.744c0.208-3.583,0.435-7.164,0.663-10.745
			c0.072-1.145,0.16-2.288,0.25-3.564c-7.205,0-14.3,0-21.619,0c-0.118,1.297-0.332,2.508-0.316,3.716
			c0.026,2.076,0.25,4.148,0.285,6.225c0.026,1.505-0.367,2.939-1.362,4.122c-0.216,0.257-0.723,0.567-0.923,0.476
			c-0.337-0.154-0.603-0.58-0.772-0.95c-0.123-0.268-0.054-0.629-0.047-0.948c0.079-3.916,0.162-7.833,0.242-11.749
			c0.003-0.154-0.016-0.31-0.035-0.659c-7.388,0-14.756,0-22.367,0c-0.058,1.68-0.169,3.46-0.169,5.239
			c0,3.119,0.074,6.237,0.106,9.356c0.004,0.436-0.057,0.871-0.101,1.503c-0.782-0.069-1.507-0.133-2.348-0.207
			c0-5.291,0-10.508,0-15.825c-6.142-0.498-12.142,0.682-18.333,0.196c-0.144,0.979-0.395,1.905-0.395,2.83
			c-0.001,3.478,0.045,6.956,0.143,10.432c0.043,1.527-0.935,2.645-2.708,2.724c-0.032-0.373-0.083-0.752-0.093-1.133
			c-0.091-3.396-0.163-6.794-0.267-10.19c-0.036-1.158-0.125-2.315-0.232-3.47c-0.088-0.955-0.497-1.421-1.469-1.375
			c-1.021,0.05-2.037,0.312-3.045,0.529c-1.074,0.232-2.135,0.521-3.253,0.798c-0.427-1.066-0.778-1.944-1.228-3.067
			c2.977-0.174,5.782-0.338,8.729-0.51c-0.544-14.702,0.104-29.384,0.307-44.24c-0.954,0-1.776-0.016-2.597,0.004
			c-1.556,0.038-3.113,0.165-4.666,0.123c-1.089-0.029-1.98-0.541-2.421-1.768c1.219-0.768,2.543-0.796,3.892-0.778
			c1.871,0.024,3.741,0.006,5.814,0.006c0-0.612,0.005-1.316,0-2.021c-0.042-5.278-0.079-10.558-0.132-15.836
			c-0.049-4.956-0.104-9.911-0.179-14.866c-0.051-3.397-0.135-6.793-0.214-10.19c-0.027-1.173-0.298-1.494-1.489-1.536
			c-1.236-0.043-2.478,0.057-3.716,0.037c-0.673-0.011-1.358-0.082-2.013-0.234c-0.716-0.167-1.207-0.618-1.174-1.442
			c0.033-0.848,0.646-1.088,1.314-1.086c1.23,0.003,2.46,0.101,3.689,0.171c0.901,0.051,1.802,0.122,2.79,0.19
			C29.707,91.625,29.088,79.053,28.788,66.431z M53.529,197.178c7.279-0.209,14.638-0.42,22.12-0.635
			c1.678-13.985,0.564-28.139,0.749-42.07c-7.606,0-15.053,0-22.448,0c0,7.314,0.055,14.384-0.016,21.451
			C53.864,182.988,53.67,190.053,53.529,197.178z M100.51,153.807c-7.396,0.17-14.57,0.335-21.81,0.502
			c-0.067,2.116-0.219,4.189-0.179,6.258c0.065,3.395,0.362,6.786,0.368,10.179c0.011,6.675-0.128,13.351-0.167,20.025
			c-0.012,1.981,0.104,3.964,0.166,6.079c7.245,0,14.3,0,21.454,0c0.038-0.273,0.122-0.619,0.13-0.966
			c0.109-4.994,0.262-9.988,0.297-14.983c0.057-7.755,0.045-15.51,0.027-23.265C100.793,156.371,100.611,155.106,100.51,153.807z
			 M123.59,150.506c-0.491-14.971-0.982-29.908-1.476-44.931c-6.519,0.172-12.973,0.342-19.556,0.515
			c0.01,15.099,0.436,30.009,0.88,44.899C110.217,151.581,116.783,150.916,123.59,150.506z M126.078,150.52
			c1.521,0.073,2.917,0.238,4.305,0.188c4.51-0.162,9.016-0.422,13.524-0.6c0.811-0.031,1.021-0.391,1.036-1.104
			c0.04-2.037,0.202-4.075,0.157-6.11c-0.152-6.829-0.397-13.656-0.561-20.486c-0.121-5.074-0.171-10.15-0.25-15.225
			c-0.009-0.505-0.002-1.01-0.002-1.634c-6.608-0.017-13.058-0.078-19.616,0.283C124.521,120.807,125.238,135.596,126.078,150.52z
			 M78.568,147.439c-0.086,0.859-0.192,1.608-0.229,2.361c-0.048,0.992,0.186,1.232,1.109,1.258
			c1.917,0.051,3.834,0.146,5.751,0.139c4.477-0.018,8.953-0.088,13.428-0.133c0.662-0.008,1.324-0.002,2.117-0.002
			c-0.27-14.908-0.537-29.631-0.807-44.408c-7.508-0.676-14.774,0.456-22.101,0.216c0,6.828,0,13.481,0,20.118
			c0.554,0.099,0.983,0.188,1.416,0.248c3.004,0.422,5.03,2.113,6.189,4.855c1.412,3.342,1.252,6.721-0.086,10.027
			C84.14,145.127,82.102,147.225,78.568,147.439z M53.311,66.178c-0.072,12.764-1.034,25.375,0.037,38.056
			c7.189,0.669,14.278-0.119,21.475,0.011c0.521-12.858,1.5-25.566-0.041-38.413C67.64,65.947,60.544,66.062,53.311,66.178z
			 M51.147,197.562c-0.208-14.497,0.646-28.897-0.577-43.438c-6.185,0-12.258,0-18.313,0c0,0.485,0.005,0.873-0.001,1.261
			c-0.092,5.551-0.288,11.103-0.253,16.652c0.047,7.549,0.271,15.097,0.414,22.645c0.018,0.945,0.002,1.891,0.002,2.899
			c1.157,0.088,2.227,0.251,3.294,0.235c3.314-0.048,6.626-0.18,9.94-0.247C47.437,197.532,49.22,197.562,51.147,197.562z
			 M103.248,153.814c-0.19,14.438-0.38,28.837-0.572,43.418c7.055-0.151,13.951-0.299,20.922-0.449
			c0.108-4.354,0.212-8.54,0.315-12.692c-5.296-1.295-7.893-3.856-8.225-7.998c-0.181-2.243,0.138-4.385,1.335-6.333
			c1.607-2.616,4.106-3.764,7.111-4.071c-0.069-4.156,0.174-8.176-0.331-12.282C116.914,153.543,110.133,153.678,103.248,153.814z
			 M144.632,65.604c-6.385,0-12.6,0-19.044,0c-0.295,12.668-0.586,25.192-0.875,37.613c6.725,0,13.253,0,19.919,0
			C144.632,90.621,144.632,78.201,144.632,65.604z M50.68,104.259c0-12.724,0-25.279,0-38.051
			c-6.253-0.072-12.54-0.145-18.911-0.218c-0.106,1.155-0.293,2.26-0.294,3.365c-0.005,6.193,0.07,12.386,0.045,18.578
			c-0.016,3.99-0.143,7.979-0.25,11.969c-0.036,1.338-0.164,2.674-0.251,4.025C37.548,105.055,43.976,104.028,50.68,104.259z
			 M50.621,151.354c0.095-6.988,0.189-14.002,0.285-21.049c-3.7-0.636-5.94-2.727-6.891-6.165c-0.519-1.878-0.505-3.8-0.074-5.696
			c0.737-3.243,2.312-5.932,5.267-7.663c0.517-0.303,1.278-0.346,1.235-1.241c-0.03-0.628,0.068-1.263,0.024-1.889
			c-0.041-0.584-0.395-0.766-1.005-0.683c-3.785,0.519-7.58,0.208-11.368,0.052c-2.269-0.094-4.526-0.209-6.876,0.204
			c0,0.442-0.005,0.834,0.001,1.226c0.074,5.076,0.118,10.153,0.23,15.228c0.201,9.109,0.443,18.219,0.672,27.327
			c0.001,0.064,0.07,0.128,0.199,0.349C38.294,151.354,44.359,151.354,50.621,151.354z M144.876,195.723
			c0-2.929-0.098-5.766,0.023-8.593c0.17-3.951,0.746-7.897,0.711-11.841c-0.061-6.869-0.454-13.735-0.71-20.602
			c-0.023-0.631-0.061-1.261-0.1-2.051c-6.288,0.312-12.487,0.619-18.801,0.933c0,0.713-0.019,1.384,0.004,2.055
			c0.1,2.955,0.245,5.909,0.298,8.865c0.015,0.789,0.267,1.039,1.02,1.271c3.139,0.967,5.786,2.679,7.58,5.519
			c1.425,2.254,1.551,4.564,0.216,6.905c-1.215,2.132-2.845,3.891-5.053,4.972c-1.224,0.6-2.599,0.893-4.043,1.37
			c-0.098,3.95-0.893,8.051-0.221,12.037c3.585,0,7.018-0.002,10.449,0C139.083,196.564,141.907,196.482,144.876,195.723z
			 M77.558,104.174c7.393,0,14.57,0,21.764,0c0.871-3.128,0.584-6.223,0.509-9.278c-3.507-1.038-4.702-1.836-6.151-4.131
			c-0.404-0.64-0.666-1.378-1.117-1.978c-1.601-2.126-1.244-4.287-0.282-6.519c0.688-1.594,1.541-3.058,2.786-4.288
			c1.273-1.257,2.813-2.059,4.562-2.712c-0.499-3.188-0.81-6.359,0.013-9.625c-7.489,0-14.863,0-22.32,0
			C78.195,78.486,77.812,91.291,77.558,104.174z M122.239,103.718c0.22-12.766,0.85-25.396,0.562-38.158
			c-7.019,0.386-13.876-0.561-20.813,0.332c0,1.611,0,3.083,0,4.555c0,1.469,0,2.938,0,4.367c1.73,0.711,3.528,1.432,5.309,2.195
			c0.316,0.136,0.582,0.422,0.83,0.679c1.768,1.83,2.488,4.097,2.427,6.563c-0.063,2.567-0.706,5.118-2.557,6.926
			c-1.575,1.54-3.323,3.125-5.813,3.267c0.156,3.131-0.092,6.198,0.467,9.274C109.166,103.718,115.589,103.718,122.239,103.718z
			 M53.136,110.095c5.63,1.538,8.514,4.855,8.782,10.009c0.261,5.031-1.93,7.686-8.533,10.301c0.135,6.92,0.27,13.855,0.407,20.887
			c7.433,0.713,14.712-0.641,22.021,0.004c0-1.502,0-2.841,0-4.115c-1.845-0.664-3.637-1.214-5.352-1.947
			c-3.579-1.529-4.507-4.59-4.148-7.469c0.381-3.057,1.846-5.638,4.228-7.557c1.401-1.129,3.076-1.919,4.755-2.938
			c-0.173-6.593-0.353-13.443-0.529-20.155c-7.238,0-14.409,0-21.629,0C53.136,108.254,53.136,109.189,53.136,110.095z"/>
		<path style="fill-rule:evenodd;clip-rule:evenodd;" d="M78.492,12.477c0,1.417,0,2.698,0,4.151c0.81,0,1.641-0.03,2.468,0.01
			c0.675,0.033,1.354,0.112,2.018,0.241c0.729,0.141,1.236,0.577,1.313,1.36c0.073,0.738-0.21,1.352-0.846,1.733
			c-0.992,0.596-2.073,0.803-3.225,0.602c-0.346-0.061-0.698-0.092-1.018-0.133c-0.688,1.32-0.681,1.971,0.002,3.326
			c1.223-0.062,2.457-0.214,3.681-0.158c1.023,0.047,2.049,0.286,3.045,0.546c0.436,0.114,0.856,0.438,1.189,0.764
			c0.572,0.559,0.584,1.266,0.346,2.003c-0.231,0.715-0.859,0.676-1.384,0.689c-2.039,0.052-4.079,0.046-6.118,0.059
			c-0.68,0.004-1.366-0.059-2.038,0.012c-1.605,0.168-2.07-0.388-2.327-2.017c-0.098-0.625-0.135-1.287-0.047-1.911
			c0.465-3.333-0.02-6.616-0.406-9.911c-0.148-1.267-0.153-2.551-0.234-3.826c-0.052-0.817,0.296-1.181,1.13-1.122
			c1.633,0.116,3.267,0.206,4.902,0.298c1.435,0.082,2.87,0.202,4.306,0.209c0.938,0.005,1.467,0.513,1.916,1.206
			c0.491,0.759,0.38,1.561-0.041,2.269c-0.146,0.244-0.675,0.4-1.008,0.369c-1.627-0.155-3.246-0.404-4.872-0.584
			C80.381,12.566,79.508,12.542,78.492,12.477z"/>
		<path style="fill-rule:evenodd;clip-rule:evenodd;" d="M99.724,13.079c-1.14-0.112-2.152-0.26-3.169-0.299
			c-1.316-0.05-2.639,0.037-3.953-0.027c-1.291-0.063-2.217-0.783-2.457-1.752c-0.13-0.526-0.086-0.998,0.543-1.112
			c1.128-0.206,2.266-0.504,3.398-0.505c2.234-0.001,4.469,0.172,6.702,0.278c0.49,0.023,1.066-0.094,1.454,0.122
			c1.669,0.93,1.685,1.143,1.186,3.039c-0.324,1.232-0.577,2.488-0.775,3.747c-0.223,1.402-0.019,1.608,1.373,1.707
			c1.223,0.087,1.782,0.767,1.628,1.977c-0.143,1.118-0.479,1.357-1.626,1.234c-0.825-0.089-1.656-0.129-2.745-0.21
			c-0.271,1.24-0.562,2.544-0.843,3.85c-0.234,1.089-0.383,2.203-0.709,3.263c-0.381,1.239-0.445,1.216-1.692,0.958
			c-0.233-0.048-0.472-0.066-0.738-0.102c-0.595-1.039-0.544-2.152-0.354-3.255c0.208-1.218,0.501-2.421,0.753-3.631
			c0.265-1.27,0.038-1.582-1.272-1.688c-0.955-0.078-1.916-0.083-2.869-0.181c-1.008-0.104-1.574-0.662-1.596-1.464
			c-0.021-0.898,0.607-1.576,1.635-1.662c1.354-0.114,2.714-0.25,4.068-0.224c0.984,0.019,1.379-0.46,1.552-1.284
			C99.387,15.041,99.518,14.217,99.724,13.079z"/>
		<path style="fill-rule:evenodd;clip-rule:evenodd;" d="M104.436,48.257c-1.707,0.195-3.302,0.377-5.018,0.573
			c-0.084-0.949-0.153-1.743-0.227-2.565c1.908-0.225,3.605-0.445,5.31-0.616c0.551-0.055,1.12-0.031,1.671,0.042
			c1.275,0.168,2.007,0.94,2.061,2.234c0.043,1.036-0.054,2.077-0.029,3.114c0.025,1.136,0.119,2.27,0.197,3.651
			c-0.56,0.147-1.379,0.363-2.31,0.608c-0.34-0.676-0.651-1.297-0.949-1.888c-0.985,0.153-1.96,0.411-2.938,0.437
			c-4.418,0.117-8.013-2.993-8.594-7.371c-0.193-1.462-0.465-2.904,0.643-4.215c1.457-1.728,3.126-3.065,5.39-3.53
			c2.237-0.459,4.076,0.221,5.569,1.928c0.65,0.744,0.778,1.538,0.328,2.484c-0.966,0.179-1.746-0.266-2.234-0.992
			c-1.002-1.488-2.352-1.301-3.721-0.903c-2.068,0.603-3.081,2.208-3.489,4.188c-0.328,1.59-0.202,3.195,0.594,4.657
			c0.205,0.376,0.599,0.791,0.988,0.902c1.679,0.477,3.392,0.521,5.046-0.119C103.753,50.477,104.463,49.771,104.436,48.257z"/>
		<path style="fill-rule:evenodd;clip-rule:evenodd;" d="M71.987,53.384c0.106-0.66,0.245-1.122,0.243-1.583
			c-0.009-1.949-0.042-3.898-0.1-5.846c-0.051-1.71-0.142-3.419-0.222-5.128c-0.032-0.669,0.276-1.12,0.817-1.489
			c0.52-0.354,0.991-0.781,1.69-1.343c2.105,0.612,4.446,1.136,6.668,1.976c3.467,1.31,5.342,4.096,5.284,7.507
			c-0.008,0.479-0.182,1.037-0.469,1.414c-2.504,3.292-5.909,4.941-9.986,5.103C74.643,54.044,73.352,53.61,71.987,53.384z
			 M75.589,51.67c1.703-0.628,3.314-1.172,4.885-1.814c1.756-0.718,2.713-1.996,2.609-3.989c-0.101-1.92-1.286-2.917-2.899-3.553
			c-1.772-0.699-3.621-0.867-5.62-0.646C74.274,45.063,74.282,48.396,75.589,51.67z"/>
		<path style="fill-rule:evenodd;clip-rule:evenodd;" d="M25.38,53.129c-0.275-5.128-1.833-9.978-1.309-15.096
			c2.87-0.705,5.732-1.379,8.716-0.742c1.387,0.296,1.481,0.457,1.13,1.874c-0.124,0.499-0.247,0.998-0.364,1.468
			c-1.475,0-2.902-0.001-4.33,0.001c-0.239,0-0.48,0.006-0.718,0.029c-1.936,0.187-2.297,0.78-1.651,2.799
			c1.294-0.099,2.644-0.507,3.912,0.264c0,0.739,0,1.444,0,2.363c-0.84,0.111-1.685,0.246-2.534,0.329
			c-1.171,0.115-1.395,0.376-1.181,1.531c0.123,0.664,0.274,1.321,0.436,2.09c2.481,0,5.005,0,7.696,0
			c-0.065,0.87-0.123,1.64-0.192,2.56C31.839,53.16,28.67,53.111,25.38,53.129z"/>
		<path style="fill-rule:evenodd;clip-rule:evenodd;" d="M46.756,53.866c-1.426-0.415-1.843-0.965-1.458-2.169
			c0.312-0.975,0.718-1.969,1.308-2.794c1.643-2.296,2.783-4.825,3.796-7.434c0.315-0.812,0.797-1.56,1.124-2.37
			c0.314-0.779,0.823-1.005,1.703-0.747c1.108,3.929,3.607,7.254,5.362,10.949c0.629,1.325,1.162,2.695,1.707,3.969
			c-1.341,1.72-2.744,1.148-3.426-0.162c-0.46-0.883-0.896-1.779-1.303-2.688c-0.206-0.458-0.467-0.697-0.997-0.638
			c-1.149,0.129-2.306,0.195-3.452,0.343C48.858,50.417,47.014,51.243,46.756,53.866z M51.991,44.029
			c-0.587,1.23-1.155,2.421-1.797,3.767c1.488,0.115,2.691,0.264,3.907-0.397C53.484,46.17,53.778,44.481,51.991,44.029z"/>
		<path style="fill-rule:evenodd;clip-rule:evenodd;" d="M126.871,47.123c-2.096,0.223-3.866,0.412-5.787,0.617
			c-0.057,0.558-0.144,1.139-0.167,1.722c-0.021,0.517,0.029,1.037,0.045,1.556c0.063,2.03-0.153,2.222-2.395,2.016
			c-0.244-4.901-0.488-9.819-0.733-14.748c0.23,0,0.356-0.027,0.467,0.004c2.788,0.768,2.216,0.363,2.256,2.871
			c0.02,1.226,0.003,2.453,0.003,3.768c1.965,0,3.743,0,5.602,0c0.904-1.953-0.319-4.183,0.684-6.277
			c1.371,0.904,2.329,2.085,2.475,3.648c0.15,1.611,0.066,3.258-0.065,4.878c-0.125,1.538-0.065,3.01,0.47,4.475
			c0.489,1.339-0.389,2.647-1.649,2.643c-0.568-0.002-0.975-0.217-1.085-0.729c-0.165-0.765-0.292-1.555-0.294-2.335
			C126.691,49.928,126.8,48.626,126.871,47.123z"/>
		<path style="fill-rule:evenodd;clip-rule:evenodd;" d="M141.225,39.036c0.982-0.054,1.889-0.116,2.797-0.15
			c2.075-0.079,4.153-0.099,6.224-0.24c0.635-0.043,0.908,0.222,1.077,0.685c0.135,0.366,0.162,0.778,0.195,1.174
			c0.068,0.823-0.312,1.286-1.154,1.321c-0.837,0.035-1.674,0.07-2.512,0.078c-1.392,0.013-2.784,0.003-4.33,0.003
			c0.054,1.136,0.106,2.252,0.166,3.527c0.873,0,1.85,0.046,2.82-0.01c1.758-0.101,1.879-0.021,2.001,1.772
			c0.021,0.312,0.003,0.625,0.003,1.167c-1.143,0-2.239,0.064-3.324-0.018c-1.087-0.083-1.661,0.439-1.475,1.545
			c0.085,0.502,0.237,0.992,0.396,1.638c1.231-0.069,2.461-0.1,3.684-0.215c1.799-0.169,3.482,0.07,5.062,1.123
			c-0.618,0.972-1.584,1.296-2.485,1.331c-2.7,0.104-5.406,0.037-8.351,0.037C141.756,48.926,141.496,44.08,141.225,39.036z"/>
		<path style="fill-rule:evenodd;clip-rule:evenodd;fill:none;" d="M53.529,197.178c0.141-7.125,0.335-14.189,0.405-21.254
			c0.07-7.067,0.016-14.137,0.016-21.451c7.396,0,14.842,0,22.448,0c-0.185,13.932,0.929,28.085-0.749,42.07
			C68.167,196.758,60.808,196.969,53.529,197.178z"/>
		<path style="fill-rule:evenodd;clip-rule:evenodd;fill:none;" d="M100.51,153.807c0.102,1.3,0.283,2.564,0.285,3.829
			c0.018,7.755,0.029,15.51-0.027,23.265c-0.035,4.995-0.188,9.989-0.297,14.983c-0.008,0.347-0.092,0.692-0.13,0.966
			c-7.154,0-14.209,0-21.454,0c-0.062-2.115-0.178-4.098-0.166-6.079c0.039-6.675,0.178-13.351,0.167-20.025
			c-0.006-3.393-0.303-6.784-0.368-10.179c-0.04-2.068,0.112-4.142,0.179-6.258C85.94,154.142,93.113,153.977,100.51,153.807z"/>
		<path style="fill-rule:evenodd;clip-rule:evenodd;fill:none;" d="M123.59,150.506c-6.807,0.41-13.373,1.075-20.151,0.483
			c-0.444-14.89-0.87-29.8-0.88-44.899c6.583-0.173,13.037-0.343,19.556-0.515C122.607,120.598,123.099,135.535,123.59,150.506z"/>
		<path style="fill-rule:evenodd;clip-rule:evenodd;fill:none;" d="M126.078,150.52c-0.84-14.924-1.558-29.713-1.406-44.689
			c6.559-0.361,13.008-0.3,19.616-0.283c0,0.624-0.007,1.129,0.002,1.634c0.079,5.075,0.129,10.151,0.25,15.225
			c0.163,6.83,0.408,13.657,0.561,20.486c0.045,2.035-0.117,4.073-0.157,6.11c-0.015,0.714-0.226,1.073-1.036,1.104
			c-4.509,0.178-9.015,0.438-13.524,0.6C128.995,150.758,127.6,150.593,126.078,150.52z"/>
		<path style="fill-rule:evenodd;clip-rule:evenodd;fill:none;" d="M78.568,147.439c3.534-0.215,5.571-2.312,6.789-5.32
			c1.338-3.307,1.498-6.686,0.086-10.027c-1.159-2.742-3.185-4.434-6.189-4.855c-0.433-0.061-0.861-0.149-1.416-0.248
			c0-6.637,0-13.29,0-20.118c7.327,0.24,14.593-0.892,22.101-0.216c0.27,14.777,0.537,29.5,0.807,44.408
			c-0.793,0-1.455-0.006-2.117,0.002c-4.476,0.045-8.951,0.115-13.428,0.133c-1.917,0.008-3.834-0.088-5.751-0.139
			c-0.924-0.025-1.157-0.266-1.109-1.258C78.376,149.048,78.482,148.299,78.568,147.439z"/>
		<path style="fill-rule:evenodd;clip-rule:evenodd;fill:none;" d="M53.311,66.178c7.233-0.116,14.329-0.23,21.47-0.346
			c1.541,12.847,0.562,25.555,0.041,38.413c-7.196-0.13-14.286,0.658-21.475-0.011C52.277,91.553,53.239,78.942,53.311,66.178z"/>
		<path style="fill-rule:evenodd;clip-rule:evenodd;fill:none;" d="M51.147,197.562c-1.927,0-3.711-0.029-5.494,0.007
			c-3.314,0.067-6.626,0.199-9.94,0.247c-1.067,0.016-2.137-0.147-3.294-0.235c0-1.009,0.015-1.954-0.002-2.899
			c-0.143-7.548-0.367-15.096-0.414-22.645c-0.034-5.55,0.162-11.102,0.253-16.652c0.006-0.388,0.001-0.775,0.001-1.261
			c6.055,0,12.129,0,18.313,0C51.793,168.664,50.939,183.064,51.147,197.562z"/>
		<path style="fill-rule:evenodd;clip-rule:evenodd;fill:none;" d="M103.248,153.814c6.885-0.137,13.666-0.271,20.556-0.408
			c0.505,4.106,0.262,8.126,0.331,12.282c-3.005,0.308-5.504,1.455-7.111,4.071c-1.197,1.948-1.516,4.09-1.335,6.333
			c0.332,4.142,2.929,6.703,8.225,7.998c-0.104,4.152-0.207,8.338-0.315,12.692c-6.971,0.15-13.867,0.298-20.922,0.449
			C102.868,182.651,103.058,168.252,103.248,153.814z M112.168,169.043c0.729-0.525,1.433-0.787,1.686-1.279
			c0.306-0.593-0.08-1.37-0.723-1.571c-1.365-0.428-1.492-1.325-1.236-2.491c0.042-0.189,0.066-0.431-0.016-0.588
			c-0.136-0.263-0.328-0.604-0.566-0.674c-0.225-0.066-0.684,0.098-0.787,0.294c-0.309,0.586-0.551,1.223-0.715,1.866
			c-0.393,1.541-0.435,1.587-2.046,1.196c0.125-0.777,0.31-1.556,0.362-2.342c0.08-1.188,0.098-2.383,0.072-3.572
			c-0.006-0.228-0.303-0.573-0.527-0.632c-0.171-0.045-0.57,0.231-0.643,0.442c-0.676,1.963-1.227,3.962-1.141,6.064
			c0.084,2.037,0.965,2.972,2.951,3.238c0.227,0.03,0.451,0.079,0.803,0.142c-0.033,0.744-0.107,1.451-0.086,2.154
			c0.021,0.71-0.008,1.479,0.262,2.103c0.17,0.391,0.849,0.561,1.299,0.829c0.164-0.317,0.424-0.619,0.477-0.955
			C111.829,171.778,112.005,170.279,112.168,169.043z"/>
		<path style="fill-rule:evenodd;clip-rule:evenodd;fill:none;" d="M144.632,65.604c0,12.598,0,25.018,0,37.613
			c-6.666,0-13.194,0-19.919,0c0.289-12.421,0.58-24.945,0.875-37.613C132.032,65.604,138.247,65.604,144.632,65.604z"/>
		<path style="fill-rule:evenodd;clip-rule:evenodd;fill:none;" d="M50.68,104.259c-6.704-0.231-13.132,0.796-19.661-0.332
			c0.087-1.351,0.215-2.687,0.251-4.025c0.107-3.989,0.234-7.979,0.25-11.969c0.025-6.192-0.051-12.385-0.045-18.578
			c0.001-1.105,0.188-2.21,0.294-3.365c6.371,0.073,12.658,0.146,18.911,0.218C50.68,78.979,50.68,91.535,50.68,104.259z"/>
		<path style="fill-rule:evenodd;clip-rule:evenodd;fill:none;" d="M50.621,151.354c-6.262,0-12.327,0-18.3,0
			c-0.129-0.221-0.198-0.284-0.199-0.349c-0.229-9.108-0.471-18.218-0.672-27.327c-0.112-5.075-0.156-10.152-0.23-15.228
			c-0.006-0.392-0.001-0.784-0.001-1.226c2.35-0.413,4.607-0.297,6.876-0.204c3.789,0.156,7.583,0.467,11.368-0.052
			c0.61-0.083,0.964,0.098,1.005,0.683c0.044,0.626-0.055,1.261-0.024,1.889c0.042,0.895-0.718,0.938-1.235,1.241
			c-2.955,1.731-4.529,4.42-5.267,7.663c-0.431,1.896-0.445,3.818,0.074,5.696c0.95,3.438,3.19,5.529,6.891,6.165
			C50.811,137.352,50.716,144.365,50.621,151.354z M33.232,119.456c2.312,0.825,4.465,0.963,6.67,0.642
			c0.555-0.08,0.624-0.406,0.592-0.84c-0.052-0.712-0.608-0.885-1.158-1.025c-0.489-0.125-0.992-0.195-1.578-0.307
			c0.18-0.566,0.354-1.007,0.457-1.463c0.312-1.395,0.668-2.786,0.875-4.198c0.366-2.494-2.217-3.46-3.936-2.722
			c-1.333,0.572-1.688,1.689-0.93,2.96c0.596-0.231,1.173-0.516,1.782-0.677c0.967-0.255,1.25,0.041,1.106,1.029
			c-0.207,1.43-0.881,2.626-1.773,3.738C34.623,117.485,33.978,118.436,33.232,119.456z"/>
		<path style="fill-rule:evenodd;clip-rule:evenodd;fill:none;" d="M144.876,195.723c-2.969,0.76-5.793,0.842-8.626,0.841
			c-3.432-0.002-6.864,0-10.449,0c-0.672-3.986,0.123-8.087,0.221-12.037c1.444-0.478,2.819-0.771,4.043-1.37
			c2.208-1.081,3.838-2.84,5.053-4.972c1.335-2.341,1.209-4.651-0.216-6.905c-1.794-2.84-4.441-4.552-7.58-5.519
			c-0.753-0.232-1.005-0.482-1.02-1.271c-0.053-2.956-0.198-5.91-0.298-8.865c-0.022-0.671-0.004-1.342-0.004-2.055
			c6.313-0.313,12.513-0.621,18.801-0.933c0.039,0.79,0.076,1.42,0.1,2.051c0.256,6.866,0.649,13.732,0.71,20.602
			c0.035,3.943-0.541,7.89-0.711,11.841C144.778,189.957,144.876,192.794,144.876,195.723z"/>
		<path style="fill-rule:evenodd;clip-rule:evenodd;fill:none;" d="M77.558,104.174c0.253-12.883,0.637-25.688-0.237-38.531
			c7.457,0,14.831,0,22.32,0c-0.822,3.267-0.512,6.437-0.013,9.625c-1.749,0.653-3.289,1.455-4.562,2.712
			c-1.245,1.23-2.098,2.693-2.786,4.288c-0.962,2.232-1.318,4.393,0.282,6.519c0.451,0.6,0.713,1.338,1.117,1.978
			c1.449,2.295,2.645,3.093,6.151,4.131c0.075,3.056,0.362,6.15-0.509,9.278C92.128,104.174,84.951,104.174,77.558,104.174z
			 M89.819,82.153c-0.123-1.138-0.274-2.159-0.335-3.186c-0.1-1.675-0.123-3.354-0.209-5.029c-0.057-1.08-0.298-2.113-0.985-3.082
			c-2.893,1.519-4.828,3.911-6.669,6.503c0.445,0.41,0.837,0.77,1.258,1.157c1.259-1.213,2.427-2.338,3.755-3.619
			c0.432,2.715,0.051,5.332,1.194,7.864C88.517,82.551,89.179,82.349,89.819,82.153z"/>
		<path style="fill-rule:evenodd;clip-rule:evenodd;fill:none;" d="M122.239,103.718c-6.65,0-13.073,0-19.589,0
			c-0.559-3.076-0.311-6.143-0.467-9.274c2.49-0.143,4.238-1.728,5.813-3.267c1.851-1.809,2.493-4.359,2.557-6.926
			c0.062-2.466-0.659-4.733-2.427-6.563c-0.248-0.257-0.514-0.543-0.83-0.679c-1.78-0.763-3.578-1.484-5.309-2.195
			c0-1.43,0-2.898,0-4.367c0-1.472,0-2.944,0-4.555c6.938-0.893,13.795,0.054,20.813-0.332
			C123.089,78.322,122.459,90.952,122.239,103.718z"/>
		<path style="fill-rule:evenodd;clip-rule:evenodd;fill:none;" d="M53.136,110.095c0-0.906,0-1.84,0-2.98c7.22,0,14.392,0,21.629,0
			c0.176,6.712,0.356,13.562,0.529,20.155c-1.679,1.019-3.354,1.809-4.755,2.938c-2.381,1.919-3.846,4.5-4.228,7.557
			c-0.359,2.879,0.569,5.939,4.148,7.469c1.715,0.733,3.507,1.283,5.352,1.947c0,1.274,0,2.613,0,4.115
			c-7.309-0.645-14.587,0.709-22.021-0.004c-0.137-7.031-0.272-13.967-0.407-20.887c6.603-2.615,8.794-5.27,8.533-10.301
			C61.65,114.95,58.766,111.633,53.136,110.095z M60.579,137.716c-0.517,0.147-1.116,0.159-1.468,0.461
			c-0.367,0.314-0.614,0.888-0.7,1.385c-0.117,0.677,0.521,0.677,0.979,0.763c0.391,0.072,0.8,0.072,1.179,0.182
			c0.287,0.083,0.743,0.263,0.766,0.445c0.08,0.616,0.208,1.389-0.087,1.836c-0.21,0.32-1.085,0.339-1.631,0.263
			c-0.481-0.067-0.894-0.54-1.38-0.669c-0.365-0.098-0.899-0.059-1.168,0.158c-0.187,0.149-0.178,0.766-0.029,1.057
			c0.185,0.361,0.56,0.759,0.932,0.867c1.139,0.33,2.311,0.555,3.481,0.756c0.202,0.035,0.493-0.217,0.683-0.398
			c1.525-1.455,1.931-4.125,0.863-5.957c-0.302-0.518-0.428-0.965-0.295-1.565c0.361-1.628-0.265-3-1.804-3.596
			c-0.855-0.331-1.863-0.452-2.785-0.392c-2.062,0.134-2.942,1.865-1.935,3.961c1.169-0.685,2.326-1.361,3.552-2.08
			C60.213,136.127,61.056,136.693,60.579,137.716z"/>
		<path style="fill-rule:evenodd;clip-rule:evenodd;fill:none;" d="M75.589,51.67c-1.307-3.274-1.315-6.606-1.025-10.002
			c1.999-0.221,3.847-0.053,5.62,0.646c1.613,0.636,2.799,1.633,2.899,3.553c0.104,1.993-0.853,3.271-2.609,3.989
			C78.904,50.498,77.292,51.042,75.589,51.67z"/>
		<path style="fill-rule:evenodd;clip-rule:evenodd;fill:none;" d="M51.991,44.029c1.787,0.453,1.493,2.141,2.11,3.369
			c-1.216,0.662-2.419,0.512-3.907,0.397C50.835,46.45,51.404,45.259,51.991,44.029z"/>
		<path style="fill-rule:evenodd;clip-rule:evenodd;" d="M112.168,169.043c-0.163,1.236-0.339,2.735-0.574,4.225
			c-0.053,0.336-0.312,0.638-0.477,0.955c-0.45-0.269-1.129-0.438-1.299-0.829c-0.27-0.623-0.241-1.393-0.262-2.103
			c-0.021-0.703,0.053-1.41,0.086-2.154c-0.352-0.062-0.576-0.111-0.803-0.142c-1.986-0.267-2.867-1.201-2.951-3.238
			c-0.086-2.103,0.465-4.102,1.141-6.064c0.072-0.211,0.472-0.487,0.643-0.442c0.225,0.059,0.521,0.404,0.527,0.632
			c0.025,1.189,0.008,2.384-0.072,3.572c-0.053,0.786-0.237,1.564-0.362,2.342c1.611,0.391,1.653,0.345,2.046-1.196
			c0.164-0.644,0.406-1.28,0.715-1.866c0.104-0.196,0.562-0.36,0.787-0.294c0.238,0.07,0.431,0.411,0.566,0.674
			c0.082,0.157,0.058,0.398,0.016,0.588c-0.256,1.166-0.129,2.063,1.236,2.491c0.643,0.201,1.028,0.979,0.723,1.571
			C113.601,168.256,112.896,168.518,112.168,169.043z"/>
		<path style="fill-rule:evenodd;clip-rule:evenodd;" d="M33.232,119.456c0.746-1.021,1.391-1.971,2.107-2.864
			c0.893-1.112,1.567-2.308,1.773-3.738c0.143-0.988-0.139-1.284-1.106-1.029c-0.609,0.161-1.186,0.446-1.782,0.677
			c-0.758-1.271-0.402-2.389,0.93-2.96c1.719-0.738,4.302,0.228,3.936,2.722c-0.208,1.412-0.563,2.803-0.875,4.198
			c-0.103,0.457-0.277,0.897-0.457,1.463c0.586,0.111,1.089,0.182,1.578,0.307c0.549,0.141,1.105,0.313,1.158,1.025
			c0.032,0.434-0.037,0.76-0.592,0.84C37.697,120.419,35.545,120.281,33.232,119.456z"/>
		<path style="fill-rule:evenodd;clip-rule:evenodd;" d="M89.819,82.153c-0.641,0.196-1.302,0.398-1.991,0.609
			c-1.143-2.532-0.762-5.149-1.194-7.864c-1.329,1.281-2.497,2.406-3.755,3.619c-0.421-0.388-0.813-0.748-1.258-1.157
			c1.842-2.593,3.777-4.985,6.669-6.503c0.688,0.969,0.929,2.002,0.985,3.082c0.086,1.675,0.109,3.354,0.209,5.029
			C89.545,79.994,89.696,81.015,89.819,82.153z"/>
		<path style="fill-rule:evenodd;clip-rule:evenodd;" d="M60.579,137.716c0.477-1.022-0.366-1.589-0.846-2.524
			c-1.226,0.719-2.382,1.396-3.552,2.08c-1.007-2.096-0.127-3.827,1.935-3.961c0.921-0.061,1.929,0.061,2.785,0.392
			c1.539,0.596,2.165,1.968,1.804,3.596c-0.133,0.601-0.007,1.048,0.295,1.565c1.067,1.832,0.662,4.502-0.863,5.957
			c-0.19,0.182-0.481,0.434-0.683,0.398c-1.17-0.201-2.342-0.426-3.481-0.756c-0.373-0.108-0.747-0.506-0.932-0.867
			c-0.149-0.291-0.158-0.907,0.029-1.057c0.269-0.217,0.803-0.256,1.168-0.158c0.487,0.129,0.899,0.602,1.38,0.669
			c0.546,0.076,1.42,0.058,1.631-0.263c0.294-0.447,0.167-1.22,0.087-1.836c-0.023-0.183-0.479-0.362-0.766-0.445
			c-0.379-0.109-0.788-0.109-1.179-0.182c-0.458-0.086-1.096-0.086-0.979-0.763c0.086-0.497,0.333-1.07,0.7-1.385
			C59.463,137.875,60.062,137.863,60.579,137.716z"/>
	</g>
</g>
<g id="Layer_1">
</g>
</svg>
