<?xml version="1.0" encoding="UTF-8" standalone="no"?>
<!DOCTYPE svg PUBLIC "-//W3C//DTD SVG 1.1//EN" "http://www.w3.org/Graphics/SVG/1.1/DTD/svg11.dtd">
<svg width="100%" height="100%" viewBox="0 0 963 1280" version="1.1" xmlns="http://www.w3.org/2000/svg" xmlns:xlink="http://www.w3.org/1999/xlink" xml:space="preserve" xmlns:serif="http://www.serif.com/" style="fill-rule:evenodd;clip-rule:evenodd;stroke-linejoin:round;stroke-miterlimit:2;">
    <g transform="matrix(1.23332,0,0,1.23332,489.873,460.138)">
        <g id="G-" serif:id="G+" transform="matrix(1,0,0,1,-336.5,-512.5)">
            <g transform="matrix(0.1,0,0,-0.1,0,1025)">
                <path d="M2824,8516C2756,8484 2717,8441 2669,8343C2620,8243 2616,8198 2645,8096C2670,8011 2689,7988 2770,7948C2807,7929 2832,7925 2907,7925C2967,7925 3003,7929 3012,7938C3030,7956 3060,7953 3060,7932C3060,7922 3055,7909 3050,7904C3043,7897 3047,7887 3060,7872C3087,7844 3096,7844 3125,7876C3145,7898 3149,7912 3150,7978C3150,8020 3151,8096 3152,8145C3155,8273 3145,8301 3093,8315C3074,8319 3064,8316 3054,8302C3043,8287 3024,8282 2949,8277C2898,8274 2854,8267 2849,8263C2831,8244 2832,8191 2851,8171C2868,8153 2873,8152 2902,8164C2920,8172 2959,8180 2988,8182L3040,8187L3040,8134C3040,8104 3041,8077 3042,8073C3045,8055 2989,8028 2937,8023C2861,8015 2802,8038 2755,8093C2702,8155 2692,8198 2713,8279C2739,8378 2799,8430 2920,8458C2957,8467 2969,8466 2988,8454C3010,8440 3013,8440 3026,8457C3081,8530 2942,8571 2824,8516Z" style="fill-rule:nonzero;"/>
                <path d="M3422,8447C3404,8428 3400,8412 3400,8362L3400,8300L3358,8299C3297,8298 3266,8287 3262,8266C3256,8238 3275,8227 3327,8228C3353,8229 3381,8226 3388,8222C3395,8217 3408,8187 3417,8154C3437,8082 3445,8070 3476,8070C3500,8070 3500,8071 3495,8150L3490,8229L3548,8236C3592,8241 3609,8248 3623,8267C3656,8311 3640,8322 3555,8314L3480,8307L3480,8373C3480,8419 3475,8443 3464,8454C3445,8474 3448,8474 3422,8447Z" style="fill-rule:nonzero;"/>
                <path d="M1476,7623C1472,7619 1424,7615 1367,7614C1259,7611 1235,7608 1224,7597C1220,7593 1209,7590 1199,7590C1182,7590 1181,7580 1185,7473C1189,7346 1199,7261 1217,7190C1220,7178 1225,7134 1229,7073C1230,7064 1260,7062 1343,7065C1485,7069 1562,7079 1557,7094C1555,7100 1557,7117 1561,7132C1566,7149 1564,7162 1557,7168C1542,7179 1417,7181 1369,7171C1324,7161 1317,7165 1302,7209C1278,7278 1283,7287 1350,7295C1383,7299 1411,7307 1412,7313C1423,7394 1408,7413 1336,7407C1277,7402 1270,7408 1270,7456C1270,7472 1276,7480 1288,7481C1304,7482 1314,7484 1335,7490C1341,7491 1379,7492 1421,7491C1503,7490 1515,7496 1524,7543C1526,7558 1531,7574 1534,7578C1540,7589 1485,7631 1476,7623Z" style="fill-rule:nonzero;"/>
                <path d="M2133,7568C2120,7562 2102,7534 2089,7501C2077,7470 2061,7438 2054,7430C2047,7422 2040,7411 2039,7405C2035,7383 2015,7343 1988,7303C1973,7280 1960,7257 1960,7252C1960,7247 1949,7223 1935,7199C1904,7144 1888,7109 1884,7090C1881,7073 1918,7030 1936,7030C1947,7030 1990,7106 1990,7125C1990,7148 2024,7160 2087,7160C2124,7160 2169,7164 2187,7169C2224,7180 2260,7160 2260,7130C2260,7120 2267,7104 2276,7096C2284,7087 2289,7080 2285,7080C2282,7080 2286,7067 2295,7050C2315,7011 2356,7009 2390,7045C2411,7068 2412,7072 2400,7097C2392,7113 2379,7133 2372,7142C2364,7152 2360,7171 2362,7185C2366,7203 2360,7217 2343,7234C2330,7248 2307,7287 2292,7322C2277,7357 2252,7404 2237,7427C2222,7451 2210,7472 2210,7476C2210,7479 2203,7488 2195,7496C2187,7505 2180,7527 2180,7546C2180,7582 2171,7586 2133,7568ZM2165,7340C2169,7324 2176,7308 2181,7305C2186,7301 2190,7288 2190,7275C2190,7254 2185,7252 2131,7248C2082,7246 2074,7247 2081,7260C2085,7268 2098,7296 2109,7323C2133,7377 2155,7384 2165,7340Z" style="fill-rule:nonzero;"/>
                <path d="M2845,7560C2835,7549 2821,7540 2815,7540C2808,7540 2800,7534 2797,7526C2787,7501 2798,7175 2809,7146C2818,7123 2818,7114 2806,7101C2781,7074 2797,7042 2838,7034C2868,7028 2955,7026 2963,7030C2964,7031 2972,7033 2980,7035C3030,7045 3078,7062 3095,7074C3106,7083 3124,7090 3135,7090C3147,7090 3183,7118 3219,7154C3282,7217 3283,7219 3283,7273C3283,7312 3276,7339 3262,7362C3227,7418 3129,7504 3070,7529C3040,7542 3008,7556 3000,7560C2992,7564 2963,7567 2937,7567C2911,7567 2887,7570 2883,7574C2873,7584 2864,7581 2845,7560ZM3007,7440C3072,7429 3127,7404 3141,7379C3146,7368 3148,7360 3144,7360C3141,7360 3143,7354 3149,7346C3168,7324 3160,7248 3136,7221C3106,7188 3004,7140 2948,7134C2921,7131 2899,7132 2899,7137C2881,7250 2873,7430 2884,7449C2888,7455 2904,7458 2923,7454C2941,7451 2979,7445 3007,7440Z" style="fill-rule:nonzero;"/>
                <path d="M4328,7564C4325,7561 4326,7544 4331,7527C4336,7509 4339,7468 4339,7435C4337,7372 4348,7116 4353,7090C4358,7062 4369,7053 4396,7056C4410,7057 4425,7061 4428,7065C4432,7069 4437,7109 4438,7155L4442,7239L4508,7245C4545,7249 4586,7252 4600,7253L4625,7255L4622,7157C4619,7037 4627,7020 4681,7020C4714,7020 4722,7024 4731,7046C4736,7061 4737,7082 4733,7094C4729,7105 4725,7183 4724,7265C4724,7348 4720,7431 4716,7450C4702,7515 4655,7571 4629,7554C4624,7551 4620,7504 4620,7450C4620,7384 4616,7349 4608,7344C4587,7331 4441,7331 4433,7343C4429,7350 4426,7395 4425,7443C4425,7524 4423,7533 4401,7551C4379,7569 4340,7576 4328,7564Z" style="fill-rule:nonzero;"/>
                <path d="M3665,7534C3604,7502 3544,7446 3523,7402C3503,7360 3511,7272 3539,7224C3551,7205 3560,7183 3560,7177C3560,7154 3645,7077 3695,7054C3751,7028 3806,7028 3877,7053L3919,7069L3922,7032C3925,6998 3928,6995 3957,6992C4007,6987 4028,7003 4026,7045C4024,7064 4020,7083 4017,7087C4013,7090 4010,7130 4010,7174C4010,7219 4004,7266 3997,7280C3978,7319 3928,7326 3807,7309L3705,7295L3709,7265C3715,7210 3724,7202 3772,7211C3830,7222 3890,7222 3890,7211C3890,7206 3883,7194 3874,7186C3866,7177 3862,7170 3867,7170C3871,7170 3859,7160 3840,7149C3787,7116 3640,7118 3640,7151L3640,7165C3640,7168 3634,7183 3625,7200C3617,7216 3610,7253 3610,7282C3611,7388 3671,7462 3759,7466C3799,7468 3810,7464 3840,7436C3884,7394 3905,7387 3924,7406C3945,7427 3929,7464 3877,7518C3838,7558 3833,7560 3775,7560C3730,7560 3703,7554 3665,7534Z" style="fill-rule:nonzero;"/>
                <path d="M5416,7553C5414,7550 5358,7547 5293,7545C5228,7544 5161,7542 5143,7541L5111,7540L5116,7463C5123,7329 5128,7257 5136,7175C5140,7131 5144,7079 5145,7060L5146,7025L5286,7024C5405,7023 5433,7025 5468,7041C5517,7064 5520,7073 5484,7096C5458,7113 5304,7124 5295,7109C5292,7106 5276,7105 5258,7109C5234,7114 5224,7122 5222,7138C5220,7150 5215,7160 5211,7160C5206,7160 5205,7171 5208,7185C5211,7204 5219,7210 5239,7210C5307,7212 5363,7219 5372,7228C5378,7234 5378,7252 5370,7279L5359,7321L5285,7317L5210,7313L5210,7347C5210,7366 5205,7391 5199,7402C5182,7434 5204,7441 5310,7435C5429,7428 5464,7436 5468,7474C5473,7517 5463,7547 5441,7553C5430,7556 5419,7556 5416,7553Z" style="fill-rule:nonzero;"/>
                <path d="M4235,6901C4231,6897 4179,6896 3400,6885C2871,6877 2633,6876 1599,6883L1032,6887L1032,6861C1027,6732 1035,6651 1055,6631C1065,6621 1102,6617 1204,6617L1340,6616L1341,6575C1341,6553 1343,6492 1346,6440C1352,6324 1352,6335 1345,5895C1342,5697 1338,5517 1336,5495C1333,5473 1328,5420 1325,5378C1321,5335 1314,5300 1309,5299C1275,5296 1240,5298 1205,5305C1150,5316 1080,5318 1080,5309C1080,5305 1073,5295 1065,5286C1024,5245 1096,5210 1228,5205C1280,5203 1323,5200 1325,5198C1330,5193 1343,4250 1342,3972C1341,3815 1337,3713 1331,3706C1324,3698 1305,3695 1273,3700C1246,3703 1188,3705 1142,3705C1072,3704 1057,3701 1039,3683C1019,3663 1019,3661 1035,3637L1052,3611L1197,3613C1276,3615 1344,3612 1346,3608C1353,3598 1351,3487 1344,3435C1341,3413 1336,3339 1333,3270L1328,3144L1297,3131C1237,3105 1203,3071 1169,3003C1106,2877 1129,2755 1237,2644C1264,2617 1295,2588 1306,2579C1327,2563 1328,2554 1329,2355C1329,2241 1332,2140 1335,2130C1343,2104 1325,2096 1250,2093C1214,2091 1167,2088 1145,2085C1123,2083 1091,2081 1073,2081C1046,2080 1042,2077 1046,2060C1048,2049 1052,2030 1055,2018C1057,2006 1066,1990 1074,1981C1086,1969 1092,1969 1105,1980C1113,1987 1123,1990 1126,1987C1129,1984 1144,1986 1158,1991C1182,2000 1318,2006 1325,1998C1333,1989 1354,1635 1353,1518C1353,1467 1356,1460 1373,1460C1383,1460 1405,1469 1420,1480L1448,1500L1449,1735C1450,1865 1453,1977 1456,1985C1459,1993 1472,2000 1483,2000C1495,2000 1514,2001 1525,2001C1536,2001 1554,2001 1565,2000C1576,1999 1664,2001 1760,2005C1939,2012 1965,2013 2035,2011L2076,2010L2079,1918C2085,1745 2084,1585 2076,1533L2068,1481L2102,1467C2146,1449 2161,1456 2160,1494C2159,1511 2160,1634 2160,1767L2161,2010L2208,2012C2234,2012 2262,2012 2270,2011C2278,2010 2326,2010 2375,2011C2425,2012 2475,2012 2488,2012C2566,2010 2813,2012 2853,2014C2879,2016 2902,2014 2904,2011C2906,2008 2904,1980 2900,1950C2896,1920 2896,1893 2899,1890C2903,1887 2904,1874 2903,1860C2901,1846 2899,1772 2897,1695C2894,1583 2897,1552 2908,1538C2931,1511 2947,1516 2976,1560C3002,1599 3002,1601 3002,1797C3003,1992 3009,2041 3033,2022C3043,2014 3244,2014 3635,2022L3735,2024L3732,1984C3724,1866 3720,1783 3717,1679C3716,1596 3711,1558 3701,1546C3688,1531 3690,1526 3712,1503C3734,1482 3743,1479 3776,1484L3815,1491L3816,1733C3816,1996 3820,2030 3847,2025C3857,2023 4008,2021 4183,2021L4501,2020L4500,1983C4499,1962 4501,1927 4505,1905C4516,1839 4517,1705 4507,1699C4489,1687 4496,1564 4517,1536C4540,1504 4546,1504 4564,1538C4590,1588 4594,1662 4584,1877L4578,2018L4899,2017C5177,2015 5220,2013 5220,2000C5221,1992 5223,1947 5227,1900C5234,1798 5233,1591 5225,1534C5220,1495 5222,1492 5251,1477C5314,1447 5325,1471 5314,1608C5306,1699 5306,1778 5312,1945L5315,2015L5645,2015L5642,2045C5638,2099 5630,2118 5613,2125C5603,2129 5539,2134 5470,2137C5386,2141 5341,2147 5332,2156C5322,2167 5321,2186 5327,2237C5336,2313 5336,2349 5330,2500L5326,2604L5376,2621C5493,2662 5552,2759 5548,2909C5547,2949 5543,2983 5538,2986C5534,2989 5530,3000 5530,3011C5530,3040 5402,3170 5373,3170C5361,3170 5349,3174 5346,3179C5341,3186 5338,3420 5339,3592L5340,3649L5418,3643C5530,3635 5582,3638 5598,3654C5610,3666 5610,3672 5594,3699L5575,3731L5454,3724L5332,3717L5328,3781C5324,3869 5328,4859 5333,4995C5336,5056 5338,5128 5339,5156C5340,5215 5355,5240 5390,5240C5404,5239 5465,5237 5527,5235C5625,5231 5641,5233 5661,5249C5681,5265 5682,5270 5671,5284C5664,5293 5648,5300 5636,5300C5624,5300 5604,5307 5592,5316C5574,5328 5546,5331 5462,5330C5403,5329 5350,5328 5345,5329C5338,5330 5335,5538 5335,5978L5336,6625L5421,6628C5596,6635 5694,6631 5718,6617C5731,6608 5741,6686 5736,6765C5731,6844 5724,6873 5705,6886C5688,6898 5453,6899 5433,6887C5427,6883 5419,6886 5417,6892C5413,6902 5411,6902 5411,6892C5410,6885 5406,6881 5401,6884C5387,6893 4244,6910 4235,6901ZM3715,6566C3706,6495 3707,6398 3717,6305C3720,6267 3722,6210 3721,6180C3716,6090 3717,5989 3724,5730C3732,5432 3731,5409 3715,5328L3708,5291L3586,5292C3520,5293 3398,5292 3315,5291C3233,5290 3124,5289 3074,5290L2983,5290L2985,5353C2986,5387 2988,5468 2989,5533C2990,5631 2992,5650 3005,5650C3035,5650 3096,5689 3136,5732C3196,5797 3214,5852 3206,5942C3197,6033 3142,6146 3095,6170C3079,6178 3060,6191 3052,6198C3045,6204 3030,6215 3020,6220C2997,6233 2992,6269 2986,6471L2981,6627L3721,6625L3715,6566ZM4490,6614C4497,6606 4494,6044 4486,5875C4482,5793 4479,5632 4478,5519C4478,5372 4475,5313 4466,5311C4437,5306 3828,5306 3824,5311C3815,5326 3809,5610 3809,6010C3809,6571 3809,6611 3814,6619C3819,6627 4482,6621 4490,6614ZM5010,6618C5079,6617 5141,6620 5148,6624C5155,6628 5160,6627 5160,6622C5160,6617 5178,6614 5199,6616L5238,6618L5244,6567C5247,6538 5248,6463 5246,6400C5244,6337 5241,6098 5239,5870C5237,5642 5234,5425 5232,5389L5228,5323L5197,5321C5179,5319 5118,5319 5060,5319C4926,5321 4669,5319 4610,5317L4565,5315L4567,5445C4575,5984 4594,6603 4603,6618C4606,6622 4671,6625 4747,6623C4823,6622 4941,6619 5010,6618ZM2077,6605C2086,6602 2087,6526 2083,6298C2079,6131 2076,5839 2076,5648L2075,5300L2005,5298C1786,5294 1472,5294 1450,5300C1426,5306 1425,5309 1429,5376C1431,5414 1433,5691 1433,5993C1433,6294 1437,6540 1441,6540C1445,6540 1447,6554 1445,6572C1443,6589 1443,6606 1445,6610C1449,6617 2057,6612 2077,6605ZM2901,6593C2902,6577 2904,6486 2906,6390L2910,6215L2858,6196C2799,6176 2730,6116 2701,6059C2676,6011 2679,5891 2708,5828C2732,5776 2807,5699 2859,5673L2897,5654L2893,5484C2891,5391 2888,5310 2885,5303C2882,5295 2786,5292 2523,5293L2165,5295L2162,5460C2158,5701 2159,5923 2166,6200C2175,6582 2175,6589 2186,6600C2195,6609 2277,6612 2708,6618L2900,6620L2901,6593ZM4974,5235L5222,5235L5225,4925C5226,4754 5230,4557 5234,4485C5246,4240 5242,3737 5228,3725C5215,3714 4615,3702 4604,3713C4599,3717 4596,3780 4585,4055C4582,4116 4578,4197 4576,4235C4556,4610 4548,5211 4563,5227C4567,5230 4599,5234 4634,5234C4670,5235 4702,5239 4706,5243C4710,5247 4716,5247 4719,5243C4722,5238 4837,5235 4974,5235ZM4482,5202C4485,5182 4486,5127 4482,5080C4473,4936 4477,4705 4495,4335C4497,4280 4502,4168 4504,4085C4507,4003 4511,3884 4513,3823L4517,3710L4456,3708C4423,3708 4384,3706 4370,3704C4303,3697 3860,3692 3856,3698C3847,3713 3840,3940 3834,4365C3831,4607 3827,4828 3824,4855C3814,4979 3812,5210 3822,5216C3828,5220 3916,5225 4018,5227C4121,5229 4206,5232 4207,5233C4208,5234 4268,5236 4342,5237L4475,5239L4482,5202ZM3731,5145C3731,5107 3733,4963 3735,4825C3737,4688 3742,4406 3745,4200C3748,3994 3751,3799 3753,3767C3754,3735 3752,3706 3747,3703C3742,3700 3684,3699 3617,3700C3550,3702 3486,3702 3475,3702C3361,3697 3024,3702 3017,3709C3009,3717 3005,3810 2994,4325C2988,4605 2987,4735 2989,5036L2990,5197L3038,5199C3064,5200 3167,5202 3268,5204C3368,5206 3452,5209 3454,5211C3457,5213 3519,5215 3594,5215L3730,5216L3731,5145ZM2067,5187C2070,5184 2074,5078 2077,4952L2081,4723L2044,4715C1976,4703 1896,4625 1885,4559C1882,4541 1875,4521 1871,4515C1812,4440 1941,4165 2044,4146L2077,4140L2074,3922C2073,3803 2071,3701 2071,3696C2070,3692 2019,3690 1958,3694C1847,3700 1619,3701 1510,3697L1455,3695L1454,3880C1453,4088 1441,4483 1434,4526C1432,4542 1428,4696 1425,4869C1421,5116 1423,5186 1432,5192C1446,5201 2058,5196 2067,5187ZM2881,5057C2881,4979 2883,4899 2885,4880C2887,4861 2891,4760 2894,4655C2913,4078 2920,3700 2912,3700C2829,3697 2371,3689 2306,3689C2179,3689 2180,3689 2180,3768C2179,3805 2178,3899 2176,3977C2174,4055 2176,4123 2179,4128C2182,4133 2205,4147 2230,4159C2255,4172 2287,4188 2302,4196C2331,4212 2369,4266 2375,4302C2378,4315 2392,4355 2406,4390C2462,4527 2425,4647 2311,4696C2291,4705 2266,4717 2255,4723C2244,4729 2219,4736 2200,4740L2165,4745L2161,5191L2361,5189C2471,5188 2562,5189 2565,5191C2567,5193 2639,5196 2724,5197L2880,5200L2881,5057ZM5239,3583C5238,3557 5241,3453 5245,3353L5253,3171L5219,3157C5145,3125 5070,3037 5061,2972C5035,2788 5101,2641 5216,2628C5240,2626 5245,2620 5247,2595C5248,2568 5237,2468 5225,2400C5218,2358 5218,2318 5225,2235C5231,2172 5229,2152 5219,2143C5210,2136 5098,2130 4892,2127L4579,2121L4585,2288C4588,2380 4593,2496 4596,2545C4600,2595 4603,2853 4605,3120L4607,3605L4703,3606C4755,3607 4802,3610 4807,3612C4811,3614 4869,3617 4934,3618C5000,3620 5055,3622 5057,3623C5058,3625 5100,3627 5150,3629L5241,3631L5239,3583ZM4532,3542C4538,3432 4531,2785 4519,2268L4515,2120L4325,2118C3931,2114 3828,2117 3819,2131C3815,2138 3813,2147 3816,2152C3818,2156 3823,2318 3825,2512C3827,2706 3833,2971 3837,3100C3845,3344 3845,3453 3837,3530C3835,3555 3835,3580 3837,3586C3840,3593 3916,3597 4072,3598C4199,3599 4304,3601 4306,3603C4308,3605 4359,3607 4419,3607L4528,3609L4532,3542ZM2074,3580C2087,3567 2091,3375 2090,2725C2090,2321 2087,2123 2079,2115C2073,2109 2012,2104 1932,2103C1857,2102 1720,2099 1628,2097L1460,2093L1462,2335L1463,2577L1504,2597C1596,2642 1630,2687 1656,2802C1675,2883 1675,2936 1655,2984C1635,3032 1551,3117 1513,3126C1445,3143 1443,3148 1446,3282C1448,3470 1452,3584 1455,3590C1460,3599 2065,3589 2074,3580ZM3752,3545C3753,3515 3751,3490 3747,3490C3742,3490 3742,3484 3747,3478C3760,3456 3764,3124 3755,2817C3752,2714 3747,2543 3744,2437C3740,2332 3738,2218 3739,2184L3739,2124L3377,2124L3015,2125L3014,2670C3013,2970 3011,3298 3009,3400L3006,3585L3281,3590C3432,3593 3598,3596 3652,3597L3748,3600L3752,3545ZM2931,3375C2935,2806 2934,2604 2928,2485C2916,2280 2908,2135 2906,2134C2906,2133 2750,2129 2560,2125C2370,2121 2204,2117 2190,2116C2167,2115 2165,2118 2167,2160C2168,2185 2172,2239 2175,2280C2179,2321 2184,2411 2186,2480C2188,2549 2190,2623 2191,2645C2192,2667 2188,2715 2181,2751C2175,2787 2172,2853 2175,2896C2178,2939 2183,3112 2185,3280C2187,3448 2190,3585 2190,3585L2930,3585L2931,3375ZM4554,3574C4557,3566 4556,3562 4550,3565C4544,3568 4540,3575 4540,3581C4540,3595 4547,3592 4554,3574Z" style="fill-rule:nonzero;"/>
                <path d="M3414,6463C3408,6453 3375,6412 3341,6372C3272,6289 3260,6246 3307,6252C3324,6254 3339,6264 3346,6278C3362,6310 3411,6360 3421,6354C3425,6352 3429,6342 3428,6332C3428,6323 3431,6276 3435,6228C3443,6137 3456,6116 3487,6142C3500,6152 3501,6173 3497,6260C3489,6397 3480,6463 3466,6472C3447,6485 3425,6481 3414,6463Z" style="fill-rule:nonzero;"/>
                <path d="M2569,5036C2535,5007 2511,4945 2527,4929C2543,4913 2569,4925 2580,4954C2593,4990 2624,5004 2644,4984C2653,4976 2660,4964 2660,4958C2660,4944 2618,4871 2573,4808C2531,4747 2530,4724 2571,4716C2627,4705 2775,4709 2788,4722C2808,4742 2802,4770 2778,4771C2765,4772 2751,4773 2745,4775C2740,4776 2709,4778 2678,4778L2621,4780L2649,4823C2729,4941 2735,5011 2669,5045C2630,5066 2599,5063 2569,5036Z" style="fill-rule:nonzero;"/>
                <path d="M1798,3473C1767,3453 1745,3417 1754,3401C1765,3384 1794,3388 1813,3410C1834,3435 1877,3436 1884,3413C1894,3381 1884,3356 1854,3340C1838,3331 1824,3314 1822,3302C1819,3284 1823,3280 1849,3280C1927,3280 1963,3231 1919,3183C1899,3162 1888,3159 1853,3163C1831,3165 1797,3178 1780,3190C1754,3209 1746,3210 1739,3199C1718,3166 1732,3146 1793,3118C1861,3086 1917,3098 1960,3152C2006,3212 2000,3287 1946,3311C1922,3322 1922,3324 1935,3351C1963,3404 1950,3449 1900,3475C1863,3494 1832,3494 1798,3473Z" style="fill-rule:nonzero;"/>
                <path d="M5637,3503C5631,3494 5621,3442 5616,3395C5614,3379 5609,3344 5605,3318C5598,3272 5599,3270 5626,3259C5642,3252 5678,3244 5705,3241L5755,3235L5760,3150C5764,3079 5768,3065 5783,3062C5822,3054 5832,3078 5829,3171C5826,3264 5827,3270 5857,3274C5867,3276 5882,3289 5890,3304C5903,3328 5903,3332 5890,3340C5882,3346 5863,3347 5848,3344C5823,3339 5820,3341 5820,3367C5820,3400 5795,3440 5775,3440C5752,3440 5739,3403 5744,3356C5749,3313 5749,3312 5713,3307C5693,3303 5674,3303 5670,3305C5667,3307 5669,3347 5675,3395C5683,3456 5684,3483 5676,3489C5653,3506 5641,3510 5637,3503Z" style="fill-rule:nonzero;"/>
            </g>
        </g>
        <g id="G-1" serif:id="G+">
        </g>
    </g>
</svg>
