<?xml version="1.0" encoding="iso-8859-1"?>
<!-- Generator: Adobe Illustrator 16.0.0, SVG Export Plug-In . SVG Version: 6.00 Build 0)  -->
<!DOCTYPE svg PUBLIC "-//W3C//DTD SVG 1.1//EN" "http://www.w3.org/Graphics/SVG/1.1/DTD/svg11.dtd">
<svg version="1.1" xmlns="http://www.w3.org/2000/svg" xmlns:xlink="http://www.w3.org/1999/xlink" x="0px" y="0px"
	 width="175.92px" height="236.377px" viewBox="0 0 175.92 236.377" style="enable-background:new 0 0 175.92 236.377;"
	 xml:space="preserve">
<g id="Dm">
	<g id="Dm_1_">
		<path style="fill:none;" d="M175.92,236.377c-58.64,0-117.28,0-175.92,0C0,156.536,0,76.696,0-3.144c58.64,0,117.28,0,175.92,0
			C175.92,76.696,175.92,156.536,175.92,236.377z M146.058,194.556c-0.13-7.175-0.421-14.238-0.341-21.297
			c0.081-7.103,0.531-14.2,0.827-21.479c0.921,0.076,1.862,0.182,2.806,0.223c1.15,0.05,2.328,0.203,3.446,0.02
			c1.215-0.199,1.428-1.069,0.688-2.01c-0.191-0.242-0.358-0.503-0.52-0.73c-2.373-0.057-4.645,0.766-7.119,0.268
			c-0.149-14.646-0.58-29.25,0.53-43.972c0.841,0.046,1.509,0.072,2.175,0.121c1.629,0.117,3.255,0.304,4.885,0.346
			c0.97,0.024,1.837-0.399,2.589-1.157c-1.167-1.124-2.521-1.646-4.03-1.703c-1.557-0.059-3.117,0.007-4.676-0.004
			c-0.46-0.003-0.919-0.082-1.389-0.127c0-3.092,0-6.042,0-9.077c0.4-0.027,0.75-0.045,1.1-0.076
			c0.513-0.046,1.092,0.036,1.525-0.176c2.158-1.057,3.647-2.705,4.083-5.137c0.655-3.649-0.645-6.703-3.12-9.264
			c-1.001-1.036-2.321-1.763-3.641-2.737c0-3.371,0-6.952,0-10.593c3.893-0.648,7.677-0.801,11.489-0.086
			c0.479-2.811,0.429-5.467-0.522-8.077c-1.121,0.081-2.115,0.209-3.111,0.214c-4.595,0.022-9.191,0.096-13.784-0.015
			c-4.754-0.114-9.504-0.597-14.256-0.593c-5.471,0.004-10.941,0.392-16.413,0.566c-7.949,0.254-15.9,0.493-23.852,0.683
			c-3.958,0.094-7.918,0.074-11.877,0.09c-6.076,0.025-12.152,0.108-18.227,0.037c-6.794-0.08-13.587-0.338-20.381-0.457
			c-4.238-0.075-8.479-0.037-12.718-0.042c-0.264,0-0.529,0.058-0.938,0.105c0.093,1.97,0.115,3.885,0.293,5.785
			c0.151,1.612,0.319,1.72,1.942,1.76c1.719,0.042,3.439-0.015,5.158,0.019c0.61,0.012,1.217,0.161,1.792,0.242
			c0.06,1.294,0.148,2.409,0.158,3.525c0.056,6.274,0.166,12.55,0.11,18.824c-0.033,3.712-0.29,7.426-0.541,11.132
			c-0.107,1.567-0.46,3.118-0.716,4.77c-1.197-0.252-2.2-0.526-3.221-0.659c-0.939-0.122-1.911-0.193-2.843-0.081
			c-0.404,0.048-0.882,0.554-1.061,0.967c-0.093,0.214,0.313,0.826,0.633,1c0.683,0.371,1.438,0.695,2.199,0.814
			c0.858,0.134,1.757-0.018,2.634,0.027c0.779,0.039,1.554,0.176,2.353,0.273c0.032,0.394,0.065,0.626,0.068,0.859
			c0.052,3.598,0.084,7.196,0.153,10.794c0.081,4.276,0.276,8.552,0.271,12.828c-0.007,5.795-0.153,11.591-0.255,17.387
			c-0.01,0.582-0.13,1.162-0.208,1.819c-0.931,0-1.724,0.032-2.514-0.007c-1.356-0.065-2.71-0.245-4.065-0.246
			c-1.456-0.002-2.13,0.564-2.423,1.873c0.507,0.17,1.018,0.455,1.548,0.498c1.269,0.102,2.546,0.119,3.82,0.114
			c1.383-0.005,2.773-0.168,4.169,0.294c0,0.408,0.008,0.764-0.001,1.12c-0.15,5.752-0.376,11.503-0.437,17.256
			c-0.083,7.958-0.042,15.917-0.054,23.876c-0.001,0.417,0,0.834,0,1.146c-2.44,0.139-4.676,0.211-6.901,0.411
			c-1.346,0.121-1.51,0.562-0.852,1.709c0.215,0.375,0.428,0.751,0.663,1.164c2.356-0.14,4.649-1.392,7.096-0.396
			c0.973,5.07,0.472,10.252,1.087,15.35c1.887-0.294,2.472-0.907,2.448-2.541c-0.031-2.077-0.121-4.152-0.158-6.229
			c-0.042-2.35-0.065-4.7,0.6-7.077c0.594,0.039,1.143,0.117,1.69,0.103c3.793-0.102,7.585-0.219,11.378-0.338
			c1.554-0.049,3.095,0.007,4.698,0.466c0,0.477,0.005,0.91-0.001,1.344c-0.058,4.317-0.091,8.636-0.202,12.951
			c-0.021,0.807,0.303,1.102,0.976,1.172c0.486,0.051,0.982,0.01,1.615,0.01c0-5.375,0-10.555,0-15.729c7.288,0,14.43,0,21.73,0
			c0,1.346,0.029,2.615-0.006,3.883c-0.065,2.356-0.213,4.711-0.238,7.067c-0.012,1.089,0.224,2.167,0.973,3.072
			c1.163-0.818,1.771-1.854,1.875-3.088c0.123-1.463,0.076-2.94,0.106-4.412c0.041-2.028,0.071-4.057,0.135-6.084
			c0.019-0.587,0.395-0.807,0.979-0.765c0.717,0.052,1.438,0.069,2.157,0.067c5.678-0.016,11.357-0.04,17.035-0.056
			c0.299,0,0.599,0.061,0.953,0.099c-0.127,1.292-0.254,2.481-0.36,3.672c-0.25,2.786-0.594,5.571-0.181,8.371
			c0.089,0.6,0.031,1.067-0.59,1.405c-0.612,0.333-0.521,0.794-0.051,1.258c0.873,0.861,1.88,0.944,3.324,0.193
			c-0.146-4.978-0.541-9.993,0.288-14.944c6.562,0,12.976,0,19.312,0c0.251,1.392,0.455,2.651,0.709,3.9
			c0.355,1.745,0.389,3.46-0.038,5.215c-0.269,1.11-0.338,2.285-0.362,3.435c-0.021,0.954,0.529,1.625,1.495,2.008
			c0.991-1.676,1.241-3.466,1.182-5.313c-0.076-2.355-0.216-4.709-0.291-7.065c-0.025-0.784,0.062-1.571,0.095-2.254
			c6.124,0,12.088,0,18.072,0c0.613,5.218,0.771,10.231,0.283,15.319c0.854,0.278,1.566,0.511,2.371,0.773
			c0.064-0.538,0.128-0.812,0.124-1.086c-0.039-3.191-0.065-6.385-0.146-9.575c-0.045-1.792-0.072-3.573,0.321-5.48
			c1.666,0.095,3.254,0.233,4.844,0.262c1.577,0.027,3.179,0.245,4.715-0.264c0.005-2.568-0.431-3.07-2.802-3.308
			c-0.039-0.004-0.079-0.003-0.119-0.007C150.214,194.915,148.148,194.736,146.058,194.556z M64.853,26.612
			c-0.281,0.095-0.391,0.158-0.504,0.167c-0.824,0.06-1.056,0.575-1.065,1.308c-0.009,0.732-0.062,1.332,0.899,1.674
			c1.771,0.631,3.554,0.922,5.404,0.723c3.135-0.338,5.729-1.687,7.078-4.628c1.375-2.997,0.864-5.933-1.029-8.607
			c-2.891-4.083-9.446-5.906-14.363-4.055c-0.503,0.19-0.693,0.49-0.569,1.006c0.337,1.401,0.223,1.528,1.716,1.606
			c1.106,0.058,1.048,0.062,1.12,1.178c0.104,1.628,0.253,3.257,0.475,4.873C64.229,23.429,64.561,24.985,64.853,26.612z
			 M90.65,19.693c-1.041-1.833-2.658-1.734-4.33-1.347c-1.732,0.401-3.453,0.854-5.351,1.329c-0.864,3.228,0.087,6.505,0.88,9.729
			c0.743,0,1.317,0,1.918,0c0.028-0.426,0.026-0.747,0.073-1.06c0.213-1.415,0.318-2.861,0.694-4.232
			c0.431-1.573,1.685-2.403,3.181-2.455c0.628-0.021,1.088,0.086,1.179,0.844c0.081,0.67,0.238,1.334,0.402,1.991
			c0.299,1.193,0.529,2.416,0.971,3.557c0.412,1.065,1,1.273,2.349,1.121c0.078-0.698,0.237-1.437,0.224-2.172
			c-0.018-1.036-0.066-2.089-0.279-3.099c-0.21-1.003,0.268-1.509,1.01-1.926c1.548-0.871,2.635-0.629,3.562,0.867
			c0.35,0.565,0.659,1.217,0.756,1.865c0.219,1.455,0.341,2.93,0.41,4.4c0.07,1.457,0.035,1.475,1.541,1.612
			c0.057-0.056,0.123-0.104,0.166-0.169c2.221-3.316,1.23-8.566-2.096-11.079c-1.786-1.35-3.707-1.566-5.738-0.604
			C91.705,19.087,91.262,19.359,90.65,19.693z M98.984,46.485c-0.428,2.091,0.244,2.743,2.215,2.2
			c0.23-0.063,0.461-0.174,0.693-0.178c0.685-0.01,1.37,0.024,2.056,0.04c0.048,0.112,0.097,0.224,0.146,0.336
			c-0.351,0.505-0.629,1.084-1.062,1.501c-1.286,1.234-4.164,1.633-5.755,0.824c-0.294-0.149-0.562-0.451-0.723-0.748
			c-1.423-2.608-0.884-6.252,1.205-8.326c1.704-1.691,3.896-1.543,5.302,0.381c0.551,0.756,1.206,1.104,2.133,0.796
			c-0.262-3.278-2.215-5.058-5.285-4.651c-2.649,0.351-4.877,1.607-6.221,3.986c-0.484,0.855-0.801,1.992-0.705,2.952
			c0.34,3.447,2.116,6.059,5.191,7.691c1.92,1.021,3.899,0.998,5.846-0.025c0.264-0.139,0.544-0.247,0.996-0.451
			c0.062,0.847,0.113,1.537,0.17,2.303c0.976-0.022,1.964,0.35,2.645-0.238c-0.096-1.582-0.195-2.96-0.252-4.341
			c-0.018-0.435,0.12-0.874,0.118-1.311c-0.015-2.525-0.972-3.963-3.789-3.612C102.256,45.822,100.625,46.19,98.984,46.485z
			 M72.487,53.156c0.576,0.215,1.007,0.438,1.464,0.536c4.014,0.861,7.597-0.114,10.71-2.719c1.945-1.628,2.434-4.017,1.271-6.277
			c-2.124-4.124-5.657-6.135-10.214-6.383c-1.943-0.106-3.058,0.768-3.214,2.733c-0.15,1.889-0.002,3.81,0.115,5.71
			C72.748,48.857,73.235,50.953,72.487,53.156z M28.703,46.637c1.149-0.199,2.093-0.338,3.025-0.534
			c0.46-0.097,0.933-0.229,0.951-0.88c0.017-0.64-0.065-1.219-0.692-1.53c-0.314-0.155-0.671-0.256-1.02-0.304
			c-0.853-0.116-1.712-0.187-2.591-0.278c-0.026-0.369-0.06-0.643-0.062-0.918c-0.012-1.368-0.009-1.389,1.388-1.407
			c1.75-0.023,3.5-0.006,5.226-0.006c0.188-0.473,0.34-0.839,0.476-1.21c0.068-0.186,0.107-0.383,0.158-0.576
			c0.345-1.306-0.153-1.883-1.515-1.85c-1.118,0.027-2.237-0.027-3.355-0.039c-1.445-0.014-2.879,0.015-4.149,0.865
			c-0.605,0.405-0.966,0.866-0.869,1.673c0.395,3.288,0.718,6.584,1.116,9.872c0.151,1.249,0.431,2.481,0.642,3.669
			c1.106-0.055,2.059-0.125,3.013-0.146c1.279-0.027,2.561,0.02,3.838-0.034c0.894-0.037,1.756-0.256,2.251-1.125
			c0.589-1.033,0.28-1.717-0.887-1.742c-1.791-0.038-3.587,0-5.376,0.104c-0.716,0.042-1.074-0.207-1.185-0.84
			C28.929,48.505,28.833,47.601,28.703,46.637z M53.57,38.153c-2.067,2.848-6.121,10.821-7.312,14.18
			c-0.28,0.791,0.204,1.026,0.646,1.309c0.521,0.333,0.922,0.037,1.175-0.435c0.338-0.633,0.58-1.324,0.972-1.918
			c0.24-0.362,0.661-0.793,1.044-0.841c1.966-0.248,3.947-0.381,6.084-0.568c0.282,0.6,0.627,1.31,0.949,2.03
			c0.276,0.618,0.493,1.265,0.799,1.866c0.132,0.259,0.393,0.565,0.649,0.628c0.903,0.221,1.451-0.407,2.062-0.94
			c0.586-0.512,0.217-0.958,0.006-1.382c-1.868-3.748-3.75-7.49-5.657-11.219c-0.369-0.721-0.728-1.405-0.475-2.243
			c0.018-0.058-0.055-0.142-0.112-0.278C54.141,38.283,53.843,38.215,53.57,38.153z M117.162,38.217
			c-0.137,5.167,0.134,10.089,0.767,15.02c0.288,0.016,0.483,0.04,0.678,0.036c1.296-0.023,1.349-0.064,1.343-1.352
			c-0.004-0.677-0.099-1.354-0.09-2.03c0.025-1.93,0.039-1.928,1.927-2.172c0.236-0.031,0.469-0.131,0.703-0.135
			c1.059-0.015,2.117-0.006,3.28-0.006c0,0.531,0.024,0.965-0.005,1.396c-0.075,1.114-0.24,2.225-0.249,3.338
			c-0.018,2.185,0.495,2.496,2.468,1.602c0.063-0.029,0.103-0.112,0.172-0.192c0-1.852,0-3.724,0-5.596
			c-0.001-1.79,0.143-3.595-0.045-5.364c-0.174-1.648-1.104-2.986-2.672-4.129c-0.073,0.626-0.151,1.007-0.154,1.387
			c-0.005,0.919,0.032,1.837,0.042,2.756c0.022,2.144,0.023,2.166-2.044,2.448c-1.174,0.161-2.364,0.298-3.565-0.222
			c0-1.963,0-3.875,0-5.816C118.891,38.872,118.12,38.58,117.162,38.217z M140.68,54.207c2.017,0,3.892,0.026,5.766-0.012
			c0.834-0.017,1.698-0.053,2.486-0.289c0.669-0.201,1.248-0.702,1.916-1.099c-0.652-0.932-1.382-1.224-2.209-1.221
			c-1.077,0.004-2.154,0.145-3.23,0.124c-0.823-0.016-1.675-0.088-2.456-0.325c-0.757-0.229-1.102-0.979-1.024-1.72
			c0.072-0.687,0.747-0.903,1.36-0.962c0.75-0.073,1.509-0.064,2.265-0.082c0.418-0.01,0.836-0.002,1.315-0.002
			c0-0.554,0.019-0.952-0.004-1.348c-0.087-1.559-0.38-1.758-1.896-1.534c-0.911,0.135-1.843,0.136-2.785,0.198
			c-0.146-1.498-0.268-2.739-0.393-4.026c2.798,0.026,5.428,0.974,8.033-0.407c-0.195-0.913-0.376-1.755-0.562-2.623
			c-3.251,0.105-6.385,0.207-9.594,0.312C139.659,44.176,139.967,49.062,140.68,54.207z"/>
		<path style="fill-rule:evenodd;clip-rule:evenodd;" d="M146.058,194.556c2.091,0.181,4.156,0.359,6.222,0.537
			c0.04,0.004,0.08,0.003,0.119,0.007c2.371,0.237,2.807,0.739,2.802,3.308c-1.536,0.509-3.138,0.291-4.715,0.264
			c-1.59-0.028-3.178-0.167-4.844-0.262c-0.394,1.907-0.366,3.688-0.321,5.48c0.08,3.19,0.106,6.384,0.146,9.575
			c0.004,0.273-0.06,0.548-0.124,1.086c-0.805-0.263-1.518-0.495-2.371-0.773c0.488-5.088,0.33-10.102-0.283-15.319
			c-5.984,0-11.948,0-18.072,0c-0.032,0.683-0.12,1.47-0.095,2.254c0.075,2.356,0.215,4.71,0.291,7.065
			c0.06,1.848-0.19,3.638-1.182,5.313c-0.966-0.383-1.517-1.054-1.495-2.008c0.024-1.149,0.094-2.324,0.362-3.435
			c0.427-1.755,0.394-3.47,0.038-5.215c-0.254-1.249-0.458-2.509-0.709-3.9c-6.336,0-12.75,0-19.312,0
			c-0.829,4.951-0.434,9.967-0.288,14.944c-1.444,0.751-2.451,0.668-3.324-0.193c-0.471-0.464-0.562-0.925,0.051-1.258
			c0.621-0.338,0.679-0.806,0.59-1.405c-0.413-2.8-0.069-5.585,0.181-8.371c0.106-1.19,0.233-2.38,0.36-3.672
			c-0.354-0.038-0.654-0.099-0.953-0.099c-5.678,0.016-11.357,0.04-17.035,0.056c-0.719,0.002-1.44-0.016-2.157-0.067
			c-0.585-0.042-0.96,0.178-0.979,0.765c-0.064,2.027-0.094,4.056-0.135,6.084c-0.03,1.472,0.017,2.949-0.106,4.412
			c-0.104,1.234-0.711,2.27-1.875,3.088c-0.749-0.905-0.984-1.983-0.973-3.072c0.025-2.356,0.172-4.711,0.238-7.067
			c0.036-1.268,0.006-2.537,0.006-3.883c-7.3,0-14.442,0-21.73,0c0,5.175,0,10.354,0,15.729c-0.633,0-1.129,0.041-1.615-0.01
			c-0.673-0.07-0.997-0.365-0.976-1.172c0.111-4.315,0.144-8.634,0.202-12.951c0.006-0.434,0.001-0.867,0.001-1.344
			c-1.604-0.459-3.144-0.515-4.698-0.466c-3.792,0.119-7.585,0.236-11.378,0.338c-0.547,0.015-1.096-0.063-1.69-0.103
			c-0.665,2.377-0.642,4.728-0.6,7.077c0.037,2.076,0.127,4.151,0.158,6.229c0.024,1.634-0.561,2.247-2.448,2.541
			c-0.615-5.098-0.114-10.279-1.087-15.35c-2.447-0.996-4.74,0.256-7.096,0.396c-0.235-0.413-0.448-0.789-0.663-1.164
			c-0.658-1.147-0.494-1.588,0.852-1.709c2.225-0.2,4.461-0.272,6.901-0.411c0-0.312,0-0.729,0-1.146
			c0.012-7.959-0.029-15.918,0.054-23.876c0.061-5.753,0.287-11.504,0.437-17.256c0.009-0.356,0.001-0.712,0.001-1.12
			c-1.396-0.462-2.786-0.299-4.169-0.294c-1.274,0.005-2.551-0.013-3.82-0.114c-0.53-0.043-1.041-0.328-1.548-0.498
			c0.292-1.309,0.967-1.875,2.423-1.873c1.355,0.001,2.709,0.181,4.065,0.246c0.79,0.039,1.583,0.007,2.514,0.007
			c0.078-0.657,0.198-1.237,0.208-1.819c0.102-5.796,0.248-11.592,0.255-17.387c0.005-4.275-0.19-8.552-0.271-12.828
			c-0.069-3.598-0.101-7.196-0.153-10.794c-0.003-0.233-0.036-0.465-0.068-0.859c-0.798-0.097-1.573-0.234-2.353-0.273
			c-0.877-0.044-1.775,0.107-2.634-0.027c-0.761-0.119-1.516-0.443-2.199-0.814c-0.32-0.174-0.726-0.786-0.633-1
			c0.179-0.413,0.657-0.919,1.061-0.967c0.933-0.112,1.904-0.042,2.843,0.081c1.021,0.132,2.024,0.407,3.221,0.659
			c0.256-1.652,0.609-3.202,0.716-4.77c0.251-3.706,0.508-7.42,0.541-11.132c0.056-6.274-0.054-12.549-0.11-18.824
			c-0.01-1.116-0.098-2.231-0.158-3.525c-0.575-0.082-1.182-0.23-1.792-0.242c-1.719-0.033-3.439,0.024-5.158-0.019
			c-1.623-0.041-1.791-0.148-1.942-1.76c-0.179-1.9-0.201-3.814-0.293-5.785c0.409-0.048,0.674-0.106,0.938-0.105
			c4.24,0.006,8.48-0.032,12.718,0.042c6.794,0.119,13.586,0.376,20.381,0.457c6.075,0.072,12.151-0.011,18.227-0.037
			c3.959-0.017,7.919,0.004,11.877-0.09c7.951-0.19,15.902-0.429,23.852-0.683c5.472-0.174,10.942-0.562,16.413-0.566
			c4.752-0.004,9.502,0.479,14.256,0.593c4.593,0.11,9.189,0.037,13.784,0.015c0.996-0.005,1.99-0.134,3.111-0.214
			c0.951,2.61,1.002,5.267,0.522,8.077c-3.812-0.714-7.597-0.562-11.489,0.086c0,3.641,0,7.222,0,10.593
			c1.319,0.974,2.64,1.701,3.641,2.737c2.476,2.561,3.775,5.615,3.12,9.264c-0.436,2.432-1.925,4.08-4.083,5.137
			c-0.434,0.212-1.013,0.13-1.525,0.176c-0.35,0.031-0.699,0.049-1.1,0.076c0,3.035,0,5.985,0,9.077
			c0.47,0.045,0.929,0.124,1.389,0.127c1.559,0.011,3.119-0.055,4.676,0.004c1.509,0.058,2.863,0.579,4.03,1.703
			c-0.752,0.758-1.619,1.182-2.589,1.157c-1.63-0.042-3.256-0.229-4.885-0.346c-0.666-0.048-1.334-0.075-2.175-0.121
			c-1.11,14.722-0.68,29.327-0.53,43.972c2.475,0.498,4.746-0.324,7.119-0.268c0.161,0.228,0.328,0.488,0.52,0.73
			c0.739,0.94,0.526,1.811-0.688,2.01c-1.118,0.184-2.296,0.03-3.446-0.02c-0.943-0.041-1.885-0.146-2.806-0.223
			c-0.296,7.279-0.746,14.377-0.827,21.479C145.637,180.317,145.928,187.381,146.058,194.556z M76.04,150.483
			c0.192-14.615-0.711-29.116-1.033-43.532c-7.027,0.07-13.917,0.14-20.937,0.21c-0.29,14.627,0.656,29.01,0.606,43.623
			C61.863,150.684,68.873,150.584,76.04,150.483z M76.053,195.303c1.196-13.892,0.634-27.899,0.479-41.733
			c-7.246,0-14.378,0-21.641,0c-0.513,14.212,0.646,28.336-0.513,42.257C61.708,195.649,68.805,195.478,76.053,195.303z
			 M100.068,153.244c-7.104,0.132-14.071,0.261-21.158,0.392c0,2.452,0.01,4.839-0.001,7.225
			c-0.027,5.351-0.135,10.701-0.081,16.052c0.062,6.149,0.262,12.297,0.409,18.445c0.001,0.061,0.097,0.118,0.158,0.188
			c6.85,0,13.71,0,20.681,0C99.957,181.465,100.836,167.465,100.068,153.244z M124.679,150.098
			c6.306,0.494,12.372-0.266,18.511-0.592c0.034-0.441,0.089-0.791,0.084-1.142c-0.09-7.19-0.188-14.38-0.283-21.569
			c-0.071-5.43-0.145-10.861-0.209-16.291c-0.018-1.498-0.002-2.996-0.002-4.595c-6.271,0-12.521,0-18.874,0
			C122.84,120.663,124.572,135.303,124.679,150.098z M75.262,104.334c0.19-12.857,1.042-25.572,0.218-38.35
			c-7.105,0.13-14.077,0.258-21.121,0.386c-0.238,12.806-0.61,25.363-0.256,37.963C61.243,104.334,68.154,104.334,75.262,104.334z
			 M99.041,65.976c-6.896-0.303-13.939-0.397-20.893-0.006c0,12.853,0,25.574,0,38.284c6.998,0,13.803,0,20.799,0
			c0.191-3.719,0.547-7.344,0.529-10.966c-0.035-7.112-0.287-14.223-0.43-21.334C99.008,70.006,99.041,68.058,99.041,65.976z
			 M32.87,107.016c0,0.701-0.007,1.253,0.001,1.806c0.084,5.552,0.161,11.104,0.258,16.655c0.134,7.668,0.284,15.336,0.424,23.005
			c0.012,0.662,0.001,1.324,0.001,2.09c5.972,0,11.889,0,17.855,0c0.997-14.481,0.461-28.863,0.036-43.313
			C45.203,107.267,39.151,106.577,32.87,107.016z M34.282,196.573c6.002-0.133,11.816-0.262,17.62-0.391
			c0.085-0.415,0.153-0.605,0.159-0.798c0.09-2.875,0.261-5.751,0.238-8.625c-0.044-5.594-0.239-11.186-0.292-16.779
			c-0.042-4.516,0.033-9.033,0.054-13.55c0.004-0.939,0-1.88,0-2.874c-0.917-0.08-1.588-0.178-2.261-0.192
			c-4.954-0.104-9.909-0.193-14.863-0.284c-1.133-0.02-1.24,0.018-1.262,1.202c-0.098,5.231-0.26,10.465-0.191,15.695
			c0.077,5.751,0.395,11.498,0.581,17.247C34.165,190.291,34.209,193.359,34.282,196.573z M100.356,150.383
			c-0.095-2.144-0.214-4.095-0.256-6.048c-0.044-1.985-0.01-3.974-0.01-5.786c-1.329-0.551-2.511-0.932-3.589-1.508
			c-4.883-2.607-6.6-8.315-3.789-12.873c1.391-2.253,3.277-3.944,6.24-3.672c0.26,0.024,0.529-0.059,0.895-0.104
			c-0.116-4.641-0.23-9.213-0.349-13.983c-7.125,0.161-14.176,0.321-21.36,0.483c-0.336,14.634,0.101,29.019,0.807,43.491
			C86.146,150.383,93.164,150.383,100.356,150.383z M102.665,150.445c0.296,0.076,0.447,0.148,0.599,0.148
			c6.154,0.013,12.311,0.123,18.442-0.602c0.784-0.092,0.89-0.496,0.863-1.124c-0.079-1.917-0.139-3.834-0.221-5.751
			c-0.282-6.587-0.659-13.172-0.832-19.762c-0.143-5.475-0.047-10.956-0.061-16.434c-0.001-0.304-0.036-0.608-0.055-0.903
			c-0.195-0.051-0.309-0.107-0.422-0.106c-5.913,0.079-11.827,0.167-17.74,0.242c-0.806,0.01-1.255,0.299-1.272,1.182
			c-0.016,0.793-0.244,1.591-0.198,2.376c0.2,3.468,0.449,6.934,0.731,10.396c0.025,0.315,0.358,0.669,0.639,0.889
			c1.068,0.838,2.195,1.6,3.259,2.442c2.44,1.936,3.687,4.402,3.534,7.597c-0.155,3.276-2.135,5.999-5.293,6.933
			c-0.678,0.199-1.382,0.311-1.974,0.441C102.665,142.483,102.665,146.467,102.665,150.445z M101.715,66.262
			c-0.379,12.553-0.09,24.996,0.23,37.54c6.567-0.036,12.983,0.35,19.534-0.23c-0.347-12.636,0.634-25.188,0.333-37.778
			c-0.35-0.023-0.545-0.047-0.741-0.047c-4.149,0-8.3,0.005-12.449,0.006C106.351,65.754,104.072,65.661,101.715,66.262z
			 M51.677,104.137c-0.319-12.645,0.439-25.126,0.045-37.758c-1.794-0.06-3.465-0.135-5.137-0.168
			c-4.072-0.081-8.145-0.141-12.217-0.214c-0.789-0.014-1.184,0.354-1.222,1.26c-0.037,0.878-0.023,1.758-0.02,2.638
			c0.023,5.555,0.087,11.11,0.061,16.665c-0.021,4.35-0.141,8.699-0.244,13.048c-0.035,1.46-0.153,2.919-0.241,4.53
			C39.057,104.137,45.304,104.137,51.677,104.137z M102.676,153.252c-0.135,14.094-0.271,28.19-0.408,42.358
			c6.739,0.982,13.372-0.253,20.157-0.006c0.123-3.573,0.239-6.943,0.357-10.374c-3.062,0.025-5.232-1.311-6.519-3.885
			c-1.877-3.755-1.959-7.623-0.182-11.438c0.997-2.141,2.714-3.533,5.077-4.005c0.609-0.121,1.241-0.132,1.907-0.197
			c-0.092-4.271-0.182-8.444-0.275-12.819C116.009,153.009,109.318,153.131,102.676,153.252z M124.74,153.254
			c0.09,1.899,0.193,3.609,0.247,5.32c0.067,2.157,0.136,4.315,0.118,6.472c-0.008,0.979,0.406,1.521,1.231,1.951
			c0.989,0.516,1.933,1.123,2.875,1.724c3.024,1.927,4.439,4.646,4.263,8.272c-0.17,3.503-2.419,6.582-5.798,7.537
			c-0.907,0.257-1.87,0.32-2.922,0.491c0.192,3.478-0.863,6.945-0.07,10.485c0.342,0.02,0.617,0.066,0.887,0.044
			c4.589-0.369,9.178-0.332,13.771-0.042c0.746,0.047,1.52-0.064,2.259-0.212c1.479-0.294,1.989-1.06,1.547-2.511
			c-0.626-2.056-0.435-4.107-0.213-6.175c0.269-2.5,0.763-4.999,0.762-7.498c-0.003-6.109-0.218-12.22-0.381-18.328
			c-0.073-2.789-0.224-5.577-0.347-8.521C136.882,152.332,130.895,152.846,124.74,153.254z M142.924,94.221
			c-4.593-1.165-6.93-3.951-7.149-8.59c-0.097-2.048,0.36-3.967,1.533-5.677c1.398-2.038,3.438-3.007,5.891-3.349
			c-0.055-3.574,0.341-7.07-0.277-10.708c-6.076,0-12.095,0-18.265,0c-0.673,12.452-0.599,25.006-1.008,37.567
			c6.442,0,12.729,0,19.076,0c0.072-0.754,0.185-1.423,0.19-2.094C142.938,99.017,142.924,96.664,142.924,94.221z"/>
		<path style="fill-rule:evenodd;clip-rule:evenodd;" d="M70.853,24.612c-0.292-1.627-0.623-3.183-0.838-4.755
			c-0.222-1.616-0.37-3.245-0.475-4.873c-0.072-1.117-0.013-1.12-1.12-1.178c-1.493-0.078-1.379-0.205-1.716-1.606
			c-0.124-0.516,0.065-0.816,0.569-1.006c4.917-1.851,11.472-0.027,14.363,4.055c1.893,2.674,2.404,5.61,1.029,8.607
			c-1.349,2.941-3.943,4.29-7.078,4.628c-1.851,0.199-3.634-0.092-5.404-0.723c-0.96-0.342-0.908-0.942-0.899-1.674
			c0.009-0.733,0.241-1.248,1.065-1.308C70.462,24.771,70.571,24.708,70.853,24.612z M72.82,13.845
			c-0.502,2.706,0.295,8.824,1.496,11.644c3.917,0.203,6.21-2.599,5.642-6.04C79.37,15.895,76.121,13.279,72.82,13.845z"/>
		<path style="fill-rule:evenodd;clip-rule:evenodd;" d="M96.65,17.693c0.611-0.334,1.055-0.606,1.521-0.827
			c2.031-0.962,3.952-0.746,5.738,0.604c3.326,2.513,4.316,7.763,2.096,11.079c-0.043,0.065-0.109,0.113-0.166,0.169
			c-1.506-0.138-1.471-0.156-1.541-1.613c-0.069-1.471-0.191-2.945-0.41-4.4c-0.097-0.647-0.406-1.3-0.756-1.865
			c-0.928-1.497-2.015-1.738-3.562-0.867c-0.742,0.417-1.22,0.923-1.01,1.926c0.213,1.009,0.262,2.062,0.279,3.099
			c0.014,0.735-0.146,1.474-0.224,2.172c-1.349,0.152-1.937-0.055-2.349-1.121c-0.441-1.141-0.672-2.363-0.971-3.557
			c-0.164-0.657-0.32-1.321-0.402-1.991c-0.091-0.758-0.551-0.865-1.179-0.844c-1.497,0.051-2.75,0.882-3.181,2.455
			c-0.376,1.371-0.481,2.817-0.694,4.232c-0.048,0.313-0.046,0.633-0.073,1.06c-0.601,0-1.175,0-1.918,0
			c-0.793-3.224-1.745-6.501-0.88-9.729c1.898-0.474,3.619-0.927,5.351-1.329C93.992,15.959,95.609,15.86,96.65,17.693z"/>
		<path style="fill-rule:evenodd;clip-rule:evenodd;" d="M98.984,46.485c1.641-0.295,3.271-0.663,4.923-0.869
			c2.817-0.351,3.774,1.086,3.789,3.612c0.002,0.437-0.136,0.876-0.118,1.311c0.057,1.38,0.156,2.759,0.252,4.341
			c-0.681,0.588-1.669,0.216-2.645,0.238c-0.057-0.766-0.107-1.457-0.17-2.303c-0.452,0.204-0.732,0.312-0.996,0.451
			c-1.946,1.022-3.926,1.045-5.846,0.025c-3.075-1.632-4.852-4.244-5.191-7.691c-0.096-0.96,0.221-2.097,0.705-2.952
			c1.344-2.379,3.571-3.635,6.221-3.986c3.07-0.407,5.023,1.373,5.285,4.651c-0.927,0.308-1.582-0.04-2.133-0.796
			c-1.406-1.925-3.598-2.073-5.302-0.381c-2.089,2.074-2.628,5.718-1.205,8.326c0.161,0.296,0.429,0.598,0.723,0.748
			c1.591,0.809,4.469,0.41,5.755-0.824c0.434-0.417,0.712-0.996,1.062-1.501c-0.049-0.112-0.098-0.224-0.146-0.336
			c-0.686-0.016-1.371-0.05-2.056-0.04c-0.232,0.003-0.463,0.114-0.693,0.178C99.229,49.228,98.557,48.577,98.984,46.485z"/>
		<path style="fill-rule:evenodd;clip-rule:evenodd;" d="M72.487,53.156c0.749-2.203,0.261-4.299,0.131-6.4
			c-0.117-1.901-0.266-3.821-0.115-5.71c0.156-1.965,1.271-2.839,3.214-2.733c4.558,0.249,8.091,2.259,10.214,6.383
			c1.164,2.26,0.675,4.649-1.271,6.277c-3.113,2.605-6.696,3.58-10.71,2.719C73.494,53.594,73.063,53.371,72.487,53.156z
			 M75.366,51.401c0.961-0.132,1.675-0.179,2.365-0.337c1.644-0.375,3.24-0.877,4.442-2.167c1.424-1.527,1.412-4.072-0.143-5.366
			c-2.049-1.705-4.549-1.809-7.319-1.893C74.934,44.944,75.143,48.07,75.366,51.401z"/>
		<path style="fill-rule:evenodd;clip-rule:evenodd;" d="M28.703,46.637c0.13,0.964,0.226,1.869,0.382,2.763
			c0.11,0.633,0.468,0.882,1.185,0.84c1.789-0.103,3.585-0.142,5.376-0.104c1.167,0.025,1.476,0.709,0.887,1.742
			c-0.495,0.869-1.357,1.088-2.251,1.125c-1.277,0.054-2.559,0.006-3.838,0.034c-0.954,0.02-1.907,0.09-3.013,0.146
			c-0.211-1.188-0.491-2.42-0.642-3.669c-0.397-3.288-0.721-6.584-1.116-9.872c-0.097-0.807,0.264-1.268,0.869-1.673
			c1.27-0.85,2.704-0.879,4.149-0.865c1.119,0.011,2.238,0.066,3.355,0.039c1.361-0.033,1.859,0.544,1.515,1.85
			c-0.051,0.193-0.089,0.39-0.158,0.576c-0.136,0.372-0.288,0.737-0.476,1.21c-1.726,0-3.476-0.017-5.226,0.006
			c-1.397,0.018-1.4,0.04-1.388,1.407c0.002,0.275,0.036,0.55,0.062,0.918c0.878,0.091,1.738,0.162,2.591,0.278
			c0.348,0.047,0.706,0.148,1.02,0.304c0.627,0.312,0.709,0.891,0.692,1.53c-0.018,0.651-0.49,0.784-0.951,0.88
			C30.796,46.299,29.852,46.438,28.703,46.637z"/>
		<path style="fill-rule:evenodd;clip-rule:evenodd;" d="M53.57,38.153c0.272,0.062,0.571,0.13,0.832,0.189
			c0.057,0.136,0.129,0.221,0.112,0.278c-0.253,0.838,0.106,1.522,0.475,2.243c1.907,3.729,3.789,7.471,5.657,11.219
			c0.211,0.423,0.581,0.87-0.006,1.382c-0.612,0.534-1.16,1.161-2.062,0.94c-0.256-0.063-0.517-0.369-0.649-0.628
			c-0.306-0.602-0.523-1.248-0.799-1.866c-0.321-0.721-0.667-1.431-0.949-2.03c-2.137,0.188-4.118,0.321-6.084,0.568
			c-0.384,0.048-0.804,0.479-1.044,0.841c-0.393,0.594-0.634,1.285-0.972,1.918c-0.252,0.472-0.654,0.768-1.175,0.435
			c-0.442-0.283-0.926-0.519-0.646-1.309C47.449,48.974,51.503,41.001,53.57,38.153z M53.026,44.219
			c-0.526,1.138-1.054,2.28-1.582,3.422c0.081,0.068,0.163,0.136,0.244,0.204c1.029-0.356,2.201,0.434,3.165-0.458
			C54.488,45.038,54.318,44.729,53.026,44.219z"/>
		<path style="fill-rule:evenodd;clip-rule:evenodd;" d="M117.162,38.217c0.958,0.363,1.729,0.655,2.555,0.968
			c0,1.941,0,3.853,0,5.816c1.201,0.52,2.392,0.383,3.565,0.222c2.067-0.282,2.066-0.304,2.044-2.448
			c-0.01-0.919-0.047-1.837-0.042-2.756c0.003-0.38,0.081-0.761,0.154-1.387c1.567,1.143,2.498,2.481,2.672,4.129
			c0.188,1.77,0.044,3.574,0.045,5.364c0,1.872,0,3.745,0,5.596c-0.069,0.08-0.108,0.163-0.172,0.192
			c-1.973,0.894-2.485,0.583-2.468-1.602c0.009-1.113,0.174-2.225,0.249-3.338c0.029-0.431,0.005-0.865,0.005-1.396
			c-1.163,0-2.222-0.009-3.28,0.006c-0.234,0.003-0.467,0.104-0.703,0.135c-1.888,0.244-1.901,0.242-1.927,2.172
			c-0.009,0.676,0.086,1.353,0.09,2.03c0.006,1.288-0.047,1.329-1.343,1.352c-0.194,0.004-0.39-0.02-0.678-0.036
			C117.296,48.306,117.025,43.384,117.162,38.217z"/>
		<path style="fill-rule:evenodd;clip-rule:evenodd;" d="M140.68,54.207c-0.713-5.145-1.021-10.03-1.012-15.017
			c3.209-0.104,6.343-0.206,9.594-0.312c0.187,0.868,0.367,1.71,0.562,2.623c-2.605,1.38-5.235,0.433-8.033,0.407
			c0.125,1.287,0.246,2.528,0.393,4.026c0.942-0.062,1.874-0.063,2.785-0.198c1.516-0.224,1.809-0.025,1.896,1.534
			c0.022,0.396,0.004,0.794,0.004,1.348c-0.479,0-0.897-0.008-1.315,0.002c-0.756,0.018-1.515,0.009-2.265,0.082
			c-0.613,0.059-1.288,0.275-1.36,0.962c-0.077,0.741,0.268,1.491,1.024,1.72c0.781,0.237,1.633,0.309,2.456,0.325
			c1.076,0.021,2.153-0.12,3.23-0.124c0.827-0.003,1.557,0.289,2.209,1.221c-0.668,0.397-1.247,0.898-1.916,1.099
			c-0.788,0.236-1.652,0.272-2.486,0.289C144.571,54.233,142.696,54.207,140.68,54.207z"/>
		<path style="fill-rule:evenodd;clip-rule:evenodd;fill:none;" d="M76.04,150.483c-7.167,0.101-14.177,0.2-21.364,0.301
			c0.05-14.612-0.896-28.995-0.606-43.623c7.02-0.071,13.909-0.14,20.937-0.21C75.329,121.367,76.232,135.868,76.04,150.483z"/>
		<path style="fill-rule:evenodd;clip-rule:evenodd;fill:none;" d="M76.053,195.303c-7.248,0.175-14.345,0.347-21.675,0.523
			c1.159-13.921,0-28.045,0.513-42.257c7.263,0,14.395,0,21.641,0C76.687,167.403,77.249,181.411,76.053,195.303z"/>
		<path style="fill-rule:evenodd;clip-rule:evenodd;fill:none;" d="M100.068,153.244c0.768,14.221-0.111,28.221,0.008,42.302
			c-6.971,0-13.831,0-20.681,0c-0.062-0.07-0.157-0.128-0.158-0.188c-0.147-6.148-0.347-12.296-0.409-18.445
			c-0.054-5.351,0.053-10.701,0.081-16.052c0.012-2.386,0.001-4.772,0.001-7.225C85.998,153.505,92.965,153.376,100.068,153.244z"/>
		<path style="fill-rule:evenodd;clip-rule:evenodd;fill:none;" d="M124.679,150.098c-0.106-14.795-1.839-29.435-0.773-44.188
			c6.353,0,12.603,0,18.874,0c0,1.599-0.016,3.097,0.002,4.595c0.064,5.43,0.138,10.861,0.209,16.291
			c0.096,7.189,0.193,14.379,0.283,21.569c0.005,0.351-0.05,0.7-0.084,1.142C137.051,149.832,130.984,150.592,124.679,150.098z"/>
		<path style="fill-rule:evenodd;clip-rule:evenodd;fill:none;" d="M75.262,104.334c-7.107,0-14.019,0-21.159,0
			c-0.354-12.6,0.018-25.158,0.256-37.963c7.044-0.128,14.016-0.256,21.121-0.386C76.303,78.762,75.452,91.477,75.262,104.334z"/>
		<path style="fill-rule:evenodd;clip-rule:evenodd;fill:none;" d="M99.041,65.976c0,2.082-0.033,4.03,0.006,5.978
			c0.143,7.112,0.395,14.223,0.43,21.334c0.018,3.623-0.338,7.247-0.529,10.966c-6.996,0-13.801,0-20.799,0
			c0-12.71,0-25.432,0-38.284C85.102,65.578,92.145,65.673,99.041,65.976z"/>
		<path style="fill-rule:evenodd;clip-rule:evenodd;fill:none;" d="M32.87,107.016c6.281-0.439,12.333,0.25,18.576,0.243
			c0.425,14.45,0.961,28.832-0.036,43.313c-5.967,0-11.883,0-17.855,0c0-0.766,0.011-1.428-0.001-2.09
			c-0.14-7.669-0.29-15.337-0.424-23.005c-0.097-5.552-0.174-11.104-0.258-16.655C32.863,108.27,32.87,107.717,32.87,107.016z"/>
		<path style="fill-rule:evenodd;clip-rule:evenodd;fill:none;" d="M34.282,196.573c-0.072-3.214-0.117-6.282-0.216-9.349
			c-0.187-5.749-0.504-11.496-0.581-17.247c-0.069-5.23,0.093-10.464,0.191-15.695c0.022-1.185,0.129-1.222,1.262-1.202
			c4.954,0.091,9.909,0.18,14.863,0.284c0.673,0.015,1.344,0.112,2.261,0.192c0,0.994,0.004,1.935,0,2.874
			c-0.021,4.517-0.096,9.034-0.054,13.55c0.053,5.594,0.248,11.186,0.292,16.779c0.022,2.874-0.148,5.75-0.238,8.625
			c-0.006,0.192-0.074,0.383-0.159,0.798C46.098,196.312,40.284,196.44,34.282,196.573z"/>
		<path style="fill-rule:evenodd;clip-rule:evenodd;fill:none;" d="M100.356,150.383c-7.192,0-14.21,0-21.41,0
			c-0.706-14.473-1.143-28.857-0.807-43.491c7.184-0.163,14.235-0.322,21.36-0.483c0.118,4.771,0.232,9.342,0.349,13.983
			c-0.365,0.046-0.635,0.129-0.895,0.104c-2.963-0.272-4.85,1.419-6.24,3.672c-2.811,4.558-1.094,10.266,3.789,12.873
			c1.078,0.576,2.26,0.957,3.589,1.508c0,1.812-0.034,3.801,0.01,5.786C100.143,146.288,100.262,148.239,100.356,150.383z
			 M87.765,115.835c-1.206,3.181-3.311,5.274-5.982,6.872c0.544,0.838,1.24,1.143,2.021,1.109c2.374-0.098,4.746-0.258,7.241-0.402
			c-0.55-2.248-2.5-1.07-3.667-1.809c1.462-0.983,2.375-2.27,2.729-3.943c0.363-1.719-0.186-3.341-1.447-4.13
			c-1.241-0.776-3.351-0.521-4.583,0.556c-1.26,1.1-1.275,2.699-0.037,3.777C85.395,117.542,85.787,115.431,87.765,115.835z"/>
		<path style="fill-rule:evenodd;clip-rule:evenodd;fill:none;" d="M102.665,150.445c0-3.979,0-7.962,0-12.035
			c0.592-0.131,1.296-0.242,1.974-0.441c3.158-0.934,5.138-3.656,5.293-6.933c0.152-3.194-1.094-5.661-3.534-7.597
			c-1.063-0.843-2.19-1.604-3.259-2.442c-0.28-0.22-0.613-0.573-0.639-0.889c-0.282-3.462-0.531-6.928-0.731-10.396
			c-0.046-0.786,0.183-1.583,0.198-2.376c0.018-0.882,0.467-1.171,1.272-1.182c5.913-0.076,11.827-0.163,17.74-0.242
			c0.113-0.001,0.227,0.055,0.422,0.106c0.019,0.295,0.054,0.599,0.055,0.903c0.014,5.479-0.082,10.959,0.061,16.434
			c0.173,6.59,0.55,13.175,0.832,19.762c0.082,1.917,0.142,3.834,0.221,5.751c0.026,0.628-0.079,1.032-0.863,1.124
			c-6.132,0.725-12.288,0.614-18.442,0.602C103.112,150.594,102.961,150.521,102.665,150.445z"/>
		<path style="fill-rule:evenodd;clip-rule:evenodd;fill:none;" d="M101.715,66.262c2.357-0.601,4.636-0.508,6.907-0.509
			c4.149-0.001,8.3-0.006,12.449-0.006c0.196,0,0.392,0.024,0.741,0.047c0.301,12.59-0.68,25.142-0.333,37.778
			c-6.551,0.58-12.967,0.194-19.534,0.23C101.625,91.258,101.336,78.815,101.715,66.262z"/>
		<path style="fill-rule:evenodd;clip-rule:evenodd;fill:none;" d="M51.677,104.137c-6.373,0-12.621,0-18.975,0
			c0.088-1.611,0.207-3.069,0.241-4.53c0.103-4.349,0.223-8.699,0.244-13.048c0.026-5.555-0.038-11.11-0.061-16.665
			c-0.003-0.879-0.018-1.76,0.02-2.638c0.039-0.905,0.434-1.274,1.222-1.26c4.072,0.073,8.145,0.133,12.217,0.214
			c1.671,0.033,3.342,0.108,5.137,0.168C52.116,79.011,51.358,91.492,51.677,104.137z"/>
		<path style="fill-rule:evenodd;clip-rule:evenodd;fill:none;" d="M102.676,153.252c6.643-0.121,13.333-0.243,20.115-0.366
			c0.094,4.375,0.184,8.549,0.275,12.819c-0.666,0.065-1.298,0.076-1.907,0.197c-2.363,0.472-4.08,1.864-5.077,4.005
			c-1.777,3.815-1.695,7.684,0.182,11.438c1.286,2.574,3.457,3.91,6.519,3.885c-0.118,3.431-0.234,6.801-0.357,10.374
			c-6.785-0.247-13.418,0.988-20.157,0.006C102.404,181.442,102.541,167.346,102.676,153.252z M108.666,163.088
			c0.175,0.712,0.219,1.404,0.535,1.933c0.131,0.216,0.852,0.077,1.304,0.101c0.199,0.01,0.406-0.01,0.597,0.037
			c0.814,0.199,1.116,0.877,0.744,1.632c-0.833,1.688-1.369,1.827-2.904,0.757c-0.131-0.092-0.262-0.186-0.396-0.27
			c-0.5-0.309-0.987-0.687-1.621-0.375c-0.033,1.646,0.557,2.465,2.01,2.847c1.9,0.499,4.551-0.558,5.56-2.231
			c0.554-0.919,0.723-1.832,0.004-2.782c-0.353-0.467-0.591-1.021-0.886-1.547c0.654-0.856,0.719-1.782,0.519-2.763
			c-0.08-0.39-0.153-0.796-0.126-1.188c0.068-0.948-0.454-1.381-1.271-1.606c-1.299-0.359-2.432,0.17-3.552,0.696
			c-1.325,0.623-1.376,0.741-1.227,2.206c0.023,0.231,0.099,0.458,0.149,0.686c1.561,0.329,2.444-1.115,3.746-1.357
			c0.856,1.24,0.488,2.345-0.88,2.692C110.316,162.722,109.653,162.86,108.666,163.088z"/>
		<path style="fill-rule:evenodd;clip-rule:evenodd;fill:none;" d="M124.74,153.254c6.154-0.408,12.142-0.922,18.229-0.99
			c0.123,2.944,0.273,5.732,0.347,8.521c0.163,6.108,0.378,12.219,0.381,18.328c0.001,2.499-0.493,4.998-0.762,7.498
			c-0.222,2.067-0.413,4.119,0.213,6.175c0.442,1.451-0.068,2.217-1.547,2.511c-0.739,0.147-1.513,0.259-2.259,0.212
			c-4.593-0.29-9.182-0.327-13.771,0.042c-0.27,0.022-0.545-0.024-0.887-0.044c-0.793-3.54,0.263-7.008,0.07-10.485
			c1.052-0.171,2.015-0.234,2.922-0.491c3.379-0.955,5.628-4.034,5.798-7.537c0.177-3.626-1.238-6.346-4.263-8.272
			c-0.942-0.601-1.886-1.208-2.875-1.724c-0.825-0.43-1.239-0.973-1.231-1.951c0.018-2.156-0.051-4.314-0.118-6.472
			C124.934,156.863,124.83,155.153,124.74,153.254z"/>
		<path style="fill-rule:evenodd;clip-rule:evenodd;fill:none;" d="M142.924,94.221c0,2.443,0.015,4.796-0.009,7.148
			c-0.006,0.67-0.118,1.339-0.19,2.094c-6.348,0-12.634,0-19.076,0c0.409-12.561,0.335-25.115,1.008-37.567
			c6.17,0,12.188,0,18.265,0c0.618,3.638,0.223,7.134,0.277,10.708c-2.452,0.342-4.492,1.311-5.891,3.349
			c-1.173,1.71-1.63,3.629-1.533,5.677C135.994,90.27,138.331,93.056,142.924,94.221z M131.88,71.366
			c-1.09,0.976-2.193,1.839-3.141,2.848c-0.97,1.033-0.943,1.827-0.164,2.855c0.866-0.549,1.735-1.101,2.818-1.788
			c-0.119,2.448-0.029,4.529,0.635,6.607c0.473-0.025,0.854-0.046,1.257-0.068c0.471-2.236,0.802-4.398,0.617-6.599
			C133.78,73.762,133.341,72.418,131.88,71.366z"/>
		<path style="fill-rule:evenodd;clip-rule:evenodd;fill:none;" d="M66.82,15.845c3.301-0.566,6.55,2.049,7.137,5.604
			c0.568,3.441-1.725,6.243-5.642,6.04C67.115,24.669,66.317,18.551,66.82,15.845z"/>
		<path style="fill-rule:evenodd;clip-rule:evenodd;fill:none;" d="M75.366,51.401c-0.223-3.331-0.432-6.457-0.654-9.762
			c2.77,0.084,5.27,0.188,7.319,1.893c1.555,1.293,1.567,3.838,0.143,5.366c-1.203,1.289-2.799,1.791-4.442,2.167
			C77.042,51.222,76.327,51.269,75.366,51.401z"/>
		<path style="fill-rule:evenodd;clip-rule:evenodd;fill:none;" d="M53.026,44.219c1.292,0.509,1.462,0.819,1.828,3.168
			c-0.964,0.892-2.136,0.102-3.165,0.458c-0.082-0.068-0.163-0.136-0.244-0.204C51.972,46.5,52.5,45.357,53.026,44.219z"/>
		<path style="fill-rule:evenodd;clip-rule:evenodd;" d="M87.765,115.835c-1.978-0.404-2.37,1.707-3.725,2.03
			c-1.239-1.078-1.224-2.677,0.037-3.777c1.233-1.077,3.342-1.333,4.583-0.556c1.262,0.789,1.811,2.412,1.447,4.13
			c-0.354,1.673-1.267,2.959-2.729,3.943c1.168,0.738,3.118-0.439,3.667,1.809c-2.496,0.145-4.867,0.305-7.241,0.402
			c-0.781,0.033-1.477-0.271-2.021-1.109C84.455,121.109,86.559,119.016,87.765,115.835z"/>
		<path style="fill-rule:evenodd;clip-rule:evenodd;" d="M108.666,163.088c0.987-0.228,1.65-0.366,2.305-0.533
			c1.368-0.348,1.736-1.452,0.88-2.692c-1.302,0.242-2.186,1.687-3.746,1.357c-0.051-0.228-0.126-0.454-0.149-0.686
			c-0.149-1.465-0.099-1.583,1.227-2.206c1.12-0.526,2.253-1.056,3.552-0.696c0.816,0.226,1.339,0.658,1.271,1.606
			c-0.027,0.392,0.046,0.798,0.126,1.188c0.2,0.98,0.136,1.906-0.519,2.763c0.295,0.525,0.533,1.08,0.886,1.547
			c0.719,0.95,0.55,1.863-0.004,2.782c-1.009,1.674-3.659,2.73-5.56,2.231c-1.453-0.382-2.043-1.2-2.01-2.847
			c0.634-0.312,1.121,0.066,1.621,0.375c0.135,0.084,0.266,0.178,0.396,0.27c1.535,1.07,2.071,0.931,2.904-0.757
			c0.372-0.755,0.07-1.433-0.744-1.632c-0.19-0.047-0.397-0.027-0.597-0.037c-0.452-0.023-1.173,0.115-1.304-0.101
			C108.885,164.492,108.841,163.8,108.666,163.088z"/>
		<path style="fill-rule:evenodd;clip-rule:evenodd;" d="M131.88,71.366c1.461,1.052,1.9,2.396,2.022,3.856
			c0.185,2.2-0.146,4.362-0.617,6.599c-0.403,0.022-0.784,0.042-1.257,0.068c-0.664-2.078-0.754-4.159-0.635-6.607
			c-1.083,0.687-1.952,1.239-2.818,1.788c-0.779-1.029-0.806-1.822,0.164-2.855C129.687,73.205,130.79,72.342,131.88,71.366z"/>
	</g>
</g>
<g id="Layer_1">
</g>
</svg>
