<?xml version="1.0" encoding="UTF-8" standalone="no"?>
<!DOCTYPE svg PUBLIC "-//W3C//DTD SVG 1.1//EN" "http://www.w3.org/Graphics/SVG/1.1/DTD/svg11.dtd">
<svg width="100%" height="100%" viewBox="0 0 233 406" version="1.1" xmlns="http://www.w3.org/2000/svg" xmlns:xlink="http://www.w3.org/1999/xlink" xml:space="preserve" xmlns:serif="http://www.serif.com/" style="fill-rule:evenodd;clip-rule:evenodd;stroke-linejoin:round;stroke-miterlimit:2;">
    <g id="KAmgGp">
        <path d="M62.5,168.7C59.79,168.31 57.17,167.96 54.57,167.53C54.35,167.49 54.21,166.97 53.88,166.43C56.85,165.92 59.75,167.08 62.4,165.96C62.4,161.31 62.39,156.73 62.4,152.14C62.4,149.95 62.58,147.75 62.51,145.57C62.42,142.91 62.11,140.26 61.95,137.61C61.81,135.24 61.73,132.87 61.63,130.49C61.62,130.25 61.64,130.01 61.63,129.77C61.58,127.08 61.58,127.12 58.95,127.19C58.01,127.22 57.03,127.12 56.12,126.86C55.73,126.75 55.5,126.08 55.2,125.67C55.61,125.38 55.99,124.91 56.44,124.83C57.69,124.61 58.97,124.52 60.24,124.44C61.19,124.38 61.49,123.89 61.49,122.99C61.49,121.58 61.59,120.16 61.67,118.75C61.79,116.46 61.97,114.17 62.05,111.87C62.12,109.73 62.08,107.58 62.11,105.44C62.14,102.59 62.19,99.73 62.22,96.88C62.24,95.14 62.22,93.39 62.22,91.29C60.14,91.29 58.09,91.24 56.04,91.31C54.9,91.35 54.41,90.85 54.41,89.79C54.41,88.06 54.48,86.34 54.41,84.61C54.37,83.45 54.97,83.13 55.94,83.13C59.45,83.13 62.96,83.15 66.47,83.1C68.26,83.07 70.04,82.85 71.82,82.8C73.4,82.75 74.99,82.85 76.57,82.83C79.55,82.81 82.53,82.72 85.51,82.72C89.29,82.71 93.08,82.74 96.86,82.77C101.23,82.81 105.6,82.9 109.97,82.91C113.75,82.91 117.54,82.77 121.32,82.81C125.55,82.86 129.78,83.08 134.01,83.15C136.06,83.18 138.11,82.98 140.16,83.02C143.65,83.09 147.13,83.3 150.61,83.38C152.19,83.42 153.78,83.2 155.36,83.23C158.17,83.27 160.97,83.49 163.77,83.49C166.53,83.49 169.3,83.32 172.06,83.23C172.37,83.23 172.68,83.28 173.21,83.33C173.21,85.24 173.19,87.11 173.21,88.98C173.25,91.32 172.61,91.91 170.27,91.84C168.08,91.77 165.88,91.83 163.54,91.83L163.54,123.42C164.45,123.51 165.31,123.64 166.17,123.66C168.23,123.71 170.29,123.69 172.35,123.71C172.95,123.71 173.73,123.47 173.87,124.41C173.96,125.04 172.89,125.95 172.2,125.92C169.69,125.84 167.18,125.78 164.67,125.66C163.96,125.63 163.7,125.74 163.71,126.56C163.72,128.3 163.44,130.04 163.51,131.77C163.61,134.37 163.99,136.97 164.11,139.57C164.17,140.99 163.88,142.42 163.85,143.85C163.82,145.14 163.97,146.44 163.98,147.73C163.98,150.24 163.94,152.75 163.93,155.26C163.92,158.28 163.93,161.29 163.93,164.61C165.71,164.61 167.2,164.64 168.69,164.6C169.67,164.57 170.66,164.34 171.64,164.37C172.05,164.37 172.7,164.73 172.81,165.07C173.09,165.91 172.36,167.02 171.56,167.04C169.21,167.09 166.86,167.06 164.31,167.06C164.31,169 164.26,170.91 164.32,172.82C164.38,174.77 164.55,176.71 164.67,178.78C167.16,179.55 168.78,181.43 169.96,183.7C170.71,185.15 170.52,186.71 169.94,188.2C169.73,188.75 169.37,189.23 169.14,189.78C168.52,191.24 167.47,192.29 166,192.79C164.85,193.18 164.76,193.94 164.83,194.92C164.99,197.13 165.14,199.35 165.25,201.56C165.3,202.55 165.27,203.55 165.23,204.54C165.2,205.23 165.39,205.54 166.16,205.54C167.51,205.54 168.87,205.66 170.22,205.77C170.68,205.81 171.18,205.91 171.58,206.13C171.86,206.28 172.17,206.7 172.14,206.97C172.11,207.26 171.75,207.65 171.45,207.75C171.02,207.88 170.52,207.81 170.05,207.79C168.67,207.74 167.28,207.66 165.9,207.63C164.99,207.61 165.06,208.34 165.06,208.92C165.03,211.79 165.06,214.67 165.03,217.54C164.97,222.68 164.88,227.81 164.83,232.94C164.83,234.13 165.03,235.33 165.03,236.52C165.02,238.78 164.92,241.05 164.85,243.31C164.78,245.55 165.42,246.18 167.68,246.01C168.27,245.96 168.89,245.66 169.44,245.76C170.06,245.87 170.95,246.17 171.15,246.64C171.49,247.42 170.64,247.68 170,247.78C169.07,247.92 168.13,247.99 167.19,248.03C166.58,248.06 165.96,247.97 165.28,247.94C165.28,249.91 165.29,251.73 165.28,253.55C165.25,257.66 165.14,261.77 165.2,265.87C165.25,269.62 165.49,273.36 165.64,277.11C165.73,279.38 165.84,281.65 165.9,283.92C165.92,284.73 166.23,285.07 167.06,285.02C168.16,284.95 169.26,284.93 170.36,284.95C170.7,284.95 171.14,285.04 171.37,285.26C171.72,285.6 171.92,286.08 172.19,286.5C171.72,286.7 171.26,287.04 170.78,287.06C169.26,287.13 167.74,287.09 166.05,287.09C166.05,287.5 166.03,287.88 166.05,288.27C166.32,293.61 166.64,298.95 166.87,304.29C167.04,308.24 167.09,312.19 167.18,316.14C167.23,317.98 167.27,319.81 167.3,321.65C167.3,322.31 167.6,322.6 168.25,322.56C169.05,322.52 169.85,322.4 170.64,322.49C171,322.53 171.32,322.97 171.66,323.23C171.31,323.64 170.96,324.05 170.59,324.45C170.55,324.49 170.44,324.45 170.36,324.45C167.08,324.57 166.99,324.57 166.96,327.91C166.93,331.9 167.07,335.9 167.14,339.9C167.14,340.02 167.16,340.14 167.17,340.26C167.29,342.48 167.21,342.55 164.74,342.23L164.74,324.61C162.13,324.61 159.51,324.56 156.89,324.62C154.3,324.68 151.72,324.86 149.02,324.99L149.02,329.62C149.02,331.05 148.97,332.47 148.98,333.9C148.99,335.86 148.98,337.82 149.08,339.78C149.13,340.8 148.63,341.14 147.76,341.15C146.87,341.15 146.78,340.5 146.79,339.82C146.84,336.87 146.97,333.91 146.93,330.96C146.9,328.98 146.65,327 146.5,324.94C140.51,325.07 134.59,325.2 128.64,325.34C127.8,330.46 128.18,335.53 128.36,340.67C127.82,340.76 127.35,340.97 126.98,340.86C126.65,340.76 126.19,340.34 126.17,340.03C125.8,335.34 125.65,330.65 126.17,325.96C126.19,325.77 126.14,325.58 126.1,325.16C123.56,325.16 121.06,325.12 118.56,325.16C115.09,325.22 111.62,325.39 108.15,325.42C107.1,325.42 106.79,325.72 106.8,326.78C106.85,331.4 106.82,336.03 106.82,340.65C106.3,340.75 105.95,340.83 105.59,340.87C104.93,340.95 104.51,340.72 104.5,339.98C104.5,338.63 104.46,337.29 104.46,335.94L104.46,325.45L84.45,325.45L84.45,341.01C83.92,341.04 83.23,341.07 82.45,341.11C82.32,335.88 82.19,330.75 82.06,325.52C81.47,325.46 80.96,325.35 80.46,325.36C77.31,325.41 74.16,325.53 71.01,325.55C69.58,325.55 68.14,325.46 66.71,325.3C65.58,325.17 65.28,325.55 65.3,326.67C65.36,331.56 65.33,336.45 65.33,341.5C64.64,341.57 63.91,341.65 63,341.75L63,325.32C62.25,325.24 61.6,325.27 61.03,325.08C60.48,324.89 59.81,324.6 59.54,324.14C59.07,323.34 59.74,322.56 60.68,322.68C61.34,322.77 62,322.91 62.77,323.04C62.83,322.46 62.92,322 62.92,321.54C62.9,312.64 62.87,303.74 62.84,294.84C62.84,292.48 62.74,290.13 62.8,287.77C62.83,286.73 62.43,286.43 61.5,286.46C60.9,286.48 60.29,286.46 59.71,286.34C59.28,286.25 58.89,285.96 58.48,285.76C58.51,285.59 58.54,285.41 58.56,285.24C59.55,285.13 60.55,284.89 61.54,284.93C62.62,284.97 62.82,284.47 62.81,283.58C62.77,278.32 62.73,273.06 62.71,267.8C62.69,261.71 62.71,255.62 62.71,249.53C62.71,249.3 62.64,249.06 62.59,248.78C61.28,248.7 59.99,248.62 58.69,248.53C58.38,248.51 58.03,248.49 57.78,248.34C57.34,248.08 56.54,247.87 56.99,247.17C57.2,246.84 57.89,246.7 58.37,246.69C59.59,246.66 60.82,246.82 62.03,246.73C62.3,246.71 62.73,245.99 62.73,245.59C62.75,238.26 62.73,230.93 62.68,223.61C62.66,220.75 62.48,217.88 62.43,215.02C62.4,213.44 62.48,211.85 62.57,210.28C62.62,209.33 62.32,209 61.31,208.89C59.37,208.68 57.46,208.24 55.41,207.88C55.84,206.76 56.66,206.83 57.43,206.92C58.65,207.06 59.87,207.29 61.09,207.42C61.54,207.47 62.01,207.34 62.52,207.29L62.52,168.73L62.5,168.7ZM98.4,323.24L98.4,323.01L103.55,323.01C104.19,323.01 104.44,322.8 104.43,322.08C104.39,319.97 104.46,317.86 104.49,315.76C104.55,312.38 104.65,309 104.67,305.61C104.68,303.1 104.61,300.59 104.56,298.09C104.49,294.7 104.4,291.32 104.32,287.93C104.3,287 103.87,286.63 102.91,286.72C101.91,286.82 100.89,286.83 99.88,286.82C95.28,286.77 90.68,286.72 86.08,286.61C85.08,286.59 84.73,286.86 84.78,287.88C84.92,290.71 85.1,293.54 85.05,296.37C85,299.36 84.65,302.34 84.56,305.33C84.47,308.28 84.58,311.23 84.51,314.17C84.44,316.68 84.27,319.18 84.08,321.68C84.01,322.6 84.43,322.73 85.19,322.73C87.42,322.71 89.66,322.69 91.89,322.78C94.07,322.87 96.24,323.08 98.41,323.24L98.4,323.24ZM122.38,164.77C122.38,164.09 122.39,163.69 122.38,163.3C122.23,159.56 122.05,155.81 121.94,152.07C121.86,149.68 121.88,147.29 121.85,144.91C121.8,141.17 121.73,137.44 121.72,133.7C121.72,131.43 121.82,129.16 121.82,126.89C121.82,126.41 121.98,125.67 121.07,125.68C118.28,125.71 115.5,125.71 112.71,125.79C110.25,125.87 107.8,126.13 105.34,126.15C103.16,126.17 103.23,126.19 103.15,128.3C103,131.95 103.2,135.62 103.15,139.28C103.12,141.35 103.05,143.4 103.34,145.48C103.61,147.39 103.49,149.36 103.54,151.3C103.65,155.51 103.76,159.72 103.86,163.93C103.88,164.72 104.11,165 105.01,164.96C108.32,164.83 111.63,164.81 114.94,164.78C117.36,164.76 119.79,164.78 122.4,164.78L122.38,164.77ZM142.69,125.59C139.23,125.59 136.13,125.6 133.03,125.59C130.4,125.58 127.76,125.55 125.13,125.5C124.5,125.49 124.14,125.64 124.14,126.34C124.12,128.81 124.06,131.28 124.05,133.74C124.05,138.18 123.99,142.63 124.09,147.07C124.2,151.8 124.47,156.52 124.65,161.25C124.69,162.3 124.65,163.36 124.65,164.45L142.94,164.45C142.85,151.51 142.77,138.67 142.68,125.6L142.69,125.59ZM83.67,167.56L83.67,206.67L102.18,206.67C101.93,193.45 101.68,180.47 101.44,167.56L83.67,167.56ZM101.35,165.12C101.06,152.09 100.78,139.31 100.5,126.43C100.46,126.43 100.23,126.37 100,126.37L85.52,126.37C83.31,126.37 83.24,126.37 83.11,128.51C82.96,130.96 82.95,133.43 82.9,135.88C82.88,136.86 82.9,137.84 82.93,138.82C82.98,141.15 83.03,143.47 83.1,145.8C83.14,147.37 83.21,148.93 83.24,150.49C83.29,153.5 83.34,156.51 83.37,159.52C83.39,161.33 83.37,163.13 83.37,165.1L101.35,165.1L101.35,165.12ZM102.86,245.5C102.86,243.58 102.88,241.73 102.86,239.88C102.81,236.06 102.81,232.24 102.66,228.42C102.54,225.32 102.15,222.22 102.01,219.12C101.86,215.9 101.85,212.68 101.84,209.46C101.84,208.69 101.56,208.47 100.87,208.49C98.35,208.55 95.83,208.62 93.31,208.65C90.7,208.68 88.1,208.69 85.49,208.69C84.43,208.69 83.61,208.8 83.68,210.23C83.75,211.78 83.59,213.34 83.57,214.89C83.53,218.69 83.41,222.49 83.51,226.29C83.66,231.56 83.97,236.83 84.25,242.09C84.31,243.22 84.55,244.34 84.72,245.51L102.86,245.51L102.86,245.5ZM124.95,286.91L123.04,286.91C120.5,286.87 117.97,286.79 115.43,286.78C112.93,286.77 110.42,286.87 107.92,286.8C106.27,286.76 106.11,286.88 106.26,288.54C106.41,290.16 106.5,291.79 106.54,293.42C106.58,295.01 106.49,296.6 106.54,298.18C106.64,301.29 106.92,304.39 106.92,307.5C106.92,312.37 106.77,317.23 106.63,322.1C106.6,323.04 106.95,323.28 107.8,323.24C109.95,323.14 112.11,323.03 114.27,323.02C117.89,323 121.51,323.04 125.14,323.05C125.83,323.05 126.26,322.84 126.23,322.01C126.13,319.35 126.14,316.68 126.03,314.01C125.86,309.88 125.6,305.75 125.44,301.62C125.25,296.78 125.11,291.93 124.95,286.91ZM123.69,245.43C123.2,232.87 122.72,220.41 122.23,207.81C116.27,207.94 110.36,208.06 104.36,208.19C104.36,210.69 104.34,212.86 104.36,215.04C104.41,219.21 104.45,223.39 104.56,227.56C104.63,229.98 104.92,232.39 104.97,234.81C105.04,238.31 104.99,241.8 104.99,245.42L123.69,245.42L123.69,245.43ZM127.17,247.67C127.24,251.05 127.31,254.14 127.38,257.23C127.38,257.59 127.36,257.94 127.34,258.3C127.23,260.83 127.02,263.36 127.03,265.89C127.03,268.56 127.3,271.22 127.35,273.89C127.41,277.31 127.35,280.74 127.38,284.16C127.38,284.41 127.78,284.85 128.01,284.86C129.6,284.93 131.19,284.93 132.78,284.92C135.24,284.91 137.7,284.84 140.17,284.85C141.71,284.85 143.26,284.98 144.8,285.06C145.5,285.09 145.69,284.77 145.64,284.1C145.43,281.52 145.14,278.93 145.11,276.35C145.08,273.68 145.47,271 145.38,268.34C145.29,265.7 145.49,263.04 144.8,260.4C144.43,258.97 144.83,257.35 144.85,255.82C144.87,253.48 144.9,251.14 144.83,248.8C144.81,248.19 144.7,247.6 143.63,247.64C140.39,247.77 137.14,247.68 133.89,247.68L127.17,247.68L127.17,247.67ZM127.3,286.95C127.3,289.17 127.23,291.15 127.31,293.13C127.55,299.01 127.85,304.9 128.11,310.78C128.27,314.33 128.44,317.87 128.54,321.42C128.59,323.1 128.51,323.11 130.11,323.09C135.22,323.03 140.33,322.95 145.43,322.89C146.49,322.88 146.95,322.4 146.89,321.36C146.62,316.15 146.38,310.94 146.1,305.73C145.82,300.56 144.82,295.42 145.55,290.21C145.69,289.18 145.57,288.11 145.57,286.94L127.3,286.94L127.3,286.95ZM65.01,168.03C65.01,170.25 64.99,172.26 65.01,174.27C65.06,178.37 65.19,182.46 65.18,186.56C65.17,190.19 64.96,193.83 64.92,197.46C64.89,200.16 65.02,202.86 65,205.56C64.99,207.3 64.92,207.29 66.72,207.25C71.09,207.16 75.45,207.08 79.82,207C81.57,206.97 81.54,206.99 81.51,205.32C81.45,202.28 81.39,199.24 81.4,196.2C81.42,192.13 81.53,188.05 81.55,183.98C81.57,181.2 81.5,178.42 81.49,175.64C81.48,173 81.49,170.36 81.49,167.58C75.85,167.73 70.45,167.88 65.03,168.03L65.01,168.03ZM103.81,167.39C104.04,180.45 104.27,193.35 104.5,206.36C106.25,206.22 107.9,206 109.55,205.99C113.44,205.97 117.33,206.02 121.22,206.11C122.32,206.13 122.7,205.73 122.69,204.66C122.67,202.63 122.76,200.6 122.78,198.58C122.8,197.36 122.78,196.13 122.78,195.31C121.15,194.53 119.68,194 118.41,193.17C116.15,191.7 114.79,187.6 115.87,185.45C117.44,182.34 119.19,179.31 123.19,178.82C122.97,175.12 122.75,171.51 122.56,167.89C122.51,166.99 121.92,167.13 121.38,167.13C118.19,167.14 115.01,167.15 111.82,167.2C109.21,167.24 106.59,167.33 103.8,167.41L103.81,167.39ZM161.59,164.45C161.42,151.53 161.25,138.64 161.08,125.56L144.76,125.56C144.93,138.61 145.09,151.53 145.26,164.45L161.59,164.45ZM64.45,127.24C64.62,140.24 64.8,153.01 64.97,165.89C66.54,165.78 67.97,165.64 69.39,165.58C72.97,165.44 76.56,165.33 80.15,165.23C80.86,165.21 81.37,165.09 81.35,164.18C81.31,161.4 81.34,158.61 81.29,155.83C81.27,154.6 81.11,153.38 81.06,152.15C81.04,151.57 81.16,150.98 81.14,150.4C81.08,148.71 80.93,147.02 80.9,145.33C80.83,142.19 80.8,139.06 80.79,135.92C80.79,134.06 80.85,132.21 80.87,130.35C80.88,129.06 80.87,127.77 80.87,126.55C75.29,126.78 69.93,127 64.44,127.23L64.45,127.24ZM65.3,248.48C65.3,252.17 65.34,255.74 65.29,259.32C65.24,263.3 65.05,267.28 65.02,271.26C64.99,275.33 65.1,279.4 65.1,283.47C65.1,284.42 65.35,284.8 66.4,284.79C69.91,284.75 73.41,284.82 76.92,284.84C78.7,284.85 80.48,284.84 82.5,284.84L82.5,279.73C82.49,277.98 82.44,276.24 82.44,274.49C82.44,271.76 82.54,269.02 82.49,266.29C82.44,263.37 82.26,260.45 82.15,257.52C82.12,256.65 82.16,255.78 82.16,254.91L82.16,248.47L65.29,248.47L65.3,248.48ZM82.13,322.61C82.13,319.64 82.1,316.9 82.13,314.17C82.18,310.12 82.26,306.07 82.33,302.02C82.38,299.08 82.43,296.13 82.46,293.19C82.48,291.33 82.46,289.47 82.44,287.61C82.44,286.79 82.01,286.58 81.19,286.61C78.5,286.68 75.81,286.65 73.12,286.65C70.77,286.65 68.43,286.63 66.09,286.58C65.4,286.56 65.18,286.81 65.2,287.48C65.24,288.63 65.2,289.79 65.2,290.94C65.2,294.65 65.16,298.37 65.18,302.08C65.21,307.07 65.28,312.06 65.32,317.05C65.34,318.95 65.32,320.85 65.32,322.62L82.12,322.62L82.13,322.61ZM105.1,248.01C105.1,251.31 105.08,254.41 105.13,257.51C105.13,257.75 105.54,258.15 105.8,258.19C107.17,258.42 108.07,259.33 108.78,260.36C109.91,262.01 111.43,263.52 111.23,265.78C111.15,266.61 111.08,267.44 110.94,268.26C110.59,270.33 109.71,272.02 107.92,273.3C107.1,273.89 105.83,274.27 105.94,275.83C106.1,278.21 106.06,280.61 106.04,283C106.03,284.65 105.98,284.65 107.56,284.79C108,284.83 108.44,284.87 108.87,284.87L119.84,284.87C121.04,284.87 122.23,284.91 123.43,284.95C124.93,285 125.08,284.88 125.08,283.37C125.08,282.49 124.96,281.62 124.97,280.74C125.02,277.04 125.21,273.34 125.13,269.65C125.03,265.08 124.74,260.51 124.5,255.94C124.38,253.59 124.18,251.25 124.03,248.9C123.97,247.95 123.56,247.68 122.56,247.74C119.91,247.91 117.25,247.95 114.59,247.98C111.42,248.02 108.24,247.98 105.1,247.98L105.1,248.01ZM65.15,246.18C66.76,246.18 68.22,246.21 69.68,246.18C73.46,246.08 77.23,245.94 81.01,245.85C81.8,245.83 82.07,245.53 82.03,244.77C81.94,243.23 81.92,241.69 81.85,240.15C81.71,237.38 81.46,234.6 81.43,231.83C81.38,227.8 81.5,223.76 81.52,219.73C81.54,216.24 81.52,212.75 81.52,209.16L65.15,209.16L65.15,246.2L65.15,246.18ZM81.92,91.38C82.02,93 82.11,94.46 82.21,95.92C82.47,99.62 82.75,103.32 82.98,107.02C83.07,108.4 83,109.79 83.05,111.18C83.13,113.38 83.29,115.58 83.33,117.78C83.36,119.32 83.24,120.86 83.2,122.4C83.18,123.17 83.19,123.67 84.34,123.63C87.66,123.49 91,123.57 94.33,123.59C96.2,123.6 98.06,123.67 99.93,123.73C100.55,123.75 100.9,123.57 100.94,122.88C101.02,121.43 101.2,119.98 101.24,118.53C101.34,114.71 101.38,110.89 101.44,107.08C101.45,106.23 101.42,105.37 101.46,104.52C101.5,103.71 101.68,102.9 101.66,102.1C101.6,100.1 101.43,98.11 101.36,96.12C101.31,94.71 101.36,93.29 101.36,91.8C94.87,91.66 88.47,91.52 81.94,91.38L81.92,91.38ZM143,91.27L137.48,91.27C133.57,91.29 129.67,91.33 125.76,91.36C125.2,91.36 124.74,91.38 124.73,92.15C124.67,96.07 124.58,99.98 124.52,103.9C124.43,109.75 124.36,115.6 124.28,121.45L124.28,123.38C130.23,123.49 136.07,123.6 141.91,123.67C142.15,123.67 142.59,123.23 142.6,122.98C142.63,122.13 142.46,121.27 142.46,120.42C142.46,117.3 142.48,114.19 142.52,111.07C142.56,107.77 142.62,104.46 142.69,101.16C142.72,99.32 142.76,97.47 142.82,95.63C142.86,94.29 142.93,92.95 143.01,91.28L143,91.27ZM122.28,91.66C120.75,91.52 119.37,91.26 118,91.29C113.33,91.4 108.67,91.6 104,91.82C103.71,91.83 103.2,92.31 103.21,92.56C103.23,94.06 103.36,95.56 103.49,97.05C103.69,99.33 104.06,101.61 104.09,103.9C104.12,106.07 103.73,108.24 103.67,110.41C103.61,112.78 103.74,115.14 103.76,117.51C103.78,119.5 103.76,121.5 103.76,123.45L121.73,123.45C121.91,112.82 122.09,102.25 122.28,91.65L122.28,91.66ZM147.62,279.08L147.69,279.08C147.83,280.78 147.93,282.48 148.13,284.17C148.16,284.46 148.58,284.92 148.85,284.94C149.91,285.04 150.99,285 152.06,284.99C155,284.99 157.94,284.91 160.87,284.97C163.54,285.03 163.5,285.09 163.41,282.55C163.29,279.16 163.24,275.77 163.15,272.38C163.02,267.67 162.87,262.97 162.74,258.27C162.65,255.09 162.57,251.91 162.54,248.73C162.54,247.82 162.21,247.57 161.33,247.61C159.14,247.7 156.95,247.73 154.77,247.72C152.37,247.72 149.97,247.68 147.57,247.58C146.86,247.55 146.76,247.83 146.8,248.41C146.89,249.68 147.02,250.95 147.01,252.22C146.99,254.16 146.79,256.1 146.83,258.03C146.85,258.92 147.38,259.78 147.45,260.68C147.59,262.7 147.61,264.74 147.62,266.77C147.64,270.87 147.62,274.97 147.62,279.07L147.62,279.08ZM125.35,205.77C131.19,205.59 136.98,205.42 142.6,205.25L142.6,166.88L124.98,166.88C124.88,167.03 124.84,167.06 124.84,167.1C125.09,170.91 125.33,174.73 125.6,178.54C125.62,178.77 125.82,179.05 126.02,179.18C126.82,179.67 127.68,180.05 128.46,180.57C130.49,181.91 131.81,183.52 131.87,186.26C131.93,188.88 128.85,193.1 126.63,193.82C125.75,194.1 125.17,194.5 125.36,195.6C125.49,196.32 125.35,197.09 125.35,197.84L125.35,205.77ZM126.63,245.23C127.48,245.3 128.15,245.41 128.82,245.4C130.99,245.36 133.15,245.23 135.32,245.22C138.08,245.21 140.84,245.22 143.59,245.35C144.48,245.39 144.6,245.21 144.53,244.41C144.25,240.81 144.02,237.22 143.79,233.62C143.75,233.05 143.79,232.47 143.79,231.86C141.77,232.15 139.97,232.08 138.5,230.93C135.88,228.88 135.03,226.13 135.85,222.93C136.43,220.67 137.35,218.58 139.43,217.25C140.55,216.54 141.68,215.85 142.93,215.08C142.93,212.89 142.88,210.56 142.95,208.23C142.98,207.3 142.48,207.28 141.84,207.31C141.13,207.34 140.43,207.41 139.72,207.41C138.34,207.39 136.96,207.25 135.58,207.31C132.38,207.46 129.19,207.73 125.99,207.9C125.22,207.94 124.9,208.21 124.95,208.98C125.02,210.01 125.07,211.05 125.1,212.08C125.17,214.63 125.13,217.18 125.29,219.72C125.51,223.26 125.95,226.78 126.13,230.32C126.38,235.24 126.47,240.17 126.63,245.25L126.63,245.23ZM161.89,178.52C161.77,174.75 161.65,170.97 161.52,166.95L145.43,166.95C145.25,169.03 144.96,170.99 144.92,172.95C144.85,176.61 144.9,180.28 144.92,183.94C144.94,187.51 144.99,191.08 145.03,194.65C145.06,197.59 145.07,200.53 145.13,203.47C145.17,205.34 145.45,205.55 147.3,205.54C150.19,205.53 153.09,205.56 155.98,205.57L162.14,205.57C162.24,204.62 162.42,203.87 162.39,203.13C162.28,200.61 162.11,198.1 161.91,195.58C161.89,195.28 161.51,194.77 161.26,194.75C158.99,194.55 157.32,193.33 156.22,191.51C155.43,190.18 154.67,188.59 154.64,187.1C154.57,183.47 157.02,178.82 161.87,178.51L161.89,178.52ZM163.64,287.22C161.74,287.12 159.96,286.98 158.18,286.95C156.73,286.93 155.28,287.07 153.83,287.08C152.21,287.1 150.58,287.03 148.96,287.08C148.65,287.09 148.09,287.5 148.09,287.73C148.05,290.42 148.04,293.12 148.13,295.81C148.23,298.58 148.47,301.34 148.61,304.1C148.68,305.52 148.62,306.95 148.67,308.38C148.74,310.87 148.82,313.36 148.94,315.85C149.05,318.13 149.24,320.4 149.4,322.82C154.58,322.64 159.66,322.47 165.05,322.29C164.58,310.55 164.11,298.9 163.64,287.21L163.64,287.22ZM102.55,248.25C101.01,248.25 99.6,248.29 98.19,248.25C94.3,248.12 90.42,247.93 86.54,247.81C84.69,247.75 84.61,247.81 84.55,249.7C84.49,251.4 84.64,253.11 84.68,254.82C84.74,257.45 84.8,260.08 84.82,262.7C84.82,264.37 84.68,266.05 84.74,267.72C84.9,272.1 85.17,276.48 85.33,280.86C85.38,282.15 85.19,283.44 85.1,284.85L104.03,284.85L104.03,275.4C102.96,275.4 101.97,275.39 100.98,275.4C98.02,275.44 94.32,271.78 94.32,268.81C94.32,266.6 94.93,264.64 96.21,262.8C97.45,261.03 98.91,259.63 100.86,258.75C102.94,257.81 103.1,257.43 102.83,254.85C102.64,253.11 102.57,251.36 102.48,249.62C102.45,249.13 102.54,248.63 102.57,248.25L102.55,248.25ZM81.28,123.67C81.22,122.88 81.15,122.49 81.16,122.09C81.19,118.48 81.28,114.86 81.25,111.25C81.22,108.03 81.02,104.82 80.98,101.61C80.94,98.51 81,95.41 81.02,92.31C81.02,91.7 80.89,91.36 80.15,91.37C74.95,91.4 69.75,91.38 64.54,91.38L64.54,124.19C70.16,124.01 75.67,123.84 81.27,123.66L81.28,123.67ZM162.35,207.57L145.48,207.57C145.34,209.7 145.15,211.71 145.13,213.72C145.13,214.22 145.55,214.87 145.97,215.21C146.91,215.96 148.13,216.4 148.95,217.24C150.19,218.5 151.31,219.91 151.62,221.79C152.17,225.13 149.95,228.89 146.74,230.6C146.43,230.77 146.11,231.28 146.12,231.63C146.25,236.17 146.43,240.71 146.61,245.41L162.35,245.41L162.35,207.56L162.35,207.57ZM145.32,91.58C145.14,93.2 144.85,94.84 144.8,96.49C144.73,98.76 144.85,101.03 144.86,103.3C144.86,105.39 144.84,107.48 144.8,109.57C144.75,112.34 144.66,115.1 144.62,117.87C144.59,119.72 144.62,121.56 144.62,123.4L161.13,123.4L161.13,91.57L145.32,91.57L145.32,91.58Z" style="fill-rule:nonzero;"/>
        <path d="M95.56,48.14C95.56,50.04 95.53,51.89 95.6,53.73C95.6,53.99 96.11,54.44 96.39,54.45C98.32,54.49 100.26,54.54 102.17,54.36C103.43,54.24 104.72,53.9 105.89,53.4C106.96,52.94 107.11,54.08 107.79,54.2C107.64,54.73 107.65,55.57 107.31,55.74C106.35,56.23 105.28,56.64 104.22,56.73C102.38,56.88 100.51,56.69 98.66,56.8C97.69,56.86 96.71,57.17 95.78,57.49C93.81,58.17 92.77,57.43 92.8,55.32C92.81,54.33 92.74,53.34 92.66,52.36C92.51,50.56 92.23,48.76 92.19,46.95C92.13,44.58 92.17,42.2 92.29,39.84C92.37,38.11 92.96,37.89 94.66,37.94C96.51,37.99 98.38,37.72 100.24,37.53C101.35,37.42 102.46,37.25 103.55,37.05C103.96,36.98 104.33,36.7 104.73,36.61C105.13,36.52 105.65,36.39 105.93,36.57C106.2,36.75 106.35,37.31 106.31,37.68C106.19,38.93 105.09,39.81 103.41,39.95C100.45,40.2 97.48,40.38 94.44,40.59C94.65,42.25 94.89,44.05 95.14,46.02C96.65,45.79 98.05,45.59 99.44,45.37C100.4,45.22 101.35,44.93 102.31,44.92C102.71,44.92 103.47,45.45 103.47,45.73C103.47,46.43 103.62,47.47 102.55,47.63C101.3,47.82 100.02,47.85 98.75,47.94C97.69,48.01 96.63,48.07 95.57,48.13L95.56,48.14Z" style="fill-rule:nonzero;"/>
        <path d="M98.71,72.6C98.58,70.9 98.48,69.19 98.32,67.49C98.2,66.2 98.55,65.82 99.84,65.89C102.98,66.06 105.96,66.9 108.75,68.32C110.62,69.27 112.22,72.99 110.56,75.63C109.47,77.36 108.05,78.41 106.38,79.06C104.56,79.77 102.57,80.39 100.53,79.83C99.4,79.52 98.85,78.67 98.79,77.51C98.7,75.88 98.62,74.25 98.53,72.62C98.59,72.62 98.65,72.62 98.71,72.61L98.71,72.6ZM100.81,67.55C100.72,67.68 100.64,67.82 100.55,67.95C100.62,68.33 100.71,68.71 100.76,69.09C101.08,71.65 101.41,74.2 101.69,76.76C101.76,77.39 101.95,77.79 102.63,77.62C103.86,77.32 105.14,77.12 106.27,76.6C109.82,74.94 109.11,71.64 107.16,70.4C105.22,69.17 102.94,68.47 100.81,67.54L100.81,67.55Z" style="fill-rule:nonzero;"/>
        <path d="M126.16,75.49C124.84,75.23 123.55,75.02 122.3,74.69C121.88,74.58 121.54,74.13 121.17,73.84C121.53,73.51 121.85,72.96 122.25,72.9C123.46,72.74 124.7,72.75 125.92,72.74C126.96,72.74 128,72.72 129.03,72.83C129.43,72.87 130.02,73.17 130.13,73.49C130.25,73.82 130,74.59 129.73,74.7C128.11,75.35 128.22,76.52 128.54,77.87C128.71,78.6 128.8,79.37 128.76,80.12C128.74,80.46 128.38,80.88 128.06,81.07C127.87,81.19 127.31,81.05 127.17,80.85C126.74,80.25 126.42,79.56 125.97,78.74C125.22,78.86 124.3,79.11 123.37,79.16C118.77,79.4 116.37,76.68 116.93,72.49C117.21,70.39 118.18,68.31 120.42,67.42C122.75,66.49 124.97,66.98 126.98,68.39C127.29,68.61 127.34,69.2 127.51,69.62C127.13,69.68 126.74,69.84 126.37,69.79C125.16,69.64 123.95,69.27 122.74,69.26C121,69.25 118.96,71.34 118.94,72.92C118.91,74.89 120.75,76.84 122.78,76.91C123.65,76.94 124.53,76.84 125.4,76.7C126.11,76.59 126.44,76.15 126.17,75.47L126.16,75.49Z" style="fill-rule:nonzero;"/>
        <path d="M141,73.79C141.15,75.02 141.3,76.08 141.39,77.14C141.47,77.97 141.86,79.02 140.53,79.23C139.23,79.44 138.15,78.57 138.07,77.29C137.97,75.61 137.9,73.94 137.91,72.26C137.92,70.51 138,68.75 138.17,67.01C138.21,66.58 138.73,66.19 139.03,65.79C139.38,66.22 139.93,66.61 140.04,67.1C140.31,68.34 140.41,69.62 140.53,70.89C140.6,71.65 140.88,72.02 141.74,71.97C142.73,71.92 143.73,72 144.72,72.09C145.64,72.17 145.78,71.67 145.76,70.93C145.72,69.63 145.67,68.32 145.71,67.01C145.72,66.66 146.07,66.31 146.26,65.97C146.61,66.2 146.99,66.4 147.29,66.68C147.44,66.82 147.47,67.12 147.51,67.35C148.05,70.63 148.6,73.92 149.11,77.21C149.21,77.87 149.18,78.56 149.19,79.24C149.21,80 148.9,80.78 148.11,80.63C147.38,80.5 146.21,80.6 146.12,79.34C146.03,78 145.94,76.65 145.91,75.3C145.89,74.56 145.65,74.26 144.85,74.23C143.66,74.19 142.48,73.96 141,73.78L141,73.79Z" style="fill-rule:nonzero;"/>
        <path d="M62.2,73.08C62.44,74.3 62.65,75.33 62.86,76.37C64.39,76.37 65.9,76.35 67.4,76.38C67.89,76.39 68.8,76.51 68.81,76.62C68.85,77.25 68.8,77.95 68.52,78.5C68.36,78.82 67.71,79.01 67.27,79.04C65.4,79.16 63.52,79.2 61.65,79.27C60.74,79.3 60.07,78.88 60.19,77.96C60.48,75.63 59.44,73.55 59.16,71.34C58.99,69.97 58.8,68.55 59,67.21C59.16,66.14 60.27,65.6 61.36,65.51C63.17,65.36 65,65.29 66.82,65.23C67.6,65.2 68.02,65.95 67.55,66.67C67.26,67.13 66.7,67.52 66.17,67.7C65.31,68 64.4,68.16 63.49,68.28C62.52,68.4 62.13,68.88 62.05,69.84C61.94,71.16 62.03,71.31 63.34,71.26C64.85,71.2 66.35,71.09 67.86,71.11C68.24,71.11 68.62,71.51 69,71.72C68.71,72.06 68.47,72.63 68.13,72.69C66.81,72.91 65.47,72.99 64.14,73.09C63.56,73.13 62.97,73.09 62.2,73.09L62.2,73.08Z" style="fill-rule:nonzero;"/>
        <path d="M78.29,79.79C75.83,79.14 76.24,78.45 76.84,76.78C77.16,75.88 77.41,74.96 77.75,74.08C78.77,71.49 79.81,68.9 80.87,66.32C80.97,66.07 81.38,65.68 81.47,65.72C81.91,65.92 82.44,66.16 82.66,66.55C83.76,68.54 84.68,70.63 85.86,72.57C86.55,73.71 87.65,74.57 87.67,76.09C87.67,76.54 88.14,76.99 88.43,77.42C89.03,78.32 88.81,79.26 88.31,80.01C87.91,80.61 87.16,80.55 86.72,79.89C86.26,79.2 85.84,78.47 85.53,77.7C84.84,76.02 83.89,75.57 82.04,75.55C80.39,75.53 79.81,76.47 79.31,77.73C79.03,78.42 78.66,79.08 78.3,79.79L78.29,79.79ZM81.86,70.28C81.37,71.67 80.98,72.79 80.52,74.12C81.6,74.03 82.4,73.97 83.31,73.89C82.83,72.7 82.41,71.65 81.85,70.28L81.86,70.28Z" style="fill-rule:nonzero;"/>
        <path d="M160.86,75.21C161.13,76.33 161.34,77.2 161.55,78.05C163.37,78.05 165.11,78.13 166.85,78.01C167.63,77.96 168.11,78.22 168.14,78.84C168.16,79.21 167.62,79.84 167.23,79.93C166.31,80.15 165.34,80.12 164.39,80.19C163.64,80.25 162.88,80.24 162.15,80.38C160.92,80.63 160.05,80.29 159.66,79.09C159.3,77.99 159.01,76.85 158.89,75.7C158.65,73.34 158.55,70.96 158.41,68.59C158.35,67.59 158.85,66.97 159.83,66.84C161.84,66.58 163.86,66.35 165.89,66.19C166.92,66.11 168.09,67.26 168,68.26C167.98,68.55 167.46,69.02 167.15,69.04C165.76,69.11 164.37,69.06 162.98,69.04C162.27,69.03 161.56,68.96 160.61,68.91C160.75,70.27 160.8,71.5 161.07,72.69C161.13,72.95 161.95,73.15 162.44,73.17C163.64,73.24 164.84,73.19 165.96,73.19C166.39,74.71 166.16,75.14 164.95,75.2C163.69,75.26 162.43,75.21 160.87,75.21L160.86,75.21Z" style="fill-rule:nonzero;"/>
        <path d="M111.55,51.62C111.94,51.98 112.25,52.16 112.42,52.43C113.71,54.39 116.55,54.71 118.22,54.16C118.49,54.07 118.84,53.52 118.78,53.29C118.3,51.64 117.47,50.28 115.75,49.55C114.46,49.01 113.18,48.32 112.57,46.9C112.07,45.72 112.33,44.53 113.25,43.66C114.54,42.45 117.58,41.96 119.14,42.7C120.12,43.17 120.83,44.85 120.46,45.93C120.4,46.11 120.12,46.38 120,46.35C119.76,46.29 119.42,46.08 119.39,45.89C119.12,44.37 117.94,44.76 117.03,44.8C116.04,44.84 115.03,45.07 114.61,46.3C115.59,46.89 116.59,47.44 117.52,48.08C119.76,49.63 120.59,51.93 120.79,54.53C120.87,55.51 120.22,56.15 119.41,56.21C117.68,56.35 115.91,56.41 114.18,56.22C112.57,56.04 111.13,53.54 111.54,51.6L111.55,51.62Z" style="fill-rule:nonzero;"/>
        <path d="M175.79,183.45C176.52,183.4 177.22,183.3 177.91,183.32C178.25,183.33 178.78,183.5 178.86,183.72C178.96,183.99 178.77,184.54 178.52,184.71C178.09,185.01 177.54,185.21 177.02,185.26C176.29,185.34 175.54,185.3 174.81,185.23C173.46,185.11 173.12,184.5 173.7,183.26C174.25,182.08 174.87,180.92 175.42,179.73C175.67,179.19 175.89,178.62 176,178.04C176.06,177.75 175.92,177.26 175.71,177.14C175.51,177.02 175.07,177.22 174.79,177.37C174.5,177.52 174.26,177.79 173.99,178.01C173.13,176.61 173.86,175.41 175.5,175.29C177.43,175.16 178.5,176.53 177.84,178.4C177.25,180.05 176.52,181.66 175.8,183.43L175.79,183.45Z" style="fill-rule:nonzero;"/>
        <path d="M116.81,255.18C117.18,255.18 117.53,255.1 117.8,255.2C118.11,255.32 118.44,255.55 118.58,255.83C118.65,255.97 118.38,256.46 118.17,256.54C116.64,257.15 116.78,258.44 116.81,259.7C116.81,260.06 116.93,260.44 116.84,260.77C116.71,261.24 116.44,261.67 116.23,262.11C115.81,261.55 115.2,261.05 115.03,260.43C114.84,259.7 115.09,258.87 115.03,258.09C115.01,257.83 114.62,257.56 114.34,257.39C114.16,257.28 113.87,257.37 113.63,257.36C111.8,257.31 111.63,257.14 111.76,255.36C111.86,253.89 111.94,252.42 112.13,250.96C112.18,250.54 112.59,250.17 112.83,249.77C113.01,249.83 113.2,249.9 113.38,249.96C113.29,251.2 113.12,252.44 113.15,253.67C113.18,255.13 113.05,255.72 115.04,255.36C115.13,254.11 115.23,252.83 115.33,251.53C116.62,251.5 116.55,252.29 116.58,253.07C116.61,253.77 116.73,254.47 116.82,255.19L116.81,255.18Z" style="fill-rule:nonzero;"/>
        <path d="M135.8,177.39C134.72,177.8 134.32,179.58 132.74,178.26C133.73,176.98 134.66,175.65 135.74,174.47C136.02,174.16 136.81,174.13 137.29,174.25C137.55,174.32 137.75,175 137.79,175.41C137.95,177.51 138.06,179.61 138.16,181.71C138.19,182.4 137.71,182.77 137.17,182.4C136.49,181.93 135.68,181.45 135.78,180.35C135.86,179.41 135.8,178.45 135.8,177.38L135.8,177.39Z" style="fill-rule:nonzero;"/>
        <path d="M152.89,210.29C152.87,208.78 153.8,208.49 154.65,208.24C155.87,207.89 156.93,208.38 157.5,209.42C158,210.34 157.71,211.54 156.79,212.39C157.11,213.03 157.57,213.64 157.7,214.3C158.09,216.41 156.49,218.14 154.32,218.03C153.69,218 153.03,217.92 152.46,217.68C152.16,217.55 152.02,217.03 151.81,216.69C152.17,216.53 152.52,216.27 152.89,216.25C153.55,216.2 154.24,216.39 154.89,216.3C155.26,216.25 155.86,215.83 155.86,215.58C155.86,215.11 155.52,214.62 155.27,214.18C155.19,214.05 154.9,214.06 154.73,213.96C154.38,213.75 154.04,213.52 153.7,213.29C153.97,212.93 154.21,212.54 154.53,212.23C154.87,211.9 155.4,211.71 155.62,211.32C155.81,210.99 155.84,210.33 155.62,210.08C155.38,209.8 154.79,209.7 154.36,209.73C153.93,209.76 153.51,210.04 152.87,210.29L152.89,210.29Z" style="fill-rule:nonzero;"/>
    </g>
</svg>
