<?xml version="1.0" encoding="UTF-8" standalone="no"?>
<!DOCTYPE svg PUBLIC "-//W3C//DTD SVG 1.1//EN" "http://www.w3.org/Graphics/SVG/1.1/DTD/svg11.dtd">
<svg width="100%" height="100%" viewBox="0 0 963 1280" version="1.1" xmlns="http://www.w3.org/2000/svg" xmlns:xlink="http://www.w3.org/1999/xlink" xml:space="preserve" xmlns:serif="http://www.serif.com/" style="fill-rule:evenodd;clip-rule:evenodd;stroke-linejoin:round;stroke-miterlimit:2;">
    <g transform="matrix(1.16355,0,0,1.16355,495.806,582.318)">
        <g id="Ab" transform="matrix(1,0,0,1,-336.5,-512.5)">
            <g transform="matrix(0.1,0,0,-0.1,0,1025)">
                <path d="M3332,9998C3324,9987 3312,9941 3309,9905C3305,9867 3323,9464 3331,9421C3336,9391 3340,9337 3340,9301C3340,9215 3355,9163 3388,9134C3421,9105 3438,9105 3514,9131C3598,9161 3619,9178 3677,9264C3723,9332 3728,9343 3723,9382C3716,9445 3701,9478 3669,9501C3644,9518 3631,9520 3563,9514C3520,9511 3474,9501 3462,9493C3449,9485 3435,9481 3432,9485C3422,9495 3423,9923 3433,9940C3438,9949 3437,9966 3431,9983C3422,10006 3415,10010 3381,10010C3360,10010 3338,10004 3332,9998ZM3615,9418C3692,9383 3619,9279 3472,9215C3449,9205 3428,9199 3425,9201C3423,9204 3430,9234 3440,9269C3451,9303 3460,9342 3460,9354C3460,9381 3483,9403 3525,9418C3565,9432 3584,9432 3615,9418Z" style="fill-rule:nonzero;"/>
                <path d="M2870,9914C2864,9900 2860,9880 2860,9870C2860,9860 2851,9814 2839,9768C2827,9722 2813,9660 2806,9630C2799,9600 2788,9562 2782,9547C2775,9531 2770,9516 2770,9513C2770,9510 2764,9494 2756,9477C2742,9444 2695,9295 2684,9247C2681,9232 2674,9217 2669,9214C2655,9206 2659,9164 2675,9150C2705,9125 2723,9143 2750,9224L2776,9303L2851,9326C2892,9338 2953,9355 2988,9363C3059,9380 3061,9379 3096,9295C3105,9273 3122,9233 3135,9205C3147,9178 3160,9146 3164,9134C3169,9118 3177,9114 3197,9116C3242,9121 3247,9151 3216,9222C3207,9243 3200,9264 3200,9269C3200,9274 3190,9300 3179,9327C3167,9353 3158,9389 3159,9406C3160,9429 3154,9442 3136,9454C3121,9463 3106,9487 3100,9510C3086,9563 3016,9772 2993,9831C2956,9926 2891,9970 2870,9914ZM2930,9712C2936,9692 2950,9642 2961,9601C2972,9560 2990,9511 3000,9490L3019,9453L2918,9426C2863,9411 2815,9401 2813,9404C2810,9407 2814,9424 2823,9443C2832,9461 2850,9520 2864,9574C2878,9628 2892,9676 2895,9680C2898,9685 2901,9705 2902,9724C2904,9767 2916,9762 2930,9712Z" style="fill-rule:nonzero;"/>
                <path d="M1185,8812C1119,8811 1058,8807 1050,8803C1042,8800 1029,8796 1021,8794C994,8789 979,8763 978,8719C977,8662 988,8527 996,8507C999,8499 1003,8470 1006,8443C1010,8393 1012,8378 1024,8295C1037,8211 1035,8213 1093,8216C1121,8218 1145,8219 1145,8220C1145,8221 1190,8222 1246,8223C1309,8224 1353,8230 1362,8237C1370,8244 1377,8268 1378,8289C1380,8327 1378,8329 1345,8336C1325,8339 1267,8340 1215,8336C1119,8330 1109,8333 1104,8370C1103,8378 1099,8396 1096,8409C1088,8445 1109,8465 1157,8466C1223,8468 1230,8474 1230,8524C1230,8580 1216,8589 1138,8585L1080,8582L1080,8620C1080,8669 1093,8674 1225,8675L1325,8675L1330,8710C1334,8730 1339,8751 1343,8757C1347,8763 1340,8779 1328,8792C1306,8814 1299,8815 1185,8812Z" style="fill-rule:nonzero;"/>
                <path d="M1967,8732C1946,8711 1933,8691 1936,8687C1940,8683 1936,8672 1927,8663C1919,8653 1912,8643 1912,8640C1914,8630 1816,8435 1803,8422C1796,8415 1790,8403 1790,8396C1790,8388 1783,8377 1775,8370C1767,8363 1760,8350 1760,8340C1760,8330 1754,8317 1746,8310C1738,8304 1733,8293 1736,8286C1739,8279 1734,8267 1725,8260C1701,8240 1707,8224 1745,8200C1782,8177 1800,8180 1800,8210C1800,8220 1805,8232 1810,8235C1816,8238 1820,8249 1820,8259C1820,8296 1855,8312 1947,8317C1995,8320 2043,8326 2052,8331C2063,8337 2074,8335 2085,8324C2107,8302 2142,8231 2136,8221C2128,8209 2177,8167 2200,8165C2240,8162 2288,8227 2260,8245C2244,8255 2217,8322 2219,8349C2219,8363 2215,8377 2210,8380C2200,8386 2099,8573 2066,8646C2058,8663 2047,8681 2040,8685C2033,8689 2031,8703 2035,8722C2040,8743 2038,8755 2029,8761C2008,8774 2007,8773 1967,8732ZM2014,8521C2023,8511 2030,8499 2029,8494C2027,8489 2033,8472 2040,8457C2052,8433 2052,8427 2039,8419C2023,8409 1920,8406 1920,8416C1920,8428 1983,8540 1990,8540C1994,8540 2005,8532 2014,8521Z" style="fill-rule:nonzero;"/>
                <path d="M2745,8750C2734,8745 2730,8741 2735,8740C2741,8740 2734,8733 2721,8726C2678,8702 2666,8633 2685,8515C2688,8493 2693,8441 2695,8400C2698,8359 2701,8307 2704,8285C2707,8257 2704,8242 2692,8233C2676,8222 2677,8219 2697,8198C2717,8179 2731,8175 2802,8174C2848,8173 2890,8177 2897,8182C2904,8187 2913,8189 2918,8186C2923,8183 2946,8189 2968,8200C2991,8211 3013,8220 3019,8220C3024,8220 3030,8225 3032,8230C3034,8236 3045,8242 3058,8245C3088,8250 3168,8327 3189,8370C3210,8414 3207,8467 3181,8517C3150,8576 3133,8597 3062,8658C3034,8681 2952,8725 2935,8725C2930,8725 2918,8730 2910,8735C2902,8740 2875,8745 2850,8746C2825,8748 2796,8751 2785,8754C2774,8757 2756,8755 2745,8750ZM2925,8615C3013,8584 3069,8531 3072,8477C3074,8420 3070,8406 3037,8372C3004,8337 2894,8277 2880,8285C2875,8288 2859,8285 2844,8279C2796,8261 2789,8283 2786,8482C2786,8525 2783,8560 2780,8560C2776,8560 2776,8575 2778,8594L2782,8628L2843,8625C2877,8624 2914,8619 2925,8615Z" style="fill-rule:nonzero;"/>
                <path d="M4325,8730C4334,8702 4340,8617 4345,8435C4353,8187 4352,8196 4387,8193C4438,8189 4447,8209 4449,8337C4450,8397 4442,8393 4574,8407C4627,8413 4653,8413 4656,8406C4663,8386 4667,8331 4662,8325C4659,8323 4655,8300 4654,8275C4652,8251 4649,8227 4648,8223C4647,8218 4651,8200 4657,8183C4667,8156 4674,8150 4698,8150C4727,8150 4752,8170 4763,8203C4767,8212 4766,8220 4762,8220C4751,8220 4751,8231 4747,8430C4743,8660 4735,8692 4672,8728C4647,8742 4649,8751 4646,8608C4646,8556 4640,8516 4633,8509C4620,8496 4494,8484 4458,8493C4435,8499 4434,8502 4435,8605C4436,8669 4432,8714 4426,8719C4420,8724 4402,8730 4385,8734C4369,8738 4347,8743 4337,8746C4321,8751 4319,8748 4325,8730Z" style="fill-rule:nonzero;"/>
                <path d="M3642,8727C3608,8719 3582,8701 3521,8640L3443,8563L3446,8509C3447,8479 3449,8455 3450,8455C3451,8455 3454,8443 3455,8429C3461,8380 3512,8292 3561,8245C3588,8219 3617,8197 3624,8196C3632,8195 3644,8190 3651,8184C3678,8164 3784,8167 3833,8189C3858,8201 3881,8210 3884,8210C3888,8210 3890,8190 3890,8165C3890,8121 3891,8120 3923,8121C3970,8122 4005,8135 4002,8149C4001,8155 3999,8173 3998,8188C3997,8203 3993,8220 3988,8226C3984,8232 3981,8275 3982,8322C3984,8402 3982,8410 3956,8445L3927,8482L3836,8477C3735,8470 3671,8462 3659,8455C3650,8449 3653,8410 3663,8393C3667,8387 3667,8375 3664,8366C3658,8349 3678,8350 3756,8370C3787,8378 3837,8376 3847,8367C3858,8355 3818,8301 3786,8286C3739,8264 3635,8263 3599,8286C3563,8308 3535,8483 3562,8517C3567,8524 3569,8533 3566,8538C3559,8550 3629,8617 3663,8629C3679,8635 3710,8640 3733,8640C3768,8640 3780,8635 3805,8605C3843,8561 3893,8552 3898,8589C3903,8620 3876,8668 3833,8704C3805,8727 3789,8733 3742,8735C3711,8736 3666,8732 3642,8727Z" style="fill-rule:nonzero;"/>
                <path d="M5527,8724C5523,8720 5449,8716 5361,8715C5274,8714 5197,8710 5191,8706C5180,8699 5182,8570 5195,8395C5197,8368 5201,8305 5204,8256C5208,8207 5212,8165 5214,8161C5222,8149 5527,8155 5543,8168C5551,8175 5563,8179 5570,8178C5576,8176 5587,8183 5593,8193C5603,8208 5601,8215 5581,8231C5568,8241 5544,8250 5526,8250C5302,8254 5285,8255 5284,8270C5283,8278 5282,8287 5281,8290C5273,8307 5275,8342 5284,8348C5290,8352 5320,8355 5350,8356C5380,8356 5417,8360 5432,8363C5456,8369 5459,8374 5455,8406C5447,8461 5435,8478 5403,8474C5388,8471 5352,8468 5325,8466L5275,8461L5273,8530L5270,8598L5399,8597C5510,8595 5531,8597 5547,8613C5564,8628 5566,8638 5560,8671C5552,8713 5538,8735 5527,8724Z" style="fill-rule:nonzero;"/>
                <path d="M816,7921C817,7857 820,7796 823,7785C829,7754 875,7742 981,7745C1034,7747 1092,7745 1110,7741L1143,7734L1148,7665C1159,7464 1151,6651 1136,6535C1133,6513 1128,6461 1125,6420C1118,6320 1112,6315 1019,6335C912,6357 885,6355 856,6323C832,6298 832,6295 847,6278C856,6268 869,6260 877,6260C884,6260 890,6255 890,6249C890,6243 899,6240 910,6243C921,6246 930,6245 930,6241C930,6237 965,6233 1008,6231C1135,6227 1124,6235 1130,6139C1133,6093 1135,5953 1135,5828C1135,5702 1137,5600 1140,5600C1143,5600 1145,5384 1145,5120C1145,4703 1143,4638 1130,4630C1122,4625 1108,4623 1100,4625C1091,4628 1035,4632 976,4634C827,4640 768,4612 816,4559C825,4549 838,4544 845,4546C852,4549 860,4547 863,4542C869,4534 930,4534 1048,4544C1079,4546 1100,4544 1100,4538C1100,4532 1106,4530 1113,4533C1121,4536 1133,4534 1140,4530C1157,4520 1157,4543 1134,3880C1131,3784 1128,3528 1128,3313C1128,3097 1126,2920 1122,2919C1035,2911 926,2903 858,2901C824,2900 822,2880 849,2828C860,2809 866,2789 862,2785C858,2781 869,2780 885,2784C969,2802 992,2804 1074,2805L1164,2805L1164,2590C1165,2406 1163,2375 1150,2374C1115,2373 1088,2356 1038,2301C991,2251 983,2235 973,2183C955,2089 976,1977 1022,1908C1032,1894 1040,1878 1040,1873C1040,1856 1110,1796 1132,1793C1145,1791 1160,1788 1167,1786C1176,1782 1178,1556 1171,1296C1170,1279 1163,1278 1083,1284C1034,1288 978,1292 957,1293C936,1295 916,1292 913,1287C910,1283 902,1281 896,1283C889,1286 870,1278 854,1265L825,1241L848,1218C869,1196 877,1195 1015,1195C1112,1195 1163,1191 1171,1183C1184,1170 1186,1087 1175,1020C1171,995 1166,883 1164,770L1160,564L1208,565C1235,566 1262,570 1268,574C1276,579 1280,642 1281,783C1281,894 1283,1002 1284,1023C1286,1043 1288,1087 1288,1120L1290,1180L1384,1175C1436,1172 1583,1168 1709,1165C1836,1163 1944,1158 1950,1155C1957,1151 1959,1053 1958,870L1955,592L1995,587C2066,580 2065,576 2066,883L2067,1155L2271,1151C2546,1145 2660,1146 2755,1152C2843,1158 2863,1150 2851,1117C2845,1098 2846,922 2853,682L2855,620L2890,626C2951,636 2951,635 2949,700C2948,733 2943,763 2938,766C2934,769 2932,783 2935,797C2939,824 2941,939 2939,1070L2938,1145L3181,1147C3315,1148 3491,1150 3573,1152C3700,1156 3720,1154 3721,1141C3723,1117 3728,922 3732,753L3735,602L3768,598C3786,596 3805,599 3809,604C3821,619 3831,981 3822,1068C3818,1108 3817,1144 3820,1148C3823,1153 3940,1156 4080,1156C4220,1155 4373,1157 4420,1160C4467,1163 4519,1163 4535,1160L4565,1155L4567,1065C4568,1016 4569,882 4570,768C4571,653 4575,560 4579,560C4583,560 4595,569 4605,580C4615,591 4629,600 4637,600C4644,600 4650,608 4651,618C4652,638 4649,948 4647,1069L4645,1153L4720,1156C4761,1157 4874,1161 4970,1165C5066,1169 5187,1173 5239,1173L5333,1175L5336,1020C5337,935 5339,817 5339,759L5340,653L5394,652L5449,652L5449,917C5450,1064 5452,1185 5454,1188C5462,1195 5520,1193 5575,1185C5620,1178 5645,1177 5698,1181C5707,1182 5723,1189 5732,1198C5748,1212 5748,1215 5730,1250L5711,1287L5628,1283C5582,1281 5523,1278 5497,1277C5471,1275 5447,1277 5444,1281C5442,1286 5437,1388 5435,1509L5430,1728L5475,1746C5527,1765 5552,1796 5607,1900C5632,1948 5633,2109 5608,2161C5588,2203 5514,2277 5468,2302L5435,2320L5438,2477C5440,2564 5443,2651 5445,2670C5447,2689 5449,2726 5449,2751L5450,2796L5600,2793L5750,2789L5750,2820C5750,2861 5724,2922 5708,2919C5701,2918 5675,2919 5650,2923C5625,2926 5571,2932 5530,2935C5401,2945 5415,2923 5414,3116C5414,3209 5410,3332 5406,3390C5395,3548 5395,3584 5405,3720C5410,3789 5415,4001 5415,4193L5414,4540L5440,4541C5454,4542 5468,4542 5472,4541C5501,4537 5618,4527 5630,4528C5708,4534 5723,4551 5694,4601C5675,4633 5673,4634 5615,4630C5582,4628 5522,4626 5481,4626L5407,4625L5403,4735C5397,4940 5397,5734 5404,5900C5414,6155 5421,6234 5432,6241C5444,6249 5522,6246 5536,6238C5541,6235 5593,6234 5652,6234C5740,6235 5763,6238 5777,6253C5800,6276 5784,6304 5745,6308C5729,6310 5707,6318 5696,6325C5681,6335 5639,6338 5543,6337C5461,6336 5409,6339 5406,6345C5404,6351 5404,6366 5405,6380C5406,6394 5408,6496 5409,6606L5410,6808L5439,6813C5484,6822 5578,6891 5585,6920C5589,6934 5599,6953 5607,6962C5618,6974 5623,7005 5625,7070C5627,7119 5625,7160 5621,7160C5618,7160 5604,7180 5590,7205C5576,7230 5559,7250 5550,7250C5542,7250 5526,7257 5516,7265C5505,7273 5477,7280 5454,7280L5412,7280L5412,7499C5411,7658 5414,7721 5423,7727C5436,7737 5764,7736 5816,7726C5836,7723 5847,7725 5848,7733C5850,7763 5849,7927 5847,7945C5845,7956 5840,7976 5836,7990L5829,8016L5407,8016C5175,8016 4938,8019 4880,8023C4762,8031 4286,8032 3990,8025C3476,8012 2217,8006 1930,8015C1867,8017 1608,8022 1355,8025C1102,8028 877,8032 854,8033L814,8036L816,7921ZM1807,7727L1929,7725L1923,7450C1920,7299 1917,6985 1916,6753L1915,6330L1818,6329C1764,6329 1682,6328 1635,6328C1588,6327 1547,6323 1544,6318C1541,6314 1535,6312 1530,6315C1525,6318 1465,6323 1398,6326C1234,6333 1225,6334 1227,6347C1234,6382 1241,6719 1244,7090C1245,7324 1247,7566 1248,7627L1250,7740L1468,7734C1587,7731 1740,7728 1807,7727ZM2796,7716C2798,7705 2802,7593 2803,7468C2806,7242 2806,7240 2785,7240C2774,7240 2728,7218 2683,7190C2576,7124 2537,7070 2545,6996C2553,6929 2569,6869 2583,6850C2603,6824 2720,6780 2768,6780C2787,6780 2790,6774 2791,6743C2792,6697 2792,6605 2790,6605C2790,6605 2787,6542 2785,6466C2782,6390 2778,6325 2775,6322C2771,6317 2472,6316 2098,6319L2012,6320L2010,6538C2007,6852 2009,7150 2017,7350C2020,7446 2023,7569 2023,7623C2024,7704 2026,7720 2039,7721C2048,7722 2127,7724 2214,7726C2301,7728 2374,7731 2376,7732C2377,7734 2471,7736 2584,7736C2787,7738 2790,7737 2796,7716ZM3657,7732C3665,7730 3667,7715 3662,7687C3654,7633 3657,7425 3668,7338C3673,7301 3674,7266 3670,7260C3667,7254 3624,7251 3569,7252C3376,7255 3115,7248 3090,7238C3060,7226 2968,7224 2924,7234L2893,7241L2891,7398C2890,7484 2887,7596 2884,7647L2878,7739L3262,7738C3472,7737 3650,7735 3657,7732ZM4340,7727L4505,7725L4507,7515C4509,7400 4508,7295 4505,7284C4501,7264 4493,7262 4423,7260C4380,7259 4336,7258 4325,7258C4266,7259 3970,7258 3877,7256C3817,7256 3766,7258 3764,7262C3761,7266 3760,7347 3761,7442C3761,7537 3762,7641 3762,7672C3761,7729 3762,7729 3793,7732C3811,7734 3904,7734 4000,7732C4096,7731 4249,7728 4340,7727ZM5087,7727C5215,7725 5293,7721 5300,7714C5312,7702 5313,7591 5305,7400C5299,7263 5297,7261 5196,7259C5030,7256 4778,7259 4692,7265L4599,7272L4606,7458C4611,7628 4616,7733 4619,7736C4620,7737 4680,7735 4753,7733C4825,7731 4976,7728 5087,7727ZM5265,6822C5291,6825 5300,6822 5301,6810C5305,6755 5305,6613 5301,6606C5299,6600 5295,6546 5294,6486C5293,6425 5292,6364 5291,6352L5290,6328L4983,6333C4813,6336 4655,6335 4630,6330C4605,6326 4583,6324 4581,6326C4579,6328 4577,6358 4578,6392C4580,6485 4587,6752 4589,6772C4590,6787 4602,6789 4678,6789C4726,6789 4806,6793 4855,6799C4905,6804 4991,6812 5048,6815C5105,6819 5163,6825 5178,6830C5193,6834 5210,6833 5217,6827C5224,6822 5246,6820 5265,6822ZM3400,6784C3469,6779 3555,6776 3593,6777C3638,6778 3660,6774 3661,6767C3670,6695 3674,6435 3667,6390C3665,6376 3660,6352 3656,6335L3650,6305L3273,6308C3000,6310 2894,6314 2889,6322C2883,6331 2883,6541 2889,6767C2890,6786 2896,6789 2938,6792C3022,6797 3272,6793 3400,6784ZM4491,6767C4495,6689 4487,6330 4481,6329C4478,6329 4317,6327 4124,6326L3773,6324L3774,6354C3774,6371 3771,6428 3767,6480C3763,6532 3759,6620 3758,6675L3756,6775L4058,6776C4225,6777 4363,6780 4365,6782C4368,6784 4397,6787 4430,6788C4486,6790 4490,6788 4491,6767ZM4491,6241C4494,6241 4494,6220 4490,6195C4486,6170 4486,6148 4489,6145C4493,6143 4493,6109 4490,6070C4481,5947 4492,5299 4505,5239C4514,5192 4527,4633 4518,4625C4516,4623 4494,4620 4470,4619C4445,4618 4421,4614 4416,4612C4410,4609 4272,4605 4109,4603C3886,4601 3809,4603 3804,4612C3795,4626 3794,4657 3786,5285C3782,5544 3777,5789 3775,5830C3772,5871 3767,5948 3764,6000C3751,6197 3755,6226 3798,6232C3814,6234 3929,6237 4055,6238C4181,6239 4285,6241 4286,6243C4288,6245 4480,6244 4491,6241ZM5120,6242L5285,6240L5285,5922C5285,5748 5286,5601 5288,5597C5298,5575 5310,4789 5302,4673L5298,4621L5182,4620C5117,4619 4964,4617 4840,4616L4615,4615L4608,4770C4604,4855 4598,5004 4595,5100C4591,5196 4587,5311 4584,5355C4582,5399 4578,5616 4575,5837L4570,6239L4627,6242C4684,6245 4790,6245 5120,6242ZM1515,6215C1683,6207 1786,6207 1845,6213C1901,6219 1911,6213 1910,6171C1910,6151 1911,5852 1912,5505C1914,5159 1914,4815 1912,4742L1909,4608L1807,4616C1751,4621 1603,4624 1479,4624L1254,4623L1252,4899C1252,5051 1249,5222 1246,5280C1230,5602 1219,6131 1228,6192C1232,6217 1236,6219 1289,6222C1320,6224 1350,6224 1355,6223C1361,6222 1433,6218 1515,6215ZM3677,6024C3679,5688 3691,4801 3694,4702L3696,4610L3311,4614C3098,4617 2920,4619 2915,4620C2908,4620 2903,4691 2901,4818C2900,4926 2897,5078 2895,5155C2893,5232 2890,5501 2888,5753L2885,6210L2920,6211C2939,6211 3078,6213 3229,6215C3379,6217 3504,6220 3506,6222C3507,6224 3546,6225 3592,6225L3675,6224L3677,6024ZM2776,6072C2777,5935 2788,5492 2796,5305C2798,5250 2802,5072 2804,4909L2808,4614L2582,4612C2177,4608 2038,4609 2033,4614C2030,4617 2026,4733 2024,4872C2023,5011 2019,5222 2015,5340C2007,5588 2001,6180 2007,6195C2009,6201 2127,6205 2336,6204C2515,6204 2681,6207 2703,6210C2777,6220 2775,6225 2776,6072ZM1315,4520C1315,4515 1397,4511 1639,4506C1790,4503 1915,4498 1918,4495C1921,4492 1925,4377 1926,4240C1928,4000 1927,3990 1909,3990C1852,3990 1776,3908 1738,3805C1709,3728 1714,3561 1745,3542C1752,3538 1767,3515 1779,3490C1809,3425 1855,3373 1895,3359L1930,3346L1930,2922L1858,2918C1818,2916 1668,2915 1525,2915L1265,2915L1264,3190C1263,3341 1259,3573 1255,3705C1245,3995 1245,4423 1254,4484C1261,4525 1263,4528 1288,4525C1303,4523 1315,4521 1315,4520ZM5303,4516C5306,4508 5306,4499 5303,4496C5296,4489 5293,4390 5300,4390C5307,4390 5308,4334 5310,3845C5312,3468 5308,3328 5296,3250C5293,3236 5291,3225 5290,3225C5289,3225 5278,3130 5278,3115C5278,3110 5281,3094 5284,3080C5302,3003 5301,2961 5280,2940C5261,2921 5249,2920 5017,2920C4884,2920 4737,2919 4690,2918L4605,2915L4603,2985C4598,3133 4599,3261 4606,3425C4611,3519 4614,3799 4614,4048C4615,4296 4617,4500 4620,4500C4689,4502 4990,4514 5090,4520C5301,4531 5297,4531 5303,4516ZM2820,4491C2820,4488 2823,4346 2826,4175C2833,3796 2833,3618 2825,3435C2822,3358 2817,3255 2815,3205C2811,3093 2799,2946 2794,2941C2792,2939 2643,2936 2463,2935C2283,2933 2113,2929 2087,2925L2038,2919L2046,2977C2055,3054 2055,3064 2046,3139C2042,3174 2037,3237 2034,3279L2030,3355L2080,3378C2135,3403 2221,3483 2247,3533C2277,3591 2270,3720 2232,3800C2223,3819 2215,3838 2215,3841C2215,3844 2203,3857 2189,3871C2175,3884 2165,3900 2167,3906C2169,3912 2140,3933 2103,3951L2035,3985L2034,4241L2034,4498L2140,4496C2198,4495 2250,4492 2255,4489C2267,4483 2700,4486 2748,4493C2766,4495 2783,4500 2786,4503C2793,4510 2820,4500 2820,4491ZM3693,4467C3697,4437 3693,3520 3687,3115L3684,2925L3302,2924C3092,2923 2919,2925 2919,2929C2918,2932 2916,3037 2915,3161C2913,3286 2909,3393 2906,3399C2902,3405 2904,3410 2911,3410C2918,3410 2919,3414 2913,3423C2908,3429 2905,3480 2907,3535C2912,3729 2913,4067 2909,4273C2907,4388 2908,4483 2911,4485C2914,4487 3081,4491 3283,4493C3485,4495 3653,4500 3656,4503C3669,4516 3688,4497 3693,4467ZM4084,4500C4188,4500 4332,4503 4404,4506L4535,4512L4539,4383C4545,4182 4543,3673 4535,3480C4531,3384 4527,3217 4526,3110L4524,2915L4364,2912C4111,2906 3812,2907 3797,2913C3786,2917 3781,2939 3780,3002C3775,3181 3780,3776 3787,3980C3794,4180 3795,4308 3789,4438C3786,4500 3793,4507 3852,4503C3876,4502 3980,4501 4084,4500ZM1937,2772C1948,2428 1951,2285 1951,1935C1951,1595 1946,1294 1941,1269C1941,1266 1921,1265 1898,1267C1874,1269 1729,1273 1576,1275C1422,1278 1295,1282 1293,1284C1291,1286 1288,1403 1287,1543L1285,1798L1315,1804C1332,1808 1351,1811 1359,1812C1381,1814 1429,1870 1454,1923C1483,1981 1481,2062 1450,2159C1439,2194 1430,2227 1430,2232C1430,2254 1342,2343 1303,2361L1260,2379L1259,2530C1258,2612 1258,2696 1258,2715C1258,2734 1258,2763 1259,2778L1260,2807L1421,2808C1510,2808 1584,2811 1586,2813C1589,2815 1668,2817 1763,2818L1935,2818L1937,2772ZM2805,2799C2808,2790 2810,2770 2809,2754C2808,2738 2810,2642 2814,2540C2823,2270 2833,1790 2835,1514L2837,1273L2676,1271C2216,1266 2071,1266 2066,1270C2063,1273 2059,1430 2056,1619C2054,1807 2049,1964 2046,1967C2043,1971 2045,1979 2051,1987C2057,1994 2059,2000 2054,2000C2049,2000 2044,2069 2044,2153C2043,2236 2041,2402 2040,2520C2039,2638 2039,2753 2039,2775L2040,2815L2420,2815C2762,2815 2801,2813 2805,2799ZM3696,2807C3704,2800 3712,2523 3715,2145C3720,1659 3728,1311 3735,1299C3738,1295 3737,1285 3734,1277C3729,1264 3691,1263 3452,1267C3300,1269 3122,1272 3057,1273L2940,1275L2934,1435C2932,1523 2927,1678 2925,1780C2923,1882 2921,1965 2920,1965C2919,1965 2917,2156 2915,2390L2911,2815L3302,2812C3517,2811 3695,2809 3696,2807ZM4371,2810L4527,2811L4522,2698C4516,2530 4516,2487 4524,2230C4528,2101 4532,1928 4534,1845C4539,1651 4550,1365 4555,1318C4558,1287 4555,1280 4538,1274C4485,1258 3854,1252 3837,1269C3832,1274 3826,1412 3824,1576C3822,1741 3818,2021 3815,2200C3813,2379 3808,2541 3805,2560C3800,2593 3797,2707 3799,2777C3800,2798 3806,2810 3817,2812C3826,2814 3919,2814 4024,2812C4129,2811 4285,2810 4371,2810ZM5111,2800L5307,2800L5307,2718C5306,2575 5317,2334 5324,2322C5328,2315 5325,2310 5316,2310C5285,2310 5204,2256 5174,2216C5144,2176 5125,2105 5121,2015C5119,1965 5149,1867 5183,1818C5212,1774 5293,1720 5328,1720C5339,1720 5341,1675 5339,1500L5336,1280L5261,1279C5219,1278 5160,1276 5130,1274C4996,1263 4677,1261 4660,1270C4646,1278 4642,1290 4644,1325C4645,1350 4644,1370 4641,1370C4638,1370 4635,1407 4634,1452C4634,1527 4624,1783 4614,1950C4612,1986 4608,2193 4605,2412L4599,2808L4757,2804C4844,2802 5003,2800 5111,2800Z" style="fill-rule:nonzero;"/>
                <path d="M2392,4312C2357,4279 2335,4214 2352,4193C2369,4172 2385,4178 2411,4217C2445,4269 2467,4280 2486,4256C2519,4211 2493,4136 2409,4029C2377,3988 2367,3960 2380,3940C2387,3928 2417,3925 2530,3925C2683,3924 2714,3932 2708,3973C2705,3994 2701,3995 2582,3992L2458,3989L2483,4022C2521,4071 2570,4181 2570,4215C2570,4243 2530,4316 2506,4332C2480,4350 2422,4340 2392,4312Z" style="fill-rule:nonzero;"/>
                <path d="M1625,2708C1557,2684 1516,2612 1553,2581C1563,2573 1573,2577 1594,2599C1610,2615 1636,2634 1653,2641C1679,2652 1684,2651 1696,2635C1704,2625 1710,2609 1710,2599C1710,2577 1672,2530 1654,2530C1646,2530 1640,2524 1640,2516C1640,2487 1653,2470 1674,2470C1706,2470 1740,2442 1740,2416C1740,2394 1709,2345 1685,2328C1662,2311 1636,2323 1589,2371C1537,2425 1510,2430 1510,2386C1510,2370 1525,2348 1558,2320C1614,2270 1630,2263 1675,2268C1717,2273 1785,2333 1795,2373C1805,2413 1792,2466 1764,2499C1751,2515 1744,2531 1748,2534C1762,2542 1770,2596 1763,2630C1755,2671 1708,2720 1678,2719C1666,2719 1642,2714 1625,2708Z" style="fill-rule:nonzero;"/>
                <path d="M6132,7343C6125,7319 6093,7276 6044,7225C6002,7181 5962,7132 5953,7117C5937,7086 5939,7049 5956,7043C5968,7039 6066,7130 6114,7189C6129,7207 6142,7221 6144,7219C6146,7217 6151,7168 6155,7110C6159,7052 6164,6994 6165,6980C6166,6966 6168,6945 6169,6933C6170,6916 6176,6910 6194,6910C6231,6910 6240,6930 6235,7000C6230,7073 6220,7175 6214,7205C6212,7216 6208,7256 6205,7294C6202,7332 6199,7364 6197,7366C6196,7367 6183,7371 6169,7375C6146,7381 6142,7377 6132,7343Z" style="fill-rule:nonzero;"/>
                <path d="M5727,2583C5714,2534 5711,2466 5718,2389C5720,2368 5742,2359 5800,2354C5874,2347 5873,2349 5868,2262C5862,2174 5873,2130 5901,2130C5924,2130 5928,2148 5935,2274C5938,2349 5943,2376 5955,2382C5976,2394 5974,2416 5950,2433C5939,2441 5929,2462 5926,2486C5924,2507 5921,2527 5920,2530C5919,2533 5919,2546 5919,2560C5922,2595 5898,2625 5875,2616C5859,2610 5858,2599 5862,2515L5867,2421L5824,2422L5780,2423L5780,2484C5780,2518 5784,2559 5789,2577C5796,2602 5795,2612 5781,2624C5752,2650 5743,2643 5727,2583Z" style="fill-rule:nonzero;"/>
            </g>
        </g>
        <g id="Ab1" serif:id="Ab">
        </g>
    </g>
</svg>
