<?xml version="1.0" encoding='UTF-8' standalone='no' ?>
<!DOCTYPE score-partwise PUBLIC "-//Recordare//DTD MusicXML 3.0 Partwise//EN" "http://www.musicxml.org/dtds/partwise.dtd">
<score-partwise version="3.0">
 <work>
  <work-title>Über den Wolken</work-title>
 </work>
 <identification>
  <rights>Copyright © </rights>
  <encoding>
   <encoding-date>2014-11-24</encoding-date>
   <encoder>Demian Holderegger</encoder>
   <software>Sibelius 7.1.3</software>
   <software>Direct export, not from Dolet</software>
   <encoding-description>Sibelius / MusicXML 3.0</encoding-description>
   <supports element="print" type="yes" value="yes" attribute="new-system" />
   <supports element="print" type="yes" value="yes" attribute="new-page" />
   <supports element="accidental" type="yes" />
   <supports element="beam" type="yes" />
   <supports element="stem" type="yes" />
  </encoding>
 </identification>
 <defaults>
  <scaling>
   <millimeters>210</millimeters>
   <tenths>1200</tenths>
  </scaling>
  <page-layout>
   <page-height>1697</page-height>
   <page-width>1200</page-width>
   <page-margins type="both">
    <left-margin>72</left-margin>
    <right-margin>72</right-margin>
    <top-margin>72</top-margin>
    <bottom-margin>72</bottom-margin>
   </page-margins>
  </page-layout>
  <system-layout>
   <system-margins>
    <left-margin>94</left-margin>
    <right-margin>0</right-margin>
   </system-margins>
   <system-distance>92</system-distance>
  </system-layout>
  <appearance>
   <line-width type="stem">0.9375</line-width>
   <line-width type="beam">5</line-width>
   <line-width type="staff">0.9375</line-width>
   <line-width type="light barline">1.5625</line-width>
   <line-width type="heavy barline">5</line-width>
   <line-width type="leger">1.5625</line-width>
   <line-width type="ending">1.5625</line-width>
   <line-width type="wedge">1.25</line-width>
   <line-width type="enclosure">0.9375</line-width>
   <line-width type="tuplet bracket">1.25</line-width>
   <line-width type="bracket">5</line-width>
   <line-width type="dashes">1.5625</line-width>
   <line-width type="extend">0.9375</line-width>
   <line-width type="octave shift">1.5625</line-width>
   <line-width type="pedal">1.5625</line-width>
   <line-width type="slur middle">1.5625</line-width>
   <line-width type="slur tip">0.625</line-width>
   <line-width type="tie middle">1.5625</line-width>
   <line-width type="tie tip">0.625</line-width>
   <note-size type="cue">75</note-size>
   <note-size type="grace">60</note-size>
  </appearance>
  <music-font font-family="Opus Std" font-size="19.8425" />
  <lyric-font font-family="Plantin MT Std" font-size="11.4715" />
  <lyric-language xml:lang="de" />
 </defaults>
 <credit page="1">
  <credit-words default-x="600" default-y="155" font-family="Plantin MT Std" font-style="normal" font-size="22.0128" font-weight="normal" justify="center" valign="middle">Über den Wolken</credit-words>
 </credit>
 <part-list>
  <score-part id="P1">
   <part-name>Akustische Gitarre</part-name>
   <part-name-display>
    <display-text>Akustische Gitarre</display-text>
   </part-name-display>
   <part-abbreviation>A.-Git.</part-abbreviation>
   <part-abbreviation-display>
    <display-text>A.-Git.</display-text>
   </part-abbreviation-display>
   <score-instrument id="P1-I1">
    <instrument-name>Acoustic Guitar (2)</instrument-name>
    <instrument-sound>pluck.guitar.steel-string</instrument-sound>
    <solo />
    <virtual-instrument>
     <virtual-library>General MIDI</virtual-library>
     <virtual-name>Acoustic Guitar (steel)</virtual-name>
    </virtual-instrument>
   </score-instrument>
  </score-part>
 </part-list>
 <part id="P1">
  <!--============== Part: P1, Measure: 1 ==============-->
  <measure number="1" width="433">
   <print new-page="yes">
    <system-layout>
     <system-margins>
      <left-margin>0</left-margin>
      <right-margin>0</right-margin>
     </system-margins>
     <top-system-distance>218</top-system-distance>
    </system-layout>
   </print>
   <attributes>
    <divisions>256</divisions>
    <key color="#000000">
     <fifths>1</fifths>
     <mode>major</mode>
    </key>
    <time symbol="common" color="#000000">
     <beats>4</beats>
     <beat-type>4</beat-type>
    </time>
    <staves>1</staves>
    <clef number="1" color="#000000">
     <sign>G</sign>
     <line>2</line>
    </clef>
    <staff-details number="1" print-object="yes" />
    <transpose>
     <diatonic>0</diatonic>
     <chromatic>0</chromatic>
     <octave-change>-1</octave-change>
    </transpose>
   </attributes>
   <harmony color="#000000" default-y="25">
    <root>
     <root-step>G</root-step>
    </root>
    <kind>major</kind>
    <staff>1</staff>
   </harmony>
   <note default-x="88">
    <rest />
    <duration>256</duration>
    <instrument id="P1-I1" />
    <voice>1</voice>
    <type>quarter</type>
    <staff>1</staff>
   </note>
   <note color="#000000" default-x="119" default-y="-10">
    <pitch>
     <step>D</step>
     <octave>4</octave>
    </pitch>
    <duration>128</duration>
    <instrument id="P1-I1" />
    <voice>1</voice>
    <type>eighth</type>
    <stem>up</stem>
    <staff>1</staff>
    <beam number="1">begin</beam>
    <lyric default-y="-86" number="part1verse1" color="#000000">
     <syllabic>single</syllabic>
     <text>Wind</text>
    </lyric>
    <lyric default-y="-111" number="part1verse2" color="#000000">
     <syllabic>single</syllabic>
     <text>Wie</text>
    </lyric>
   </note>
   <note color="#000000" default-x="181" default-y="-10">
    <pitch>
     <step>E</step>
     <octave>4</octave>
    </pitch>
    <duration>128</duration>
    <instrument id="P1-I1" />
    <voice>1</voice>
    <type>eighth</type>
    <stem>up</stem>
    <staff>1</staff>
    <beam number="1">end</beam>
    <lyric default-y="-86" number="part1verse1" color="#000000">
     <syllabic>begin</syllabic>
     <text>Nord</text>
    </lyric>
    <lyric default-y="-111" number="part1verse2" color="#000000">
     <syllabic>single</syllabic>
     <text>ein</text>
    </lyric>
   </note>
   <note color="#000000" default-x="235" default-y="2">
    <pitch>
     <step>G</step>
     <octave>4</octave>
    </pitch>
    <duration>128</duration>
    <instrument id="P1-I1" />
    <voice>1</voice>
    <type>eighth</type>
    <stem>up</stem>
    <staff>1</staff>
    <beam number="1">begin</beam>
    <lyric default-y="-86" number="part1verse1" color="#000000">
     <syllabic>end</syllabic>
     <text>Ost</text>
    </lyric>
    <lyric default-y="-111" number="part1verse2" color="#000000">
     <syllabic>single</syllabic>
     <text>Pfeil</text>
    </lyric>
   </note>
   <note color="#000000" default-x="290" default-y="2">
    <pitch>
     <step>E</step>
     <octave>4</octave>
    </pitch>
    <duration>128</duration>
    <instrument id="P1-I1" />
    <voice>1</voice>
    <type>eighth</type>
    <stem>up</stem>
    <staff>1</staff>
    <beam number="1">end</beam>
    <lyric default-y="-86" number="part1verse1" color="#000000">
     <syllabic>begin</syllabic>
     <text>Start</text>
    </lyric>
    <lyric default-y="-111" number="part1verse2" color="#000000">
     <syllabic>single</syllabic>
     <text>zieht</text>
    </lyric>
   </note>
   <note color="#000000" default-x="349" default-y="-15">
    <pitch>
     <step>D</step>
     <octave>4</octave>
    </pitch>
    <duration>128</duration>
    <instrument id="P1-I1" />
    <voice>1</voice>
    <type>eighth</type>
    <stem>up</stem>
    <staff>1</staff>
    <beam number="1">begin</beam>
    <lyric default-y="-86" number="part1verse1" color="#000000">
     <syllabic>end</syllabic>
     <text>bahn</text>
    </lyric>
    <lyric default-y="-111" number="part1verse2" color="#000000">
     <syllabic>single</syllabic>
     <text>sie</text>
    </lyric>
   </note>
   <note color="#000000" default-x="401" default-y="-15">
    <pitch>
     <step>B</step>
     <octave>3</octave>
    </pitch>
    <duration>128</duration>
    <instrument id="P1-I1" />
    <voice>1</voice>
    <type>eighth</type>
    <stem>up</stem>
    <staff>1</staff>
    <beam number="1">end</beam>
    <lyric default-y="-86" number="part1verse1" color="#000000">
     <syllabic>single</syllabic>
     <text>null</text>
    </lyric>
    <lyric default-y="-111" number="part1verse2" color="#000000">
     <syllabic>begin</syllabic>
     <text>vor</text>
    </lyric>
   </note>
  </measure>
  <!--============== Part: P1, Measure: 2 ==============-->
  <measure number="2" width="120">
   <harmony color="#000000" default-y="25">
    <root>
     <root-step>A</root-step>
    </root>
    <kind>minor</kind>
    <staff>1</staff>
   </harmony>
   <note color="#000000" default-x="15" default-y="-20">
    <pitch>
     <step>A</step>
     <octave>3</octave>
    </pitch>
    <duration>512</duration>
    <instrument id="P1-I1" />
    <voice>1</voice>
    <type>half</type>
    <stem>up</stem>
    <staff>1</staff>
    <lyric default-y="-86" number="part1verse1" color="#000000">
     <syllabic>single</syllabic>
     <text>drei</text>
    </lyric>
    <lyric default-y="-111" number="part1verse2" color="#000000">
     <syllabic>end</syllabic>
     <text>bei</text>
    </lyric>
   </note>
   <note default-x="68">
    <rest />
    <duration>512</duration>
    <instrument id="P1-I1" />
    <voice>1</voice>
    <type>half</type>
    <staff>1</staff>
   </note>
  </measure>
  <!--============== Part: P1, Measure: 3 ==============-->
  <measure number="3" width="308">
   <harmony color="#000000" default-y="25">
    <root>
     <root-step>D</root-step>
    </root>
    <kind>dominant</kind>
    <staff>1</staff>
   </harmony>
   <note default-x="15">
    <rest />
    <duration>256</duration>
    <instrument id="P1-I1" />
    <voice>1</voice>
    <type>quarter</type>
    <staff>1</staff>
   </note>
   <note color="#000000" default-x="45" default-y="-10">
    <pitch>
     <step>D</step>
     <octave>4</octave>
    </pitch>
    <duration>128</duration>
    <instrument id="P1-I1" />
    <voice>1</voice>
    <type>eighth</type>
    <stem>up</stem>
    <staff>1</staff>
    <beam number="1">begin</beam>
    <lyric default-y="-86" number="part1verse1" color="#000000">
     <syllabic>single</syllabic>
     <text>bis</text>
    </lyric>
    <lyric default-y="-111" number="part1verse2" color="#000000">
     <syllabic>single</syllabic>
     <text>und</text>
    </lyric>
   </note>
   <note color="#000000" default-x="86" default-y="-10">
    <pitch>
     <step>D</step>
     <octave>4</octave>
    </pitch>
    <duration>128</duration>
    <instrument id="P1-I1" />
    <voice>1</voice>
    <type>eighth</type>
    <stem>up</stem>
    <staff>1</staff>
    <beam number="1">end</beam>
    <lyric default-y="-86" number="part1verse1" color="#000000">
     <syllabic>single</syllabic>
     <text>hier</text>
    </lyric>
    <lyric default-y="-111" number="part1verse2" color="#000000">
     <syllabic>single</syllabic>
     <text>es</text>
    </lyric>
   </note>
   <note color="#000000" default-x="138" default-y="-10">
    <pitch>
     <step>D</step>
     <octave>4</octave>
    </pitch>
    <duration>128</duration>
    <instrument id="P1-I1" />
    <voice>1</voice>
    <type>eighth</type>
    <stem>up</stem>
    <staff>1</staff>
    <beam number="1">begin</beam>
    <lyric default-y="-86" number="part1verse1" color="#000000">
     <syllabic>single</syllabic>
     <text>hör&apos;</text>
    </lyric>
    <lyric default-y="-111" number="part1verse2" color="#000000">
     <syllabic>single</syllabic>
     <text>dröhnt</text>
    </lyric>
   </note>
   <note color="#000000" default-x="190" default-y="-10">
    <pitch>
     <step>D</step>
     <octave>4</octave>
    </pitch>
    <duration>128</duration>
    <instrument id="P1-I1" />
    <voice>1</voice>
    <type>eighth</type>
    <stem>up</stem>
    <staff>1</staff>
    <beam number="1">end</beam>
    <lyric default-y="-86" number="part1verse1" color="#000000">
     <syllabic>single</syllabic>
     <text>ich</text>
    </lyric>
    <lyric default-y="-111" number="part1verse2" color="#000000">
     <syllabic>single</syllabic>
     <text>in</text>
    </lyric>
   </note>
   <note color="#000000" default-x="228" default-y="-10">
    <pitch>
     <step>D</step>
     <octave>4</octave>
    </pitch>
    <duration>128</duration>
    <instrument id="P1-I1" />
    <voice>1</voice>
    <type>eighth</type>
    <stem>up</stem>
    <staff>1</staff>
    <beam number="1">begin</beam>
    <lyric default-y="-86" number="part1verse1" color="#000000">
     <syllabic>single</syllabic>
     <text>die</text>
    </lyric>
    <lyric default-y="-111" number="part1verse2" color="#000000">
     <syllabic>begin</syllabic>
     <text>mei</text>
    </lyric>
   </note>
   <note color="#000000" default-x="274" default-y="-10">
    <pitch>
     <step>D</step>
     <octave>4</octave>
    </pitch>
    <duration>128</duration>
    <instrument id="P1-I1" />
    <voice>1</voice>
    <type>eighth</type>
    <stem>up</stem>
    <staff>1</staff>
    <beam number="1">end</beam>
    <lyric default-y="-86" number="part1verse1" color="#000000">
     <syllabic>begin</syllabic>
     <text>Mo</text>
    </lyric>
    <lyric default-y="-111" number="part1verse2" color="#000000">
     <syllabic>end</syllabic>
     <text>nen</text>
    </lyric>
   </note>
  </measure>
  <!--============== Part: P1, Measure: 4 ==============-->
  <measure number="4" width="193">
   <harmony color="#000000" default-y="25">
    <root>
     <root-step>G</root-step>
    </root>
    <kind>major</kind>
    <staff>1</staff>
   </harmony>
   <note color="#000000" default-x="15" default-y="-17">
    <pitch>
     <step>C</step>
     <octave>4</octave>
    </pitch>
    <duration>128</duration>
    <instrument id="P1-I1" />
    <voice>1</voice>
    <type>eighth</type>
    <stem>up</stem>
    <staff>1</staff>
    <beam number="1">begin</beam>
    <lyric default-y="-86" number="part1verse1" color="#000000">
     <syllabic>middle</syllabic>
     <text>to</text>
    </lyric>
    <lyric default-y="-111" number="part1verse2" color="#000000">
     <syllabic>begin</syllabic>
     <text>Oh</text>
    </lyric>
   </note>
   <note color="#000000" default-x="56" default-y="-17">
    <pitch>
     <step>B</step>
     <octave>3</octave>
    </pitch>
    <duration>128</duration>
    <tie type="start" />
    <instrument id="P1-I1" />
    <voice>1</voice>
    <type>eighth</type>
    <stem>up</stem>
    <staff>1</staff>
    <beam number="1">end</beam>
    <notations>
     <tied type="start" />
    </notations>
    <lyric default-y="-86" number="part1verse1" color="#000000">
     <syllabic>end</syllabic>
     <text>ren</text>
     <extend />
    </lyric>
    <lyric default-y="-111" number="part1verse2" color="#000000">
     <syllabic>end</syllabic>
     <text>ren</text>
    </lyric>
   </note>
   <note color="#000000" default-x="86" default-y="-20">
    <pitch>
     <step>B</step>
     <octave>3</octave>
    </pitch>
    <duration>512</duration>
    <tie type="stop" />
    <instrument id="P1-I1" />
    <voice>1</voice>
    <type>half</type>
    <stem>up</stem>
    <staff>1</staff>
    <notations>
     <tied type="stop" />
    </notations>
   </note>
   <note default-x="139">
    <rest />
    <duration>256</duration>
    <instrument id="P1-I1" />
    <voice>1</voice>
    <type>quarter</type>
    <staff>1</staff>
   </note>
   <barline location="right">
    <bar-style>light-heavy</bar-style>
    <repeat direction="backward" />
   </barline>
  </measure>
  <!--============== Part: P1, Measure: 5 ==============-->
  <measure number="5" width="349">
   <print new-system="yes">
    <system-layout>
     <system-margins>
      <left-margin>0</left-margin>
      <right-margin>0</right-margin>
     </system-margins>
     <system-distance>92</system-distance>
    </system-layout>
   </print>
   <attributes>
    <staff-details number="1" print-object="yes" />
   </attributes>
   <note default-x="70">
    <rest />
    <duration>256</duration>
    <instrument id="P1-I1" />
    <voice>1</voice>
    <type>quarter</type>
    <staff>1</staff>
   </note>
   <note color="#000000" default-x="115" default-y="-52">
    <pitch>
     <step>B</step>
     <octave>4</octave>
    </pitch>
    <duration>128</duration>
    <instrument id="P1-I1" />
    <voice>1</voice>
    <type>eighth</type>
    <stem>down</stem>
    <staff>1</staff>
    <beam number="1">begin</beam>
    <lyric default-y="-80" number="part1verse1" color="#000000">
     <syllabic>single</syllabic>
     <text>und</text>
    </lyric>
   </note>
   <note color="#000000" default-x="159" default-y="-52">
    <pitch>
     <step>B</step>
     <octave>4</octave>
    </pitch>
    <duration>128</duration>
    <instrument id="P1-I1" />
    <voice>1</voice>
    <type>eighth</type>
    <stem>down</stem>
    <staff>1</staff>
    <beam number="1">end</beam>
    <lyric default-y="-80" number="part1verse1" color="#000000">
     <syllabic>single</syllabic>
     <text>der</text>
    </lyric>
   </note>
   <note color="#000000" default-x="200" default-y="12">
    <pitch>
     <step>B</step>
     <octave>4</octave>
    </pitch>
    <duration>128</duration>
    <instrument id="P1-I1" />
    <voice>1</voice>
    <type>eighth</type>
    <stem>up</stem>
    <staff>1</staff>
    <beam number="1">begin</beam>
    <lyric default-y="-80" number="part1verse1" color="#000000">
     <syllabic>begin</syllabic>
     <text>nas</text>
    </lyric>
   </note>
   <note color="#000000" default-x="236" default-y="12">
    <pitch>
     <step>G</step>
     <octave>4</octave>
    </pitch>
    <duration>128</duration>
    <instrument id="P1-I1" />
    <voice>1</voice>
    <type>eighth</type>
    <stem>up</stem>
    <staff>1</staff>
    <beam number="1">end</beam>
    <lyric default-y="-80" number="part1verse1" color="#000000">
     <syllabic>end</syllabic>
     <text>se</text>
    </lyric>
   </note>
   <note color="#000000" default-x="269">
    <pitch>
     <step>F</step>
     <alter>1</alter>
     <octave>4</octave>
    </pitch>
    <duration>128</duration>
    <instrument id="P1-I1" />
    <voice>1</voice>
    <type>eighth</type>
    <stem>up</stem>
    <staff>1</staff>
    <beam number="1">begin</beam>
    <lyric default-y="-80" number="part1verse1" color="#000000">
     <syllabic>begin</syllabic>
     <text>As</text>
    </lyric>
   </note>
   <note color="#000000" default-x="316">
    <pitch>
     <step>G</step>
     <octave>4</octave>
    </pitch>
    <duration>128</duration>
    <instrument id="P1-I1" />
    <voice>1</voice>
    <type>eighth</type>
    <stem>up</stem>
    <staff>1</staff>
    <beam number="1">end</beam>
    <lyric default-y="-80" number="part1verse1" color="#000000">
     <syllabic>end</syllabic>
     <text>phalt</text>
    </lyric>
   </note>
  </measure>
  <!--============== Part: P1, Measure: 6 ==============-->
  <measure number="6" width="169">
   <harmony color="#000000" default-y="25">
    <root>
     <root-step>A</root-step>
    </root>
    <kind>minor</kind>
    <staff>1</staff>
   </harmony>
   <note color="#000000" default-x="15" default-y="10">
    <pitch>
     <step>A</step>
     <octave>4</octave>
    </pitch>
    <duration>512</duration>
    <instrument id="P1-I1" />
    <voice>1</voice>
    <type>half</type>
    <stem>up</stem>
    <staff>1</staff>
    <lyric default-y="-80" number="part1verse1" color="#000000">
     <syllabic>single</syllabic>
     <text>bebt.</text>
    </lyric>
   </note>
   <note default-x="92">
    <rest />
    <duration>512</duration>
    <instrument id="P1-I1" />
    <voice>1</voice>
    <type>half</type>
    <staff>1</staff>
   </note>
  </measure>
  <!--============== Part: P1, Measure: 7 ==============-->
  <measure number="7" width="336">
   <harmony color="#000000" default-y="25">
    <root>
     <root-step>D</root-step>
    </root>
    <kind>dominant</kind>
    <staff>1</staff>
   </harmony>
   <note default-x="15">
    <rest />
    <duration>256</duration>
    <instrument id="P1-I1" />
    <voice>1</voice>
    <type>quarter</type>
    <staff>1</staff>
   </note>
   <note color="#000000" default-x="60" default-y="9">
    <pitch>
     <step>A</step>
     <octave>4</octave>
    </pitch>
    <duration>128</duration>
    <instrument id="P1-I1" />
    <voice>1</voice>
    <type>eighth</type>
    <stem>up</stem>
    <staff>1</staff>
    <beam number="1">begin</beam>
    <lyric default-y="-80" number="part1verse1" color="#000000">
     <syllabic>single</syllabic>
     <text>Wie</text>
    </lyric>
   </note>
   <note color="#000000" default-x="103" default-y="9">
    <pitch>
     <step>A</step>
     <octave>4</octave>
    </pitch>
    <duration>128</duration>
    <instrument id="P1-I1" />
    <voice>1</voice>
    <type>eighth</type>
    <stem>up</stem>
    <staff>1</staff>
    <beam number="1">end</beam>
    <lyric default-y="-80" number="part1verse1" color="#000000">
     <syllabic>single</syllabic>
     <text>ein</text>
    </lyric>
   </note>
   <note color="#000000" default-x="156" default-y="12">
    <pitch>
     <step>B</step>
     <octave>4</octave>
    </pitch>
    <duration>128</duration>
    <instrument id="P1-I1" />
    <voice>1</voice>
    <type>eighth</type>
    <stem>up</stem>
    <staff>1</staff>
    <beam number="1">begin</beam>
    <lyric default-y="-80" number="part1verse1" color="#000000">
     <syllabic>begin</syllabic>
     <text>Schlei</text>
    </lyric>
   </note>
   <note color="#000000" default-x="206" default-y="12">
    <pitch>
     <step>A</step>
     <octave>4</octave>
    </pitch>
    <duration>128</duration>
    <instrument id="P1-I1" />
    <voice>1</voice>
    <type>eighth</type>
    <stem>up</stem>
    <staff>1</staff>
    <beam number="1">end</beam>
    <lyric default-y="-80" number="part1verse1" color="#000000">
     <syllabic>middle</syllabic>
     <text>er</text>
    </lyric>
   </note>
   <note color="#000000" default-x="252" default-y="9">
    <pitch>
     <step>G</step>
     <octave>4</octave>
    </pitch>
    <duration>128</duration>
    <instrument id="P1-I1" />
    <voice>1</voice>
    <type>eighth</type>
    <stem>up</stem>
    <staff>1</staff>
    <beam number="1">begin</beam>
    <lyric default-y="-80" number="part1verse1" color="#000000">
     <syllabic>end</syllabic>
     <text>staub</text>
    </lyric>
   </note>
   <note color="#000000" default-x="303" default-y="9">
    <pitch>
     <step>A</step>
     <octave>4</octave>
    </pitch>
    <duration>128</duration>
    <instrument id="P1-I1" />
    <voice>1</voice>
    <type>eighth</type>
    <stem>up</stem>
    <staff>1</staff>
    <beam number="1">end</beam>
    <lyric default-y="-80" number="part1verse1" color="#000000">
     <syllabic>single</syllabic>
     <text>der</text>
    </lyric>
   </note>
  </measure>
  <!--============== Part: P1, Measure: 8 ==============-->
  <measure number="8" width="199">
   <harmony color="#000000" default-y="25">
    <root>
     <root-step>G</root-step>
    </root>
    <kind>major</kind>
    <staff>1</staff>
   </harmony>
   <note color="#000000" default-x="15" default-y="-50">
    <pitch>
     <step>C</step>
     <octave>5</octave>
    </pitch>
    <duration>384</duration>
    <instrument id="P1-I1" />
    <voice>1</voice>
    <type>quarter</type>
    <dot />
    <stem>down</stem>
    <staff>1</staff>
    <lyric default-y="-80" number="part1verse1" color="#000000">
     <syllabic>begin</syllabic>
     <text>Re</text>
    </lyric>
   </note>
   <note color="#000000" default-x="75" default-y="-55">
    <pitch>
     <step>B</step>
     <octave>4</octave>
    </pitch>
    <duration>128</duration>
    <tie type="start" />
    <instrument id="P1-I1" />
    <voice>1</voice>
    <type>eighth</type>
    <stem>down</stem>
    <staff>1</staff>
    <notations>
     <tied type="start" />
    </notations>
    <lyric default-y="-80" number="part1verse1" color="#000000">
     <syllabic>end</syllabic>
     <text>gen</text>
     <extend />
    </lyric>
   </note>
   <note color="#000000" default-x="108" default-y="-55">
    <pitch>
     <step>B</step>
     <octave>4</octave>
    </pitch>
    <duration>256</duration>
    <tie type="stop" />
    <instrument id="P1-I1" />
    <voice>1</voice>
    <type>quarter</type>
    <stem>down</stem>
    <staff>1</staff>
    <notations>
     <tied type="stop" />
    </notations>
   </note>
   <note default-x="154">
    <rest />
    <duration>256</duration>
    <instrument id="P1-I1" />
    <voice>1</voice>
    <type>quarter</type>
    <staff>1</staff>
   </note>
  </measure>
  <!--============== Part: P1, Measure: 9 ==============-->
  <measure number="9" width="334">
   <print new-system="yes">
    <system-layout>
     <system-margins>
      <left-margin>0</left-margin>
      <right-margin>0</right-margin>
     </system-margins>
     <system-distance>92</system-distance>
    </system-layout>
   </print>
   <attributes>
    <staff-details number="1" print-object="yes" />
   </attributes>
   <note default-x="70">
    <rest />
    <duration>256</duration>
    <instrument id="P1-I1" />
    <voice>1</voice>
    <type>quarter</type>
    <staff>1</staff>
   </note>
   <note color="#000000" default-x="106" default-y="-10">
    <pitch>
     <step>D</step>
     <octave>4</octave>
    </pitch>
    <duration>128</duration>
    <instrument id="P1-I1" />
    <voice>1</voice>
    <type>eighth</type>
    <stem>up</stem>
    <staff>1</staff>
    <beam number="1">begin</beam>
    <lyric default-y="-96" number="part1verse1" color="#000000">
     <syllabic>single</syllabic>
     <text>bis</text>
    </lyric>
   </note>
   <note color="#000000" default-x="141" default-y="-10">
    <pitch>
     <step>E</step>
     <octave>4</octave>
    </pitch>
    <duration>128</duration>
    <instrument id="P1-I1" />
    <voice>1</voice>
    <type>eighth</type>
    <stem>up</stem>
    <staff>1</staff>
    <beam number="1">end</beam>
    <lyric default-y="-96" number="part1verse1" color="#000000">
     <syllabic>single</syllabic>
     <text>sie</text>
    </lyric>
   </note>
   <note color="#000000" default-x="174" default-y="2">
    <pitch>
     <step>G</step>
     <octave>4</octave>
    </pitch>
    <duration>128</duration>
    <instrument id="P1-I1" />
    <voice>1</voice>
    <type>eighth</type>
    <stem>up</stem>
    <staff>1</staff>
    <beam number="1">begin</beam>
    <lyric default-y="-96" number="part1verse1" color="#000000">
     <syllabic>begin</syllabic>
     <text>ab</text>
    </lyric>
   </note>
   <note color="#000000" default-x="217" default-y="2">
    <pitch>
     <step>E</step>
     <octave>4</octave>
    </pitch>
    <duration>128</duration>
    <instrument id="P1-I1" />
    <voice>1</voice>
    <type>eighth</type>
    <stem>up</stem>
    <staff>1</staff>
    <beam number="1">end</beam>
    <lyric default-y="-96" number="part1verse1" color="#000000">
     <syllabic>end</syllabic>
     <text>hebt</text>
    </lyric>
   </note>
   <note color="#000000" default-x="267" default-y="-15">
    <pitch>
     <step>D</step>
     <octave>4</octave>
    </pitch>
    <duration>128</duration>
    <instrument id="P1-I1" />
    <voice>1</voice>
    <type>eighth</type>
    <stem>up</stem>
    <staff>1</staff>
    <beam number="1">begin</beam>
    <lyric default-y="-96" number="part1verse1" color="#000000">
     <syllabic>single</syllabic>
     <text>und</text>
    </lyric>
   </note>
   <note color="#000000" default-x="308" default-y="-15">
    <pitch>
     <step>B</step>
     <octave>3</octave>
    </pitch>
    <duration>128</duration>
    <instrument id="P1-I1" />
    <voice>1</voice>
    <type>eighth</type>
    <stem>up</stem>
    <staff>1</staff>
    <beam number="1">end</beam>
    <lyric default-y="-96" number="part1verse1" color="#000000">
     <syllabic>single</syllabic>
     <text>sie</text>
    </lyric>
   </note>
  </measure>
  <!--============== Part: P1, Measure: 10 ==============-->
  <measure number="10" width="137">
   <harmony color="#000000" default-y="25">
    <root>
     <root-step>A</root-step>
    </root>
    <kind>minor</kind>
    <staff>1</staff>
   </harmony>
   <note color="#000000" default-x="15" default-y="-20">
    <pitch>
     <step>A</step>
     <octave>3</octave>
    </pitch>
    <duration>512</duration>
    <instrument id="P1-I1" />
    <voice>1</voice>
    <type>half</type>
    <stem>up</stem>
    <staff>1</staff>
    <lyric default-y="-96" number="part1verse1" color="#000000">
     <syllabic>single</syllabic>
     <text>schwebt</text>
    </lyric>
   </note>
   <note default-x="76">
    <rest />
    <duration>512</duration>
    <instrument id="P1-I1" />
    <voice>1</voice>
    <type>half</type>
    <staff>1</staff>
   </note>
  </measure>
  <!--============== Part: P1, Measure: 11 ==============-->
  <measure number="11" width="203">
   <harmony color="#000000" default-y="25">
    <root>
     <root-step>D</root-step>
    </root>
    <kind>dominant</kind>
    <staff>1</staff>
   </harmony>
   <note default-x="15">
    <rest />
    <duration>256</duration>
    <instrument id="P1-I1" />
    <voice>1</voice>
    <type>quarter</type>
    <staff>1</staff>
   </note>
   <note color="#000000" default-x="51" default-y="-20">
    <pitch>
     <step>A</step>
     <octave>3</octave>
    </pitch>
    <duration>256</duration>
    <instrument id="P1-I1" />
    <voice>1</voice>
    <type>quarter</type>
    <stem>up</stem>
    <staff>1</staff>
    <lyric default-y="-96" number="part1verse1" color="#000000">
     <syllabic>single</syllabic>
     <text>der</text>
    </lyric>
   </note>
   <note color="#000000" default-x="95" default-y="-20">
    <pitch>
     <step>A</step>
     <octave>3</octave>
    </pitch>
    <duration>170</duration>
    <instrument id="P1-I1" />
    <voice>1</voice>
    <type>quarter</type>
    <time-modification>
     <actual-notes>3</actual-notes>
     <normal-notes>2</normal-notes>
     <normal-type>quarter</normal-type>
    </time-modification>
    <stem>up</stem>
    <staff>1</staff>
    <notations>
     <tuplet type="start" bracket="yes" number="1" default-y="12" placement="above" />
    </notations>
    <lyric default-y="-96" number="part1verse1" color="#000000">
     <syllabic>begin</syllabic>
     <text>Son</text>
    </lyric>
   </note>
   <note color="#000000" default-x="136" default-y="-15">
    <pitch>
     <step>C</step>
     <octave>4</octave>
    </pitch>
    <duration>171</duration>
    <instrument id="P1-I1" />
    <voice>1</voice>
    <type>quarter</type>
    <time-modification>
     <actual-notes>3</actual-notes>
     <normal-notes>2</normal-notes>
     <normal-type>quarter</normal-type>
    </time-modification>
    <stem>up</stem>
    <staff>1</staff>
    <lyric default-y="-96" number="part1verse1" color="#000000">
     <syllabic>end</syllabic>
     <text>ne</text>
    </lyric>
   </note>
   <note color="#000000" default-x="171" default-y="-20">
    <pitch>
     <step>B</step>
     <octave>3</octave>
    </pitch>
    <duration>171</duration>
    <instrument id="P1-I1" />
    <voice>1</voice>
    <type>quarter</type>
    <time-modification>
     <actual-notes>3</actual-notes>
     <normal-notes>2</normal-notes>
     <normal-type>quarter</normal-type>
    </time-modification>
    <stem>up</stem>
    <staff>1</staff>
    <notations>
     <tuplet type="stop" bracket="yes" number="1" default-y="12" placement="above" />
    </notations>
    <lyric default-y="-96" number="part1verse1" color="#000000">
     <syllabic>begin</syllabic>
     <text>ent</text>
    </lyric>
   </note>
  </measure>
  <!--============== Part: P1, Measure: 12 ==============-->
  <measure number="12" width="196">
   <harmony color="#000000" default-y="25">
    <root>
     <root-step>G</root-step>
    </root>
    <kind>major</kind>
    <staff>1</staff>
   </harmony>
   <note color="#000000" default-x="15" default-y="-17">
    <pitch>
     <step>A</step>
     <octave>3</octave>
    </pitch>
    <duration>128</duration>
    <instrument id="P1-I1" />
    <voice>1</voice>
    <type>eighth</type>
    <stem>up</stem>
    <staff>1</staff>
    <beam number="1">begin</beam>
    <lyric default-y="-96" number="part1verse1" color="#000000">
     <syllabic>middle</syllabic>
     <text>ge</text>
    </lyric>
   </note>
   <note color="#000000" default-x="56" default-y="-17">
    <pitch>
     <step>G</step>
     <octave>3</octave>
    </pitch>
    <duration>128</duration>
    <tie type="start" />
    <instrument id="P1-I1" />
    <voice>1</voice>
    <type>eighth</type>
    <stem>up</stem>
    <staff>1</staff>
    <beam number="1">end</beam>
    <notations>
     <tied type="start" />
    </notations>
    <lyric default-y="-96" number="part1verse1" color="#000000">
     <syllabic>end</syllabic>
     <text>gen.</text>
     <extend />
    </lyric>
   </note>
   <note color="#000000" default-x="87" default-y="-20">
    <pitch>
     <step>G</step>
     <octave>3</octave>
    </pitch>
    <duration>512</duration>
    <tie type="stop" />
    <instrument id="P1-I1" />
    <voice>1</voice>
    <type>half</type>
    <stem>up</stem>
    <staff>1</staff>
    <notations>
     <tied type="stop" />
    </notations>
   </note>
   <note default-x="148">
    <rest />
    <duration>256</duration>
    <instrument id="P1-I1" />
    <voice>1</voice>
    <type>quarter</type>
    <staff>1</staff>
   </note>
   <barline>
    <bar-style>light-light</bar-style>
   </barline>
  </measure>
  <!--============== Part: P1, Measure: 13 ==============-->
  <measure number="13" width="183">
   <note default-x="15">
    <rest />
    <duration>512</duration>
    <instrument id="P1-I1" />
    <voice>1</voice>
    <type>half</type>
    <staff>1</staff>
   </note>
   <note color="#000000" default-x="76" default-y="5">
    <pitch>
     <step>G</step>
     <octave>4</octave>
    </pitch>
    <duration>170</duration>
    <instrument id="P1-I1" />
    <voice>1</voice>
    <type>quarter</type>
    <time-modification>
     <actual-notes>3</actual-notes>
     <normal-notes>2</normal-notes>
     <normal-type>quarter</normal-type>
    </time-modification>
    <stem>up</stem>
    <staff>1</staff>
    <notations>
     <tuplet type="start" bracket="yes" number="1" default-y="17" placement="above" />
    </notations>
    <lyric default-y="-96" number="part1verse1" color="#000000">
     <syllabic>begin</syllabic>
     <text>Ü</text>
    </lyric>
   </note>
   <note color="#000000" default-x="111">
    <pitch>
     <step>F</step>
     <alter>1</alter>
     <octave>4</octave>
    </pitch>
    <duration>171</duration>
    <instrument id="P1-I1" />
    <voice>1</voice>
    <type>quarter</type>
    <time-modification>
     <actual-notes>3</actual-notes>
     <normal-notes>2</normal-notes>
     <normal-type>quarter</normal-type>
    </time-modification>
    <stem>up</stem>
    <staff>1</staff>
    <lyric default-y="-96" number="part1verse1" color="#000000">
     <syllabic>end</syllabic>
     <text>ber</text>
    </lyric>
   </note>
   <note color="#000000" default-x="154" default-y="5">
    <pitch>
     <step>G</step>
     <octave>4</octave>
    </pitch>
    <duration>171</duration>
    <instrument id="P1-I1" />
    <voice>1</voice>
    <type>quarter</type>
    <time-modification>
     <actual-notes>3</actual-notes>
     <normal-notes>2</normal-notes>
     <normal-type>quarter</normal-type>
    </time-modification>
    <stem>up</stem>
    <staff>1</staff>
    <notations>
     <tuplet type="stop" bracket="yes" number="1" default-y="17" placement="above" />
    </notations>
    <lyric default-y="-96" number="part1verse1" color="#000000">
     <syllabic>single</syllabic>
     <text>den</text>
    </lyric>
   </note>
  </measure>
  <!--============== Part: P1, Measure: 14 ==============-->
  <measure number="14" width="225">
   <print new-system="yes">
    <system-layout>
     <system-margins>
      <left-margin>0</left-margin>
      <right-margin>0</right-margin>
     </system-margins>
     <system-distance>92</system-distance>
    </system-layout>
   </print>
   <attributes>
    <staff-details number="1" print-object="yes" />
   </attributes>
   <harmony color="#000000" default-y="25">
    <root>
     <root-step>A</root-step>
    </root>
    <kind>minor</kind>
    <staff>1</staff>
   </harmony>
   <note color="#000000" default-x="70" default-y="5">
    <pitch>
     <step>G</step>
     <octave>4</octave>
    </pitch>
    <duration>256</duration>
    <instrument id="P1-I1" />
    <voice>1</voice>
    <type>quarter</type>
    <stem>up</stem>
    <staff>1</staff>
    <lyric default-y="-86" number="part1verse1" color="#000000">
     <syllabic>begin</syllabic>
     <text>Wol</text>
    </lyric>
   </note>
   <note color="#000000" default-x="121" default-y="-5">
    <pitch>
     <step>E</step>
     <octave>4</octave>
    </pitch>
    <duration>768</duration>
    <instrument id="P1-I1" />
    <voice>1</voice>
    <type>half</type>
    <dot />
    <stem>up</stem>
    <staff>1</staff>
    <lyric default-y="-86" number="part1verse1" color="#000000">
     <syllabic>end</syllabic>
     <text>den</text>
    </lyric>
   </note>
  </measure>
  <!--============== Part: P1, Measure: 15 ==============-->
  <measure number="15" width="299">
   <harmony color="#000000" default-y="25">
    <root>
     <root-step>D</root-step>
    </root>
    <kind>dominant</kind>
    <staff>1</staff>
   </harmony>
   <note default-x="15">
    <rest />
    <duration>256</duration>
    <instrument id="P1-I1" />
    <voice>1</voice>
    <type>quarter</type>
    <staff>1</staff>
   </note>
   <note color="#000000" default-x="66" default-y="9">
    <pitch>
     <step>A</step>
     <octave>4</octave>
    </pitch>
    <duration>128</duration>
    <instrument id="P1-I1" />
    <voice>1</voice>
    <type>eighth</type>
    <stem>up</stem>
    <staff>1</staff>
    <beam number="1">begin</beam>
    <lyric default-y="-86" number="part1verse1" color="#000000">
     <syllabic>single</syllabic>
     <text>muss</text>
    </lyric>
   </note>
   <note color="#000000" default-x="115" default-y="9">
    <pitch>
     <step>A</step>
     <octave>4</octave>
    </pitch>
    <duration>128</duration>
    <instrument id="P1-I1" />
    <voice>1</voice>
    <type>eighth</type>
    <stem>up</stem>
    <staff>1</staff>
    <beam number="1">end</beam>
    <lyric default-y="-86" number="part1verse1" color="#000000">
     <syllabic>single</syllabic>
     <text>die</text>
    </lyric>
   </note>
   <note color="#000000" default-x="158" default-y="10">
    <pitch>
     <step>A</step>
     <octave>4</octave>
    </pitch>
    <duration>170</duration>
    <instrument id="P1-I1" />
    <voice>1</voice>
    <type>quarter</type>
    <time-modification>
     <actual-notes>3</actual-notes>
     <normal-notes>2</normal-notes>
     <normal-type>quarter</normal-type>
    </time-modification>
    <stem>up</stem>
    <staff>1</staff>
    <notations>
     <tuplet type="start" bracket="yes" number="1" default-y="-52" placement="above" />
    </notations>
    <lyric default-y="-86" number="part1verse1" color="#000000">
     <syllabic>begin</syllabic>
     <text>Frei</text>
    </lyric>
   </note>
   <note color="#000000" default-x="207" default-y="-55">
    <pitch>
     <step>B</step>
     <octave>4</octave>
    </pitch>
    <duration>171</duration>
    <instrument id="P1-I1" />
    <voice>1</voice>
    <type>quarter</type>
    <time-modification>
     <actual-notes>3</actual-notes>
     <normal-notes>2</normal-notes>
     <normal-type>quarter</normal-type>
    </time-modification>
    <stem>down</stem>
    <staff>1</staff>
    <lyric default-y="-86" number="part1verse1" color="#000000">
     <syllabic>end</syllabic>
     <text>heit</text>
    </lyric>
   </note>
   <note color="#000000" default-x="257" default-y="-50">
    <pitch>
     <step>C</step>
     <octave>5</octave>
    </pitch>
    <duration>171</duration>
    <instrument id="P1-I1" />
    <voice>1</voice>
    <type>quarter</type>
    <time-modification>
     <actual-notes>3</actual-notes>
     <normal-notes>2</normal-notes>
     <normal-type>quarter</normal-type>
    </time-modification>
    <stem>down</stem>
    <staff>1</staff>
    <notations>
     <tuplet type="stop" bracket="yes" number="1" default-y="-52" placement="above" />
    </notations>
    <lyric default-y="-86" number="part1verse1" color="#000000">
     <syllabic>single</syllabic>
     <text>wohl</text>
    </lyric>
   </note>
  </measure>
  <!--============== Part: P1, Measure: 16 ==============-->
  <measure number="16" width="233">
   <harmony color="#000000" default-y="25">
    <root>
     <root-step>G</root-step>
    </root>
    <kind>major</kind>
    <staff>1</staff>
   </harmony>
   <note color="#000000" default-x="15" default-y="-50">
    <pitch>
     <step>C</step>
     <octave>5</octave>
    </pitch>
    <duration>170</duration>
    <instrument id="P1-I1" />
    <voice>1</voice>
    <type>quarter</type>
    <time-modification>
     <actual-notes>3</actual-notes>
     <normal-notes>2</normal-notes>
     <normal-type>quarter</normal-type>
    </time-modification>
    <stem>down</stem>
    <staff>1</staff>
    <notations>
     <tuplet type="start" bracket="yes" number="1" default-y="12" placement="below" />
    </notations>
    <lyric default-y="-86" number="part1verse1" color="#000000">
     <syllabic>begin</syllabic>
     <text>gren</text>
    </lyric>
   </note>
   <note color="#000000" default-x="63" default-y="-55">
    <pitch>
     <step>B</step>
     <octave>4</octave>
    </pitch>
    <duration>171</duration>
    <instrument id="P1-I1" />
    <voice>1</voice>
    <type>quarter</type>
    <time-modification>
     <actual-notes>3</actual-notes>
     <normal-notes>2</normal-notes>
     <normal-type>quarter</normal-type>
    </time-modification>
    <stem>down</stem>
    <staff>1</staff>
    <lyric default-y="-86" number="part1verse1" color="#000000">
     <syllabic>middle</syllabic>
     <text>zen</text>
    </lyric>
   </note>
   <note color="#000000" default-x="105" default-y="5">
    <pitch>
     <step>G</step>
     <octave>4</octave>
    </pitch>
    <duration>171</duration>
    <instrument id="P1-I1" />
    <voice>1</voice>
    <type>quarter</type>
    <time-modification>
     <actual-notes>3</actual-notes>
     <normal-notes>2</normal-notes>
     <normal-type>quarter</normal-type>
    </time-modification>
    <stem>up</stem>
    <staff>1</staff>
    <notations>
     <tuplet type="stop" bracket="yes" number="1" default-y="12" placement="below" />
    </notations>
    <lyric default-y="-86" number="part1verse1" color="#000000">
     <syllabic>end</syllabic>
     <text>los</text>
    </lyric>
   </note>
   <note color="#000000" default-x="146" default-y="-10">
    <pitch>
     <step>D</step>
     <octave>4</octave>
    </pitch>
    <duration>512</duration>
    <instrument id="P1-I1" />
    <voice>1</voice>
    <type>half</type>
    <stem>up</stem>
    <staff>1</staff>
    <lyric default-y="-86" number="part1verse1" color="#000000">
     <syllabic>single</syllabic>
     <text>sein</text>
    </lyric>
   </note>
  </measure>
  <!--============== Part: P1, Measure: 17 ==============-->
  <measure number="17" width="296">
   <note default-x="15">
    <rest />
    <duration>256</duration>
    <instrument id="P1-I1" />
    <voice>1</voice>
    <type>quarter</type>
    <staff>1</staff>
   </note>
   <note color="#000000" default-x="66" default-y="2">
    <pitch>
     <step>G</step>
     <octave>4</octave>
    </pitch>
    <duration>128</duration>
    <instrument id="P1-I1" />
    <voice>1</voice>
    <type>eighth</type>
    <stem>up</stem>
    <staff>1</staff>
    <beam number="1">begin</beam>
    <lyric default-y="-86" number="part1verse1" color="#000000">
     <syllabic>begin</syllabic>
     <text>al</text>
    </lyric>
   </note>
   <note color="#000000" default-x="103" default-y="2">
    <pitch>
     <step>G</step>
     <octave>4</octave>
    </pitch>
    <duration>128</duration>
    <instrument id="P1-I1" />
    <voice>1</voice>
    <type>eighth</type>
    <stem>up</stem>
    <staff>1</staff>
    <beam number="1">end</beam>
    <lyric default-y="-86" number="part1verse1" color="#000000">
     <syllabic>end</syllabic>
     <text>le</text>
    </lyric>
   </note>
   <note color="#000000" default-x="140" default-y="2">
    <pitch>
     <step>G</step>
     <octave>4</octave>
    </pitch>
    <duration>128</duration>
    <instrument id="P1-I1" />
    <voice>1</voice>
    <type>eighth</type>
    <stem>up</stem>
    <staff>1</staff>
    <beam number="1">begin</beam>
    <lyric default-y="-86" number="part1verse1" color="#000000">
     <syllabic>begin</syllabic>
     <text>Äng</text>
    </lyric>
   </note>
   <note color="#000000" default-x="184" default-y="2">
    <pitch>
     <step>G</step>
     <octave>4</octave>
    </pitch>
    <duration>128</duration>
    <instrument id="P1-I1" />
    <voice>1</voice>
    <type>eighth</type>
    <stem>up</stem>
    <staff>1</staff>
    <beam number="1">end</beam>
    <lyric default-y="-86" number="part1verse1" color="#000000">
     <syllabic>end</syllabic>
     <text>ste</text>
    </lyric>
   </note>
   <note color="#000000" default-x="222" default-y="9">
    <pitch>
     <step>A</step>
     <octave>4</octave>
    </pitch>
    <duration>128</duration>
    <instrument id="P1-I1" />
    <voice>1</voice>
    <type>eighth</type>
    <stem>up</stem>
    <staff>1</staff>
    <beam number="1">begin</beam>
    <lyric default-y="-86" number="part1verse1" color="#000000">
     <syllabic>begin</syllabic>
     <text>al</text>
    </lyric>
   </note>
   <note color="#000000" default-x="259" default-y="9">
    <pitch>
     <step>B</step>
     <octave>4</octave>
    </pitch>
    <duration>128</duration>
    <instrument id="P1-I1" />
    <voice>1</voice>
    <type>eighth</type>
    <stem>up</stem>
    <staff>1</staff>
    <beam number="1">end</beam>
    <lyric default-y="-86" number="part1verse1" color="#000000">
     <syllabic>end</syllabic>
     <text>le</text>
    </lyric>
   </note>
  </measure>
  <!--============== Part: P1, Measure: 18 ==============-->
  <measure number="18" width="359">
   <print new-system="yes">
    <system-layout>
     <system-margins>
      <left-margin>0</left-margin>
      <right-margin>0</right-margin>
     </system-margins>
     <system-distance>92</system-distance>
    </system-layout>
   </print>
   <attributes>
    <staff-details number="1" print-object="yes" />
   </attributes>
   <harmony color="#000000" default-y="25">
    <root>
     <root-step>A</root-step>
    </root>
    <kind>minor</kind>
    <staff>1</staff>
   </harmony>
   <note color="#000000" default-x="70" default-y="-55">
    <pitch>
     <step>B</step>
     <octave>4</octave>
    </pitch>
    <duration>170</duration>
    <instrument id="P1-I1" />
    <voice>1</voice>
    <type>quarter</type>
    <time-modification>
     <actual-notes>3</actual-notes>
     <normal-notes>2</normal-notes>
     <normal-type>quarter</normal-type>
    </time-modification>
    <stem>down</stem>
    <staff>1</staff>
    <notations>
     <tuplet type="start" bracket="yes" number="1" default-y="12" placement="above" />
    </notations>
    <lyric default-y="-80" number="part1verse1" color="#000000">
     <syllabic>begin</syllabic>
     <text>Sor</text>
    </lyric>
   </note>
   <note color="#000000" default-x="126" default-y="10">
    <pitch>
     <step>A</step>
     <octave>4</octave>
    </pitch>
    <duration>171</duration>
    <instrument id="P1-I1" />
    <voice>1</voice>
    <type>quarter</type>
    <time-modification>
     <actual-notes>3</actual-notes>
     <normal-notes>2</normal-notes>
     <normal-type>quarter</normal-type>
    </time-modification>
    <stem>up</stem>
    <staff>1</staff>
    <lyric default-y="-80" number="part1verse1" color="#000000">
     <syllabic>end</syllabic>
     <text>gen</text>
    </lyric>
   </note>
   <note color="#000000" default-x="183" default-y="-55">
    <pitch>
     <step>B</step>
     <octave>4</octave>
    </pitch>
    <duration>171</duration>
    <instrument id="P1-I1" />
    <voice>1</voice>
    <type>quarter</type>
    <time-modification>
     <actual-notes>3</actual-notes>
     <normal-notes>2</normal-notes>
     <normal-type>quarter</normal-type>
    </time-modification>
    <stem>down</stem>
    <staff>1</staff>
    <notations>
     <tuplet type="stop" bracket="yes" number="1" default-y="12" placement="above" />
    </notations>
    <lyric default-y="-80" number="part1verse1" color="#000000">
     <syllabic>single</syllabic>
     <text>sagt</text>
    </lyric>
   </note>
   <note color="#000000" default-x="240" default-y="10">
    <pitch>
     <step>A</step>
     <octave>4</octave>
    </pitch>
    <duration>512</duration>
    <instrument id="P1-I1" />
    <voice>1</voice>
    <type>half</type>
    <stem>up</stem>
    <staff>1</staff>
    <lyric default-y="-80" number="part1verse1" color="#000000">
     <syllabic>single</syllabic>
     <text>man,</text>
    </lyric>
   </note>
  </measure>
  <!--============== Part: P1, Measure: 19 ==============-->
  <measure number="19" width="391">
   <harmony color="#000000" default-y="25">
    <root>
     <root-step>D</root-step>
    </root>
    <kind>dominant</kind>
    <staff>1</staff>
   </harmony>
   <note default-x="15">
    <rest />
    <duration>256</duration>
    <instrument id="P1-I1" />
    <voice>1</voice>
    <type>quarter</type>
    <staff>1</staff>
   </note>
   <note color="#000000" default-x="85">
    <pitch>
     <step>F</step>
     <alter>1</alter>
     <octave>4</octave>
    </pitch>
    <duration>128</duration>
    <instrument id="P1-I1" />
    <voice>1</voice>
    <type>eighth</type>
    <stem>up</stem>
    <staff>1</staff>
    <beam number="1">begin</beam>
    <lyric default-y="-80" number="part1verse1" color="#000000">
     <syllabic>begin</syllabic>
     <text>blie</text>
    </lyric>
   </note>
   <note color="#000000" default-x="136">
    <pitch>
     <step>F</step>
     <alter>1</alter>
     <octave>4</octave>
    </pitch>
    <duration>128</duration>
    <instrument id="P1-I1" />
    <voice>1</voice>
    <type>eighth</type>
    <stem>up</stem>
    <staff>1</staff>
    <beam number="1">end</beam>
    <lyric default-y="-80" number="part1verse1" color="#000000">
     <syllabic>end</syllabic>
     <text>ben</text>
    </lyric>
   </note>
   <note color="#000000" default-x="187">
    <pitch>
     <step>F</step>
     <alter>1</alter>
     <octave>4</octave>
    </pitch>
    <duration>128</duration>
    <instrument id="P1-I1" />
    <voice>1</voice>
    <type>eighth</type>
    <stem>up</stem>
    <staff>1</staff>
    <beam number="1">begin</beam>
    <lyric default-y="-80" number="part1verse1" color="#000000">
     <syllabic>begin</syllabic>
     <text>da</text>
    </lyric>
   </note>
   <note color="#000000" default-x="238">
    <pitch>
     <step>F</step>
     <alter>1</alter>
     <octave>4</octave>
    </pitch>
    <duration>128</duration>
    <instrument id="P1-I1" />
    <voice>1</voice>
    <type>eighth</type>
    <stem>up</stem>
    <staff>1</staff>
    <beam number="1">end</beam>
    <lyric default-y="-80" number="part1verse1" color="#000000">
     <syllabic>middle</syllabic>
     <text>run</text>
    </lyric>
   </note>
   <note color="#000000" default-x="289" default-y="9">
    <pitch>
     <step>G</step>
     <octave>4</octave>
    </pitch>
    <duration>128</duration>
    <instrument id="P1-I1" />
    <voice>1</voice>
    <type>eighth</type>
    <stem>up</stem>
    <staff>1</staff>
    <beam number="1">begin</beam>
    <lyric default-y="-80" number="part1verse1" color="#000000">
     <syllabic>end</syllabic>
     <text>ter</text>
    </lyric>
   </note>
   <note color="#000000" default-x="340" default-y="9">
    <pitch>
     <step>A</step>
     <octave>4</octave>
    </pitch>
    <duration>128</duration>
    <instrument id="P1-I1" />
    <voice>1</voice>
    <type>eighth</type>
    <stem>up</stem>
    <staff>1</staff>
    <beam number="1">end</beam>
    <lyric default-y="-80" number="part1verse1" color="#000000">
     <syllabic>begin</syllabic>
     <text>ver</text>
    </lyric>
   </note>
  </measure>
  <!--============== Part: P1, Measure: 20 ==============-->
  <measure number="20" width="304">
   <harmony color="#000000" default-y="25">
    <root>
     <root-step>G</root-step>
    </root>
    <kind>major</kind>
    <staff>1</staff>
   </harmony>
   <note color="#000000" default-x="15" default-y="10">
    <pitch>
     <step>A</step>
     <octave>4</octave>
    </pitch>
    <duration>170</duration>
    <instrument id="P1-I1" />
    <voice>1</voice>
    <type>quarter</type>
    <time-modification>
     <actual-notes>3</actual-notes>
     <normal-notes>2</normal-notes>
     <normal-type>quarter</normal-type>
    </time-modification>
    <stem>up</stem>
    <staff>1</staff>
    <notations>
     <tuplet type="start" bracket="yes" number="1" default-y="22" placement="above" />
    </notations>
    <lyric default-y="-80" number="part1verse1" color="#000000">
     <syllabic>middle</syllabic>
     <text>bor</text>
    </lyric>
   </note>
   <note color="#000000" default-x="71" default-y="5">
    <pitch>
     <step>G</step>
     <octave>4</octave>
    </pitch>
    <duration>171</duration>
    <instrument id="P1-I1" />
    <voice>1</voice>
    <type>quarter</type>
    <time-modification>
     <actual-notes>3</actual-notes>
     <normal-notes>2</normal-notes>
     <normal-type>quarter</normal-type>
    </time-modification>
    <stem>up</stem>
    <staff>1</staff>
    <lyric default-y="-80" number="part1verse1" color="#000000">
     <syllabic>end</syllabic>
     <text>gen</text>
    </lyric>
   </note>
   <note color="#000000" default-x="128" default-y="10">
    <pitch>
     <step>A</step>
     <octave>4</octave>
    </pitch>
    <duration>171</duration>
    <instrument id="P1-I1" />
    <voice>1</voice>
    <type>quarter</type>
    <time-modification>
     <actual-notes>3</actual-notes>
     <normal-notes>2</normal-notes>
     <normal-type>quarter</normal-type>
    </time-modification>
    <stem>up</stem>
    <staff>1</staff>
    <notations>
     <tuplet type="stop" bracket="yes" number="1" default-y="22" placement="above" />
    </notations>
    <lyric default-y="-80" number="part1verse1" color="#000000">
     <syllabic>single</syllabic>
     <text>und</text>
    </lyric>
   </note>
   <note color="#000000" default-x="184" default-y="5">
    <pitch>
     <step>G</step>
     <octave>4</octave>
    </pitch>
    <duration>512</duration>
    <instrument id="P1-I1" />
    <voice>1</voice>
    <type>half</type>
    <stem>up</stem>
    <staff>1</staff>
    <lyric default-y="-80" number="part1verse1" color="#000000">
     <syllabic>single</syllabic>
     <text>dann</text>
    </lyric>
   </note>
  </measure>
  <!--============== Part: P1, Measure: 21 ==============-->
  <measure number="21" width="373">
   <print new-system="yes">
    <system-layout>
     <system-margins>
      <left-margin>0</left-margin>
      <right-margin>0</right-margin>
     </system-margins>
     <system-distance>92</system-distance>
    </system-layout>
   </print>
   <attributes>
    <staff-details number="1" print-object="yes" />
   </attributes>
   <harmony color="#000000" default-y="25">
    <root>
     <root-step>C</root-step>
    </root>
    <kind>major</kind>
    <staff>1</staff>
   </harmony>
   <direction>
    <direction-type>
     <words default-y="-155" justify="left" valign="middle" font-family="Plantin MT Std" font-style="normal" font-size="11.4715" font-weight="normal">Ich seh ihr noch lange nach, </words>
     <words justify="left" valign="middle" font-family="Plantin MT Std" font-style="normal" font-size="11.4715" font-weight="normal">seh&apos;, sie die Wolken erklimmen, </words>
     <words justify="left" valign="middle" font-family="Plantin MT Std" font-style="normal" font-size="11.4715" font-weight="normal">bis die Lichter nach und nach</words>
     <words justify="left" valign="middle" font-family="Plantin MT Std" font-style="normal" font-size="11.4715" font-weight="normal">ganz im Regengrau verschwimmen. </words>
     <words justify="left" valign="middle" font-family="Plantin MT Std" font-style="normal" font-size="11.4715" font-weight="normal">Meine Augen haben schon</words>
     <words justify="left" valign="middle" font-family="Plantin MT Std" font-style="normal" font-size="11.4715" font-weight="normal">jenen winz&apos;gen Punkt verloren. </words>
     <words justify="left" valign="middle" font-family="Plantin MT Std" font-style="normal" font-size="11.4715" font-weight="normal">Nur von fern klingt monoton</words>
     <words justify="left" valign="middle" font-family="Plantin MT Std" font-style="normal" font-size="11.4715" font-weight="normal">das Summen der Motoren.                  Ref. </words>
     <words justify="left" valign="middle" font-family="Plantin MT Std" font-style="normal" font-size="11.4715" font-weight="normal">Dann ist alles still, ich geh&apos;</words>
     <words justify="left" valign="middle" font-family="Plantin MT Std" font-style="normal" font-size="11.4715" font-weight="normal">Regen durchdringt meine Jacke</words>
     <words justify="left" valign="middle" font-family="Plantin MT Std" font-style="normal" font-size="11.4715" font-weight="normal">irgend jemand kocht Kaffee</words>
     <words justify="left" valign="middle" font-family="Plantin MT Std" font-style="normal" font-size="11.4715" font-weight="normal">in der Luftaufsichtsbaracke.</words>
     <words justify="left" valign="middle" font-family="Plantin MT Std" font-style="normal" font-size="11.4715" font-weight="normal">In den Pfützen schwimmt Benzin</words>
     <words justify="left" valign="middle" font-family="Plantin MT Std" font-style="normal" font-size="11.4715" font-weight="normal">schillernd wie ein Regenbogen.</words>
     <words justify="left" valign="middle" font-family="Plantin MT Std" font-style="normal" font-size="11.4715" font-weight="normal">Wolgen spiegeln sich darin.</words>
     <words justify="left" valign="middle" font-family="Plantin MT Std" font-style="normal" font-size="11.4715" font-weight="normal">Ich wär gern mitgeflogen.                    Ref. </words>
    </direction-type>
    <offset sound="no">108</offset>
    <voice>1</voice>
    <staff>1</staff>
   </direction>
   <note default-x="70">
    <rest />
    <duration>256</duration>
    <instrument id="P1-I1" />
    <voice>1</voice>
    <type>quarter</type>
    <staff>1</staff>
   </note>
   <note color="#000000" default-x="108" default-y="-7">
    <pitch>
     <step>E</step>
     <octave>4</octave>
    </pitch>
    <duration>128</duration>
    <instrument id="P1-I1" />
    <voice>1</voice>
    <type>eighth</type>
    <stem>up</stem>
    <staff>1</staff>
    <beam number="1">begin</beam>
    <lyric default-y="-91" number="part1verse1" color="#000000">
     <syllabic>begin</syllabic>
     <text>wür</text>
    </lyric>
   </note>
   <note color="#000000" default-x="152" default-y="-7">
    <pitch>
     <step>E</step>
     <octave>4</octave>
    </pitch>
    <duration>128</duration>
    <instrument id="P1-I1" />
    <voice>1</voice>
    <type>eighth</type>
    <stem>up</stem>
    <staff>1</staff>
    <beam number="1">end</beam>
    <lyric default-y="-91" number="part1verse1" color="#000000">
     <syllabic>end</syllabic>
     <text>de,</text>
    </lyric>
   </note>
   <note color="#000000" default-x="194" default-y="-7">
    <pitch>
     <step>E</step>
     <octave>4</octave>
    </pitch>
    <duration>128</duration>
    <instrument id="P1-I1" />
    <voice>1</voice>
    <type>eighth</type>
    <stem>up</stem>
    <staff>1</staff>
    <beam number="1">begin</beam>
    <lyric default-y="-91" number="part1verse1" color="#000000">
     <syllabic>single</syllabic>
     <text>was</text>
    </lyric>
   </note>
   <note color="#000000" default-x="239" default-y="-7">
    <pitch>
     <step>E</step>
     <octave>4</octave>
    </pitch>
    <duration>128</duration>
    <instrument id="P1-I1" />
    <voice>1</voice>
    <type>eighth</type>
    <stem>up</stem>
    <staff>1</staff>
    <beam number="1">end</beam>
    <lyric default-y="-91" number="part1verse1" color="#000000">
     <syllabic>single</syllabic>
     <text>hier</text>
    </lyric>
   </note>
   <note color="#000000" default-x="292">
    <pitch>
     <step>E</step>
     <octave>4</octave>
    </pitch>
    <duration>128</duration>
    <instrument id="P1-I1" />
    <voice>1</voice>
    <type>eighth</type>
    <stem>up</stem>
    <staff>1</staff>
    <beam number="1">begin</beam>
    <lyric default-y="-91" number="part1verse1" color="#000000">
     <syllabic>single</syllabic>
     <text>gross</text>
    </lyric>
   </note>
   <note color="#000000" default-x="345">
    <pitch>
     <step>G</step>
     <octave>4</octave>
    </pitch>
    <duration>128</duration>
    <instrument id="P1-I1" />
    <voice>1</voice>
    <type>eighth</type>
    <stem>up</stem>
    <staff>1</staff>
    <beam number="1">end</beam>
    <lyric default-y="-91" number="part1verse1" color="#000000">
     <syllabic>single</syllabic>
     <text>und</text>
    </lyric>
   </note>
  </measure>
  <!--============== Part: P1, Measure: 22 ==============-->
  <measure number="22" width="252">
   <harmony color="#000000" default-y="25">
    <root>
     <root-step>G</root-step>
    </root>
    <kind>major</kind>
    <staff>1</staff>
   </harmony>
   <note color="#000000" default-x="15" default-y="-15">
    <pitch>
     <step>D</step>
     <octave>4</octave>
    </pitch>
    <duration>85</duration>
    <instrument id="P1-I1" />
    <voice>1</voice>
    <type>eighth</type>
    <time-modification>
     <actual-notes>3</actual-notes>
     <normal-notes>2</normal-notes>
     <normal-type>eighth</normal-type>
    </time-modification>
    <stem>up</stem>
    <staff>1</staff>
    <beam number="1">begin</beam>
    <notations>
     <tuplet type="start" bracket="yes" number="1" default-y="-20" placement="above" />
    </notations>
    <lyric default-y="-91" number="part1verse1" color="#000000">
     <syllabic>begin</syllabic>
     <text>wich</text>
    </lyric>
   </note>
   <note color="#000000" default-x="60" default-y="-15">
    <pitch>
     <step>C</step>
     <octave>4</octave>
    </pitch>
    <duration>85</duration>
    <instrument id="P1-I1" />
    <voice>1</voice>
    <type>eighth</type>
    <time-modification>
     <actual-notes>3</actual-notes>
     <normal-notes>2</normal-notes>
     <normal-type>eighth</normal-type>
    </time-modification>
    <stem>up</stem>
    <staff>1</staff>
    <beam number="1">continue</beam>
    <lyric default-y="-91" number="part1verse1" color="#000000">
     <syllabic>end</syllabic>
     <text>tig</text>
    </lyric>
   </note>
   <note color="#000000" default-x="90" default-y="-15">
    <pitch>
     <step>B</step>
     <octave>3</octave>
    </pitch>
    <duration>86</duration>
    <instrument id="P1-I1" />
    <voice>1</voice>
    <type>eighth</type>
    <time-modification>
     <actual-notes>3</actual-notes>
     <normal-notes>2</normal-notes>
     <normal-type>eighth</normal-type>
    </time-modification>
    <stem>up</stem>
    <staff>1</staff>
    <beam number="1">end</beam>
    <notations>
     <tuplet type="stop" bracket="yes" number="1" default-y="-20" placement="above" />
    </notations>
    <lyric default-y="-91" number="part1verse1" color="#000000">
     <syllabic>begin</syllabic>
     <text>er</text>
    </lyric>
   </note>
   <note color="#000000" default-x="148" default-y="-20">
    <pitch>
     <step>B</step>
     <octave>3</octave>
    </pitch>
    <duration>512</duration>
    <instrument id="P1-I1" />
    <voice>1</voice>
    <type>half</type>
    <stem>up</stem>
    <staff>1</staff>
    <lyric default-y="-91" number="part1verse1" color="#000000">
     <syllabic>end</syllabic>
     <text>scheint,</text>
    </lyric>
   </note>
   <note default-x="213">
    <rest />
    <duration>256</duration>
    <instrument id="P1-I1" />
    <voice>1</voice>
    <type>quarter</type>
    <staff>1</staff>
   </note>
  </measure>
  <!--============== Part: P1, Measure: 23 ==============-->
  <measure number="23" width="268">
   <harmony color="#000000" default-y="25">
    <root>
     <root-step>A</root-step>
    </root>
    <kind>minor</kind>
    <staff>1</staff>
   </harmony>
   <note default-x="15">
    <rest />
    <duration>256</duration>
    <instrument id="P1-I1" />
    <voice>1</voice>
    <type>quarter</type>
    <staff>1</staff>
   </note>
   <note color="#000000" default-x="53" default-y="-17">
    <pitch>
     <step>B</step>
     <octave>3</octave>
    </pitch>
    <duration>128</duration>
    <instrument id="P1-I1" />
    <voice>1</voice>
    <type>eighth</type>
    <stem>up</stem>
    <staff>1</staff>
    <beam number="1">begin</beam>
    <lyric default-y="-91" number="part1verse1" color="#000000">
     <syllabic>begin</syllabic>
     <text>plötz</text>
    </lyric>
   </note>
   <note color="#000000" default-x="105" default-y="-17">
    <pitch>
     <step>A</step>
     <octave>3</octave>
    </pitch>
    <duration>128</duration>
    <instrument id="P1-I1" />
    <voice>1</voice>
    <type>eighth</type>
    <stem>up</stem>
    <staff>1</staff>
    <beam number="1">end</beam>
    <lyric default-y="-91" number="part1verse1" color="#000000">
     <syllabic>end</syllabic>
     <text>lich</text>
    </lyric>
   </note>
   <harmony color="#000000" default-y="25">
    <root>
     <root-step>D</root-step>
    </root>
    <kind>dominant</kind>
    <staff>1</staff>
   </harmony>
   <note color="#000000" default-x="153" default-y="-15">
    <pitch>
     <step>C</step>
     <octave>4</octave>
    </pitch>
    <duration>170</duration>
    <instrument id="P1-I1" />
    <voice>1</voice>
    <type>quarter</type>
    <time-modification>
     <actual-notes>3</actual-notes>
     <normal-notes>2</normal-notes>
     <normal-type>quarter</normal-type>
    </time-modification>
    <stem>up</stem>
    <staff>1</staff>
    <notations>
     <tuplet type="start" bracket="yes" number="1" default-y="12" placement="above" />
    </notations>
    <lyric default-y="-91" number="part1verse1" color="#000000">
     <syllabic>begin</syllabic>
     <text>nich</text>
    </lyric>
   </note>
   <note color="#000000" default-x="196" default-y="-20">
    <pitch>
     <step>B</step>
     <octave>3</octave>
    </pitch>
    <duration>171</duration>
    <instrument id="P1-I1" />
    <voice>1</voice>
    <type>quarter</type>
    <time-modification>
     <actual-notes>3</actual-notes>
     <normal-notes>2</normal-notes>
     <normal-type>quarter</normal-type>
    </time-modification>
    <stem>up</stem>
    <staff>1</staff>
    <lyric default-y="-91" number="part1verse1" color="#000000">
     <syllabic>end</syllabic>
     <text>tig</text>
    </lyric>
   </note>
   <note color="#000000" default-x="237" default-y="-20">
    <pitch>
     <step>A</step>
     <octave>3</octave>
    </pitch>
    <duration>171</duration>
    <instrument id="P1-I1" />
    <voice>1</voice>
    <type>quarter</type>
    <time-modification>
     <actual-notes>3</actual-notes>
     <normal-notes>2</normal-notes>
     <normal-type>quarter</normal-type>
    </time-modification>
    <stem>up</stem>
    <staff>1</staff>
    <notations>
     <tuplet type="stop" bracket="yes" number="1" default-y="12" placement="above" />
    </notations>
    <lyric default-y="-91" number="part1verse1" color="#000000">
     <syllabic>single</syllabic>
     <text>und</text>
    </lyric>
   </note>
  </measure>
  <!--============== Part: P1, Measure: 24 ==============-->
  <measure number="24" width="160">
   <harmony color="#000000" default-y="25">
    <root>
     <root-step>G</root-step>
    </root>
    <kind>major</kind>
    <staff>1</staff>
   </harmony>
   <note color="#000000" default-x="15" default-y="-20">
    <pitch>
     <step>G</step>
     <octave>3</octave>
    </pitch>
    <duration>512</duration>
    <instrument id="P1-I1" />
    <voice>1</voice>
    <type>half</type>
    <stem>up</stem>
    <staff>1</staff>
    <lyric default-y="-91" number="part1verse1" color="#000000">
     <syllabic>single</syllabic>
     <text>klein.</text>
    </lyric>
   </note>
   <note default-x="80">
    <rest />
    <duration>512</duration>
    <instrument id="P1-I1" />
    <voice>1</voice>
    <type>half</type>
    <staff>1</staff>
   </note>
   <barline>
    <bar-style>light-heavy</bar-style>
   </barline>
  </measure>
 </part>
</score-partwise>
